<svg width="44" height="28" viewBox="0 0 44 28" fill="none" xmlns="http://www.w3.org/2000/svg">
<path d="M33.0711 1.91644C32.1273 2.22357 29.2577 3.65832 28.5892 4.31939C27.4462 5.44371 28.8698 5.66775 28.1566 8.27392C27.3802 11.117 27.2053 11.6387 26.6743 12.6289C26.4685 13.0121 25.9822 13.7327 25.7167 14.0478C25.4544 14.3624 24.9429 14.8322 24.8473 14.849C24.8288 14.8523 24.7546 14.7737 24.6826 14.6719L24.6104 14.2625L24.6653 13.8166C24.6334 12.8967 24.6715 13.113 24.6603 13.0495C24.6033 12.7262 24.0419 12.1377 24.0315 12.133C24.0242 12.1278 23.7425 12.7831 23.6786 12.8893C23.5536 13.0815 23.8047 13.5865 23.6279 13.7551C23.5303 13.8509 23.3017 13.7799 23.0492 13.7721C22.3084 13.7522 21.6369 14.1618 21.2722 14.8511L21.1418 15.1032L21.0854 15.3062C20.9335 15.3461 20.4497 14.9962 20.246 15.0124C20.049 15.0308 19.2904 14.991 19.1748 15.0114C18.9742 14.8706 19.002 15.1927 19.6136 15.8275C20.2252 16.4623 20.7532 16.1402 20.9958 16.3264C21.3962 16.6322 21.3184 16.79 21.3753 16.9501C21.394 17.0025 21.3716 17.0195 21.2301 17.0641C20.8913 17.1795 19.6609 17.3211 18.8942 17.3353C17.5159 17.359 16.248 17.1801 14.366 16.6906C12.1413 16.1143 12.4648 14.6234 11.3537 14.7211C9.96078 14.8424 7.23344 17.0844 6.25747 18.1825C5.59179 18.9315 5.37508 19.3427 4.49327 21.4976C4.0068 22.6861 3.87978 23.0292 3.74488 23.5079C3.63437 23.8906 3.51626 24.4644 3.54231 24.486C3.55268 24.4907 3.60929 24.4513 3.66675 24.3986C4.01597 24.072 4.5336 23.7451 5.02822 23.5401C5.27707 23.4373 5.42587 23.398 5.86974 23.3197C6.35116 23.2381 6.44223 23.2319 6.72635 23.257C7.8253 23.361 8.81961 23.9351 9.47142 24.8378C9.67002 25.1169 9.898 25.5087 10.0263 25.8035L10.0842 25.934L10.1515 25.8468C10.1874 25.798 10.3332 25.5432 10.4753 25.2858C10.9468 24.4271 11.272 24.036 11.8403 23.6544C12.4249 23.2568 12.9944 23.0255 13.6787 22.9048C14.7236 22.7206 15.5365 22.8783 16.3212 23.4173C16.8059 23.7507 17.1894 24.1772 17.4753 24.6994C17.5451 24.8246 17.6109 24.9275 17.6232 24.9253C17.6325 24.9237 17.6776 24.8012 17.7183 24.6533C17.7808 24.4492 17.854 24.3054 18.0376 24.0309C18.7061 23.0459 19.6332 22.4635 20.7586 22.3207C21.4706 22.2312 21.936 22.3291 22.3991 22.6663C22.7129 22.8957 22.9557 23.2095 23.1305 23.6237L23.2492 23.9006L23.36 23.6454C23.5834 23.1283 24.0179 22.6001 24.4436 22.3287C24.5349 22.2701 24.7149 22.1729 24.8469 22.1103L25.0811 21.997L25.2952 22.0575C25.409 22.0898 25.6516 22.2041 25.8261 22.3107C26.2458 22.5639 26.84 22.6259 27.0434 22.59C27.0434 22.59 27.1504 22.3226 27.1874 22.0281C27.1953 21.9646 27.1923 21.7491 27.1834 21.5544C27.1575 20.9928 27.1805 20.907 27.4599 20.5992C27.8778 20.1394 28.3859 19.7945 28.8032 19.6915C29.1013 19.616 29.2585 19.6243 29.6525 19.7315C29.943 19.8112 30.1434 19.8479 30.1383 19.8193C30.1372 19.813 30.0543 19.7032 29.9532 19.5804C29.849 19.458 29.7123 19.2596 29.6431 19.1376C29.5358 18.9439 29.5131 18.8693 29.4488 18.5043C29.3808 18.1368 29.3777 18.0653 29.4153 17.846C29.4703 17.509 29.5693 17.2593 29.7672 16.9397C30.1768 16.2883 30.8259 15.7517 31.619 15.4188C31.8759 15.308 32.0186 15.2698 32.4378 15.1959C32.9772 15.1007 33.1425 15.101 33.5527 15.1923C33.6617 15.2156 33.7469 15.2301 33.7458 15.2237C33.7452 15.2206 33.6805 15.124 33.6013 15.0169C33.2441 14.5236 33.0403 13.9803 33.0059 13.4072C32.9331 12.1831 33.6214 10.8411 34.7747 9.97351C35.8576 9.15755 36.9544 8.8529 38.0811 9.06C38.2091 9.08323 38.3237 9.1023 38.3361 9.10012C38.3453 9.09849 38.2879 9.00717 38.2075 8.89373C37.5831 8.03849 37.2623 7.04793 37.3059 6.12399C37.3558 5.05497 37.9406 3.97344 38.845 3.28058C39.1645 3.03772 39.6244 2.77993 39.9994 2.63528C40.1454 2.58008 40.2717 2.5218 40.2824 2.51011C40.293 2.49841 40.0356 2.42601 39.7136 2.34861C37.3351 1.78305 36.3538 1.62557 35.177 1.62038C34.7763 1.61905 34.5885 1.63579 33.9888 1.73171C33.5999 1.79702 33.1855 1.87991 33.0711 1.91644Z" fill="url(#paint0_radial_847_12)"/>
<defs>
<radialGradient id="paint0_radial_847_12" cx="0" cy="0" r="1" gradientUnits="userSpaceOnUse" gradientTransform="translate(25.1568 17.5044) rotate(69.992) scale(8.63134 17.1709)">
<stop stop-color="#A9A9A9"/>
<stop offset="0.939776" stop-color="#CBCBCB"/>
</radialGradient>
</defs>
</svg>
