<svg width="40" height="20" viewBox="0 0 40 20" fill="none" xmlns="http://www.w3.org/2000/svg">
<path d="M33.0009 0.0231754C32.0181 0.161747 28.9429 1.07639 28.1698 1.61134C26.8489 2.52011 28.212 2.98796 27.0571 5.43068C25.7988 8.09576 25.5359 8.57915 24.841 9.46214C24.5719 9.80373 23.9678 10.4289 23.6516 10.6932C23.3386 10.9574 22.7533 11.3312 22.6563 11.3312C22.6375 11.3312 22.5781 11.241 22.5249 11.1282V10.7125L22.6563 10.2829C22.7846 9.37145 22.7846 9.59104 22.7846 9.52659C22.7846 9.1983 22.3339 8.52129 22.3245 8.51484C22.3183 8.5084 21.927 9.10484 21.8456 9.1983C21.6891 9.36587 21.8488 9.90685 21.6453 10.0422C21.5326 10.1195 21.3198 10.01 21.0725 9.95841C20.3464 9.81018 19.614 10.097 19.1351 10.7125L18.9629 10.9381L18.8722 11.1282C18.7157 11.1411 18.2999 10.7125 18.0965 10.6932C17.8993 10.6771 17.1591 10.5061 17.0418 10.5061C16.8687 10.3327 16.8402 10.6546 17.3322 11.386C17.8243 12.1174 18.4002 11.8918 18.6068 12.1174C18.9479 12.488 18.844 12.6299 18.8722 12.7975C18.8816 12.8523 18.8565 12.8652 18.7094 12.8845C18.3557 12.9393 17.1194 12.8652 16.3619 12.746C15.0004 12.53 13.7828 12.1337 12.0144 11.3248C9.92356 10.3709 10.5011 8.95884 9.38992 8.86217C7.99708 8.73971 4.92185 10.474 3.77002 11.386C2.9844 12.008 2.69957 12.3754 1.45697 14.3444C0.771503 15.4304 0.586834 15.7462 0.370866 16.1941C0.195587 16.5518 -0.0203815 17.0964 0.00152831 17.1222C0.0109182 17.1287 0.0735178 17.0997 0.139247 17.0578C0.539885 16.7967 1.10641 16.5647 1.62912 16.4487C1.89204 16.3907 2.0454 16.3778 2.49612 16.3778C2.9844 16.381 3.07517 16.3907 3.35061 16.4648C4.4148 16.7581 5.29432 17.496 5.77947 18.4983C5.92658 18.8076 6.08308 19.233 6.1582 19.5456L6.19263 19.6842L6.27401 19.6101C6.31782 19.5682 6.50562 19.3426 6.69029 19.1138C7.30377 18.35 7.69189 18.0213 8.31788 17.7442C8.96266 17.4542 9.56361 17.3253 10.2585 17.3253C11.3195 17.3253 12.0926 17.6217 12.7718 18.2888C13.1913 18.7013 13.4949 19.1879 13.6858 19.7519C13.7327 19.8872 13.7797 20 13.7922 20C13.8016 20 13.8673 19.8872 13.9331 19.7486C14.0301 19.5585 14.1271 19.4296 14.3556 19.1911C15.1851 18.3371 16.1992 17.9247 17.3322 17.9794C18.049 18.0149 18.4903 18.1921 18.8878 18.6046C19.157 18.885 19.3417 19.2362 19.4418 19.6745L19.5107 19.9678L19.6641 19.7357C19.9739 19.2652 20.4935 18.8205 20.9599 18.6272C21.06 18.5853 21.2541 18.5208 21.3949 18.4822L21.6453 18.4113L21.8456 18.5079C21.9521 18.5595 22.1712 18.7142 22.3245 18.8495C22.6939 19.1718 23.2682 19.336 23.4748 19.336C23.4748 19.336 23.6266 19.0912 23.7142 18.8076C23.733 18.7464 23.7675 18.5337 23.7925 18.3404C23.8645 17.7829 23.902 17.7023 24.2307 17.4477C24.7221 17.0674 25.2824 16.8161 25.7112 16.7871C26.0179 16.7645 26.1713 16.8 26.5406 16.974C26.8129 17.1029 27.0038 17.1738 27.0038 17.1448C27.0038 17.1383 26.9412 17.0159 26.863 16.8773C26.7816 16.7387 26.6815 16.5196 26.6345 16.3875C26.5625 16.178 26.5531 16.1007 26.5531 15.7301C26.55 15.3563 26.5594 15.2854 26.6345 15.0759C26.7472 14.7536 26.888 14.5248 27.1384 14.2445C27.6549 13.6741 28.3873 13.2583 29.2261 13.0682C29.4984 13.0038 29.6456 12.9909 30.0712 12.9909C30.619 12.9909 30.7817 13.0199 31.1699 13.181C31.2731 13.2229 31.3545 13.2519 31.3545 13.2455C31.3545 13.2422 31.3076 13.1359 31.2481 13.0167C30.9821 12.4688 30.8756 11.8984 30.9414 11.328C31.0822 10.1099 31.993 8.90785 33.2795 8.25367C34.4876 7.63815 35.6207 7.52858 36.6943 7.92818C36.8163 7.9733 36.9259 8.01197 36.9384 8.01197C36.9478 8.01197 36.9071 7.91207 36.8476 7.78639C36.3813 6.83573 36.2373 5.8045 36.4407 4.90217C36.6755 3.85806 37.4392 2.8945 38.4502 2.36922C38.807 2.18553 39.3047 2.01151 39.699 1.93417C39.8524 1.90517 39.987 1.86972 39.9995 1.86005C40.012 1.85038 39.771 1.73437 39.4674 1.60224C37.2232 0.632245 36.2842 0.306764 35.1261 0.0972957C34.7318 0.0263988 34.544 0.0102852 33.9367 0.000617428C33.5424 -0.00260516 33.1198 0.0070625 33.0009 0.0231754Z" fill="url(#paint0_radial_847_13)"/>
<defs>
<radialGradient id="paint0_radial_847_13" cx="0" cy="0" r="1" gradientUnits="userSpaceOnUse" gradientTransform="translate(22.5 14) rotate(79.992) scale(8.63134 17.1709)">
<stop stop-color="#5B5B5B"/>
<stop offset="0.939776" stop-color="#B9B9B9"/>
</radialGradient>
</defs>
</svg>
