<svg width="391" height="245" viewBox="0 0 391 245" fill="none" xmlns="http://www.w3.org/2000/svg">
<path d="M273.152 39.8944C272.623 40.2036 272.197 40.4934 272.214 40.5494C272.231 40.6055 273.347 41.5021 274.677 42.5414C277.103 44.4099 277.124 44.428 276.813 44.6337C276.645 44.7465 276.334 44.903 276.141 44.9865C275.795 45.1293 275.633 45.0072 273.261 43.11L270.744 41.0975L270.276 41.302C270.033 41.4254 269.698 41.6018 269.529 41.7146C269.232 41.9159 269.274 41.9521 271.695 43.9571C273.05 45.0748 274.133 46.0181 274.126 46.0449C274.071 46.1228 272.57 46.9257 272.517 46.9051C272.496 46.8871 271.374 45.968 270.033 44.846C268.693 43.7239 267.521 42.7955 267.439 42.7837C267.308 42.7626 265.832 43.5455 265.706 43.6944C265.681 43.7143 266.76 44.6465 268.097 45.7573C269.431 46.857 270.532 47.8072 270.549 47.8633C270.587 47.9866 269.197 48.6941 269.052 48.6281C268.981 48.6007 267.795 47.6767 266.429 46.5746L263.916 44.5733L263.083 45.0122C262.626 45.2503 262.226 45.471 262.204 45.5021C262.182 45.5333 263.291 46.4567 264.667 47.5432C266.032 48.6454 267.169 49.5601 267.176 49.5825C267.183 49.6049 266.811 49.8168 266.35 50.0437C265.589 50.4115 265.486 50.4309 265.264 50.3151C265.144 50.2292 263.993 49.3188 262.712 48.2889C261.445 47.2547 260.371 46.3942 260.336 46.3805C260.248 46.3462 258.501 47.2121 258.521 47.2794C258.532 47.313 259.686 48.2345 261.08 49.3279C262.474 50.4213 263.597 51.3404 263.575 51.3716C263.488 51.4962 261.821 52.2642 261.729 52.2188C261.658 52.1914 260.454 51.2113 259.051 50.035L256.479 47.8924L255.99 48.1281C255.143 48.522 254.492 48.8929 254.52 48.9826C254.533 49.0275 255.705 50.0051 257.116 51.1545L259.689 53.2479L258.931 53.6269C257.413 54.3737 257.805 54.5356 255.163 52.0591C253.223 50.2501 252.733 49.8728 252.526 49.9607C252.387 50.0155 251.994 50.2094 251.658 50.3858L251.037 50.6987L253.317 52.9063C255.045 54.5839 255.561 55.1493 255.435 55.249C255.349 55.3244 254.927 55.527 254.524 55.6872L253.775 55.9903L251.549 53.7541C250.33 52.5211 249.252 51.4905 249.177 51.4519C248.997 51.3722 247.413 52.2617 247.461 52.4187C247.475 52.4635 248.511 53.458 249.77 54.6174C251.025 55.7657 252.057 56.749 252.068 56.7826C252.088 56.8499 250.178 57.7413 250.089 57.7071C250.068 57.689 249.05 56.6522 247.828 55.408C246.621 54.1594 245.606 53.1338 245.571 53.1201C245.496 53.0815 244.008 53.7212 243.861 53.852C243.778 53.9386 244.497 54.7607 245.978 56.2932L248.239 58.5923L247.807 58.8105C247.575 58.9183 247.125 59.1296 246.81 59.2749L246.246 59.5212L244.211 57.3491C243.085 56.1615 242.043 55.0462 241.885 54.8862L241.593 54.5953L240.9 54.9301C240.532 55.104 240.235 55.3053 240.256 55.3726C240.276 55.4399 241.283 56.5415 242.483 57.8169C243.701 59.0991 244.669 60.1758 244.633 60.2113C244.615 60.2537 244.139 60.4849 243.604 60.7225C242.847 61.0523 242.59 61.1308 242.474 61.0561C242.393 60.9951 241.43 59.8312 240.344 58.4717C239.255 57.101 238.331 55.9619 238.31 55.9439C238.235 55.9053 236.55 56.7157 236.381 56.8777C236.269 56.9731 236.843 57.7291 238.396 59.5463C240.52 62.0099 240.558 62.084 240.276 62.2317C239.765 62.4985 238.673 62.9555 238.659 62.9107C238.621 62.7873 234.544 57.5505 234.455 57.5163C234.402 57.4957 233.949 57.6958 233.441 57.9738L232.512 58.4544L234.361 60.7325C235.384 61.9886 236.369 63.1706 236.54 63.3755C236.709 63.5692 236.816 63.7691 236.766 63.809C236.73 63.8445 236.377 64.014 235.991 64.1811L235.274 64.4866L235.015 64.1491C234.867 63.9735 233.947 62.7472 232.968 61.4288C232.003 60.106 231.135 58.9987 231.061 58.9601C230.976 58.9371 230.462 59.1435 229.897 59.439C229.05 59.8822 228.9 60.0018 229.005 60.1413C229.078 60.2291 230.137 61.4005 231.358 62.7431C233.028 64.5858 233.514 65.2092 233.389 65.3089C233.303 65.3843 232.878 65.5757 232.425 65.7266L231.622 66.0091L229.166 63.1201C227.809 61.5371 226.645 60.2262 226.592 60.2057C226.486 60.1646 224.326 61.4143 224.35 61.4928C224.36 61.5265 225.543 62.7458 226.969 64.1973C228.397 65.6601 229.584 66.8906 229.598 66.9355C229.618 67.0027 227.989 67.7957 227.519 67.9397C227.362 67.9877 226.597 67.1676 224.95 65.1953C223.654 63.6553 222.507 62.3512 222.423 62.279C222.187 62.1184 220.335 62.8447 220.5 63.0272C220.847 63.399 225.074 68.9703 225.041 69.017C224.98 69.1217 222.881 70.0095 222.792 69.9752C222.754 69.9503 221.819 68.422 220.739 66.5704C219.645 64.7231 218.739 63.186 218.708 63.1835C218.672 63.1698 218.162 63.3382 217.591 63.562C216.603 63.9505 216.553 63.9904 216.678 64.1971C217.121 64.8828 220.411 71.0107 220.368 71.0731C220.281 71.1977 218.222 72.0612 218.116 72.0201C218.062 71.9995 217.414 70.3347 216.67 68.3066C215.93 66.2898 215.299 64.6318 215.278 64.6137C215.246 64.6113 214.738 64.8893 214.144 65.2427L213.061 65.8809L213.184 66.2845C213.31 66.6994 215.426 71.7893 215.807 72.5796L216.008 73.0331L215.016 73.4595C214.48 73.697 214.009 73.8903 213.988 73.8722C213.956 73.8698 213.35 72.1918 212.635 70.155C211.919 68.1183 211.317 66.4515 211.299 66.4447C211.229 66.4173 209.215 67.3281 209.136 67.4259C209.103 67.4726 209.656 69.1301 210.379 71.0908C211.117 73.0472 211.691 74.7227 211.672 74.8143C211.667 74.9015 211.267 75.1222 210.796 75.3154C210.325 75.5087 209.86 75.7244 209.757 75.793C209.599 75.8902 209.502 75.6747 209.133 74.4638C208.886 73.6566 208.34 72.0216 207.914 70.8282L207.15 68.6345L206.515 68.9025C206.172 69.0565 205.704 69.261 205.487 69.3645L205.094 69.5584L206.299 73.1492L207.519 76.7356L206.915 77.0062C206.583 77.1446 206.158 77.336 205.941 77.4394C205.737 77.5386 205.566 77.5909 205.556 77.5573C205.518 77.434 202.912 71.4522 202.677 70.9359L202.416 70.3903L201.634 70.74C201.21 70.9314 200.845 71.1165 200.809 71.1521C200.791 71.1944 201.448 72.7341 202.293 74.5839C203.125 76.4381 203.834 78.0475 203.865 78.1484C203.91 78.2942 203.727 78.4114 203.017 78.6901C202.517 78.8921 202.071 79.0654 202.011 79.0716C201.954 79.0891 201.127 77.5034 200.187 75.5477L198.476 71.9888L197.642 72.2688C197.189 72.4197 196.797 72.5644 196.789 72.5912C196.782 72.618 197.549 74.2099 198.514 76.1457C199.476 78.0702 200.259 79.7182 200.251 79.7942C200.239 79.9082 198.847 80.5553 198.709 80.5118C198.709 80.5118 197.834 79.0264 196.8 77.2221C195.752 75.4222 194.874 73.9255 194.821 73.905C194.658 73.8322 191.875 74.623 191.909 74.7351C191.926 74.7912 192.985 76.3183 194.268 78.12C195.533 79.9148 196.567 81.4126 196.545 81.4438C196.524 81.4749 195.963 81.7324 195.317 82.0161L194.135 82.5373L193.148 81.2948C192.598 80.6173 191.411 79.1295 190.504 77.9973C189.597 76.8651 188.83 75.9354 188.791 75.9104C188.706 75.8874 186.601 77.2673 186.619 77.3234C186.622 77.3346 186.913 77.6746 187.253 78.0732C187.593 78.4717 188.641 79.6587 189.56 80.7261C190.478 81.7935 191.389 82.8385 191.565 83.0546C191.75 83.2551 191.89 83.4575 191.865 83.4774C191.811 83.5553 189.587 84.4936 189.531 84.4618C189.495 84.4481 188.983 83.9431 188.396 83.3503C187.796 82.7618 186.405 81.3732 185.292 80.2797L183.279 78.2845L182.077 78.7384C181.417 78.9772 180.839 79.2278 180.81 79.2858C180.763 79.3369 182.092 80.781 183.756 82.5028C187.207 86.0436 187.041 85.6531 185.358 86.2667L184.555 86.5491L180.889 83.5279L177.236 80.5023L176.248 80.8908C175.72 81.1015 175.17 81.3434 175.052 81.4163C174.855 81.5379 175.422 82.0142 178.683 84.4731C181.334 86.4686 182.499 87.4238 182.402 87.5148C182.316 87.5902 181.837 87.8103 181.338 88.0123C180.671 88.2779 180.364 88.3471 180.219 88.2811C180.06 88.2195 171.882 83.0856 171.35 82.7214C171.308 82.6853 169.222 83.6671 169.179 83.7294C169.157 83.7606 171.071 85.0749 173.407 86.652C175.759 88.2248 177.626 89.541 177.562 89.5852C177.511 89.6251 178.238 90.1139 179.19 90.6804C199.724 102.783 223.017 124.744 247.082 154.694C249.068 157.163 250.702 159.25 254.241 163.843C259.508 170.677 267.374 181.631 271.934 188.498L273.002 190.108L273.381 189.919C273.745 189.734 273.763 189.741 275.817 191.772C276.941 192.899 278.079 194.022 278.346 194.283C278.595 194.538 278.834 194.759 278.855 194.777C278.898 194.813 280.95 193.67 281.018 193.588C281.04 193.557 279.886 192.586 278.454 191.418C277.025 190.262 275.875 189.253 275.904 189.195C275.955 189.057 276.957 188.456 277.049 188.502C277.084 188.515 278.273 189.5 279.695 190.683C281.102 191.87 282.326 192.868 282.401 192.907C282.56 192.969 283.498 192.571 283.753 192.333C283.865 192.238 283.215 191.591 281.365 189.975L278.847 187.755L279.408 187.497C280.629 186.952 280.357 186.827 283.161 189.217C284.575 190.427 285.735 191.42 285.753 191.427C285.827 191.466 287.44 190.518 287.42 190.451C287.406 190.406 286.333 189.447 285.05 188.308C283.749 187.161 282.712 186.216 282.723 186.2C282.748 186.18 283.119 186.018 283.548 185.838L284.326 185.526L286.669 187.481C287.96 188.545 289.079 189.452 289.168 189.487C289.33 189.559 290.966 188.789 290.925 188.654C290.911 188.61 289.874 187.714 288.6 186.657C287.344 185.607 286.327 184.729 286.338 184.713C286.349 184.698 286.781 184.529 287.295 184.323L288.24 183.947L290.548 185.938L292.866 187.913L293.713 187.47C294.184 187.227 294.57 187.011 294.595 186.991C294.603 186.964 293.632 186.134 292.425 185.142C291.222 184.162 290.226 183.302 290.206 183.235C290.189 183.179 290.414 183.049 290.728 182.953C291.027 182.861 291.445 182.697 291.662 182.593C292.059 182.41 292.076 182.417 294.38 184.397C296.093 185.871 296.759 186.366 296.905 186.284C297.009 186.215 297.456 185.993 297.891 185.786C298.313 185.583 298.66 185.391 298.649 185.358C298.643 185.335 297.665 184.482 296.483 183.471C295.298 182.448 294.349 181.587 294.381 181.54C294.414 181.493 294.899 181.296 295.48 181.105L296.511 180.753L298.148 182.336C299.037 183.204 299.904 184.054 300.08 184.221L300.4 184.503L301.154 184.113C301.572 183.899 301.929 183.691 301.962 183.645C301.998 183.609 301.205 182.749 300.215 181.752C299.225 180.756 298.424 179.922 298.435 179.906C298.446 179.891 298.86 179.715 299.36 179.513L300.266 179.162L301.842 180.8C302.709 181.7 303.551 182.57 303.727 182.736L304.019 183.027L304.827 182.559C305.277 182.299 305.653 182.049 305.675 182.018C305.697 181.986 304.924 181.193 303.955 180.264C302.985 179.335 302.177 178.528 302.164 178.483C302.122 178.348 303.932 177.635 304.112 177.715C304.183 177.742 304.906 178.477 305.702 179.349C306.498 180.221 307.239 181.012 307.337 181.129C307.519 181.318 307.591 181.296 308.39 180.953C308.861 180.76 309.283 180.557 309.301 180.515C309.323 180.484 308.601 179.651 307.692 178.666C306.783 177.682 306.05 176.864 306.061 176.848C306.083 176.817 306.54 176.628 307.071 176.429L308.045 176.045L309.704 177.903L311.377 179.757L312.126 179.503C312.547 179.35 312.897 179.218 312.918 179.187C312.943 179.167 312.221 178.334 311.313 177.349C310.418 176.36 309.675 175.509 309.658 175.453C309.63 175.363 311.554 174.566 311.678 174.614C311.713 174.627 312.403 175.507 313.225 176.567C314.034 177.632 314.723 178.512 314.759 178.525C314.78 178.543 315.279 178.341 315.84 178.084C316.797 177.644 316.858 177.588 316.708 177.402C316.609 177.284 315.927 176.427 315.174 175.493C314.421 174.559 313.819 173.762 313.841 173.731C313.852 173.715 314.248 173.533 314.719 173.339L315.565 172.995L316.991 174.961C317.789 176.041 318.474 176.959 318.534 177.002C318.672 177.094 320.487 176.196 320.442 176.05C320.425 175.994 319.771 175.127 318.98 174.119C318.188 173.111 317.555 172.263 317.577 172.232C317.599 172.2 317.941 172.046 318.33 171.891L319.037 171.601L320.494 173.668C321.631 175.245 322.005 175.706 322.173 175.642C322.301 175.603 322.802 175.352 323.284 175.094L324.181 174.611L322.576 172.773C320.781 170.724 320.814 170.885 322.095 170.382C322.805 170.104 322.837 170.106 323.068 170.403C325.012 172.836 326.389 174.487 326.46 174.465C326.831 174.351 328.627 173.237 328.599 173.148C328.579 173.081 327.779 172.197 326.828 171.177C325.863 170.161 325.124 169.271 325.167 169.209C325.214 169.158 325.703 168.922 326.235 168.723L327.223 168.334L328.936 170.421L330.66 172.492L331.576 172.175C332.086 172.007 332.504 171.842 332.515 171.826C332.54 171.807 331.833 170.821 330.973 169.638C330.102 168.47 329.41 167.481 329.421 167.465C329.429 167.438 329.921 167.263 330.488 167.077L331.533 166.721L331.801 167.19C331.943 167.453 332.556 168.54 333.151 169.621L334.251 171.589L334.707 171.449C334.964 171.371 335.438 171.189 335.784 171.046L336.391 170.787L335.102 168.3C334.393 166.948 333.838 165.794 333.867 165.736C333.914 165.685 334.35 165.478 334.853 165.287L335.755 164.925L335.915 165.244C336.016 165.421 336.433 166.581 336.844 167.828C337.271 169.071 337.646 170.096 337.685 170.121C337.734 170.13 338.263 169.87 338.864 169.539L339.94 168.928L339.789 168.484C339.713 168.237 339.289 167.153 338.85 166.074C338.412 164.995 338.081 164.066 338.114 164.019C338.143 163.961 338.568 163.77 339.053 163.572L339.917 163.234L340.307 164.512C340.519 165.208 340.921 166.372 341.19 167.099L341.7 168.413L342.468 168.068C342.896 167.888 343.386 167.652 343.561 167.562L343.886 167.401L342.999 164.853L342.115 162.316L342.529 162.189C342.757 162.119 343.231 161.937 343.592 161.79L344.224 161.511L344.949 163.888L345.675 166.265L346.482 165.944C346.913 165.775 347.424 165.558 347.599 165.467L347.91 165.311L347.098 163.009L346.286 160.708L346.936 160.435C347.928 160.009 348.548 159.844 348.593 159.99C348.688 160.303 350.463 164.48 350.516 164.501C350.551 164.514 350.929 164.374 351.368 164.178C352.071 163.877 352.172 163.798 352.085 163.616C351.52 162.379 350.207 159.201 350.24 159.154C350.258 159.112 350.74 158.903 351.286 158.699C352.092 158.379 352.299 158.34 352.351 158.459C352.378 158.549 352.856 159.604 353.414 160.818L354.429 163.021L355.275 162.725C355.727 162.574 356.116 162.418 356.113 162.407C356.124 162.391 355.628 161.33 355.021 160.056C354.425 158.768 353.944 157.701 353.976 157.655C353.998 157.624 354.394 157.441 354.851 157.252L355.7 156.918L356.834 158.999C357.461 160.131 358.032 161.084 358.103 161.111C358.174 161.139 358.861 160.99 359.659 160.794L361.08 160.445L360.93 160.209C359.714 158.473 358.129 156.04 358.162 155.993C358.227 155.9 360.639 154.916 360.728 154.95C360.763 154.964 361.541 155.927 362.426 157.091C363.609 158.616 364.11 159.186 364.246 159.12C364.853 158.812 366.179 157.842 366.145 157.73C366.124 157.662 365.445 156.816 364.635 155.85C363.826 154.884 363.157 154.072 363.143 154.027C363.129 153.982 363.537 153.784 364.068 153.584C364.582 153.378 365.164 153.138 365.353 153.044C365.678 152.883 365.756 152.933 367.616 154.889L369.536 156.888L370.809 156.412C371.494 156.153 372.08 155.925 372.101 155.894C372.123 155.863 369.39 152.886 368.53 152.01C368.411 151.875 368.525 151.79 369.193 151.525C369.635 151.34 370.217 151.101 370.478 150.984L370.96 150.775L373.285 152.773L375.606 154.759L376.509 154.397C378.236 153.721 378.311 153.968 375.657 151.863C374.362 150.837 373.288 149.977 373.278 149.943C373.268 149.909 373.828 149.652 374.524 149.378L375.802 148.864L377.596 150.043C378.573 150.688 379.842 151.526 380.409 151.903C380.98 152.293 381.506 152.585 381.592 152.559C381.962 152.445 383.62 151.644 383.603 151.588C383.592 151.554 382.509 150.66 381.207 149.612L378.831 147.704L379.67 147.336C380.152 147.127 380.551 147.005 380.639 147.039C380.728 147.074 381.978 148.052 383.421 149.204C384.867 150.367 386.089 151.305 386.146 151.287C386.203 151.27 386.614 151.034 387.058 150.751L387.884 150.24L383.54 146.581C381.165 144.574 379.11 142.898 378.993 142.873C378.873 142.836 377.352 141.683 375.602 140.294C367.9 134.218 357.301 126.159 346.57 118.227C341.371 114.376 340.765 113.924 338.964 112.465C334.448 108.808 329.796 104.14 325.178 98.6149C321.148 93.7922 317.896 89.3693 309.716 77.5912C303.378 68.4736 302.395 67.0947 299.229 62.9029C292.805 54.4244 286.305 47.9432 280.182 43.8719C279.6 43.4984 279.166 43.3004 278.973 43.3347C278.71 43.3909 278.249 43.0048 276.513 41.354C275.347 40.24 274.32 39.3284 274.245 39.339C274.171 39.3496 273.671 39.6008 273.152 39.8944Z" fill="white"/>
<g filter="url(#filter0_d_531_242)">
<path d="M253.641 155H165.765C165.214 155 164.767 155.448 164.767 156V244C164.767 244.552 165.214 245 165.765 245H253.641C254.192 245 254.639 244.552 254.639 244V156C254.639 155.448 254.192 155 253.641 155Z" fill="white"/>
</g>
<path d="M180.313 206V214.604C180.313 215.936 179.935 216.962 179.18 217.682C178.437 218.402 177.431 218.762 176.161 218.762C174.83 218.762 173.764 218.384 172.961 217.628C172.158 216.872 171.757 215.798 171.757 214.406H174.813C174.813 214.934 174.92 215.336 175.136 215.612C175.352 215.876 175.663 216.008 176.071 216.008C176.442 216.008 176.73 215.888 176.934 215.648C177.137 215.408 177.239 215.06 177.239 214.604V206H180.313ZM183.083 213.596C183.083 212.564 183.275 211.658 183.658 210.878C184.054 210.098 184.587 209.498 185.258 209.078C185.929 208.658 186.678 208.448 187.505 208.448C188.212 208.448 188.829 208.592 189.356 208.88C189.895 209.168 190.309 209.546 190.596 210.014V208.592H193.67V218.636H190.596V217.214C190.297 217.682 189.877 218.06 189.338 218.348C188.811 218.636 188.194 218.78 187.487 218.78C186.672 218.78 185.929 218.57 185.258 218.15C184.587 217.718 184.054 217.112 183.658 216.332C183.275 215.54 183.083 214.628 183.083 213.596ZM190.596 213.614C190.596 212.846 190.381 212.24 189.949 211.796C189.53 211.352 189.015 211.13 188.404 211.13C187.792 211.13 187.271 211.352 186.84 211.796C186.42 212.228 186.211 212.828 186.211 213.596C186.211 214.364 186.42 214.976 186.84 215.432C187.271 215.876 187.792 216.098 188.404 216.098C189.015 216.098 189.53 215.876 189.949 215.432C190.381 214.988 190.596 214.382 190.596 213.614ZM201.304 215.756L203.479 208.592H206.75L203.191 218.636H199.399L195.84 208.592H199.129L201.304 215.756ZM208.332 213.596C208.332 212.564 208.523 211.658 208.907 210.878C209.302 210.098 209.836 209.498 210.507 209.078C211.178 208.658 211.927 208.448 212.753 208.448C213.46 208.448 214.078 208.592 214.605 208.88C215.144 209.168 215.557 209.546 215.845 210.014V208.592H218.919V218.636H215.845V217.214C215.545 217.682 215.126 218.06 214.587 218.348C214.06 218.636 213.442 218.78 212.735 218.78C211.921 218.78 211.178 218.57 210.507 218.15C209.836 217.718 209.302 217.112 208.907 216.332C208.523 215.54 208.332 214.628 208.332 213.596ZM215.845 213.614C215.845 212.846 215.629 212.24 215.198 211.796C214.779 211.352 214.263 211.13 213.652 211.13C213.041 211.13 212.52 211.352 212.088 211.796C211.669 212.228 211.459 212.828 211.459 213.596C211.459 214.364 211.669 214.976 212.088 215.432C212.52 215.876 213.041 216.098 213.652 216.098C214.263 216.098 214.779 215.876 215.198 215.432C215.629 214.988 215.845 214.382 215.845 213.614ZM176.969 233.262C176.047 233.262 175.22 233.112 174.489 232.812C173.758 232.512 173.171 232.068 172.727 231.48C172.296 230.892 172.068 230.184 172.044 229.356H175.316C175.364 229.824 175.525 230.184 175.801 230.436C176.077 230.676 176.436 230.796 176.88 230.796C177.335 230.796 177.694 230.694 177.958 230.49C178.222 230.274 178.353 229.98 178.353 229.608C178.353 229.296 178.246 229.038 178.03 228.834C177.826 228.63 177.569 228.462 177.257 228.33C176.957 228.198 176.526 228.048 175.963 227.88C175.148 227.628 174.483 227.376 173.968 227.124C173.452 226.872 173.009 226.5 172.638 226.008C172.266 225.516 172.08 224.874 172.08 224.082C172.08 222.906 172.506 221.988 173.357 221.328C174.207 220.656 175.316 220.32 176.682 220.32C178.072 220.32 179.192 220.656 180.043 221.328C180.894 221.988 181.349 222.912 181.409 224.1H178.084C178.06 223.692 177.91 223.374 177.635 223.146C177.359 222.906 177.005 222.786 176.574 222.786C176.203 222.786 175.903 222.888 175.675 223.092C175.448 223.284 175.334 223.566 175.334 223.938C175.334 224.346 175.526 224.664 175.909 224.892C176.292 225.12 176.892 225.366 177.706 225.63C178.521 225.906 179.18 226.17 179.684 226.422C180.199 226.674 180.642 227.04 181.014 227.52C181.385 228 181.571 228.618 181.571 229.374C181.571 230.094 181.385 230.748 181.014 231.336C180.654 231.924 180.127 232.392 179.432 232.74C178.737 233.088 177.916 233.262 176.969 233.262ZM183.75 228.114C183.75 227.07 183.96 226.158 184.379 225.378C184.811 224.598 185.404 223.998 186.159 223.578C186.926 223.158 187.8 222.948 188.783 222.948C190.041 222.948 191.09 223.278 191.928 223.938C192.779 224.598 193.336 225.528 193.6 226.728H190.329C190.053 225.96 189.52 225.576 188.729 225.576C188.166 225.576 187.716 225.798 187.381 226.242C187.045 226.674 186.878 227.298 186.878 228.114C186.878 228.93 187.045 229.56 187.381 230.004C187.716 230.436 188.166 230.652 188.729 230.652C189.52 230.652 190.053 230.268 190.329 229.5H193.6C193.336 230.676 192.779 231.6 191.928 232.272C191.078 232.944 190.029 233.28 188.783 233.28C187.8 233.28 186.926 233.07 186.159 232.65C185.404 232.23 184.811 231.63 184.379 230.85C183.96 230.07 183.75 229.158 183.75 228.114ZM199.217 224.766C199.576 224.214 200.025 223.782 200.565 223.47C201.104 223.146 201.703 222.984 202.362 222.984V226.242H201.517C200.75 226.242 200.175 226.41 199.792 226.746C199.408 227.07 199.217 227.646 199.217 228.474V233.136H196.143V223.092H199.217V224.766ZM206.276 222.048C205.737 222.048 205.293 221.892 204.946 221.58C204.61 221.256 204.442 220.86 204.442 220.392C204.442 219.912 204.61 219.516 204.946 219.204C205.293 218.88 205.737 218.718 206.276 218.718C206.803 218.718 207.235 218.88 207.57 219.204C207.918 219.516 208.091 219.912 208.091 220.392C208.091 220.86 207.918 221.256 207.57 221.58C207.235 221.892 206.803 222.048 206.276 222.048ZM207.804 223.092V233.136H204.73V223.092H207.804ZM214.003 224.514C214.303 224.046 214.716 223.668 215.244 223.38C215.771 223.092 216.388 222.948 217.095 222.948C217.922 222.948 218.671 223.158 219.342 223.578C220.013 223.998 220.54 224.598 220.924 225.378C221.319 226.158 221.517 227.064 221.517 228.096C221.517 229.128 221.319 230.04 220.924 230.832C220.54 231.612 220.013 232.218 219.342 232.65C218.671 233.07 217.922 233.28 217.095 233.28C216.4 233.28 215.783 233.136 215.244 232.848C214.716 232.56 214.303 232.188 214.003 231.732V237.924H210.93V223.092H214.003V224.514ZM218.389 228.096C218.389 227.328 218.174 226.728 217.742 226.296C217.323 225.852 216.802 225.63 216.178 225.63C215.567 225.63 215.046 225.852 214.615 226.296C214.195 226.74 213.985 227.346 213.985 228.114C213.985 228.882 214.195 229.488 214.615 229.932C215.046 230.376 215.567 230.598 216.178 230.598C216.79 230.598 217.311 230.376 217.742 229.932C218.174 229.476 218.389 228.864 218.389 228.096ZM229.618 230.526V233.136H228.054C226.94 233.136 226.071 232.866 225.448 232.326C224.825 231.774 224.513 230.88 224.513 229.644V225.648H223.291V223.092H224.513V220.644H227.587V223.092H229.6V225.648H227.587V229.68C227.587 229.98 227.659 230.196 227.803 230.328C227.946 230.46 228.186 230.526 228.522 230.526H229.618Z" fill="black" fill-opacity="0.85"/>
<path d="M7.3125 31.5859C7.5 31.2891 7.67969 31.0859 7.85156 30.9766C7.97656 30.8984 8.44531 30.7734 9.25781 30.6016C9.85156 30.3047 10.25 30.125 10.4531 30.0625C10.5938 30.0312 11.0625 29.9766 11.8594 29.8984L12.6094 29.6406L13.0547 29.5938L13.4766 29.5469H14.3906L16.2422 29.3125C16.7891 29.2656 17.1328 29.1953 17.2734 29.1016C17.5547 28.8984 17.6953 28.6016 17.6953 28.2109C17.6953 28.1328 17.6328 27.8828 17.5078 27.4609L18.7266 25.9375C18.7266 25.9219 18.2422 25.7656 17.2734 25.4688C17.1953 25.4375 16.9609 25.4219 16.5703 25.4219C15.8984 24.5625 15.5 24.0859 15.375 23.9922C15.2188 23.9297 14.625 23.8203 13.5938 23.6641H12.8438C12.5 23.5703 12.2734 23.5234 12.1641 23.5234C12.0391 23.5234 11.8594 23.5391 11.625 23.5703L11.1797 23.0078C10.8359 23.1328 10.5703 23.3047 10.3828 23.5234C10.2266 23.6953 9.98438 23.8438 9.65625 23.9688C8.84375 24.3125 8.17188 24.6953 7.64062 25.1172L7.3125 25.3281C7.10938 25.625 6.97656 25.7891 6.91406 25.8203C6.72656 25.9297 6.50781 25.9844 6.25781 25.9844C6.16406 25.9844 5.875 25.8984 5.39062 25.7266C4.85938 25.6016 4.53125 25.5 4.40625 25.4219C4.26562 25.3281 4.08594 25.1328 3.86719 24.8359C4.13281 24.6328 4.32031 24.4844 4.42969 24.3906C4.69531 24.1562 4.875 24.0312 4.96875 24.0156L6.07031 23.7578L6.77344 23.3828L8.27344 22.9141L9.21094 22.5156H10.1719L11.2266 22.2109L11.6719 22.1875L12.4922 22.0469C13.2578 22.0625 13.7422 22.0703 13.9453 22.0703C14.1641 22.0859 14.5859 22.1953 15.2109 22.3984L15.7734 22.4688C16.3828 22.5781 16.8125 22.6562 17.0625 22.7031C17.2812 22.7188 17.5625 22.8906 17.9062 23.2188C17.6406 23.4531 17.5078 23.6484 17.5078 23.8047C17.5078 24.0234 17.6016 24.1328 17.7891 24.1328C17.9141 24.1328 18.0938 24.0703 18.3281 23.9453C18.4844 23.8828 18.7031 23.8125 18.9844 23.7344C19.1875 23.9375 19.2969 24.2031 19.3125 24.5312L19.8984 24.9531C19.9297 25.125 19.9453 25.2344 19.9453 25.2812L19.875 26.1953C20.0469 26.8828 20.2188 27.3125 20.3906 27.4844H20.4844C20.5312 27.8281 20.5938 28.2031 20.6719 28.6094C20.7188 29.5156 20.75 30.1172 20.7656 30.4141C20.4062 30.6328 20.2266 30.8438 20.2266 31.0469C20.2266 31.2812 20.4375 31.4922 20.8594 31.6797C20.875 31.8828 20.8828 32.0547 20.8828 32.1953C20.8828 32.3359 20.8516 32.6094 20.7891 33.0156C20.7734 33.1875 20.7656 33.3594 20.7656 33.5312C20.7656 34.0469 20.8516 34.6875 21.0234 35.4531C20.7422 35.7344 20.6016 36.0156 20.6016 36.2969C20.6016 36.5312 20.7344 36.8359 21 37.2109C21.0312 37.2734 21.0859 37.4219 21.1641 37.6562C21.2109 37.7656 21.2969 37.9766 21.4219 38.2891C21.25 38.4922 21.125 38.6875 21.0469 38.875C20.9219 38.9844 20.6797 39.1094 20.3203 39.25L19.4297 39.6484L18.8672 39.8125C18.2891 40.0156 17.9688 40.1172 17.9062 40.1172C17.75 40.1172 17.5781 40.0312 17.3906 39.8594L17.7422 38.2891C17.2891 38.3984 16.6328 38.6406 15.7734 39.0156L15.0938 39.1562C14.6875 39.25 14.4766 39.2969 14.4609 39.2969L13.5938 39.2031L12.7266 39.6484L12.2578 39.6953L10.3594 40.0938L9.375 40.0234C8.89062 40.1953 8.5625 40.2812 8.39062 40.2812C8.17188 40.2812 7.5625 40.1797 6.5625 39.9766L5.57812 39.8828L4.85156 39.5781C4.30469 39.375 3.89844 39.1719 3.63281 38.9688C3.39844 38.7969 3.21094 38.5 3.07031 38.0781L2.53125 37.8906C2.46875 37.7344 2.39844 37.4531 2.32031 37.0469L2.08594 36.0391V36.0156C2.07031 35.875 2.17188 35.6484 2.39062 35.3359C2.5625 35.1016 2.78125 34.7031 3.04688 34.1406C3.8125 33.3906 4.32031 32.9062 4.57031 32.6875C4.78906 32.5156 5.28125 32.2734 6.04688 31.9609C6.48438 31.6797 6.75781 31.5391 6.86719 31.5391C6.99219 31.5391 7.14062 31.5547 7.3125 31.5859ZM5.85938 36.5547C5.73438 36.7578 5.61719 36.9688 5.50781 37.1875C5.33594 37.4688 5.25781 37.6562 5.27344 37.75L5.50781 38.1953L6.16406 37.6328C6.69531 38.0078 7.0625 38.2109 7.26562 38.2422C7.84375 38.3984 8.15625 38.4844 8.20312 38.5C8.29688 38.5625 8.42969 38.7266 8.60156 38.9922C8.96094 39.0391 9.20312 39.0703 9.32812 39.0859C9.45312 39.1016 9.55469 39.1094 9.63281 39.1094C9.80469 39.1094 10.0156 39 10.2656 38.7812C10.4844 38.9375 10.6719 39.0156 10.8281 39.0156C10.8594 39.0156 11.0312 38.9141 11.3438 38.7109L12 38.8516C12 38.8516 12.4219 38.7031 13.2656 38.4062L13.875 38.125L14.3906 38.2188L15.2812 37.8438L16.3125 37.4453C16.5781 37.0391 16.7422 36.8047 16.8047 36.7422C16.9453 36.6016 17.2188 36.4766 17.625 36.3672L17.7656 35.6172C18.0469 35.4609 18.2188 35.2422 18.2812 34.9609C18.0625 34.8047 17.9062 34.6406 17.8125 34.4688C17.8281 34.2031 17.8359 34.0078 17.8359 33.8828V33.5078C17.8203 33.0859 17.8047 32.7266 17.7891 32.4297C17.7734 32.3359 17.7656 32.25 17.7656 32.1719C17.7656 31.9844 17.8281 31.7109 17.9531 31.3516C17.8125 31.3359 17.6328 31.2422 17.4141 31.0703L16.4062 31.0938L15.4922 31.0469L14.7891 31.0703H14.3438C14.2812 31.0703 14.0469 30.9453 13.6406 30.6953L13.125 30.8594C12.5 30.8594 12.0391 30.9062 11.7422 31C11.5547 31.0781 11.3984 31.1172 11.2734 31.1172C11.2422 31.1172 11.0625 31.0703 10.7344 30.9766C10.7188 30.9766 10.7031 30.9766 10.6875 30.9766C10.6094 30.9766 10.3594 31.1172 9.9375 31.3984C9.875 31.4453 9.46875 31.6016 8.71875 31.8672C7.71875 32.3047 7 32.7188 6.5625 33.1094C6.51562 33.1562 6.34375 33.3906 6.04688 33.8125C5.95312 33.9531 5.67969 34.0859 5.22656 34.2109C5.16406 34.3203 5.13281 34.4062 5.13281 34.4688C5.13281 34.5156 5.19531 34.6094 5.32031 34.75L5.48438 36.0156C5.51562 36.125 5.64062 36.3047 5.85938 36.5547ZM42.9562 24.9297C42.7219 24.7891 42.6047 24.625 42.6047 24.4375C42.6047 24.3594 42.6984 23.9688 42.8859 23.2656C42.9484 22.8438 43.1437 22.0703 43.4719 20.9453L44.4797 20.875C44.4641 20.6875 44.3547 20.3828 44.1516 19.9609C44.1047 19.8672 44.0812 19.75 44.0812 19.6094C44.0812 19.4219 44.2766 18.7891 44.6672 17.7109C44.7922 17.0703 44.9875 16.4844 45.2531 15.9531C45.4406 15.6406 45.6984 15.2109 46.0266 14.6641C46.2453 14.6953 46.3859 14.7266 46.4484 14.7578C46.6828 14.8359 46.8156 14.875 46.8469 14.875C46.9562 14.875 47.1125 14.7891 47.3156 14.6172C47.5187 14.5859 47.6516 14.5391 47.7141 14.4766C47.7766 14.4141 47.8312 14.2891 47.8781 14.1016L47.3156 14.0312L47.0812 13.1875C47.0812 13.0312 47.3156 12.7188 47.7844 12.25C47.8937 12.1406 48.0187 11.9844 48.1594 11.7812C48.3625 11.4375 48.5031 11.2266 48.5812 11.1484C48.8469 10.8828 49.0344 10.6016 49.1437 10.3047L49.3078 10.1406C49.5891 9.73438 49.8156 9.46875 49.9875 9.34375C50.0812 9.26563 50.4016 9.04687 50.9484 8.6875L51.0187 8.75781L51.675 8.42969L51.7219 7.89062L54.7453 5.47656C54.8547 5.38281 55.0891 5.24219 55.4484 5.05469L56.0812 4.63281L56.6672 4.46875C57.2766 4.04688 57.6203 3.83594 57.6984 3.83594C57.8391 3.83594 58.0656 3.91406 58.3781 4.07031L58.7062 3.20312L59.6672 3.39062L59.7375 2.94531C60.2531 2.78906 60.5969 2.67969 60.7687 2.61719C61.3312 2.39844 61.8937 2.26562 62.4562 2.21875L63.1594 2.00781C63.7062 1.89844 64.0109 1.82812 64.0734 1.79688C64.2141 1.73437 64.4016 1.59375 64.6359 1.375C64.8547 1.39063 65.0422 1.39844 65.1984 1.39844C65.3859 1.39844 65.7766 1.29688 66.3703 1.09375C66.6047 1.01563 66.8625 0.976562 67.1437 0.976562C67.3781 0.976562 67.6047 1.00781 67.8234 1.07031C67.9953 1.11719 68.1047 1.13281 68.1516 1.11719L71.2687 1.02344C71.8625 1.05469 72.4094 1.34375 72.9094 1.89062C73.2531 2.26562 73.4641 2.45312 73.5422 2.45312C73.8234 2.45312 74.0891 2.125 74.3391 1.46875C74.8391 1.79688 75.2609 1.96094 75.6047 1.96094C75.7141 1.96094 75.8234 1.95313 75.9328 1.9375C76.3547 1.84375 76.5656 1.79688 76.5656 1.79688L77.3156 2.05469C79.3781 2.58594 80.7062 2.98438 81.3 3.25V3.95312H81.2766C81.0266 4.20313 80.8703 4.36719 80.8078 4.44531C80.2297 5.05469 79.8469 5.35938 79.6594 5.35938C79.5031 5.35938 79.2453 5.25781 78.8859 5.05469C77.9953 4.69531 76.9719 4.30469 75.8156 3.88281L75.5109 3.10938C75.1984 3.17188 74.9953 3.21875 74.9016 3.25C74.6516 3.32812 74.5031 3.36719 74.4562 3.36719C74.3937 3.36719 73.8859 3.20312 72.9328 2.875C72.6516 2.76562 72.4719 2.65625 72.3937 2.54688C72.3156 2.4375 72.2453 2.32813 72.1828 2.21875C71.6672 2.42188 71.3391 2.52344 71.1984 2.52344H69.8625H67.9875L67.4016 2.45312C66.6984 2.5625 66.1594 2.69531 65.7844 2.85156L64.3547 3.01562C63.7453 3.14062 63.2687 3.23437 62.925 3.29688C62.7375 3.32812 62.4328 3.46094 62.0109 3.69531L60.8391 4.23438L59.9953 4.82031C58.2922 5.52344 57.1437 6.27344 56.55 7.07031C56.1594 7.17969 55.6984 7.39844 55.1672 7.72656C55.1672 7.91406 55.1359 8.09375 55.0734 8.26562C54.7609 8.42188 54.3469 8.75781 53.8312 9.27344L53.2687 9.78906C52.8 10.4297 52.4953 10.7891 52.3547 10.8672C52.2141 10.9609 52.0812 11.0078 51.9562 11.0078C51.8937 11.0078 51.8 11 51.675 10.9844C51.7687 11.1562 51.8156 11.2656 51.8156 11.3125C51.8156 11.3594 51.4328 12.0078 50.6672 13.2578C50.0734 13.8828 49.7297 14.2656 49.6359 14.4062C49.5891 14.5 49.4094 14.9141 49.0969 15.6484L48.6047 16.8203L48.3937 17.5C47.9562 18.2656 47.6828 18.8359 47.5734 19.2109C47.5109 19.4609 47.4094 19.9297 47.2687 20.6172C47.0344 21.5391 46.9016 22.0469 46.8703 22.1406C46.8234 22.3594 46.5656 22.5156 46.0969 22.6094C46.1437 23.0156 46.3234 23.3516 46.6359 23.6172C46.4797 24.0234 46.4016 24.2891 46.4016 24.4141C46.4016 24.7578 46.4641 25.1875 46.5891 25.7031C46.6047 25.75 46.6125 25.7812 46.6125 25.7969C46.6125 25.9375 46.5422 26.0391 46.4016 26.1016L44.55 26.8047C44.4094 26.8516 44.3391 26.9375 44.3391 27.0625C44.3391 27.125 44.3781 27.2109 44.4562 27.3203C44.6906 27.6797 44.8391 27.9453 44.9016 28.1172C45.0266 28.4453 45.1047 28.6172 45.1359 28.6328C45.4797 28.9141 45.8312 29.2031 46.1906 29.5L46.5891 30.5781C46.6984 30.8125 46.7687 31.0938 46.8 31.4219H46.6594L46.8 32.2188L47.1281 32.3125C47.3 32.6094 47.3859 32.8516 47.3859 33.0391H47.4562C47.5031 33.3516 47.5344 33.5547 47.55 33.6484C47.6281 34.1328 47.6984 34.4297 47.7609 34.5391L48.1828 35.3828C48.6203 36.5234 48.8391 37.1953 48.8391 37.3984C48.8391 37.5547 48.6828 37.6328 48.3703 37.6328L48.6047 38.2188C48.9172 38.2031 49.1594 38.2266 49.3312 38.2891C49.4875 38.3516 49.6359 38.4297 49.7766 38.5234C50.0891 38.8828 50.3859 39.25 50.6672 39.625L51.3703 40.2578L51.9094 40.9375C52.5344 41.2812 52.9641 41.5469 53.1984 41.7344C53.2141 42.1094 53.3391 42.3828 53.5734 42.5547C53.8703 42.7734 54.2453 42.9609 54.6984 43.1172L55.7531 43.75L56.55 44.125L57.2766 44.5L58.05 44.8047L58.5891 45.2031C58.7453 45.2812 58.9016 45.4141 59.0578 45.6016C59.2766 45.3828 59.4875 45.2734 59.6906 45.2734C59.7219 45.2734 60.6281 45.5156 62.4094 46C64.3469 46.0156 65.3625 46.0234 65.4562 46.0234C65.5656 46.0234 65.6906 46.0703 65.8312 46.1641C66.0969 46.3047 66.3234 46.3906 66.5109 46.4219C66.7297 46.2969 66.8625 46.1953 66.9094 46.1172C67.0344 46.0078 67.1281 45.9531 67.1906 45.9531L67.4719 45.9766L67.6359 46L69.5344 45.7422C69.8312 45.7266 70.5344 45.5703 71.6437 45.2734C72.2219 45.4453 72.5656 45.5312 72.675 45.5312C72.9094 45.5312 73.3 45.3516 73.8469 44.9922L74.9484 44.7344C75.6203 44.5156 76.0656 44.3438 76.2844 44.2188L76.8234 44.3359C77.0266 44.3672 77.6906 44.1953 78.8156 43.8203C80.1125 43.3828 80.7922 43.1484 80.8547 43.1172C80.9016 43.0859 81.0266 42.9375 81.2297 42.6719L82.1203 42.2266C82.6047 41.9453 83.0578 41.8047 83.4797 41.8047C83.5734 41.8047 83.7609 41.8516 84.0422 41.9453C84.0578 41.5391 84.1281 41.2891 84.2531 41.1953C84.3312 41.1172 84.5969 40.9844 85.05 40.7969C85.55 40.5 85.8312 40.3516 85.8937 40.3516C86.0031 40.3516 86.1672 40.4219 86.3859 40.5625C86.3234 41.3906 86.1594 42.0312 85.8937 42.4844C85.7531 42.7188 85.6437 43.0234 85.5656 43.3984C85.5187 43.5391 85.425 43.6562 85.2844 43.75C85.1594 43.8281 84.5031 43.9688 83.3156 44.1719C82.7687 44.4062 82.4016 44.5391 82.2141 44.5703C82.1047 44.6016 81.6828 44.7031 80.9484 44.875L79.9172 45.0859L78.8156 45.3906L77.8312 45.5312C76.8625 45.8281 76.3 45.9766 76.1437 45.9766C75.9719 45.9766 75.7297 45.9688 75.4172 45.9531C75.1984 45.9531 74.8781 45.9453 74.4562 45.9297V46.0703C74.4562 46.3672 74.2687 46.5156 73.8937 46.5156C73.8312 46.5156 73.7687 46.5078 73.7062 46.4922C73.4094 46.4609 73.2531 46.4453 73.2375 46.4453C73.2219 46.4453 73.1359 46.4609 72.9797 46.4922L70.0969 47.1484C69.4875 47.2734 68.7844 47.3516 67.9875 47.3828L66.2062 47.4766C66.2062 47.4766 66.175 47.4766 66.1125 47.4766C65.9719 47.6953 65.7766 47.8125 65.5266 47.8281C64.8078 47.8594 64.1906 47.875 63.675 47.875C63.3469 47.875 62.8234 47.7344 62.1047 47.4531C61.9484 47.3906 61.7531 47.3594 61.5187 47.3594C61.3156 47.3594 61.1047 47.5 60.8859 47.7812L59.7375 47.7344C59.4562 47.2969 59.1906 47.0781 58.9406 47.0781H58.8703C58.5422 47.0781 58.2531 47.0859 58.0031 47.1016C57.7531 47.1328 57.6125 47.1484 57.5812 47.1484C56.9875 47.1484 56.2453 46.9062 55.3547 46.4219C54.6828 46.0469 53.9328 45.6875 53.1047 45.3438C51.8078 44.5312 50.9484 44.0234 50.5266 43.8203L50.3625 43.3984H50.8781C50.8781 43.2734 50.8781 43.1641 50.8781 43.0703C50.8781 42.5547 50.6828 42.2734 50.2922 42.2266C50.0578 42.4922 49.8625 42.625 49.7062 42.625C49.6281 42.625 49.3547 42.4297 48.8859 42.0391L47.2922 40.9375L46.8 40.2578L46.5656 40L45.7453 38.7812C44.5266 37.125 43.7141 35.2656 43.3078 33.2031L43.7766 32.9219V32.4766L43.2609 32.125C43.2609 31.7656 43.1906 31.4297 43.05 31.1172L42.9094 30.625C42.7375 30.3594 42.6437 30.1875 42.6281 30.1094C42.6125 30.0469 42.6047 29.75 42.6047 29.2188L42.5109 28.1875L42.6516 27.7188C42.4953 27.2656 42.4172 26.9688 42.4172 26.8281C42.4172 26.4688 42.5344 26.125 42.7687 25.7969C42.8 25.7656 42.8625 25.4766 42.9562 24.9297ZM97.3406 31.5859C97.5281 31.2891 97.7078 31.0859 97.8797 30.9766C98.0047 30.8984 98.4734 30.7734 99.2859 30.6016C99.8797 30.3047 100.278 30.125 100.481 30.0625C100.622 30.0312 101.091 29.9766 101.887 29.8984L102.637 29.6406L103.083 29.5938L103.505 29.5469H104.419L106.27 29.3125C106.817 29.2656 107.161 29.1953 107.302 29.1016C107.583 28.8984 107.723 28.6016 107.723 28.2109C107.723 28.1328 107.661 27.8828 107.536 27.4609L108.755 25.9375C108.755 25.9219 108.27 25.7656 107.302 25.4688C107.223 25.4375 106.989 25.4219 106.598 25.4219C105.927 24.5625 105.528 24.0859 105.403 23.9922C105.247 23.9297 104.653 23.8203 103.622 23.6641H102.872C102.528 23.5703 102.302 23.5234 102.192 23.5234C102.067 23.5234 101.887 23.5391 101.653 23.5703L101.208 23.0078C100.864 23.1328 100.598 23.3047 100.411 23.5234C100.255 23.6953 100.012 23.8438 99.6844 23.9688C98.8719 24.3125 98.2 24.6953 97.6687 25.1172L97.3406 25.3281C97.1375 25.625 97.0047 25.7891 96.9422 25.8203C96.7547 25.9297 96.5359 25.9844 96.2859 25.9844C96.1922 25.9844 95.9031 25.8984 95.4187 25.7266C94.8875 25.6016 94.5594 25.5 94.4344 25.4219C94.2937 25.3281 94.1141 25.1328 93.8953 24.8359C94.1609 24.6328 94.3484 24.4844 94.4578 24.3906C94.7234 24.1562 94.9031 24.0312 94.9969 24.0156L96.0984 23.7578L96.8016 23.3828L98.3016 22.9141L99.2391 22.5156H100.2L101.255 22.2109L101.7 22.1875L102.52 22.0469C103.286 22.0625 103.77 22.0703 103.973 22.0703C104.192 22.0859 104.614 22.1953 105.239 22.3984L105.802 22.4688C106.411 22.5781 106.841 22.6562 107.091 22.7031C107.309 22.7188 107.591 22.8906 107.934 23.2188C107.669 23.4531 107.536 23.6484 107.536 23.8047C107.536 24.0234 107.63 24.1328 107.817 24.1328C107.942 24.1328 108.122 24.0703 108.356 23.9453C108.512 23.8828 108.731 23.8125 109.012 23.7344C109.216 23.9375 109.325 24.2031 109.341 24.5312L109.927 24.9531C109.958 25.125 109.973 25.2344 109.973 25.2812L109.903 26.1953C110.075 26.8828 110.247 27.3125 110.419 27.4844H110.512C110.559 27.8281 110.622 28.2031 110.7 28.6094C110.747 29.5156 110.778 30.1172 110.794 30.4141C110.434 30.6328 110.255 30.8438 110.255 31.0469C110.255 31.2812 110.466 31.4922 110.887 31.6797C110.903 31.8828 110.911 32.0547 110.911 32.1953C110.911 32.3359 110.88 32.6094 110.817 33.0156C110.802 33.1875 110.794 33.3594 110.794 33.5312C110.794 34.0469 110.88 34.6875 111.052 35.4531C110.77 35.7344 110.63 36.0156 110.63 36.2969C110.63 36.5312 110.762 36.8359 111.028 37.2109C111.059 37.2734 111.114 37.4219 111.192 37.6562C111.239 37.7656 111.325 37.9766 111.45 38.2891C111.278 38.4922 111.153 38.6875 111.075 38.875C110.95 38.9844 110.708 39.1094 110.348 39.25L109.458 39.6484L108.895 39.8125C108.317 40.0156 107.997 40.1172 107.934 40.1172C107.778 40.1172 107.606 40.0312 107.419 39.8594L107.77 38.2891C107.317 38.3984 106.661 38.6406 105.802 39.0156L105.122 39.1562C104.716 39.25 104.505 39.2969 104.489 39.2969L103.622 39.2031L102.755 39.6484L102.286 39.6953L100.387 40.0938L99.4031 40.0234C98.9187 40.1953 98.5906 40.2812 98.4187 40.2812C98.2 40.2812 97.5906 40.1797 96.5906 39.9766L95.6062 39.8828L94.8797 39.5781C94.3328 39.375 93.9266 39.1719 93.6609 38.9688C93.4266 38.7969 93.2391 38.5 93.0984 38.0781L92.5594 37.8906C92.4969 37.7344 92.4266 37.4531 92.3484 37.0469L92.1141 36.0391V36.0156C92.0984 35.875 92.2 35.6484 92.4187 35.3359C92.5906 35.1016 92.8094 34.7031 93.075 34.1406C93.8406 33.3906 94.3484 32.9062 94.5984 32.6875C94.8172 32.5156 95.3094 32.2734 96.075 31.9609C96.5125 31.6797 96.7859 31.5391 96.8953 31.5391C97.0203 31.5391 97.1687 31.5547 97.3406 31.5859ZM95.8875 36.5547C95.7625 36.7578 95.6453 36.9688 95.5359 37.1875C95.3641 37.4688 95.2859 37.6562 95.3016 37.75L95.5359 38.1953L96.1922 37.6328C96.7234 38.0078 97.0906 38.2109 97.2937 38.2422C97.8719 38.3984 98.1844 38.4844 98.2312 38.5C98.325 38.5625 98.4578 38.7266 98.6297 38.9922C98.9891 39.0391 99.2312 39.0703 99.3562 39.0859C99.4812 39.1016 99.5828 39.1094 99.6609 39.1094C99.8328 39.1094 100.044 39 100.294 38.7812C100.512 38.9375 100.7 39.0156 100.856 39.0156C100.887 39.0156 101.059 38.9141 101.372 38.7109L102.028 38.8516C102.028 38.8516 102.45 38.7031 103.294 38.4062L103.903 38.125L104.419 38.2188L105.309 37.8438L106.341 37.4453C106.606 37.0391 106.77 36.8047 106.833 36.7422C106.973 36.6016 107.247 36.4766 107.653 36.3672L107.794 35.6172C108.075 35.4609 108.247 35.2422 108.309 34.9609C108.091 34.8047 107.934 34.6406 107.841 34.4688C107.856 34.2031 107.864 34.0078 107.864 33.8828V33.5078C107.848 33.0859 107.833 32.7266 107.817 32.4297C107.802 32.3359 107.794 32.25 107.794 32.1719C107.794 31.9844 107.856 31.7109 107.981 31.3516C107.841 31.3359 107.661 31.2422 107.442 31.0703L106.434 31.0938L105.52 31.0469L104.817 31.0703H104.372C104.309 31.0703 104.075 30.9453 103.669 30.6953L103.153 30.8594C102.528 30.8594 102.067 30.9062 101.77 31C101.583 31.0781 101.427 31.1172 101.302 31.1172C101.27 31.1172 101.091 31.0703 100.762 30.9766C100.747 30.9766 100.731 30.9766 100.716 30.9766C100.637 30.9766 100.387 31.1172 99.9656 31.3984C99.9031 31.4453 99.4969 31.6016 98.7469 31.8672C97.7469 32.3047 97.0281 32.7188 96.5906 33.1094C96.5437 33.1562 96.3719 33.3906 96.075 33.8125C95.9812 33.9531 95.7078 34.0859 95.2547 34.2109C95.1922 34.3203 95.1609 34.4062 95.1609 34.4688C95.1609 34.5156 95.2234 34.6094 95.3484 34.75L95.5125 36.0156C95.5437 36.125 95.6687 36.3047 95.8875 36.5547ZM119.897 23.875C119.991 23.5938 120.139 23.3359 120.342 23.1016C120.498 22.9297 120.905 22.6875 121.561 22.375C122.233 21.9531 122.616 21.7422 122.709 21.7422C122.991 21.7422 123.202 21.8438 123.342 22.0469L123.436 22.4453L123.623 23.1719C123.577 23.3438 123.553 23.4766 123.553 23.5703C123.553 23.7109 123.639 23.875 123.811 24.0625C124.123 23.9688 124.545 23.7734 125.077 23.4766L126.061 23.1484L127.045 22.4922L127.678 22.2344C128.022 22.0625 128.209 21.9766 128.241 21.9766C128.241 21.9766 128.412 22.0078 128.756 22.0703C128.787 22.0703 128.811 22.0703 128.827 22.0703C128.905 22.0703 129.436 21.9062 130.42 21.5781C130.53 21.5469 130.764 21.5312 131.123 21.5312C131.389 21.5312 131.577 21.5703 131.686 21.6484C131.702 21.6641 131.866 21.8203 132.178 22.1172C132.366 22.1641 132.475 22.1875 132.506 22.1875C132.537 22.1875 132.764 22.0781 133.186 21.8594C133.217 21.8438 133.256 21.8359 133.303 21.8359C133.506 21.8359 133.741 21.9531 134.006 22.1875C134.256 22.4062 134.436 22.7422 134.545 23.1953C134.311 23.4297 133.842 23.7969 133.139 24.2969C132.795 24.7344 132.545 24.9531 132.389 24.9531C132.139 24.9531 131.811 24.7031 131.405 24.2031C131.123 24.2344 130.889 24.25 130.702 24.25C130.498 24.25 130.162 24.1562 129.694 23.9688C129.319 23.8281 128.936 23.7344 128.545 23.6875C128.389 24 128.131 24.1719 127.772 24.2031C127.334 24.2344 127.061 24.2656 126.952 24.2969C126.327 24.4844 126.014 24.5781 126.014 24.5781C125.952 24.5781 125.827 24.5234 125.639 24.4141C125.327 24.6953 124.78 25.1172 123.998 25.6797C123.498 26.0391 123.256 26.6719 123.272 27.5781V27.6484C123.272 27.8359 123.272 28.0859 123.272 28.3984C123.287 28.6797 123.295 28.9141 123.295 29.1016C123.295 29.2734 123.116 29.5312 122.756 29.875C123.022 30.1562 123.155 30.3984 123.155 30.6016C123.155 30.7109 123.139 30.8438 123.108 31L123.459 31.0938L123.53 31.7969L123.647 35.9922L123.553 36.25L122.944 36.5781C122.069 36.75 121.631 36.8672 121.631 36.9297C121.631 36.9922 122.123 37.0938 123.108 37.2344L123.506 37.1406C123.662 37.6562 123.741 38.0078 123.741 38.1953C123.741 38.5547 123.561 38.8359 123.202 39.0391C123.061 39.1172 122.662 39.1953 122.006 39.2734C121.881 39.3047 121.545 39.5 120.998 39.8594C120.905 39.9219 120.795 39.9531 120.67 39.9531C120.295 39.9531 120.108 39.7891 120.108 39.4609C120.108 39.3672 120.225 38.9219 120.459 38.125C120.491 38.0312 120.506 37.9375 120.506 37.8438C120.506 37.8125 120.467 37.4609 120.389 36.7891C120.389 36.7422 120.42 36.6094 120.483 36.3906L121.045 36.2266C121.061 36.0859 121.069 35.9609 121.069 35.8516C121.069 35.6484 120.952 35.4062 120.717 35.125C120.717 34.9062 120.717 34.7109 120.717 34.5391C120.717 34.3984 120.67 34.0312 120.577 33.4375C120.623 32.9219 120.647 32.4844 120.647 32.125C121.225 31.9219 121.514 31.6719 121.514 31.375C121.514 31.2812 121.491 31.1562 121.444 31C121.256 31.0469 121.1 31.0703 120.975 31.0703C120.866 31.0703 120.733 31.0078 120.577 30.8828C120.577 30.5703 120.577 30.2266 120.577 29.8516V29.3594V28.7266V28.5391C120.577 28.4141 120.569 28.2734 120.553 28.1172C120.553 27.9609 120.553 27.8359 120.553 27.7422C120.553 27.4922 120.655 27.1562 120.858 26.7344C120.655 26.5625 120.537 26.4141 120.506 26.2891C120.491 26.2422 120.459 25.7344 120.412 24.7656C120.397 24.5781 120.225 24.2812 119.897 23.875ZM138.562 24.8828C138.625 24.6328 138.672 24.4844 138.703 24.4375C138.734 24.3906 138.875 24.2734 139.125 24.0859C139.281 23.9453 139.672 23.6172 140.297 23.1016C141.141 22.6172 141.617 22.375 141.727 22.375C141.977 22.375 142.266 22.5859 142.594 23.0078C142.484 23.2422 142.43 23.4219 142.43 23.5469C142.43 23.6562 142.484 23.8359 142.594 24.0859C142.891 23.9453 143.578 23.5781 144.656 22.9844L145.266 22.8203C145.781 22.6484 146.117 22.5625 146.273 22.5625C146.789 22.5625 147.234 22.6797 147.609 22.9141C147.844 22.4453 148.57 22.1797 149.789 22.1172L152.742 22.1875C153.023 22.2031 153.188 22.2031 153.234 22.1875C153.422 22.1719 153.547 22.1641 153.609 22.1641C153.891 22.1641 154.188 22.3438 154.5 22.7031C154.828 22.75 155.203 22.875 155.625 23.0781C156.516 23.4062 157.133 23.7656 157.477 24.1562C157.523 24.2031 157.594 24.375 157.688 24.6719C157.734 24.8125 157.828 24.9844 157.969 25.1875L158.93 25C159.461 25.5781 159.828 26.1172 160.031 26.6172C160.297 27.4297 160.523 28.4375 160.711 29.6406V29.6641C160.711 29.8047 160.711 29.9375 160.711 30.0625C160.695 30.2188 160.688 30.3047 160.688 30.3203C160.688 30.5703 160.727 30.8828 160.805 31.2578C160.805 31.2891 160.805 31.3047 160.805 31.3047C160.805 31.3828 160.68 31.7188 160.43 32.3125C160.273 32.6719 160.039 33.0547 159.727 33.4609L159.047 34.6328C158.734 34.8828 158.484 35.1719 158.297 35.5L157.383 35.2891C157.18 36.1328 156.82 36.6719 156.305 36.9062C156.258 36.9219 156.055 36.9375 155.695 36.9531C155.445 36.9531 155.242 36.9844 155.086 37.0469C155.148 37.875 154.062 38.6641 151.828 39.4141C151.234 39.6484 150.82 39.7734 150.586 39.7891H148.969C148.906 39.7891 148.812 39.8203 148.688 39.8828C148.328 40.0547 148.102 40.1406 148.008 40.1406C147.961 40.1406 147.781 40.0781 147.469 39.9531C146.859 39.8594 146.234 39.7734 145.594 39.6953L145.664 39.2734C145.445 38.5703 145.297 38.2188 145.219 38.2188C145.219 38.2188 145.141 38.375 144.984 38.6875C144.797 39.1406 144.672 39.4141 144.609 39.5078C144.547 39.5859 144.422 39.625 144.234 39.625H144.07H143.836C143.742 39.625 143.625 39.6328 143.484 39.6484C143.391 39.6484 143.32 39.6484 143.273 39.6484C143.133 39.6484 142.945 39.5859 142.711 39.4609C142.57 39.8047 142.5 40.0781 142.5 40.2812C142.5 40.5312 142.523 41.1016 142.57 41.9922C142.602 42.1953 142.617 42.3594 142.617 42.4844C142.617 42.7031 142.562 42.8438 142.453 42.9062L141.727 43.3047C141.664 43.3359 141.609 43.4922 141.562 43.7734C141.516 44.0547 141.453 44.2266 141.375 44.2891L141.023 44.5469C141.805 45 142.203 45.2344 142.219 45.25C142.25 45.2812 142.297 45.3828 142.359 45.5547C142.391 45.6641 142.461 46.0078 142.57 46.5859C142.633 47.6016 142.68 48.2891 142.711 48.6484L142.148 48.7891C142.117 48.9766 142.102 49.1406 142.102 49.2812C142.102 49.3438 142.188 49.6953 142.359 50.3359C142.375 50.3984 142.383 50.4844 142.383 50.5938C142.383 50.7188 142.375 50.8594 142.359 51.0156L142.781 50.9453C142.812 51.6641 142.844 52.1328 142.875 52.3516C142.891 52.6016 142.906 53.1641 142.922 54.0391L143.062 54.625C143.062 54.7031 143.023 54.8438 142.945 55.0469C142.664 55.0781 142.445 55.1406 142.289 55.2344L143.016 55.6562C143 55.8125 142.992 55.9531 142.992 56.0781C142.992 56.2188 143.023 56.4375 143.086 56.7344C143.164 57.0625 143.211 57.4297 143.227 57.8359C142.852 58.0859 142.617 58.2734 142.523 58.3984C142.461 58.4609 142.344 58.6719 142.172 59.0312L141.633 59.2422C141.07 59.5859 140.523 59.7812 139.992 59.8281H139.969L139.359 59.6641C139.859 59.4609 140.141 59.3047 140.203 59.1953C140.281 59.1016 140.336 58.7812 140.367 58.2344L141.281 56.7344L139.5 54.7422C139.5 54.7422 139.523 54.7188 139.57 54.6719C139.664 54.5625 139.797 54.3906 139.969 54.1562L139.781 52.8438C139.891 52.6875 139.969 52.5859 140.016 52.5391C140.266 52.2734 140.391 52.0859 140.391 51.9766C140.391 51.8672 140.297 51.75 140.109 51.625C139.875 51.4688 139.734 51.3672 139.688 51.3203C140.609 50.9297 141.07 50.6562 141.07 50.5C141.07 50.4219 140.672 50.25 139.875 49.9844L139.805 49.9375C140.57 49.4844 140.953 49.1875 140.953 49.0469C140.953 48.9531 140.656 48.4219 140.062 47.4531C139.828 47.0938 139.711 46.7344 139.711 46.375C139.711 46.2969 139.812 45.3125 140.016 43.4219L140.367 43.2109L140.297 41.7344C139.812 41.6094 139.57 41.3125 139.57 40.8438C139.57 40.7344 139.609 40.1016 139.688 38.9453L139.758 37.7969V34.1641C139.758 34.0547 139.844 33.8281 140.016 33.4844L139.969 32.5469L139.992 32.2656C139.992 32.0938 139.828 31.9297 139.5 31.7734C139.484 31.3828 139.477 31.1094 139.477 30.9531C139.477 30.7188 139.477 30.5156 139.477 30.3438C139.492 29.9375 139.5 29.6719 139.5 29.5469C139.5 29.5156 139.5 29.4766 139.5 29.4297C139.469 28.7734 139.453 28.4375 139.453 28.4219C139.453 28.4062 139.469 28.3281 139.5 28.1875C139.547 28.0469 139.57 27.9375 139.57 27.8594V27.8125C139.414 26.5938 139.305 25.8359 139.242 25.5391C139.195 25.3828 138.969 25.1641 138.562 24.8828ZM142.031 28.0469L142.219 28.2344H142.477C142.492 28.6094 142.5 28.9375 142.5 29.2188C142.5 29.4062 142.492 29.5703 142.477 29.7109C142.445 30.0078 142.43 30.1953 142.43 30.2734C142.43 30.2891 142.461 30.5469 142.523 31.0469C142.523 31.0625 142.523 31.0703 142.523 31.0703C142.523 31.2109 142.391 31.5391 142.125 32.0547C142.344 32.4922 142.461 32.7734 142.477 32.8984L142.5 33.9766L142.594 35.2656C142.594 35.2812 142.578 35.375 142.547 35.5469C142.531 35.6875 142.508 35.8906 142.477 36.1562C142.758 36.3281 142.953 36.4375 143.062 36.4844C143.906 36.8906 144.391 37.1562 144.516 37.2812C144.562 37.2969 144.641 37.3906 144.75 37.5625C144.969 37.3906 145.125 37.3047 145.219 37.3047C145.312 37.3047 145.484 37.3516 145.734 37.4453C145.906 37.5078 146.18 37.5469 146.555 37.5625C147.023 37.5625 147.289 37.5781 147.352 37.6094L148.898 38.125C148.961 38.1406 149.039 38.1484 149.133 38.1484C149.148 38.1484 149.703 38.0703 150.797 37.9141L151.688 38.8984L152.414 38.5469C152.961 38.2656 153.32 38.0625 153.492 37.9375C153.602 37.8438 153.82 37.6328 154.148 37.3047L155.016 36.6953L155.766 35.875C156.438 35.3125 156.828 34.9766 156.938 34.8672C157.109 34.6641 157.367 34.0312 157.711 32.9688C157.93 32.3281 158.039 31.8672 158.039 31.5859C158.039 31.4141 158.023 31.2344 157.992 31.0469C157.945 30.7188 157.922 30.4766 157.922 30.3203C157.922 30.2109 157.977 30.0391 158.086 29.8047C157.711 29.5547 157.461 29.3047 157.336 29.0547C157.227 28.8672 157.117 28.5156 157.008 28C156.648 27.7188 156.344 27.3984 156.094 27.0391C155.922 26.8203 155.836 26.6797 155.836 26.6172C155.836 26.4922 155.867 26.3438 155.93 26.1719C155.711 25.8594 155.469 25.7031 155.203 25.7031C155.094 25.7031 154.797 25.7422 154.312 25.8203C153.969 25.6016 153.742 25.4453 153.633 25.3516C153.07 24.9141 152.711 24.6875 152.555 24.6719C152.523 24.6562 152.211 24.6484 151.617 24.6484C151.289 24.4609 151.125 24.3672 151.125 24.3672C150.922 24.2734 150.508 24.2266 149.883 24.2266C148.305 24.2266 147.227 24.2734 146.648 24.3672C146.523 24.3984 145.93 24.5703 144.867 24.8828L144.234 24.9766C144.094 25.0078 143.859 25.1328 143.531 25.3516C143.094 25.4141 142.82 25.5391 142.711 25.7266C142.602 25.9141 142.547 26.1641 142.547 26.4766C142.547 26.6016 142.555 26.7812 142.57 27.0156C141.836 27.1094 141.211 27.2969 140.695 27.5781L142.008 27.9297L142.031 28.0469ZM182.072 22.5625L182.822 22.0938C183.056 22.375 183.22 22.5547 183.314 22.6328C183.345 22.6641 183.509 22.7422 183.806 22.8672C183.962 22.9453 184.634 23.6016 185.822 24.8359C186.197 25.2266 186.455 25.5938 186.595 25.9375C186.72 26.2344 186.853 26.5938 186.994 27.0156C187.087 27.2344 187.197 27.5156 187.322 27.8594L187.158 28.0234C186.986 27.9922 186.752 27.9219 186.455 27.8125L185.564 28.1406L184.767 28L184.064 28.1875C183.095 27.5 182.587 27.1562 182.541 27.1562C182.447 27.1562 182.08 27.4766 181.439 28.1172C180.439 27.9297 179.908 27.8359 179.845 27.8359C179.595 27.8359 179.298 27.8594 178.955 27.9062L178.837 27.8125C178.587 27.8438 177.908 27.8594 176.798 27.8594L175.931 27.9531L174.853 28.0469L173.752 28.2344L172.767 28.2109C171.861 28.4922 171.244 28.6562 170.916 28.7031C170.837 29.2344 170.759 29.6016 170.681 29.8047C170.587 30.0391 170.4 30.2969 170.119 30.5781C170.619 30.9219 170.884 31.1641 170.916 31.3047C171.072 32.3047 171.22 32.9766 171.361 33.3203L171.783 33.5547L171.666 34.4219L172.392 34.6094C172.548 35.25 172.752 35.6797 173.002 35.8984C173.236 36.1016 173.627 36.2422 174.173 36.3203C174.252 36.8047 174.377 37.0938 174.548 37.1875C174.673 37.2812 174.955 37.3438 175.392 37.375L175.791 37.9844C175.962 37.9531 176.111 37.9375 176.236 37.9375C176.33 37.9375 176.798 38.1328 177.642 38.5234C177.83 38.6172 178.033 38.6641 178.252 38.6641C178.455 38.6641 178.853 38.5703 179.447 38.3828L180.947 38.2188L182.095 37.8906C182.642 37.8594 183.009 37.8125 183.197 37.75C183.462 37.6406 183.947 37.3672 184.65 36.9297C185.337 36.5078 185.736 36.2188 185.845 36.0625C186.127 35.7344 186.392 35.3594 186.642 34.9375C186.767 34.75 186.986 34.6562 187.298 34.6562C187.439 34.6562 187.642 34.7578 187.908 34.9609C187.798 35.5234 187.697 35.8906 187.603 36.0625C186.947 37.1719 186.533 37.9062 186.361 38.2656C186.158 38.1719 185.986 38.125 185.845 38.125C185.752 38.125 185.494 38.2812 185.072 38.5938C184.791 38.7812 184.439 38.8906 184.017 38.9219C183.048 39.1875 182.377 39.3438 182.002 39.3906C181.361 39.4531 180.955 39.5078 180.783 39.5547C180.298 39.7109 180.048 39.7891 180.033 39.7891L178.65 39.5781L177.83 39.7188L177.431 39.7422C177.056 39.7891 176.767 39.8125 176.564 39.8125C176.361 39.8125 175.791 39.7578 174.853 39.6484C174.556 39.6172 174.408 39.6016 174.408 39.6016L173.916 39.2969C172.744 38.9375 172.095 38.7266 171.97 38.6641C171.892 38.6172 171.627 38.3828 171.173 37.9609C171.142 37.9297 170.869 37.7578 170.353 37.4453C169.916 37.1797 169.681 36.9766 169.65 36.8359L169.228 36.0859C169.166 35.9609 168.9 35.6641 168.431 35.1953C168.587 34.9453 168.666 34.7578 168.666 34.6328C168.666 34.5859 168.462 34.1484 168.056 33.3203C167.947 33.1016 167.892 32.4375 167.892 31.3281C167.892 30.9844 168.002 30.4219 168.22 29.6406C168.408 29.0312 168.541 28.6797 168.619 28.5859L169.416 27.6484L169.931 26.5469C170.462 26.0469 171.072 25.4844 171.759 24.8594L173.47 23.8047L175.205 22.6094L175.837 22.4922L177.619 21.9297L178.767 21.8359C179.689 21.4922 180.197 21.3203 180.291 21.3203C181.166 21.3203 181.759 21.7344 182.072 22.5625ZM179.353 26.0781L179.752 26.5703C180.064 26.5078 180.275 26.4688 180.384 26.4531C180.806 26.3906 181.228 26.2812 181.65 26.125L182.986 26.2422C183.002 26.2422 183.041 26.1641 183.103 26.0078C183.119 25.9141 183.127 25.8359 183.127 25.7734C183.127 25.6328 183.033 25.4609 182.845 25.2578C182.814 25.2266 182.736 25.1328 182.611 24.9766C182.236 24.4766 182.002 24.2422 181.908 24.2734L181.134 23.8984C181.041 23.8516 180.892 23.6719 180.689 23.3594C180.236 23.2969 179.462 23.2656 178.369 23.2656L177.9 23.2422L177.103 23.7109C177.072 23.7422 176.642 23.8516 175.814 24.0391C175.158 24.2734 174.58 24.5 174.08 24.7188C173.97 24.7969 173.666 25.0625 173.166 25.5156C173.072 25.5938 172.892 25.7344 172.627 25.9375V26.0781L172.673 26.125L174.384 26.8047L174.9 27.3203L175.814 26.2188C175.892 26.1562 175.978 26.125 176.072 26.125C176.119 26.125 176.502 26.2266 177.22 26.4297C177.236 26.4297 177.252 26.4297 177.267 26.4297C177.47 26.4297 177.916 26.3516 178.603 26.1953C178.759 26.1484 179.009 26.1094 179.353 26.0781ZM194.714 23.3594C194.839 22.75 195.05 22.4453 195.347 22.4453H195.37L196.519 22.5156H196.566C197.441 22.3906 197.941 22.3203 198.066 22.3047C198.066 22.0234 198.066 21.8359 198.066 21.7422C198.066 20.2734 198.034 19.0703 197.972 18.1328C197.941 17.7266 197.847 17.3594 197.691 17.0312L197.456 16.5391C197.394 16.4141 197.363 16.2812 197.363 16.1406C197.363 15.9062 197.55 15.625 197.925 15.2969C198.503 14.7656 199.238 14.4141 200.128 14.2422C200.331 13.8203 200.55 13.6094 200.784 13.6094C200.878 13.6094 200.956 13.6484 201.019 13.7266C201.238 13.9609 201.347 14.2656 201.347 14.6406C201.347 14.6563 201.277 15.8906 201.136 18.3438C200.948 18.9844 200.831 19.3594 200.784 19.4688C200.722 19.6875 200.542 19.9141 200.245 20.1484C200.245 20.4609 200.292 20.7656 200.386 21.0625H200.925L200.784 22.2578C201.175 22.2891 201.988 22.4766 203.222 22.8203C203.3 22.8359 203.566 22.8438 204.019 22.8438C204.3 22.8438 204.761 22.75 205.402 22.5625L206.948 22.4219C207.745 22.1094 208.214 21.9531 208.355 21.9531C208.558 21.9531 208.808 21.9766 209.105 22.0234C209.073 22.4609 209.027 22.7734 208.964 22.9609C208.902 23.1953 208.409 23.5938 207.488 24.1562C207.269 24.2812 207.113 24.3984 207.019 24.5078C206.784 24.7891 206.659 24.9297 206.644 24.9297C206.566 24.9922 206.378 25.0234 206.081 25.0234C205.847 25.0234 205.675 24.9922 205.566 24.9297L204.605 24.4141L204.019 24.2734L203.316 23.7578L202.12 24.6719L201.089 24.5312C201.011 24.5312 200.855 24.6094 200.62 24.7656C200.745 25.5156 200.808 26.1484 200.808 26.6641C200.808 26.9141 200.8 27.2812 200.784 27.7656C200.206 27.8594 199.917 28.0938 199.917 28.4688C199.917 28.6094 199.948 28.7812 200.011 28.9844C200.355 29.0156 200.644 29.0625 200.878 29.125L200.831 32.0547C200.597 31.9922 200.402 31.9609 200.245 31.9609C199.964 31.9609 199.823 32.0781 199.823 32.3125C199.823 32.5 199.894 32.7266 200.034 32.9922C200.253 32.8516 200.441 32.7812 200.597 32.7812C200.831 32.7812 200.948 32.9297 200.948 33.2266L200.878 34.1641V34.2109C200.909 34.8516 200.933 35.3125 200.948 35.5938C200.98 35.8906 201.073 36.1875 201.23 36.4844L201.511 36.9766C201.542 37.0391 201.558 37.1328 201.558 37.2578C201.558 37.3984 201.542 37.5781 201.511 37.7969C201.995 38.0781 202.534 38.2188 203.128 38.2188C203.628 38.2188 204.128 38.0938 204.628 37.8438C205.034 37.625 205.253 37.5 205.284 37.4688L206.573 36.2969C207.214 35.7656 207.605 35.5 207.745 35.5C207.886 35.5 208.081 35.5703 208.331 35.7109C208.284 36.0078 208.253 36.2109 208.238 36.3203C208.128 37.1328 208.019 37.6094 207.909 37.75C207.8 37.875 207.323 38.0703 206.48 38.3359C205.839 38.6641 204.87 39.0469 203.573 39.4844L202.777 39.7422C202.245 40.0391 201.941 40.1875 201.863 40.1875C201.722 40.1875 201.566 40.0469 201.394 39.7656L200.972 39.6484L200.714 40.2344C200.495 40.2656 200.308 40.2812 200.152 40.2812C199.745 40.2812 199.261 40.0156 198.698 39.4844C198.448 39.2344 198.245 38.9766 198.089 38.7109C198.073 38.6953 198.011 38.4922 197.902 38.1016C197.73 37.5859 197.644 37.2891 197.644 37.2109C197.644 37.0703 197.659 36.8438 197.691 36.5312C197.722 36.2812 197.738 35.7578 197.738 34.9609C197.753 34.4453 197.894 34.0547 198.159 33.7891C198.066 33.4922 198.019 33.1328 198.019 32.7109C197.941 31.9922 197.894 30.625 197.878 28.6094C198.253 28.375 198.441 28.1484 198.441 27.9297C198.441 27.8047 198.425 27.6562 198.394 27.4844L197.714 27.3203L197.667 27.1094V27.0859C197.667 27.0078 197.691 26.8438 197.738 26.5938C197.831 26.1875 197.878 25.4844 197.878 24.4844C197.238 24.3438 196.769 24.2734 196.472 24.2734C196.378 24.2734 195.972 24.3203 195.253 24.4141L194.761 24.4609C194.323 24.6016 194.089 24.6719 194.058 24.6719C193.839 24.6719 193.73 24.5703 193.73 24.3672C193.73 24.0547 194.058 23.7188 194.714 23.3594Z" fill="white"/>
<path d="M40.7321 111.12L39.8378 111.566L39.8378 111.566L40.7321 111.12ZM166.476 100.05C166.708 99.5493 166.49 98.9545 165.989 98.7219L157.825 94.9322C157.324 94.6997 156.73 94.9174 156.498 95.4185C156.266 95.9197 156.484 96.5144 156.985 96.747L164.242 100.116L160.88 107.375C160.648 107.876 160.866 108.47 161.367 108.703C161.868 108.936 162.462 108.718 162.694 108.217L166.476 100.05ZM48.8656 53.9037C48.0846 53.2787 48.0843 53.2791 48.0839 53.2797C48.0836 53.28 48.0831 53.2806 48.0826 53.2813C48.0816 53.2825 48.0802 53.2842 48.0785 53.2864C48.0751 53.2907 48.0704 53.2967 48.0643 53.3043C48.0522 53.3197 48.0347 53.342 48.0122 53.3709C47.9672 53.4288 47.9019 53.5135 47.8181 53.6243C47.6506 53.8458 47.4092 54.1715 47.1085 54.5947C46.5073 55.4409 45.6685 56.6775 44.7092 58.2507C42.7919 61.3952 40.3874 65.8943 38.4394 71.315C34.5455 82.1509 32.4483 96.7595 39.8378 111.566L41.6264 110.673C34.5661 96.5263 36.5356 82.5269 40.3209 71.9932C42.2125 66.7291 44.5507 62.353 46.4162 59.2936C47.3484 57.7648 48.161 56.5672 48.7383 55.7547C49.0269 55.3485 49.2566 55.0388 49.4128 54.8322C49.4909 54.7289 49.5507 54.6514 49.5902 54.6005C49.61 54.5751 49.6248 54.5563 49.6342 54.5443C49.6389 54.5383 49.6424 54.534 49.6444 54.5314C49.6454 54.5301 49.6461 54.5293 49.6465 54.5288C49.6467 54.5286 49.6467 54.5286 49.6468 54.5285C49.6467 54.5286 49.6465 54.5288 48.8656 53.9037ZM39.8378 111.566C41.7895 115.477 45.3346 118.151 49.8919 119.875C54.44 121.595 60.0624 122.398 66.312 122.539C78.813 122.822 94.0584 120.461 108.785 117.209C123.526 113.955 137.806 109.795 148.397 106.45C153.693 104.778 158.07 103.308 161.123 102.256C162.65 101.731 163.846 101.309 164.661 101.019C165.069 100.874 165.381 100.761 165.592 100.685C165.697 100.647 165.777 100.618 165.831 100.599C165.858 100.589 165.878 100.581 165.892 100.576C165.899 100.574 165.904 100.572 165.908 100.571C165.909 100.57 165.911 100.57 165.912 100.569C165.913 100.569 165.913 100.569 165.569 99.6293C165.225 98.69 165.224 98.6901 165.224 98.6903C165.223 98.6906 165.222 98.691 165.22 98.6916C165.217 98.6928 165.212 98.6946 165.206 98.6969C165.192 98.7017 165.173 98.7089 165.147 98.7184C165.094 98.7375 165.016 98.766 164.912 98.8036C164.704 98.8787 164.394 98.99 163.99 99.134C163.181 99.4221 161.991 99.8413 160.472 100.365C157.432 101.412 153.072 102.876 147.794 104.542C137.235 107.876 123.016 112.018 108.353 115.255C93.677 118.496 78.6163 120.817 66.3558 120.539C60.2246 120.401 54.8523 119.613 50.5978 118.003C46.3526 116.397 43.2872 114.001 41.6264 110.673L39.8378 111.566Z" fill="white"/>
<defs>
<filter id="filter0_d_531_242" x="164.767" y="153" width="91.8728" height="92" filterUnits="userSpaceOnUse" color-interpolation-filters="sRGB">
<feFlood flood-opacity="0" result="BackgroundImageFix"/>
<feColorMatrix in="SourceAlpha" type="matrix" values="0 0 0 0 0 0 0 0 0 0 0 0 0 0 0 0 0 0 127 0" result="hardAlpha"/>
<feOffset dx="1" dy="-1"/>
<feGaussianBlur stdDeviation="0.5"/>
<feComposite in2="hardAlpha" operator="out"/>
<feColorMatrix type="matrix" values="0 0 0 0 0 0 0 0 0 0 0 0 0 0 0 0 0 0 0.25 0"/>
<feBlend mode="normal" in2="BackgroundImageFix" result="effect1_dropShadow_531_242"/>
<feBlend mode="normal" in="SourceGraphic" in2="effect1_dropShadow_531_242" result="shape"/>
</filter>
</defs>
</svg>
