<svg width="81" height="81" viewBox="0 0 81 81" fill="none" xmlns="http://www.w3.org/2000/svg">
<path fill-rule="evenodd" clip-rule="evenodd" d="M79.8367 0.411835C80.0596 0.411678 80.2548 0.479021 80.4122 0.589981L56.3892 10.394C50.6127 5.1671 42.982 1.9884 34.6163 1.9884C26.4907 1.9884 19.0585 4.98726 13.3453 9.94906C12.9415 10.2997 12.3337 10.2896 11.9541 9.91283L10.9408 8.90693C10.7761 8.74349 10.573 8.54329 10.3698 8.34307L10.3694 8.34268L10.3693 8.34258C10.1662 8.14241 9.96308 7.94226 9.79846 7.77886L9.14118 7.12642C8.752 6.74011 8.74652 6.11244 9.1289 5.71939L9.77503 5.05524C10.1601 4.65938 10.1546 4.02307 9.76263 3.63399L9.11246 2.98861C8.72049 2.59954 8.09054 2.60503 7.70542 3.00089L7.07332 3.65063C6.68546 4.0493 6.04682 4.05487 5.65207 3.66303L5.00908 3.02478C4.61711 2.6357 3.98716 2.6412 3.60204 3.03705L2.96288 3.69405C2.57776 4.08991 2.58331 4.72622 2.97528 5.1153L3.63254 5.76772C4.02173 6.15403 4.0272 6.7817 3.64482 7.17475L2.99867 7.83893C2.61355 8.23479 2.6191 8.8711 3.01107 9.26018L3.66124 9.90556C4.0532 10.2946 4.68315 10.2891 5.06827 9.89328L5.7004 9.24351C6.08826 8.84484 6.7269 8.83927 7.12166 9.23111L7.76466 9.86938C7.92941 10.0329 8.13291 10.2329 8.3364 10.4328C8.53989 10.6328 8.74338 10.8327 8.90813 10.9963L9.89804 11.9789C10.278 12.3561 10.2923 12.9646 9.94351 13.3709C4.97775 19.1556 1.97269 26.7043 1.97269 34.9619C1.97269 43.5779 5.24423 51.4221 10.601 57.2961L0.412109 80.412L0.466494 1.46623C0.466875 0.914493 0.914051 0.467311 1.46579 0.466923L79.8367 0.411835Z" fill="rgba(255, 255, 255, 0.9)"/>
</svg>
