<svg width="351" height="67" viewBox="0 0 351 67" fill="none" xmlns="http://www.w3.org/2000/svg">
<path d="M15.5548 33.4557L12.7763 14.7684L16.4387 14.6159L19.8363 14.1045L18.3002 14.8667L36.2482 23.9802L36.0431 24.384L17.8795 15.1321L17.0003 15.3767L32.6126 28.8246L32.3772 29.3569L16.0137 15.2202L14.9595 15.4291L23.9992 32.5074L24.0868 33.3063L23.3796 32.6248L14.1087 15.4279L13.6924 15.3352L16.105 33.1594L15.5548 33.4557Z" fill="white"/>
<path d="M6.46983 30.4499C9.85363 29.7277 14.3884 32.3075 15.7935 33.4113C16.4674 31.8812 22.4329 31.5542 23.9934 33.0545C24.2731 29.9255 29.5 27.5531 32.5998 29.2345C32.2245 26.9645 33.4066 24.0181 35.9136 24.1228" stroke="white" stroke-width="0.5"/>
<path d="M7.8315 24.7363C10.1785 22.0616 13.7969 24.3549 14.6362 24.7691C15.534 23.9319 16.8165 23.0617 19.0931 23.6576C19.8344 22.6402 22.2191 21.5719 24.5046 22.1169C24.7424 21.8105 25.8472 19.9623 28.3104 20.1437C28.5257 19.2676 30.2712 17.8235 31.8381 18.3695" stroke="white" stroke-width="0.5"/>
<path d="M5.94579 27.9434C8.82577 25.551 13.0255 26.4941 14.7666 27.8739C15.8432 26.6557 19.2858 26.6785 20.9026 27.2975C21.5281 26.3493 24.8462 23.7175 28.1562 24.9605C28.3078 24.2912 29.1077 22.0298 31.3045 21.4509C31.5324 20.3368 33.5446 19.0889 34.7097 20.1961" stroke="white" stroke-width="0.5"/>
<path d="M27.0939 15.9593C25.8141 15.6597 24.4249 16.5686 23.4563 17.8887C22.2925 17.7319 20.8691 18.4933 20.8465 18.8732C18.913 18.3323 17.333 18.7073 16.882 19.9229C16.0691 19.4701 14.3729 20.209 13.8863 21.0101C11.4593 20.532 10.19 20.4305 8.57344 21.5614" stroke="white" stroke-width="0.5"/>
<path d="M26.2867 43.2586C26.2019 44.1101 25.3659 44.7154 24.4196 44.6105C23.4733 44.5057 22.775 43.7304 22.8598 42.8789C22.9447 42.0274 23.7807 41.4222 24.727 41.527C25.6733 41.6319 26.3716 42.4072 26.2867 43.2586Z" fill="white"/>
<path d="M26.2446 44.7038C26.3371 45.2596 25.8239 45.7984 25.0984 45.9073C24.373 46.0162 23.7099 45.6539 23.6174 45.0981C23.5249 44.5423 24.0381 44.0035 24.7636 43.8946C25.489 43.7858 26.1521 44.148 26.2446 44.7038Z" fill="white"/>
<path d="M25.524 42.0118L26.2159 40.008L28.52 38.865" stroke="white" stroke-width="0.5"/>
<g filter="url(#filter0_d_529_214)">
<path d="M29.748 40.4439L27.446 40.9814L25.9181 42.447" stroke="white" stroke-width="0.5" shape-rendering="crispEdges"/>
</g>
<path d="M26.089 43.0142L28.2529 42.6491L30.6791 43.6159" stroke="white" stroke-width="0.5"/>
<path d="M30.1235 44.9114L28.0649 43.9156L25.6254 43.6918" stroke="white" stroke-width="0.5"/>
<path d="M23.2621 42.3466L22.4584 40.6523L20.5277 40.5081" stroke="white" stroke-width="0.5"/>
<path d="M20.0269 42.2822L21.8511 41.8867L23.0604 42.7542" stroke="white" stroke-width="0.5"/>
<path d="M23.0664 43.663L21.1357 43.6145L19.4069 44.9533" stroke="white" stroke-width="0.5"/>
<path d="M20.695 46.8961L21.659 45.1759L23.5816 44.1377" stroke="white" stroke-width="0.5"/>
<path d="M24.5592 41.9646L23.9495 32.5928" stroke="white" stroke-width="0.5"/>
<path d="M36.0035 24.1195C36.0035 24.1195 36.1793 23.5098 37.4401 22.5516C38.7009 21.5933 39.0923 21.7759 39.0923 21.7759" stroke="white" stroke-width="0.5"/>
<path d="M81.9519 26.4661C82.0334 26.1515 82.1339 25.9211 82.2532 25.7751C82.3404 25.6701 82.7133 25.4235 83.372 25.0351C83.8065 24.6015 84.1033 24.3276 84.2627 24.2134C84.3763 24.1449 84.7684 23.9598 85.4392 23.658L86.0201 23.2128L86.394 23.0413L86.7476 22.8767L87.5416 22.609L89.0857 21.8616C89.5479 21.6604 89.8272 21.4982 89.9237 21.375C90.1124 21.1149 90.1532 20.814 90.0462 20.4723C90.0249 20.404 89.9021 20.2036 89.678 19.8711L90.3194 18.1814C90.3152 18.1678 89.8516 18.173 88.9289 18.197C88.8525 18.1926 88.6446 18.2475 88.3053 18.362C87.4864 17.807 87.0098 17.5068 86.8755 17.4614C86.7227 17.4525 86.177 17.5307 85.2385 17.6961L84.587 17.9158C84.2628 17.9345 84.0531 17.9598 83.9581 17.9918C83.8496 18.0285 83.6978 18.0948 83.5027 18.1908L82.9619 17.8291C82.6975 18.0392 82.5139 18.2673 82.4109 18.5136C82.3223 18.7097 82.1526 18.9105 81.9018 19.116C81.2902 19.6547 80.8114 20.1864 80.4655 20.7111L80.2382 20.9917C80.1431 21.3109 80.0727 21.4933 80.0269 21.539C79.894 21.6896 79.719 21.8015 79.5018 21.8747C79.4204 21.9022 79.1458 21.9117 78.678 21.9032C78.1823 21.9495 77.8695 21.9567 77.7395 21.925C77.5917 21.8842 77.3821 21.7659 77.1108 21.5703C77.2859 21.3148 77.4081 21.13 77.4775 21.016C77.644 20.7331 77.7659 20.5712 77.843 20.53L78.7292 19.9818L79.2373 19.4478L80.4118 18.5984L81.117 17.9752L81.9517 17.6937L82.7844 17.1183L83.1648 16.9673L83.8388 16.604C84.5081 16.3934 84.931 16.2584 85.1074 16.1989C85.3017 16.1485 85.6981 16.1206 86.2966 16.1152L86.8044 16.012C87.3637 15.9291 87.7583 15.8716 87.9883 15.8394C88.1826 15.789 88.474 15.857 88.8624 16.0433C88.6959 16.3262 88.634 16.5359 88.6768 16.6726C88.7367 16.864 88.8481 16.9322 89.0109 16.8773C89.1195 16.8407 89.2585 16.7334 89.4278 16.5554C89.5464 16.4549 89.7172 16.3293 89.9401 16.1786C90.1721 16.2968 90.3399 16.4971 90.4433 16.7796L91.0678 16.977C91.142 17.1182 91.1855 17.2093 91.1983 17.2503L91.3876 18.0706C91.7251 18.6217 91.9921 18.9472 92.1885 19.0472L92.2699 19.0198C92.4047 19.3067 92.5617 19.6165 92.7408 19.949C93.0297 20.7281 93.2216 21.2452 93.3164 21.5003C93.0642 21.7969 92.9659 22.0341 93.0215 22.2118C93.0857 22.4168 93.3267 22.5396 93.7445 22.58C93.8137 22.7531 93.8675 22.9012 93.906 23.0242C93.9445 23.1472 93.9923 23.3956 94.0492 23.7693C94.0827 23.9242 94.123 24.0769 94.1701 24.2272C94.3113 24.6783 94.5613 25.2136 94.9203 25.833C94.753 26.1614 94.7079 26.4486 94.7849 26.6947C94.8491 26.8997 95.0479 27.1274 95.3813 27.3776C95.4256 27.4231 95.5137 27.537 95.6457 27.7191C95.7164 27.8011 95.8488 27.9604 96.043 28.1972C95.9493 28.4252 95.8942 28.6327 95.8777 28.8196C95.7991 28.9519 95.6229 29.1322 95.3493 29.3605L94.6848 29.9699L94.2411 30.2782C93.7946 30.6252 93.5442 30.8079 93.4899 30.8262C93.3542 30.872 93.1813 30.8472 92.9714 30.7517L92.8468 29.275C92.4831 29.5034 91.9794 29.9075 91.3357 30.4873L90.7838 30.8094C90.4566 31.0104 90.2862 31.1132 90.2726 31.1178L89.4937 31.2898L88.8624 31.9334L88.4681 32.1117L86.9282 33.0163L86.0539 33.2431C85.6802 33.5354 85.4188 33.7067 85.2695 33.757C85.0795 33.8211 84.5223 33.9107 83.5981 34.026L82.7174 34.2323L82.0029 34.1786C81.4722 34.161 81.0637 34.1023 80.7774 34.0025C80.5267 33.9208 80.2826 33.716 80.0449 33.3881L79.5253 33.382C79.4282 33.2636 79.2902 33.0381 79.111 32.7056L78.6315 31.8926L78.6251 31.8721C78.573 31.7537 78.5992 31.5258 78.7036 31.1883C78.7887 30.9329 78.8696 30.5203 78.9463 29.9504C79.4059 29.07 79.7144 28.4976 79.8716 28.233C80.0146 28.0185 80.3758 27.6625 80.9552 27.1649C81.2582 26.7907 81.4572 26.5876 81.5522 26.5555C81.6608 26.5189 81.794 26.4891 81.9519 26.4661ZM82.0503 31.2384C81.9974 31.4527 81.9533 31.6716 81.9182 31.895C81.846 32.1914 81.8295 32.3783 81.8687 32.4557L82.1942 32.7766L82.6102 32.0923C83.1744 32.2648 83.5489 32.3349 83.7339 32.3028C84.2789 32.2701 84.5738 32.2537 84.6188 32.2537C84.7174 32.2809 84.8777 32.3855 85.0997 32.5675C85.4247 32.5033 85.6436 32.4597 85.7565 32.4367C85.8693 32.4138 85.9597 32.3909 86.0275 32.368C86.1768 32.3176 86.3301 32.1602 86.4873 31.8956C86.7201 31.9682 86.9044 31.9816 87.0401 31.9359C87.0673 31.9267 87.1887 31.7875 87.4046 31.5183L88.0131 31.4491C88.0131 31.4491 88.3389 31.1956 88.9905 30.6888L89.4428 30.2642L89.9163 30.1952L90.5872 29.6063L91.3739 28.9557C91.4934 28.5225 91.5717 28.2694 91.6088 28.1964C91.6925 28.0322 91.8958 27.8427 92.2187 27.6281L92.1355 26.9308C92.337 26.7117 92.4264 26.47 92.4036 26.2056C92.1708 26.133 91.9902 26.0353 91.8617 25.9124C91.8025 25.6754 91.7558 25.5023 91.7216 25.3929L91.6189 25.0649C91.4898 24.7004 91.3778 24.3906 91.2829 24.1355C91.2437 24.058 91.2134 23.9851 91.192 23.9168C91.1406 23.7528 91.1201 23.4952 91.1302 23.1442C91.0038 23.1718 90.822 23.1424 90.585 23.0561L89.716 23.3718L88.9092 23.5986L88.3049 23.825L87.9181 23.9554C87.8638 23.9738 87.626 23.9331 87.2046 23.8334L86.8017 24.1279C86.2588 24.311 85.8713 24.487 85.6391 24.656C85.4976 24.7792 85.3726 24.8592 85.264 24.8958C85.2369 24.9049 85.068 24.9166 84.7573 24.9307C84.7437 24.9353 84.7301 24.9398 84.7166 24.9444C84.6487 24.9673 84.47 25.1635 84.1806 25.5332C84.1392 25.5925 83.8291 25.8482 83.2504 26.3002C82.5016 26.9759 81.9906 27.5486 81.7176 28.0185C81.6897 28.0732 81.6046 28.3286 81.4623 28.7846C81.4193 28.9351 81.2182 29.1314 80.8588 29.3735C80.8345 29.4874 80.8309 29.5718 80.848 29.6265C80.8608 29.6675 80.9408 29.7312 81.0879 29.8176L81.577 30.8767C81.6341 30.9632 81.7919 31.0838 82.0503 31.2384Z" fill="url(#paint0_linear_529_214)" fill-opacity="0.5"/>
<path d="M3.35156 14.226C3.61719 14.226 3.96094 13.9995 4.38281 13.5463C4.77344 13.5463 5.00781 13.5463 5.08594 13.5463C5.36719 13.562 5.53906 13.5698 5.60156 13.5698L6.86719 13.5229C6.96094 13.5229 7.34375 13.6713 8.01562 13.9682C8.04688 13.9838 8.08594 13.9916 8.13281 13.9916C8.17969 13.9916 8.33594 13.9213 8.60156 13.7807H8.85938L13.2422 13.6401C13.3672 13.6245 13.5547 13.7026 13.8047 13.8745C13.9297 13.9682 14.1406 14.062 14.4375 14.1557L14.8359 13.7573C15.6953 13.7573 16.5781 13.8198 17.4844 13.9448L17.5547 13.8745C17.8203 14.2338 18.0703 14.4135 18.3047 14.4135C18.5234 14.4135 18.7344 14.226 18.9375 13.851C19.375 13.8823 19.7578 13.8979 20.0859 13.8979L23.3672 14.3198L24.3984 14.3432C24.9141 14.4682 25.3672 14.5463 25.7578 14.5776C25.8203 14.8901 25.9141 15.062 26.0391 15.0932C26.1016 15.1401 26.4141 15.187 26.9766 15.2338C27.1484 14.8901 27.3281 14.7182 27.5156 14.7182C27.5469 14.7182 27.7031 14.7651 27.9844 14.8588L28.7812 14.8823C28.9375 14.8823 29.2031 14.9995 29.5781 15.2338C30.0781 15.5463 30.3984 15.7026 30.5391 15.7026L31.0312 15.562L33.1875 16.476C34.5938 16.7729 35.3828 16.9838 35.5547 17.1088C35.7578 17.2651 35.875 17.3432 35.9062 17.3432L36.375 17.4135C36.7344 17.6791 37 17.8666 37.1719 17.976L38.1562 18.7495L39.2109 19.4057C39.8047 19.8588 40.2812 20.1713 40.6406 20.3432C40.5469 20.687 40.5 20.9291 40.5 21.0698C40.5 21.476 40.6328 21.6791 40.8984 21.6791C41.1172 21.6791 41.3594 21.6245 41.625 21.5151C41.9219 21.8745 42.3359 22.3041 42.8672 22.8041C43.2266 23.1635 43.3906 23.3901 43.3594 23.4838L43.5234 24.187L44.1094 25.8041L44.1562 26.8823L44.5547 28.3354L44.625 30.1166L44.7891 30.8666L44.6719 32.6479C44.6406 33.5541 44.5703 34.2495 44.4609 34.7338C44.3672 35.1401 44.1875 35.7026 43.9219 36.4213H43.5C43.4844 36.4838 43.4766 36.5385 43.4766 36.5854C43.4766 36.6166 43.5625 36.7885 43.7344 37.101C43.75 37.1479 43.7578 37.2104 43.7578 37.2885C43.7578 37.5073 43.7031 37.7573 43.5938 38.0385C43.4688 38.351 43.3984 38.5385 43.3828 38.601C43.1484 39.3354 42.9219 39.7026 42.7031 39.7026C42.5156 39.7026 42.3203 39.4604 42.1172 38.976L41.6016 39.8198L41.7656 40.101L41.6484 40.5698L42.0703 41.1791C41.8203 41.5073 41.4844 42.1245 41.0625 43.0307L40.4766 43.7807L40.3828 44.062L39.3281 45.1635L39.1641 45.5854L38.4844 46.3823C38.2344 46.6791 38.0703 46.8276 37.9922 46.8276C37.9141 46.8276 37.8047 46.7573 37.6641 46.6166H37.3125L37.0078 46.2182C36.7266 46.5307 36.5859 46.7729 36.5859 46.9448C36.5859 47.0854 36.6953 47.2885 36.9141 47.5541C36.5391 47.9135 36.0625 48.2807 35.4844 48.6557C35.1562 48.8745 34.8984 49.101 34.7109 49.3354C34.2266 49.1323 33.7266 48.9995 33.2109 48.937L33.1172 49.2182C33.3203 49.4995 33.4531 49.7338 33.5156 49.9213C33.2188 50.2182 32.6875 50.6323 31.9219 51.1635L30.3281 51.9838C30.2031 52.0463 29.9453 52.2651 29.5547 52.6401C29.1953 52.312 28.8672 52.1401 28.5703 52.1245C28.4609 52.6245 28.3203 52.9448 28.1484 53.0854C28.0703 53.1323 27.5859 53.2729 26.6953 53.5073C26.6016 53.5229 26.4844 53.5854 26.3438 53.6948C25.7656 54.1791 25.4609 54.4213 25.4297 54.4213H24.9141C24.8516 54.4213 24.6328 54.562 24.2578 54.8432C24.1797 54.9057 23.8359 55.0385 23.2266 55.2416C23.1172 55.2885 22.9766 55.351 22.8047 55.4291C21.8828 55.8666 21.2266 56.1166 20.8359 56.1791C20.4141 56.2104 19.8984 56.3198 19.2891 56.5073L17.0391 57.2807L15.4922 57.4213L14.9062 57.6088L14.5078 57.6557L13.6406 57.7729H13.125L12.1406 58.0073L10.8047 58.0541L8.95312 58.1948L8.53125 58.1713C8.125 58.1557 7.8125 58.1323 7.59375 58.101L4.03125 58.2416C4.01562 58.2416 3.94531 58.2651 3.82031 58.312C3.77344 58.3276 3.72656 58.3354 3.67969 58.3354C3.27344 58.3354 3.07031 58.1401 3.07031 57.7495C3.07031 57.6245 3.11719 57.5307 3.21094 57.4682C3.32031 57.4057 3.67969 57.2573 4.28906 57.0229C4.92969 56.7885 5.38281 56.5776 5.64844 56.3901C5.71094 55.9682 5.86719 55.5932 6.11719 55.2651C6.07031 54.7651 6.04688 54.3979 6.04688 54.1635L6.35156 52.3823V52.3588C6.35156 52.187 6.32812 51.9995 6.28125 51.7963C6.21875 51.5776 6.1875 51.4682 6.1875 51.4682C6.1875 51.4213 6.29688 50.9291 6.51562 49.9916C6.54688 49.851 6.5625 49.7182 6.5625 49.5932C6.5625 49.437 6.46875 49.1479 6.28125 48.726L8.20312 48.187L6.35156 45.2104C6.35156 45.2104 6.36719 45.1791 6.39844 45.1166C6.99219 44.9916 7.28906 44.7885 7.28906 44.5073C7.28906 44.3354 7.17969 44.0932 6.96094 43.7807C6.82031 43.8432 6.6875 43.8745 6.5625 43.8745C6.32812 43.8745 6.21094 43.6166 6.21094 43.101L6.25781 42.5151V39.351C6.25781 39.1323 6.24219 38.9448 6.21094 38.7885C6.19531 38.6323 6.1875 38.5385 6.1875 38.5073C6.1875 38.2573 6.32031 37.9213 6.58594 37.4995L6.1875 37.2182V36.5385L6.5625 36.1635C6.26562 35.8666 6.11719 35.5151 6.11719 35.1088V35.0151V34.4995C6.11719 33.5776 6.09375 32.9213 6.04688 32.5307C6.03125 32.312 6.02344 32.1323 6.02344 31.9916C6.02344 31.851 6.07031 31.6791 6.16406 31.476C6.35156 31.5073 6.51562 31.5229 6.65625 31.5229C6.85938 31.5229 6.96094 31.437 6.96094 31.2651C6.96094 31.2182 6.86719 31.101 6.67969 30.9135C6.53906 30.7104 6.39844 30.5541 6.25781 30.4448C5.86719 30.4135 5.65625 30.2338 5.625 29.9057L5.78906 28.6166L5.60156 23.976L5.76562 23.812H5.95312C6.125 23.312 6.21094 22.976 6.21094 22.8041C6.21094 22.5854 5.98438 22.3666 5.53125 22.1479C5.5 21.8041 5.35156 21.101 5.08594 20.0385L5.03906 19.1948C4.91406 18.7729 4.85156 18.351 4.85156 17.9291C4.83594 17.5073 4.75 16.7573 4.59375 15.6791C4.25 15.6791 4.03125 15.6713 3.9375 15.6557C3.84375 15.6401 3.79688 15.6323 3.79688 15.6323C3.71875 15.6323 3.54688 15.6791 3.28125 15.7729C3.10938 15.851 2.78906 15.8901 2.32031 15.8901C2.22656 15.687 2.17969 15.5151 2.17969 15.3745C2.17969 15.0307 2.39062 14.7651 2.8125 14.5776C3.07812 14.4682 3.25781 14.351 3.35156 14.226ZM8.34375 19.4995H8.90625C9.03125 19.812 9.13281 20.3198 9.21094 21.0229L9.32812 21.5385L9.28125 23.0385L9.35156 23.9057C9.11719 24.4213 9 24.7104 9 24.7729C9 24.8354 9.0625 25.0854 9.1875 25.5229L9.09375 27.2338L9.11719 27.726L9.14062 28.4995C9.25 28.9995 9.30469 29.2963 9.30469 29.3901C9.30469 29.5151 9.26562 29.6557 9.1875 29.812L8.57812 29.6245C8.48438 29.812 8.4375 29.9604 8.4375 30.0698C8.4375 30.351 8.55469 30.5229 8.78906 30.5854C8.82031 30.601 8.90625 30.6166 9.04688 30.6323C9.1875 30.6479 9.375 30.6948 9.60938 30.7729C9.28125 31.101 9.03125 31.3276 8.85938 31.4526C8.10938 32.0151 7.73438 32.4682 7.73438 32.812C7.73438 32.8588 8.36719 33.851 9.63281 35.7885C9.49219 36.4604 9.41406 37.062 9.39844 37.5932L8.83594 37.851L8.95312 38.0854L9.53906 38.2963L9.58594 38.5307V41.8823C9.58594 43.9604 9.625 45.0698 9.70312 45.2104C9.71875 45.3198 9.72656 45.4057 9.72656 45.4682C9.72656 45.4995 9.6875 45.7573 9.60938 46.2416C9.59375 46.3979 9.58594 46.5307 9.58594 46.6401C9.58594 46.9213 9.67188 47.562 9.84375 48.562C9.85938 48.6557 9.86719 48.7495 9.86719 48.8432C9.86719 48.9838 9.8125 49.1479 9.70312 49.3354L8.74219 49.0307C8.57031 49.2807 8.48438 49.4838 8.48438 49.6401C8.48438 50.1557 8.77344 50.4135 9.35156 50.4135C9.42969 50.4135 9.51562 50.4135 9.60938 50.4135C9.625 50.7573 9.67188 51.101 9.75 51.4448C9.8125 51.726 9.84375 52.2416 9.84375 52.9916C9.84375 53.226 9.90625 53.8041 10.0312 54.726C9.5625 55.0541 9.24219 55.4291 9.07031 55.851L8.39062 56.1323V56.2729L8.46094 56.3666C8.61719 56.3041 8.71094 56.2729 8.74219 56.2729L10.0078 56.3198C10.5391 56.3198 10.8359 56.3276 10.8984 56.3432C10.9609 56.3588 11.1094 56.437 11.3438 56.5776L11.6719 56.1088C11.8906 56.1401 12.0391 56.1557 12.1172 56.1557L14.4609 56.0854C14.4922 56.0854 14.625 56.1401 14.8594 56.2495C15.0156 55.937 15.1641 55.7416 15.3047 55.6635C15.5234 55.5698 15.8516 55.5229 16.2891 55.5229H16.5234C17.3984 55.5229 17.9531 55.476 18.1875 55.3823L18.8203 55.101L19.7578 54.8198C21.1328 54.2573 21.9766 53.8823 22.2891 53.6948L23.0391 53.4838C23.8828 53.1245 24.3516 52.9291 24.4453 52.8979C24.5078 52.8979 24.6875 52.8901 24.9844 52.8745L26.2266 52.1948C26.7891 52.0698 27.0938 51.976 27.1406 51.9135C27.1562 51.8666 27.1719 51.7729 27.1875 51.6323C27.5 51.4916 27.7109 51.3979 27.8203 51.351C28.3672 51.1323 29.0703 50.7338 29.9297 50.1557C30.4141 49.9213 30.7422 49.7495 30.9141 49.6401C31.0234 49.562 31.7969 48.9213 33.2344 47.7182L34.5469 46.687L35.2266 45.6791L36.375 44.601C36.4844 44.5073 36.625 44.2963 36.7969 43.9682C36.9062 43.7338 37.4219 43.062 38.3438 41.9526C38.3594 41.937 38.4375 41.7416 38.5781 41.3666C38.6406 41.226 38.8047 40.8979 39.0703 40.3823C39.2578 40.0073 39.3594 39.5776 39.375 39.0932C39.3906 38.812 39.5625 38.3041 39.8906 37.5698C40.2031 36.8354 40.3359 36.3823 40.2891 36.2104L40.3125 35.1323L40.5234 33.8666C40.5703 33.351 40.625 32.976 40.6875 32.7416C41.2656 32.6166 41.5547 32.187 41.5547 31.4526C41.5547 31.0151 41.2656 30.6635 40.6875 30.3979C40.6562 29.9916 40.5625 29.437 40.4062 28.7338L40.3594 28.0541C40.1719 27.4916 40.0781 27.1635 40.0781 27.0698C40.0781 26.8666 40.1094 26.6088 40.1719 26.2963C39.8594 26.0151 39.5547 25.6245 39.2578 25.1245C38.8047 24.3276 38.5625 23.8901 38.5312 23.812C38.5156 23.7963 38.4844 23.5776 38.4375 23.1557L38.1797 22.8979C37.9297 22.8979 37.75 22.8823 37.6406 22.851C37.4844 22.8354 37.2031 22.6557 36.7969 22.312C36.8906 22.062 36.9375 21.851 36.9375 21.6791C36.9375 21.5698 36.8672 21.4213 36.7266 21.2338C36.4922 21.2026 36.2812 21.187 36.0938 21.187C36.0469 21.187 35.8359 21.2182 35.4609 21.2807C35.4453 21.2807 35.4297 21.2807 35.4141 21.2807C35.3203 21.2807 34.8438 20.9291 33.9844 20.226L32.9062 19.5932L32.2031 19.0307L31.4766 18.6791L29.8125 17.812L29.1094 17.601L28.5 17.3901L27.3047 17.226L26.4141 16.9682L24.5156 16.6635L23.0859 16.3588C21.8359 16.1401 21.1719 16.0073 21.0938 15.9604C21.0469 15.9291 20.8906 15.7963 20.625 15.562C20.4688 15.4213 20.3516 15.351 20.2734 15.351C20.1328 15.351 19.9453 15.4135 19.7109 15.5385C19.5391 15.6323 19.3906 15.6791 19.2656 15.6791C19.25 15.6791 18.9844 15.6401 18.4688 15.562L17.5078 15.5385L15.0234 15.3745L13.0078 15.4448H11.9062H11.6719H11.5312C11.3281 15.4448 11.1406 15.4057 10.9688 15.3276C10.5469 15.1557 10.3125 15.0698 10.2656 15.0698C10.25 15.0698 10.125 15.1166 9.89062 15.2104C9.76562 15.2573 9.57031 15.2963 9.30469 15.3276C9.16406 15.5776 9.09375 15.7416 9.09375 15.8198L9.16406 16.6635L8.97656 17.3432C8.91406 17.8901 8.82812 18.3276 8.71875 18.6557L8.29688 18.5151C8.15625 18.7495 8.08594 18.937 8.08594 19.0776C8.08594 19.1713 8.11719 19.2495 8.17969 19.312L8.34375 19.4995ZM66.3844 33.562L67.1344 33.0932C67.3688 33.3745 67.5328 33.5541 67.6266 33.6323C67.6578 33.6635 67.8219 33.7416 68.1188 33.8666C68.275 33.9448 68.9469 34.601 70.1344 35.8354C70.5094 36.226 70.7672 36.5932 70.9078 36.937C71.0328 37.2338 71.1656 37.5932 71.3063 38.0151C71.4 38.2338 71.5094 38.5151 71.6344 38.8588L71.4703 39.0229C71.2984 38.9916 71.0641 38.9213 70.7672 38.812L69.8766 39.1401L69.0797 38.9995L68.3766 39.187C67.4078 38.4995 66.9 38.1557 66.8531 38.1557C66.7594 38.1557 66.3922 38.476 65.7516 39.1166C64.7516 38.9291 64.2203 38.8354 64.1578 38.8354C63.9078 38.8354 63.6109 38.8588 63.2672 38.9057L63.15 38.812C62.9 38.8432 62.2203 38.8588 61.1109 38.8588L60.2438 38.9526L59.1656 39.0463L58.0641 39.2338L57.0797 39.2104C56.1734 39.4916 55.5563 39.6557 55.2281 39.7026C55.15 40.2338 55.0719 40.601 54.9938 40.8041C54.9 41.0385 54.7125 41.2963 54.4313 41.5776C54.9313 41.9213 55.1969 42.1635 55.2281 42.3041C55.3844 43.3041 55.5328 43.976 55.6734 44.3198L56.0953 44.5541L55.9781 45.4213L56.7047 45.6088C56.8609 46.2495 57.0641 46.6791 57.3141 46.8979C57.5484 47.101 57.9391 47.2416 58.4859 47.3198C58.5641 47.8041 58.6891 48.0932 58.8609 48.187C58.9859 48.2807 59.2672 48.3432 59.7047 48.3745L60.1031 48.9838C60.275 48.9526 60.4234 48.937 60.5484 48.937C60.6422 48.937 61.1109 49.1323 61.9547 49.5229C62.1422 49.6166 62.3453 49.6635 62.5641 49.6635C62.7672 49.6635 63.1656 49.5698 63.7594 49.3823L65.2594 49.2182L66.4078 48.8901C66.9547 48.8588 67.3219 48.812 67.5094 48.7495C67.775 48.6401 68.2594 48.3666 68.9625 47.9291C69.65 47.5073 70.0484 47.2182 70.1578 47.062C70.4391 46.7338 70.7047 46.3588 70.9547 45.937C71.0797 45.7495 71.2984 45.6557 71.6109 45.6557C71.7516 45.6557 71.9547 45.7573 72.2203 45.9604C72.1109 46.5229 72.0094 46.8901 71.9156 47.062C71.2594 48.1713 70.8453 48.9057 70.6734 49.2651C70.4703 49.1713 70.2984 49.1245 70.1578 49.1245C70.0641 49.1245 69.8063 49.2807 69.3844 49.5932C69.1031 49.7807 68.7516 49.8901 68.3297 49.9213C67.3609 50.187 66.6891 50.3432 66.3141 50.3901C65.6734 50.4526 65.2672 50.5073 65.0953 50.5541C64.6109 50.7104 64.3609 50.7885 64.3453 50.7885L62.9625 50.5776L62.1422 50.7182L61.7438 50.7416C61.3688 50.7885 61.0797 50.812 60.8766 50.812C60.6734 50.812 60.1031 50.7573 59.1656 50.6479C58.8688 50.6166 58.7203 50.601 58.7203 50.601L58.2281 50.2963C57.0563 49.937 56.4078 49.726 56.2828 49.6635C56.2047 49.6166 55.9391 49.3823 55.4859 48.9604C55.4547 48.9291 55.1813 48.7573 54.6656 48.4448C54.2281 48.1791 53.9938 47.976 53.9625 47.8354L53.5406 47.0854C53.4781 46.9604 53.2125 46.6635 52.7438 46.1948C52.9 45.9448 52.9781 45.7573 52.9781 45.6323C52.9781 45.5854 52.775 45.1479 52.3688 44.3198C52.2594 44.101 52.2047 43.437 52.2047 42.3276C52.2047 41.9838 52.3141 41.4213 52.5328 40.6401C52.7203 40.0307 52.8531 39.6791 52.9313 39.5854L53.7281 38.6479L54.2438 37.5463C54.775 37.0463 55.3844 36.4838 56.0719 35.8588L57.7828 34.8041L59.5172 33.6088L60.15 33.4916L61.9313 32.9291L63.0797 32.8354C64.0016 32.4916 64.5094 32.3198 64.6031 32.3198C65.4781 32.3198 66.0719 32.7338 66.3844 33.562ZM63.6656 37.0776L64.0641 37.5698C64.3766 37.5073 64.5875 37.4682 64.6969 37.4526C65.1188 37.3901 65.5406 37.2807 65.9625 37.1245L67.2984 37.2416C67.3141 37.2416 67.3531 37.1635 67.4156 37.0073C67.4313 36.9135 67.4391 36.8354 67.4391 36.7729C67.4391 36.6323 67.3453 36.4604 67.1578 36.2573C67.1266 36.226 67.0484 36.1323 66.9234 35.976C66.5484 35.476 66.3141 35.2416 66.2203 35.2729L65.4469 34.8979C65.3531 34.851 65.2047 34.6713 65.0016 34.3588C64.5484 34.2963 63.775 34.2651 62.6813 34.2651L62.2125 34.2416L61.4156 34.7104C61.3844 34.7416 60.9547 34.851 60.1266 35.0385C59.4703 35.2729 58.8922 35.4995 58.3922 35.7182C58.2828 35.7963 57.9781 36.062 57.4781 36.5151C57.3844 36.5932 57.2047 36.7338 56.9391 36.937V37.0776L56.9859 37.1245L58.6969 37.8041L59.2125 38.3198L60.1266 37.2182C60.2047 37.1557 60.2906 37.1245 60.3844 37.1245C60.4313 37.1245 60.8141 37.226 61.5328 37.4291C61.5484 37.4291 61.5641 37.4291 61.5797 37.4291C61.7828 37.4291 62.2281 37.351 62.9156 37.1948C63.0719 37.1479 63.3219 37.1088 63.6656 37.0776ZM93.4875 33.562L94.2375 33.0932C94.4719 33.3745 94.6359 33.5541 94.7297 33.6323C94.7609 33.6635 94.925 33.7416 95.2219 33.8666C95.3781 33.9448 96.05 34.601 97.2375 35.8354C97.6125 36.226 97.8703 36.5932 98.0109 36.937C98.1359 37.2338 98.2688 37.5932 98.4094 38.0151C98.5031 38.2338 98.6125 38.5151 98.7375 38.8588L98.5734 39.0229C98.4016 38.9916 98.1672 38.9213 97.8703 38.812L96.9797 39.1401L96.1828 38.9995L95.4797 39.187C94.5109 38.4995 94.0031 38.1557 93.9563 38.1557C93.8625 38.1557 93.4953 38.476 92.8547 39.1166C91.8547 38.9291 91.3234 38.8354 91.2609 38.8354C91.0109 38.8354 90.7141 38.8588 90.3703 38.9057L90.2531 38.812C90.0031 38.8432 89.3234 38.8588 88.2141 38.8588L87.3469 38.9526L86.2688 39.0463L85.1672 39.2338L84.1828 39.2104C83.2766 39.4916 82.6594 39.6557 82.3313 39.7026C82.2531 40.2338 82.175 40.601 82.0969 40.8041C82.0031 41.0385 81.8156 41.2963 81.5344 41.5776C82.0344 41.9213 82.3 42.1635 82.3313 42.3041C82.4875 43.3041 82.6359 43.976 82.7766 44.3198L83.1984 44.5541L83.0813 45.4213L83.8078 45.6088C83.9641 46.2495 84.1672 46.6791 84.4172 46.8979C84.6516 47.101 85.0422 47.2416 85.5891 47.3198C85.6672 47.8041 85.7922 48.0932 85.9641 48.187C86.0891 48.2807 86.3703 48.3432 86.8078 48.3745L87.2063 48.9838C87.3781 48.9526 87.5266 48.937 87.6516 48.937C87.7453 48.937 88.2141 49.1323 89.0578 49.5229C89.2453 49.6166 89.4484 49.6635 89.6672 49.6635C89.8703 49.6635 90.2688 49.5698 90.8625 49.3823L92.3625 49.2182L93.5109 48.8901C94.0578 48.8588 94.425 48.812 94.6125 48.7495C94.8781 48.6401 95.3625 48.3666 96.0656 47.9291C96.7531 47.5073 97.1516 47.2182 97.2609 47.062C97.5422 46.7338 97.8078 46.3588 98.0578 45.937C98.1828 45.7495 98.4016 45.6557 98.7141 45.6557C98.8547 45.6557 99.0578 45.7573 99.3234 45.9604C99.2141 46.5229 99.1125 46.8901 99.0188 47.062C98.3625 48.1713 97.9484 48.9057 97.7766 49.2651C97.5734 49.1713 97.4016 49.1245 97.2609 49.1245C97.1672 49.1245 96.9094 49.2807 96.4875 49.5932C96.2063 49.7807 95.8547 49.8901 95.4328 49.9213C94.4641 50.187 93.7922 50.3432 93.4172 50.3901C92.7766 50.4526 92.3703 50.5073 92.1984 50.5541C91.7141 50.7104 91.4641 50.7885 91.4484 50.7885L90.0656 50.5776L89.2453 50.7182L88.8469 50.7416C88.4719 50.7885 88.1828 50.812 87.9797 50.812C87.7766 50.812 87.2063 50.7573 86.2688 50.6479C85.9719 50.6166 85.8234 50.601 85.8234 50.601L85.3313 50.2963C84.1594 49.937 83.5109 49.726 83.3859 49.6635C83.3078 49.6166 83.0422 49.3823 82.5891 48.9604C82.5578 48.9291 82.2844 48.7573 81.7688 48.4448C81.3313 48.1791 81.0969 47.976 81.0656 47.8354L80.6438 47.0854C80.5813 46.9604 80.3156 46.6635 79.8469 46.1948C80.0031 45.9448 80.0813 45.7573 80.0813 45.6323C80.0813 45.5854 79.8781 45.1479 79.4719 44.3198C79.3625 44.101 79.3078 43.437 79.3078 42.3276C79.3078 41.9838 79.4172 41.4213 79.6359 40.6401C79.8234 40.0307 79.9563 39.6791 80.0344 39.5854L80.8313 38.6479L81.3469 37.5463C81.8781 37.0463 82.4875 36.4838 83.175 35.8588L84.8859 34.8041L86.6203 33.6088L87.2531 33.4916L89.0344 32.9291L90.1828 32.8354C91.1047 32.4916 91.6125 32.3198 91.7063 32.3198C92.5813 32.3198 93.175 32.7338 93.4875 33.562ZM90.7688 37.0776L91.1672 37.5698C91.4797 37.5073 91.6906 37.4682 91.8 37.4526C92.2219 37.3901 92.6438 37.2807 93.0656 37.1245L94.4016 37.2416C94.4172 37.2416 94.4563 37.1635 94.5188 37.0073C94.5344 36.9135 94.5422 36.8354 94.5422 36.7729C94.5422 36.6323 94.4484 36.4604 94.2609 36.2573C94.2297 36.226 94.1516 36.1323 94.0266 35.976C93.6516 35.476 93.4172 35.2416 93.3234 35.2729L92.55 34.8979C92.4563 34.851 92.3078 34.6713 92.1047 34.3588C91.6516 34.2963 90.8781 34.2651 89.7844 34.2651L89.3156 34.2416L88.5188 34.7104C88.4875 34.7416 88.0578 34.851 87.2297 35.0385C86.5734 35.2729 85.9953 35.4995 85.4953 35.7182C85.3859 35.7963 85.0813 36.062 84.5813 36.5151C84.4875 36.5932 84.3078 36.7338 84.0422 36.937V37.0776L84.0891 37.1245L85.8 37.8041L86.3156 38.3198L87.2297 37.2182C87.3078 37.1557 87.3938 37.1245 87.4875 37.1245C87.5344 37.1245 87.9172 37.226 88.6359 37.4291C88.6516 37.4291 88.6672 37.4291 88.6828 37.4291C88.8859 37.4291 89.3313 37.351 90.0188 37.1948C90.175 37.1479 90.425 37.1088 90.7688 37.0776ZM107.044 34.8745C107.137 34.5932 107.286 34.3354 107.489 34.101C107.645 33.9291 108.052 33.687 108.708 33.3745C109.38 32.9526 109.762 32.7416 109.856 32.7416C110.137 32.7416 110.348 32.8432 110.489 33.0463L110.583 33.4448L110.77 34.1713C110.723 34.3432 110.7 34.476 110.7 34.5698C110.7 34.7104 110.786 34.8745 110.958 35.062C111.27 34.9682 111.692 34.7729 112.223 34.476L113.208 34.1479L114.192 33.4916L114.825 33.2338C115.169 33.062 115.356 32.976 115.387 32.976C115.387 32.976 115.559 33.0073 115.903 33.0698C115.934 33.0698 115.958 33.0698 115.973 33.0698C116.052 33.0698 116.583 32.9057 117.567 32.5776C117.677 32.5463 117.911 32.5307 118.27 32.5307C118.536 32.5307 118.723 32.5698 118.833 32.6479C118.848 32.6635 119.012 32.8198 119.325 33.1166C119.512 33.1635 119.622 33.187 119.653 33.187C119.684 33.187 119.911 33.0776 120.333 32.8588C120.364 32.8432 120.403 32.8354 120.45 32.8354C120.653 32.8354 120.887 32.9526 121.153 33.187C121.403 33.4057 121.583 33.7416 121.692 34.1948C121.458 34.4291 120.989 34.7963 120.286 35.2963C119.942 35.7338 119.692 35.9526 119.536 35.9526C119.286 35.9526 118.958 35.7026 118.552 35.2026C118.27 35.2338 118.036 35.2495 117.848 35.2495C117.645 35.2495 117.309 35.1557 116.841 34.9682C116.466 34.8276 116.083 34.7338 115.692 34.687C115.536 34.9995 115.278 35.1713 114.919 35.2026C114.481 35.2338 114.208 35.2651 114.098 35.2963C113.473 35.4838 113.161 35.5776 113.161 35.5776C113.098 35.5776 112.973 35.5229 112.786 35.4135C112.473 35.6948 111.927 36.1166 111.145 36.6791C110.645 37.0385 110.403 37.6713 110.419 38.5776V38.6479C110.419 38.8354 110.419 39.0854 110.419 39.3979C110.434 39.6791 110.442 39.9135 110.442 40.101C110.442 40.2729 110.262 40.5307 109.903 40.8745C110.169 41.1557 110.302 41.3979 110.302 41.601C110.302 41.7104 110.286 41.8432 110.255 41.9995L110.606 42.0932L110.677 42.7963L110.794 46.9916L110.7 47.2495L110.091 47.5776C109.216 47.7495 108.778 47.8666 108.778 47.9291C108.778 47.9916 109.27 48.0932 110.255 48.2338L110.653 48.1401C110.809 48.6557 110.887 49.0073 110.887 49.1948C110.887 49.5541 110.708 49.8354 110.348 50.0385C110.208 50.1166 109.809 50.1948 109.153 50.2729C109.028 50.3041 108.692 50.4995 108.145 50.8588C108.052 50.9213 107.942 50.9526 107.817 50.9526C107.442 50.9526 107.255 50.7885 107.255 50.4604C107.255 50.3666 107.372 49.9213 107.606 49.1245C107.637 49.0307 107.653 48.937 107.653 48.8432C107.653 48.812 107.614 48.4604 107.536 47.7885C107.536 47.7416 107.567 47.6088 107.63 47.3901L108.192 47.226C108.208 47.0854 108.216 46.9604 108.216 46.851C108.216 46.6479 108.098 46.4057 107.864 46.1245C107.864 45.9057 107.864 45.7104 107.864 45.5385C107.864 45.3979 107.817 45.0307 107.723 44.437C107.77 43.9213 107.794 43.4838 107.794 43.1245C108.372 42.9213 108.661 42.6713 108.661 42.3745C108.661 42.2807 108.637 42.1557 108.591 41.9995C108.403 42.0463 108.247 42.0698 108.122 42.0698C108.012 42.0698 107.88 42.0073 107.723 41.8823C107.723 41.5698 107.723 41.226 107.723 40.851V40.3588V39.726V39.5385C107.723 39.4135 107.716 39.2729 107.7 39.1166C107.7 38.9604 107.7 38.8354 107.7 38.7416C107.7 38.4916 107.802 38.1557 108.005 37.7338C107.802 37.562 107.684 37.4135 107.653 37.2885C107.637 37.2416 107.606 36.7338 107.559 35.7651C107.544 35.5776 107.372 35.2807 107.044 34.8745ZM139.242 58.5229L139.359 58.312C139.844 57.3432 140.102 56.812 140.133 56.7182C140.164 56.6245 140.195 56.2416 140.227 55.5698C140.523 53.976 140.695 52.8432 140.742 52.1713L140.391 51.9604L140.32 51.8198C141.414 51.3041 142.055 50.9838 142.242 50.8588C142.445 50.7182 142.547 50.5541 142.547 50.3666C142.547 49.9604 141.867 49.3823 140.508 48.6323L141.047 48.4448C141.047 48.0229 141.07 47.7416 141.117 47.601C141.117 47.5698 141.117 47.5541 141.117 47.5541C141.117 47.4916 141.055 47.3198 140.93 47.0385C140.805 46.726 140.742 46.3432 140.742 45.8901L141.094 42.8432V39.6088C141.094 39.4526 141.195 39.2416 141.398 38.976C141.586 38.7729 141.734 38.5151 141.844 38.2026L141.07 37.851C140.961 37.1166 140.906 36.5541 140.906 36.1635C140.906 36.0073 140.914 35.851 140.93 35.6948C141.008 34.6635 141.047 34.101 141.047 34.0073C141.047 33.9916 141.047 33.9604 141.047 33.9135C140.875 32.5073 140.789 31.8041 140.789 31.8041C140.789 31.7729 140.867 31.6948 141.023 31.5698C141.133 31.476 141.297 31.3354 141.516 31.1479V30.8198L140.883 30.351C140.914 30.0229 140.93 29.7416 140.93 29.5073C140.93 29.0073 140.898 28.4291 140.836 27.7729L141.305 27.2104C141.07 26.8979 140.953 26.6635 140.953 26.5073C140.953 26.3666 140.977 26.2104 141.023 26.0385L140.602 25.9916C140.57 25.9291 140.555 25.8901 140.555 25.8745L141.82 23.8354L141.914 21.9135L142.547 21.1635L140.508 19.1948L140.555 17.6245C140.555 17.2182 140.391 17.0151 140.062 17.0151C139.906 17.0151 139.727 17.0541 139.523 17.1323C139.367 17.0073 139.289 16.8823 139.289 16.7573C139.289 16.476 139.398 16.2495 139.617 16.0776C139.727 15.9838 139.867 15.937 140.039 15.937C140.18 15.937 140.359 15.9526 140.578 15.9838C140.906 15.7182 141.258 15.4916 141.633 15.3041C142.367 14.9604 142.781 14.7885 142.875 14.7885C143.031 14.7885 143.219 14.9604 143.438 15.3041C143.547 15.2885 143.633 15.2807 143.695 15.2807C143.867 15.2807 144.109 15.3432 144.422 15.4682L144.914 15.0463C145.539 15.0932 145.953 15.1323 146.156 15.1635C146.562 15.2104 146.859 15.2338 147.047 15.2338C147.078 15.2338 147.859 15.1479 149.391 14.976H149.414C149.461 14.976 149.609 14.9995 149.859 15.0463C150.469 15.1401 151.961 15.2182 154.336 15.2807L154.922 15.3745L156.023 15.4448C156.211 15.4604 156.328 15.4682 156.375 15.4682C156.547 15.4682 156.781 15.351 157.078 15.1166C157.469 15.2104 158.016 15.2807 158.719 15.3276L159.938 15.5151L160.781 15.6088L161.367 15.7729H162.234L162.984 15.8901C163.594 15.9682 164.25 16.1479 164.953 16.4291C165.312 16.5698 165.523 16.8041 165.586 17.1323L165.492 17.2495H165.141V17.8588C165.281 17.9838 165.438 18.0541 165.609 18.0698L165.727 17.976C165.711 17.8666 165.703 17.7729 165.703 17.6948C165.703 17.5541 165.797 17.3901 165.984 17.2026C166.109 17.2338 166.234 17.312 166.359 17.437C166.438 17.4995 166.516 17.5541 166.594 17.601C167.062 17.9135 167.297 18.187 167.297 18.4213C167.297 18.9057 167.227 19.4995 167.086 20.2026C167.43 20.2182 167.602 20.3276 167.602 20.5307C167.602 20.6401 167.453 20.9291 167.156 21.3979C166.875 21.8198 166.562 22.1323 166.219 22.3354C166.188 22.351 166.094 22.4604 165.938 22.6635C165.797 22.8041 165.227 23.351 164.227 24.3041C163.523 24.7885 163.148 25.0541 163.102 25.101C162.992 25.2104 162.883 25.4213 162.773 25.7338L161.977 26.2495L161.555 26.1557C161.352 26.3276 161.148 26.4604 160.945 26.5541C160.617 26.6791 160.312 26.9135 160.031 27.2573C159.656 27.6791 159.406 27.9291 159.281 28.0073C159.172 28.0698 158.938 28.1245 158.578 28.1713L158.18 28.5229L157.547 28.3354C157.453 28.6166 157.352 28.851 157.242 29.0385C156.68 29.1635 156.234 29.3432 155.906 29.5776L156 29.6713C155.656 30.0932 155.336 30.3901 155.039 30.562C154.852 30.6557 154.523 30.7495 154.055 30.8432C153.898 30.8745 153.766 31.0151 153.656 31.2651C153.109 31.6088 152.703 31.8823 152.438 32.0854C152.781 32.1479 152.961 32.2026 152.977 32.2495L153.867 34.0307L154.711 34.9213C154.789 34.9995 154.898 35.187 155.039 35.4838L154.641 35.6713L154.969 35.9995C155.078 35.9995 155.164 35.9995 155.227 35.9995C155.508 35.9995 155.828 36.1635 156.188 36.4916C156.281 36.5854 156.438 36.7885 156.656 37.101C156.828 37.3354 157.008 37.5776 157.195 37.8276C156.914 38.0776 156.75 38.3041 156.703 38.5073L156.961 38.7416L157.922 38.8354C158.031 38.9604 158.148 39.1479 158.273 39.3979C158.273 39.4291 158.461 39.6323 158.836 40.0073C158.898 40.0854 159.172 40.5932 159.656 41.5307C159.891 41.937 160.562 42.7963 161.672 44.1088L162.422 45.1635C162.953 45.7885 163.25 46.1791 163.312 46.3354C163.516 46.7729 163.617 47.0698 163.617 47.226L163.594 47.5541V47.601C163.594 47.7416 163.625 47.8666 163.688 47.976C163.734 48.0698 164.141 48.3276 164.906 48.7495C165.266 48.9682 165.633 49.312 166.008 49.7807C167.148 51.2338 167.75 52.0307 167.812 52.1713C167.938 52.437 168 52.7807 168 53.2026C168.234 53.437 168.602 53.6713 169.102 53.9057L169.43 53.8354H169.453C169.562 53.8354 169.641 53.8588 169.688 53.9057C169.719 53.9213 169.844 54.1557 170.062 54.6088C170.141 54.7026 170.43 54.8901 170.93 55.1713C171.164 55.4526 171.328 55.5932 171.422 55.5932C171.516 55.5932 171.797 55.4838 172.266 55.2651L173.039 55.3354C173.102 55.3354 173.219 55.2963 173.391 55.2182C173.531 55.3432 173.602 55.4682 173.602 55.5932C173.602 55.7182 173.555 55.8354 173.461 55.9448C173.43 55.976 173.094 56.1401 172.453 56.437L171.656 56.8823C171.562 56.9291 171.32 56.9916 170.93 57.0698C170.617 57.1166 170.133 57.2651 169.477 57.5151L168.773 57.7729C168.383 58.0385 168.18 58.1713 168.164 58.1713C168.102 58.1713 167.914 58.0229 167.602 57.726C167.461 57.601 167.242 57.476 166.945 57.351C166.773 56.976 166.398 56.351 165.82 55.476C165.727 55.3354 165.672 55.0307 165.656 54.562L164.227 53.6948L164.625 52.8276C164.297 52.437 163.961 52.1323 163.617 51.9135C163.32 51.601 162.852 50.9526 162.211 49.9682L162.281 49.3823C161.828 49.1791 161.445 48.9135 161.133 48.5854C160.32 47.8041 159.859 46.9291 159.75 45.9604C159.562 45.601 159.195 45.2963 158.648 45.0463C158.32 44.8432 157.852 44.2338 157.242 43.2182C156.914 43.1245 156.664 42.9682 156.492 42.7495C156.242 42.4213 155.953 42.0932 155.625 41.7651C155.641 41.3276 155.57 41.0073 155.414 40.8041C155.07 40.3198 154.805 40.0776 154.617 40.0776C154.477 40.0776 154.32 40.0932 154.148 40.1245C154.008 39.9526 153.758 39.5541 153.398 38.9291L151.734 36.7729C151.25 36.101 150.781 35.5541 150.328 35.1323C149.312 34.2104 148.656 33.7495 148.359 33.7495C148.328 33.7495 147.32 34.1245 145.336 34.8745C145.336 34.8745 145.305 34.8745 145.242 34.8745C145.07 34.8745 144.859 34.8588 144.609 34.8276C144.562 35.0776 144.469 35.3745 144.328 35.7182C144.281 35.8432 144.258 35.9291 144.258 35.976L144.305 36.562V37.1948C144.398 37.8979 144.445 38.2495 144.445 38.2495C144.445 38.3432 144.406 38.5854 144.328 38.976C144.297 39.1323 144.281 39.3198 144.281 39.5385C144.281 39.851 144.297 40.1791 144.328 40.5229C144.344 40.7885 144.359 41.4604 144.375 42.5385L144.539 43.1948V45.0932C144.602 45.7495 144.633 46.101 144.633 46.1479C144.633 46.2885 144.578 46.4526 144.469 46.6401C144.344 46.8432 144.273 47.0698 144.258 47.3198L143.648 47.5541L143.812 48.7026C144.047 48.7182 144.242 48.7807 144.398 48.8901C144.305 49.1557 144.258 49.3745 144.258 49.5463C144.258 49.5932 144.32 49.8354 144.445 50.2729C144.461 50.3198 144.469 50.3901 144.469 50.4838C144.469 50.5776 144.461 50.7573 144.445 51.0229C144.445 51.1323 144.445 51.2573 144.445 51.3979C144.445 51.6948 144.453 52.0073 144.469 52.3354C144.094 52.5385 143.906 52.812 143.906 53.1557C143.906 53.4682 144.117 53.6479 144.539 53.6948C144.477 53.8979 144.445 54.0229 144.445 54.0698L144.492 55.4995C144.492 55.7338 144.383 56.0385 144.164 56.4135C144.055 56.6166 143.836 56.8041 143.508 56.976C143.148 57.1791 142.953 57.3041 142.922 57.351C142.812 57.4604 142.695 57.6166 142.57 57.8198L141.75 57.7026C141.266 58.4057 140.656 58.7573 139.922 58.7573C139.781 58.7573 139.555 58.6791 139.242 58.5229ZM143.203 26.1557L143.648 25.9213L144.188 26.4604C144.188 27.101 144.211 27.8041 144.258 28.5698V29.4838L144.328 30.6791C144.234 31.1479 144.188 31.7573 144.188 32.5073L143.789 32.6479V33.0463C143.836 33.0463 143.867 33.0463 143.883 33.0463C144.039 33.062 144.234 33.1088 144.469 33.187C144.719 32.9838 144.938 32.8588 145.125 32.812C145.234 32.7807 145.5 32.7182 145.922 32.6245C146.125 32.7338 146.273 32.7885 146.367 32.7885C146.461 32.7885 146.609 32.7416 146.812 32.6479L146.93 32.437C147.273 32.4057 147.852 32.2416 148.664 31.9448L149.297 31.8276L150.609 31.0073C151.062 30.7885 151.555 30.5073 152.086 30.1635L156.75 27.6557C157.656 27.2495 158.281 26.937 158.625 26.7182C158.859 26.5463 159.203 26.2182 159.656 25.7338L160.594 25.0307C161.016 24.6088 161.289 24.3432 161.414 24.2338C161.508 24.187 161.734 24.0932 162.094 23.9526C162.203 23.8901 162.453 23.5698 162.844 22.9916C163.172 22.7573 163.367 22.5854 163.43 22.476C163.57 22.1948 163.641 21.9213 163.641 21.6557C163.641 21.5463 163.625 21.4291 163.594 21.3041C163.516 21.0698 163.477 20.9135 163.477 20.8354C163.477 20.8041 163.492 20.726 163.523 20.601L163.992 20.2963V20.1791L163.148 19.8745C162.961 19.5463 162.828 19.3198 162.75 19.1948V18.8901C162.75 18.8745 162.727 18.8354 162.68 18.7729C162.586 18.6635 162.539 18.5385 162.539 18.3979C162.539 18.3198 162.547 18.226 162.562 18.1166L161.836 17.9057L161.789 18.2573C161.414 18.1479 161.172 18.0698 161.062 18.0229C160.656 17.8666 160.258 17.7416 159.867 17.6479C159.57 17.5854 159.312 17.4526 159.094 17.2495C158.828 17.3276 158.664 17.3666 158.602 17.3666L157.289 16.9448H155.484C155.312 16.9448 155.086 16.8354 154.805 16.6166C154.539 16.6948 154.039 16.7416 153.305 16.7573C152.82 16.8979 152.555 16.9682 152.508 16.9682C152.43 16.9682 152.078 16.8432 151.453 16.5932C151.422 16.5776 151.117 16.5151 150.539 16.4057C150.102 16.4057 149.438 16.6479 148.547 17.1323C148.266 17.2885 148 17.3666 147.75 17.3666C147.641 17.3666 147.57 17.3432 147.539 17.2963L146.742 16.1479L145.922 16.476C145.188 16.5229 144.766 16.5776 144.656 16.6401C144.391 16.812 144.227 17.0229 144.164 17.2729C144.148 17.3198 144.125 17.9213 144.094 19.0776C144.094 19.2182 143.984 19.5541 143.766 20.0854L143.438 19.9682L143.32 20.3432V20.3666C143.305 20.5229 143.375 20.6948 143.531 20.8823C143.938 21.3041 144.172 21.5776 144.234 21.7026C144.234 22.437 144.234 22.8823 144.234 23.0385C144.25 23.2104 144.258 23.3432 144.258 23.437C144.258 23.5463 144.211 23.6948 144.117 23.8823C144.008 24.0854 143.953 24.3432 143.953 24.6557L143.484 25.101C143.484 25.476 143.367 25.7963 143.133 26.062L143.203 26.1557ZM192.478 33.562L193.228 33.0932C193.462 33.3745 193.627 33.5541 193.72 33.6323C193.752 33.6635 193.916 33.7416 194.212 33.8666C194.369 33.9448 195.041 34.601 196.228 35.8354C196.603 36.226 196.861 36.5932 197.002 36.937C197.127 37.2338 197.259 37.5932 197.4 38.0151C197.494 38.2338 197.603 38.5151 197.728 38.8588L197.564 39.0229C197.392 38.9916 197.158 38.9213 196.861 38.812L195.97 39.1401L195.173 38.9995L194.47 39.187C193.502 38.4995 192.994 38.1557 192.947 38.1557C192.853 38.1557 192.486 38.476 191.845 39.1166C190.845 38.9291 190.314 38.8354 190.252 38.8354C190.002 38.8354 189.705 38.8588 189.361 38.9057L189.244 38.812C188.994 38.8432 188.314 38.8588 187.205 38.8588L186.337 38.9526L185.259 39.0463L184.158 39.2338L183.173 39.2104C182.267 39.4916 181.65 39.6557 181.322 39.7026C181.244 40.2338 181.166 40.601 181.087 40.8041C180.994 41.0385 180.806 41.2963 180.525 41.5776C181.025 41.9213 181.291 42.1635 181.322 42.3041C181.478 43.3041 181.627 43.976 181.767 44.3198L182.189 44.5541L182.072 45.4213L182.798 45.6088C182.955 46.2495 183.158 46.6791 183.408 46.8979C183.642 47.101 184.033 47.2416 184.58 47.3198C184.658 47.8041 184.783 48.0932 184.955 48.187C185.08 48.2807 185.361 48.3432 185.798 48.3745L186.197 48.9838C186.369 48.9526 186.517 48.937 186.642 48.937C186.736 48.937 187.205 49.1323 188.048 49.5229C188.236 49.6166 188.439 49.6635 188.658 49.6635C188.861 49.6635 189.259 49.5698 189.853 49.3823L191.353 49.2182L192.502 48.8901C193.048 48.8588 193.416 48.812 193.603 48.7495C193.869 48.6401 194.353 48.3666 195.056 47.9291C195.744 47.5073 196.142 47.2182 196.252 47.062C196.533 46.7338 196.798 46.3588 197.048 45.937C197.173 45.7495 197.392 45.6557 197.705 45.6557C197.845 45.6557 198.048 45.7573 198.314 45.9604C198.205 46.5229 198.103 46.8901 198.009 47.062C197.353 48.1713 196.939 48.9057 196.767 49.2651C196.564 49.1713 196.392 49.1245 196.252 49.1245C196.158 49.1245 195.9 49.2807 195.478 49.5932C195.197 49.7807 194.845 49.8901 194.423 49.9213C193.455 50.187 192.783 50.3432 192.408 50.3901C191.767 50.4526 191.361 50.5073 191.189 50.5541C190.705 50.7104 190.455 50.7885 190.439 50.7885L189.056 50.5776L188.236 50.7182L187.837 50.7416C187.462 50.7885 187.173 50.812 186.97 50.812C186.767 50.812 186.197 50.7573 185.259 50.6479C184.962 50.6166 184.814 50.601 184.814 50.601L184.322 50.2963C183.15 49.937 182.502 49.726 182.377 49.6635C182.298 49.6166 182.033 49.3823 181.58 48.9604C181.548 48.9291 181.275 48.7573 180.759 48.4448C180.322 48.1791 180.087 47.976 180.056 47.8354L179.634 47.0854C179.572 46.9604 179.306 46.6635 178.837 46.1948C178.994 45.9448 179.072 45.7573 179.072 45.6323C179.072 45.5854 178.869 45.1479 178.462 44.3198C178.353 44.101 178.298 43.437 178.298 42.3276C178.298 41.9838 178.408 41.4213 178.627 40.6401C178.814 40.0307 178.947 39.6791 179.025 39.5854L179.822 38.6479L180.337 37.5463C180.869 37.0463 181.478 36.4838 182.166 35.8588L183.877 34.8041L185.611 33.6088L186.244 33.4916L188.025 32.9291L189.173 32.8354C190.095 32.4916 190.603 32.3198 190.697 32.3198C191.572 32.3198 192.166 32.7338 192.478 33.562ZM189.759 37.0776L190.158 37.5698C190.47 37.5073 190.681 37.4682 190.791 37.4526C191.212 37.3901 191.634 37.2807 192.056 37.1245L193.392 37.2416C193.408 37.2416 193.447 37.1635 193.509 37.0073C193.525 36.9135 193.533 36.8354 193.533 36.7729C193.533 36.6323 193.439 36.4604 193.252 36.2573C193.22 36.226 193.142 36.1323 193.017 35.976C192.642 35.476 192.408 35.2416 192.314 35.2729L191.541 34.8979C191.447 34.851 191.298 34.6713 191.095 34.3588C190.642 34.2963 189.869 34.2651 188.775 34.2651L188.306 34.2416L187.509 34.7104C187.478 34.7416 187.048 34.851 186.22 35.0385C185.564 35.2729 184.986 35.4995 184.486 35.7182C184.377 35.7963 184.072 36.062 183.572 36.5151C183.478 36.5932 183.298 36.7338 183.033 36.937V37.0776L183.08 37.1245L184.791 37.8041L185.306 38.3198L186.22 37.2182C186.298 37.1557 186.384 37.1245 186.478 37.1245C186.525 37.1245 186.908 37.226 187.627 37.4291C187.642 37.4291 187.658 37.4291 187.673 37.4291C187.877 37.4291 188.322 37.351 189.009 37.1948C189.166 37.1479 189.416 37.1088 189.759 37.0776ZM205.542 41.2026C205.761 40.8588 206.113 40.1635 206.597 39.1166C206.909 38.4604 207.128 38.1166 207.253 38.0854C207.534 37.851 207.816 37.6088 208.097 37.3588L208.636 36.7495L209.409 36.0932L210.441 35.1088L211.027 34.7573L211.566 34.3588L212.081 34.1479L212.761 33.6323L214.003 33.187C214.769 32.9213 215.245 32.7729 215.433 32.7416C215.808 32.6948 216.136 32.6479 216.417 32.601C216.73 32.9135 216.956 33.0776 217.097 33.0932C217.113 33.0932 217.503 32.9838 218.269 32.7651C218.331 32.7495 218.386 32.7416 218.433 32.7416C218.448 32.7416 218.792 32.8276 219.464 32.9995C219.542 33.0151 219.675 33.0307 219.863 33.0463C220.144 33.062 220.347 33.0854 220.472 33.1166C221.206 32.8979 221.613 32.7885 221.691 32.7885C222.003 32.7885 222.292 32.8901 222.558 33.0932C222.48 33.4838 222.37 33.7416 222.23 33.8666C222.089 34.0073 221.831 34.1323 221.456 34.2416L221.316 34.8745C220.816 35.1088 220.488 35.2963 220.331 35.437C220.128 35.5776 219.988 35.6557 219.909 35.6713C219.909 35.6713 219.792 35.6557 219.558 35.6245C219.511 35.6245 219.48 35.6245 219.464 35.6245L218.62 35.6713H218.597L217.917 35.5776L217.355 35.5307C216.823 35.3588 216.378 35.2573 216.019 35.226C215.909 35.226 215.738 35.2182 215.503 35.2026C215.222 35.1713 214.988 35.1557 214.8 35.1557C214.675 35.1557 214.097 35.2495 213.066 35.437C212.519 35.4995 212.159 35.5698 211.988 35.6479C211.816 35.7573 211.48 36.062 210.98 36.562C210.855 36.7026 210.581 36.8041 210.159 36.8666C210.113 37.226 210.027 37.4604 209.902 37.5698C209.745 37.6948 209.464 37.7885 209.058 37.851C209.089 38.0229 209.105 38.1791 209.105 38.3198C209.105 38.3823 208.894 38.7182 208.472 39.3276C208.347 39.5151 208.284 40.4682 208.284 42.187C208.284 42.562 208.48 43.2573 208.87 44.2729C208.62 44.7104 208.488 45.0307 208.472 45.2338C208.566 45.312 208.831 45.4057 209.269 45.5151C209.956 46.3901 210.394 47.0307 210.581 47.437L211.144 47.5073C211.378 47.8198 211.534 48.0073 211.613 48.0698L212.503 48.6557L213.136 49.1245C213.73 49.3588 214.097 49.4916 214.238 49.5229C214.331 49.5541 214.691 49.5854 215.316 49.6166L216.183 49.8041L217.003 49.851L217.613 49.9213C217.925 49.8901 218.441 49.7104 219.159 49.3823L219.581 49.4995C219.784 49.3745 219.917 49.2885 219.98 49.2416C220.105 49.1791 220.402 48.9682 220.87 48.6088C221.277 48.562 221.636 48.3979 221.948 48.1166C222.183 47.8666 222.448 47.6557 222.745 47.4838C222.87 47.4057 223.003 47.2885 223.144 47.1323C223.519 46.6948 223.792 46.476 223.964 46.476C224.089 46.476 224.214 46.5541 224.339 46.7104C224.183 47.351 224.105 47.8901 224.105 48.3276C223.792 48.6245 223.534 48.937 223.331 49.2651C222.988 49.3745 222.519 49.6323 221.925 50.0385C221.675 50.0854 221.448 50.1791 221.245 50.3198C220.948 50.5229 220.698 50.6245 220.495 50.6245L219.698 50.5776H219.675C218.847 50.7495 218.355 50.8588 218.198 50.9057C218.152 50.9213 217.941 51.062 217.566 51.3276C217.488 51.3745 217.417 51.3979 217.355 51.3979L214.988 51.3745C214.894 51.3745 214.667 51.3979 214.308 51.4448C213.933 51.1948 213.581 51.0541 213.253 51.0229C212.816 50.976 212.183 50.8354 211.355 50.601L210.792 50.5307L210.136 50.3198C209.714 50.226 209.448 50.1635 209.339 50.1323C209.245 50.0854 209.128 49.9916 208.988 49.851C208.175 49.0541 207.769 48.5854 207.769 48.4448C207.769 48.3198 207.792 48.1713 207.839 47.9995C207.823 47.9526 207.816 47.9291 207.816 47.9291L207.019 48.0698C207.019 48.0698 207.003 48.0541 206.972 48.0229C206.691 47.4448 206.488 47.0776 206.363 46.9213C206.113 46.562 205.98 46.2729 205.964 46.0541C205.948 45.9604 205.917 45.6791 205.87 45.2104V45.1401L205.988 44.4838C205.55 44.1713 205.331 43.9526 205.331 43.8276C205.331 43.7807 205.698 43.5463 206.433 43.1245C206.839 42.8901 207.042 42.5385 207.042 42.0698C207.042 41.6166 206.542 41.3276 205.542 41.2026ZM230.841 34.8745C230.934 34.5932 231.083 34.3354 231.286 34.101C231.442 33.9291 231.848 33.687 232.505 33.3745C233.177 32.9526 233.559 32.7416 233.653 32.7416C233.934 32.7416 234.145 32.8432 234.286 33.0463L234.38 33.4448L234.567 34.1713C234.52 34.3432 234.497 34.476 234.497 34.5698C234.497 34.7104 234.583 34.8745 234.755 35.062C235.067 34.9682 235.489 34.7729 236.02 34.476L237.005 34.1479L237.989 33.4916L238.622 33.2338C238.966 33.062 239.153 32.976 239.184 32.976C239.184 32.976 239.356 33.0073 239.7 33.0698C239.731 33.0698 239.755 33.0698 239.77 33.0698C239.848 33.0698 240.38 32.9057 241.364 32.5776C241.473 32.5463 241.708 32.5307 242.067 32.5307C242.333 32.5307 242.52 32.5698 242.63 32.6479C242.645 32.6635 242.809 32.8198 243.122 33.1166C243.309 33.1635 243.419 33.187 243.45 33.187C243.481 33.187 243.708 33.0776 244.13 32.8588C244.161 32.8432 244.2 32.8354 244.247 32.8354C244.45 32.8354 244.684 32.9526 244.95 33.187C245.2 33.4057 245.38 33.7416 245.489 34.1948C245.255 34.4291 244.786 34.7963 244.083 35.2963C243.739 35.7338 243.489 35.9526 243.333 35.9526C243.083 35.9526 242.755 35.7026 242.348 35.2026C242.067 35.2338 241.833 35.2495 241.645 35.2495C241.442 35.2495 241.106 35.1557 240.637 34.9682C240.262 34.8276 239.88 34.7338 239.489 34.687C239.333 34.9995 239.075 35.1713 238.716 35.2026C238.278 35.2338 238.005 35.2651 237.895 35.2963C237.27 35.4838 236.958 35.5776 236.958 35.5776C236.895 35.5776 236.77 35.5229 236.583 35.4135C236.27 35.6948 235.723 36.1166 234.942 36.6791C234.442 37.0385 234.2 37.6713 234.216 38.5776V38.6479C234.216 38.8354 234.216 39.0854 234.216 39.3979C234.231 39.6791 234.239 39.9135 234.239 40.101C234.239 40.2729 234.059 40.5307 233.7 40.8745C233.966 41.1557 234.098 41.3979 234.098 41.601C234.098 41.7104 234.083 41.8432 234.052 41.9995L234.403 42.0932L234.473 42.7963L234.591 46.9916L234.497 47.2495L233.887 47.5776C233.012 47.7495 232.575 47.8666 232.575 47.9291C232.575 47.9916 233.067 48.0932 234.052 48.2338L234.45 48.1401C234.606 48.6557 234.684 49.0073 234.684 49.1948C234.684 49.5541 234.505 49.8354 234.145 50.0385C234.005 50.1166 233.606 50.1948 232.95 50.2729C232.825 50.3041 232.489 50.4995 231.942 50.8588C231.848 50.9213 231.739 50.9526 231.614 50.9526C231.239 50.9526 231.052 50.7885 231.052 50.4604C231.052 50.3666 231.169 49.9213 231.403 49.1245C231.434 49.0307 231.45 48.937 231.45 48.8432C231.45 48.812 231.411 48.4604 231.333 47.7885C231.333 47.7416 231.364 47.6088 231.427 47.3901L231.989 47.226C232.005 47.0854 232.012 46.9604 232.012 46.851C232.012 46.6479 231.895 46.4057 231.661 46.1245C231.661 45.9057 231.661 45.7104 231.661 45.5385C231.661 45.3979 231.614 45.0307 231.52 44.437C231.567 43.9213 231.591 43.4838 231.591 43.1245C232.169 42.9213 232.458 42.6713 232.458 42.3745C232.458 42.2807 232.434 42.1557 232.387 41.9995C232.2 42.0463 232.044 42.0698 231.919 42.0698C231.809 42.0698 231.677 42.0073 231.52 41.8823C231.52 41.5698 231.52 41.226 231.52 40.851V40.3588V39.726V39.5385C231.52 39.4135 231.512 39.2729 231.497 39.1166C231.497 38.9604 231.497 38.8354 231.497 38.7416C231.497 38.4916 231.598 38.1557 231.802 37.7338C231.598 37.562 231.481 37.4135 231.45 37.2885C231.434 37.2416 231.403 36.7338 231.356 35.7651C231.341 35.5776 231.169 35.2807 230.841 34.8745ZM253.538 40.8745L252.834 41.2729C252.928 41.6791 252.991 41.9448 253.022 42.0698C253.053 42.226 253.069 42.3276 253.069 42.3745C253.069 42.4682 253.03 42.6713 252.952 42.9838C252.873 43.3432 252.834 43.9526 252.834 44.812C252.834 44.937 252.936 45.2104 253.139 45.6323L253.069 46.4057L253.139 47.3198C253.186 48.1323 253.467 48.7026 253.983 49.0307C254.186 49.1557 254.975 49.4213 256.35 49.8276C256.897 49.9838 257.311 50.062 257.592 50.062C258.405 50.062 258.92 49.9526 259.139 49.7338L260.1 48.8198C260.163 48.7416 260.358 48.6323 260.686 48.4916C260.952 48.7104 261.186 48.8198 261.389 48.8198C261.483 48.8198 261.584 48.812 261.694 48.7963C261.85 48.4682 261.983 48.2495 262.092 48.1401C262.123 48.1088 262.342 47.976 262.748 47.7416C262.811 47.6791 263.1 47.2573 263.616 46.476C264.084 46.0854 264.327 45.8745 264.342 45.8432C264.405 45.7495 264.53 45.437 264.717 44.9057C264.858 44.4995 264.936 44.1713 264.952 43.9213C264.952 43.9213 264.952 43.9057 264.952 43.8745C264.92 43.5463 264.905 43.3198 264.905 43.1948V43.1479C264.905 43.0541 264.967 42.7807 265.092 42.3276L264.717 42.1166L264.577 41.7885V38.3901C264.577 38.0307 264.498 37.4057 264.342 36.5151C264.342 36.4838 264.342 36.4448 264.342 36.3979C264.342 36.1948 264.498 35.9448 264.811 35.6479C264.764 35.4604 264.702 35.351 264.623 35.3198L264.319 35.2026C264.272 35.1713 264.248 34.9526 264.248 34.5463C264.248 34.4995 264.264 34.3979 264.295 34.2416C264.358 33.9604 264.405 33.6791 264.436 33.3979C264.702 33.4916 264.881 33.5385 264.975 33.5385C265.131 33.5385 265.592 33.3745 266.358 33.0463C266.561 32.9526 266.873 32.851 267.295 32.7416C267.561 33.5229 267.686 34.0307 267.67 34.2651L267.506 36.9135V38.4604C267.381 39.6479 267.28 40.3823 267.202 40.6635L266.733 40.4995C266.577 40.8432 266.498 41.0932 266.498 41.2495C266.498 41.3432 266.506 41.4604 266.522 41.601L267.272 41.5307C267.319 41.812 267.342 42.0229 267.342 42.1635L267.319 42.7729V43.0073V43.7573V44.1088C267.319 44.6713 267.248 45.2495 267.108 45.8432C267.327 46.0776 267.459 46.2416 267.506 46.3354C267.538 46.4604 267.569 46.851 267.6 47.5073C267.616 47.9135 267.709 48.2416 267.881 48.4916C267.991 48.6323 268.209 48.7807 268.538 48.937C268.444 49.1713 268.319 49.351 268.163 49.476C268.084 49.5229 267.663 49.7026 266.897 50.0151C266.178 50.437 265.748 50.6479 265.608 50.6479C265.452 50.6479 265.303 50.562 265.163 50.3901C264.959 50.1245 264.858 49.7807 264.858 49.3588C264.858 49.1713 264.866 48.937 264.881 48.6557C264.584 48.5932 264.327 48.562 264.108 48.562C263.998 48.562 263.889 48.5854 263.78 48.6323C263.748 48.6479 263.545 48.8354 263.17 49.1948L262.702 49.4057L261.928 49.851L261.202 50.1088C260.217 50.5932 259.17 50.8588 258.061 50.9057C257.514 51.062 257.186 51.1401 257.077 51.1401C256.983 51.1401 256.678 51.0385 256.163 50.8354C256.116 50.8198 256.069 50.812 256.022 50.812C255.881 50.812 255.6 50.9213 255.178 51.1401L254.498 50.3198C254.467 50.3041 254.452 50.2963 254.452 50.2963C254.42 50.2963 254.092 50.3979 253.467 50.601C253.358 50.6323 253.248 50.6479 253.139 50.6479C252.92 50.6479 252.444 50.4448 251.709 50.0385C251.381 49.851 251.1 49.562 250.866 49.1713C250.538 48.5776 250.373 48.0385 250.373 47.5541C250.373 47.3979 250.483 47.1791 250.702 46.8979L250.186 46.6635V43.9916C250.498 43.6791 250.655 43.4213 250.655 43.2182C250.655 43.1557 250.538 42.8979 250.303 42.4448V40.8276L250.233 39.6791C250.248 39.4916 250.381 39.2729 250.631 39.0229V38.6948L250.045 38.8823C250.139 37.9916 250.186 37.3432 250.186 36.937C250.186 36.687 250.178 36.4526 250.163 36.2338L250.116 35.7182C250.1 35.2807 250.069 35.0151 250.022 34.9213C249.85 34.4838 249.764 34.2651 249.764 34.2651C249.795 34.1088 250.03 33.9604 250.467 33.8198C250.748 33.726 251.28 33.5385 252.061 33.2573L252.272 33.187C252.569 32.9838 252.764 32.8823 252.858 32.8823C253.03 32.8823 253.17 32.937 253.28 33.0463C253.342 33.1245 253.459 33.4291 253.631 33.9604C253.631 33.9916 253.569 34.1713 253.444 34.4995C253.319 34.8588 253.256 35.4682 253.256 36.3276C253.256 36.4838 253.303 36.8354 253.397 37.3823C253.131 38.2885 252.998 38.8354 252.998 39.0229C252.998 39.4916 253.178 40.1088 253.538 40.8745ZM276.938 34.851C276.938 34.6323 277.172 34.3354 277.641 33.9604C278.672 33.1635 279.562 32.6401 280.312 32.3901L281.016 33.1166C280.859 33.5073 280.734 34.0541 280.641 34.7573C280.547 35.3354 280.5 35.687 280.5 35.812V36.6791L280.102 37.2416C280.102 37.6323 280.273 38.0073 280.617 38.3666C280.523 38.5385 280.477 38.6401 280.477 38.6713L280.523 39.8198C280.523 39.8198 280.516 39.9057 280.5 40.0776C280.484 40.187 280.477 40.3666 280.477 40.6166L280.359 45.0932C280.375 45.3276 280.477 45.8666 280.664 46.7104L280.711 47.6948C280.805 48.1635 280.852 48.437 280.852 48.5151C280.852 48.8432 280.711 49.1401 280.43 49.4057C280.352 49.4838 280.055 49.687 279.539 50.0151C278.758 50.6245 278.312 50.9526 278.203 50.9995C278.047 51.062 277.906 51.0932 277.781 51.0932C277.594 51.0932 277.406 50.9995 277.219 50.812C277.281 50.4213 277.32 50.1635 277.336 50.0385C277.352 49.851 277.438 49.5073 277.594 49.0073L277.617 47.8588L277.781 45.562L277.758 45.1401C277.773 44.8901 277.898 44.7651 278.133 44.7651C278.195 44.7651 278.273 44.7729 278.367 44.7885C278.445 44.5385 278.484 44.3666 278.484 44.2729C278.484 44.1479 278.438 43.9057 278.344 43.5463C278.297 43.3901 278.25 43.1713 278.203 42.8901L277.805 42.5854C277.852 42.2416 277.875 41.9838 277.875 41.812C277.875 41.7338 277.867 41.6166 277.852 41.4604C277.852 41.3354 277.852 41.226 277.852 41.1323C277.852 40.9291 277.93 40.7026 278.086 40.4526C277.93 40.2651 277.852 40.0698 277.852 39.8666V39.6791V39.5151L277.805 38.976C278.82 38.7885 279.328 38.6245 279.328 38.4838C279.328 38.4682 279.312 38.4448 279.281 38.4135C279.047 38.2104 278.758 38.1088 278.414 38.1088C278.164 38.1088 277.859 38.1245 277.5 38.1557C277.547 37.9213 277.57 37.7651 277.57 37.687C277.57 37.6557 277.508 36.8823 277.383 35.3666C277.367 35.1791 277.219 35.0073 276.938 34.851ZM277.359 25.4057V25.3823C277.328 24.8354 277.727 24.2416 278.555 23.601C278.742 23.4604 278.945 23.2573 279.164 22.9916C279.18 22.976 279.336 22.851 279.633 22.6166C280.211 21.7573 280.57 21.2807 280.711 21.187C280.945 21.0151 281.141 20.9291 281.297 20.9291C281.359 20.9291 281.539 21.0463 281.836 21.2807C282.133 21.4995 282.281 21.7651 282.281 22.0776C282.281 22.3276 282.141 22.5463 281.859 22.7338C281.141 23.2495 280.453 23.812 279.797 24.4213L279.141 24.8432L278.32 25.4057C277.883 25.6401 277.633 25.7573 277.57 25.7573C277.43 25.7573 277.359 25.6401 277.359 25.4057ZM288.642 34.3588C288.767 33.7495 288.978 33.4448 289.275 33.4448H289.298L290.447 33.5151H290.494C291.369 33.3901 291.869 33.3198 291.994 33.3041C291.994 33.0229 291.994 32.8354 291.994 32.7416C291.994 31.2729 291.962 30.0698 291.9 29.1323C291.869 28.726 291.775 28.3588 291.619 28.0307L291.384 27.5385C291.322 27.4135 291.291 27.2807 291.291 27.1401C291.291 26.9057 291.478 26.6245 291.853 26.2963C292.431 25.7651 293.166 25.4135 294.056 25.2416C294.259 24.8198 294.478 24.6088 294.712 24.6088C294.806 24.6088 294.884 24.6479 294.947 24.726C295.166 24.9604 295.275 25.2651 295.275 25.6401C295.275 25.6557 295.205 26.8901 295.064 29.3432C294.877 29.9838 294.759 30.3588 294.712 30.4682C294.65 30.687 294.47 30.9135 294.173 31.1479C294.173 31.4604 294.22 31.7651 294.314 32.062H294.853L294.712 33.2573C295.103 33.2885 295.916 33.476 297.15 33.8198C297.228 33.8354 297.494 33.8432 297.947 33.8432C298.228 33.8432 298.689 33.7495 299.33 33.562L300.877 33.4213C301.673 33.1088 302.142 32.9526 302.283 32.9526C302.486 32.9526 302.736 32.976 303.033 33.0229C303.002 33.4604 302.955 33.7729 302.892 33.9604C302.83 34.1948 302.337 34.5932 301.416 35.1557C301.197 35.2807 301.041 35.3979 300.947 35.5073C300.712 35.7885 300.587 35.9291 300.572 35.9291C300.494 35.9916 300.306 36.0229 300.009 36.0229C299.775 36.0229 299.603 35.9916 299.494 35.9291L298.533 35.4135L297.947 35.2729L297.244 34.7573L296.048 35.6713L295.017 35.5307C294.939 35.5307 294.783 35.6088 294.548 35.7651C294.673 36.5151 294.736 37.1479 294.736 37.6635C294.736 37.9135 294.728 38.2807 294.712 38.7651C294.134 38.8588 293.845 39.0932 293.845 39.4682C293.845 39.6088 293.877 39.7807 293.939 39.9838C294.283 40.0151 294.572 40.062 294.806 40.1245L294.759 43.0541C294.525 42.9916 294.33 42.9604 294.173 42.9604C293.892 42.9604 293.752 43.0776 293.752 43.312C293.752 43.4995 293.822 43.726 293.962 43.9916C294.181 43.851 294.369 43.7807 294.525 43.7807C294.759 43.7807 294.877 43.9291 294.877 44.226L294.806 45.1635V45.2104C294.837 45.851 294.861 46.312 294.877 46.5932C294.908 46.8901 295.002 47.187 295.158 47.4838L295.439 47.976C295.47 48.0385 295.486 48.1323 295.486 48.2573C295.486 48.3979 295.47 48.5776 295.439 48.7963C295.923 49.0776 296.462 49.2182 297.056 49.2182C297.556 49.2182 298.056 49.0932 298.556 48.8432C298.962 48.6245 299.181 48.4995 299.212 48.4682L300.502 47.2963C301.142 46.7651 301.533 46.4995 301.673 46.4995C301.814 46.4995 302.009 46.5698 302.259 46.7104C302.212 47.0073 302.181 47.2104 302.166 47.3198C302.056 48.1323 301.947 48.6088 301.837 48.7495C301.728 48.8745 301.252 49.0698 300.408 49.3354C299.767 49.6635 298.798 50.0463 297.502 50.4838L296.705 50.7416C296.173 51.0385 295.869 51.187 295.791 51.187C295.65 51.187 295.494 51.0463 295.322 50.7651L294.9 50.6479L294.642 51.2338C294.423 51.2651 294.236 51.2807 294.08 51.2807C293.673 51.2807 293.189 51.0151 292.627 50.4838C292.377 50.2338 292.173 49.976 292.017 49.7104C292.002 49.6948 291.939 49.4916 291.83 49.101C291.658 48.5854 291.572 48.2885 291.572 48.2104C291.572 48.0698 291.587 47.8432 291.619 47.5307C291.65 47.2807 291.666 46.7573 291.666 45.9604C291.681 45.4448 291.822 45.0541 292.087 44.7885C291.994 44.4916 291.947 44.1323 291.947 43.7104C291.869 42.9916 291.822 41.6245 291.806 39.6088C292.181 39.3745 292.369 39.1479 292.369 38.9291C292.369 38.8041 292.353 38.6557 292.322 38.4838L291.642 38.3198L291.595 38.1088V38.0854C291.595 38.0073 291.619 37.8432 291.666 37.5932C291.759 37.187 291.806 36.4838 291.806 35.4838C291.166 35.3432 290.697 35.2729 290.4 35.2729C290.306 35.2729 289.9 35.3198 289.181 35.4135L288.689 35.4604C288.252 35.601 288.017 35.6713 287.986 35.6713C287.767 35.6713 287.658 35.5698 287.658 35.3666C287.658 35.0541 287.986 34.7182 288.642 34.3588ZM322.237 33.562L322.987 33.0932C323.222 33.3745 323.386 33.5541 323.48 33.6323C323.511 33.6635 323.675 33.7416 323.972 33.8666C324.128 33.9448 324.8 34.601 325.987 35.8354C326.362 36.226 326.62 36.5932 326.761 36.937C326.886 37.2338 327.019 37.5932 327.159 38.0151C327.253 38.2338 327.362 38.5151 327.487 38.8588L327.323 39.0229C327.152 38.9916 326.917 38.9213 326.62 38.812L325.73 39.1401L324.933 38.9995L324.23 39.187C323.261 38.4995 322.753 38.1557 322.706 38.1557C322.612 38.1557 322.245 38.476 321.605 39.1166C320.605 38.9291 320.073 38.8354 320.011 38.8354C319.761 38.8354 319.464 38.8588 319.12 38.9057L319.003 38.812C318.753 38.8432 318.073 38.8588 316.964 38.8588L316.097 38.9526L315.019 39.0463L313.917 39.2338L312.933 39.2104C312.027 39.4916 311.409 39.6557 311.081 39.7026C311.003 40.2338 310.925 40.601 310.847 40.8041C310.753 41.0385 310.566 41.2963 310.284 41.5776C310.784 41.9213 311.05 42.1635 311.081 42.3041C311.237 43.3041 311.386 43.976 311.527 44.3198L311.948 44.5541L311.831 45.4213L312.558 45.6088C312.714 46.2495 312.917 46.6791 313.167 46.8979C313.402 47.101 313.792 47.2416 314.339 47.3198C314.417 47.8041 314.542 48.0932 314.714 48.187C314.839 48.2807 315.12 48.3432 315.558 48.3745L315.956 48.9838C316.128 48.9526 316.277 48.937 316.402 48.937C316.495 48.937 316.964 49.1323 317.808 49.5229C317.995 49.6166 318.198 49.6635 318.417 49.6635C318.62 49.6635 319.019 49.5698 319.612 49.3823L321.112 49.2182L322.261 48.8901C322.808 48.8588 323.175 48.812 323.362 48.7495C323.628 48.6401 324.112 48.3666 324.816 47.9291C325.503 47.5073 325.902 47.2182 326.011 47.062C326.292 46.7338 326.558 46.3588 326.808 45.937C326.933 45.7495 327.152 45.6557 327.464 45.6557C327.605 45.6557 327.808 45.7573 328.073 45.9604C327.964 46.5229 327.862 46.8901 327.769 47.062C327.112 48.1713 326.698 48.9057 326.527 49.2651C326.323 49.1713 326.152 49.1245 326.011 49.1245C325.917 49.1245 325.659 49.2807 325.237 49.5932C324.956 49.7807 324.605 49.8901 324.183 49.9213C323.214 50.187 322.542 50.3432 322.167 50.3901C321.527 50.4526 321.12 50.5073 320.948 50.5541C320.464 50.7104 320.214 50.7885 320.198 50.7885L318.816 50.5776L317.995 50.7182L317.597 50.7416C317.222 50.7885 316.933 50.812 316.73 50.812C316.527 50.812 315.956 50.7573 315.019 50.6479C314.722 50.6166 314.573 50.601 314.573 50.601L314.081 50.2963C312.909 49.937 312.261 49.726 312.136 49.6635C312.058 49.6166 311.792 49.3823 311.339 48.9604C311.308 48.9291 311.034 48.7573 310.519 48.4448C310.081 48.1791 309.847 47.976 309.816 47.8354L309.394 47.0854C309.331 46.9604 309.066 46.6635 308.597 46.1948C308.753 45.9448 308.831 45.7573 308.831 45.6323C308.831 45.5854 308.628 45.1479 308.222 44.3198C308.112 44.101 308.058 43.437 308.058 42.3276C308.058 41.9838 308.167 41.4213 308.386 40.6401C308.573 40.0307 308.706 39.6791 308.784 39.5854L309.581 38.6479L310.097 37.5463C310.628 37.0463 311.237 36.4838 311.925 35.8588L313.636 34.8041L315.37 33.6088L316.003 33.4916L317.784 32.9291L318.933 32.8354C319.855 32.4916 320.362 32.3198 320.456 32.3198C321.331 32.3198 321.925 32.7338 322.237 33.562ZM319.519 37.0776L319.917 37.5698C320.23 37.5073 320.441 37.4682 320.55 37.4526C320.972 37.3901 321.394 37.2807 321.816 37.1245L323.152 37.2416C323.167 37.2416 323.206 37.1635 323.269 37.0073C323.284 36.9135 323.292 36.8354 323.292 36.7729C323.292 36.6323 323.198 36.4604 323.011 36.2573C322.98 36.226 322.902 36.1323 322.777 35.976C322.402 35.476 322.167 35.2416 322.073 35.2729L321.3 34.8979C321.206 34.851 321.058 34.6713 320.855 34.3588C320.402 34.2963 319.628 34.2651 318.534 34.2651L318.066 34.2416L317.269 34.7104C317.237 34.7416 316.808 34.851 315.98 35.0385C315.323 35.2729 314.745 35.4995 314.245 35.7182C314.136 35.7963 313.831 36.062 313.331 36.5151C313.237 36.5932 313.058 36.7338 312.792 36.937V37.0776L312.839 37.1245L314.55 37.8041L315.066 38.3198L315.98 37.2182C316.058 37.1557 316.144 37.1245 316.237 37.1245C316.284 37.1245 316.667 37.226 317.386 37.4291C317.402 37.4291 317.417 37.4291 317.433 37.4291C317.636 37.4291 318.081 37.351 318.769 37.1948C318.925 37.1479 319.175 37.1088 319.519 37.0776ZM335.794 34.8745C335.888 34.5932 336.036 34.3354 336.239 34.101C336.395 33.9291 336.802 33.687 337.458 33.3745C338.13 32.9526 338.513 32.7416 338.606 32.7416C338.888 32.7416 339.098 32.8432 339.239 33.0463L339.333 33.4448L339.52 34.1713C339.473 34.3432 339.45 34.476 339.45 34.5698C339.45 34.7104 339.536 34.8745 339.708 35.062C340.02 34.9682 340.442 34.7729 340.973 34.476L341.958 34.1479L342.942 33.4916L343.575 33.2338C343.919 33.062 344.106 32.976 344.138 32.976C344.138 32.976 344.309 33.0073 344.653 33.0698C344.684 33.0698 344.708 33.0698 344.723 33.0698C344.802 33.0698 345.333 32.9057 346.317 32.5776C346.427 32.5463 346.661 32.5307 347.02 32.5307C347.286 32.5307 347.473 32.5698 347.583 32.6479C347.598 32.6635 347.763 32.8198 348.075 33.1166C348.263 33.1635 348.372 33.187 348.403 33.187C348.434 33.187 348.661 33.0776 349.083 32.8588C349.114 32.8432 349.153 32.8354 349.2 32.8354C349.403 32.8354 349.638 32.9526 349.903 33.187C350.153 33.4057 350.333 33.7416 350.442 34.1948C350.208 34.4291 349.739 34.7963 349.036 35.2963C348.692 35.7338 348.442 35.9526 348.286 35.9526C348.036 35.9526 347.708 35.7026 347.302 35.2026C347.02 35.2338 346.786 35.2495 346.598 35.2495C346.395 35.2495 346.059 35.1557 345.591 34.9682C345.216 34.8276 344.833 34.7338 344.442 34.687C344.286 34.9995 344.028 35.1713 343.669 35.2026C343.231 35.2338 342.958 35.2651 342.848 35.2963C342.223 35.4838 341.911 35.5776 341.911 35.5776C341.848 35.5776 341.723 35.5229 341.536 35.4135C341.223 35.6948 340.677 36.1166 339.895 36.6791C339.395 37.0385 339.153 37.6713 339.169 38.5776V38.6479C339.169 38.8354 339.169 39.0854 339.169 39.3979C339.184 39.6791 339.192 39.9135 339.192 40.101C339.192 40.2729 339.013 40.5307 338.653 40.8745C338.919 41.1557 339.052 41.3979 339.052 41.601C339.052 41.7104 339.036 41.8432 339.005 41.9995L339.356 42.0932L339.427 42.7963L339.544 46.9916L339.45 47.2495L338.841 47.5776C337.966 47.7495 337.528 47.8666 337.528 47.9291C337.528 47.9916 338.02 48.0932 339.005 48.2338L339.403 48.1401C339.559 48.6557 339.638 49.0073 339.638 49.1948C339.638 49.5541 339.458 49.8354 339.098 50.0385C338.958 50.1166 338.559 50.1948 337.903 50.2729C337.778 50.3041 337.442 50.4995 336.895 50.8588C336.802 50.9213 336.692 50.9526 336.567 50.9526C336.192 50.9526 336.005 50.7885 336.005 50.4604C336.005 50.3666 336.122 49.9213 336.356 49.1245C336.388 49.0307 336.403 48.937 336.403 48.8432C336.403 48.812 336.364 48.4604 336.286 47.7885C336.286 47.7416 336.317 47.6088 336.38 47.3901L336.942 47.226C336.958 47.0854 336.966 46.9604 336.966 46.851C336.966 46.6479 336.848 46.4057 336.614 46.1245C336.614 45.9057 336.614 45.7104 336.614 45.5385C336.614 45.3979 336.567 45.0307 336.473 44.437C336.52 43.9213 336.544 43.4838 336.544 43.1245C337.122 42.9213 337.411 42.6713 337.411 42.3745C337.411 42.2807 337.388 42.1557 337.341 41.9995C337.153 42.0463 336.997 42.0698 336.872 42.0698C336.763 42.0698 336.63 42.0073 336.473 41.8823C336.473 41.5698 336.473 41.226 336.473 40.851V40.3588V39.726V39.5385C336.473 39.4135 336.466 39.2729 336.45 39.1166C336.45 38.9604 336.45 38.8354 336.45 38.7416C336.45 38.4916 336.552 38.1557 336.755 37.7338C336.552 37.562 336.434 37.4135 336.403 37.2885C336.388 37.2416 336.356 36.7338 336.309 35.7651C336.294 35.5776 336.122 35.2807 335.794 34.8745Z" fill="url(#paint1_linear_529_214)"/>
<path d="M74.2161 31.1466C74.2029 30.9028 74.4011 30.7706 74.8108 30.7499C74.9083 30.745 75.0359 30.7533 75.1935 30.7746C75.538 30.8159 75.7447 30.8398 75.8135 30.8461C76.0979 30.8611 76.3008 30.9046 76.422 30.9767C76.5124 31.0211 76.6957 31.1536 76.9717 31.3744L76.9756 31.4475C76.8367 31.5914 76.7693 31.7023 76.7736 31.7804C76.7757 31.8194 76.8135 31.8859 76.8871 31.98L77.2034 31.8614L77.2651 31.9169L77.237 32.2117C77.4168 32.2808 77.5172 32.3295 77.5383 32.3578L77.9721 33.0546L78.7356 33.8815C79.1569 34.4372 79.4402 34.7944 79.5858 34.9533C79.5895 35.0216 79.5926 35.0801 79.5953 35.1288C79.6137 35.4701 79.8474 35.7224 80.2963 35.8855L80.7337 36.3768C81.1362 36.7672 81.4059 37.0518 81.5427 37.2307C81.8055 37.5695 81.996 37.9266 82.1141 38.3019L82.4505 38.285L82.4929 38.2535L83.3272 39.0328L83.3565 39.574C83.604 39.63 83.7719 39.6606 83.8602 39.6659C84.0666 39.6849 84.1732 39.7577 84.1801 39.8845C84.1854 39.982 84.1394 40.1261 84.0421 40.3168C84.4022 40.4649 84.6477 40.5747 84.7787 40.6463C84.8394 40.6824 85.0211 40.8786 85.324 41.2349C85.745 41.6048 86.082 41.9593 86.3351 42.2986C86.3984 42.3834 86.45 42.4346 86.4901 42.4521C86.7028 42.588 86.8092 42.656 86.8092 42.656L86.808 42.9054L86.9484 43.0597L87.0903 43.2432C87.394 43.4332 87.5716 43.5514 87.623 43.5977C87.6538 43.6255 87.8821 43.8682 88.3078 44.3258L88.8677 44.9136C88.9394 45.1545 88.991 45.2936 89.0223 45.3312C89.0861 45.4257 89.2559 45.4905 89.5316 45.5255C89.9313 46.0432 90.7193 46.7808 91.8958 47.7384L91.9603 48.1165L92.1975 48.1632L93.7183 49.6999C93.7394 49.7282 93.8833 49.8578 94.1501 50.0888C94.5207 50.4319 94.8198 50.8079 95.0473 51.2169L95.4976 51.1355C95.7892 51.4631 96.1436 51.7777 96.5609 52.0793L96.7938 52.3169C97.0384 52.5001 97.2602 52.7138 97.4593 52.958C97.3557 53.0317 97.2117 53.083 97.0275 53.1118C96.7555 53.1451 96.5712 53.1739 96.4747 53.1983C96.3972 53.212 96.3341 53.2201 96.2853 53.2225C96.2463 53.2245 96.1228 53.2014 95.9148 53.1532C95.7264 53.1041 95.5389 53.0744 95.3526 53.0642C95.2126 52.8268 95.0178 52.6607 94.7681 52.5657C94.6585 52.3463 94.4579 52.0729 94.1663 51.7453L94.0172 51.4302C93.8172 51.1665 93.6726 50.9342 93.5835 50.7334L93.2371 50.8388C93.1512 50.6965 92.9799 50.5144 92.7235 50.2927C92.5487 50.1353 92.4086 49.9859 92.3031 49.8446C92.1139 49.5999 91.9064 49.3805 91.6807 49.1866C90.9774 48.4789 90.6245 48.1007 90.6218 48.0519C90.6176 47.9739 90.6226 47.8857 90.6368 47.7872C90.4099 47.7497 90.2612 47.7132 90.1908 47.6777C90.0527 47.6553 89.78 47.405 89.3727 46.9269C89.2997 46.8426 89.0506 46.5764 88.6254 46.1285C88.501 45.9979 88.4364 45.8887 88.4316 45.801C88.4311 45.7912 88.4434 45.7466 88.4684 45.6671C88.4858 45.6271 88.4975 45.5727 88.5036 45.504C88.3612 45.4036 88.2259 45.342 88.0975 45.3191C87.9204 45.2987 87.7806 45.2471 87.6784 45.1643L87.7171 44.7956C87.5856 44.7143 87.4995 44.6599 87.4589 44.6326C87.3263 44.5318 87.2259 44.483 87.1576 44.4865C87.0698 44.4909 86.9685 44.5156 86.8535 44.5605C86.7607 44.2914 86.5323 43.9558 86.1683 43.5537C86.0644 43.4416 85.7606 43.1587 85.2568 42.7049C85.0826 42.5573 84.8559 42.3438 84.5767 42.0645C84.6782 41.9519 84.7274 41.8663 84.7242 41.8078C84.7184 41.7005 84.6538 41.5913 84.5305 41.4802C84.4482 41.4061 84.3778 41.3706 84.3193 41.3735L84.0623 41.5038C83.8788 41.3664 83.7826 41.2148 83.7736 41.049C83.77 40.9807 83.7657 40.9027 83.761 40.815C83.4149 40.7444 83.1812 40.6731 83.0599 40.601C82.989 40.5557 82.8998 40.4428 82.7922 40.2625C82.6095 39.9588 82.446 39.7372 82.3015 39.5978L81.498 38.8463L81.0307 38.3419L80.3723 37.8324C80.3409 37.7949 80.2609 37.6718 80.1323 37.4632C80.0253 37.2925 79.7561 37.0177 79.3248 36.6385L77.7029 34.8576C77.106 34.3108 76.75 33.9669 76.6348 33.8261C76.3206 33.441 76.0513 33.0732 75.827 32.7228L75.1168 32.0692C74.7117 31.6301 74.4114 31.3225 74.2161 31.1466Z" fill="url(#paint2_linear_529_214)"/>
<path d="M74.0727 53.1965C74.3225 52.9213 74.5821 52.6463 74.8514 52.3718C74.8912 52.334 75.1147 52.1507 75.5219 51.822C75.6508 51.7284 75.7908 51.5669 75.942 51.3373L76.4094 51.4111C76.601 51.1144 76.7371 50.9088 76.8175 50.7942C76.8781 50.6984 77.1473 50.4287 77.6252 49.985L78.0002 49.5575C78.4094 49.1312 78.714 48.804 78.914 48.576C79.0439 48.4337 79.2221 48.3173 79.4486 48.227L79.4566 47.8315C79.6549 47.6914 80.0576 47.3381 80.665 46.7716L81.1876 46.2903C81.5273 45.9203 81.7219 45.7165 81.7715 45.6791C82.0878 45.4939 82.251 45.3966 82.261 45.3872C82.3012 45.3299 82.3333 45.1941 82.3572 44.98C82.815 44.5649 83.2244 44.1239 83.5856 43.6569C83.6559 43.5615 83.7696 43.4968 83.9265 43.4628C83.9463 43.4537 84.0964 43.2778 84.3768 42.9352L84.3512 42.7585C84.5693 42.5994 84.7987 42.3675 85.0393 42.0627C85.1899 41.8624 85.4546 41.5779 85.8333 41.2091C86.1335 40.8574 86.3133 40.6629 86.3726 40.6258C86.6881 40.4797 86.9299 40.3605 87.0978 40.2683L86.9275 39.999L87.0659 39.681C87.3983 39.6625 87.5994 39.6202 87.6691 39.5541C87.7287 39.5071 87.7597 39.4251 87.7621 39.3079C87.7641 39.2103 87.7566 39.0977 87.7397 38.9701C87.8891 38.8284 87.9887 38.734 88.0385 38.6867C88.2574 38.4887 88.4023 38.3273 88.4733 38.2026L88.8671 38.2886C89.0615 37.8553 89.2296 37.5139 89.3715 37.2645C89.4824 37.0922 89.7673 36.7742 90.2261 36.3103C90.2859 36.2536 90.4208 36.1017 90.631 35.8545C90.6712 35.7972 90.7597 35.7707 90.8963 35.7752C90.9453 35.767 91 35.7199 91.0604 35.6339C91.2315 35.3855 91.3186 35.1831 91.3218 35.0269C91.3226 34.9878 91.3237 34.9341 91.3251 34.8658C91.4751 34.6948 91.7611 34.323 92.183 33.7505C92.6227 33.2665 92.8882 32.9381 92.9797 32.7652C93.102 32.5151 93.2037 32.3181 93.2848 32.1742L93.4458 32.1794L93.5949 32.0524L93.6012 31.7448L93.9212 31.8578C93.9907 31.8014 94.026 31.7488 94.027 31.7C94.0286 31.6219 94.0109 31.5334 93.9738 31.4345L93.7862 31.2965C94.1165 30.9067 94.5063 30.7093 94.9557 30.7043C95.0927 30.6892 95.2348 30.6694 95.3818 30.6448C95.6465 30.5948 95.8618 30.5725 96.0278 30.5779C96.1742 30.5826 96.3577 30.6814 96.5784 30.8742C96.3884 31.0927 96.2683 31.2354 96.2181 31.3021C95.9378 31.635 95.7527 31.8488 95.6629 31.9436C95.4336 32.1707 95.2145 32.3785 95.0055 32.5671C94.9854 32.5958 94.9094 32.7301 94.7775 32.9701C94.5751 33.3152 94.2695 33.6912 93.8607 34.0981C93.3623 34.5899 93.0882 34.8595 93.0384 34.9067L91.5972 36.6039C91.3088 36.8584 91.1497 36.9949 91.12 37.0134C91.1099 37.0327 90.9485 37.2814 90.6359 37.7598C90.6059 37.7979 90.4321 37.9388 90.1145 38.1825C90.0052 38.2767 89.7654 38.5376 89.3953 38.9652L88.8724 39.4612C88.7331 39.5837 88.5369 39.8655 88.2837 40.3067C88.1727 40.479 88.0434 40.5969 87.8955 40.6605C87.8169 40.6873 87.63 40.7496 87.335 40.8475C87.3432 40.9259 87.3465 40.9993 87.3452 41.0677C87.3422 41.2141 87.2612 41.3532 87.1022 41.4848C86.9962 41.413 86.9286 41.3766 86.8993 41.3756C86.7627 41.3712 86.5939 41.5074 86.3929 41.7842L86.5473 42.1116C86.3479 42.3103 86.2134 42.4378 86.1439 42.4942C85.6061 43.0043 85.1521 43.4732 84.7819 43.9009C84.6019 44.11 84.47 44.35 84.3863 44.6208L83.9931 44.5055L83.5311 44.8862L83.5975 45.2254C83.5275 45.3013 83.4827 45.3438 83.463 45.3529C83.4532 45.3526 83.3504 45.3639 83.1546 45.3869C82.9198 45.4086 82.8004 45.517 82.7964 45.7123L82.8498 45.9632C82.6594 46.2013 82.5293 46.3534 82.4596 46.4195C82.3397 46.5524 82.2196 46.6901 82.0995 46.8328C81.7389 47.2705 81.499 47.5412 81.3797 47.6448C81.2606 47.7386 81.0637 47.8104 80.7893 47.8601C80.6948 48.1795 80.5875 48.4105 80.4674 48.5531C80.4274 48.6007 80.0686 48.9505 79.3911 49.6027L78.9695 50.1605C78.6201 50.5302 78.3897 50.811 78.2783 51.0028L77.9428 50.9333C77.6826 51.2375 77.4705 51.5823 77.3063 51.9678L76.9459 52.3957L76.749 52.7118L76.4075 52.9352C76.3684 52.9339 76.2929 53.0438 76.181 53.2649C75.9852 53.2878 75.7105 53.3473 75.3569 53.4433C75.3274 53.4521 75.2785 53.4554 75.2102 53.4532C75.1614 53.4516 74.9862 53.4215 74.6846 53.3629C74.4994 53.3471 74.2954 53.2916 74.0727 53.1965Z" fill="url(#paint3_linear_529_214)"/>
<defs>
<filter id="filter0_d_529_214" x="21.7423" y="40.2013" width="12.0673" height="10.4265" filterUnits="userSpaceOnUse" color-interpolation-filters="sRGB">
<feFlood flood-opacity="0" result="BackgroundImageFix"/>
<feColorMatrix in="SourceAlpha" type="matrix" values="0 0 0 0 0 0 0 0 0 0 0 0 0 0 0 0 0 0 127 0" result="hardAlpha"/>
<feOffset dy="4"/>
<feGaussianBlur stdDeviation="2"/>
<feComposite in2="hardAlpha" operator="out"/>
<feColorMatrix type="matrix" values="0 0 0 0 0 0 0 0 0 0 0 0 0 0 0 0 0 0 0.25 0"/>
<feBlend mode="normal" in2="BackgroundImageFix" result="effect1_dropShadow_529_214"/>
<feBlend mode="normal" in="SourceGraphic" in2="effect1_dropShadow_529_214" result="shape"/>
</filter>
<linearGradient id="paint0_linear_529_214" x1="99.074" y1="-6.34127" x2="75.2211" y2="46.2802" gradientUnits="userSpaceOnUse">
<stop offset="0.526042" stop-color="white"/>
<stop offset="1" stop-color="#A3A3A3"/>
</linearGradient>
<linearGradient id="paint1_linear_529_214" x1="175" y1="18.9995" x2="175" y2="56.9995" gradientUnits="userSpaceOnUse">
<stop offset="0.651042" stop-color="white"/>
<stop offset="1" stop-color="#737373"/>
</linearGradient>
<linearGradient id="paint2_linear_529_214" x1="93.3422" y1="24.6382" x2="60.6528" y2="48.2816" gradientUnits="userSpaceOnUse">
<stop offset="0.526042" stop-color="white"/>
<stop offset="1" stop-color="#A3A3A3"/>
</linearGradient>
<linearGradient id="paint3_linear_529_214" x1="95.5303" y1="26.9471" x2="71.793" y2="48.3962" gradientUnits="userSpaceOnUse">
<stop offset="0.526042" stop-color="white"/>
<stop offset="1" stop-color="#A3A3A3"/>
</linearGradient>
</defs>
</svg>
