<svg width="1722" height="616" viewBox="0 0 1722 616" fill="none" xmlns="http://www.w3.org/2000/svg">
<g filter="url(#filter0_d_822_23)">
<path d="M247.35 45.7125C222.38 50.3225 203.37 58.3824 131.74 94.8724L60.3 131.172H43.02C28.23 131.172 25.74 131.752 24.78 134.442C24.4 136.362 22.09 150.382 19.79 165.742C15.95 192.242 15.37 194.162 7.88 204.922L0 216.442L4.42 255.812C6.73 277.512 9.8 297.102 11.14 299.402C12.68 301.702 21.13 309.392 30.15 316.682C43.59 327.442 47.05 331.282 48.78 337.612C52.43 351.052 60.3 364.112 71.83 376.212C91.99 396.952 112.35 404.832 142.89 403.482C159.21 402.712 163.25 401.752 175.73 395.802C183.41 392.152 194.17 385.052 199.54 380.252L209.53 371.222H244.29H279.05V391.392V411.552H322.26H365.47V493.172C365.47 568.832 365.28 574.792 362.2 576.322C360.28 577.282 349.53 580.352 338.19 583.432L317.45 588.812L0 611.282H317.45L397.72 610.902L477.8 610.322L795.44 611.282L477.8 589.202L454.37 582.672L430.75 575.952V493.762V411.572H473.96H517.17V391.412V371.242H560.19H603.21L603.98 342.822C604.56 317.092 604.94 313.632 609.74 303.642C616.46 289.052 627.98 277.142 642.39 269.262C653.91 262.922 655.45 262.732 674.65 262.732C692.51 262.732 696.16 263.312 705.76 267.922C720.16 274.642 733.03 287.892 740.33 303.252C745.32 314.012 746.28 318.612 747.24 336.862L748.2 357.792H765.1C781.23 357.792 782.19 357.602 782.96 353.372C783.54 351.072 786.61 329.562 789.68 305.552L795.44 261.762L782.96 234.492C762.6 189.942 760.88 188.782 686.75 176.302L634.71 167.472L610.13 149.232C565.57 116.002 492.02 69.1424 462.44 55.1224C438.43 43.6024 431.14 42.8325 341.45 43.0225C284.61 43.2225 256.76 43.9825 247.35 45.7125ZM345.87 108.512C347.21 124.642 348.17 139.242 348.17 140.772C348.17 143.272 342.41 156.722 297.85 153.842C270 152.112 233.32 150.192 216.04 149.232L184.74 134.442L181.86 127.722C175.52 112.552 175.33 112.932 192.42 104.482C235.05 82.9724 249.65 79.7125 303.23 79.5125L343.75 79.3224L345.87 108.512ZM440.36 84.8925C446.12 87.1925 463.02 96.4124 477.81 105.252C506.81 122.732 578.82 170.163 576.7 170.353C571.71 170.543 406.74 158.632 405.01 158.062C403.86 157.482 384.66 136.942 383.89 125.992C383.31 115.622 382.16 100.832 381.39 92.9625L380.24 78.9424L405.01 79.7125C424.8 80.4725 431.91 81.4325 440.36 84.8925ZM158.05 265.792C192.43 281.352 199.53 325.712 171.49 350.672C160.74 360.462 152.29 363.732 137.88 363.922C117.52 363.922 100.62 353.932 91.21 335.882C80.84 316.102 86.02 288.252 102.73 274.232C117.92 261.382 140.58 257.922 158.05 265.792Z" fill="white"/>
<path d="M1136.69 355.027C1124.21 358.097 1124.4 358.097 1074.85 399.197C1053.15 417.247 1033.94 433.187 1032.22 434.537C1029.34 436.837 1027.03 436.457 1016.86 432.807C1000.34 426.857 973.072 426.857 957.332 432.617C892.612 456.047 873.982 536.317 921.992 583.757C935.242 596.817 948.112 604.307 964.432 608.727C1009.18 620.247 1057 594.707 1073.51 550.537C1076.78 541.897 1077.55 535.367 1077.55 519.427C1077.55 496.957 1074.09 485.047 1062.57 468.147L1056.43 458.927L1082.55 439.527L1108.48 420.127L1109.63 432.797C1110.4 439.717 1110.98 458.147 1111.17 473.707C1111.36 496.947 1112.71 509.997 1118.85 546.687C1123.07 571.267 1128.07 595.657 1129.99 601.037L1133.64 610.637L1160.72 611.217C1182.8 611.597 1188.37 611.217 1190.68 608.717C1194.33 605.067 1198.36 587.397 1205.66 543.617C1208.73 524.797 1212.77 506.747 1214.69 503.677C1216.42 500.417 1219.11 495.807 1220.26 493.497C1224.29 486.387 1228.52 441.837 1228.52 406.887V373.857L1221.8 367.907C1211.81 359.267 1192.99 354.077 1168.03 353.117C1154.17 352.727 1143.42 353.297 1136.69 355.027ZM1011.48 474.477C1050.46 495.607 1045.86 554.177 1003.99 568.387C972.692 578.947 939.082 558.017 935.242 525.367C930.442 484.657 975.382 454.697 1011.48 474.477Z" fill="white"/>
<path d="M1167.25 232C1137.1 237.76 1118.47 267.91 1127.12 297.49C1133.46 319.77 1153.24 334.17 1177.24 334.36C1198.17 334.36 1214.3 324.38 1223.52 305.55C1236 279.82 1225.63 248.71 1200.67 236.8C1188.95 231.42 1178.39 229.69 1167.25 232Z" fill="white"/>
<path fill-rule="evenodd" clip-rule="evenodd" d="M1390.5 0C1332.23 0 1285 47.234 1285 105.5C1285 163.766 1332.23 211 1390.5 211H1612.5C1670.77 211 1718 163.766 1718 105.5C1718 47.234 1670.77 0 1612.5 0H1390.5ZM1343.21 60.6211V61.0605L1344.57 62.5107L1346.15 62.2471C1346.12 62.833 1346.11 63.2871 1346.11 63.6094C1346.11 64.3711 1346.21 64.9424 1346.42 65.3232C1346.95 66.3779 1347.22 67.0664 1347.25 67.3887V67.4766L1347.03 68.8828L1347.38 70.333L1347.56 72.9258L1348.04 75.0791L1348.31 77.4521C1348.57 78.6533 1348.7 79.3271 1348.7 79.4736C1348.7 79.708 1348.59 80.1914 1348.35 80.9238L1349.76 83.7803C1349.64 84.4248 1349.55 84.791 1349.49 84.8789C1349.44 85.084 1349.08 85.1719 1348.44 85.1426C1348.35 86.0801 1348.31 86.8564 1348.31 87.4717C1348.31 87.6182 1348.35 88.2041 1348.44 89.2295L1348.57 90.6357L1348.88 92.3496C1348.88 94.6055 1348.91 95.8066 1348.97 95.9531C1349.03 96.1582 1349.2 96.627 1349.49 97.3594L1350.24 97.5791L1350.68 99.0732L1349.98 99.7324H1349.8V100.611C1349.22 100.875 1348.92 101.329 1348.92 101.974C1348.92 102.472 1348.98 102.896 1349.1 103.248C1349.33 104.127 1349.45 104.625 1349.45 104.742C1349.45 104.947 1349.42 105.284 1349.36 105.753C1349.33 106.134 1349.32 106.559 1349.32 107.027C1349.32 107.408 1349.33 107.979 1349.36 108.741C1349.86 109.093 1350.11 109.43 1350.11 109.752C1350.11 110.162 1349.86 110.66 1349.36 111.246C1349.54 111.598 1349.63 111.876 1349.63 112.081C1349.63 112.169 1349.48 112.521 1349.19 113.136C1349.19 114.835 1349.16 115.919 1349.1 116.388C1349.07 116.827 1349.05 117.267 1349.05 117.706V117.794C1349.05 118.292 1349.32 118.541 1349.85 118.541C1349.96 118.541 1350.09 118.526 1350.24 118.497L1350.46 119.42L1350.77 119.288V120.431L1350.42 120.694L1350.29 120.562C1349.9 120.738 1349.71 120.943 1349.71 121.178C1349.71 121.383 1349.74 121.588 1349.8 121.793C1349.3 122.174 1349.03 122.481 1348.97 122.716C1348.94 122.804 1348.92 123.771 1348.92 125.616C1348.92 126.817 1348.98 127.491 1349.1 127.638C1349.19 127.755 1349.44 127.857 1349.85 127.945C1349.96 127.945 1350.18 128.004 1350.5 128.121L1350.86 128.912C1350.48 128.736 1350.14 128.648 1349.85 128.648C1349.73 128.648 1349.58 128.722 1349.41 128.868C1349.49 129.483 1349.54 129.879 1349.54 130.055C1349.54 131.871 1349.35 133.775 1348.97 135.768C1348.97 136.441 1348.95 136.822 1348.92 136.91C1348.89 137.057 1348.64 137.481 1348.18 138.185C1347.77 139.122 1347.4 139.854 1347.08 140.382C1347.49 140.909 1347.69 141.334 1347.69 141.656C1347.69 141.744 1347.63 141.935 1347.52 142.228C1348.04 142.667 1348.42 142.887 1348.66 142.887L1350.2 142.359L1352.04 141.788L1353.32 141.217C1353.87 141.041 1354.18 140.924 1354.24 140.865C1354.45 140.689 1354.56 140.221 1354.59 139.459C1354.97 139.605 1355.31 139.679 1355.6 139.679C1356.13 139.679 1356.39 139.239 1356.39 138.36C1356.39 138.009 1356.33 136.925 1356.22 135.108C1356.19 134.845 1356.17 134.288 1356.17 133.438C1355.38 133.556 1354.81 132.662 1354.46 130.758C1355.34 130.113 1355.78 129.454 1355.78 128.78C1355.78 128.692 1355.69 128.136 1355.51 127.11L1355.43 119.991L1355.34 116.168C1354.2 116.051 1353.62 115.699 1353.62 115.113C1353.62 114.908 1353.68 114.762 1353.8 114.674C1354.62 113.912 1355.05 113.502 1355.08 113.443C1355.28 113.209 1355.38 112.931 1355.38 112.608L1355.29 105.929V105.27C1354.86 104.977 1354.58 104.669 1354.46 104.347C1354.67 104.2 1354.97 104.112 1355.38 104.083L1355.69 103.775L1355.56 103.336L1354.81 102.765C1354.72 102.354 1354.68 102.018 1354.68 101.754C1354.68 101.344 1354.91 100.729 1355.38 99.9082L1355.43 99.8203C1355.43 99.6152 1354.77 99.2051 1353.45 98.5898C1352.48 98.1504 1352 97.3008 1352 96.041C1352 94.8984 1352.17 94.1074 1352.53 93.668C1353 93.1113 1353.93 92.6133 1355.34 92.1738C1354.46 91.7051 1354.02 91.1338 1354.02 90.46C1354.02 90.167 1354.18 89.8447 1354.5 89.4932C1354.86 89.4639 1355.21 89.3174 1355.56 89.0537C1355.53 88.2627 1355.47 86.8125 1355.38 84.7031C1355.29 83.9707 1355.25 83.458 1355.25 83.165C1355.25 83.1064 1355.32 82.7549 1355.47 82.1104C1355.53 81.3779 1355.6 80.9678 1355.69 80.8799L1358.02 81.1436L1358.15 80.1768L1358.33 79.957C1358.94 80.0742 1359.76 80.3232 1360.79 80.7041L1362.55 80.5723H1363.73L1365.23 80.4404L1366.72 80.5723L1369.36 80.0449C1370.27 80.2793 1370.82 80.3965 1371.03 80.3965C1371.29 80.3965 1371.55 80.3818 1371.82 80.3525C1372.58 80.2939 1373.14 80.2646 1373.49 80.2646C1373.61 80.2646 1373.77 80.2793 1373.97 80.3086C1375.14 80.4551 1375.74 80.5283 1375.77 80.5283C1375.95 80.5283 1376.77 80.4111 1378.23 80.1768C1378.5 80.1475 1378.76 80.1328 1379.03 80.1328C1379.29 80.1328 1379.99 80.2646 1381.13 80.5283L1382.1 80.4844C1384.21 80.4551 1385.35 80.4258 1385.53 80.3965C1385.97 80.2793 1386.57 79.9717 1387.33 79.4736C1387.95 79.708 1388.62 79.9717 1389.35 80.2646C1390 80.5283 1391.08 80.6895 1392.6 80.748C1392.87 80.748 1393.44 80.7627 1394.32 80.792C1395.08 80.0889 1395.87 79.4883 1396.69 78.9902L1396.47 77.54C1397.12 77.2471 1397.51 76.9541 1397.66 76.6611C1397.8 76.3975 1397.88 75.9873 1397.88 75.4307V74.9912C1397.15 75.1084 1395.86 75.4453 1394.01 76.002C1391.32 76.3242 1389.51 76.6465 1388.61 76.9688C1388.02 77.1738 1387.51 77.2764 1387.07 77.2764C1386.98 77.2764 1386.88 77.2617 1386.76 77.2324C1385.65 76.9102 1385.08 76.749 1385.05 76.749C1384.87 76.749 1384.61 76.8662 1384.25 77.1006C1382.44 78.2432 1381.44 78.8145 1381.27 78.8145C1381.06 78.8145 1380.92 78.7119 1380.83 78.5068L1380.43 76.8809C1379.88 77.4375 1379.55 77.7158 1379.46 77.7158C1379.41 77.7158 1378.73 77.7012 1377.44 77.6719L1374.5 77.3203C1374.47 77.3203 1374.31 77.3496 1374.02 77.4082L1373.8 77.8916C1373.33 77.6279 1373 77.4961 1372.83 77.4961C1372.74 77.4961 1372.65 77.5107 1372.57 77.54C1372.04 77.833 1371.6 77.9795 1371.25 77.9795C1371.01 77.9795 1370.25 77.8623 1368.96 77.6279L1367.51 78.1553L1366.41 77.7158L1361.01 77.4961C1358.63 77.0859 1357.14 76.8809 1356.53 76.8809C1356.14 76.8809 1355.56 76.9102 1354.77 76.9688L1354.59 72.7061L1353.71 71.8271C1354.18 71.2412 1354.43 70.8018 1354.46 70.5088V69.8057L1354.5 68.4873L1350.64 67.3447L1354.72 62.9941L1354.59 62.8184C1354.86 61.2656 1355.28 60.4893 1355.87 60.4893C1356.33 60.4893 1357.01 61.0166 1357.89 62.0713C1358.33 62.5986 1358.69 62.8477 1358.99 62.8184H1359.07C1359.95 62.8184 1360.61 62.3936 1361.05 61.5439L1361.75 60.2256L1364.17 62.4229L1365.53 60.5332L1366.63 61.8516C1369.39 62.4668 1370.78 62.7744 1370.81 62.7744C1370.84 62.7744 1371.22 62.6279 1371.95 62.335H1373.22L1374.41 62.2031C1375.76 62.7012 1376.64 62.9502 1377.05 62.9502C1378.04 62.9502 1378.82 62.8623 1379.38 62.6865C1380.34 62.3936 1381.02 62.2471 1381.4 62.2471C1381.54 62.2471 1381.91 62.2617 1382.5 62.291H1382.72C1383.19 62.2617 1383.62 62.5547 1384.04 63.1699L1385.88 63.3018C1386.99 63.4189 1387.89 63.4775 1388.56 63.4775C1388.85 63.4775 1389.04 63.4336 1389.13 63.3457L1391.86 61.3242C1391.89 61.3242 1391.92 61.3535 1391.95 61.4121C1392.36 61.9688 1392.75 62.5107 1393.13 63.0381C1393.25 63.2139 1393.7 63.4482 1394.49 63.7412V63.0381C1394.88 61.8955 1395.17 61.3096 1395.37 61.2803L1395.42 61.3242C1396.3 62.3789 1396.76 62.9062 1396.82 62.9062H1397.79C1398.08 62.9062 1398.46 63.2285 1398.93 63.873C1399.64 62.9941 1400.57 62.0713 1401.75 61.1045C1402.3 60.6357 1402.65 60.2988 1402.8 60.0938C1402.95 59.8887 1403.18 59.4053 1403.5 58.6436C1403.68 58.2627 1403.77 57.999 1403.77 57.8525C1403.77 57.7061 1403.75 57.5303 1403.72 57.3252L1396.6 58.7754C1396.22 58.8633 1395.81 59.0244 1395.37 59.2588C1395.02 59.4639 1394.36 59.5664 1393.4 59.5664C1392.99 59.5664 1391.75 59.4785 1389.7 59.3027L1385.44 59.918H1384.17L1383.07 59.9619L1380.56 59.874L1379.29 60.2256L1376.39 60.1377L1374.54 60.1816L1372.7 59.8301L1370.85 60.0059L1368.04 59.5225L1366.98 59.5664C1366.78 59.5664 1366.6 59.5225 1366.46 59.4346C1365.87 59.0244 1365.43 58.8193 1365.14 58.8193C1364.99 58.8193 1364.41 59.4492 1363.38 60.709L1360.88 58.5117L1358.06 58.7754H1357.89C1357.39 58.7754 1356.31 58.585 1354.64 58.2041C1353.76 57.999 1353.04 57.6182 1352.48 57.0615C1352.16 57.1494 1351.82 57.3105 1351.47 57.5449C1351.3 57.6914 1350.94 57.9258 1350.42 58.248C1349.86 57.8672 1349.46 57.6768 1349.23 57.6768C1348.88 57.6768 1348.06 58.0137 1346.77 58.6875C1345.83 59.1562 1345.13 59.6104 1344.66 60.0498C1344.04 60.167 1343.56 60.3574 1343.21 60.6211ZM1406.3 83.1211C1405.71 82.6816 1405.3 82.4326 1405.07 82.374C1404.95 83.1064 1404.88 83.8389 1404.85 84.5713C1404.82 85.6553 1404.72 86.373 1404.54 86.7246C1404.07 87.6035 1403.84 88.1162 1403.84 88.2627C1403.84 88.6143 1404.09 89.0684 1404.58 89.625C1405.46 89.5371 1406.02 89.4639 1406.25 89.4053C1406.66 89.3174 1407.07 88.9219 1407.48 88.2188L1408.32 89.1855C1408.58 89.1562 1408.82 89.1416 1409.02 89.1416C1409.26 89.1416 1409.49 89.1709 1409.73 89.2295C1410.9 89.4639 1411.51 89.5811 1411.57 89.5811C1411.63 89.5811 1411.78 89.5518 1412.01 89.4932C1412.3 89.4346 1412.48 89.4053 1412.54 89.4053H1412.63C1412.95 89.4053 1413.11 89.5664 1413.11 89.8887C1413.11 90.3867 1412.61 90.9727 1411.62 91.6465C1411.38 91.8223 1410.93 92.1445 1410.25 92.6133V92.833L1410.78 93.1846C1409.9 94.3857 1409.23 95.0303 1408.76 95.1182L1408.01 95.0742L1407.79 95.25C1406.91 95.8066 1406.22 96.3633 1405.73 96.9199C1407.89 97.7109 1409.27 98.3701 1409.86 98.8975C1410.56 99.5713 1411.06 99.9082 1411.35 99.9082C1411.7 99.9082 1412.01 99.7764 1412.27 99.5127C1412.71 99.1025 1412.93 98.6045 1412.93 98.0186C1412.93 97.7549 1412.88 97.5352 1412.76 97.3594C1412.46 96.8027 1412.32 96.4805 1412.32 96.3926C1412.32 96.1875 1412.54 96.0703 1412.98 96.041C1413.36 95.6309 1413.77 94.9863 1414.21 94.1074C1414.27 93.9316 1414.47 93.5801 1414.82 93.0527L1414.43 91.6025L1414.65 91.3828C1415.41 91.7051 1415.92 92.0713 1416.19 92.4814C1416.54 93.126 1416.83 93.9902 1417.06 95.0742L1417.99 94.8545C1418.16 95.3232 1418.32 95.6895 1418.47 95.9531C1418.79 96.5391 1418.95 96.9785 1418.95 97.2715V97.3154C1418.87 97.7549 1418.82 98.0479 1418.82 98.1943C1418.82 98.3115 1418.92 98.6045 1419.13 99.0732C1419.25 99.3076 1419.38 99.8203 1419.53 100.611C1419.67 100.699 1419.8 100.743 1419.92 100.743C1420.04 100.743 1420.14 100.67 1420.23 100.523C1421.11 99.2051 1421.71 98.3994 1422.03 98.1064C1422.38 97.7842 1423.16 97.3301 1424.36 96.7441C1424.42 96.4219 1424.45 96.1289 1424.45 95.8652C1424.45 95.6309 1424.36 95.3965 1424.18 95.1621C1423.71 94.5469 1423.19 94.2393 1422.6 94.2393C1422.28 94.2393 1421.87 94.3418 1421.37 94.5469L1421.24 93.0967C1420.24 92.4521 1419.35 91.6465 1418.56 90.6797H1417.5L1417.37 90.5039V90.1523C1418.4 89.5078 1419.28 89.1855 1420.01 89.1855C1420.48 89.1855 1421.03 89.2295 1421.68 89.3174V88.3066C1422.21 88.2773 1422.6 88.248 1422.87 88.2188C1423.51 88.1602 1423.95 88.1309 1424.18 88.1309C1424.33 88.1309 1424.45 88.1455 1424.54 88.1748C1425.65 88.585 1426.34 88.79 1426.6 88.79H1427.7C1427.44 88.1748 1426.82 87.0322 1425.85 85.3623C1425.62 84.2783 1425.38 83.4287 1425.15 82.8135C1424.89 82.667 1424.7 82.5938 1424.58 82.5938C1423.29 82.5938 1422.51 83.4873 1422.25 85.2744L1421.2 85.0107H1421.15C1420.83 84.9814 1420.39 85.2891 1419.83 85.9336C1419.07 86.168 1418.56 86.373 1418.29 86.5488C1418 86.7246 1417.71 87.0469 1417.42 87.5156C1417.06 87.1348 1416.89 86.7979 1416.89 86.5049C1416.89 85.9189 1417.02 85.2158 1417.28 84.3955C1417.34 84.2197 1417.45 83.8389 1417.59 83.2529L1416.84 83.0332C1416.87 82.418 1416.9 82.0371 1416.93 81.8906C1416.96 81.5977 1417.64 80.0889 1418.95 77.3643L1418.47 77.0566C1417.33 77.5547 1416.55 77.8037 1416.14 77.8037L1412.71 77.7158C1412.6 77.7158 1412.45 77.7891 1412.27 77.9355C1412.01 78.1699 1411.88 78.4336 1411.88 78.7266C1411.88 80.1035 1412.57 80.9531 1413.94 81.2754C1413.5 82.0371 1413.29 82.5791 1413.29 82.9014C1413.29 82.9893 1413.39 83.4141 1413.59 84.1758C1413.71 85.0254 1413.87 85.7725 1414.08 86.417L1414.56 86.5488V86.7246L1413.99 87.2959C1412.55 86.915 1411.41 86.3291 1410.56 85.5381L1409.9 86.1973L1407.31 84.7031C1407.31 84.2637 1407.28 84 1407.22 83.9121C1407.16 83.8242 1406.85 83.5605 1406.3 83.1211ZM1445.44 99.9082C1444.5 101.021 1443.28 101.842 1441.79 102.369C1441.73 102.867 1441.54 103.248 1441.22 103.512L1440.16 104.435C1440.13 104.464 1439.97 104.801 1439.68 105.445C1439.42 105.973 1439.11 106.339 1438.76 106.544C1437.76 107.042 1437.07 107.54 1436.69 108.038C1436.4 108.419 1436.22 108.639 1436.16 108.697L1435.46 109.181C1435.4 109.21 1435.18 109.576 1434.8 110.279C1434.77 110.338 1434.48 110.704 1433.92 111.378C1433.54 111.876 1433.22 112.638 1432.96 113.663L1432.38 114.674L1432.12 115.641C1431.8 116.402 1431.64 116.9 1431.64 117.135C1431.64 117.721 1431.75 118.189 1431.99 118.541H1432.38C1433.03 118.541 1433.35 118.775 1433.35 119.244C1433.35 119.654 1432.93 119.918 1432.08 120.035L1432.12 120.519V121.266C1432.12 121.383 1432.16 121.485 1432.25 121.573C1432.31 121.632 1432.9 121.925 1434.01 122.452L1434.19 122.892L1434.27 123.023C1434.07 124.254 1433.97 124.884 1433.97 124.913C1433.97 125.03 1434.49 125.792 1435.55 127.198C1436.1 127.696 1436.73 128.253 1437.44 128.868C1438.14 129.483 1438.98 129.967 1439.94 130.318L1440.43 129.308C1440.75 129.513 1441.29 129.996 1442.05 130.758C1442.29 130.992 1442.9 131.153 1443.9 131.241C1444.19 131.271 1444.41 131.3 1444.56 131.329C1445.05 131.388 1445.42 131.417 1445.66 131.417C1445.92 131.417 1446.24 131.183 1446.62 130.714C1447.41 131.065 1447.96 131.241 1448.25 131.241C1448.28 131.241 1449.57 131.007 1452.12 130.538L1455.67 130.055L1457.08 129.527L1459.37 128.912C1461.09 128.18 1462.3 127.55 1462.97 127.022L1464.6 126.319L1465.21 125.924L1465.39 125.88C1466.03 125.646 1466.41 125.528 1466.53 125.528H1466.88C1467.29 124.884 1467.61 124.488 1467.85 124.342L1469.56 123.463L1470.57 122.408C1471.22 121.91 1471.74 121.441 1472.15 121.002C1471.69 120.475 1471.47 119.947 1471.5 119.42L1473.21 119.596C1473.5 119.039 1473.71 118.248 1473.82 117.223C1473.85 117.047 1474.13 116.769 1474.66 116.388C1474.31 115.743 1474.13 115.274 1474.13 114.981C1474.13 114.542 1474.32 114.176 1474.7 113.883C1474.97 113.678 1475.95 113.37 1477.65 112.96C1478.16 112.625 1478.52 112.389 1478.73 112.253C1478.83 112.187 1478.89 112.144 1478.92 112.125C1479.04 112.096 1479.39 112.052 1479.98 111.993L1480.68 111.466C1482.09 110.646 1482.99 109.84 1483.4 109.049C1484.22 108.434 1484.65 108.111 1484.68 108.082C1485.12 107.438 1485.38 106.222 1485.47 104.435C1485.47 104.229 1485.5 103.819 1485.56 103.204L1484.37 103.028L1484.11 101.974C1483.76 101.681 1483.04 101.402 1481.95 101.139L1481.21 99.8643C1479.71 100.304 1478.78 100.685 1478.39 101.007C1478.45 101.417 1478.69 101.827 1479.1 102.237C1479.89 103.028 1480.27 103.644 1480.24 104.083L1479.98 105.709C1480.04 107.262 1479.6 108.258 1478.66 108.697C1478.34 108.844 1477.75 109.21 1476.9 109.796C1476.49 110.089 1475.96 110.353 1475.32 110.587C1474.7 110.821 1474.22 110.938 1473.87 110.938C1473.84 110.938 1473.52 110.792 1472.9 110.499C1472.05 110.177 1471.08 109.664 1470 108.961C1469.83 108.844 1469.44 108.609 1468.86 108.258V109.225C1468.71 109.4 1468.57 109.488 1468.42 109.488C1467.75 109.488 1467.36 108.741 1467.28 107.247C1466.75 106.896 1466.1 106.588 1465.34 106.324L1463.98 105.797L1463.23 105.709L1461.7 105.357L1460.64 105.489L1459.23 105.665L1458.09 106.104L1456.82 106.456L1455.72 107.071L1453.04 108.126L1451.37 109.576C1450.08 110.602 1449.24 111.349 1448.86 111.817C1448.48 112.257 1448.29 112.784 1448.29 113.399C1448.29 113.985 1448.53 114.396 1449 114.63C1449.73 115.011 1450.21 115.362 1450.45 115.685C1450.68 115.714 1450.9 115.729 1451.1 115.729C1452.1 115.729 1452.6 115.392 1452.6 114.718L1452.07 113.575C1452.45 112.96 1452.69 112.55 1452.77 112.345C1453.8 110.499 1454.49 109.532 1454.84 109.444C1455.04 109.298 1455.65 109.151 1456.64 109.005L1458.27 108.521L1459.01 109.005L1459.67 109.049L1461.26 109.708L1462.75 110.191L1464.24 111.51L1465.21 112.125L1465.83 112.96C1465.86 112.989 1466.29 113.253 1467.14 113.751C1468.23 114.396 1468.77 115.201 1468.77 116.168C1468.77 117.838 1468.3 119.317 1467.36 120.606C1466.43 121.925 1465.81 122.672 1465.52 122.848L1462.49 124.825C1462.4 124.884 1462.19 125.177 1461.87 125.704H1461.48C1461.3 125.704 1460.96 125.807 1460.46 126.012L1458.31 126.671L1456.91 127.374L1455.63 127.77L1454.71 128.165L1452.86 128.209L1452.25 128.253L1450.75 128.165H1449.39L1447.54 127.682C1446.84 127.682 1446.37 127.652 1446.14 127.594C1444.85 127.184 1444.09 126.891 1443.85 126.715C1443.53 126.48 1442.68 125.66 1441.3 124.254L1440.03 123.111C1439.88 122.994 1439.68 122.584 1439.42 121.881C1438.74 121.441 1438.26 120.87 1437.96 120.167C1437.91 119.991 1437.83 119.815 1437.75 119.64C1437.31 118.819 1437.03 117.97 1436.91 117.091L1436.51 115.992L1436.78 115.025C1436.87 113.824 1436.92 113.121 1436.95 112.916C1437.13 112.359 1437.32 111.847 1437.53 111.378C1438.17 110.177 1438.55 109.254 1438.67 108.609C1439.52 108.346 1440.13 107.979 1440.51 107.511C1440.95 106.954 1441.41 106.471 1441.88 106.061C1442.4 105.211 1442.7 104.771 1442.75 104.742C1442.84 104.654 1443.56 104.244 1444.91 103.512C1445.79 102.867 1446.27 102.53 1446.36 102.501C1446.62 102.384 1446.99 102.325 1447.46 102.325H1448.03L1448.2 102.149L1447.72 101.183C1448.39 100.89 1448.89 100.743 1449.21 100.743C1449.24 100.743 1449.55 100.831 1450.14 101.007L1452.2 98.5459C1452.35 98.3994 1452.53 98.3262 1452.73 98.3262C1453.26 98.3262 1453.83 98.9414 1454.44 100.172C1454.74 98.9121 1454.97 98.2822 1455.15 98.2822C1455.35 98.2822 1455.78 98.9121 1456.42 100.172L1457.08 99.7324C1457.61 99.8789 1457.97 100.069 1458.18 100.304C1458.47 100.626 1458.88 100.934 1459.41 101.227C1459.94 100.758 1460.25 100.509 1460.33 100.479C1460.45 100.421 1461.4 100.04 1463.19 99.3369C1463.6 99.1904 1463.86 98.8828 1463.98 98.4141C1464.24 97.4766 1464.54 96.7148 1464.86 96.1289C1464.3 95.8066 1463.88 95.6455 1463.58 95.6455C1463.5 95.6455 1463.01 95.7627 1462.13 95.9971L1459.59 96.1289C1458.33 96.627 1457.56 96.876 1457.3 96.876C1456.95 96.876 1456.55 96.8467 1456.11 96.7881C1455.44 96.7002 1454.18 96.6562 1452.33 96.6562L1450.93 96.1729L1449.83 96.1289C1448.25 95.7188 1447.33 95.4844 1447.06 95.4258C1446.53 95.25 1445.92 94.9424 1445.22 94.5029C1445.04 94.3564 1444.66 94.1367 1444.07 93.8438C1443.93 93.1992 1443.65 92.7158 1443.24 92.3936C1443 92.2471 1442.65 91.8662 1442.18 91.251C1442.3 90.8701 1442.48 90.2109 1442.71 89.2734C1442.92 88.4824 1443.03 88.0723 1443.06 88.043C1443.12 87.9844 1443.72 87.5303 1444.86 86.6807C1446.07 85.5967 1446.75 84.9961 1446.93 84.8789C1447.16 84.7324 1447.56 84.5566 1448.12 84.3516L1449.04 83.8682L1450.53 83.4287C1451.29 83.0771 1451.75 82.9014 1451.9 82.9014C1452.16 82.9014 1452.55 83.0332 1453.08 83.2969C1453.67 83.1797 1454.09 83.0771 1454.36 82.9893C1454.8 82.8428 1455.12 82.7695 1455.32 82.7695C1455.44 82.7695 1455.6 82.8135 1455.81 82.9014C1456.42 83.1064 1456.83 83.209 1457.04 83.209C1457.1 83.209 1457.18 83.1943 1457.3 83.165L1457.83 82.2861L1458.93 82.9014C1459.01 81.3486 1459.25 80.5723 1459.63 80.5723L1460.46 81.0996L1462.88 82.3301C1463.88 83.4434 1464.45 84 1464.6 84C1464.86 84 1465.11 83.7363 1465.34 83.209C1464.84 82.4473 1464.58 81.9492 1464.55 81.7148C1464.43 80.9824 1464.35 80.5723 1464.29 80.4844C1464.23 80.3672 1463.85 80.0742 1463.15 79.6055C1462.15 78.6387 1461.31 78.1553 1460.64 78.1553C1460.03 78.1553 1459.56 78.3164 1459.23 78.6387L1457.17 80.792C1456.32 79.5322 1455.81 78.8438 1455.63 78.7266C1455.16 78.7559 1454.06 79.2393 1452.33 80.1768L1451.54 80.4844L1450.4 81.0117C1449.26 81.334 1448.6 81.5244 1448.42 81.583C1447.98 81.7588 1447.56 82.1543 1447.15 82.7695L1445.61 82.9453L1445.17 83.9121C1444.62 84.0879 1444.26 84.2197 1444.12 84.3076L1442.8 85.6699L1441.48 86.7686C1441.36 86.8857 1441.17 87.2227 1440.91 87.7793H1439.99C1439.25 88.5996 1438.89 89.3467 1438.89 90.0205C1438.89 90.2256 1438.9 90.4746 1438.93 90.7676H1439.15L1438.4 92.7012L1439.24 93.1846L1439.06 94.459C1439.71 95.3672 1440.15 95.9238 1440.38 96.1289C1440.85 96.4805 1441.25 96.9346 1441.57 97.4912L1443.24 97.0957C1443.21 97.4473 1443.19 97.7402 1443.19 97.9746C1443.19 98.8828 1443.94 99.5273 1445.44 99.9082ZM1486.02 111.29V112.037L1486.51 112.696C1486.98 112.374 1487.3 112.184 1487.47 112.125L1489.01 111.905C1490.24 111.554 1491.43 111.231 1492.57 110.938L1494.46 109.488C1495.13 110.66 1495.71 111.451 1496.17 111.861C1496.09 112.506 1496 113.165 1495.91 113.839C1495.85 114.454 1495.62 115.538 1495.21 117.091L1494.94 118.233L1494.37 119.991L1494.5 121.925L1493.85 123.551L1493.36 125.792L1493.01 127.198C1493.01 127.374 1493.13 127.564 1493.36 127.77C1493.83 128.209 1494.37 128.429 1494.99 128.429C1496.51 128.429 1497.29 127.052 1497.32 124.298L1497.98 120.079V118.717L1498.42 117.179C1498.83 115.04 1499.16 113.604 1499.43 112.872L1498.77 111.993V111.817C1499.06 111.817 1499.29 111.832 1499.47 111.861C1500.2 111.92 1500.64 111.949 1500.79 111.949C1501.14 111.949 1501.62 111.539 1502.24 110.719C1502.74 111.188 1503.24 111.48 1503.73 111.598C1505.02 111.891 1505.81 112.037 1506.11 112.037C1506.34 112.037 1506.74 111.979 1507.29 111.861C1507.91 111.773 1508.39 111.729 1508.74 111.729H1508.83H1508.88L1511.16 111.905C1512.27 111.905 1513.15 111.993 1513.8 112.169C1513.65 112.901 1513.53 113.736 1513.45 114.674L1512.83 116.959L1512.57 118.146L1512 119.771L1512.13 121.925C1512.13 121.954 1511.91 122.496 1511.47 123.551C1511.44 123.639 1511.23 124.503 1510.85 126.144C1510.82 126.349 1510.71 126.759 1510.5 127.374C1511.26 128.077 1511.92 128.429 1512.48 128.429C1514.09 128.429 1514.91 127.052 1514.94 124.298L1515.55 119.991V118.585L1515.91 117.486C1516.35 115.172 1516.68 113.619 1516.92 112.828L1516.52 112.213L1516.65 112.037C1516.8 111.979 1516.89 111.949 1516.92 111.949L1517.93 112.169L1519.03 112.037C1520.49 112.213 1521.24 112.301 1521.27 112.301C1521.79 112.301 1522.44 111.964 1523.2 111.29C1523.55 111.407 1523.79 111.466 1523.9 111.466C1524.26 111.466 1525.08 111.114 1526.37 110.411V109.269L1528.52 107.643C1528.37 107.262 1528.04 107.071 1527.51 107.071C1526.42 107.071 1525.56 107.188 1524.92 107.423C1524.53 107.569 1524.12 107.965 1523.68 108.609L1523.25 108.478L1522.67 107.906C1521.79 108.199 1520.84 108.375 1519.82 108.434C1519.47 108.58 1519.13 108.697 1518.81 108.785C1518.57 109.693 1518.24 110.147 1517.8 110.147C1517.53 110.147 1517.17 110.045 1516.7 109.84V109.576H1517.36C1517.39 107.965 1517.52 106.412 1517.75 104.918C1517.78 104.742 1517.84 104.347 1517.93 103.731L1517.4 103.6L1517.05 102.281C1517.9 101.871 1518.29 101.578 1518.24 101.402C1518.32 101.227 1518.4 100.743 1518.46 99.9521C1518.46 99.6885 1518.53 99.2197 1518.67 98.5459C1518.94 98.5166 1519.16 98.502 1519.33 98.502C1519.39 98.502 1519.47 98.5166 1519.55 98.5459L1520.12 98.6338L1521.88 96.7441C1522.5 98.0332 1523.03 98.7217 1523.46 98.8096C1523.93 98.8096 1524.55 98.4727 1525.31 97.7988L1526.45 97.9746L1528.52 96.832L1528.34 95.7773L1530.54 94.3271V93.8438L1529.4 93.624H1529.35C1529.09 93.6533 1528.59 93.7412 1527.86 93.8877C1527.21 94.0342 1526.83 94.1514 1526.72 94.2393C1526.6 94.2979 1526.35 94.5908 1525.97 95.1182C1525.47 95.0303 1525.06 94.7959 1524.74 94.415C1523.83 94.7959 1522.85 94.9863 1521.79 94.9863V95.2061C1521.33 95.2939 1520.96 95.6016 1520.7 96.1289C1520.4 96.334 1520.05 96.4365 1519.64 96.4365H1519.16C1519.25 95.792 1519.36 95.0742 1519.51 94.2832C1519.74 92.9941 1519.86 92.2031 1519.86 91.9102C1519.86 91.7051 1519.71 90.9873 1519.42 89.7568L1520.65 87.6914L1520.78 85.626L1521.22 84.4395L1521.36 82.2861L1522.01 78.5508C1522.01 78.5215 1521.96 78.3164 1521.84 77.9355C1520.64 78.082 1519.74 78.3604 1519.16 78.7705C1518.63 79.1514 1518.37 79.5176 1518.37 79.8691C1518.37 79.9277 1518.51 80.3818 1518.81 81.2314L1518.67 81.9785L1518.59 83.165L1518.28 84.9229C1518.22 85.8604 1518.1 86.5635 1517.93 87.0322C1517.49 88.1162 1517.27 88.834 1517.27 89.1855C1517.27 89.3613 1517.47 89.6836 1517.88 90.1523L1517.8 91.251L1517.22 91.6465L1516.65 95.1182C1515.72 95.3525 1515.19 95.4697 1515.07 95.4697H1512.21L1510.94 95.6016C1510.76 95.6016 1510.5 95.543 1510.15 95.4258L1509.97 95.6016L1506.41 95.4258C1505.89 95.9531 1505.45 96.2168 1505.1 96.2168C1504.71 96.2168 1504.16 95.9531 1503.43 95.4258H1502.5L1502.28 95.2061H1501.8L1502.42 91.251C1501.89 90.8115 1501.62 90.4453 1501.62 90.1523C1501.62 90.0059 1501.96 89.4785 1502.63 88.5703C1502.87 88.2773 1502.99 88.0723 1502.99 87.9551C1503.02 87.8379 1503.06 87.1494 1503.12 85.8896L1503.56 84.6592L1503.65 82.7256C1504.11 80.4404 1504.35 79.2246 1504.35 79.0781C1504.35 78.7559 1504.32 78.375 1504.26 77.9355C1503.03 78.082 1502.12 78.3604 1501.54 78.7705C1501.01 79.1514 1500.75 79.5322 1500.75 79.9131C1500.75 79.9424 1500.89 80.3525 1501.18 81.1436L1501.05 81.9785L1500.96 83.165L1500.61 84.7031C1500.61 85.6992 1500.51 86.4756 1500.31 87.0322C1499.87 88.0869 1499.65 88.8486 1499.65 89.3174C1499.65 89.5225 1499.87 89.7275 1500.31 89.9326L1500.13 91.2949L1499.51 91.5586V92.1738C1499.51 92.6133 1499.43 93.2432 1499.25 94.0635L1499.08 95.2939C1498.52 95.1475 1498.02 95.001 1497.58 94.8545C1497.29 94.7666 1496.06 94.5615 1493.89 94.2393L1493.1 94.0195L1491.78 94.1953C1491.75 94.1953 1491.62 94.1514 1491.38 94.0635C1491.21 94.2686 1491.03 94.6787 1490.86 95.2939L1490.73 95.3818L1490.46 96.1289L1489.98 96.7881L1489.76 97.1396C1489.61 97.4033 1489.11 97.5645 1488.26 97.623C1488.21 97.8574 1488.18 98.0039 1488.18 98.0625C1488.18 98.3555 1488.31 98.7217 1488.57 99.1611C1489.28 98.9561 1491.28 98.7217 1494.59 98.458C1495.82 98.0479 1496.51 97.8428 1496.66 97.8428C1496.92 97.8428 1497.45 98.0039 1498.24 98.3262C1498.18 99.0293 1498.02 99.791 1497.76 100.611L1497.54 102.853L1497.41 104.083L1497.54 105.313C1497.54 105.841 1497.42 106.588 1497.19 107.555C1497.13 107.73 1497.02 108.111 1496.88 108.697C1495.71 108.346 1494.58 108.097 1493.49 107.95L1493.45 107.994C1493.13 107.818 1492.89 107.73 1492.75 107.73L1492.13 107.774C1491.25 107.569 1490.77 107.467 1490.68 107.467C1490.36 107.467 1489.96 107.525 1489.5 107.643L1489.19 107.379C1488.89 108.082 1488.69 108.697 1488.57 109.225C1488.51 109.488 1488.26 109.767 1487.83 110.06V110.675L1486.02 111.29ZM1499.87 106.983C1500.1 105.519 1500.25 104.449 1500.31 103.775C1499.95 103.629 1499.76 103.438 1499.73 103.204C1499.73 103.146 1499.68 102.984 1499.56 102.721C1499.53 102.633 1499.51 102.545 1499.51 102.457V102.325C1500.13 101.974 1500.51 101.681 1500.66 101.446C1500.72 101.271 1500.8 100.626 1500.92 99.5127C1500.95 99.3076 1501.02 98.9268 1501.14 98.3701C1501.7 98.458 1502.17 98.502 1502.55 98.502C1502.78 98.502 1503.16 98.4141 1503.69 98.2383L1503.82 97.3154C1503.94 97.2861 1504.04 97.2715 1504.13 97.2715C1504.25 97.2715 1504.51 97.418 1504.92 97.7109C1505.62 98.2383 1506.82 98.502 1508.52 98.502H1508.88C1509.96 98.4141 1510.6 98.3701 1510.81 98.3701L1512.87 98.458C1514.31 98.4873 1515.31 98.5752 1515.86 98.7217C1515.75 99.3662 1515.57 99.9229 1515.33 100.392L1515.16 102.457L1514.98 103.731C1515.07 104.64 1515.12 105.108 1515.12 105.138C1515.12 105.636 1515.01 106.368 1514.81 107.335C1514.75 107.54 1514.66 107.95 1514.54 108.565L1512.96 108.873H1505.1L1504.35 108.785C1503.91 109.342 1503.53 109.62 1503.21 109.62C1502.88 109.62 1502.3 109.459 1501.45 109.137V108.873H1500.44L1500.13 108.565L1500 108.653H1499.87V107.643V107.335C1499.84 107.276 1499.84 107.159 1499.87 106.983ZM1534.61 89.4053C1534.67 89.6396 1534.74 90.0938 1534.83 90.7676C1534.62 91.1191 1534.46 91.3828 1534.35 91.5586C1534.14 91.793 1534.02 91.9541 1533.99 92.042L1534.04 92.3496C1534.07 93.5801 1534.18 94.5908 1534.39 95.3818L1535.09 95.4697C1534.98 95.9971 1534.92 96.4365 1534.92 96.7881C1534.92 97.2861 1535.37 97.9893 1536.28 98.8975C1536.46 99.0439 1536.76 99.3809 1537.2 99.9082C1537.52 99.9375 1537.71 99.9814 1537.77 100.04C1537.89 100.128 1538.05 100.377 1538.26 100.787C1538.64 101.578 1539.17 101.974 1539.84 101.974C1540.01 101.974 1540.23 101.944 1540.5 101.886L1541.38 102.677L1542.52 102.457C1543.25 102.926 1543.79 103.16 1544.15 103.16C1544.23 103.16 1544.31 103.146 1544.37 103.116C1544.95 102.882 1545.54 102.721 1546.12 102.633C1546.42 102.574 1547 102.413 1547.88 102.149C1548.44 101.944 1549.21 101.725 1550.21 101.49C1550.53 101.402 1550.75 101.314 1550.87 101.227C1551.37 100.699 1551.94 100.289 1552.58 99.9961C1553.61 99.5566 1554.79 98.6777 1556.14 97.3594C1556.23 96.8906 1556.36 96.5244 1556.54 96.2607C1556.6 96.29 1556.67 96.3047 1556.76 96.3047C1557.11 96.3047 1557.4 96.2021 1557.64 95.9971C1557.84 95.8213 1558.41 94.8691 1559.35 93.1406C1560.02 92.291 1560.39 91.8076 1560.45 91.6904C1560.54 91.5439 1560.61 91.251 1560.67 90.8115C1561.05 90.4014 1561.25 90.1523 1561.28 90.0645C1561.31 89.9473 1561.39 89.2588 1561.5 87.999L1561.37 86.6367C1561.43 86.0215 1561.46 85.6992 1561.46 85.6699C1561.46 85.2012 1561.33 84.6152 1561.06 83.9121C1560.71 82.9746 1560.54 82.4326 1560.54 82.2861C1560.42 81.7295 1560.26 81.3193 1560.05 81.0557H1558.82C1558.35 79.8838 1558.06 79.21 1557.94 79.0342C1557.74 78.6533 1557.3 78.2578 1556.63 77.8477L1556.41 77.7158L1555.4 81.3633L1555.09 80.2207C1554.88 79.4004 1554.34 78.8145 1553.46 78.4629C1552.79 78.1992 1552.41 77.9941 1552.32 77.8477L1551.62 76.793L1550.83 77.1006L1549.77 77.4082L1549.24 77.6279C1548.28 77.7158 1547.12 78.0088 1545.77 78.5068C1545.6 78.5654 1545.23 78.6826 1544.67 78.8584V79.2979C1544.23 79.5615 1543.65 79.9277 1542.92 80.3965C1542.12 80.8652 1541.25 81.5391 1540.28 82.418C1540.13 82.5645 1539.79 82.8721 1539.27 83.3408V83.4287L1539.53 83.7363C1538.77 83.8828 1538.14 84.3076 1537.64 85.0107C1536.67 87.2959 1535.84 88.4385 1535.14 88.4385C1534.96 88.4385 1534.76 88.4238 1534.52 88.3945C1534.49 88.541 1534.48 88.6436 1534.48 88.7021C1534.48 88.8486 1534.52 89.083 1534.61 89.4053ZM1538.08 90.0205V88.6582L1537.95 88.5264L1539.09 87.9551C1539.09 87.2812 1539.12 86.8125 1539.18 86.5488C1539.36 86.168 1539.93 85.5381 1540.89 84.6592L1542.21 83.1211C1542.92 82.9453 1543.31 82.8281 1543.4 82.7695C1543.52 82.623 1543.96 82.2861 1544.72 81.7588L1545.33 81.0557C1545.42 80.9678 1545.83 80.8652 1546.56 80.748C1547.38 80.6309 1547.95 80.5723 1548.28 80.5723C1549.42 80.5723 1550.55 80.9238 1551.66 81.627L1553.29 81.0117L1553.07 82.4619L1553.86 82.7695C1554.03 83.0039 1554.41 83.3262 1555 83.7363C1555.56 84.2051 1555.94 84.4395 1556.14 84.4395C1556.23 84.4395 1556.36 84.4248 1556.54 84.3955L1556.85 84.7031L1556.36 85.626L1557.42 87.208H1557.68C1557.59 87.5889 1557.55 87.8965 1557.55 88.1309C1557.55 88.248 1557.67 88.6729 1557.9 89.4053C1557.61 90.2549 1557.46 90.7236 1557.46 90.8115C1557.46 91.0752 1557.53 91.3975 1557.68 91.7783C1557.27 92.1885 1557.04 92.4375 1556.98 92.5254C1556.95 92.6133 1556.66 93.2578 1556.1 94.459C1556.04 94.6055 1555.92 94.7227 1555.75 94.8105C1555.34 95.0449 1554.93 95.4404 1554.52 95.9971C1554.4 96.29 1553.96 96.6855 1553.2 97.1836V97.5352C1552.58 97.6816 1552.13 97.8428 1551.84 98.0186C1551.13 98.458 1550.56 98.751 1550.12 98.8975C1548.66 99.3369 1547.59 99.5566 1546.91 99.5566C1546.45 99.5566 1546.08 99.498 1545.82 99.3809C1544.79 98.8535 1544.2 98.5898 1544.06 98.5898C1543.76 98.5898 1543.44 98.6045 1543.09 98.6338L1542.83 97.9307L1543 97.7549C1541.95 96.8467 1541.29 96.334 1541.03 96.2168C1540.76 96.0996 1540.25 96.0557 1539.49 96.085L1539.75 93.8438C1537.35 93.1992 1536.15 92.5547 1536.15 91.9102C1536.15 91.2949 1536.91 90.6943 1538.43 90.1084L1538.3 90.0205H1538.08ZM1542.61 125.396C1542.11 126.188 1541.74 127.022 1541.51 127.901C1541.92 128.224 1542.26 128.385 1542.52 128.385C1542.96 128.385 1543.46 128.238 1544.01 127.945C1544.45 127.74 1544.7 127.623 1544.76 127.594C1546.28 127.037 1547.21 126.642 1547.53 126.407C1547.85 126.173 1548.28 125.602 1548.8 124.693C1549.13 124.225 1549.29 123.917 1549.29 123.771C1549.29 123.448 1549.16 123.038 1548.89 122.54C1549.68 122.276 1550.17 121.983 1550.34 121.661C1550.52 121.339 1550.74 120.445 1551 118.98L1552.32 117.091L1553.46 113.883C1553.52 113.766 1553.8 113.458 1554.3 112.96C1554.3 111.876 1554.37 111.144 1554.52 110.763C1554.72 110.353 1555.26 110.001 1556.14 109.708C1556.64 108.302 1556.89 107.394 1556.89 106.983V106.852H1557.37C1557.84 106.178 1558.81 104.757 1560.27 102.589L1560.93 101.666L1561.37 100.611L1562.51 98.7656L1563.04 97.4473L1566.16 92.7451C1566.19 92.6865 1566.21 92.4521 1566.21 92.042V91.3828L1567.61 90.7236C1567.79 89.874 1568.04 89.2441 1568.36 88.834C1569.41 87.5156 1569.94 86.6953 1569.94 86.373C1569.94 86.3145 1569.87 86.1533 1569.72 85.8896C1569.9 85.6553 1570.07 85.4795 1570.25 85.3623C1570.37 85.2744 1570.47 85.1279 1570.56 84.9229C1570.56 84.8057 1570.73 84.5273 1571.08 84.0879C1571.58 83.4727 1571.8 83.0918 1571.74 82.9453C1571.74 82.3008 1571.85 81.8174 1572.05 81.4951C1572.7 81.4951 1573.21 81.4219 1573.59 81.2754C1573.97 80.5137 1574.56 79.5762 1575.35 78.4629C1575.61 78.1113 1575.74 77.7598 1575.74 77.4082C1575.74 76.793 1575.38 76.4854 1574.64 76.4854C1574.26 76.4854 1573.76 76.6611 1573.15 77.0127C1572.45 77.4229 1571.99 77.6426 1571.79 77.6719L1570.6 77.8037C1570.22 77.833 1569.47 78.6387 1568.36 80.2207C1568.04 80.6895 1567.88 81.1143 1567.88 81.4951C1567.88 81.7588 1567.92 82.0957 1568.01 82.5059C1567.39 82.8574 1566.98 83.1504 1566.78 83.3848C1566.6 83.5898 1566.5 84.0146 1566.47 84.6592C1566.5 84.8643 1566.48 85.2598 1566.43 85.8457L1566.51 85.9336C1566.16 86.2852 1565.96 86.5195 1565.9 86.6367C1565.46 87.3398 1565.2 87.7061 1565.11 87.7354C1564.76 87.999 1564.58 88.1748 1564.58 88.2627L1564.71 88.5264C1564.74 88.6143 1564.76 88.7168 1564.76 88.834C1564.76 89.4785 1564.49 90.1523 1563.96 90.8555C1563.23 91.8516 1562.87 92.4961 1562.87 92.7891C1562.87 93.6094 1562.85 94.0635 1562.82 94.1514C1562.68 94.5615 1562.47 94.8545 1562.21 95.0303C1560.98 95.7334 1560.36 96.4072 1560.36 97.0518C1560.36 97.3154 1560.55 97.6816 1560.93 98.1504V98.3701L1560.76 98.5898L1559.57 98.3701C1559.39 98.9854 1558.79 100.172 1557.77 101.93C1557.56 102.281 1557.34 102.706 1557.11 103.204C1556.61 104.259 1556.25 104.845 1556.01 104.962C1556.01 105.05 1555.66 105.24 1554.96 105.533C1554.87 105.738 1554.78 106.207 1554.69 106.939C1554.66 107.174 1553.75 108.521 1551.97 110.982C1551.44 111.744 1551.12 112.623 1551 113.619L1549.64 114.41V115.333C1548.88 115.831 1548.31 116.432 1547.92 117.135C1547.81 117.398 1547.72 117.574 1547.66 117.662C1547.4 118.102 1547.29 118.365 1547.35 118.453L1547.66 119.112C1546.58 120.255 1545.95 121.075 1545.77 121.573C1545.45 122.599 1545.26 123.141 1545.2 123.199C1545 123.434 1544.44 123.58 1543.53 123.639C1543.27 124.283 1542.96 124.869 1542.61 125.396ZM1556.98 115.772C1556.98 116.153 1556.74 116.622 1556.27 117.179L1556.23 117.662C1556.23 118.219 1556.45 119.156 1556.89 120.475H1557.11C1557.26 121.148 1557.33 122.027 1557.33 123.111L1558.21 123.287C1558.56 123.902 1559.19 124.591 1560.1 125.353C1560.16 125.44 1560.24 125.704 1560.36 126.144C1561.09 126.642 1561.65 126.891 1562.03 126.891C1562.15 126.891 1562.28 126.876 1562.43 126.847C1562.81 127.315 1563.1 127.564 1563.31 127.594L1564.76 127.682C1565.63 128.121 1566.12 128.341 1566.21 128.341C1566.38 128.341 1567.08 128.106 1568.32 127.638C1570.04 127.257 1571.08 127.022 1571.44 126.935C1571.96 126.729 1572.78 126.261 1573.9 125.528C1574.95 124.884 1576.04 124.181 1577.15 123.419C1577.53 123.155 1577.88 122.921 1578.2 122.716V121.749C1578.85 121.573 1579.32 121.383 1579.61 121.178C1579.9 120.973 1580.24 120.504 1580.62 119.771C1581.09 118.893 1581.43 118.321 1581.63 118.058C1582.01 117.589 1582.38 117.062 1582.73 116.476C1583.17 115.772 1583.42 115.128 1583.48 114.542C1583.54 113.429 1583.59 112.33 1583.65 111.246V111.114C1583.42 110.206 1582.92 108.609 1582.16 106.324C1581.16 106.148 1580.59 105.812 1580.44 105.313C1580.42 104.845 1580.33 104.479 1580.18 104.215C1580.12 104.156 1580.03 104.01 1579.92 103.775C1579.3 103.365 1578.72 103.146 1578.16 103.116L1575.87 102.457L1574.82 102.281L1573.72 101.93C1573.63 101.9 1573.31 102.018 1572.75 102.281C1572.52 102.398 1571.88 102.574 1570.82 102.809C1570.67 102.838 1569.84 103.087 1568.32 103.556C1568.11 103.614 1567.71 103.717 1567.13 103.863L1566.95 104.479C1566.13 104.713 1565.44 105.079 1564.89 105.577L1563.44 106.72L1562.47 107.599L1561.68 108.17C1561.39 108.58 1561.12 108.888 1560.89 109.093C1560.27 109.649 1559.94 110.016 1559.88 110.191C1559.09 111.979 1558.47 113.033 1558.03 113.355H1557.37L1556.93 113.531L1556.76 113.707C1556.85 114.381 1556.9 114.894 1556.93 115.245C1556.96 115.45 1556.98 115.626 1556.98 115.772ZM1561.46 120.475C1561.46 120.24 1561.61 119.903 1561.9 119.464C1561.02 118.937 1560.58 118.307 1560.58 117.574L1560.62 115.465C1560.62 115.406 1560.49 115.245 1560.23 114.981L1560.14 114.894V113.707C1560.61 113.473 1560.89 113.224 1560.98 112.96L1561.72 110.895C1561.78 110.807 1562.1 110.47 1562.69 109.884C1562.87 109.708 1563.26 109.283 1563.88 108.609C1564.11 108.346 1564.26 108.199 1564.32 108.17C1565.31 107.818 1565.91 107.584 1566.12 107.467C1566.41 107.262 1567 106.764 1567.88 105.973C1568.05 106.002 1568.21 106.017 1568.36 106.017C1568.71 106.017 1569.15 105.826 1569.68 105.445C1570.32 105.65 1571.16 105.768 1572.18 105.797C1572.53 105.826 1572.87 106.002 1573.19 106.324C1573.49 106.617 1573.75 106.764 1573.98 106.764H1574.29L1574.78 106.017H1575.3C1575.45 106.368 1575.52 106.69 1575.52 106.983C1575.52 107.188 1575.51 107.438 1575.48 107.73C1576.33 107.936 1576.78 108.141 1576.84 108.346C1577.02 108.404 1577.22 108.785 1577.46 109.488C1577.95 109.254 1578.35 109.137 1578.64 109.137C1578.7 109.137 1578.83 109.166 1579.04 109.225L1578.55 110.895C1578.94 111.51 1579.48 112.096 1580.18 112.652C1579.86 113.268 1579.7 113.824 1579.7 114.322H1580L1580.18 114.498C1579.83 115.348 1579.62 115.992 1579.57 116.432L1579.87 117.047C1579.05 117.926 1578.47 118.907 1578.12 119.991L1577.19 120.343C1577.02 120.812 1576.8 121.148 1576.53 121.354C1576.09 121.705 1575.74 122.101 1575.48 122.54C1574.66 122.745 1573.69 123.17 1572.58 123.814C1570.62 124.4 1569.49 124.693 1569.19 124.693C1568.96 124.693 1568.05 124.386 1566.47 123.771C1565.85 123.712 1565.42 123.624 1565.15 123.507C1565.15 123.009 1564.96 122.628 1564.58 122.364L1564.14 122.013C1563.53 121.485 1562.95 121.222 1562.43 121.222C1562.22 121.222 1561.99 121.236 1561.72 121.266C1561.55 120.914 1561.46 120.65 1561.46 120.475ZM1592.07 116.388C1591.75 117.296 1591.57 117.867 1591.54 118.102C1592.01 118.541 1592.7 119.215 1593.61 120.123C1593.76 120.24 1594.31 120.694 1595.28 121.485C1596.07 121.222 1596.64 121.09 1596.99 121.09C1597.76 121.09 1598.22 121.412 1598.4 122.057C1598.58 122.643 1598.72 123.009 1598.84 123.155C1599.57 123.214 1600.45 123.478 1601.48 123.946C1602.68 124.503 1603.69 124.781 1604.51 124.781C1604.57 124.781 1604.64 124.767 1604.73 124.737C1605.58 124.591 1606.02 124.518 1606.05 124.518C1606.43 124.518 1606.82 124.708 1607.23 125.089C1607.85 125.675 1608.16 126.173 1608.16 126.583C1608.16 126.7 1608.01 127.169 1607.72 127.989C1607.66 128.136 1607.57 128.883 1607.45 130.23C1607.45 130.406 1607.39 130.772 1607.28 131.329C1608.13 131.856 1608.83 132.12 1609.39 132.12C1610.65 132.12 1611.28 131.461 1611.28 130.143C1611.28 130.025 1611.2 129.513 1611.06 128.604V127.066L1611.01 125.484C1611.01 125.25 1611.1 124.767 1611.28 124.034H1612.02C1612.43 124.034 1613.88 123.595 1616.37 122.716L1617.78 121.397L1621.74 118.365C1623.46 116.227 1624.43 114.996 1624.64 114.674C1624.93 114.234 1625.21 113.575 1625.47 112.696C1625.71 111.993 1625.87 111.568 1625.95 111.422L1626 111.378L1625.87 109.84L1625.91 109.796L1626.7 109.884L1626.92 108.521C1626.86 108.023 1626.75 107.145 1626.57 105.885C1625.51 105.885 1624.99 105.489 1624.99 104.698C1624.99 104.317 1625.29 104.024 1625.91 103.819C1624.94 102.091 1623.52 100.729 1621.65 99.7324C1620.18 98.9414 1619.23 98.5166 1618.79 98.458C1617.77 98.3408 1617.21 98.2383 1617.12 98.1504C1616.62 97.7109 1616.32 97.4766 1616.2 97.4473C1615.99 97.418 1615.6 97.3008 1615.01 97.0957L1614.53 97.8867C1614.09 99.9375 1613.81 100.963 1613.69 100.963C1613.66 100.963 1613.61 100.758 1613.52 100.348C1613.25 99.3809 1613.12 98.4287 1613.12 97.4912V96.7881C1612.36 96.583 1611.64 96.29 1610.97 95.9092C1610.94 95.1768 1610.92 94.6494 1610.92 94.3271C1610.92 94.0635 1610.94 93.624 1610.97 93.0088V91.3828V91.3389C1611 90.9873 1610.94 90.7236 1610.79 90.5479C1610.38 89.9033 1610.18 89.4932 1610.18 89.3174C1610.79 88.7607 1611.09 88.3652 1611.06 88.1309C1610.94 87.0762 1610.88 86.4609 1610.88 86.2852V85.3623C1611.12 85.3916 1611.61 85.4795 1612.38 85.626C1613.75 85.9189 1614.97 86.0801 1616.02 86.1094C1616.4 86.959 1616.81 87.3838 1617.25 87.3838C1617.43 87.3838 1618.35 86.7832 1620.02 85.582C1620.43 85.2891 1620.72 84.8057 1620.9 84.1318C1620.2 84.0146 1619.8 83.8682 1619.71 83.6924C1619.63 83.5752 1619.54 83.3262 1619.45 82.9453C1618.6 82.916 1617.63 82.7549 1616.55 82.4619L1613.96 82.374L1613.47 82.3301L1612.24 82.5938C1611.8 82.2422 1611.54 82.0225 1611.45 81.9346C1611.07 81.583 1610.88 81.1436 1610.88 80.6162C1610.88 80.0889 1610.91 79.5615 1610.97 79.0342C1611.03 78.4775 1611.06 78.0381 1611.06 77.7158C1611.06 77.4229 1610.98 76.998 1610.84 76.4414L1609.65 76.6611L1609.61 76.5732C1608.96 76.7197 1608.62 76.8369 1608.6 76.9248C1608.33 77.0127 1607.98 77.4082 1607.54 78.1113C1608.13 78.7559 1608.42 79.459 1608.42 80.2207C1608.42 80.7188 1608.36 81.5098 1608.24 82.5938C1607.92 82.8574 1607.5 83.0332 1606.97 83.1211C1606.21 83.2676 1605.56 83.7363 1605.04 84.5273C1604.68 84.4688 1604.39 84.4395 1604.16 84.4395C1603.86 84.4395 1603.66 84.4834 1603.54 84.5713C1601.87 85.6846 1600.71 86.3877 1600.07 86.6807L1600.29 87.9111C1599.94 88.2041 1599.35 88.3652 1598.53 88.3945C1598.33 88.7754 1598.22 89.0391 1598.22 89.1855C1598.22 89.4785 1598.43 89.8887 1598.84 90.416C1598.58 91.1484 1598.39 91.4854 1598.27 91.4268C1598.21 91.6025 1597.76 91.6904 1596.91 91.6904C1596.26 92.9502 1595.94 93.7412 1595.94 94.0635C1595.94 94.21 1596.03 94.6787 1596.2 95.4697C1596.29 95.7627 1596.33 96.3779 1596.33 97.3154C1596.86 97.7256 1597.43 98.1797 1598.05 98.6777C1598.49 99.0293 1599.1 99.3809 1599.89 99.7324C1600.54 100.113 1600.92 100.318 1601.04 100.348H1601.08L1601.7 99.9082C1602.11 99.9375 1602.62 100.274 1603.23 100.919H1603.76C1604.44 100.919 1605.26 101.065 1606.22 101.358C1606.34 101.505 1606.49 101.695 1606.66 101.93C1606.84 102.193 1607.15 102.398 1607.58 102.545C1607.85 103.336 1607.98 103.863 1607.98 104.127L1607.89 106.148C1607.89 107.848 1608.02 108.976 1608.29 109.532C1608.41 109.737 1608.45 109.884 1608.42 109.972L1608.07 115.641V115.729V116.563V117.091L1607.89 119.2C1607.83 120.226 1607.8 120.812 1607.8 120.958C1607.72 121.251 1607.48 121.603 1607.1 122.013C1606.22 121.925 1605.59 121.837 1605.21 121.749C1604.74 121.632 1603.76 121.134 1602.27 120.255C1600.6 119.698 1599.67 119.332 1599.5 119.156L1598.66 118.409C1598.61 118.351 1598.39 118.307 1598 118.277C1597.83 117.779 1597.68 117.457 1597.57 117.311C1597.42 117.135 1596.91 116.725 1596.03 116.08C1595.88 115.992 1595.62 115.772 1595.24 115.421C1595.15 114.776 1595.02 114.308 1594.84 114.015C1594.64 113.663 1594.06 113.326 1593.13 113.004C1592.95 113.561 1592.83 114.132 1592.78 114.718C1592.48 114.952 1592.32 115.128 1592.29 115.245L1592.07 116.388ZM1601.34 92.6133C1601.32 92.6133 1601.23 92.4814 1601.08 92.2178C1601.34 91.0752 1601.68 90.2695 1602.09 89.8008C1603.32 88.3359 1604.26 87.3838 1604.9 86.9443C1605.75 86.3584 1606.41 86.0654 1606.88 86.0654C1607.26 86.0654 1607.72 86.124 1608.24 86.2412C1608.24 87.3252 1608.16 88.3213 1607.98 89.2295L1608.82 89.7129V90.1084C1608.82 90.5771 1608.58 91.0752 1608.11 91.6025C1608.55 92.3057 1608.77 92.8623 1608.77 93.2725C1608.77 93.7412 1608.51 94.4443 1607.98 95.3818C1606.98 95.3818 1605.93 95.2061 1604.82 94.8545L1604.33 94.7227L1603.37 93.7119L1601.34 92.6133ZM1610.18 114.938L1610.05 114.674L1609.91 114.586C1610.68 113.678 1611.06 112.975 1611.06 112.477C1611.06 112.33 1611.01 111.92 1610.92 111.246C1610.9 110.982 1610.88 110.675 1610.88 110.323C1610.88 109.825 1610.9 109.254 1610.92 108.609L1610.4 108.258L1609.91 107.247L1610.84 106.764V103.38L1611.06 103.072C1612.43 103.248 1613.33 103.395 1613.74 103.512C1614.44 103.863 1614.88 104.039 1615.06 104.039C1615.2 104.039 1615.36 103.966 1615.54 103.819C1616.01 103.409 1616.45 103.146 1616.86 103.028C1617.44 103.673 1617.78 104.449 1617.87 105.357L1618.83 105.885L1619.41 107.862C1620.84 108.683 1621.56 109.225 1621.56 109.488V109.532L1621.3 110.543L1620.29 110.411C1619.96 110.851 1619.8 111.144 1619.8 111.29L1620.02 113.619C1619.38 115.875 1618.31 117.647 1616.81 118.937C1616.37 119.229 1615.71 119.654 1614.84 120.211L1613.52 120.914C1613.4 121.002 1613.14 121.28 1612.73 121.749C1612.43 121.72 1612.21 121.705 1612.07 121.705H1611.67H1611.5C1611.2 121.705 1610.97 121.559 1610.79 121.266L1611.01 119.859V117.838L1611.28 116.256C1611.28 115.846 1610.91 115.406 1610.18 114.938ZM1636.48 123.023C1636.34 123.111 1636.09 123.448 1635.74 124.034C1636.47 124.122 1636.98 124.269 1637.27 124.474C1637.45 124.62 1637.79 125.104 1638.29 125.924L1639.47 126.979C1640.29 127.975 1640.94 128.692 1641.41 129.132C1641.9 128.722 1642.91 127.975 1644.44 126.891C1644.5 126.861 1644.76 126.451 1645.23 125.66C1645.52 125.221 1645.67 124.942 1645.67 124.825C1645.67 123.976 1645.11 123.185 1644 122.452C1642.74 121.632 1642.06 121.178 1641.98 121.09C1641.39 120.533 1640.98 120.255 1640.75 120.255C1640.51 120.255 1640.28 120.313 1640.04 120.431C1639.93 120.489 1639.5 120.899 1638.77 121.661L1636.48 123.023ZM1643.87 73.541C1643.87 73.1895 1643.69 72.8818 1643.34 72.6182C1642.75 72.8818 1642.17 73.0576 1641.58 73.1455C1640.26 73.3799 1639.03 73.9512 1637.89 74.8594C1637.1 75.5332 1636.7 76.251 1636.7 77.0127C1636.7 77.833 1637.29 78.7705 1638.46 79.8252L1638.24 81.2314V81.3193L1641.19 83.2529C1641.19 83.4287 1640.97 83.6484 1640.53 83.9121C1639.94 84.2637 1639.21 84.7617 1638.33 85.4062C1639.15 85.582 1639.65 85.7578 1639.82 85.9336C1640 86.0508 1640.1 86.373 1640.13 86.9004H1638.59V87.5596L1638.68 87.6475H1638.94C1639.03 88.3213 1639.09 90.0645 1639.12 92.877C1639.15 93.1699 1639.4 93.7412 1639.87 94.5908C1639.72 94.7959 1639.57 95.0156 1639.43 95.25C1639.25 95.5137 1639.15 95.9971 1639.12 96.7002C1639.06 98.3994 1639.03 99.4102 1639.03 99.7324C1639.03 99.8203 1639.08 100.055 1639.16 100.436L1640.48 100.304C1640.6 100.743 1640.66 101.124 1640.66 101.446C1640.66 102.003 1640.23 102.296 1639.38 102.325C1639.3 103.116 1639.12 104.552 1638.86 106.632C1638.8 107.364 1638.74 107.774 1638.68 107.862C1637.89 108.858 1637.38 109.679 1637.14 110.323C1637.79 111.026 1638.29 111.378 1638.64 111.378L1640.31 111.334C1640.54 111.334 1640.92 111.393 1641.45 111.51C1642.24 110.836 1642.74 110.221 1642.94 109.664C1643.18 109.02 1643.53 108.434 1644 107.906L1643.87 106.939C1643.78 106.5 1643.69 105.958 1643.6 105.313C1643.43 104.435 1643.12 103.688 1642.68 103.072C1643.03 102.516 1643.24 102.047 1643.29 101.666C1643.32 101.344 1643.34 100.333 1643.34 98.6338C1642.84 98.165 1642.59 97.6377 1642.59 97.0518C1642.59 96.7588 1642.72 96.0557 1642.99 94.9424L1643.16 92.2178C1643.25 90.7529 1643.29 89.9912 1643.29 89.9326C1643.29 89.8154 1643.21 89.1855 1643.03 88.043L1643.56 86.5049L1643.51 85.2305C1643.6 84.2051 1643.65 83.6631 1643.65 83.6045C1643.65 82.7549 1643.43 81.4805 1642.99 79.7812L1643.69 78.8145L1639.91 77.6719L1642.37 76.2656C1643.37 75.6797 1643.87 74.7715 1643.87 73.541ZM1651.23 123.023C1651.08 123.111 1650.84 123.448 1650.48 124.034C1651.22 124.122 1651.73 124.269 1652.02 124.474C1652.2 124.62 1652.54 125.104 1653.03 125.924L1654.22 126.979C1655.04 127.975 1655.68 128.692 1656.15 129.132C1656.65 128.722 1657.66 127.975 1659.19 126.891C1659.24 126.861 1659.51 126.451 1659.98 125.66C1660.27 125.221 1660.42 124.942 1660.42 124.825C1660.42 123.976 1659.86 123.185 1658.75 122.452C1657.49 121.632 1656.81 121.178 1656.72 121.09C1656.14 120.533 1655.73 120.255 1655.49 120.255C1655.26 120.255 1655.03 120.313 1654.79 120.431C1654.67 120.489 1654.25 120.899 1653.52 121.661L1651.23 123.023ZM1658.61 73.541C1658.61 73.1895 1658.44 72.8818 1658.09 72.6182C1657.5 72.8818 1656.92 73.0576 1656.33 73.1455C1655.01 73.3799 1653.78 73.9512 1652.64 74.8594C1651.85 75.5332 1651.45 76.251 1651.45 77.0127C1651.45 77.833 1652.04 78.7705 1653.21 79.8252L1652.99 81.2314V81.3193L1655.93 83.2529C1655.93 83.4287 1655.71 83.6484 1655.27 83.9121C1654.69 84.2637 1653.96 84.7617 1653.08 85.4062C1653.9 85.582 1654.4 85.7578 1654.57 85.9336C1654.75 86.0508 1654.85 86.373 1654.88 86.9004H1653.34V87.5596L1653.43 87.6475H1653.69C1653.78 88.3213 1653.84 90.0645 1653.87 92.877C1653.9 93.1699 1654.15 93.7412 1654.62 94.5908C1654.47 94.7959 1654.32 95.0156 1654.18 95.25C1654 95.5137 1653.9 95.9971 1653.87 96.7002C1653.81 98.3994 1653.78 99.4102 1653.78 99.7324C1653.78 99.8203 1653.82 100.055 1653.91 100.436L1655.23 100.304C1655.35 100.743 1655.41 101.124 1655.41 101.446C1655.41 102.003 1654.98 102.296 1654.13 102.325C1654.04 103.116 1653.87 104.552 1653.6 106.632C1653.55 107.364 1653.49 107.774 1653.43 107.862C1652.64 108.858 1652.12 109.679 1651.89 110.323C1652.54 111.026 1653.03 111.378 1653.38 111.378L1655.05 111.334C1655.29 111.334 1655.67 111.393 1656.2 111.51C1656.99 110.836 1657.49 110.221 1657.69 109.664C1657.93 109.02 1658.28 108.434 1658.75 107.906L1658.61 106.939C1658.53 106.5 1658.44 105.958 1658.35 105.313C1658.17 104.435 1657.87 103.688 1657.43 103.072C1657.78 102.516 1657.98 102.047 1658.04 101.666C1658.07 101.344 1658.09 100.333 1658.09 98.6338C1657.59 98.165 1657.34 97.6377 1657.34 97.0518C1657.34 96.7588 1657.47 96.0557 1657.74 94.9424L1657.91 92.2178C1658 90.7529 1658.04 89.9912 1658.04 89.9326C1658.04 89.8154 1657.96 89.1855 1657.78 88.043L1658.31 86.5049L1658.26 85.2305C1658.35 84.2051 1658.39 83.6631 1658.39 83.6045C1658.39 82.7549 1658.17 81.4805 1657.74 79.7812L1658.44 78.8145L1654.66 77.6719L1657.12 76.2656C1658.12 75.6797 1658.61 74.7715 1658.61 73.541Z" fill="white"/>
<path d="M1325.69 170.838L1463.53 183.801L1251.03 287.442L1325.69 170.838Z" fill="white"/>
</g>
<defs>
<filter id="filter0_d_822_23" x="0" y="0" width="1722" height="615.486" filterUnits="userSpaceOnUse" color-interpolation-filters="sRGB">
<feFlood flood-opacity="0" result="BackgroundImageFix"/>
<feColorMatrix in="SourceAlpha" type="matrix" values="0 0 0 0 0 0 0 0 0 0 0 0 0 0 0 0 0 0 127 0" result="hardAlpha"/>
<feOffset dx="2" dy="2"/>
<feGaussianBlur stdDeviation="1"/>
<feComposite in2="hardAlpha" operator="out"/>
<feColorMatrix type="matrix" values="0 0 0 0 0.192157 0 0 0 0 0.215686 0 0 0 0 0.278431 0 0 0 1 0"/>
<feBlend mode="normal" in2="BackgroundImageFix" result="effect1_dropShadow_822_23"/>
<feBlend mode="normal" in="SourceGraphic" in2="effect1_dropShadow_822_23" result="shape"/>
</filter>
</defs>
</svg>
