<svg width="1726" height="620" viewBox="0 0 1726 620" fill="none" xmlns="http://www.w3.org/2000/svg">
<g filter="url(#filter0_d_822_23)">
<path d="M247.35 45.7125C222.38 50.3225 203.37 58.3824 131.74 94.8724L60.3 131.172H43.02C28.23 131.172 25.74 131.752 24.78 134.442C24.4 136.362 22.09 150.382 19.79 165.742C15.95 192.242 15.37 194.162 7.88 204.922L0 216.442L4.42 255.812C6.73 277.512 9.8 297.102 11.14 299.402C12.68 301.702 21.13 309.392 30.15 316.682C43.59 327.442 47.05 331.282 48.78 337.612C52.43 351.052 60.3 364.112 71.83 376.212C91.99 396.952 112.35 404.832 142.89 403.482C159.21 402.712 163.25 401.752 175.73 395.802C183.41 392.152 194.17 385.052 199.54 380.252L209.53 371.222H244.29H279.05V391.392V411.552H322.26H365.47V493.172C365.47 568.832 365.28 574.792 362.2 576.322C360.28 577.282 349.53 580.352 338.19 583.432L317.45 588.812L0 611.282H317.45L397.72 610.902L477.8 610.322L795.44 611.282L477.8 589.202L454.37 582.672L430.75 575.952V493.762V411.572H473.96H517.17V391.412V371.242H560.19H603.21L603.98 342.822C604.56 317.092 604.94 313.632 609.74 303.642C616.46 289.052 627.98 277.142 642.39 269.262C653.91 262.922 655.45 262.732 674.65 262.732C692.51 262.732 696.16 263.312 705.76 267.922C720.16 274.642 733.03 287.892 740.33 303.252C745.32 314.012 746.28 318.612 747.24 336.862L748.2 357.792H765.1C781.23 357.792 782.19 357.602 782.96 353.372C783.54 351.072 786.61 329.562 789.68 305.552L795.44 261.762L782.96 234.492C762.6 189.942 760.88 188.782 686.75 176.302L634.71 167.472L610.13 149.232C565.57 116.002 492.02 69.1424 462.44 55.1224C438.43 43.6024 431.14 42.8325 341.45 43.0225C284.61 43.2225 256.76 43.9825 247.35 45.7125ZM345.87 108.512C347.21 124.642 348.17 139.242 348.17 140.772C348.17 143.272 342.41 156.722 297.85 153.842C270 152.112 233.32 150.192 216.04 149.232L184.74 134.442L181.86 127.722C175.52 112.552 175.33 112.932 192.42 104.482C235.05 82.9724 249.65 79.7125 303.23 79.5125L343.75 79.3224L345.87 108.512ZM440.36 84.8925C446.12 87.1925 463.02 96.4124 477.81 105.252C506.81 122.732 578.82 170.163 576.7 170.353C571.71 170.543 406.74 158.632 405.01 158.062C403.86 157.482 384.66 136.942 383.89 125.992C383.31 115.622 382.16 100.832 381.39 92.9625L380.24 78.9424L405.01 79.7125C424.8 80.4725 431.91 81.4325 440.36 84.8925ZM158.05 265.792C192.43 281.352 199.53 325.712 171.49 350.672C160.74 360.462 152.29 363.732 137.88 363.922C117.52 363.922 100.62 353.932 91.21 335.882C80.84 316.102 86.02 288.252 102.73 274.232C117.92 261.382 140.58 257.922 158.05 265.792Z" fill="white"/>
<path d="M1136.69 355.027C1124.21 358.097 1124.4 358.097 1074.85 399.197C1053.15 417.247 1033.94 433.187 1032.22 434.537C1029.34 436.837 1027.03 436.457 1016.86 432.807C1000.34 426.857 973.072 426.857 957.332 432.617C892.612 456.047 873.982 536.317 921.992 583.757C935.242 596.817 948.112 604.307 964.432 608.727C1009.18 620.247 1057 594.707 1073.51 550.537C1076.78 541.897 1077.55 535.367 1077.55 519.427C1077.55 496.957 1074.09 485.047 1062.57 468.147L1056.43 458.927L1082.55 439.527L1108.48 420.127L1109.63 432.797C1110.4 439.717 1110.98 458.147 1111.17 473.707C1111.36 496.947 1112.71 509.997 1118.85 546.687C1123.07 571.267 1128.07 595.657 1129.99 601.037L1133.64 610.637L1160.72 611.217C1182.8 611.597 1188.37 611.217 1190.68 608.717C1194.33 605.067 1198.36 587.397 1205.66 543.617C1208.73 524.797 1212.77 506.747 1214.69 503.677C1216.42 500.417 1219.11 495.807 1220.26 493.497C1224.29 486.387 1228.52 441.837 1228.52 406.887V373.857L1221.8 367.907C1211.81 359.267 1192.99 354.077 1168.03 353.117C1154.17 352.727 1143.42 353.297 1136.69 355.027ZM1011.48 474.477C1050.46 495.607 1045.86 554.177 1003.99 568.387C972.692 578.947 939.082 558.017 935.242 525.367C930.442 484.657 975.382 454.697 1011.48 474.477Z" fill="white"/>
<path d="M1167.25 232C1137.1 237.76 1118.47 267.91 1127.12 297.49C1133.46 319.77 1153.24 334.17 1177.24 334.36C1198.17 334.36 1214.3 324.38 1223.52 305.55C1236 279.82 1225.63 248.71 1200.67 236.8C1188.95 231.42 1178.39 229.69 1167.25 232Z" fill="white"/>
<path d="M1285 105.5C1285 47.234 1332.23 0 1390.5 0H1612.5C1670.77 0 1718 47.234 1718 105.5C1718 163.766 1670.77 211 1612.5 211H1390.5C1332.23 211 1285 163.766 1285 105.5Z" fill="white"/>
<path d="M1328.98 75.707V75.4141C1329.22 75.2383 1329.54 75.1113 1329.95 75.0332C1330.26 74.7402 1330.73 74.4375 1331.36 74.125C1332.21 73.6758 1332.76 73.4512 1333 73.4512C1333.15 73.4512 1333.42 73.5781 1333.79 73.832C1334.14 73.6172 1334.37 73.4609 1334.49 73.3633C1334.72 73.207 1334.95 73.0996 1335.16 73.041C1335.54 73.4121 1336.01 73.666 1336.6 73.8027C1337.71 74.0566 1338.44 74.1836 1338.77 74.1836C1338.81 74.1836 1338.85 74.1836 1338.88 74.1836C1340.13 74.0664 1340.76 74.0078 1340.76 74.0078L1342.43 75.4727C1343.11 74.6328 1343.5 74.2129 1343.6 74.2129C1343.8 74.2129 1344.09 74.3496 1344.48 74.623C1344.58 74.6816 1344.7 74.7109 1344.83 74.7109L1345.54 74.6816L1347.41 75.0039L1348.64 74.8867L1349.87 75.1211L1351.1 75.0918L1353.04 75.1504C1353.6 74.9941 1353.88 74.916 1353.88 74.916L1355.55 74.9746L1356.29 74.9453H1357.14L1359.98 74.5352C1361.35 74.6523 1362.17 74.7109 1362.44 74.7109C1363.08 74.7109 1363.52 74.6426 1363.76 74.5059C1364.05 74.3496 1364.32 74.2422 1364.58 74.1836L1369.32 73.2168C1369.34 73.3535 1369.35 73.4707 1369.35 73.5684C1369.35 73.666 1369.29 73.8418 1369.18 74.0957C1368.96 74.6035 1368.81 74.9258 1368.71 75.0625C1368.61 75.1992 1368.38 75.4238 1368.01 75.7363C1367.22 76.3809 1366.6 76.9961 1366.13 77.582C1365.82 77.1523 1365.56 76.9375 1365.37 76.9375H1364.72C1364.69 76.9375 1364.37 76.5859 1363.79 75.8828C1363.77 75.8633 1363.76 75.8535 1363.76 75.8535C1363.62 75.873 1363.43 76.2637 1363.17 77.0254V77.4941C1362.64 77.2988 1362.34 77.1426 1362.26 77.0254C1362.01 76.6738 1361.75 76.3125 1361.47 75.9414C1361.45 75.9023 1361.43 75.8828 1361.41 75.8828L1359.6 77.2305C1359.54 77.2891 1359.41 77.3184 1359.22 77.3184C1358.77 77.3184 1358.17 77.2793 1357.43 77.2012C1357.16 77.1816 1356.75 77.1523 1356.2 77.1133C1355.93 76.7031 1355.63 76.5078 1355.32 76.5273H1355.17C1354.78 76.5078 1354.54 76.498 1354.44 76.498C1354.19 76.498 1353.74 76.5957 1353.09 76.791C1352.72 76.9082 1352.21 76.9668 1351.54 76.9668C1351.27 76.9668 1350.68 76.8008 1349.78 76.4688L1348.99 76.5566H1348.14C1347.65 76.752 1347.4 76.8496 1347.38 76.8496C1347.36 76.8496 1346.43 76.6445 1344.6 76.2344L1343.87 75.3555L1342.96 76.6152L1341.35 75.1504C1341.35 75.1504 1341.19 75.4434 1340.88 76.0293C1340.58 76.5957 1340.14 76.8789 1339.56 76.8789H1339.5C1339.3 76.8984 1339.06 76.7324 1338.77 76.3809C1338.18 75.6777 1337.73 75.3262 1337.42 75.3262C1337.03 75.3262 1336.75 75.8438 1336.57 76.8789C1336.63 76.957 1336.66 76.9961 1336.66 76.9961L1333.93 79.8965L1336.51 80.6582L1336.48 81.5371V82.0059C1336.46 82.2012 1336.3 82.4941 1335.98 82.8848L1336.57 83.4707L1336.69 86.3125C1337.21 86.2734 1337.61 86.2539 1337.86 86.2539C1338.27 86.2539 1339.27 86.3906 1340.85 86.6641L1344.45 86.8105L1345.18 87.1035L1346.15 86.752C1347.01 86.9082 1347.52 86.9863 1347.67 86.9863C1347.91 86.9863 1348.2 86.8887 1348.55 86.6934C1348.61 86.6738 1348.67 86.6641 1348.73 86.6641C1348.85 86.6641 1349.06 86.752 1349.37 86.9277L1349.52 86.6055C1349.71 86.5664 1349.82 86.5469 1349.84 86.5469L1351.8 86.7812C1352.66 86.8008 1353.11 86.8105 1353.15 86.8105C1353.21 86.8105 1353.43 86.625 1353.8 86.2539L1354.06 87.3379C1354.12 87.4746 1354.22 87.543 1354.35 87.543C1354.47 87.543 1355.13 87.1621 1356.35 86.4004C1356.58 86.2441 1356.76 86.166 1356.87 86.166C1356.89 86.166 1357.27 86.2734 1358.02 86.4883C1358.09 86.5078 1358.16 86.5176 1358.22 86.5176C1358.51 86.5176 1358.86 86.4492 1359.25 86.3125C1359.85 86.0977 1361.05 85.8828 1362.85 85.668C1364.08 85.2969 1364.94 85.0723 1365.43 84.9941C1365.43 85.1309 1365.43 85.2285 1365.43 85.2871C1365.43 85.6582 1365.38 85.9316 1365.28 86.1074C1365.18 86.3027 1364.92 86.498 1364.49 86.6934L1364.64 87.6602C1364.09 87.9922 1363.56 88.3926 1363.05 88.8613C1362.47 88.8418 1362.09 88.832 1361.91 88.832C1360.9 88.793 1360.17 88.6855 1359.74 88.5098C1359.26 88.3145 1358.81 88.1387 1358.4 87.9824C1357.89 88.3145 1357.49 88.5195 1357.2 88.5977C1357.08 88.6172 1356.32 88.6367 1354.91 88.6562L1354.27 88.6855C1353.5 88.5098 1353.04 88.4219 1352.86 88.4219C1352.68 88.4219 1352.51 88.4316 1352.33 88.4512C1351.36 88.6074 1350.81 88.6855 1350.69 88.6855C1350.67 88.6855 1350.27 88.6367 1349.49 88.5391C1349.35 88.5195 1349.25 88.5098 1349.17 88.5098C1348.93 88.5098 1348.56 88.5293 1348.05 88.5684C1347.88 88.5879 1347.7 88.5977 1347.53 88.5977C1347.39 88.5977 1347.02 88.5195 1346.41 88.3633L1344.66 88.7148L1343.66 88.627L1342.66 88.7148H1341.87L1340.7 88.8027C1340.02 88.5488 1339.47 88.3828 1339.06 88.3047L1338.94 88.4512L1338.86 89.0957L1337.3 88.9199C1337.24 88.9785 1337.2 89.252 1337.16 89.7402C1337.06 90.1699 1337.01 90.4043 1337.01 90.4434C1337.01 90.6387 1337.04 90.9805 1337.1 91.4688C1337.16 92.875 1337.2 93.8418 1337.21 94.3691C1336.98 94.5449 1336.75 94.6426 1336.51 94.6621C1336.3 94.8965 1336.19 95.1113 1336.19 95.3066C1336.19 95.7559 1336.48 96.1367 1337.07 96.4492C1336.13 96.7422 1335.51 97.0742 1335.19 97.4453C1334.96 97.7383 1334.84 98.2656 1334.84 99.0273C1334.84 99.8672 1335.16 100.434 1335.81 100.727C1336.69 101.137 1337.13 101.41 1337.13 101.547C1337.13 101.547 1337.12 101.566 1337.1 101.605C1336.79 102.152 1336.63 102.562 1336.63 102.836C1336.63 103.012 1336.66 103.236 1336.72 103.51L1337.21 103.891L1337.3 104.184L1337.1 104.389C1336.82 104.408 1336.62 104.467 1336.48 104.564C1336.56 104.779 1336.75 104.984 1337.04 105.18C1337.04 105.414 1337.04 105.561 1337.04 105.619L1337.1 110.072C1337.1 110.287 1337.03 110.473 1336.89 110.629C1336.87 110.668 1336.59 110.941 1336.04 111.449C1335.96 111.508 1335.93 111.605 1335.93 111.742C1335.93 112.133 1336.31 112.367 1337.07 112.445L1337.13 114.994L1337.19 119.74C1337.3 120.424 1337.36 120.795 1337.36 120.854C1337.36 121.303 1337.07 121.742 1336.48 122.172C1336.72 123.441 1337.1 124.037 1337.62 123.959C1337.62 124.525 1337.63 124.896 1337.65 125.072C1337.73 126.283 1337.77 127.006 1337.77 127.24C1337.77 127.826 1337.6 128.119 1337.24 128.119C1337.05 128.119 1336.82 128.07 1336.57 127.973C1336.55 128.48 1336.47 128.793 1336.34 128.91C1336.3 128.949 1336.09 129.027 1335.72 129.145L1334.87 129.525L1333.64 129.906C1332.96 130.141 1332.62 130.258 1332.62 130.258C1332.46 130.258 1332.21 130.111 1331.85 129.818C1331.93 129.623 1331.97 129.496 1331.97 129.438C1331.97 129.223 1331.83 128.939 1331.56 128.588C1331.78 128.236 1332.02 127.748 1332.29 127.123C1332.61 126.654 1332.77 126.371 1332.79 126.273C1332.81 126.215 1332.82 125.961 1332.82 125.512C1333.07 124.184 1333.2 122.914 1333.2 121.703C1333.2 121.586 1333.17 121.322 1333.11 120.912C1333.23 120.814 1333.33 120.766 1333.41 120.766C1333.6 120.766 1333.83 120.824 1334.08 120.941L1333.85 120.414C1333.63 120.336 1333.48 120.297 1333.41 120.297C1333.13 120.238 1332.97 120.17 1332.91 120.092C1332.83 119.994 1332.79 119.545 1332.79 118.744C1332.79 117.514 1332.8 116.869 1332.82 116.811C1332.86 116.654 1333.04 116.449 1333.38 116.195C1333.34 116.059 1333.32 115.922 1333.32 115.785C1333.32 115.629 1333.45 115.492 1333.7 115.375L1333.79 115.463L1334.02 115.287V114.525L1333.82 114.613L1333.67 113.998C1333.57 114.018 1333.48 114.027 1333.41 114.027C1333.05 114.027 1332.88 113.861 1332.88 113.529V113.471C1332.88 113.178 1332.89 112.885 1332.91 112.592C1332.95 112.279 1332.97 111.557 1332.97 110.424C1333.16 110.014 1333.26 109.779 1333.26 109.721C1333.26 109.584 1333.2 109.398 1333.08 109.164C1333.42 108.773 1333.58 108.441 1333.58 108.168C1333.58 107.953 1333.42 107.729 1333.08 107.494C1333.06 106.986 1333.05 106.605 1333.05 106.352C1333.05 106.039 1333.06 105.756 1333.08 105.502C1333.12 105.189 1333.14 104.965 1333.14 104.828C1333.14 104.75 1333.06 104.418 1332.91 103.832C1332.83 103.598 1332.79 103.314 1332.79 102.982C1332.79 102.553 1332.99 102.25 1333.38 102.074V101.488H1333.49L1333.96 101.049L1333.67 100.053L1333.17 99.9062C1332.98 99.418 1332.86 99.1055 1332.82 98.9688C1332.78 98.8711 1332.76 98.0703 1332.76 96.5664L1332.56 95.4238L1332.47 94.4863C1332.41 93.8027 1332.38 93.4121 1332.38 93.3145C1332.38 92.9043 1332.41 92.3867 1332.47 91.7617C1332.9 91.7812 1333.13 91.7227 1333.17 91.5859C1333.21 91.5273 1333.27 91.2832 1333.35 90.8535L1332.41 88.9492C1332.57 88.4609 1332.64 88.1387 1332.64 87.9824C1332.64 87.8848 1332.56 87.4355 1332.38 86.6348L1332.21 85.0527L1331.88 83.6172L1331.77 81.8887L1331.53 80.9219L1331.68 79.9844V79.9258C1331.66 79.7109 1331.47 79.252 1331.12 78.5488C1330.98 78.2949 1330.92 77.9141 1330.92 77.4062C1330.92 77.1914 1330.93 76.8887 1330.95 76.498L1329.89 76.6738L1328.98 75.707ZM1370.22 89.916C1370.38 89.9551 1370.65 90.1211 1371.04 90.4141C1371.41 90.707 1371.62 90.8828 1371.66 90.9414C1371.7 91 1371.71 91.1758 1371.71 91.4688L1373.44 92.4648L1373.88 92.0254C1374.45 92.5527 1375.21 92.9434 1376.17 93.1973L1376.55 92.8164V92.6992L1376.23 92.6113C1376.09 92.1816 1375.98 91.6836 1375.9 91.1172C1375.77 90.6094 1375.7 90.3262 1375.7 90.2676C1375.7 90.0527 1375.85 89.6914 1376.14 89.1836C1375.22 88.9688 1374.76 88.4023 1374.76 87.4844C1374.76 87.2891 1374.85 87.1133 1375.03 86.957C1375.14 86.8594 1375.24 86.8105 1375.32 86.8105L1377.6 86.8691C1377.88 86.8691 1378.39 86.7031 1379.16 86.3711L1379.48 86.5762C1378.6 88.3926 1378.15 89.3984 1378.13 89.5938C1378.11 89.6914 1378.09 89.9453 1378.07 90.3555L1378.57 90.502C1378.47 90.8926 1378.4 91.1465 1378.37 91.2637C1378.19 91.8105 1378.1 92.2793 1378.1 92.6699C1378.1 92.8652 1378.22 93.0898 1378.45 93.3438C1378.65 93.0312 1378.84 92.8164 1379.04 92.6992C1379.21 92.582 1379.56 92.4453 1380.06 92.2891C1380.44 91.8594 1380.73 91.6543 1380.94 91.6738H1380.97L1381.68 91.8496C1381.85 90.6582 1382.37 90.0625 1383.23 90.0625C1383.31 90.0625 1383.43 90.1113 1383.61 90.209C1383.77 90.6191 1383.92 91.1855 1384.08 91.9082C1384.72 93.0215 1385.13 93.7832 1385.31 94.1934C1385.04 94.1934 1384.79 94.1934 1384.58 94.1934C1384.4 94.1934 1383.94 94.0566 1383.2 93.7832C1383.14 93.7637 1383.06 93.7539 1382.96 93.7539C1382.81 93.7539 1382.52 93.7734 1382.09 93.8125C1381.91 93.832 1381.65 93.8516 1381.29 93.8711V94.5449C1380.87 94.4863 1380.49 94.457 1380.18 94.457C1379.69 94.457 1379.11 94.6719 1378.42 95.1016V95.3359L1378.51 95.4531H1379.21C1379.74 96.0977 1380.34 96.6348 1381 97.0645L1381.09 98.0312C1381.42 97.8945 1381.7 97.8262 1381.91 97.8262C1382.3 97.8262 1382.65 98.0312 1382.96 98.4414C1383.08 98.5977 1383.14 98.7539 1383.14 98.9102C1383.14 99.0859 1383.12 99.2812 1383.08 99.4961C1382.28 99.8867 1381.76 100.189 1381.53 100.404C1381.31 100.6 1380.91 101.137 1380.33 102.016C1380.27 102.113 1380.2 102.162 1380.12 102.162C1380.04 102.162 1379.96 102.133 1379.86 102.074C1379.76 101.547 1379.67 101.205 1379.6 101.049C1379.46 100.736 1379.39 100.541 1379.39 100.463C1379.39 100.365 1379.42 100.17 1379.48 99.877C1379.48 99.8574 1379.48 99.8477 1379.48 99.8477C1379.48 99.6523 1379.37 99.3594 1379.16 98.9688C1379.06 98.793 1378.95 98.5488 1378.83 98.2363L1378.22 98.3828C1378.06 97.6602 1377.87 97.084 1377.63 96.6543C1377.46 96.3809 1377.12 96.1367 1376.61 95.9219L1376.46 96.0684L1376.72 97.0352C1376.49 97.3867 1376.35 97.6211 1376.31 97.7383C1376.02 98.3242 1375.75 98.7539 1375.49 99.0273C1375.2 99.0469 1375.05 99.125 1375.05 99.2617C1375.05 99.3203 1375.15 99.5352 1375.35 99.9062C1375.43 100.023 1375.46 100.17 1375.46 100.346C1375.46 100.736 1375.32 101.068 1375.03 101.342C1374.85 101.518 1374.64 101.605 1374.41 101.605C1374.21 101.605 1373.88 101.381 1373.41 100.932C1373.02 100.58 1372.11 100.141 1370.66 99.6133C1370.99 99.2422 1371.45 98.8711 1372.04 98.5L1372.18 98.3828L1372.68 98.4121C1372.99 98.3535 1373.44 97.9238 1374.03 97.123L1373.68 96.8887V96.7422C1374.13 96.4297 1374.43 96.2148 1374.59 96.0977C1375.25 95.6484 1375.58 95.2578 1375.58 94.9258C1375.58 94.7109 1375.47 94.6035 1375.26 94.6035H1375.2C1375.16 94.6035 1375.04 94.623 1374.85 94.6621C1374.69 94.7012 1374.6 94.7207 1374.56 94.7207C1374.52 94.7207 1374.11 94.6426 1373.33 94.4863C1373.17 94.4473 1373.01 94.4277 1372.86 94.4277C1372.72 94.4277 1372.56 94.4375 1372.39 94.457L1371.83 93.8125C1371.56 94.2812 1371.29 94.5449 1371.01 94.6035C1370.86 94.6426 1370.48 94.6914 1369.9 94.75C1369.57 94.3789 1369.4 94.0762 1369.4 93.8418C1369.4 93.7441 1369.56 93.4023 1369.87 92.8164C1369.99 92.582 1370.05 92.1035 1370.07 91.3809C1370.09 90.8926 1370.14 90.4043 1370.22 89.916ZM1394.7 103.246C1395.7 102.895 1396.51 102.348 1397.13 101.605C1396.14 101.352 1395.64 100.922 1395.64 100.316C1395.64 100.16 1395.65 99.9648 1395.67 99.7305L1394.55 99.9941C1394.34 99.623 1394.08 99.3203 1393.76 99.0859C1393.61 98.9492 1393.31 98.5781 1392.88 97.9727L1393 97.123L1392.45 96.8008L1392.94 95.5117H1392.8C1392.78 95.3164 1392.77 95.1504 1392.77 95.0137C1392.77 94.5645 1393.01 94.0664 1393.5 93.5195H1394.12C1394.29 93.1484 1394.42 92.9238 1394.5 92.8457L1395.38 92.1133L1396.25 91.2051C1396.35 91.1465 1396.59 91.0586 1396.96 90.9414L1397.25 90.2969L1398.28 90.1797C1398.55 89.7695 1398.83 89.5059 1399.12 89.3887C1399.24 89.3496 1399.68 89.2227 1400.44 89.0078L1401.21 88.6562L1401.73 88.4512C1402.88 87.8262 1403.62 87.5039 1403.93 87.4844C1404.05 87.5625 1404.39 88.0215 1404.96 88.8613L1406.33 87.4258C1406.55 87.2109 1406.86 87.1035 1407.27 87.1035C1407.72 87.1035 1408.28 87.4258 1408.94 88.0703C1409.41 88.3828 1409.66 88.5781 1409.7 88.6562C1409.74 88.7148 1409.8 88.9883 1409.88 89.4766C1409.9 89.6328 1410.07 89.9648 1410.4 90.4727C1410.25 90.8242 1410.08 91 1409.91 91C1409.81 91 1409.43 90.6289 1408.76 89.8867L1407.15 89.0664L1406.6 88.7148C1406.34 88.7148 1406.19 89.2324 1406.13 90.2676L1405.39 89.8574L1405.04 90.4434C1404.96 90.4629 1404.91 90.4727 1404.87 90.4727C1404.73 90.4727 1404.46 90.4043 1404.05 90.2676C1403.91 90.209 1403.8 90.1797 1403.72 90.1797C1403.59 90.1797 1403.37 90.2285 1403.08 90.3262C1402.9 90.3848 1402.62 90.4531 1402.23 90.5312C1401.88 90.3555 1401.62 90.2676 1401.44 90.2676C1401.34 90.2676 1401.04 90.3848 1400.53 90.6191L1399.54 90.9121L1398.92 91.2344C1398.55 91.3711 1398.29 91.4883 1398.13 91.5859C1398.01 91.6641 1397.55 92.0645 1396.75 92.7871C1395.99 93.3535 1395.59 93.6562 1395.55 93.6953C1395.53 93.7148 1395.45 93.9883 1395.32 94.5156C1395.16 95.1406 1395.04 95.5801 1394.96 95.834C1395.28 96.2441 1395.51 96.498 1395.67 96.5957C1395.94 96.8105 1396.13 97.1328 1396.22 97.5625C1396.62 97.7578 1396.87 97.9043 1396.99 98.002C1397.46 98.2949 1397.87 98.5 1398.22 98.6172C1398.39 98.6562 1399.01 98.8125 1400.06 99.0859L1400.79 99.1152L1401.73 99.4375C1402.96 99.4375 1403.8 99.4668 1404.25 99.5254C1404.54 99.5645 1404.81 99.584 1405.04 99.584C1405.22 99.584 1405.73 99.418 1406.57 99.0859L1408.27 98.998C1408.85 98.8418 1409.17 98.7637 1409.23 98.7637C1409.43 98.7637 1409.71 98.8711 1410.08 99.0859C1409.87 99.4766 1409.67 99.9844 1409.5 100.609C1409.42 100.922 1409.24 101.127 1408.97 101.225C1407.78 101.693 1407.14 101.947 1407.06 101.986C1407.01 102.006 1406.8 102.172 1406.45 102.484C1406.1 102.289 1405.82 102.084 1405.63 101.869C1405.49 101.713 1405.25 101.586 1404.9 101.488L1404.46 101.781C1404.03 100.941 1403.74 100.521 1403.61 100.521C1403.49 100.521 1403.33 100.941 1403.14 101.781C1402.73 100.961 1402.35 100.551 1402 100.551C1401.86 100.551 1401.74 100.6 1401.64 100.697L1400.27 102.338C1399.88 102.221 1399.67 102.162 1399.65 102.162C1399.44 102.162 1399.11 102.26 1398.66 102.455L1398.98 103.1L1398.86 103.217C1398.71 103.217 1398.58 103.217 1398.48 103.217C1398.17 103.217 1397.92 103.256 1397.75 103.334C1397.69 103.354 1397.37 103.578 1396.78 104.008C1395.88 104.496 1395.4 104.77 1395.35 104.828C1395.31 104.848 1395.11 105.141 1394.76 105.707C1394.45 105.98 1394.14 106.303 1393.85 106.674C1393.6 106.986 1393.19 107.23 1392.62 107.406C1392.54 107.836 1392.29 108.451 1391.86 109.252C1391.72 109.564 1391.6 109.906 1391.48 110.277C1391.46 110.414 1391.42 110.883 1391.36 111.684L1391.19 112.328L1391.45 113.061C1391.53 113.646 1391.71 114.213 1392.01 114.76C1392.06 114.877 1392.11 114.994 1392.15 115.111C1392.35 115.58 1392.67 115.961 1393.12 116.254C1393.29 116.723 1393.43 116.996 1393.53 117.074L1394.38 117.836C1395.3 118.773 1395.86 119.32 1396.08 119.477C1396.23 119.594 1396.74 119.789 1397.6 120.062C1397.76 120.102 1398.07 120.121 1398.54 120.121L1399.77 120.443H1400.68L1401.67 120.502L1402.08 120.473L1403.31 120.443L1403.93 120.18L1404.78 119.916L1405.72 119.447L1407.15 119.008C1407.48 118.871 1407.71 118.803 1407.83 118.803C1407.9 118.803 1407.99 118.803 1408.09 118.803C1408.3 118.451 1408.44 118.256 1408.5 118.217L1410.52 116.898C1410.72 116.781 1411.13 116.283 1411.75 115.404C1412.38 114.545 1412.69 113.559 1412.69 112.445C1412.69 111.801 1412.33 111.264 1411.61 110.834C1411.04 110.502 1410.75 110.326 1410.73 110.307L1410.32 109.75L1409.67 109.34L1408.68 108.461L1407.68 108.139L1406.62 107.699L1406.19 107.67L1405.69 107.348L1404.6 107.67C1403.94 107.768 1403.54 107.865 1403.4 107.963C1403.17 108.021 1402.71 108.666 1402.03 109.896C1401.97 110.033 1401.81 110.307 1401.56 110.717L1401.91 111.479C1401.91 111.928 1401.58 112.152 1400.91 112.152C1400.78 112.152 1400.63 112.143 1400.47 112.123C1400.32 111.908 1399.99 111.674 1399.51 111.42C1399.19 111.264 1399.04 110.99 1399.04 110.6C1399.04 110.189 1399.16 109.838 1399.42 109.545C1399.67 109.232 1400.23 108.734 1401.09 108.051L1402.2 107.084L1403.99 106.381L1404.72 105.971L1405.57 105.736L1406.33 105.443L1407.27 105.326L1407.97 105.238L1409 105.473L1409.5 105.531L1410.4 105.883C1410.91 106.059 1411.34 106.264 1411.69 106.498C1411.75 107.494 1412.01 107.992 1412.46 107.992C1412.55 107.992 1412.65 107.934 1412.75 107.816V107.172C1413.14 107.406 1413.39 107.562 1413.51 107.641C1414.23 108.109 1414.88 108.451 1415.44 108.666C1415.85 108.861 1416.07 108.959 1416.09 108.959C1416.32 108.959 1416.64 108.881 1417.05 108.725C1417.48 108.568 1417.84 108.393 1418.11 108.197C1418.68 107.807 1419.07 107.562 1419.28 107.465C1419.91 107.172 1420.2 106.508 1420.16 105.473L1420.34 104.389C1420.36 104.096 1420.1 103.686 1419.57 103.158C1419.3 102.885 1419.14 102.611 1419.11 102.338C1419.36 102.123 1419.98 101.869 1420.98 101.576L1421.48 102.426C1422.2 102.602 1422.68 102.787 1422.91 102.982L1423.09 103.686L1423.88 103.803C1423.84 104.213 1423.82 104.486 1423.82 104.623C1423.76 105.814 1423.59 106.625 1423.29 107.055C1423.28 107.074 1422.99 107.289 1422.45 107.699C1422.17 108.227 1421.57 108.764 1420.63 109.311L1420.16 109.662C1419.77 109.701 1419.54 109.73 1419.46 109.75C1419.4 109.789 1419.12 109.975 1418.61 110.307C1417.47 110.58 1416.82 110.785 1416.64 110.922C1416.39 111.117 1416.26 111.361 1416.26 111.654C1416.26 111.85 1416.38 112.162 1416.62 112.592C1416.26 112.846 1416.08 113.031 1416.06 113.148C1415.98 113.832 1415.84 114.359 1415.65 114.73L1414.51 114.613C1414.49 114.965 1414.63 115.316 1414.95 115.668C1414.67 115.961 1414.32 116.273 1413.89 116.605L1413.22 117.309L1412.07 117.895C1411.92 117.992 1411.7 118.256 1411.43 118.686C1411.33 118.686 1411.25 118.686 1411.2 118.686C1411.12 118.686 1410.86 118.764 1410.43 118.92L1410.32 118.949L1409.91 119.213L1408.82 119.682C1408.37 120.033 1407.57 120.453 1406.42 120.941L1404.9 121.352L1403.96 121.703L1401.59 122.025C1399.89 122.338 1399.03 122.494 1399.01 122.494C1398.81 122.494 1398.45 122.377 1397.92 122.143C1397.67 122.455 1397.46 122.611 1397.28 122.611C1397.12 122.611 1396.88 122.592 1396.55 122.553C1396.45 122.533 1396.3 122.514 1396.11 122.494C1395.44 122.436 1395.03 122.328 1394.88 122.172C1394.37 121.664 1394.01 121.342 1393.79 121.205L1393.47 121.879C1392.83 121.645 1392.27 121.322 1391.8 120.912C1391.33 120.502 1390.91 120.131 1390.54 119.799C1389.84 118.861 1389.49 118.354 1389.49 118.275C1389.49 118.256 1389.55 117.836 1389.69 117.016L1389.63 116.928L1389.52 116.635C1388.77 116.283 1388.38 116.088 1388.34 116.049C1388.29 115.99 1388.26 115.922 1388.26 115.844V115.346L1388.23 115.023C1388.79 114.945 1389.08 114.77 1389.08 114.496C1389.08 114.184 1388.86 114.027 1388.43 114.027C1388.35 114.027 1388.27 114.027 1388.17 114.027C1388.01 113.793 1387.93 113.48 1387.93 113.09C1387.93 112.934 1388.04 112.602 1388.26 112.094L1388.43 111.449L1388.81 110.775C1388.99 110.092 1389.2 109.584 1389.46 109.252C1389.83 108.803 1390.02 108.559 1390.04 108.52C1390.3 108.051 1390.44 107.807 1390.48 107.787L1390.95 107.465C1390.99 107.426 1391.11 107.279 1391.3 107.025C1391.56 106.693 1392.02 106.361 1392.68 106.029C1392.91 105.893 1393.12 105.648 1393.29 105.297C1393.49 104.867 1393.6 104.643 1393.62 104.623L1394.32 104.008C1394.54 103.832 1394.66 103.578 1394.7 103.246ZM1424.92 90.9121C1425.2 90.541 1425.57 89.9551 1426.04 89.1543C1426.64 88.334 1426.96 87.8555 1426.97 87.7188C1427.03 87.5039 1427.06 87.1621 1427.06 86.6934C1427.59 86.1855 1427.93 85.8535 1428.09 85.6973C1428.54 85.2676 1428.81 84.9258 1428.91 84.6719C1428.93 84.6328 1429.04 84.1836 1429.26 83.3242C1429.36 82.9531 1429.5 82.6895 1429.7 82.5332C1429.89 82.3574 1430.27 82.25 1430.81 82.2109L1431.02 81.0977L1431.9 80.4824L1431.98 79.3398L1432.8 78.7246C1432.79 78.5684 1432.78 78.4316 1432.78 78.3145C1432.78 78.1191 1432.82 77.9434 1432.92 77.7871C1432.94 77.748 1433.26 77.5625 1433.89 77.2305C1434.3 76.4297 1434.65 75.8633 1434.94 75.5312C1434.94 75.375 1434.94 75.248 1434.94 75.1504C1434.94 74.8379 1435.01 74.5742 1435.15 74.3594L1436.17 73.9785C1436.08 73.5098 1436.03 73.1777 1436.03 72.9824C1436.03 72.5723 1436.28 72.2402 1436.79 71.9863C1437.49 71.6543 1437.89 71.4395 1437.99 71.3418C1438.22 70.873 1438.52 70.248 1438.87 69.4668C1439.34 70.1504 1439.85 70.6875 1440.39 71.0781L1440.25 72.1621C1440.99 72.748 1441.51 73.5586 1441.8 74.5938C1442.4 74.8086 1442.77 75.0137 1442.88 75.209C1443.02 75.4434 1443.16 76.0098 1443.29 76.9082L1444.44 77.6113C1444.53 77.9824 1444.6 78.2266 1444.64 78.3438C1444.8 78.9688 1444.93 79.3008 1445.05 79.3398C1445.25 79.5547 1445.82 79.8281 1446.78 80.1602L1446.49 82.5332C1446.92 82.6113 1447.21 82.6602 1447.37 82.6797C1448.05 82.7578 1448.47 82.9141 1448.62 83.1484C1448.84 83.4609 1448.96 83.8711 1448.98 84.3789C1448.98 84.9062 1449.04 85.3457 1449.18 85.6973L1450.35 85.9902L1450.27 87.2793L1451.44 87.543C1451.65 87.9727 1452.01 88.6172 1452.52 89.4766C1452.81 89.9844 1453.01 90.3945 1453.11 90.707L1451.79 91.4688L1450.18 90.7656C1449.83 91.2344 1449.52 91.4688 1449.27 91.4688C1449.02 91.4688 1448.41 90.9805 1447.45 90.0039C1446.85 89.457 1446.53 89.1641 1446.49 89.125C1446.45 89.0859 1446.4 88.959 1446.34 88.7441C1446.26 88.5293 1446.21 88.1484 1446.19 87.6016L1444.99 87.3379C1444.82 86.9473 1444.69 86.6934 1444.61 86.5762C1444.18 85.8535 1443.97 85.2969 1443.97 84.9062C1443.97 84.7695 1443.98 84.6035 1444 84.4082L1442.85 83.9688C1442.72 83.0898 1442.55 82.4844 1442.36 82.1523C1442.28 82.0352 1441.87 81.6836 1441.12 81.0977C1440.83 80.8633 1440.66 80.6289 1440.6 80.3945C1440.58 80.3164 1440.55 79.9648 1440.51 79.3398C1440.47 79.1055 1440.3 78.8906 1440.01 78.6953L1439.72 78.5488C1439.64 78.5098 1439.48 78.4219 1439.25 78.2852L1439.13 77.2891L1438.14 76.8496L1437.93 75.707H1437.84C1437.55 76.293 1437.22 76.7129 1436.85 76.9668C1436.55 77.1816 1436.25 77.4258 1435.94 77.6992L1436.23 79.252L1435 79.7207C1434.9 80.1113 1434.85 80.375 1434.83 80.5117C1434.59 81.7227 1434.37 82.3867 1434.15 82.5039C1433.98 82.6406 1433.57 82.7188 1432.92 82.7383C1432.94 83.0508 1432.95 83.3145 1432.95 83.5293C1432.95 83.9785 1432.86 84.3203 1432.69 84.5547C1432.61 84.6523 1432.24 84.916 1431.57 85.3457C1431.12 85.6191 1430.9 86.0098 1430.9 86.5176C1430.9 86.7129 1430.91 86.9277 1430.93 87.1621L1429.82 87.6602C1429.5 89.0859 1428.94 90.209 1428.12 91.0293C1427.92 91.2051 1427.79 91.293 1427.71 91.293C1427.67 91.293 1427.29 91.1465 1426.56 90.8535C1426.39 90.7949 1426.23 90.7656 1426.1 90.7656C1425.76 90.7656 1425.37 90.8145 1424.92 90.9121ZM1455.64 109.691V109.193L1456.85 108.783V108.373C1457.14 108.178 1457.3 107.992 1457.34 107.816C1457.42 107.465 1457.56 107.055 1457.75 106.586L1457.96 106.762C1458.27 106.684 1458.54 106.645 1458.75 106.645C1458.81 106.645 1459.13 106.713 1459.72 106.85L1460.13 106.82C1460.22 106.82 1460.38 106.879 1460.6 106.996L1460.62 106.967C1461.35 107.064 1462.1 107.23 1462.88 107.465C1462.98 107.074 1463.05 106.82 1463.09 106.703C1463.24 106.059 1463.32 105.561 1463.32 105.209C1463.32 105.209 1463.29 104.936 1463.23 104.389L1463.32 103.568L1463.47 102.074C1463.64 101.527 1463.75 101.02 1463.79 100.551C1463.26 100.336 1462.91 100.229 1462.73 100.229C1462.64 100.229 1462.18 100.365 1461.36 100.639C1459.15 100.814 1457.81 100.971 1457.34 101.107C1457.17 100.814 1457.08 100.57 1457.08 100.375C1457.08 100.336 1457.1 100.238 1457.14 100.082C1457.71 100.043 1458.04 99.9355 1458.13 99.7598L1458.28 99.5254L1458.6 99.0859L1458.78 98.5879L1458.87 98.5293C1458.98 98.1191 1459.1 97.8457 1459.22 97.709C1459.38 97.7676 1459.46 97.7969 1459.48 97.7969L1460.36 97.6797L1460.89 97.8262C1462.33 98.041 1463.15 98.1777 1463.35 98.2363C1463.64 98.334 1463.97 98.4316 1464.35 98.5293C1464.4 98.1191 1464.44 97.8457 1464.46 97.709C1464.58 97.1621 1464.64 96.7422 1464.64 96.4492C1464.64 96.3516 1464.64 96.2148 1464.64 96.0391L1465.05 95.8633L1465.17 94.9551C1464.87 94.8184 1464.73 94.6816 1464.73 94.5449C1464.73 94.2324 1464.87 93.7246 1465.17 93.0215C1465.3 92.6504 1465.37 92.1328 1465.37 91.4688L1465.61 90.4434L1465.66 89.6523L1465.75 89.0957C1465.56 88.5684 1465.46 88.2949 1465.46 88.2754C1465.46 88.0215 1465.63 87.7676 1465.99 87.5137C1466.38 87.2402 1466.98 87.0547 1467.8 86.957C1467.84 87.25 1467.86 87.5039 1467.86 87.7188C1467.86 87.8164 1467.71 88.627 1467.39 90.1504L1467.33 91.4395L1467.04 92.2598C1467 93.0996 1466.97 93.5586 1466.95 93.6367C1466.95 93.7148 1466.88 93.8516 1466.72 94.0469C1466.27 94.6523 1466.04 95.0039 1466.04 95.1016C1466.04 95.2969 1466.22 95.541 1466.57 95.834L1466.16 98.4707H1466.48L1466.63 98.6172H1467.25C1467.73 98.9688 1468.11 99.1445 1468.36 99.1445C1468.59 99.1445 1468.89 98.9688 1469.24 98.6172L1471.61 98.7344L1471.73 98.6172C1471.96 98.6953 1472.14 98.7344 1472.26 98.7344L1473.11 98.6465H1475.01C1475.09 98.6465 1475.44 98.5684 1476.06 98.4121L1476.45 96.0977L1476.83 95.834L1476.88 95.1016C1476.61 94.7891 1476.47 94.5742 1476.47 94.457C1476.47 94.2227 1476.62 93.7441 1476.91 93.0215C1477.03 92.709 1477.11 92.2402 1477.15 91.6152L1477.35 90.4434L1477.41 89.6523L1477.5 89.1543C1477.3 88.5879 1477.21 88.2852 1477.21 88.2461C1477.21 88.0117 1477.38 87.7676 1477.73 87.5137C1478.12 87.2402 1478.72 87.0547 1479.52 86.957C1479.6 87.2109 1479.64 87.3477 1479.64 87.3672L1479.2 89.8574L1479.11 91.293L1478.82 92.084L1478.73 93.4609L1477.91 94.8379C1478.11 95.6582 1478.2 96.1367 1478.2 96.2734C1478.2 96.4688 1478.12 96.9961 1477.97 97.8555C1477.87 98.3828 1477.79 98.8613 1477.73 99.291C1477.87 99.291 1477.98 99.291 1478.06 99.291C1478.33 99.291 1478.56 99.2227 1478.76 99.0859C1478.94 98.7344 1479.18 98.5293 1479.49 98.4707V98.3242C1480.2 98.3242 1480.85 98.1973 1481.46 97.9434C1481.67 98.1973 1481.94 98.3535 1482.28 98.4121C1482.53 98.0605 1482.7 97.8652 1482.77 97.8262C1482.85 97.7676 1483.11 97.6895 1483.54 97.5918C1484.02 97.4941 1484.36 97.4355 1484.53 97.416H1484.56L1485.32 97.5625V97.8848L1483.86 98.8516L1483.97 99.5547L1482.6 100.316L1481.84 100.199C1481.33 100.648 1480.92 100.873 1480.61 100.873C1480.31 100.814 1479.96 100.355 1479.55 99.4961L1478.38 100.756C1478.38 100.756 1478.25 100.736 1478 100.697C1477.94 100.678 1477.89 100.668 1477.85 100.668C1477.73 100.668 1477.59 100.678 1477.41 100.697C1477.31 101.146 1477.27 101.459 1477.27 101.635C1477.23 102.162 1477.18 102.484 1477.12 102.602C1477.16 102.719 1476.89 102.914 1476.33 103.188L1476.56 104.066L1476.91 104.154C1476.86 104.564 1476.82 104.828 1476.8 104.945C1476.64 105.941 1476.55 106.977 1476.53 108.051H1476.09V108.227C1476.41 108.363 1476.65 108.432 1476.83 108.432C1477.12 108.432 1477.34 108.129 1477.5 107.523C1477.71 107.465 1477.94 107.387 1478.17 107.289C1478.86 107.25 1479.49 107.133 1480.08 106.938L1480.46 107.318L1480.75 107.406C1481.04 106.977 1481.32 106.713 1481.57 106.615C1482 106.459 1482.58 106.381 1483.3 106.381C1483.65 106.381 1483.88 106.508 1483.97 106.762L1482.54 107.846V108.607C1481.68 109.076 1481.13 109.311 1480.9 109.311C1480.82 109.311 1480.66 109.271 1480.43 109.193C1479.92 109.643 1479.49 109.867 1479.14 109.867C1479.12 109.867 1478.62 109.809 1477.65 109.691L1476.91 109.779L1476.24 109.633C1476.22 109.633 1476.16 109.652 1476.06 109.691L1475.98 109.809L1476.24 110.219C1476.08 110.746 1475.86 111.781 1475.57 113.324L1475.33 114.057V114.994L1474.92 117.865C1474.9 119.701 1474.36 120.619 1473.28 120.619C1472.91 120.619 1472.47 120.385 1471.96 119.916C1472.1 119.506 1472.18 119.232 1472.2 119.096C1472.45 118.002 1472.59 117.426 1472.61 117.367C1472.9 116.664 1473.05 116.303 1473.05 116.283L1472.96 114.848L1473.34 113.764L1473.52 112.973L1473.93 111.449C1473.98 110.824 1474.06 110.268 1474.16 109.779C1473.73 109.662 1473.14 109.604 1472.4 109.604L1470.88 109.486H1470.85H1470.79C1470.56 109.486 1470.23 109.516 1469.82 109.574C1469.45 109.652 1469.19 109.691 1469.03 109.691C1468.84 109.691 1468.31 109.594 1467.45 109.398C1467.12 109.32 1466.79 109.125 1466.46 108.812C1466.04 109.359 1465.72 109.633 1465.49 109.633C1465.39 109.633 1465.1 109.613 1464.61 109.574C1464.49 109.555 1464.34 109.545 1464.14 109.545V109.662L1464.58 110.248C1464.4 110.736 1464.18 111.693 1463.91 113.119L1463.61 114.145V115.053L1463.17 117.865C1463.15 119.701 1462.64 120.619 1461.62 120.619C1461.21 120.619 1460.85 120.473 1460.54 120.18C1460.38 120.043 1460.3 119.916 1460.3 119.799L1460.54 118.861L1460.86 117.367L1461.3 116.283L1461.21 114.994L1461.59 113.822L1461.77 113.061C1462.04 112.025 1462.2 111.303 1462.24 110.893C1462.29 110.443 1462.35 110.004 1462.41 109.574C1462.1 109.301 1461.72 108.773 1461.27 107.992L1460.01 108.959C1459.25 109.154 1458.46 109.369 1457.64 109.604L1456.61 109.75C1456.49 109.789 1456.28 109.916 1455.97 110.131L1455.64 109.691ZM1465.17 104.184C1465.13 104.633 1465.03 105.346 1464.87 106.322C1464.85 106.439 1464.85 106.518 1464.87 106.557V106.762V107.436H1464.96L1465.05 107.377L1465.25 107.582H1465.93V107.758C1466.49 107.973 1466.88 108.08 1467.1 108.08C1467.31 108.08 1467.57 107.895 1467.86 107.523L1468.36 107.582H1473.6L1474.66 107.377C1474.74 106.967 1474.79 106.693 1474.83 106.557C1474.97 105.912 1475.04 105.424 1475.04 105.092C1475.04 105.072 1475.01 104.76 1474.95 104.154L1475.07 103.305L1475.19 101.928C1475.34 101.615 1475.46 101.244 1475.54 100.814C1475.17 100.717 1474.5 100.658 1473.54 100.639L1472.17 100.58C1472.03 100.58 1471.6 100.609 1470.88 100.668C1470.76 100.668 1470.68 100.668 1470.64 100.668C1469.51 100.668 1468.71 100.492 1468.24 100.141C1467.97 99.9453 1467.79 99.8477 1467.71 99.8477C1467.66 99.8477 1467.59 99.8574 1467.51 99.877L1467.42 100.492C1467.07 100.609 1466.82 100.668 1466.66 100.668C1466.41 100.668 1466.09 100.639 1465.72 100.58C1465.64 100.951 1465.6 101.205 1465.58 101.342C1465.5 102.084 1465.44 102.514 1465.4 102.631C1465.3 102.787 1465.05 102.982 1464.64 103.217V103.305C1464.64 103.363 1464.65 103.422 1464.67 103.48C1464.75 103.656 1464.79 103.764 1464.79 103.803C1464.8 103.959 1464.93 104.086 1465.17 104.184ZM1488.18 95.5117C1488.12 95.0625 1488.07 94.7598 1488.04 94.6035C1487.98 94.3887 1487.95 94.2324 1487.95 94.1348C1487.95 94.0957 1487.96 94.0273 1487.98 93.9297C1488.13 93.9492 1488.27 93.959 1488.39 93.959C1488.86 93.959 1489.41 93.1973 1490.06 91.6738C1490.39 91.2051 1490.81 90.9219 1491.32 90.8242L1491.14 90.6191V90.5605C1491.49 90.248 1491.72 90.043 1491.81 89.9453C1492.46 89.3594 1493.04 88.9102 1493.57 88.5977C1494.06 88.2852 1494.45 88.041 1494.74 87.8652V87.5723C1495.12 87.4551 1495.36 87.377 1495.48 87.3379C1496.38 87.0059 1497.15 86.8105 1497.79 86.752L1498.14 86.6055L1498.85 86.4004L1499.37 86.1953L1499.84 86.8984C1499.9 86.9961 1500.15 87.1328 1500.6 87.3086C1501.19 87.543 1501.55 87.9336 1501.69 88.4805L1501.89 89.2422L1502.57 86.8105L1502.71 86.8984C1503.16 87.1719 1503.46 87.4355 1503.59 87.6895C1503.67 87.8066 1503.87 88.2559 1504.18 89.0371H1505C1505.13 89.2129 1505.24 89.4863 1505.32 89.8574C1505.32 89.9551 1505.44 90.3164 1505.67 90.9414C1505.85 91.4102 1505.94 91.8008 1505.94 92.1133C1505.94 92.1328 1505.92 92.3477 1505.88 92.7578L1505.96 93.666C1505.89 94.5059 1505.84 94.9648 1505.82 95.043C1505.8 95.1016 1505.66 95.2676 1505.41 95.541C1505.37 95.834 1505.32 96.0293 1505.26 96.127C1505.22 96.2051 1504.98 96.5273 1504.53 97.0938C1503.9 98.2461 1503.52 98.8809 1503.39 98.998C1503.23 99.1348 1503.04 99.2031 1502.8 99.2031C1502.74 99.2031 1502.69 99.1934 1502.65 99.1738C1502.54 99.3496 1502.45 99.5938 1502.39 99.9062C1501.49 100.785 1500.7 101.371 1500.02 101.664C1499.59 101.859 1499.21 102.133 1498.88 102.484C1498.8 102.543 1498.65 102.602 1498.44 102.66C1497.77 102.816 1497.25 102.963 1496.88 103.1C1496.3 103.275 1495.91 103.383 1495.71 103.422C1495.32 103.48 1494.93 103.588 1494.54 103.744C1494.5 103.764 1494.45 103.773 1494.39 103.773C1494.16 103.773 1493.8 103.617 1493.31 103.305L1492.55 103.451L1491.96 102.924C1491.79 102.963 1491.64 102.982 1491.52 102.982C1491.07 102.982 1490.72 102.719 1490.47 102.191C1490.33 101.918 1490.22 101.752 1490.14 101.693C1490.11 101.654 1489.98 101.625 1489.76 101.605C1489.47 101.254 1489.27 101.029 1489.15 100.932C1488.54 100.326 1488.24 99.8574 1488.24 99.5254C1488.24 99.291 1488.28 98.998 1488.36 98.6465L1487.89 98.5879C1487.75 98.0605 1487.67 97.3867 1487.65 96.5664L1487.62 96.3613C1487.64 96.3027 1487.72 96.1953 1487.86 96.0391C1487.94 95.9219 1488.04 95.7461 1488.18 95.5117ZM1490.35 94.1055V95.0137H1490.5L1490.58 95.0723C1489.57 95.4629 1489.06 95.8633 1489.06 96.2734C1489.06 96.7031 1489.86 97.1328 1491.46 97.5625L1491.29 99.0566C1491.79 99.0371 1492.14 99.0664 1492.31 99.1445C1492.49 99.2227 1492.93 99.5645 1493.63 100.17L1493.51 100.287L1493.69 100.756C1493.92 100.736 1494.14 100.727 1494.33 100.727C1494.43 100.727 1494.82 100.902 1495.51 101.254C1495.68 101.332 1495.93 101.371 1496.24 101.371C1496.69 101.371 1497.4 101.225 1498.38 100.932C1498.67 100.834 1499.05 100.639 1499.52 100.346C1499.71 100.229 1500.02 100.121 1500.43 100.023V99.7891C1500.94 99.457 1501.23 99.1934 1501.31 98.998C1501.58 98.627 1501.85 98.3633 1502.13 98.207C1502.24 98.1484 1502.32 98.0703 1502.36 97.9727C1502.73 97.1719 1502.93 96.7422 1502.95 96.6836C1502.99 96.625 1503.14 96.459 1503.42 96.1855C1503.32 95.9316 1503.27 95.7168 1503.27 95.541C1503.27 95.4824 1503.37 95.1699 1503.56 94.6035C1503.41 94.1152 1503.33 93.832 1503.33 93.7539C1503.33 93.5977 1503.36 93.3926 1503.42 93.1387H1503.24L1502.54 92.084L1502.86 91.4688L1502.65 91.2637C1502.54 91.2832 1502.45 91.293 1502.39 91.293C1502.25 91.293 1502 91.1367 1501.63 90.8242C1501.24 90.5508 1500.98 90.3359 1500.87 90.1797L1500.34 89.9746L1500.49 89.0078L1499.4 89.418C1498.66 88.9492 1497.91 88.7148 1497.15 88.7148C1496.93 88.7148 1496.55 88.7539 1496 88.832C1495.52 88.9102 1495.24 88.9785 1495.18 89.0371L1494.77 89.5059C1494.27 89.8574 1493.97 90.082 1493.89 90.1797C1493.84 90.2188 1493.57 90.2969 1493.1 90.4141L1492.22 91.4395C1491.58 92.0254 1491.2 92.4453 1491.08 92.6992C1491.04 92.875 1491.02 93.1875 1491.02 93.6367L1490.26 94.0176L1490.35 94.1055ZM1492.63 120.268C1492.79 119.682 1493.04 119.125 1493.37 118.598C1493.6 118.246 1493.81 117.855 1493.98 117.426C1494.59 117.387 1494.96 117.289 1495.1 117.133C1495.13 117.094 1495.26 116.732 1495.48 116.049C1495.59 115.717 1496.01 115.17 1496.74 114.408L1496.53 113.969C1496.49 113.91 1496.56 113.734 1496.74 113.441C1496.78 113.383 1496.83 113.266 1496.91 113.09C1497.17 112.621 1497.55 112.221 1498.05 111.889V111.273L1498.96 110.746C1499.04 110.082 1499.26 109.496 1499.61 108.988C1500.8 107.348 1501.4 106.449 1501.42 106.293C1501.48 105.805 1501.54 105.492 1501.6 105.355C1502.07 105.16 1502.3 105.033 1502.3 104.975C1502.46 104.896 1502.7 104.506 1503.04 103.803C1503.19 103.471 1503.34 103.188 1503.47 102.953C1504.16 101.781 1504.56 100.99 1504.68 100.58L1505.47 100.727L1505.58 100.58V100.434C1505.33 100.121 1505.2 99.877 1505.2 99.7012C1505.2 99.2715 1505.61 98.8223 1506.43 98.3535C1506.61 98.2363 1506.75 98.041 1506.84 97.7676C1506.86 97.709 1506.87 97.4062 1506.87 96.8594C1506.87 96.6641 1507.12 96.2344 1507.61 95.5703C1507.96 95.1016 1508.13 94.6523 1508.13 94.2227C1508.13 94.1445 1508.12 94.0762 1508.1 94.0176C1508.04 93.9004 1508.02 93.8418 1508.02 93.8418C1508.02 93.7832 1508.13 93.666 1508.37 93.4902C1508.43 93.4707 1508.6 93.2266 1508.89 92.7578C1508.93 92.6797 1509.07 92.5234 1509.3 92.2891L1509.25 92.2305C1509.29 91.8398 1509.29 91.5762 1509.28 91.4395C1509.29 91.0098 1509.36 90.7266 1509.48 90.5898C1509.62 90.4336 1509.89 90.2383 1510.3 90.0039C1510.24 89.7305 1510.21 89.5059 1510.21 89.3301C1510.21 89.0762 1510.32 88.793 1510.54 88.4805C1511.28 87.4258 1511.78 86.8887 1512.03 86.8691L1512.82 86.7812C1512.96 86.7617 1513.26 86.6152 1513.73 86.3418C1514.14 86.1074 1514.47 85.9902 1514.72 85.9902C1515.21 85.9902 1515.46 86.1953 1515.46 86.6055C1515.46 86.8398 1515.37 87.0742 1515.19 87.3086C1514.67 88.0508 1514.28 88.6758 1514.02 89.1836C1513.77 89.2812 1513.43 89.3301 1513 89.3301C1512.86 89.5449 1512.79 89.8672 1512.79 90.2969C1512.83 90.3945 1512.68 90.6484 1512.35 91.0586C1512.12 91.3516 1512 91.5371 1512 91.6152C1511.94 91.752 1511.87 91.8496 1511.79 91.9082C1511.68 91.9863 1511.56 92.1035 1511.44 92.2598C1511.54 92.4355 1511.59 92.543 1511.59 92.582C1511.59 92.7969 1511.24 93.3438 1510.54 94.2227C1510.32 94.4961 1510.15 94.916 1510.04 95.4824L1509.1 95.9219C1509.1 96.0977 1509.1 96.2441 1509.1 96.3613C1509.1 96.6348 1509.09 96.791 1509.07 96.8301L1506.99 99.9648L1506.64 100.844L1505.88 102.074L1505.58 102.777L1505.14 103.393C1504.17 104.838 1503.52 105.785 1503.21 106.234H1502.89C1502.89 106.273 1502.89 106.303 1502.89 106.322C1502.89 106.596 1502.72 107.201 1502.39 108.139C1501.8 108.334 1501.44 108.568 1501.31 108.842C1501.21 109.096 1501.16 109.584 1501.16 110.307C1500.83 110.639 1500.64 110.844 1500.6 110.922L1499.84 113.061L1498.96 114.32C1498.79 115.297 1498.64 115.893 1498.52 116.107C1498.41 116.322 1498.08 116.518 1497.56 116.693C1497.73 117.025 1497.82 117.299 1497.82 117.514C1497.82 117.611 1497.71 117.816 1497.5 118.129C1497.15 118.734 1496.86 119.115 1496.65 119.271C1496.43 119.428 1495.82 119.691 1494.8 120.062C1494.76 120.082 1494.6 120.16 1494.3 120.297C1493.93 120.492 1493.6 120.59 1493.31 120.59C1493.13 120.59 1492.91 120.482 1492.63 120.268ZM1502.48 113.119C1502.79 112.748 1502.95 112.436 1502.95 112.182C1502.95 112.084 1502.94 111.967 1502.92 111.83C1502.9 111.596 1502.86 111.254 1502.8 110.805L1502.92 110.688L1503.21 110.57H1503.65C1503.94 110.355 1504.35 109.652 1504.88 108.461C1504.92 108.344 1505.14 108.1 1505.55 107.729C1505.71 107.592 1505.89 107.387 1506.08 107.113L1506.61 106.732L1507.25 106.146L1508.22 105.385C1508.59 105.053 1509.05 104.809 1509.6 104.652L1509.71 104.242C1510.11 104.145 1510.37 104.076 1510.51 104.037C1511.52 103.725 1512.08 103.559 1512.18 103.539C1512.88 103.383 1513.31 103.266 1513.46 103.188C1513.84 103.012 1514.05 102.934 1514.11 102.953L1514.84 103.188L1515.54 103.305L1517.07 103.744C1517.44 103.764 1517.83 103.91 1518.24 104.184C1518.32 104.34 1518.38 104.438 1518.42 104.477C1518.51 104.652 1518.57 104.896 1518.59 105.209C1518.69 105.541 1519.07 105.766 1519.73 105.883C1520.24 107.406 1520.57 108.471 1520.73 109.076V109.164C1520.69 109.887 1520.65 110.619 1520.61 111.361C1520.57 111.752 1520.41 112.182 1520.12 112.65C1519.88 113.041 1519.64 113.393 1519.38 113.705C1519.25 113.881 1519.02 114.262 1518.71 114.848C1518.46 115.336 1518.23 115.648 1518.04 115.785C1517.84 115.922 1517.53 116.049 1517.1 116.166V116.811C1516.88 116.947 1516.65 117.104 1516.39 117.279C1515.65 117.787 1514.93 118.256 1514.23 118.686C1513.48 119.174 1512.94 119.486 1512.59 119.623C1512.35 119.682 1511.66 119.838 1510.51 120.092C1509.69 120.404 1509.22 120.561 1509.1 120.561C1509.04 120.561 1508.72 120.414 1508.13 120.121L1507.17 120.062C1507.03 120.043 1506.83 119.877 1506.58 119.564C1506.48 119.584 1506.39 119.594 1506.32 119.594C1506.06 119.594 1505.69 119.428 1505.2 119.096C1505.12 118.803 1505.07 118.627 1505.03 118.568C1504.42 118.061 1504 117.602 1503.77 117.191L1503.18 117.074C1503.18 116.352 1503.13 115.766 1503.04 115.316H1502.89C1502.6 114.438 1502.45 113.812 1502.45 113.441L1502.48 113.119ZM1506.23 114.643C1506.03 114.936 1505.94 115.16 1505.94 115.316C1505.94 115.434 1505.99 115.609 1506.11 115.844C1506.29 115.824 1506.44 115.814 1506.58 115.814C1506.93 115.814 1507.31 115.99 1507.72 116.342C1507.82 116.42 1507.92 116.498 1508.02 116.576C1508.27 116.752 1508.4 117.006 1508.4 117.338C1508.57 117.416 1508.87 117.475 1509.28 117.514C1510.33 117.924 1510.94 118.129 1511.09 118.129C1511.29 118.129 1512.04 117.934 1513.35 117.543C1514.09 117.113 1514.73 116.83 1515.28 116.693C1515.46 116.4 1515.69 116.137 1515.98 115.902C1516.16 115.766 1516.31 115.541 1516.42 115.229L1517.04 114.994C1517.27 114.271 1517.66 113.617 1518.21 113.031L1518.01 112.621C1518.04 112.328 1518.18 111.898 1518.42 111.332L1518.3 111.215H1518.09C1518.09 110.883 1518.2 110.512 1518.42 110.102C1517.95 109.73 1517.59 109.34 1517.33 108.93L1517.65 107.816C1517.52 107.777 1517.43 107.758 1517.39 107.758C1517.2 107.758 1516.93 107.836 1516.6 107.992C1516.44 107.523 1516.31 107.27 1516.19 107.23C1516.15 107.094 1515.85 106.957 1515.28 106.82C1515.3 106.625 1515.31 106.459 1515.31 106.322C1515.31 106.127 1515.26 105.912 1515.16 105.678H1514.81L1514.49 106.176C1514.41 106.176 1514.34 106.176 1514.29 106.176C1514.13 106.176 1513.95 106.078 1513.76 105.883C1513.54 105.668 1513.32 105.551 1513.08 105.531C1512.4 105.512 1511.84 105.434 1511.41 105.297C1511.06 105.551 1510.77 105.678 1510.54 105.678C1510.44 105.678 1510.33 105.668 1510.21 105.648C1509.63 106.176 1509.24 106.508 1509.04 106.645C1508.9 106.723 1508.5 106.879 1507.84 107.113C1507.8 107.133 1507.7 107.23 1507.55 107.406C1507.14 107.855 1506.87 108.139 1506.76 108.256C1506.37 108.646 1506.15 108.871 1506.11 108.93L1505.61 110.307C1505.55 110.482 1505.37 110.648 1505.06 110.805V111.596L1505.12 111.654C1505.29 111.83 1505.38 111.938 1505.38 111.977L1505.35 113.383C1505.35 113.871 1505.64 114.291 1506.23 114.643ZM1526.23 96.5664H1526.37L1527.34 95.3652C1527.5 95.4043 1527.61 95.4238 1527.69 95.4238C1527.96 95.4238 1528.22 95.2676 1528.45 94.9551C1528.57 94.7988 1528.63 94.6328 1528.63 94.457C1528.63 94.3008 1528.61 94.1152 1528.57 93.9004C1529.21 93.1387 1529.73 92.6602 1530.12 92.4648C1530.34 92.3477 1530.67 92.1914 1531.12 91.9961C1531.18 91.7227 1531.26 91.5078 1531.35 91.3516C1531.41 91.3125 1531.86 91.0195 1532.7 90.4727C1533.85 89.6719 1534.59 89.2715 1534.9 89.2715C1534.98 89.2715 1535.1 89.3105 1535.28 89.3887L1535.69 88.5977C1536.22 88.5586 1536.77 88.3926 1537.36 88.0996C1538.16 87.6895 1539.03 87.3379 1539.97 87.0449C1540.94 86.6738 1541.62 86.4883 1541.99 86.4883C1542.32 86.4883 1542.86 86.5762 1543.6 86.752L1544.1 86.0488C1544.31 86.2441 1544.44 86.3418 1544.48 86.3418L1546.29 85.9902C1546.9 86.0879 1547.25 86.1367 1547.35 86.1367C1547.64 86.1367 1547.94 86.0977 1548.23 86.0195C1548.62 85.9219 1548.83 85.873 1548.87 85.873L1550.16 85.9902L1550.95 85.9609C1551.64 86.1758 1552.16 86.293 1552.54 86.3125C1552.98 86.3906 1553.57 86.6543 1554.29 87.1035C1555.89 87.3379 1557.26 87.9922 1558.39 89.0664L1558.07 89.9453L1558.22 90.0918H1558.57C1558.79 89.9355 1558.92 89.8574 1558.98 89.8574C1559.16 89.8574 1559.38 90.0625 1559.65 90.4727C1559.6 90.7656 1559.57 91 1559.57 91.1758C1559.57 91.5664 1559.72 91.7617 1560.04 91.7617C1560.05 91.7617 1560.27 91.6934 1560.68 91.5566C1560.74 91.5371 1560.81 91.5273 1560.88 91.5273C1561.45 91.5273 1561.92 91.8887 1562.29 92.6113C1562.78 92.8262 1563.08 93.0215 1563.2 93.1973C1563.26 93.3145 1563.36 93.5781 1563.49 93.9883C1563.51 94.0469 1563.66 94.252 1563.93 94.6035C1564.01 94.7207 1564.15 94.9551 1564.34 95.3066C1563.54 95.3848 1562.89 95.5996 1562.38 95.9512C1562.2 96.0684 1562.12 96.2051 1562.12 96.3613C1562.12 96.5176 1562.21 96.6641 1562.41 96.8008C1562.45 96.8203 1563.01 97.084 1564.11 97.5918C1564.54 97.7871 1564.79 97.9629 1564.87 98.1191L1565.19 98.7344C1565.68 99.4961 1565.92 99.9648 1565.92 100.141C1565.92 100.336 1565.77 100.58 1565.46 100.873L1565.87 101.078C1565.96 101.527 1566.03 102.152 1566.07 102.953L1566.13 103.598L1563.46 105.238L1565.87 107.025C1565.87 107.045 1565.71 107.113 1565.4 107.23L1565.34 107.172H1564.93L1564.58 108.021C1564.93 108.588 1565.11 108.9 1565.13 108.959C1565.17 109.057 1565.19 109.242 1565.19 109.516C1564.76 109.867 1564.47 110.287 1564.31 110.775C1563.94 110.932 1563.59 111.02 1563.26 111.039C1562.71 111.059 1562.42 111.078 1562.38 111.098C1562.34 111.098 1562.01 111.195 1561.38 111.391C1561.25 111.449 1561.11 111.479 1560.97 111.479C1560.91 111.479 1560.54 111.381 1559.86 111.186L1558.45 111.098L1556.67 110.658C1555.51 110.58 1554.81 110.482 1554.56 110.365C1554.19 110.209 1553.81 110.062 1553.44 109.926V110.219C1552.99 110.277 1552.69 110.326 1552.54 110.365C1551.71 110.521 1551.21 110.6 1551.01 110.6C1550.88 110.6 1550.62 110.561 1550.25 110.482C1549.82 110.736 1549.55 110.883 1549.43 110.922C1549.33 110.961 1548.93 111.029 1548.23 111.127C1546.69 111.537 1545.5 111.762 1544.68 111.801C1543.57 111.938 1542.86 112.006 1542.54 112.006C1541.9 112.006 1541.15 111.898 1540.29 111.684L1539.94 111.186L1539.38 111.508L1538.85 110.688L1537.83 110.893C1537.54 110.404 1537.13 110.004 1536.63 109.691C1536.67 109.496 1536.69 109.33 1536.69 109.193C1536.69 109.096 1536.44 108.715 1535.95 108.051C1535.68 107.68 1535.54 107.084 1535.54 106.264C1535.54 105.482 1535.61 104.916 1535.75 104.564L1536.39 103.012C1536.78 101.918 1537.19 101.371 1537.62 101.371C1537.8 101.371 1538 101.391 1538.24 101.43L1538.33 100.111C1538.66 99.9746 1538.87 99.8672 1538.97 99.7891C1539.09 99.7109 1539.32 99.457 1539.67 99.0273C1540.1 98.5 1540.51 98.2363 1540.9 98.2363L1542.08 98.4414H1542.11L1542.6 98.2656L1542.72 97.5039C1543.68 97.1523 1544.76 96.8887 1545.97 96.7129L1546.62 97.3867L1547.41 96.8594C1547.76 96.9961 1548.38 97.1523 1549.28 97.3281C1549.71 97.5625 1550 97.6797 1550.13 97.6797C1550.27 97.6797 1550.48 97.6211 1550.78 97.5039V97.3867L1552.51 97.1816C1552.49 97.3574 1552.48 97.5137 1552.48 97.6504C1552.48 97.748 1552.5 97.8652 1552.54 98.002C1552.3 98.5098 1552.18 98.793 1552.18 98.8516C1552.18 98.9492 1552.2 99.1348 1552.24 99.4082C1552.28 99.6035 1552.31 100.131 1552.33 100.99L1552.39 101.576L1552.48 102.865L1552.51 103.393L1552.54 104.975L1552.77 106.146C1552.85 107.279 1552.93 108.061 1553 108.49C1553.26 108.412 1553.49 108.373 1553.71 108.373C1553.98 108.373 1554.38 108.383 1554.91 108.402C1554.99 108.422 1555.23 108.51 1555.64 108.666C1555.66 108.686 1555.7 108.695 1555.76 108.695C1555.82 108.695 1555.88 108.695 1555.96 108.695L1556.02 108.754C1556.06 109.105 1556.19 109.379 1556.4 109.574C1556.97 109.145 1557.44 108.93 1557.81 108.93C1557.85 108.93 1558.06 109.018 1558.45 109.193C1558.94 109.252 1559.66 109.32 1560.62 109.398C1560.62 109.242 1560.62 109.105 1560.62 108.988C1560.62 108.832 1560.78 108.344 1561.09 107.523C1561.19 106.977 1561.27 106.645 1561.32 106.527H1561.65C1561.65 106.039 1561.74 105.512 1561.94 104.945C1561.53 104.418 1561.32 103.695 1561.32 102.777C1561.32 102.66 1561.4 102.367 1561.56 101.898L1561.41 100.668C1561.41 100.531 1561.65 100.141 1562.12 99.4961C1562.15 99.4375 1562.17 99.3691 1562.17 99.291C1562.17 98.5098 1561.74 98.0605 1560.88 97.9434C1560.67 97.6699 1560.56 97.416 1560.56 97.1816C1560.56 96.9277 1560.59 96.6348 1560.65 96.3027C1560.08 95.7559 1559.72 95.3359 1559.57 95.043C1559.43 94.7891 1559.3 94.3887 1559.19 93.8418C1558.99 93.8027 1558.83 93.7148 1558.72 93.5781C1558.48 93.3242 1558.24 93.0605 1557.98 92.7871L1557.31 91.8789L1556.23 91.1465C1555.68 90.6387 1555.28 90.3457 1555.03 90.2676C1554.75 90.1895 1554.56 89.9941 1554.44 89.6816C1553.89 89.6621 1553.43 89.5938 1553.06 89.4766C1552.91 89.418 1552.08 88.9883 1550.57 88.1875L1548.29 87.8066L1546.71 87.4844L1545.12 87.5723H1543.98L1542.6 87.9238C1542.04 87.9824 1541.7 88.0312 1541.58 88.0703C1541.32 88.168 1540.96 88.4023 1540.49 88.7734C1540.18 88.6367 1539.96 88.5684 1539.82 88.5684C1539.57 88.5684 1539.21 88.7051 1538.77 88.9785C1537.52 89.7012 1536.75 90.1211 1536.48 90.2383C1536.23 90.3359 1535.95 90.3945 1535.66 90.4141C1535.04 91.332 1534.65 91.7227 1534.52 91.5859L1533.79 91.8789L1532.67 92.9922C1531.36 94.2031 1530.49 95.1211 1530.06 95.7461C1529.83 96.0977 1529.49 96.6152 1529.04 97.2988L1528.54 97.416C1528.19 97.9629 1528.01 98.4414 1528.01 98.8516C1528.01 98.9492 1528.01 99.0469 1528.01 99.1445C1527.78 99.3398 1527.64 99.6035 1527.6 99.9355L1527.43 100.082C1527.06 98.5586 1526.8 97.7871 1526.67 97.7676C1526.65 97.7676 1526.57 97.9727 1526.43 98.3828C1526.31 98.793 1526.24 99.0859 1526.2 99.2617C1526.1 99.8477 1525.88 100.404 1525.55 100.932L1525.64 101.195C1526.09 101.391 1526.36 101.576 1526.46 101.752C1526.56 101.889 1526.61 102.123 1526.61 102.455V102.807V103.422V103.451C1526.61 103.568 1526.6 103.705 1526.58 103.861C1526.56 104.018 1526.55 104.105 1526.55 104.125L1526.61 104.828L1526.64 105.326L1526.84 106.205C1526.84 106.791 1526.85 107.113 1526.87 107.172C1526.93 107.328 1527.04 107.514 1527.19 107.729C1527.41 107.982 1527.54 108.275 1527.57 108.607C1527.26 108.744 1527.11 108.91 1527.11 109.105C1527.11 109.652 1527.36 109.926 1527.87 109.926C1528 109.926 1528.17 109.916 1528.37 109.896L1529.24 110.922L1529.04 111.859C1529.41 112.113 1529.88 112.465 1530.45 112.914L1532.09 113.969C1533.08 114.75 1533.59 115.15 1533.61 115.17C1533.63 115.17 1533.78 115.199 1534.05 115.258L1534.37 115.346C1534.51 115.365 1534.79 115.424 1535.22 115.521C1535.4 115.912 1535.57 116.156 1535.75 116.254C1536.37 116.527 1537.56 116.967 1539.32 117.572C1539.63 117.963 1539.91 118.188 1540.14 118.246C1540.22 118.266 1540.55 118.285 1541.14 118.305L1545.36 118.773C1546.14 118.871 1546.69 118.92 1547 118.92C1547.15 118.92 1547.54 118.812 1548.14 118.598L1549.52 118.832L1550.1 118.803C1550.96 118.803 1551.58 118.734 1551.95 118.598C1553.18 118.07 1554.11 117.719 1554.73 117.543C1554.85 117.738 1554.95 117.836 1555.03 117.836L1555.32 117.689L1555.79 117.484C1556.02 116.82 1556.15 116.469 1556.17 116.43C1556.23 116.332 1556.38 116.176 1556.64 115.961C1556.77 115.883 1557 115.688 1557.31 115.375C1558.29 115.805 1558.78 116.322 1558.78 116.928C1558.78 117.123 1558.53 117.387 1558.04 117.719C1557.89 117.816 1557.55 118.021 1557.05 118.334L1555.82 118.891L1555.08 119.271L1554.18 119.594C1552.38 120.316 1550.58 120.678 1548.79 120.678C1548.22 120.678 1547.65 120.492 1547.09 120.121L1545.56 120.912C1545.39 120.678 1545.24 120.453 1545.12 120.238C1545.04 120.043 1544.8 119.867 1544.39 119.711C1544.14 119.926 1543.81 120.072 1543.42 120.15C1542.9 120.248 1542.6 120.307 1542.54 120.326C1542.19 120.443 1541.98 120.502 1541.9 120.502C1541.86 120.502 1541.07 120.316 1539.53 119.945C1539.2 119.789 1539 119.711 1538.94 119.711C1538.79 119.711 1538.59 119.721 1538.36 119.74C1538.12 119.76 1537.79 119.77 1537.36 119.77L1536.83 119.271C1536.46 119.35 1536.17 119.389 1535.95 119.389C1535.78 119.389 1535.25 119.262 1534.37 119.008L1533.26 118.803L1531.94 118.422C1531.41 118.344 1531.1 118.285 1531 118.246C1530.96 118.227 1530.8 118.07 1530.5 117.777C1530.27 117.543 1529.85 117.396 1529.24 117.338C1528.93 116.4 1528.75 115.766 1528.69 115.434C1528.38 114.223 1528.06 113.422 1527.75 113.031C1527.59 112.855 1527.52 112.768 1527.52 112.768C1527.3 112.826 1527.06 113.793 1526.78 115.668C1526.37 115.297 1526.18 114.975 1526.2 114.701L1526.31 113.852C1525.83 113.461 1525.48 113.246 1525.29 113.207C1524.62 112.973 1524.24 112.797 1524.15 112.68C1524.11 112.602 1523.92 112.309 1523.59 111.801C1523.59 111.527 1523.56 111.303 1523.5 111.127C1523.13 110.111 1522.94 109.574 1522.92 109.516L1522.89 108.783L1522.62 107.113L1522.68 106.41L1522.71 105.062L1523 103.803L1523.03 102.777L1523.91 100.521L1524.59 98.8809C1524.7 98.5098 1525.1 97.9629 1525.79 97.2402C1525.98 97.0254 1526.13 96.8008 1526.23 96.5664ZM1538.62 107.67C1538.89 107.748 1539.11 107.914 1539.26 108.168C1539.65 108.773 1540.49 109.398 1541.78 110.043C1542.04 110.18 1542.45 110.268 1543.01 110.307C1543.03 110.307 1543.16 110.355 1543.39 110.453C1543.73 110.57 1544.08 110.629 1544.45 110.629C1544.64 110.629 1545.42 110.6 1546.76 110.541C1548.4 110.189 1549.28 109.975 1549.4 109.896C1549.54 109.799 1549.69 109.574 1549.87 109.223C1550.1 108.695 1550.22 108.256 1550.22 107.904L1550.16 106.059C1550.14 105.297 1550.09 104.711 1550.02 104.301L1550.72 104.008C1550.64 103.617 1550.58 103.363 1550.54 103.246C1550.41 102.797 1550.32 102.221 1550.28 101.518L1550.13 100.492L1550.28 99.7012C1550.28 99.623 1550.21 99.4766 1550.07 99.2617C1549.92 99.2812 1549.64 99.3398 1549.25 99.4375C1549.06 99.4961 1548.89 99.5254 1548.76 99.5254C1548.58 99.5254 1548.13 99.3984 1547.41 99.1445C1546.53 99.0078 1545.98 98.9102 1545.77 98.8516C1545.34 98.7539 1544.97 98.7051 1544.65 98.7051C1544.48 98.7051 1544.06 98.8223 1543.39 99.0566C1542.91 99.0762 1542.59 99.0957 1542.46 99.1152C1542.24 99.1934 1541.98 99.4082 1541.67 99.7598L1541.08 99.6719C1540.9 99.8672 1540.62 100.072 1540.23 100.287C1539.86 100.482 1539.62 100.697 1539.5 100.932C1539.48 100.99 1539.39 101.225 1539.23 101.635C1539.21 101.674 1538.97 101.918 1538.5 102.367C1537.96 102.875 1537.68 103.471 1537.68 104.154C1537.68 104.994 1537.86 105.736 1538.21 106.381C1538.48 106.869 1538.62 107.211 1538.62 107.406C1538.62 107.484 1538.62 107.572 1538.62 107.67ZM1568.2 89.916C1568.35 89.9551 1568.63 90.1211 1569.02 90.4141C1569.39 90.707 1569.59 90.8828 1569.63 90.9414C1569.67 91 1569.69 91.1758 1569.69 91.4688L1571.42 92.4648L1571.86 92.0254C1572.43 92.5527 1573.19 92.9434 1574.14 93.1973L1574.53 92.8164V92.6992L1574.2 92.6113C1574.07 92.1816 1573.96 91.6836 1573.88 91.1172C1573.74 90.6094 1573.68 90.3262 1573.68 90.2676C1573.68 90.0527 1573.82 89.6914 1574.12 89.1836C1573.2 88.9688 1572.74 88.4023 1572.74 87.4844C1572.74 87.2891 1572.83 87.1133 1573 86.957C1573.12 86.8594 1573.22 86.8105 1573.29 86.8105L1575.58 86.8691C1575.85 86.8691 1576.37 86.7031 1577.13 86.3711L1577.46 86.5762C1576.58 88.3926 1576.13 89.3984 1576.11 89.5938C1576.09 89.6914 1576.07 89.9453 1576.05 90.3555L1576.55 90.502C1576.45 90.8926 1576.38 91.1465 1576.34 91.2637C1576.17 91.8105 1576.08 92.2793 1576.08 92.6699C1576.08 92.8652 1576.2 93.0898 1576.43 93.3438C1576.62 93.0312 1576.82 92.8164 1577.02 92.6992C1577.19 92.582 1577.53 92.4453 1578.04 92.2891C1578.41 91.8594 1578.71 91.6543 1578.92 91.6738H1578.95L1579.65 91.8496C1579.83 90.6582 1580.35 90.0625 1581.21 90.0625C1581.28 90.0625 1581.41 90.1113 1581.59 90.209C1581.74 90.6191 1581.9 91.1855 1582.05 91.9082C1582.7 93.0215 1583.11 93.7832 1583.29 94.1934C1583.01 94.1934 1582.77 94.1934 1582.55 94.1934C1582.38 94.1934 1581.92 94.0566 1581.18 93.7832C1581.12 93.7637 1581.04 93.7539 1580.94 93.7539C1580.79 93.7539 1580.49 93.7734 1580.06 93.8125C1579.89 93.832 1579.62 93.8516 1579.27 93.8711V94.5449C1578.84 94.4863 1578.47 94.457 1578.16 94.457C1577.67 94.457 1577.08 94.6719 1576.4 95.1016V95.3359L1576.49 95.4531H1577.19C1577.72 96.0977 1578.31 96.6348 1578.98 97.0645L1579.07 98.0312C1579.4 97.8945 1579.67 97.8262 1579.89 97.8262C1580.28 97.8262 1580.63 98.0312 1580.94 98.4414C1581.06 98.5977 1581.12 98.7539 1581.12 98.9102C1581.12 99.0859 1581.1 99.2812 1581.06 99.4961C1580.26 99.8867 1579.74 100.189 1579.51 100.404C1579.29 100.6 1578.89 101.137 1578.3 102.016C1578.25 102.113 1578.18 102.162 1578.1 102.162C1578.02 102.162 1577.93 102.133 1577.84 102.074C1577.74 101.547 1577.65 101.205 1577.57 101.049C1577.44 100.736 1577.37 100.541 1577.37 100.463C1577.37 100.365 1577.4 100.17 1577.46 99.877C1577.46 99.8574 1577.46 99.8477 1577.46 99.8477C1577.46 99.6523 1577.35 99.3594 1577.13 98.9688C1577.04 98.793 1576.93 98.5488 1576.81 98.2363L1576.2 98.3828C1576.04 97.6602 1575.84 97.084 1575.61 96.6543C1575.43 96.3809 1575.09 96.1367 1574.58 95.9219L1574.44 96.0684L1574.7 97.0352C1574.47 97.3867 1574.33 97.6211 1574.29 97.7383C1574 98.3242 1573.72 98.7539 1573.47 99.0273C1573.18 99.0469 1573.03 99.125 1573.03 99.2617C1573.03 99.3203 1573.13 99.5352 1573.32 99.9062C1573.4 100.023 1573.44 100.17 1573.44 100.346C1573.44 100.736 1573.29 101.068 1573 101.342C1572.83 101.518 1572.62 101.605 1572.39 101.605C1572.19 101.605 1571.86 101.381 1571.39 100.932C1571 100.58 1570.08 100.141 1568.64 99.6133C1568.97 99.2422 1569.43 98.8711 1570.01 98.5L1570.16 98.3828L1570.66 98.4121C1570.97 98.3535 1571.42 97.9238 1572.01 97.123L1571.65 96.8887V96.7422C1572.1 96.4297 1572.41 96.2148 1572.56 96.0977C1573.23 95.6484 1573.56 95.2578 1573.56 94.9258C1573.56 94.7109 1573.45 94.6035 1573.24 94.6035H1573.18C1573.14 94.6035 1573.02 94.623 1572.83 94.6621C1572.67 94.7012 1572.57 94.7207 1572.53 94.7207C1572.49 94.7207 1572.08 94.6426 1571.3 94.4863C1571.15 94.4473 1570.99 94.4277 1570.83 94.4277C1570.7 94.4277 1570.54 94.4375 1570.37 94.457L1569.81 93.8125C1569.54 94.2812 1569.26 94.5449 1568.99 94.6035C1568.83 94.6426 1568.46 94.6914 1567.88 94.75C1567.54 94.3789 1567.38 94.0762 1567.38 93.8418C1567.38 93.7441 1567.53 93.4023 1567.85 92.8164C1567.96 92.582 1568.03 92.1035 1568.05 91.3809C1568.07 90.8926 1568.12 90.4043 1568.2 89.916ZM1586.12 90.9121C1586.39 90.541 1586.76 89.9551 1587.23 89.1543C1587.83 88.334 1588.15 87.8555 1588.17 87.7188C1588.22 87.5039 1588.25 87.1621 1588.25 86.6934C1588.78 86.1855 1589.12 85.8535 1589.28 85.6973C1589.73 85.2676 1590 84.9258 1590.1 84.6719C1590.12 84.6328 1590.24 84.1836 1590.45 83.3242C1590.55 82.9531 1590.7 82.6895 1590.89 82.5332C1591.09 82.3574 1591.46 82.25 1592 82.2109L1592.21 81.0977L1593.09 80.4824L1593.18 79.3398L1594 78.7246C1593.98 78.5684 1593.97 78.4316 1593.97 78.3145C1593.97 78.1191 1594.02 77.9434 1594.11 77.7871C1594.13 77.748 1594.46 77.5625 1595.08 77.2305C1595.49 76.4297 1595.84 75.8633 1596.13 75.5312C1596.13 75.375 1596.13 75.248 1596.13 75.1504C1596.13 74.8379 1596.2 74.5742 1596.34 74.3594L1597.37 73.9785C1597.27 73.5098 1597.22 73.1777 1597.22 72.9824C1597.22 72.5723 1597.47 72.2402 1597.98 71.9863C1598.68 71.6543 1599.08 71.4395 1599.18 71.3418C1599.42 70.873 1599.71 70.248 1600.06 69.4668C1600.53 70.1504 1601.04 70.6875 1601.58 71.0781L1601.44 72.1621C1602.18 72.748 1602.7 73.5586 1602.99 74.5938C1603.6 74.8086 1603.96 75.0137 1604.07 75.209C1604.21 75.4434 1604.35 76.0098 1604.48 76.9082L1605.63 77.6113C1605.72 77.9824 1605.79 78.2266 1605.83 78.3438C1605.99 78.9688 1606.12 79.3008 1606.24 79.3398C1606.44 79.5547 1607.01 79.8281 1607.97 80.1602L1607.68 82.5332C1608.11 82.6113 1608.4 82.6602 1608.56 82.6797C1609.24 82.7578 1609.66 82.9141 1609.82 83.1484C1610.03 83.4609 1610.15 83.8711 1610.17 84.3789C1610.17 84.9062 1610.24 85.3457 1610.37 85.6973L1611.54 85.9902L1611.46 87.2793L1612.63 87.543C1612.84 87.9727 1613.21 88.6172 1613.71 89.4766C1614.01 89.9844 1614.2 90.3945 1614.3 90.707L1612.98 91.4688L1611.37 90.7656C1611.02 91.2344 1610.71 91.4688 1610.46 91.4688C1610.21 91.4688 1609.6 90.9805 1608.64 90.0039C1608.04 89.457 1607.72 89.1641 1607.68 89.125C1607.64 89.0859 1607.59 88.959 1607.53 88.7441C1607.45 88.5293 1607.4 88.1484 1607.38 87.6016L1606.18 87.3379C1606.01 86.9473 1605.88 86.6934 1605.8 86.5762C1605.37 85.8535 1605.16 85.2969 1605.16 84.9062C1605.16 84.7695 1605.17 84.6035 1605.19 84.4082L1604.04 83.9688C1603.91 83.0898 1603.74 82.4844 1603.55 82.1523C1603.47 82.0352 1603.06 81.6836 1602.32 81.0977C1602.02 80.8633 1601.85 80.6289 1601.79 80.3945C1601.77 80.3164 1601.74 79.9648 1601.7 79.3398C1601.66 79.1055 1601.5 78.8906 1601.2 78.6953L1600.91 78.5488C1600.83 78.5098 1600.68 78.4219 1600.44 78.2852L1600.32 77.2891L1599.33 76.8496L1599.12 75.707H1599.04C1598.74 76.293 1598.41 76.7129 1598.04 76.9668C1597.75 77.1816 1597.44 77.4258 1597.13 77.6992L1597.42 79.252L1596.19 79.7207C1596.1 80.1113 1596.04 80.375 1596.02 80.5117C1595.78 81.7227 1595.56 82.3867 1595.34 82.5039C1595.17 82.6406 1594.76 82.7188 1594.11 82.7383C1594.13 83.0508 1594.14 83.3145 1594.14 83.5293C1594.14 83.9785 1594.05 84.3203 1593.88 84.5547C1593.8 84.6523 1593.43 84.916 1592.77 85.3457C1592.32 85.6191 1592.09 86.0098 1592.09 86.5176C1592.09 86.7129 1592.1 86.9277 1592.12 87.1621L1591.01 87.6602C1590.7 89.0859 1590.13 90.209 1589.31 91.0293C1589.11 91.2051 1588.98 91.293 1588.9 91.293C1588.86 91.293 1588.48 91.1465 1587.76 90.8535C1587.58 90.7949 1587.42 90.7656 1587.29 90.7656C1586.96 90.7656 1586.56 90.8145 1586.12 90.9121ZM1619.36 113.734C1619.38 113.578 1619.49 113.197 1619.71 112.592L1619.85 111.83C1619.87 111.752 1619.98 111.635 1620.18 111.479C1620.21 111.088 1620.29 110.707 1620.41 110.336C1621.04 110.551 1621.42 110.775 1621.55 111.01C1621.67 111.205 1621.76 111.518 1621.82 111.947C1622.07 112.182 1622.25 112.328 1622.34 112.387C1622.93 112.816 1623.27 113.09 1623.37 113.207C1623.45 113.305 1623.54 113.52 1623.66 113.852C1623.92 113.871 1624.06 113.9 1624.1 113.939L1624.66 114.438C1624.78 114.555 1625.39 114.799 1626.5 115.17C1627.5 115.756 1628.15 116.088 1628.47 116.166C1628.72 116.225 1629.14 116.283 1629.73 116.342C1629.98 116.068 1630.14 115.834 1630.2 115.639C1630.2 115.541 1630.21 115.15 1630.25 114.467L1630.37 113.061V112.709V112.152V112.094L1630.61 108.314C1630.62 108.256 1630.6 108.158 1630.52 108.021C1630.34 107.65 1630.25 106.898 1630.25 105.766L1630.31 104.418C1630.31 104.242 1630.22 103.891 1630.05 103.363C1629.76 103.266 1629.55 103.129 1629.43 102.953C1629.32 102.797 1629.22 102.67 1629.14 102.572C1628.5 102.377 1627.95 102.279 1627.5 102.279C1627.4 102.279 1627.29 102.279 1627.15 102.279C1626.74 101.85 1626.4 101.625 1626.12 101.605L1625.71 101.898H1625.68C1625.61 101.879 1625.35 101.742 1624.92 101.488C1624.39 101.254 1623.98 101.02 1623.69 100.785C1623.28 100.453 1622.9 100.15 1622.55 99.877C1622.55 99.252 1622.52 98.8418 1622.46 98.6465C1622.34 98.1191 1622.29 97.8066 1622.29 97.709C1622.29 97.4941 1622.5 96.9668 1622.93 96.127C1623.5 96.127 1623.8 96.0684 1623.84 95.9512C1623.92 95.9902 1624.04 95.7656 1624.22 95.2773C1623.95 94.9258 1623.81 94.6523 1623.81 94.457C1623.81 94.3594 1623.88 94.1836 1624.01 93.9297C1624.56 93.9102 1624.95 93.8027 1625.19 93.6074L1625.04 92.7871C1625.47 92.5918 1626.24 92.123 1627.35 91.3809C1627.43 91.3223 1627.57 91.293 1627.76 91.293C1627.92 91.293 1628.12 91.3125 1628.35 91.3516C1628.7 90.8242 1629.13 90.5117 1629.64 90.4141C1629.99 90.3555 1630.27 90.2383 1630.49 90.0625C1630.57 89.3398 1630.61 88.8125 1630.61 88.4805C1630.61 87.9727 1630.41 87.5039 1630.02 87.0742C1630.31 86.6055 1630.55 86.3418 1630.72 86.2832C1630.74 86.2246 1630.97 86.1465 1631.4 86.0488L1631.43 86.1074L1632.22 85.9609C1632.31 86.332 1632.36 86.6152 1632.36 86.8105C1632.36 87.0254 1632.34 87.3184 1632.3 87.6895C1632.27 88.041 1632.25 88.3926 1632.25 88.7441C1632.25 89.0957 1632.37 89.3887 1632.63 89.623C1632.69 89.6816 1632.86 89.8281 1633.15 90.0625L1633.97 89.8867L1634.3 89.916L1636.03 89.9746C1636.75 90.1699 1637.39 90.2773 1637.96 90.2969C1638.02 90.5508 1638.08 90.7168 1638.13 90.7949C1638.19 90.9121 1638.46 91.0098 1638.93 91.0879C1638.81 91.5371 1638.61 91.8594 1638.34 92.0547C1637.23 92.8555 1636.61 93.2559 1636.49 93.2559C1636.2 93.2559 1635.93 92.9727 1635.67 92.4062C1634.97 92.3867 1634.16 92.2793 1633.24 92.084C1632.73 91.9863 1632.4 91.9277 1632.25 91.9082C1632.25 92.1621 1632.25 92.3672 1632.25 92.5234C1632.25 92.6406 1632.29 93.0508 1632.36 93.7539C1632.38 93.9102 1632.19 94.1738 1631.78 94.5449C1631.78 94.6621 1631.91 94.9355 1632.19 95.3652C1632.29 95.4824 1632.32 95.6582 1632.3 95.8926V95.9219C1632.3 96.1953 1632.3 96.5566 1632.3 97.0059C1632.29 97.416 1632.28 97.709 1632.28 97.8848C1632.28 98.0996 1632.29 98.4512 1632.3 98.9395C1632.75 99.1934 1633.23 99.3887 1633.74 99.5254C1633.74 99.7402 1633.74 99.8965 1633.74 99.9941C1633.74 100.619 1633.83 101.254 1634 101.898C1634.06 102.172 1634.1 102.309 1634.12 102.309C1634.2 102.309 1634.38 101.625 1634.68 100.258L1635 99.7305C1635.39 99.8672 1635.65 99.9453 1635.79 99.9648C1635.87 99.9844 1636.07 100.141 1636.41 100.434C1636.46 100.492 1636.84 100.561 1637.52 100.639C1637.81 100.678 1638.45 100.961 1639.42 101.488C1640.67 102.152 1641.62 103.061 1642.27 104.213C1641.86 104.35 1641.65 104.545 1641.65 104.799C1641.65 105.326 1642 105.59 1642.71 105.59C1642.82 106.43 1642.9 107.016 1642.94 107.348L1642.79 108.256L1642.27 108.197C1642.25 108.217 1642.24 108.227 1642.24 108.227L1642.32 109.252C1642.32 109.252 1642.31 109.262 1642.29 109.281C1642.24 109.379 1642.13 109.662 1641.97 110.131C1641.8 110.717 1641.61 111.156 1641.42 111.449C1641.28 111.664 1640.63 112.484 1639.48 113.91L1636.85 115.932L1635.91 116.811C1634.25 117.396 1633.28 117.689 1633.01 117.689C1632.85 117.689 1632.69 117.689 1632.51 117.689C1632.39 118.178 1632.33 118.5 1632.33 118.656L1632.36 119.711V120.736C1632.46 121.342 1632.51 121.684 1632.51 121.762C1632.51 122.641 1632.09 123.08 1631.25 123.08C1630.88 123.08 1630.41 122.904 1629.84 122.553C1629.92 122.182 1629.96 121.938 1629.96 121.82C1630.04 120.922 1630.1 120.424 1630.14 120.326C1630.33 119.779 1630.43 119.467 1630.43 119.389C1630.43 119.115 1630.22 118.783 1629.81 118.393C1629.54 118.139 1629.28 118.012 1629.02 118.012C1629 118.012 1628.71 118.061 1628.14 118.158C1628.09 118.178 1628.04 118.188 1628 118.188C1627.45 118.188 1626.78 118.002 1625.98 117.631C1625.29 117.318 1624.71 117.143 1624.22 117.104C1624.14 117.006 1624.04 116.762 1623.93 116.371C1623.81 115.941 1623.5 115.727 1622.99 115.727C1622.75 115.727 1622.37 115.814 1621.85 115.99C1621.2 115.463 1620.83 115.16 1620.73 115.082C1620.13 114.477 1619.67 114.027 1619.36 113.734ZM1625.71 96.4785C1625.81 96.6543 1625.87 96.7422 1625.89 96.7422L1627.24 97.4746L1627.88 98.1484L1628.2 98.2363C1628.95 98.4707 1629.65 98.5879 1630.31 98.5879C1630.66 97.9629 1630.84 97.4941 1630.84 97.1816C1630.84 96.9082 1630.69 96.5371 1630.4 96.0684C1630.71 95.7168 1630.87 95.3848 1630.87 95.0723C1630.87 94.9941 1630.87 94.9062 1630.87 94.8086L1630.31 94.4863C1630.43 93.8809 1630.49 93.2168 1630.49 92.4941C1630.14 92.416 1629.83 92.377 1629.58 92.377C1629.27 92.377 1628.83 92.5723 1628.26 92.9629C1627.83 93.2559 1627.21 93.8906 1626.39 94.8672C1626.11 95.1797 1625.89 95.7168 1625.71 96.4785ZM1631.69 111.449L1631.78 111.625C1632.27 111.938 1632.51 112.23 1632.51 112.504L1632.33 113.559V114.906L1632.19 115.844C1632.3 116.039 1632.46 116.137 1632.66 116.137H1632.77H1633.04C1633.13 116.137 1633.28 116.146 1633.48 116.166C1633.75 115.854 1633.93 115.668 1634 115.609L1634.88 115.141C1635.47 114.77 1635.91 114.486 1636.2 114.291C1637.2 113.432 1637.91 112.25 1638.34 110.746L1638.19 109.193C1638.19 109.096 1638.3 108.9 1638.52 108.607L1639.19 108.695L1639.37 108.021V107.992C1639.37 107.816 1638.89 107.455 1637.93 106.908L1637.55 105.59L1636.9 105.238C1636.85 104.633 1636.62 104.115 1636.23 103.686C1635.96 103.764 1635.66 103.939 1635.35 104.213C1635.23 104.311 1635.13 104.359 1635.03 104.359C1634.91 104.359 1634.62 104.242 1634.15 104.008C1633.88 103.93 1633.28 103.832 1632.36 103.715L1632.22 103.92V106.176L1631.6 106.498L1631.92 107.172L1632.28 107.406C1632.26 107.836 1632.25 108.217 1632.25 108.549C1632.25 108.783 1632.26 108.988 1632.28 109.164C1632.33 109.613 1632.36 109.887 1632.36 109.984C1632.36 110.316 1632.11 110.785 1631.6 111.391L1631.69 111.449ZM1648.82 117.689C1649.05 117.299 1649.22 117.074 1649.31 117.016L1650.84 116.107C1651.33 115.6 1651.61 115.326 1651.69 115.287C1651.84 115.209 1652 115.17 1652.16 115.17C1652.31 115.17 1652.59 115.355 1652.98 115.727C1653.04 115.785 1653.48 116.088 1654.32 116.635C1655.07 117.123 1655.44 117.65 1655.44 118.217C1655.44 118.295 1655.34 118.48 1655.14 118.773C1654.83 119.301 1654.66 119.574 1654.62 119.594C1653.6 120.316 1652.93 120.814 1652.6 121.088C1652.28 120.795 1651.85 120.316 1651.31 119.652L1650.52 118.949C1650.18 118.402 1649.96 118.08 1649.84 117.982C1649.65 117.846 1649.3 117.748 1648.82 117.689ZM1653.88 83.4121C1654.12 83.5879 1654.24 83.793 1654.24 84.0273C1654.24 84.8477 1653.9 85.4531 1653.24 85.8438L1651.6 86.7812L1654.12 87.543L1653.65 88.1875C1653.94 89.3203 1654.09 90.1699 1654.09 90.7363C1654.09 90.7754 1654.06 91.1367 1654 91.8203L1654.03 92.6699L1653.68 93.6953C1653.8 94.457 1653.86 94.877 1653.86 94.9551C1653.86 94.9941 1653.83 95.502 1653.77 96.4785L1653.65 98.2949C1653.47 99.0371 1653.39 99.5059 1653.39 99.7012C1653.39 100.092 1653.55 100.443 1653.88 100.756C1653.88 101.889 1653.88 102.562 1653.86 102.777C1653.82 103.031 1653.68 103.344 1653.45 103.715C1653.74 104.125 1653.94 104.623 1654.06 105.209C1654.12 105.639 1654.18 106 1654.24 106.293L1654.32 106.938C1654.01 107.289 1653.78 107.68 1653.62 108.109C1653.48 108.48 1653.15 108.891 1652.62 109.34C1652.27 109.262 1652.02 109.223 1651.86 109.223L1650.75 109.252C1650.52 109.252 1650.18 109.018 1649.75 108.549C1649.91 108.119 1650.25 107.572 1650.78 106.908C1650.82 106.85 1650.86 106.576 1650.9 106.088C1651.07 104.701 1651.19 103.744 1651.25 103.217C1651.81 103.197 1652.1 103.002 1652.1 102.631C1652.1 102.416 1652.06 102.162 1651.98 101.869L1651.1 101.957C1651.04 101.703 1651.01 101.547 1651.01 101.488C1651.01 101.273 1651.03 100.6 1651.07 99.4668C1651.09 98.998 1651.16 98.6758 1651.28 98.5C1651.38 98.3438 1651.47 98.1973 1651.57 98.0605C1651.26 97.4941 1651.09 97.1133 1651.07 96.918C1651.05 95.043 1651.01 93.8809 1650.96 93.4316H1650.78L1650.72 93.373V92.9336H1651.75C1651.73 92.582 1651.66 92.3672 1651.54 92.2891C1651.42 92.1719 1651.09 92.0547 1650.54 91.9375C1651.13 91.5078 1651.62 91.1758 1652.01 90.9414C1652.3 90.7656 1652.45 90.6191 1652.45 90.502L1650.49 89.2129V89.1543L1650.63 88.2168C1649.85 87.5137 1649.46 86.8887 1649.46 86.3418C1649.46 85.834 1649.72 85.3555 1650.25 84.9062C1651.01 84.3008 1651.83 83.9199 1652.71 83.7637C1653.1 83.7051 1653.49 83.5879 1653.88 83.4121ZM1658.65 117.689C1658.88 117.299 1659.05 117.074 1659.15 117.016L1660.67 116.107C1661.16 115.6 1661.44 115.326 1661.52 115.287C1661.68 115.209 1661.83 115.17 1661.99 115.17C1662.14 115.17 1662.42 115.355 1662.81 115.727C1662.87 115.785 1663.32 116.088 1664.16 116.635C1664.9 117.123 1665.27 117.65 1665.27 118.217C1665.27 118.295 1665.17 118.48 1664.98 118.773C1664.66 119.301 1664.49 119.574 1664.45 119.594C1663.43 120.316 1662.76 120.814 1662.43 121.088C1662.12 120.795 1661.69 120.316 1661.14 119.652L1660.35 118.949C1660.02 118.402 1659.79 118.08 1659.67 117.982C1659.48 117.846 1659.14 117.748 1658.65 117.689ZM1663.72 83.4121C1663.95 83.5879 1664.07 83.793 1664.07 84.0273C1664.07 84.8477 1663.74 85.4531 1663.07 85.8438L1661.43 86.7812L1663.95 87.543L1663.48 88.1875C1663.78 89.3203 1663.92 90.1699 1663.92 90.7363C1663.92 90.7754 1663.89 91.1367 1663.83 91.8203L1663.86 92.6699L1663.51 93.6953C1663.63 94.457 1663.69 94.877 1663.69 94.9551C1663.69 94.9941 1663.66 95.502 1663.6 96.4785L1663.48 98.2949C1663.31 99.0371 1663.22 99.5059 1663.22 99.7012C1663.22 100.092 1663.38 100.443 1663.72 100.756C1663.72 101.889 1663.71 102.562 1663.69 102.777C1663.65 103.031 1663.51 103.344 1663.28 103.715C1663.57 104.125 1663.78 104.623 1663.89 105.209C1663.95 105.639 1664.01 106 1664.07 106.293L1664.16 106.938C1663.84 107.289 1663.61 107.68 1663.45 108.109C1663.32 108.48 1662.98 108.891 1662.46 109.34C1662.11 109.262 1661.85 109.223 1661.7 109.223L1660.58 109.252C1660.35 109.252 1660.02 109.018 1659.59 108.549C1659.74 108.119 1660.08 107.572 1660.61 106.908C1660.65 106.85 1660.69 106.576 1660.73 106.088C1660.9 104.701 1661.02 103.744 1661.08 103.217C1661.65 103.197 1661.93 103.002 1661.93 102.631C1661.93 102.416 1661.89 102.162 1661.81 101.869L1660.93 101.957C1660.88 101.703 1660.85 101.547 1660.85 101.488C1660.85 101.273 1660.87 100.6 1660.9 99.4668C1660.92 98.998 1660.99 98.6758 1661.11 98.5C1661.21 98.3438 1661.3 98.1973 1661.4 98.0605C1661.09 97.4941 1660.92 97.1133 1660.9 96.918C1660.88 95.043 1660.85 93.8809 1660.79 93.4316H1660.61L1660.55 93.373V92.9336H1661.58C1661.56 92.582 1661.49 92.3672 1661.37 92.2891C1661.26 92.1719 1660.92 92.0547 1660.38 91.9375C1660.96 91.5078 1661.45 91.1758 1661.84 90.9414C1662.13 90.7656 1662.28 90.6191 1662.28 90.502L1660.32 89.2129V89.1543L1660.46 88.2168C1659.68 87.5137 1659.29 86.8887 1659.29 86.3418C1659.29 85.834 1659.56 85.3555 1660.08 84.9062C1660.85 84.3008 1661.67 83.9199 1662.54 83.7637C1662.94 83.7051 1663.33 83.5879 1663.72 83.4121ZM1668.48 117.689C1668.71 117.299 1668.88 117.074 1668.98 117.016L1670.5 116.107C1670.99 115.6 1671.27 115.326 1671.35 115.287C1671.51 115.209 1671.66 115.17 1671.82 115.17C1671.98 115.17 1672.25 115.355 1672.64 115.727C1672.7 115.785 1673.15 116.088 1673.99 116.635C1674.73 117.123 1675.1 117.65 1675.1 118.217C1675.1 118.295 1675 118.48 1674.81 118.773C1674.5 119.301 1674.32 119.574 1674.28 119.594C1673.27 120.316 1672.59 120.814 1672.26 121.088C1671.95 120.795 1671.52 120.316 1670.97 119.652L1670.18 118.949C1669.85 118.402 1669.62 118.08 1669.51 117.982C1669.31 117.846 1668.97 117.748 1668.48 117.689ZM1673.55 83.4121C1673.78 83.5879 1673.9 83.793 1673.9 84.0273C1673.9 84.8477 1673.57 85.4531 1672.9 85.8438L1671.26 86.7812L1673.78 87.543L1673.31 88.1875C1673.61 89.3203 1673.75 90.1699 1673.75 90.7363C1673.75 90.7754 1673.72 91.1367 1673.67 91.8203L1673.7 92.6699L1673.34 93.6953C1673.46 94.457 1673.52 94.877 1673.52 94.9551C1673.52 94.9941 1673.49 95.502 1673.43 96.4785L1673.31 98.2949C1673.14 99.0371 1673.05 99.5059 1673.05 99.7012C1673.05 100.092 1673.22 100.443 1673.55 100.756C1673.55 101.889 1673.54 102.562 1673.52 102.777C1673.48 103.031 1673.34 103.344 1673.11 103.715C1673.4 104.125 1673.61 104.623 1673.72 105.209C1673.78 105.639 1673.84 106 1673.9 106.293L1673.99 106.938C1673.68 107.289 1673.44 107.68 1673.29 108.109C1673.15 108.48 1672.82 108.891 1672.29 109.34C1671.94 109.262 1671.68 109.223 1671.53 109.223L1670.41 109.252C1670.18 109.252 1669.85 109.018 1669.42 108.549C1669.57 108.119 1669.92 107.572 1670.44 106.908C1670.48 106.85 1670.52 106.576 1670.56 106.088C1670.74 104.701 1670.85 103.744 1670.91 103.217C1671.48 103.197 1671.76 103.002 1671.76 102.631C1671.76 102.416 1671.72 102.162 1671.64 101.869L1670.77 101.957C1670.71 101.703 1670.68 101.547 1670.68 101.488C1670.68 101.273 1670.7 100.6 1670.74 99.4668C1670.76 98.998 1670.82 98.6758 1670.94 98.5C1671.04 98.3438 1671.14 98.1973 1671.23 98.0605C1670.92 97.4941 1670.76 97.1133 1670.74 96.918C1670.72 95.043 1670.68 93.8809 1670.62 93.4316H1670.44L1670.38 93.373V92.9336H1671.41C1671.39 92.582 1671.32 92.3672 1671.21 92.2891C1671.09 92.1719 1670.76 92.0547 1670.21 91.9375C1670.79 91.5078 1671.28 91.1758 1671.67 90.9414C1671.97 90.7656 1672.11 90.6191 1672.11 90.502L1670.15 89.2129V89.1543L1670.3 88.2168C1669.52 87.5137 1669.12 86.8887 1669.12 86.3418C1669.12 85.834 1669.39 85.3555 1669.92 84.9062C1670.68 84.3008 1671.5 83.9199 1672.38 83.7637C1672.77 83.7051 1673.16 83.5879 1673.55 83.4121Z" fill="#313747"/>
<path d="M1325.69 170.838L1463.53 183.801L1251.03 287.442L1325.69 170.838Z" fill="white"/>
</g>
<defs>
<filter id="filter0_d_822_23" x="0" y="0" width="1726" height="619.486" filterUnits="userSpaceOnUse" color-interpolation-filters="sRGB">
<feFlood flood-opacity="0" result="BackgroundImageFix"/>
<feColorMatrix in="SourceAlpha" type="matrix" values="0 0 0 0 0 0 0 0 0 0 0 0 0 0 0 0 0 0 127 0" result="hardAlpha"/>
<feOffset dx="4" dy="4"/>
<feGaussianBlur stdDeviation="2"/>
<feComposite in2="hardAlpha" operator="out"/>
<feColorMatrix type="matrix" values="0 0 0 0 0.192157 0 0 0 0 0.215686 0 0 0 0 0.278431 0 0 0 1 0"/>
<feBlend mode="normal" in2="BackgroundImageFix" result="effect1_dropShadow_822_23"/>
<feBlend mode="normal" in="SourceGraphic" in2="effect1_dropShadow_822_23" result="shape"/>
</filter>
</defs>
</svg>
