<svg width="1760" height="620" viewBox="0 0 1760 620" fill="none" xmlns="http://www.w3.org/2000/svg">
<g filter="url(#filter0_d_822_23)">
<path d="M247.35 27.57C222.38 32.18 203.37 40.24 131.74 76.73L60.3 113.03H43.02C28.23 113.03 25.74 113.61 24.78 116.3C24.4 118.22 22.09 132.24 19.79 147.6C15.95 174.1 15.37 176.02 7.88 186.78L0 198.3L4.42 237.67C6.73 259.37 9.8 278.96 11.14 281.26C12.68 283.56 21.13 291.25 30.15 298.54C43.59 309.3 47.05 313.14 48.78 319.47C52.43 332.91 60.3 345.97 71.83 358.07C91.99 378.81 112.35 386.69 142.89 385.34C159.21 384.57 163.25 383.61 175.73 377.66C183.41 374.01 194.17 366.91 199.54 362.11L209.53 353.08H244.29H279.05V373.25V393.41H322.26H365.47V475.03C365.47 550.69 365.28 556.65 362.2 558.18C360.28 559.14 349.53 562.21 338.19 565.29L317.45 570.67V581.81V593.14L397.72 592.76L477.8 592.18V581.62V571.06L454.37 564.53L430.75 557.81V475.62V393.43H473.96H517.17V373.27V353.1H560.19H603.21L603.98 324.68C604.56 298.95 604.94 295.49 609.74 285.5C616.46 270.91 627.98 259 642.39 251.12C653.91 244.78 655.45 244.59 674.65 244.59C692.51 244.59 696.16 245.17 705.76 249.78C720.16 256.5 733.03 269.75 740.33 285.11C745.32 295.87 746.28 300.47 747.24 318.72L748.2 339.65H765.1C781.23 339.65 782.19 339.46 782.96 335.23C783.54 332.93 786.61 311.42 789.68 287.41L795.44 243.62L782.96 216.35C762.6 171.8 760.88 170.64 686.75 158.16L634.71 149.33L610.13 131.09C565.57 97.86 492.02 51 462.44 36.98C438.43 25.46 431.14 24.69 341.45 24.88C284.61 25.08 256.76 25.84 247.35 27.57ZM345.87 90.37C347.21 106.5 348.17 121.1 348.17 122.63C348.17 125.13 342.41 125.13 297.85 122.25C270 120.52 233.32 118.6 216.04 117.64L184.74 116.3L181.86 109.58C175.52 94.41 175.33 94.79 192.42 86.34C235.05 64.83 249.65 61.57 303.23 61.37L343.75 61.18L345.87 90.37ZM440.36 66.75C446.12 69.05 463.02 78.27 477.81 87.11C506.81 104.59 561.16 139.73 559.04 139.92C554.05 140.11 389.08 128.2 387.35 127.63C386.2 127.05 384.66 118.8 383.89 107.85C383.31 97.48 382.16 82.69 381.39 74.82L380.24 60.8L405.01 61.57C424.8 62.33 431.91 63.29 440.36 66.75ZM158.05 247.65C192.43 263.21 199.53 307.57 171.49 332.53C160.74 342.32 152.29 345.59 137.88 345.78C117.52 345.78 100.62 335.79 91.21 317.74C80.84 297.96 86.02 270.11 102.73 256.09C117.92 243.24 140.58 239.78 158.05 247.65Z" fill="white"/>
<path d="M1170.69 355.027C1158.21 358.097 1158.4 358.097 1108.85 399.197C1087.15 417.247 1067.94 433.187 1066.22 434.537C1063.34 436.837 1061.03 436.457 1050.86 432.807C1034.34 426.857 1007.07 426.857 991.332 432.617C926.612 456.047 907.982 536.317 955.992 583.757C969.242 596.817 982.112 604.307 998.432 608.727C1043.18 620.247 1091 594.707 1107.51 550.537C1110.78 541.897 1111.55 535.367 1111.55 519.427C1111.55 496.957 1108.09 485.047 1096.57 468.147L1090.43 458.927L1116.55 439.527L1142.48 420.127L1143.63 432.797C1144.4 439.717 1144.98 458.147 1145.17 473.707C1145.36 496.947 1146.71 509.997 1152.85 546.687C1157.07 571.267 1162.07 595.657 1163.99 601.037L1167.64 610.637L1194.72 611.217C1216.8 611.597 1222.37 611.217 1224.68 608.717C1228.33 605.067 1232.36 587.397 1239.66 543.617C1242.73 524.797 1246.77 506.747 1248.69 503.677C1250.42 500.417 1253.11 495.807 1254.26 493.497C1258.29 486.387 1262.52 441.837 1262.52 406.887V373.857L1255.8 367.907C1245.81 359.267 1226.99 354.077 1202.03 353.117C1188.17 352.727 1177.42 353.297 1170.69 355.027ZM1045.48 474.477C1084.46 495.607 1079.86 554.177 1037.99 568.387C1006.69 578.947 973.082 558.017 969.242 525.367C964.442 484.657 1009.38 454.697 1045.48 474.477Z" fill="white"/>
<path d="M1201.25 232C1171.1 237.76 1152.47 267.91 1161.12 297.49C1167.46 319.77 1187.24 334.17 1211.24 334.36C1232.17 334.36 1248.3 324.38 1257.52 305.55C1270 279.82 1259.63 248.71 1234.67 236.8C1222.95 231.42 1212.39 229.69 1201.25 232Z" fill="white"/>
<path d="M1319 105.5C1319 47.234 1366.23 0 1424.5 0H1646.5C1704.77 0 1752 47.234 1752 105.5V105.5C1752 163.766 1704.77 211 1646.5 211H1424.5C1366.23 211 1319 163.766 1319 105.5V105.5Z" fill="white"/>
<path d="M1373.47 87.875V122H1367.02V87.875H1373.47ZM1387.23 102.617V107.703H1371.78V102.617H1387.23ZM1389.03 87.875V92.9609H1371.78V87.875H1389.03ZM1395.53 105.711L1400.55 99.2891L1393.19 97.1797L1394.52 93.1719L1401.79 96.0312L1401.39 87.875H1405.7L1405.28 96.1719L1412.43 93.3594L1413.72 97.4141L1406.24 99.5469L1411.14 105.828L1407.65 108.312L1403.31 101.469L1399.02 108.102L1395.53 105.711ZM1424.88 103.578L1431.1 99.5C1432.08 98.8438 1432.76 98.2109 1433.13 97.6016C1433.51 96.9922 1433.7 96.2578 1433.7 95.3984C1433.7 94.6328 1433.4 93.9219 1432.81 93.2656C1432.23 92.5938 1431.41 92.2578 1430.35 92.2578C1429.6 92.2578 1428.96 92.4297 1428.45 92.7734C1427.93 93.1172 1427.54 93.5781 1427.28 94.1562C1427.03 94.7188 1426.9 95.3438 1426.9 96.0312C1426.9 96.7344 1427.08 97.4531 1427.44 98.1875C1427.81 98.9219 1428.31 99.6953 1428.94 100.508C1429.58 101.305 1430.29 102.172 1431.07 103.109L1447.17 122H1440.1L1426.92 106.672C1425.81 105.297 1424.83 104.031 1423.97 102.875C1423.11 101.719 1422.44 100.602 1421.95 99.5234C1421.49 98.4297 1421.25 97.3047 1421.25 96.1484C1421.25 94.3672 1421.63 92.8203 1422.38 91.5078C1423.13 90.1953 1424.18 89.1797 1425.54 88.4609C1426.92 87.7422 1428.53 87.3828 1430.37 87.3828C1432.12 87.3828 1433.63 87.7422 1434.89 88.4609C1436.17 89.1641 1437.17 90.1016 1437.87 91.2734C1438.57 92.4453 1438.92 93.7266 1438.92 95.1172C1438.92 96.1797 1438.73 97.1641 1438.34 98.0703C1437.95 98.9609 1437.41 99.7812 1436.72 100.531C1436.03 101.266 1435.24 101.961 1434.33 102.617L1427.02 107.867C1426.31 108.461 1425.78 109.047 1425.42 109.625C1425.08 110.188 1424.85 110.711 1424.72 111.195C1424.61 111.68 1424.56 112.133 1424.56 112.555C1424.56 113.508 1424.76 114.367 1425.17 115.133C1425.59 115.883 1426.18 116.484 1426.95 116.938C1427.73 117.375 1428.65 117.594 1429.71 117.594C1431.01 117.594 1432.26 117.305 1433.46 116.727C1434.67 116.148 1435.74 115.328 1436.7 114.266C1437.67 113.203 1438.43 111.938 1438.99 110.469C1439.57 108.984 1439.86 107.352 1439.86 105.57H1445.16C1445.16 107.273 1444.99 108.891 1444.67 110.422C1444.34 111.938 1443.81 113.344 1443.07 114.641C1442.34 115.938 1441.38 117.094 1440.19 118.109C1440.08 118.203 1439.95 118.328 1439.79 118.484C1439.65 118.641 1439.53 118.766 1439.42 118.859C1437.99 120.078 1436.45 120.992 1434.8 121.602C1433.16 122.195 1431.37 122.492 1429.43 122.492C1427.15 122.492 1425.18 122.078 1423.53 121.25C1421.87 120.422 1420.59 119.281 1419.68 117.828C1418.79 116.375 1418.35 114.711 1418.35 112.836C1418.35 111.445 1418.62 110.234 1419.17 109.203C1419.73 108.156 1420.5 107.188 1421.49 106.297C1422.47 105.391 1423.6 104.484 1424.88 103.578ZM1460.73 93.3828L1456.28 104.914H1451.24L1458.25 87.875H1461.81L1460.73 93.3828ZM1464.71 104.914L1460.28 93.3828L1459.18 87.875H1462.75L1469.75 104.914H1464.71ZM1478.69 122L1484.79 87.875H1488.84L1482.72 122H1478.69ZM1487.65 122L1493.76 87.875H1497.82L1491.7 122H1487.65ZM1501.17 101.422H1476.77V97.625H1501.17V101.422ZM1499.39 112.391H1475.01V108.594H1499.39V112.391ZM1506.69 96.2422V94.4375C1506.69 93.1406 1506.97 91.9609 1507.53 90.8984C1508.09 89.8359 1508.91 88.9844 1509.99 88.3438C1511.08 87.7031 1512.41 87.3828 1513.98 87.3828C1515.57 87.3828 1516.9 87.7031 1517.98 88.3438C1519.08 88.9844 1519.9 89.8359 1520.44 90.8984C1521.01 91.9609 1521.29 93.1406 1521.29 94.4375V96.2422C1521.29 97.5078 1521.01 98.6719 1520.44 99.7344C1519.9 100.797 1519.08 101.648 1518.01 102.289C1516.93 102.93 1515.6 103.25 1514.02 103.25C1512.44 103.25 1511.11 102.93 1510.01 102.289C1508.92 101.648 1508.09 100.797 1507.53 99.7344C1506.97 98.6719 1506.69 97.5078 1506.69 96.2422ZM1510.88 94.4375V96.2422C1510.88 96.8359 1510.99 97.3984 1511.21 97.9297C1511.44 98.4453 1511.8 98.8672 1512.26 99.1953C1512.73 99.5234 1513.32 99.6875 1514.02 99.6875C1514.73 99.6875 1515.3 99.5234 1515.73 99.1953C1516.19 98.8672 1516.52 98.4453 1516.74 97.9297C1516.98 97.3984 1517.09 96.8359 1517.09 96.2422V94.4375C1517.09 93.8281 1516.98 93.2578 1516.74 92.7266C1516.52 92.1953 1516.18 91.7656 1515.71 91.4375C1515.26 91.1094 1514.68 90.9453 1513.98 90.9453C1513.29 90.9453 1512.71 91.1094 1512.24 91.4375C1511.79 91.7656 1511.44 92.1953 1511.21 92.7266C1510.99 93.2578 1510.88 93.8281 1510.88 94.4375ZM1523.07 115.438V113.633C1523.07 112.352 1523.35 111.18 1523.91 110.117C1524.49 109.055 1525.33 108.203 1526.42 107.562C1527.51 106.922 1528.83 106.602 1530.38 106.602C1531.99 106.602 1533.33 106.922 1534.41 107.562C1535.49 108.203 1536.3 109.055 1536.85 110.117C1537.41 111.18 1537.69 112.352 1537.69 113.633V115.438C1537.69 116.719 1537.41 117.891 1536.85 118.953C1536.3 120.016 1535.49 120.867 1534.41 121.508C1533.35 122.148 1532.03 122.469 1530.45 122.469C1528.87 122.469 1527.53 122.148 1526.42 121.508C1525.33 120.867 1524.49 120.016 1523.91 118.953C1523.35 117.891 1523.07 116.719 1523.07 115.438ZM1527.29 113.633V115.438C1527.29 116.047 1527.41 116.617 1527.66 117.148C1527.91 117.664 1528.27 118.086 1528.74 118.414C1529.23 118.742 1529.79 118.906 1530.43 118.906C1531.21 118.906 1531.83 118.742 1532.28 118.414C1532.73 118.086 1533.05 117.664 1533.24 117.148C1533.43 116.617 1533.52 116.047 1533.52 115.438V113.633C1533.52 113.023 1533.4 112.461 1533.17 111.945C1532.94 111.414 1532.58 110.984 1532.12 110.656C1531.66 110.328 1531.08 110.164 1530.38 110.164C1529.69 110.164 1529.12 110.328 1528.65 110.656C1528.19 110.984 1527.85 111.414 1527.62 111.945C1527.4 112.461 1527.29 113.023 1527.29 113.633ZM1531.93 92.75L1515.26 119.422L1512.19 117.711L1528.86 91.0391L1531.93 92.75ZM1583.15 109.625C1583.09 111.188 1582.85 112.734 1582.45 114.266C1582.05 115.781 1581.45 117.164 1580.64 118.414C1579.84 119.648 1578.82 120.641 1577.57 121.391C1576.32 122.125 1574.81 122.492 1573.05 122.492C1572.02 122.492 1571.09 122.312 1570.28 121.953C1569.47 121.594 1568.79 121.078 1568.24 120.406C1567.7 119.719 1567.3 118.898 1567.05 117.945C1566.8 116.977 1566.71 115.898 1566.79 114.711L1567.98 101.328H1572.39L1571.22 114.711C1571.12 115.602 1571.14 116.328 1571.27 116.891C1571.39 117.453 1571.59 117.891 1571.85 118.203C1572.12 118.5 1572.42 118.711 1572.77 118.836C1573.12 118.961 1573.48 119.023 1573.82 119.023C1574.62 119.023 1575.34 118.789 1575.98 118.32C1576.63 117.836 1577.2 117.172 1577.66 116.328C1578.13 115.484 1578.5 114.508 1578.77 113.398C1579.03 112.273 1579.19 111.062 1579.23 109.766C1579.33 107.625 1579.22 105.648 1578.91 103.836C1578.61 102.023 1578.09 100.406 1577.36 98.9844C1576.62 97.5625 1575.67 96.3594 1574.5 95.375C1573.33 94.375 1571.94 93.6094 1570.33 93.0781C1568.72 92.5469 1566.87 92.2812 1564.77 92.2812C1562.85 92.2812 1561.08 92.5859 1559.45 93.1953C1557.83 93.7891 1556.37 94.6406 1555.07 95.75C1553.79 96.8594 1552.69 98.1875 1551.77 99.7344C1550.84 101.281 1550.12 103.008 1549.59 104.914C1549.07 106.82 1548.77 108.859 1548.67 111.031C1548.56 113.328 1548.68 115.422 1549.02 117.312C1549.38 119.188 1549.95 120.844 1550.73 122.281C1551.53 123.719 1552.53 124.93 1553.73 125.914C1554.94 126.898 1556.34 127.641 1557.93 128.141C1559.52 128.641 1561.29 128.891 1563.23 128.891C1564.59 128.891 1565.97 128.734 1567.38 128.422C1568.8 128.109 1569.99 127.711 1570.96 127.227L1571.85 130.531C1570.76 131.234 1569.39 131.758 1567.75 132.102C1566.12 132.445 1564.59 132.617 1563.13 132.617C1560.68 132.617 1558.44 132.312 1556.41 131.703C1554.39 131.094 1552.61 130.188 1551.06 128.984C1549.52 127.781 1548.23 126.312 1547.2 124.578C1546.16 122.844 1545.41 120.844 1544.92 118.578C1544.44 116.312 1544.25 113.797 1544.36 111.031C1544.47 108.469 1544.86 106.062 1545.53 103.812C1546.2 101.547 1547.13 99.4922 1548.32 97.6484C1549.51 95.8047 1550.92 94.2188 1552.56 92.8906C1554.22 91.5469 1556.08 90.5156 1558.14 89.7969C1560.2 89.0781 1562.45 88.7188 1564.87 88.7188C1567.3 88.7188 1569.52 89.0391 1571.5 89.6797C1573.48 90.3203 1575.23 91.2422 1576.73 92.4453C1578.23 93.6484 1579.47 95.1094 1580.45 96.8281C1581.44 98.5469 1582.16 100.484 1582.61 102.641C1583.06 104.781 1583.24 107.109 1583.15 109.625ZM1559.41 111.992C1559.31 113.023 1559.31 113.953 1559.41 114.781C1559.5 115.594 1559.68 116.273 1559.95 116.82C1560.23 117.367 1560.59 117.789 1561.05 118.086C1561.5 118.367 1562.03 118.508 1562.64 118.508C1563 118.508 1563.39 118.422 1563.81 118.25C1564.23 118.062 1564.65 117.766 1565.05 117.359C1565.48 116.938 1565.88 116.375 1566.25 115.672C1566.64 114.953 1566.97 114.055 1567.23 112.977L1569.11 115.18C1568.75 116.383 1568.3 117.438 1567.75 118.344C1567.22 119.25 1566.61 120.008 1565.92 120.617C1565.23 121.227 1564.49 121.688 1563.7 122C1562.9 122.297 1562.06 122.445 1561.19 122.445C1560.05 122.445 1559.03 122.195 1558.14 121.695C1557.25 121.195 1556.52 120.492 1555.94 119.586C1555.36 118.664 1554.95 117.562 1554.7 116.281C1554.45 115 1554.4 113.57 1554.55 111.992C1554.73 110.383 1555.03 108.898 1555.47 107.539C1555.92 106.164 1556.48 104.938 1557.16 103.859C1557.83 102.781 1558.59 101.867 1559.43 101.117C1560.29 100.352 1561.21 99.7734 1562.2 99.3828C1563.2 98.9922 1564.23 98.7969 1565.31 98.7969C1567.09 98.7969 1568.49 99.0547 1569.51 99.5703C1570.52 100.07 1571.48 100.656 1572.39 101.328L1570.09 104.352C1569.64 103.93 1569.05 103.531 1568.31 103.156C1567.59 102.766 1566.73 102.57 1565.73 102.57C1564.83 102.57 1564.02 102.773 1563.3 103.18C1562.59 103.586 1561.98 104.188 1561.45 104.984C1560.91 105.781 1560.48 106.766 1560.13 107.938C1559.79 109.094 1559.55 110.445 1559.41 111.992ZM1598.3 93.3828L1593.85 104.914H1588.81L1595.81 87.875H1599.38L1598.3 93.3828ZM1602.28 104.914L1597.85 93.3828L1596.75 87.875H1600.31L1607.32 104.914H1602.28ZM1621.51 93.3828L1617.06 104.914H1612.02L1619.03 87.875H1622.59L1621.51 93.3828ZM1625.5 104.914L1621.07 93.3828L1619.96 87.875H1623.53L1630.53 104.914H1625.5ZM1650.37 82.4375V89.3984H1646.74V82.4375H1650.37ZM1649.93 120.711V126.992H1646.32V120.711H1649.93ZM1652.97 113.07C1652.97 112.18 1652.8 111.406 1652.46 110.75C1652.13 110.094 1651.58 109.508 1650.79 108.992C1650.03 108.477 1649 107.984 1647.7 107.516C1645.68 106.781 1643.92 105.977 1642.4 105.102C1640.89 104.211 1639.71 103.109 1638.86 101.797C1638.04 100.484 1637.62 98.8281 1637.62 96.8281C1637.62 94.9062 1638.07 93.2422 1638.96 91.8359C1639.86 90.4141 1641.12 89.3203 1642.73 88.5547C1644.34 87.7734 1646.21 87.3828 1648.33 87.3828C1649.99 87.3828 1651.47 87.6328 1652.79 88.1328C1654.11 88.6172 1655.25 89.3281 1656.18 90.2656C1657.14 91.2031 1657.86 92.3594 1658.36 93.7344C1658.88 95.0938 1659.14 96.6484 1659.14 98.3984H1652.95C1652.95 97.4297 1652.84 96.5703 1652.62 95.8203C1652.4 95.0703 1652.09 94.4375 1651.68 93.9219C1651.28 93.3906 1650.79 92.9922 1650.21 92.7266C1649.65 92.4609 1649 92.3281 1648.29 92.3281C1647.25 92.3281 1646.4 92.5234 1645.73 92.9141C1645.08 93.3047 1644.59 93.8359 1644.28 94.5078C1643.98 95.1797 1643.83 95.9531 1643.83 96.8281C1643.83 97.6719 1643.99 98.4141 1644.3 99.0547C1644.63 99.6797 1645.18 100.25 1645.94 100.766C1646.72 101.281 1647.79 101.805 1649.15 102.336C1651.18 103.086 1652.95 103.914 1654.45 104.82C1655.95 105.711 1657.11 106.805 1657.94 108.102C1658.77 109.398 1659.18 111.039 1659.18 113.023C1659.18 115.055 1658.72 116.773 1657.78 118.18C1656.86 119.586 1655.56 120.656 1653.89 121.391C1652.22 122.125 1650.27 122.492 1648.05 122.492C1646.63 122.492 1645.22 122.305 1643.83 121.93C1642.44 121.555 1641.18 120.945 1640.04 120.102C1638.91 119.242 1638.01 118.109 1637.34 116.703C1636.67 115.281 1636.33 113.539 1636.33 111.477H1642.54C1642.54 112.664 1642.7 113.648 1643.01 114.43C1643.33 115.211 1643.75 115.836 1644.28 116.305C1644.81 116.758 1645.4 117.078 1646.06 117.266C1646.72 117.453 1647.38 117.547 1648.05 117.547C1649.15 117.547 1650.05 117.359 1650.77 116.984C1651.5 116.609 1652.05 116.086 1652.41 115.414C1652.79 114.727 1652.97 113.945 1652.97 113.07ZM1673.75 87.875L1673.07 111.758H1667.84L1667.16 87.875H1673.75ZM1666.98 119.117C1666.98 118.195 1667.29 117.422 1667.91 116.797C1668.55 116.156 1669.41 115.836 1670.49 115.836C1671.57 115.836 1672.42 116.156 1673.05 116.797C1673.69 117.422 1674.01 118.195 1674.01 119.117C1674.01 120.023 1673.69 120.789 1673.05 121.414C1672.42 122.039 1671.57 122.352 1670.49 122.352C1669.41 122.352 1668.55 122.039 1667.91 121.414C1667.29 120.789 1666.98 120.023 1666.98 119.117ZM1688.99 87.875L1688.31 111.758H1683.09L1682.41 87.875H1688.99ZM1682.22 119.117C1682.22 118.195 1682.53 117.422 1683.16 116.797C1683.8 116.156 1684.66 115.836 1685.73 115.836C1686.81 115.836 1687.66 116.156 1688.29 116.797C1688.93 117.422 1689.25 118.195 1689.25 119.117C1689.25 120.023 1688.93 120.789 1688.29 121.414C1687.66 122.039 1686.81 122.352 1685.73 122.352C1684.66 122.352 1683.8 122.039 1683.16 121.414C1682.53 120.789 1682.22 120.023 1682.22 119.117ZM1704.24 87.875L1703.56 111.758H1698.33L1697.65 87.875H1704.24ZM1697.46 119.117C1697.46 118.195 1697.77 117.422 1698.4 116.797C1699.04 116.156 1699.9 115.836 1700.98 115.836C1702.06 115.836 1702.91 116.156 1703.53 116.797C1704.17 117.422 1704.49 118.195 1704.49 119.117C1704.49 120.023 1704.17 120.789 1703.53 121.414C1702.91 122.039 1702.06 122.352 1700.98 122.352C1699.9 122.352 1699.04 122.039 1698.4 121.414C1697.77 120.789 1697.46 120.023 1697.46 119.117Z" fill="#313747"/>
<path d="M1359.69 170.838L1497.53 183.801L1285.03 287.442L1359.69 170.838Z" fill="white"/>
</g>
<defs>
<filter id="filter0_d_822_23" x="0" y="0" width="1760" height="619.486" filterUnits="userSpaceOnUse" color-interpolation-filters="sRGB">
<feFlood flood-opacity="0" result="BackgroundImageFix"/>
<feColorMatrix in="SourceAlpha" type="matrix" values="0 0 0 0 0 0 0 0 0 0 0 0 0 0 0 0 0 0 127 0" result="hardAlpha"/>
<feOffset dx="4" dy="4"/>
<feGaussianBlur stdDeviation="2"/>
<feComposite in2="hardAlpha" operator="out"/>
<feColorMatrix type="matrix" values="0 0 0 0 0.192157 0 0 0 0 0.215686 0 0 0 0 0.278431 0 0 0 1 0"/>
<feBlend mode="normal" in2="BackgroundImageFix" result="effect1_dropShadow_822_23"/>
<feBlend mode="normal" in="SourceGraphic" in2="effect1_dropShadow_822_23" result="shape"/>
</filter>
</defs>
</svg>
