<svg width="1726" height="573" viewBox="0 0 1726 573" fill="none" xmlns="http://www.w3.org/2000/svg">
<g filter="url(#filter0_d_822_23)">
<path d="M262.351 2.71246C237.381 7.32246 218.371 15.3824 146.741 51.8724L77.009 87.3046C75.8862 87.8751 74.6445 88.1725 73.3851 88.1725H58.021C44.2842 88.1725 41.158 88.6728 40.0132 90.8993C39.8334 91.2491 39.7436 91.6303 39.6739 92.0173C39.0787 95.325 36.9305 108.454 34.791 122.742C30.951 149.242 30.371 151.162 22.881 161.922L16.6798 170.988C15.5968 172.571 15.1187 174.491 15.3327 176.397L19.421 212.812C21.731 234.512 24.801 254.102 26.141 256.402C27.681 258.702 36.131 266.392 45.151 273.682C58.591 284.442 62.051 288.282 63.781 294.612C67.431 308.052 75.301 321.112 86.831 333.212C106.991 353.952 127.351 361.832 157.891 360.482C174.211 359.712 178.251 358.752 190.731 352.802C198.411 349.152 209.171 342.052 214.541 337.252L222.246 330.288C223.717 328.958 225.628 328.222 227.611 328.222H259.291H286.051C290.469 328.222 294.051 331.804 294.051 336.222V348.392V360.552C294.051 364.971 297.633 368.552 302.051 368.552H337.261H372.471C376.889 368.552 380.471 372.134 380.471 376.552V450.172C380.471 525.832 380.281 531.792 377.201 533.322C375.328 534.259 365.047 537.205 354.015 540.208C353.468 540.357 352.905 540.448 352.339 540.477L4.6022 558.787C2.3306 558.906 0.550049 560.783 0.550049 563.058V563.058C0.550049 565.415 2.45742 567.328 4.81472 567.335L332.451 568.282L412.721 567.902L492.801 567.322L806.17 568.27C808.527 568.277 810.441 566.368 810.441 564.012V564.012C810.441 561.758 808.686 559.895 806.436 559.761L470.244 539.724C469.664 539.69 469.089 539.592 468.53 539.433L451.562 534.606C448.123 533.627 445.751 530.486 445.751 526.911V450.762V376.572C445.751 372.154 449.333 368.572 453.751 368.572H488.961H524.171C528.589 368.572 532.171 364.991 532.171 360.572V348.412V336.242C532.171 331.824 535.753 328.242 540.171 328.242H575.191H610.425C614.759 328.242 618.304 324.791 618.422 320.459L618.981 299.822C619.561 274.092 619.941 270.632 624.741 260.642C631.461 246.052 642.981 234.142 657.391 226.262C668.911 219.922 670.451 219.732 689.651 219.732C707.511 219.732 711.161 220.312 720.761 224.922C735.161 231.642 748.031 244.892 755.331 260.252C760.321 271.012 761.281 275.612 762.241 293.862L762.851 307.159C763.047 311.43 766.567 314.792 770.842 314.792H780.101C796.231 314.792 797.191 314.602 797.961 310.372C798.541 308.072 801.611 286.562 804.681 262.552L810.141 221.043C810.337 219.553 810.109 218.038 809.484 216.671L797.961 191.492C777.601 146.942 775.881 145.782 701.751 133.302L651.601 124.793C650.358 124.582 649.184 124.081 648.172 123.33L625.131 106.232C580.571 73.0025 507.021 26.1424 477.441 12.1224C453.431 0.602437 446.141 -0.167539 356.451 0.0224609C299.611 0.222461 271.761 0.982463 262.351 2.71246ZM360.871 65.5125C362.211 81.6425 363.171 96.2425 363.171 97.7725C363.171 100.272 357.411 113.722 312.851 110.842C285.811 109.163 250.448 107.304 232.598 106.319C231.567 106.262 230.561 106.006 229.628 105.565L202.482 92.7377C200.716 91.9032 199.316 90.4513 198.547 88.6559L196.861 84.7224C190.521 69.5524 190.331 69.9324 207.421 61.4824C250.051 39.9724 264.651 36.7125 318.231 36.5125L351.276 36.3575C355.484 36.3378 358.988 39.5811 359.292 43.7779L360.871 65.5125ZM455.361 41.8925C461.121 44.1925 478.021 53.4124 492.811 62.2524C521.811 79.7324 593.821 127.163 591.701 127.353C586.857 127.537 431.267 116.32 420.575 115.141C420.18 115.098 419.847 114.96 419.554 114.692C416.393 111.798 399.61 93.2157 398.891 82.9925C398.311 72.6225 397.161 57.8325 396.391 49.9625L395.973 44.8709C395.583 40.1116 399.422 36.0724 404.195 36.2208L420.011 36.7125C439.801 37.4725 446.911 38.4325 455.361 41.8925ZM173.051 222.792C207.431 238.352 214.531 282.712 186.491 307.672C175.741 317.462 167.291 320.732 152.881 320.922C132.521 320.922 115.621 310.932 106.211 292.882C95.841 273.102 101.021 245.252 117.731 231.232C132.921 218.382 155.581 214.922 173.051 222.792Z" fill="white"/>
<path d="M1151.69 312.027C1139.21 315.097 1139.4 315.097 1089.85 356.197C1068.15 374.247 1048.94 390.187 1047.22 391.537C1044.34 393.837 1042.03 393.457 1031.86 389.807C1015.34 383.857 988.073 383.857 972.333 389.617C907.613 413.047 888.983 493.317 936.993 540.757C950.243 553.817 963.113 561.307 979.433 565.727C1024.18 577.247 1072 551.707 1088.51 507.537C1091.78 498.897 1092.55 492.367 1092.55 476.427C1092.55 453.957 1089.09 442.047 1077.57 425.147V425.147C1074.13 419.98 1075.34 413.024 1080.33 409.322L1097.55 396.527L1113.3 384.748C1117.75 381.417 1124.13 384.259 1124.63 389.797V389.797C1125.4 396.717 1125.98 415.147 1126.17 430.707C1126.36 453.947 1127.71 466.997 1133.85 503.687C1138.07 528.267 1143.07 552.657 1144.99 558.037V558.037C1147.2 563.84 1152.7 567.724 1158.91 567.857L1175.72 568.217C1197.8 568.597 1203.37 568.217 1205.68 565.717C1209.33 562.067 1213.36 544.397 1220.66 500.617C1223.73 481.797 1227.77 463.747 1229.69 460.677C1231.42 457.417 1234.11 452.807 1235.26 450.497C1239.29 443.387 1243.52 398.837 1243.52 363.887V339.833C1243.52 334.125 1241.08 328.691 1236.8 324.907V324.907C1226.81 316.267 1207.99 311.077 1183.03 310.117C1169.17 309.727 1158.42 310.297 1151.69 312.027ZM1026.48 431.477C1065.46 452.607 1060.86 511.177 1018.99 525.387C987.693 535.947 954.083 515.017 950.243 482.367C945.443 441.657 990.383 411.697 1026.48 431.477Z" fill="white"/>
<path d="M1182.25 189C1152.1 194.76 1133.47 224.91 1142.12 254.49C1148.46 276.77 1168.24 291.17 1192.24 291.36C1213.17 291.36 1229.3 281.38 1238.52 262.55C1251 236.82 1240.63 205.71 1215.67 193.8C1203.95 188.42 1193.39 186.69 1182.25 189Z" fill="white"/>
<path fill-rule="evenodd" clip-rule="evenodd" d="M1394.5 0C1336.23 0 1289 47.234 1289 105.5C1289 163.766 1336.23 211 1394.5 211H1616.5C1674.77 211 1722 163.766 1722 105.5C1722 47.234 1674.77 0 1616.5 0H1394.5ZM1347.21 60.6211V61.0605L1348.57 62.5107L1350.15 62.2471C1350.12 62.833 1350.11 63.2871 1350.11 63.6094C1350.11 64.3711 1350.21 64.9424 1350.42 65.3232C1350.95 66.3779 1351.22 67.0664 1351.25 67.3887V67.4766L1351.03 68.8828L1351.38 70.333L1351.56 72.9258L1352.04 75.0791L1352.31 77.4521C1352.57 78.6533 1352.7 79.3271 1352.7 79.4736C1352.7 79.708 1352.59 80.1914 1352.35 80.9238L1353.76 83.7803C1353.64 84.4248 1353.55 84.791 1353.49 84.8789C1353.44 85.084 1353.08 85.1719 1352.44 85.1426C1352.35 86.0801 1352.31 86.8564 1352.31 87.4717C1352.31 87.6182 1352.35 88.2041 1352.44 89.2295L1352.57 90.6357L1352.88 92.3496C1352.88 94.6055 1352.91 95.8066 1352.97 95.9531C1353.03 96.1582 1353.2 96.627 1353.49 97.3594L1354.24 97.5791L1354.68 99.0732L1353.98 99.7324H1353.8V100.611C1353.22 100.875 1352.92 101.329 1352.92 101.974C1352.92 102.472 1352.98 102.896 1353.1 103.248C1353.33 104.127 1353.45 104.625 1353.45 104.742C1353.45 104.947 1353.42 105.284 1353.36 105.753C1353.33 106.134 1353.32 106.559 1353.32 107.027C1353.32 107.408 1353.33 107.979 1353.36 108.741C1353.86 109.093 1354.11 109.43 1354.11 109.752C1354.11 110.162 1353.86 110.66 1353.36 111.246C1353.54 111.598 1353.63 111.876 1353.63 112.081C1353.63 112.169 1353.48 112.521 1353.19 113.136C1353.19 114.835 1353.16 115.919 1353.1 116.388C1353.07 116.827 1353.05 117.267 1353.05 117.706V117.794C1353.05 118.292 1353.32 118.541 1353.85 118.541C1353.96 118.541 1354.09 118.526 1354.24 118.497L1354.46 119.42L1354.77 119.288V120.431L1354.42 120.694L1354.29 120.562C1353.9 120.738 1353.71 120.943 1353.71 121.178C1353.71 121.383 1353.74 121.588 1353.8 121.793C1353.3 122.174 1353.03 122.481 1352.97 122.716C1352.94 122.804 1352.92 123.771 1352.92 125.616C1352.92 126.817 1352.98 127.491 1353.1 127.638C1353.19 127.755 1353.44 127.857 1353.85 127.945C1353.96 127.945 1354.18 128.004 1354.5 128.121L1354.86 128.912C1354.48 128.736 1354.14 128.648 1353.85 128.648C1353.73 128.648 1353.58 128.722 1353.41 128.868C1353.49 129.483 1353.54 129.879 1353.54 130.055C1353.54 131.871 1353.35 133.775 1352.97 135.768C1352.97 136.441 1352.95 136.822 1352.92 136.91C1352.89 137.057 1352.64 137.481 1352.18 138.185C1351.77 139.122 1351.4 139.854 1351.08 140.382C1351.49 140.909 1351.69 141.334 1351.69 141.656C1351.69 141.744 1351.63 141.935 1351.52 142.228C1352.04 142.667 1352.42 142.887 1352.66 142.887L1354.2 142.359L1356.04 141.788L1357.32 141.217C1357.87 141.041 1358.18 140.924 1358.24 140.865C1358.45 140.689 1358.56 140.221 1358.59 139.459C1358.97 139.605 1359.31 139.679 1359.6 139.679C1360.13 139.679 1360.39 139.239 1360.39 138.36C1360.39 138.009 1360.33 136.925 1360.22 135.108C1360.19 134.845 1360.17 134.288 1360.17 133.438C1359.38 133.556 1358.81 132.662 1358.46 130.758C1359.34 130.113 1359.78 129.454 1359.78 128.78C1359.78 128.692 1359.69 128.136 1359.51 127.11L1359.43 119.991L1359.34 116.168C1358.2 116.051 1357.62 115.699 1357.62 115.113C1357.62 114.908 1357.68 114.762 1357.8 114.674C1358.62 113.912 1359.05 113.502 1359.08 113.443C1359.28 113.209 1359.38 112.931 1359.38 112.608L1359.29 105.929V105.27C1358.86 104.977 1358.58 104.669 1358.46 104.347C1358.67 104.2 1358.97 104.112 1359.38 104.083L1359.69 103.775L1359.56 103.336L1358.81 102.765C1358.72 102.354 1358.68 102.018 1358.68 101.754C1358.68 101.344 1358.91 100.729 1359.38 99.9082L1359.43 99.8203C1359.43 99.6152 1358.77 99.2051 1357.45 98.5898C1356.48 98.1504 1356 97.3008 1356 96.041C1356 94.8984 1356.17 94.1074 1356.53 93.668C1357 93.1113 1357.93 92.6133 1359.34 92.1738C1358.46 91.7051 1358.02 91.1338 1358.02 90.46C1358.02 90.167 1358.18 89.8447 1358.5 89.4932C1358.86 89.4639 1359.21 89.3174 1359.56 89.0537C1359.53 88.2627 1359.47 86.8125 1359.38 84.7031C1359.29 83.9707 1359.25 83.458 1359.25 83.165C1359.25 83.1064 1359.32 82.7549 1359.47 82.1104C1359.53 81.3779 1359.6 80.9678 1359.69 80.8799L1362.02 81.1436L1362.15 80.1768L1362.33 79.957C1362.94 80.0742 1363.76 80.3232 1364.79 80.7041L1366.55 80.5723H1367.73L1369.23 80.4404L1370.72 80.5723L1373.36 80.0449C1374.27 80.2793 1374.82 80.3965 1375.03 80.3965C1375.29 80.3965 1375.55 80.3818 1375.82 80.3525C1376.58 80.2939 1377.14 80.2646 1377.49 80.2646C1377.61 80.2646 1377.77 80.2793 1377.97 80.3086C1379.14 80.4551 1379.74 80.5283 1379.77 80.5283C1379.95 80.5283 1380.77 80.4111 1382.23 80.1768C1382.5 80.1475 1382.76 80.1328 1383.03 80.1328C1383.29 80.1328 1383.99 80.2646 1385.13 80.5283L1386.1 80.4844C1388.21 80.4551 1389.35 80.4258 1389.53 80.3965C1389.97 80.2793 1390.57 79.9717 1391.33 79.4736C1391.95 79.708 1392.62 79.9717 1393.35 80.2646C1394 80.5283 1395.08 80.6895 1396.6 80.748C1396.87 80.748 1397.44 80.7627 1398.32 80.792C1399.08 80.0889 1399.87 79.4883 1400.69 78.9902L1400.47 77.54C1401.12 77.2471 1401.51 76.9541 1401.66 76.6611C1401.8 76.3975 1401.88 75.9873 1401.88 75.4307V74.9912C1401.15 75.1084 1399.86 75.4453 1398.01 76.002C1395.32 76.3242 1393.51 76.6465 1392.61 76.9688C1392.02 77.1738 1391.51 77.2764 1391.07 77.2764C1390.98 77.2764 1390.88 77.2617 1390.76 77.2324C1389.65 76.9102 1389.08 76.749 1389.05 76.749C1388.87 76.749 1388.61 76.8662 1388.25 77.1006C1386.44 78.2432 1385.44 78.8145 1385.27 78.8145C1385.06 78.8145 1384.92 78.7119 1384.83 78.5068L1384.43 76.8809C1383.88 77.4375 1383.55 77.7158 1383.46 77.7158C1383.41 77.7158 1382.73 77.7012 1381.44 77.6719L1378.5 77.3203C1378.47 77.3203 1378.31 77.3496 1378.02 77.4082L1377.8 77.8916C1377.33 77.6279 1377 77.4961 1376.83 77.4961C1376.74 77.4961 1376.65 77.5107 1376.57 77.54C1376.04 77.833 1375.6 77.9795 1375.25 77.9795C1375.01 77.9795 1374.25 77.8623 1372.96 77.6279L1371.51 78.1553L1370.41 77.7158L1365.01 77.4961C1362.63 77.0859 1361.14 76.8809 1360.53 76.8809C1360.14 76.8809 1359.56 76.9102 1358.77 76.9688L1358.59 72.7061L1357.71 71.8271C1358.18 71.2412 1358.43 70.8018 1358.46 70.5088V69.8057L1358.5 68.4873L1354.64 67.3447L1358.72 62.9941L1358.59 62.8184C1358.86 61.2656 1359.28 60.4893 1359.87 60.4893C1360.33 60.4893 1361.01 61.0166 1361.89 62.0713C1362.33 62.5986 1362.69 62.8477 1362.99 62.8184H1363.07C1363.95 62.8184 1364.61 62.3936 1365.05 61.5439L1365.75 60.2256L1368.17 62.4229L1369.53 60.5332L1370.63 61.8516C1373.39 62.4668 1374.78 62.7744 1374.81 62.7744C1374.84 62.7744 1375.22 62.6279 1375.95 62.335H1377.22L1378.41 62.2031C1379.76 62.7012 1380.64 62.9502 1381.05 62.9502C1382.04 62.9502 1382.82 62.8623 1383.38 62.6865C1384.34 62.3936 1385.02 62.2471 1385.4 62.2471C1385.54 62.2471 1385.91 62.2617 1386.5 62.291H1386.72C1387.19 62.2617 1387.62 62.5547 1388.04 63.1699L1389.88 63.3018C1390.99 63.4189 1391.89 63.4775 1392.56 63.4775C1392.85 63.4775 1393.04 63.4336 1393.13 63.3457L1395.86 61.3242C1395.89 61.3242 1395.92 61.3535 1395.95 61.4121C1396.36 61.9688 1396.75 62.5107 1397.13 63.0381C1397.25 63.2139 1397.7 63.4482 1398.49 63.7412V63.0381C1398.88 61.8955 1399.17 61.3096 1399.37 61.2803L1399.42 61.3242C1400.3 62.3789 1400.76 62.9062 1400.82 62.9062H1401.79C1402.08 62.9062 1402.46 63.2285 1402.93 63.873C1403.64 62.9941 1404.57 62.0713 1405.75 61.1045C1406.3 60.6357 1406.65 60.2988 1406.8 60.0938C1406.95 59.8887 1407.18 59.4053 1407.5 58.6436C1407.68 58.2627 1407.77 57.999 1407.77 57.8525C1407.77 57.7061 1407.75 57.5303 1407.72 57.3252L1400.6 58.7754C1400.22 58.8633 1399.81 59.0244 1399.37 59.2588C1399.02 59.4639 1398.36 59.5664 1397.4 59.5664C1396.99 59.5664 1395.75 59.4785 1393.7 59.3027L1389.44 59.918H1388.17L1387.07 59.9619L1384.56 59.874L1383.29 60.2256L1380.39 60.1377L1378.54 60.1816L1376.7 59.8301L1374.85 60.0059L1372.04 59.5225L1370.98 59.5664C1370.78 59.5664 1370.6 59.5225 1370.46 59.4346C1369.87 59.0244 1369.43 58.8193 1369.14 58.8193C1368.99 58.8193 1368.41 59.4492 1367.38 60.709L1364.88 58.5117L1362.06 58.7754H1361.89C1361.39 58.7754 1360.31 58.585 1358.64 58.2041C1357.76 57.999 1357.04 57.6182 1356.48 57.0615C1356.16 57.1494 1355.82 57.3105 1355.47 57.5449C1355.3 57.6914 1354.94 57.9258 1354.42 58.248C1353.86 57.8672 1353.46 57.6768 1353.23 57.6768C1352.88 57.6768 1352.06 58.0137 1350.77 58.6875C1349.83 59.1562 1349.13 59.6104 1348.66 60.0498C1348.04 60.167 1347.56 60.3574 1347.21 60.6211ZM1410.3 83.1211C1409.71 82.6816 1409.3 82.4326 1409.07 82.374C1408.95 83.1064 1408.88 83.8389 1408.85 84.5713C1408.82 85.6553 1408.72 86.373 1408.54 86.7246C1408.07 87.6035 1407.84 88.1162 1407.84 88.2627C1407.84 88.6143 1408.09 89.0684 1408.58 89.625C1409.46 89.5371 1410.02 89.4639 1410.25 89.4053C1410.66 89.3174 1411.07 88.9219 1411.48 88.2188L1412.32 89.1855C1412.58 89.1562 1412.82 89.1416 1413.02 89.1416C1413.26 89.1416 1413.49 89.1709 1413.73 89.2295C1414.9 89.4639 1415.51 89.5811 1415.57 89.5811C1415.63 89.5811 1415.78 89.5518 1416.01 89.4932C1416.3 89.4346 1416.48 89.4053 1416.54 89.4053H1416.63C1416.95 89.4053 1417.11 89.5664 1417.11 89.8887C1417.11 90.3867 1416.61 90.9727 1415.62 91.6465C1415.38 91.8223 1414.93 92.1445 1414.25 92.6133V92.833L1414.78 93.1846C1413.9 94.3857 1413.23 95.0303 1412.76 95.1182L1412.01 95.0742L1411.79 95.25C1410.91 95.8066 1410.22 96.3633 1409.73 96.9199C1411.89 97.7109 1413.27 98.3701 1413.86 98.8975C1414.56 99.5713 1415.06 99.9082 1415.35 99.9082C1415.7 99.9082 1416.01 99.7764 1416.27 99.5127C1416.71 99.1025 1416.93 98.6045 1416.93 98.0186C1416.93 97.7549 1416.88 97.5352 1416.76 97.3594C1416.46 96.8027 1416.32 96.4805 1416.32 96.3926C1416.32 96.1875 1416.54 96.0703 1416.98 96.041C1417.36 95.6309 1417.77 94.9863 1418.21 94.1074C1418.27 93.9316 1418.47 93.5801 1418.82 93.0527L1418.43 91.6025L1418.65 91.3828C1419.41 91.7051 1419.92 92.0713 1420.19 92.4814C1420.54 93.126 1420.83 93.9902 1421.06 95.0742L1421.99 94.8545C1422.16 95.3232 1422.32 95.6895 1422.47 95.9531C1422.79 96.5391 1422.95 96.9785 1422.95 97.2715V97.3154C1422.87 97.7549 1422.82 98.0479 1422.82 98.1943C1422.82 98.3115 1422.92 98.6045 1423.13 99.0732C1423.25 99.3076 1423.38 99.8203 1423.53 100.611C1423.67 100.699 1423.8 100.743 1423.92 100.743C1424.04 100.743 1424.14 100.67 1424.23 100.523C1425.11 99.2051 1425.71 98.3994 1426.03 98.1064C1426.38 97.7842 1427.16 97.3301 1428.36 96.7441C1428.42 96.4219 1428.45 96.1289 1428.45 95.8652C1428.45 95.6309 1428.36 95.3965 1428.18 95.1621C1427.71 94.5469 1427.19 94.2393 1426.6 94.2393C1426.28 94.2393 1425.87 94.3418 1425.37 94.5469L1425.24 93.0967C1424.24 92.4521 1423.35 91.6465 1422.56 90.6797H1421.5L1421.37 90.5039V90.1523C1422.4 89.5078 1423.28 89.1855 1424.01 89.1855C1424.48 89.1855 1425.03 89.2295 1425.68 89.3174V88.3066C1426.21 88.2773 1426.6 88.248 1426.87 88.2188C1427.51 88.1602 1427.95 88.1309 1428.18 88.1309C1428.33 88.1309 1428.45 88.1455 1428.54 88.1748C1429.65 88.585 1430.34 88.79 1430.6 88.79H1431.7C1431.44 88.1748 1430.82 87.0322 1429.85 85.3623C1429.62 84.2783 1429.38 83.4287 1429.15 82.8135C1428.89 82.667 1428.7 82.5938 1428.58 82.5938C1427.29 82.5938 1426.51 83.4873 1426.25 85.2744L1425.2 85.0107H1425.15C1424.83 84.9814 1424.39 85.2891 1423.83 85.9336C1423.07 86.168 1422.56 86.373 1422.29 86.5488C1422 86.7246 1421.71 87.0469 1421.42 87.5156C1421.06 87.1348 1420.89 86.7979 1420.89 86.5049C1420.89 85.9189 1421.02 85.2158 1421.28 84.3955C1421.34 84.2197 1421.45 83.8389 1421.59 83.2529L1420.84 83.0332C1420.87 82.418 1420.9 82.0371 1420.93 81.8906C1420.96 81.5977 1421.64 80.0889 1422.95 77.3643L1422.47 77.0566C1421.33 77.5547 1420.55 77.8037 1420.14 77.8037L1416.71 77.7158C1416.6 77.7158 1416.45 77.7891 1416.27 77.9355C1416.01 78.1699 1415.88 78.4336 1415.88 78.7266C1415.88 80.1035 1416.57 80.9531 1417.94 81.2754C1417.5 82.0371 1417.29 82.5791 1417.29 82.9014C1417.29 82.9893 1417.39 83.4141 1417.59 84.1758C1417.71 85.0254 1417.87 85.7725 1418.08 86.417L1418.56 86.5488V86.7246L1417.99 87.2959C1416.55 86.915 1415.41 86.3291 1414.56 85.5381L1413.9 86.1973L1411.31 84.7031C1411.31 84.2637 1411.28 84 1411.22 83.9121C1411.16 83.8242 1410.85 83.5605 1410.3 83.1211ZM1449.44 99.9082C1448.5 101.021 1447.28 101.842 1445.79 102.369C1445.73 102.867 1445.54 103.248 1445.22 103.512L1444.16 104.435C1444.13 104.464 1443.97 104.801 1443.68 105.445C1443.42 105.973 1443.11 106.339 1442.76 106.544C1441.76 107.042 1441.07 107.54 1440.69 108.038C1440.4 108.419 1440.22 108.639 1440.16 108.697L1439.46 109.181C1439.4 109.21 1439.18 109.576 1438.8 110.279C1438.77 110.338 1438.48 110.704 1437.92 111.378C1437.54 111.876 1437.22 112.638 1436.96 113.663L1436.38 114.674L1436.12 115.641C1435.8 116.402 1435.64 116.9 1435.64 117.135C1435.64 117.721 1435.75 118.189 1435.99 118.541H1436.38C1437.03 118.541 1437.35 118.775 1437.35 119.244C1437.35 119.654 1436.93 119.918 1436.08 120.035L1436.12 120.519V121.266C1436.12 121.383 1436.16 121.485 1436.25 121.573C1436.31 121.632 1436.9 121.925 1438.01 122.452L1438.19 122.892L1438.27 123.023C1438.07 124.254 1437.97 124.884 1437.97 124.913C1437.97 125.03 1438.49 125.792 1439.55 127.198C1440.1 127.696 1440.73 128.253 1441.44 128.868C1442.14 129.483 1442.98 129.967 1443.94 130.318L1444.43 129.308C1444.75 129.513 1445.29 129.996 1446.05 130.758C1446.29 130.992 1446.9 131.153 1447.9 131.241C1448.19 131.271 1448.41 131.3 1448.56 131.329C1449.05 131.388 1449.42 131.417 1449.66 131.417C1449.92 131.417 1450.24 131.183 1450.62 130.714C1451.41 131.065 1451.96 131.241 1452.25 131.241C1452.28 131.241 1453.57 131.007 1456.12 130.538L1459.67 130.055L1461.08 129.527L1463.37 128.912C1465.09 128.18 1466.3 127.55 1466.97 127.022L1468.6 126.319L1469.21 125.924L1469.39 125.88C1470.03 125.646 1470.41 125.528 1470.53 125.528H1470.88C1471.29 124.884 1471.61 124.488 1471.85 124.342L1473.56 123.463L1474.57 122.408C1475.22 121.91 1475.74 121.441 1476.15 121.002C1475.69 120.475 1475.47 119.947 1475.5 119.42L1477.21 119.596C1477.5 119.039 1477.71 118.248 1477.82 117.223C1477.85 117.047 1478.13 116.769 1478.66 116.388C1478.31 115.743 1478.13 115.274 1478.13 114.981C1478.13 114.542 1478.32 114.176 1478.7 113.883C1478.97 113.678 1479.95 113.37 1481.65 112.96C1482.41 112.462 1482.83 112.184 1482.92 112.125C1483.04 112.096 1483.39 112.052 1483.98 111.993L1484.68 111.466C1486.09 110.646 1486.99 109.84 1487.4 109.049C1488.22 108.434 1488.65 108.111 1488.68 108.082C1489.12 107.438 1489.38 106.222 1489.47 104.435C1489.47 104.229 1489.5 103.819 1489.56 103.204L1488.37 103.028L1488.11 101.974C1487.76 101.681 1487.04 101.402 1485.95 101.139L1485.21 99.8643C1483.71 100.304 1482.78 100.685 1482.39 101.007C1482.45 101.417 1482.69 101.827 1483.1 102.237C1483.89 103.028 1484.27 103.644 1484.24 104.083L1483.98 105.709C1484.04 107.262 1483.6 108.258 1482.66 108.697C1482.34 108.844 1481.75 109.21 1480.9 109.796C1480.49 110.089 1479.96 110.353 1479.32 110.587C1478.7 110.821 1478.22 110.938 1477.87 110.938C1477.84 110.938 1477.52 110.792 1476.9 110.499C1476.05 110.177 1475.08 109.664 1474 108.961C1473.83 108.844 1473.44 108.609 1472.86 108.258V109.225C1472.71 109.4 1472.57 109.488 1472.42 109.488C1471.75 109.488 1471.36 108.741 1471.28 107.247C1470.75 106.896 1470.1 106.588 1469.34 106.324L1467.98 105.797L1467.23 105.709L1465.7 105.357L1464.64 105.489L1463.23 105.665L1462.09 106.104L1460.82 106.456L1459.72 107.071L1457.04 108.126L1455.37 109.576C1454.08 110.602 1453.24 111.349 1452.86 111.817C1452.48 112.257 1452.29 112.784 1452.29 113.399C1452.29 113.985 1452.53 114.396 1453 114.63C1453.73 115.011 1454.21 115.362 1454.45 115.685C1454.68 115.714 1454.9 115.729 1455.1 115.729C1456.1 115.729 1456.6 115.392 1456.6 114.718L1456.07 113.575C1456.45 112.96 1456.69 112.55 1456.77 112.345C1457.8 110.499 1458.49 109.532 1458.84 109.444C1459.04 109.298 1459.65 109.151 1460.64 109.005L1462.27 108.521L1463.01 109.005L1463.67 109.049L1465.26 109.708L1466.75 110.191L1468.24 111.51L1469.21 112.125L1469.83 112.96C1469.86 112.989 1470.29 113.253 1471.14 113.751C1472.23 114.396 1472.77 115.201 1472.77 116.168C1472.77 117.838 1472.3 119.317 1471.36 120.606C1470.43 121.925 1469.81 122.672 1469.52 122.848L1466.49 124.825C1466.4 124.884 1466.19 125.177 1465.87 125.704H1465.48C1465.3 125.704 1464.96 125.807 1464.46 126.012L1462.31 126.671L1460.91 127.374L1459.63 127.77L1458.71 128.165L1456.86 128.209L1456.25 128.253L1454.75 128.165H1453.39L1451.54 127.682C1450.84 127.682 1450.37 127.652 1450.14 127.594C1448.85 127.184 1448.09 126.891 1447.85 126.715C1447.53 126.48 1446.68 125.66 1445.3 124.254L1444.03 123.111C1443.88 122.994 1443.68 122.584 1443.42 121.881C1442.74 121.441 1442.26 120.87 1441.96 120.167C1441.91 119.991 1441.83 119.815 1441.75 119.64C1441.31 118.819 1441.03 117.97 1440.91 117.091L1440.51 115.992L1440.78 115.025C1440.87 113.824 1440.92 113.121 1440.95 112.916C1441.13 112.359 1441.32 111.847 1441.53 111.378C1442.17 110.177 1442.55 109.254 1442.67 108.609C1443.52 108.346 1444.13 107.979 1444.51 107.511C1444.95 106.954 1445.41 106.471 1445.88 106.061C1446.4 105.211 1446.7 104.771 1446.75 104.742C1446.84 104.654 1447.56 104.244 1448.91 103.512C1449.79 102.867 1450.27 102.53 1450.36 102.501C1450.62 102.384 1450.99 102.325 1451.46 102.325H1452.03L1452.2 102.149L1451.72 101.183C1452.39 100.89 1452.89 100.743 1453.21 100.743C1453.24 100.743 1453.55 100.831 1454.14 101.007L1456.2 98.5459C1456.35 98.3994 1456.53 98.3262 1456.73 98.3262C1457.26 98.3262 1457.83 98.9414 1458.44 100.172C1458.74 98.9121 1458.97 98.2822 1459.15 98.2822C1459.35 98.2822 1459.78 98.9121 1460.42 100.172L1461.08 99.7324C1461.61 99.8789 1461.97 100.069 1462.18 100.304C1462.47 100.626 1462.88 100.934 1463.41 101.227C1463.94 100.758 1464.25 100.509 1464.33 100.479C1464.45 100.421 1465.4 100.04 1467.19 99.3369C1467.6 99.1904 1467.86 98.8828 1467.98 98.4141C1468.24 97.4766 1468.54 96.7148 1468.86 96.1289C1468.3 95.8066 1467.88 95.6455 1467.58 95.6455C1467.5 95.6455 1467.01 95.7627 1466.13 95.9971L1463.59 96.1289C1462.33 96.627 1461.56 96.876 1461.3 96.876C1460.95 96.876 1460.55 96.8467 1460.11 96.7881C1459.44 96.7002 1458.18 96.6562 1456.33 96.6562L1454.93 96.1729L1453.83 96.1289C1452.25 95.7188 1451.33 95.4844 1451.06 95.4258C1450.53 95.25 1449.92 94.9424 1449.22 94.5029C1449.04 94.3564 1448.66 94.1367 1448.07 93.8438C1447.93 93.1992 1447.65 92.7158 1447.24 92.3936C1447 92.2471 1446.65 91.8662 1446.18 91.251C1446.3 90.8701 1446.48 90.2109 1446.71 89.2734C1446.92 88.4824 1447.03 88.0723 1447.06 88.043C1447.12 87.9844 1447.72 87.5303 1448.86 86.6807C1450.07 85.5967 1450.75 84.9961 1450.93 84.8789C1451.16 84.7324 1451.56 84.5566 1452.12 84.3516L1453.04 83.8682L1454.53 83.4287C1455.29 83.0771 1455.75 82.9014 1455.9 82.9014C1456.16 82.9014 1456.55 83.0332 1457.08 83.2969C1457.67 83.1797 1458.09 83.0771 1458.36 82.9893C1458.8 82.8428 1459.12 82.7695 1459.32 82.7695C1459.44 82.7695 1459.6 82.8135 1459.81 82.9014C1460.42 83.1064 1460.83 83.209 1461.04 83.209C1461.1 83.209 1461.18 83.1943 1461.3 83.165L1461.83 82.2861L1462.93 82.9014C1463.01 81.3486 1463.25 80.5723 1463.63 80.5723L1464.46 81.0996L1466.88 82.3301C1467.88 83.4434 1468.45 84 1468.6 84C1468.86 84 1469.11 83.7363 1469.34 83.209C1468.84 82.4473 1468.58 81.9492 1468.55 81.7148C1468.43 80.9824 1468.35 80.5723 1468.29 80.4844C1468.23 80.3672 1467.85 80.0742 1467.15 79.6055C1466.15 78.6387 1465.31 78.1553 1464.64 78.1553C1464.03 78.1553 1463.56 78.3164 1463.23 78.6387L1461.17 80.792C1460.32 79.5322 1459.81 78.8438 1459.63 78.7266C1459.16 78.7559 1458.06 79.2393 1456.33 80.1768L1455.54 80.4844L1454.4 81.0117C1453.26 81.334 1452.6 81.5244 1452.42 81.583C1451.98 81.7588 1451.56 82.1543 1451.15 82.7695L1449.61 82.9453L1449.17 83.9121C1448.62 84.0879 1448.26 84.2197 1448.12 84.3076L1446.8 85.6699L1445.48 86.7686C1445.36 86.8857 1445.17 87.2227 1444.91 87.7793H1443.99C1443.25 88.5996 1442.89 89.3467 1442.89 90.0205C1442.89 90.2256 1442.9 90.4746 1442.93 90.7676H1443.15L1442.4 92.7012L1443.24 93.1846L1443.06 94.459C1443.71 95.3672 1444.15 95.9238 1444.38 96.1289C1444.85 96.4805 1445.25 96.9346 1445.57 97.4912L1447.24 97.0957C1447.21 97.4473 1447.19 97.7402 1447.19 97.9746C1447.19 98.8828 1447.94 99.5273 1449.44 99.9082ZM1490.02 111.29V112.037L1490.51 112.696C1490.98 112.374 1491.3 112.184 1491.47 112.125L1493.01 111.905C1494.24 111.554 1495.43 111.231 1496.57 110.938L1498.46 109.488C1499.13 110.66 1499.71 111.451 1500.17 111.861C1500.09 112.506 1500 113.165 1499.91 113.839C1499.85 114.454 1499.62 115.538 1499.21 117.091L1498.94 118.233L1498.37 119.991L1498.5 121.925L1497.85 123.551L1497.36 125.792L1497.01 127.198C1497.01 127.374 1497.13 127.564 1497.36 127.77C1497.83 128.209 1498.37 128.429 1498.99 128.429C1500.51 128.429 1501.29 127.052 1501.32 124.298L1501.98 120.079V118.717L1502.42 117.179C1502.83 115.04 1503.16 113.604 1503.43 112.872L1502.77 111.993V111.817C1503.06 111.817 1503.29 111.832 1503.47 111.861C1504.2 111.92 1504.64 111.949 1504.79 111.949C1505.14 111.949 1505.62 111.539 1506.24 110.719C1506.74 111.188 1507.24 111.48 1507.73 111.598C1509.02 111.891 1509.81 112.037 1510.11 112.037C1510.34 112.037 1510.74 111.979 1511.29 111.861C1511.91 111.773 1512.39 111.729 1512.74 111.729H1512.83H1512.88L1515.16 111.905C1516.27 111.905 1517.15 111.993 1517.8 112.169C1517.65 112.901 1517.53 113.736 1517.45 114.674L1516.83 116.959L1516.57 118.146L1516 119.771L1516.13 121.925C1516.13 121.954 1515.91 122.496 1515.47 123.551C1515.44 123.639 1515.23 124.503 1514.85 126.144C1514.82 126.349 1514.71 126.759 1514.5 127.374C1515.26 128.077 1515.92 128.429 1516.48 128.429C1518.09 128.429 1518.91 127.052 1518.94 124.298L1519.55 119.991V118.585L1519.91 117.486C1520.35 115.172 1520.68 113.619 1520.92 112.828L1520.52 112.213L1520.65 112.037C1520.8 111.979 1520.89 111.949 1520.92 111.949L1521.93 112.169L1523.03 112.037C1524.49 112.213 1525.24 112.301 1525.27 112.301C1525.79 112.301 1526.44 111.964 1527.2 111.29C1527.55 111.407 1527.79 111.466 1527.9 111.466C1528.26 111.466 1529.08 111.114 1530.37 110.411V109.269L1532.52 107.643C1532.37 107.262 1532.04 107.071 1531.51 107.071C1530.42 107.071 1529.56 107.188 1528.92 107.423C1528.53 107.569 1528.12 107.965 1527.68 108.609L1527.25 108.478L1526.67 107.906C1525.79 108.199 1524.84 108.375 1523.82 108.434C1523.47 108.58 1523.13 108.697 1522.81 108.785C1522.57 109.693 1522.24 110.147 1521.8 110.147C1521.53 110.147 1521.17 110.045 1520.7 109.84V109.576H1521.36C1521.39 107.965 1521.52 106.412 1521.75 104.918C1521.78 104.742 1521.84 104.347 1521.93 103.731L1521.4 103.6L1521.05 102.281C1521.9 101.871 1522.29 101.578 1522.24 101.402C1522.32 101.227 1522.4 100.743 1522.46 99.9521C1522.46 99.6885 1522.53 99.2197 1522.67 98.5459C1522.94 98.5166 1523.16 98.502 1523.33 98.502C1523.39 98.502 1523.47 98.5166 1523.55 98.5459L1524.12 98.6338L1525.88 96.7441C1526.5 98.0332 1527.03 98.7217 1527.46 98.8096C1527.93 98.8096 1528.55 98.4727 1529.31 97.7988L1530.45 97.9746L1532.52 96.832L1532.34 95.7773L1534.54 94.3271V93.8438L1533.4 93.624H1533.35C1533.09 93.6533 1532.59 93.7412 1531.86 93.8877C1531.21 94.0342 1530.83 94.1514 1530.72 94.2393C1530.6 94.2979 1530.35 94.5908 1529.97 95.1182C1529.47 95.0303 1529.06 94.7959 1528.74 94.415C1527.83 94.7959 1526.85 94.9863 1525.79 94.9863V95.2061C1525.33 95.2939 1524.96 95.6016 1524.7 96.1289C1524.4 96.334 1524.05 96.4365 1523.64 96.4365H1523.16C1523.25 95.792 1523.36 95.0742 1523.51 94.2832C1523.74 92.9941 1523.86 92.2031 1523.86 91.9102C1523.86 91.7051 1523.71 90.9873 1523.42 89.7568L1524.65 87.6914L1524.78 85.626L1525.22 84.4395L1525.36 82.2861L1526.01 78.5508C1526.01 78.5215 1525.96 78.3164 1525.84 77.9355C1524.64 78.082 1523.74 78.3604 1523.16 78.7705C1522.63 79.1514 1522.37 79.5176 1522.37 79.8691C1522.37 79.9277 1522.51 80.3818 1522.81 81.2314L1522.67 81.9785L1522.59 83.165L1522.28 84.9229C1522.22 85.8604 1522.1 86.5635 1521.93 87.0322C1521.49 88.1162 1521.27 88.834 1521.27 89.1855C1521.27 89.3613 1521.47 89.6836 1521.88 90.1523L1521.8 91.251L1521.22 91.6465L1520.65 95.1182C1519.72 95.3525 1519.19 95.4697 1519.07 95.4697H1516.21L1514.94 95.6016C1514.76 95.6016 1514.5 95.543 1514.15 95.4258L1513.97 95.6016L1510.41 95.4258C1509.89 95.9531 1509.45 96.2168 1509.1 96.2168C1508.71 96.2168 1508.16 95.9531 1507.43 95.4258H1506.5L1506.28 95.2061H1505.8L1506.42 91.251C1505.89 90.8115 1505.62 90.4453 1505.62 90.1523C1505.62 90.0059 1505.96 89.4785 1506.63 88.5703C1506.87 88.2773 1506.99 88.0723 1506.99 87.9551C1507.02 87.8379 1507.06 87.1494 1507.12 85.8896L1507.56 84.6592L1507.65 82.7256C1508.11 80.4404 1508.35 79.2246 1508.35 79.0781C1508.35 78.7559 1508.32 78.375 1508.26 77.9355C1507.03 78.082 1506.12 78.3604 1505.54 78.7705C1505.01 79.1514 1504.75 79.5322 1504.75 79.9131C1504.75 79.9424 1504.89 80.3525 1505.18 81.1436L1505.05 81.9785L1504.96 83.165L1504.61 84.7031C1504.61 85.6992 1504.51 86.4756 1504.31 87.0322C1503.87 88.0869 1503.65 88.8486 1503.65 89.3174C1503.65 89.5225 1503.87 89.7275 1504.31 89.9326L1504.13 91.2949L1503.51 91.5586V92.1738C1503.51 92.6133 1503.43 93.2432 1503.25 94.0635L1503.08 95.2939C1502.52 95.1475 1502.02 95.001 1501.58 94.8545C1501.29 94.7666 1500.06 94.5615 1497.89 94.2393L1497.1 94.0195L1495.78 94.1953C1495.75 94.1953 1495.62 94.1514 1495.38 94.0635C1495.21 94.2686 1495.03 94.6787 1494.86 95.2939L1494.73 95.3818L1494.46 96.1289L1493.98 96.7881L1493.76 97.1396C1493.61 97.4033 1493.11 97.5645 1492.26 97.623C1492.21 97.8574 1492.18 98.0039 1492.18 98.0625C1492.18 98.3555 1492.31 98.7217 1492.57 99.1611C1493.28 98.9561 1495.28 98.7217 1498.59 98.458C1499.82 98.0479 1500.51 97.8428 1500.66 97.8428C1500.92 97.8428 1501.45 98.0039 1502.24 98.3262C1502.18 99.0293 1502.02 99.791 1501.76 100.611L1501.54 102.853L1501.41 104.083L1501.54 105.313C1501.54 105.841 1501.42 106.588 1501.19 107.555C1501.13 107.73 1501.02 108.111 1500.88 108.697C1499.71 108.346 1498.58 108.097 1497.49 107.95L1497.45 107.994C1497.13 107.818 1496.89 107.73 1496.75 107.73L1496.13 107.774C1495.25 107.569 1494.77 107.467 1494.68 107.467C1494.36 107.467 1493.96 107.525 1493.5 107.643L1493.19 107.379C1492.89 108.082 1492.69 108.697 1492.57 109.225C1492.51 109.488 1492.26 109.767 1491.83 110.06V110.675L1490.02 111.29ZM1503.87 106.983C1504.1 105.519 1504.25 104.449 1504.31 103.775C1503.95 103.629 1503.76 103.438 1503.73 103.204C1503.73 103.146 1503.68 102.984 1503.56 102.721C1503.53 102.633 1503.51 102.545 1503.51 102.457V102.325C1504.13 101.974 1504.51 101.681 1504.66 101.446C1504.72 101.271 1504.8 100.626 1504.92 99.5127C1504.95 99.3076 1505.02 98.9268 1505.14 98.3701C1505.7 98.458 1506.17 98.502 1506.55 98.502C1506.78 98.502 1507.16 98.4141 1507.69 98.2383L1507.82 97.3154C1507.94 97.2861 1508.04 97.2715 1508.13 97.2715C1508.25 97.2715 1508.51 97.418 1508.92 97.7109C1509.62 98.2383 1510.82 98.502 1512.52 98.502H1512.88C1513.96 98.4141 1514.6 98.3701 1514.81 98.3701L1516.87 98.458C1518.31 98.4873 1519.31 98.5752 1519.86 98.7217C1519.75 99.3662 1519.57 99.9229 1519.33 100.392L1519.16 102.457L1518.98 103.731C1519.07 104.64 1519.12 105.108 1519.12 105.138C1519.12 105.636 1519.01 106.368 1518.81 107.335C1518.75 107.54 1518.66 107.95 1518.54 108.565L1516.96 108.873H1509.1L1508.35 108.785C1507.91 109.342 1507.53 109.62 1507.21 109.62C1506.88 109.62 1506.3 109.459 1505.45 109.137V108.873H1504.44L1504.13 108.565L1504 108.653H1503.87V107.643V107.335C1503.84 107.276 1503.84 107.159 1503.87 106.983ZM1538.61 89.4053C1538.67 89.6396 1538.74 90.0938 1538.83 90.7676C1538.62 91.1191 1538.46 91.3828 1538.35 91.5586C1538.14 91.793 1538.02 91.9541 1537.99 92.042L1538.04 92.3496C1538.07 93.5801 1538.18 94.5908 1538.39 95.3818L1539.09 95.4697C1538.98 95.9971 1538.92 96.4365 1538.92 96.7881C1538.92 97.2861 1539.37 97.9893 1540.28 98.8975C1540.46 99.0439 1540.76 99.3809 1541.2 99.9082C1541.52 99.9375 1541.71 99.9814 1541.77 100.04C1541.89 100.128 1542.05 100.377 1542.26 100.787C1542.64 101.578 1543.17 101.974 1543.84 101.974C1544.01 101.974 1544.23 101.944 1544.5 101.886L1545.38 102.677L1546.52 102.457C1547.25 102.926 1547.79 103.16 1548.15 103.16C1548.23 103.16 1548.31 103.146 1548.37 103.116C1548.95 102.882 1549.54 102.721 1550.12 102.633C1550.42 102.574 1551 102.413 1551.88 102.149C1552.44 101.944 1553.21 101.725 1554.21 101.49C1554.53 101.402 1554.75 101.314 1554.87 101.227C1555.37 100.699 1555.94 100.289 1556.58 99.9961C1557.61 99.5566 1558.79 98.6777 1560.14 97.3594C1560.23 96.8906 1560.36 96.5244 1560.54 96.2607C1560.6 96.29 1560.67 96.3047 1560.76 96.3047C1561.11 96.3047 1561.4 96.2021 1561.64 95.9971C1561.84 95.8213 1562.41 94.8691 1563.35 93.1406C1564.02 92.291 1564.39 91.8076 1564.45 91.6904C1564.54 91.5439 1564.61 91.251 1564.67 90.8115C1565.05 90.4014 1565.25 90.1523 1565.28 90.0645C1565.31 89.9473 1565.39 89.2588 1565.5 87.999L1565.37 86.6367C1565.43 86.0215 1565.46 85.6992 1565.46 85.6699C1565.46 85.2012 1565.33 84.6152 1565.06 83.9121C1564.71 82.9746 1564.54 82.4326 1564.54 82.2861C1564.42 81.7295 1564.26 81.3193 1564.05 81.0557H1562.82C1562.35 79.8838 1562.06 79.21 1561.94 79.0342C1561.74 78.6533 1561.3 78.2578 1560.63 77.8477L1560.41 77.7158L1559.4 81.3633L1559.09 80.2207C1558.88 79.4004 1558.34 78.8145 1557.46 78.4629C1556.79 78.1992 1556.41 77.9941 1556.32 77.8477L1555.62 76.793L1554.83 77.1006L1553.77 77.4082L1553.24 77.6279C1552.28 77.7158 1551.12 78.0088 1549.77 78.5068C1549.6 78.5654 1549.23 78.6826 1548.67 78.8584V79.2979C1548.23 79.5615 1547.65 79.9277 1546.92 80.3965C1546.12 80.8652 1545.25 81.5391 1544.28 82.418C1544.13 82.5645 1543.79 82.8721 1543.27 83.3408V83.4287L1543.53 83.7363C1542.77 83.8828 1542.14 84.3076 1541.64 85.0107C1540.67 87.2959 1539.84 88.4385 1539.14 88.4385C1538.96 88.4385 1538.76 88.4238 1538.52 88.3945C1538.49 88.541 1538.48 88.6436 1538.48 88.7021C1538.48 88.8486 1538.52 89.083 1538.61 89.4053ZM1542.08 90.0205V88.6582L1541.95 88.5264L1543.09 87.9551C1543.09 87.2812 1543.12 86.8125 1543.18 86.5488C1543.36 86.168 1543.93 85.5381 1544.89 84.6592L1546.21 83.1211C1546.92 82.9453 1547.31 82.8281 1547.4 82.7695C1547.52 82.623 1547.96 82.2861 1548.72 81.7588L1549.33 81.0557C1549.42 80.9678 1549.83 80.8652 1550.56 80.748C1551.38 80.6309 1551.95 80.5723 1552.28 80.5723C1553.42 80.5723 1554.55 80.9238 1555.66 81.627L1557.29 81.0117L1557.07 82.4619L1557.86 82.7695C1558.03 83.0039 1558.41 83.3262 1559 83.7363C1559.56 84.2051 1559.94 84.4395 1560.14 84.4395C1560.23 84.4395 1560.36 84.4248 1560.54 84.3955L1560.85 84.7031L1560.36 85.626L1561.42 87.208H1561.68C1561.59 87.5889 1561.55 87.8965 1561.55 88.1309C1561.55 88.248 1561.67 88.6729 1561.9 89.4053C1561.61 90.2549 1561.46 90.7236 1561.46 90.8115C1561.46 91.0752 1561.53 91.3975 1561.68 91.7783C1561.27 92.1885 1561.04 92.4375 1560.98 92.5254C1560.95 92.6133 1560.66 93.2578 1560.1 94.459C1560.04 94.6055 1559.92 94.7227 1559.75 94.8105C1559.34 95.0449 1558.93 95.4404 1558.52 95.9971C1558.4 96.29 1557.96 96.6855 1557.2 97.1836V97.5352C1556.58 97.6816 1556.13 97.8428 1555.84 98.0186C1555.13 98.458 1554.56 98.751 1554.12 98.8975C1552.66 99.3369 1551.59 99.5566 1550.91 99.5566C1550.45 99.5566 1550.08 99.498 1549.82 99.3809C1548.79 98.8535 1548.2 98.5898 1548.06 98.5898C1547.76 98.5898 1547.44 98.6045 1547.09 98.6338L1546.83 97.9307L1547 97.7549C1545.95 96.8467 1545.29 96.334 1545.03 96.2168C1544.76 96.0996 1544.25 96.0557 1543.49 96.085L1543.75 93.8438C1541.35 93.1992 1540.15 92.5547 1540.15 91.9102C1540.15 91.2949 1540.91 90.6943 1542.43 90.1084L1542.3 90.0205H1542.08ZM1546.61 125.396C1546.11 126.188 1545.74 127.022 1545.51 127.901C1545.92 128.224 1546.26 128.385 1546.52 128.385C1546.96 128.385 1547.46 128.238 1548.01 127.945C1548.45 127.74 1548.7 127.623 1548.76 127.594C1550.28 127.037 1551.21 126.642 1551.53 126.407C1551.85 126.173 1552.28 125.602 1552.8 124.693C1553.13 124.225 1553.29 123.917 1553.29 123.771C1553.29 123.448 1553.16 123.038 1552.89 122.54C1553.68 122.276 1554.17 121.983 1554.34 121.661C1554.52 121.339 1554.74 120.445 1555 118.98L1556.32 117.091L1557.46 113.883C1557.52 113.766 1557.8 113.458 1558.3 112.96C1558.3 111.876 1558.37 111.144 1558.52 110.763C1558.72 110.353 1559.26 110.001 1560.14 109.708C1560.64 108.302 1560.89 107.394 1560.89 106.983V106.852H1561.37C1561.84 106.178 1562.81 104.757 1564.27 102.589L1564.93 101.666L1565.37 100.611L1566.51 98.7656L1567.04 97.4473L1570.16 92.7451C1570.19 92.6865 1570.21 92.4521 1570.21 92.042V91.3828L1571.61 90.7236C1571.79 89.874 1572.04 89.2441 1572.36 88.834C1573.41 87.5156 1573.94 86.6953 1573.94 86.373C1573.94 86.3145 1573.87 86.1533 1573.72 85.8896C1573.9 85.6553 1574.07 85.4795 1574.25 85.3623C1574.37 85.2744 1574.47 85.1279 1574.56 84.9229C1574.56 84.8057 1574.73 84.5273 1575.08 84.0879C1575.58 83.4727 1575.8 83.0918 1575.74 82.9453C1575.74 82.3008 1575.85 81.8174 1576.05 81.4951C1576.7 81.4951 1577.21 81.4219 1577.59 81.2754C1577.97 80.5137 1578.56 79.5762 1579.35 78.4629C1579.61 78.1113 1579.74 77.7598 1579.74 77.4082C1579.74 76.793 1579.38 76.4854 1578.64 76.4854C1578.26 76.4854 1577.76 76.6611 1577.15 77.0127C1576.45 77.4229 1575.99 77.6426 1575.79 77.6719L1574.6 77.8037C1574.22 77.833 1573.47 78.6387 1572.36 80.2207C1572.04 80.6895 1571.88 81.1143 1571.88 81.4951C1571.88 81.7588 1571.92 82.0957 1572.01 82.5059C1571.39 82.8574 1570.98 83.1504 1570.78 83.3848C1570.6 83.5898 1570.5 84.0146 1570.47 84.6592C1570.5 84.8643 1570.48 85.2598 1570.43 85.8457L1570.51 85.9336C1570.16 86.2852 1569.96 86.5195 1569.9 86.6367C1569.46 87.3398 1569.2 87.7061 1569.11 87.7354C1568.76 87.999 1568.58 88.1748 1568.58 88.2627L1568.71 88.5264C1568.74 88.6143 1568.76 88.7168 1568.76 88.834C1568.76 89.4785 1568.49 90.1523 1567.96 90.8555C1567.23 91.8516 1566.87 92.4961 1566.87 92.7891C1566.87 93.6094 1566.85 94.0635 1566.82 94.1514C1566.68 94.5615 1566.47 94.8545 1566.21 95.0303C1564.98 95.7334 1564.36 96.4072 1564.36 97.0518C1564.36 97.3154 1564.55 97.6816 1564.93 98.1504V98.3701L1564.76 98.5898L1563.57 98.3701C1563.39 98.9854 1562.79 100.172 1561.77 101.93C1561.56 102.281 1561.34 102.706 1561.11 103.204C1560.61 104.259 1560.25 104.845 1560.01 104.962C1560.01 105.05 1559.66 105.24 1558.96 105.533C1558.87 105.738 1558.78 106.207 1558.69 106.939C1558.66 107.174 1557.75 108.521 1555.97 110.982C1555.44 111.744 1555.12 112.623 1555 113.619L1553.64 114.41V115.333C1552.88 115.831 1552.31 116.432 1551.92 117.135C1551.81 117.398 1551.72 117.574 1551.66 117.662C1551.4 118.102 1551.29 118.365 1551.35 118.453L1551.66 119.112C1550.58 120.255 1549.95 121.075 1549.77 121.573C1549.45 122.599 1549.26 123.141 1549.2 123.199C1549 123.434 1548.44 123.58 1547.53 123.639C1547.27 124.283 1546.96 124.869 1546.61 125.396ZM1560.98 115.772C1560.98 116.153 1560.74 116.622 1560.27 117.179L1560.23 117.662C1560.23 118.219 1560.45 119.156 1560.89 120.475H1561.11C1561.26 121.148 1561.33 122.027 1561.33 123.111L1562.21 123.287C1562.56 123.902 1563.19 124.591 1564.1 125.353C1564.16 125.44 1564.24 125.704 1564.36 126.144C1565.09 126.642 1565.65 126.891 1566.03 126.891C1566.15 126.891 1566.28 126.876 1566.43 126.847C1566.81 127.315 1567.1 127.564 1567.31 127.594L1568.76 127.682C1569.63 128.121 1570.12 128.341 1570.21 128.341C1570.38 128.341 1571.08 128.106 1572.32 127.638C1574.04 127.257 1575.08 127.022 1575.44 126.935C1575.96 126.729 1576.78 126.261 1577.9 125.528C1578.95 124.884 1580.04 124.181 1581.15 123.419C1581.53 123.155 1581.88 122.921 1582.2 122.716V121.749C1582.85 121.573 1583.32 121.383 1583.61 121.178C1583.9 120.973 1584.24 120.504 1584.62 119.771C1585.09 118.893 1585.43 118.321 1585.63 118.058C1586.01 117.589 1586.38 117.062 1586.73 116.476C1587.17 115.772 1587.42 115.128 1587.48 114.542C1587.54 113.429 1587.59 112.33 1587.65 111.246V111.114C1587.42 110.206 1586.92 108.609 1586.16 106.324C1585.16 106.148 1584.59 105.812 1584.44 105.313C1584.42 104.845 1584.33 104.479 1584.18 104.215C1584.12 104.156 1584.03 104.01 1583.92 103.775C1583.3 103.365 1582.72 103.146 1582.16 103.116L1579.87 102.457L1578.82 102.281L1577.72 101.93C1577.63 101.9 1577.31 102.018 1576.75 102.281C1576.52 102.398 1575.88 102.574 1574.82 102.809C1574.67 102.838 1573.84 103.087 1572.32 103.556C1572.11 103.614 1571.71 103.717 1571.13 103.863L1570.95 104.479C1570.13 104.713 1569.44 105.079 1568.89 105.577L1567.44 106.72L1566.47 107.599L1565.68 108.17C1565.39 108.58 1565.12 108.888 1564.89 109.093C1564.27 109.649 1563.94 110.016 1563.88 110.191C1563.09 111.979 1562.47 113.033 1562.03 113.355H1561.37L1560.93 113.531L1560.76 113.707C1560.85 114.381 1560.9 114.894 1560.93 115.245C1560.96 115.45 1560.98 115.626 1560.98 115.772ZM1565.46 120.475C1565.46 120.24 1565.61 119.903 1565.9 119.464C1565.02 118.937 1564.58 118.307 1564.58 117.574L1564.62 115.465C1564.62 115.406 1564.49 115.245 1564.23 114.981L1564.14 114.894V113.707C1564.61 113.473 1564.89 113.224 1564.98 112.96L1565.72 110.895C1565.78 110.807 1566.1 110.47 1566.69 109.884C1566.87 109.708 1567.26 109.283 1567.88 108.609C1568.11 108.346 1568.26 108.199 1568.32 108.17C1569.31 107.818 1569.91 107.584 1570.12 107.467C1570.41 107.262 1571 106.764 1571.88 105.973C1572.05 106.002 1572.21 106.017 1572.36 106.017C1572.71 106.017 1573.15 105.826 1573.68 105.445C1574.32 105.65 1575.16 105.768 1576.18 105.797C1576.53 105.826 1576.87 106.002 1577.19 106.324C1577.49 106.617 1577.75 106.764 1577.98 106.764H1578.29L1578.78 106.017H1579.3C1579.45 106.368 1579.52 106.69 1579.52 106.983C1579.52 107.188 1579.51 107.438 1579.48 107.73C1580.33 107.936 1580.78 108.141 1580.84 108.346C1581.02 108.404 1581.22 108.785 1581.46 109.488C1581.95 109.254 1582.35 109.137 1582.64 109.137C1582.7 109.137 1582.83 109.166 1583.04 109.225L1582.55 110.895C1582.94 111.51 1583.48 112.096 1584.18 112.652C1583.86 113.268 1583.7 113.824 1583.7 114.322H1584L1584.18 114.498C1583.83 115.348 1583.62 115.992 1583.57 116.432L1583.87 117.047C1583.05 117.926 1582.47 118.907 1582.12 119.991L1581.19 120.343C1581.02 120.812 1580.8 121.148 1580.53 121.354C1580.09 121.705 1579.74 122.101 1579.48 122.54C1578.66 122.745 1577.69 123.17 1576.58 123.814C1574.62 124.4 1573.49 124.693 1573.19 124.693C1572.96 124.693 1572.05 124.386 1570.47 123.771C1569.85 123.712 1569.42 123.624 1569.15 123.507C1569.15 123.009 1568.96 122.628 1568.58 122.364L1568.14 122.013C1567.53 121.485 1566.95 121.222 1566.43 121.222C1566.22 121.222 1565.99 121.236 1565.72 121.266C1565.55 120.914 1565.46 120.65 1565.46 120.475ZM1596.07 116.388C1595.75 117.296 1595.57 117.867 1595.54 118.102C1596.01 118.541 1596.7 119.215 1597.61 120.123C1597.76 120.24 1598.31 120.694 1599.28 121.485C1600.07 121.222 1600.64 121.09 1600.99 121.09C1601.76 121.09 1602.22 121.412 1602.4 122.057C1602.58 122.643 1602.72 123.009 1602.84 123.155C1603.57 123.214 1604.45 123.478 1605.48 123.946C1606.68 124.503 1607.69 124.781 1608.51 124.781C1608.57 124.781 1608.64 124.767 1608.73 124.737C1609.58 124.591 1610.02 124.518 1610.05 124.518C1610.43 124.518 1610.82 124.708 1611.23 125.089C1611.85 125.675 1612.16 126.173 1612.16 126.583C1612.16 126.7 1612.01 127.169 1611.72 127.989C1611.66 128.136 1611.57 128.883 1611.45 130.23C1611.45 130.406 1611.39 130.772 1611.28 131.329C1612.13 131.856 1612.83 132.12 1613.39 132.12C1614.65 132.12 1615.28 131.461 1615.28 130.143C1615.28 130.025 1615.2 129.513 1615.06 128.604V127.066L1615.01 125.484C1615.01 125.25 1615.1 124.767 1615.28 124.034H1616.02C1616.43 124.034 1617.88 123.595 1620.37 122.716L1621.78 121.397L1625.74 118.365C1627.46 116.227 1628.43 114.996 1628.64 114.674C1628.93 114.234 1629.21 113.575 1629.47 112.696C1629.71 111.993 1629.87 111.568 1629.95 111.422L1630 111.378L1629.87 109.84L1629.91 109.796L1630.7 109.884L1630.92 108.521C1630.86 108.023 1630.75 107.145 1630.57 105.885C1629.51 105.885 1628.99 105.489 1628.99 104.698C1628.99 104.317 1629.29 104.024 1629.91 103.819C1628.94 102.091 1627.52 100.729 1625.65 99.7324C1624.18 98.9414 1623.23 98.5166 1622.79 98.458C1621.77 98.3408 1621.21 98.2383 1621.12 98.1504C1620.62 97.7109 1620.32 97.4766 1620.2 97.4473C1619.99 97.418 1619.6 97.3008 1619.01 97.0957L1618.53 97.8867C1618.09 99.9375 1617.81 100.963 1617.69 100.963C1617.66 100.963 1617.61 100.758 1617.52 100.348C1617.25 99.3809 1617.12 98.4287 1617.12 97.4912V96.7881C1616.36 96.583 1615.64 96.29 1614.97 95.9092C1614.94 95.1768 1614.92 94.6494 1614.92 94.3271C1614.92 94.0635 1614.94 93.624 1614.97 93.0088V91.3828V91.3389C1615 90.9873 1614.94 90.7236 1614.79 90.5479C1614.38 89.9033 1614.18 89.4932 1614.18 89.3174C1614.79 88.7607 1615.09 88.3652 1615.06 88.1309C1614.94 87.0762 1614.88 86.4609 1614.88 86.2852V85.3623C1615.12 85.3916 1615.61 85.4795 1616.38 85.626C1617.75 85.9189 1618.97 86.0801 1620.02 86.1094C1620.4 86.959 1620.81 87.3838 1621.25 87.3838C1621.43 87.3838 1622.35 86.7832 1624.02 85.582C1624.43 85.2891 1624.72 84.8057 1624.9 84.1318C1624.2 84.0146 1623.8 83.8682 1623.71 83.6924C1623.63 83.5752 1623.54 83.3262 1623.45 82.9453C1622.6 82.916 1621.63 82.7549 1620.55 82.4619L1617.96 82.374L1617.47 82.3301L1616.24 82.5938C1615.8 82.2422 1615.54 82.0225 1615.45 81.9346C1615.07 81.583 1614.88 81.1436 1614.88 80.6162C1614.88 80.0889 1614.91 79.5615 1614.97 79.0342C1615.03 78.4775 1615.06 78.0381 1615.06 77.7158C1615.06 77.4229 1614.98 76.998 1614.84 76.4414L1613.65 76.6611L1613.61 76.5732C1612.96 76.7197 1612.62 76.8369 1612.6 76.9248C1612.33 77.0127 1611.98 77.4082 1611.54 78.1113C1612.13 78.7559 1612.42 79.459 1612.42 80.2207C1612.42 80.7188 1612.36 81.5098 1612.24 82.5938C1611.92 82.8574 1611.5 83.0332 1610.97 83.1211C1610.21 83.2676 1609.56 83.7363 1609.04 84.5273C1608.68 84.4688 1608.39 84.4395 1608.16 84.4395C1607.86 84.4395 1607.66 84.4834 1607.54 84.5713C1605.87 85.6846 1604.71 86.3877 1604.07 86.6807L1604.29 87.9111C1603.94 88.2041 1603.35 88.3652 1602.53 88.3945C1602.33 88.7754 1602.22 89.0391 1602.22 89.1855C1602.22 89.4785 1602.43 89.8887 1602.84 90.416C1602.58 91.1484 1602.39 91.4854 1602.27 91.4268C1602.21 91.6025 1601.76 91.6904 1600.91 91.6904C1600.26 92.9502 1599.94 93.7412 1599.94 94.0635C1599.94 94.21 1600.03 94.6787 1600.2 95.4697C1600.29 95.7627 1600.33 96.3779 1600.33 97.3154C1600.86 97.7256 1601.43 98.1797 1602.05 98.6777C1602.49 99.0293 1603.1 99.3809 1603.89 99.7324C1604.54 100.113 1604.92 100.318 1605.04 100.348H1605.08L1605.7 99.9082C1606.11 99.9375 1606.62 100.274 1607.23 100.919H1607.76C1608.44 100.919 1609.26 101.065 1610.22 101.358C1610.34 101.505 1610.49 101.695 1610.66 101.93C1610.84 102.193 1611.15 102.398 1611.58 102.545C1611.85 103.336 1611.98 103.863 1611.98 104.127L1611.89 106.148C1611.89 107.848 1612.02 108.976 1612.29 109.532C1612.41 109.737 1612.45 109.884 1612.42 109.972L1612.07 115.641V115.729V116.563V117.091L1611.89 119.2C1611.83 120.226 1611.8 120.812 1611.8 120.958C1611.72 121.251 1611.48 121.603 1611.1 122.013C1610.22 121.925 1609.59 121.837 1609.21 121.749C1608.74 121.632 1607.76 121.134 1606.27 120.255C1604.6 119.698 1603.67 119.332 1603.5 119.156L1602.66 118.409C1602.61 118.351 1602.39 118.307 1602 118.277C1601.83 117.779 1601.68 117.457 1601.57 117.311C1601.42 117.135 1600.91 116.725 1600.03 116.08C1599.88 115.992 1599.62 115.772 1599.24 115.421C1599.15 114.776 1599.02 114.308 1598.84 114.015C1598.64 113.663 1598.06 113.326 1597.13 113.004C1596.95 113.561 1596.83 114.132 1596.78 114.718C1596.48 114.952 1596.32 115.128 1596.29 115.245L1596.07 116.388ZM1605.34 92.6133C1605.32 92.6133 1605.23 92.4814 1605.08 92.2178C1605.34 91.0752 1605.68 90.2695 1606.09 89.8008C1607.32 88.3359 1608.26 87.3838 1608.9 86.9443C1609.75 86.3584 1610.41 86.0654 1610.88 86.0654C1611.26 86.0654 1611.72 86.124 1612.24 86.2412C1612.24 87.3252 1612.16 88.3213 1611.98 89.2295L1612.82 89.7129V90.1084C1612.82 90.5771 1612.58 91.0752 1612.11 91.6025C1612.55 92.3057 1612.77 92.8623 1612.77 93.2725C1612.77 93.7412 1612.51 94.4443 1611.98 95.3818C1610.98 95.3818 1609.93 95.2061 1608.82 94.8545L1608.33 94.7227L1607.37 93.7119L1605.34 92.6133ZM1614.18 114.938L1614.05 114.674L1613.91 114.586C1614.68 113.678 1615.06 112.975 1615.06 112.477C1615.06 112.33 1615.01 111.92 1614.92 111.246C1614.9 110.982 1614.88 110.675 1614.88 110.323C1614.88 109.825 1614.9 109.254 1614.92 108.609L1614.4 108.258L1613.91 107.247L1614.84 106.764V103.38L1615.06 103.072C1616.43 103.248 1617.33 103.395 1617.74 103.512C1618.44 103.863 1618.88 104.039 1619.06 104.039C1619.2 104.039 1619.36 103.966 1619.54 103.819C1620.01 103.409 1620.45 103.146 1620.86 103.028C1621.44 103.673 1621.78 104.449 1621.87 105.357L1622.83 105.885L1623.41 107.862C1624.84 108.683 1625.56 109.225 1625.56 109.488V109.532L1625.3 110.543L1624.29 110.411C1623.96 110.851 1623.8 111.144 1623.8 111.29L1624.02 113.619C1623.38 115.875 1622.31 117.647 1620.81 118.937C1620.37 119.229 1619.71 119.654 1618.84 120.211L1617.52 120.914C1617.4 121.002 1617.14 121.28 1616.73 121.749C1616.43 121.72 1616.21 121.705 1616.07 121.705H1615.67H1615.5C1615.2 121.705 1614.97 121.559 1614.79 121.266L1615.01 119.859V117.838L1615.28 116.256C1615.28 115.846 1614.91 115.406 1614.18 114.938ZM1640.48 123.023C1640.34 123.111 1640.09 123.448 1639.74 124.034C1640.47 124.122 1640.98 124.269 1641.27 124.474C1641.45 124.62 1641.79 125.104 1642.29 125.924L1643.47 126.979C1644.29 127.975 1644.94 128.692 1645.41 129.132C1645.9 128.722 1646.91 127.975 1648.44 126.891C1648.5 126.861 1648.76 126.451 1649.23 125.66C1649.52 125.221 1649.67 124.942 1649.67 124.825C1649.67 123.976 1649.11 123.185 1648 122.452C1646.74 121.632 1646.06 121.178 1645.98 121.09C1645.39 120.533 1644.98 120.255 1644.75 120.255C1644.51 120.255 1644.28 120.313 1644.04 120.431C1643.93 120.489 1643.5 120.899 1642.77 121.661L1640.48 123.023ZM1647.87 73.541C1647.87 73.1895 1647.69 72.8818 1647.34 72.6182C1646.75 72.8818 1646.17 73.0576 1645.58 73.1455C1644.26 73.3799 1643.03 73.9512 1641.89 74.8594C1641.1 75.5332 1640.7 76.251 1640.7 77.0127C1640.7 77.833 1641.29 78.7705 1642.46 79.8252L1642.24 81.2314V81.3193L1645.19 83.2529C1645.19 83.4287 1644.97 83.6484 1644.53 83.9121C1643.94 84.2637 1643.21 84.7617 1642.33 85.4062C1643.15 85.582 1643.65 85.7578 1643.82 85.9336C1644 86.0508 1644.1 86.373 1644.13 86.9004H1642.59V87.5596L1642.68 87.6475H1642.94C1643.03 88.3213 1643.09 90.0645 1643.12 92.877C1643.15 93.1699 1643.4 93.7412 1643.87 94.5908C1643.72 94.7959 1643.57 95.0156 1643.43 95.25C1643.25 95.5137 1643.15 95.9971 1643.12 96.7002C1643.06 98.3994 1643.03 99.4102 1643.03 99.7324C1643.03 99.8203 1643.08 100.055 1643.16 100.436L1644.48 100.304C1644.6 100.743 1644.66 101.124 1644.66 101.446C1644.66 102.003 1644.23 102.296 1643.38 102.325C1643.3 103.116 1643.12 104.552 1642.86 106.632C1642.8 107.364 1642.74 107.774 1642.68 107.862C1641.89 108.858 1641.38 109.679 1641.14 110.323C1641.79 111.026 1642.29 111.378 1642.64 111.378L1644.31 111.334C1644.54 111.334 1644.92 111.393 1645.45 111.51C1646.24 110.836 1646.74 110.221 1646.94 109.664C1647.18 109.02 1647.53 108.434 1648 107.906L1647.87 106.939C1647.78 106.5 1647.69 105.958 1647.6 105.313C1647.43 104.435 1647.12 103.688 1646.68 103.072C1647.03 102.516 1647.24 102.047 1647.29 101.666C1647.32 101.344 1647.34 100.333 1647.34 98.6338C1646.84 98.165 1646.59 97.6377 1646.59 97.0518C1646.59 96.7588 1646.72 96.0557 1646.99 94.9424L1647.16 92.2178C1647.25 90.7529 1647.29 89.9912 1647.29 89.9326C1647.29 89.8154 1647.21 89.1855 1647.03 88.043L1647.56 86.5049L1647.51 85.2305C1647.6 84.2051 1647.65 83.6631 1647.65 83.6045C1647.65 82.7549 1647.43 81.4805 1646.99 79.7812L1647.69 78.8145L1643.91 77.6719L1646.37 76.2656C1647.37 75.6797 1647.87 74.7715 1647.87 73.541ZM1655.23 123.023C1655.08 123.111 1654.84 123.448 1654.48 124.034C1655.22 124.122 1655.73 124.269 1656.02 124.474C1656.2 124.62 1656.54 125.104 1657.03 125.924L1658.22 126.979C1659.04 127.975 1659.68 128.692 1660.15 129.132C1660.65 128.722 1661.66 127.975 1663.19 126.891C1663.24 126.861 1663.51 126.451 1663.98 125.66C1664.27 125.221 1664.42 124.942 1664.42 124.825C1664.42 123.976 1663.86 123.185 1662.75 122.452C1661.49 121.632 1660.81 121.178 1660.72 121.09C1660.14 120.533 1659.73 120.255 1659.49 120.255C1659.26 120.255 1659.03 120.313 1658.79 120.431C1658.67 120.489 1658.25 120.899 1657.52 121.661L1655.23 123.023ZM1662.61 73.541C1662.61 73.1895 1662.44 72.8818 1662.09 72.6182C1661.5 72.8818 1660.92 73.0576 1660.33 73.1455C1659.01 73.3799 1657.78 73.9512 1656.64 74.8594C1655.85 75.5332 1655.45 76.251 1655.45 77.0127C1655.45 77.833 1656.04 78.7705 1657.21 79.8252L1656.99 81.2314V81.3193L1659.93 83.2529C1659.93 83.4287 1659.71 83.6484 1659.27 83.9121C1658.69 84.2637 1657.96 84.7617 1657.08 85.4062C1657.9 85.582 1658.4 85.7578 1658.57 85.9336C1658.75 86.0508 1658.85 86.373 1658.88 86.9004H1657.34V87.5596L1657.43 87.6475H1657.69C1657.78 88.3213 1657.84 90.0645 1657.87 92.877C1657.9 93.1699 1658.15 93.7412 1658.62 94.5908C1658.47 94.7959 1658.32 95.0156 1658.18 95.25C1658 95.5137 1657.9 95.9971 1657.87 96.7002C1657.81 98.3994 1657.78 99.4102 1657.78 99.7324C1657.78 99.8203 1657.82 100.055 1657.91 100.436L1659.23 100.304C1659.35 100.743 1659.41 101.124 1659.41 101.446C1659.41 102.003 1658.98 102.296 1658.13 102.325C1658.04 103.116 1657.87 104.552 1657.6 106.632C1657.55 107.364 1657.49 107.774 1657.43 107.862C1656.64 108.858 1656.12 109.679 1655.89 110.323C1656.54 111.026 1657.03 111.378 1657.38 111.378L1659.05 111.334C1659.29 111.334 1659.67 111.393 1660.2 111.51C1660.99 110.836 1661.49 110.221 1661.69 109.664C1661.93 109.02 1662.28 108.434 1662.75 107.906L1662.61 106.939C1662.53 106.5 1662.44 105.958 1662.35 105.313C1662.17 104.435 1661.87 103.688 1661.43 103.072C1661.78 102.516 1661.98 102.047 1662.04 101.666C1662.07 101.344 1662.09 100.333 1662.09 98.6338C1661.59 98.165 1661.34 97.6377 1661.34 97.0518C1661.34 96.7588 1661.47 96.0557 1661.74 94.9424L1661.91 92.2178C1662 90.7529 1662.04 89.9912 1662.04 89.9326C1662.04 89.8154 1661.96 89.1855 1661.78 88.043L1662.31 86.5049L1662.26 85.2305C1662.35 84.2051 1662.39 83.6631 1662.39 83.6045C1662.39 82.7549 1662.17 81.4805 1661.74 79.7812L1662.44 78.8145L1658.66 77.6719L1661.12 76.2656C1662.12 75.6797 1662.61 74.7715 1662.61 73.541Z" fill="white"/>
<path d="M1369.95 160.691C1371.82 158.858 1374.56 158.225 1377.05 159.051L1480.74 193.488C1487.46 195.718 1487 205.361 1480.11 206.952L1298.32 248.922C1291.43 250.513 1286.79 242.044 1291.85 237.098L1369.95 160.691Z" fill="white"/>
</g>
<defs>
<filter id="filter0_d_822_23" x="0.550049" y="0" width="1725.45" height="572.486" filterUnits="userSpaceOnUse" color-interpolation-filters="sRGB">
<feFlood flood-opacity="0" result="BackgroundImageFix"/>
<feColorMatrix in="SourceAlpha" type="matrix" values="0 0 0 0 0 0 0 0 0 0 0 0 0 0 0 0 0 0 127 0" result="hardAlpha"/>
<feOffset dx="2" dy="2"/>
<feGaussianBlur stdDeviation="1"/>
<feComposite in2="hardAlpha" operator="out"/>
<feColorMatrix type="matrix" values="0 0 0 0 0.192157 0 0 0 0 0.215686 0 0 0 0 0.278431 0 0 0 1 0"/>
<feBlend mode="normal" in2="BackgroundImageFix" result="effect1_dropShadow_822_23"/>
<feBlend mode="normal" in="SourceGraphic" in2="effect1_dropShadow_822_23" result="shape"/>
</filter>
</defs>
</svg>
