<svg width="2739" height="1275" viewBox="0 0 2739 1275" fill="none" xmlns="http://www.w3.org/2000/svg">
<path d="M1328.19 687.278C1328.03 686.451 1328.31 685.617 1328.06 684.802L1278.84 528.79C1275.81 519.213 1266.15 512.619 1255.16 512.619H1132.11V401.175C1132.11 315.157 1054.89 245.162 959.972 245.162H812.018C717.103 245.162 639.882 315.157 639.882 401.175V512.613H73.8282C62.8422 512.613 53.1807 519.207 50.1562 528.784L0.934982 684.796C0.679987 685.617 0.956231 686.451 0.807484 687.278C0.573738 688.51 0 689.62 0 690.909V1181.24C0 1193.55 11.0073 1203.53 24.6141 1203.53H123.056V1274H172.278V1203.53H1156.72V1274H1205.94V1203.53H1304.39C1317.99 1203.53 1329 1193.56 1329 1181.24V690.909C1329.01 689.626 1328.43 688.51 1328.19 687.278ZM689.111 401.175C689.111 339.73 744.246 289.736 812.018 289.736H959.972C1027.75 289.736 1082.89 339.73 1082.89 401.175V512.613H689.111V401.175ZM92.3862 557.187H664.496H1107.49H1236.61L1271.75 668.625H57.2464L92.3862 557.187ZM1279.79 1158.95H1205.94H1156.72H172.278H123.056H49.2212V713.199H1279.78V1158.95H1279.79Z" fill="white"/>
<path d="M1432.05 551.121C1430.77 540.699 1437.77 531.061 1448.08 529.053L1646.35 490.418C1657.73 488.2 1668.61 496.099 1670.02 507.611L1688.54 658.431C1689.96 669.992 1681.24 680.315 1669.61 680.847L1467.73 690.083C1457.28 690.561 1448.24 682.916 1446.96 672.541L1432.05 551.121Z" fill="white"/>
<path d="M2530.72 300.694C2529.59 291.439 2535 282.627 2543.76 279.452L2572.6 269.012C2584.71 264.624 2597.75 272.671 2599.27 285.467L2642.25 648.852C2643.79 661.852 2632.63 672.8 2619.66 671.015L2590.69 667.026C2581.7 665.789 2574.68 658.656 2573.57 649.651L2530.72 300.694Z" fill="white"/>
<path fill-rule="evenodd" clip-rule="evenodd" d="M2506.95 310.752C2505.56 299.448 2495.03 291.583 2483.8 293.464L1703.9 424.065C1693.34 425.834 1686.05 435.602 1687.35 446.228L1720.34 714.862C1721.64 725.512 1731.12 733.233 1741.82 732.358L2529.83 667.886C2541.16 666.96 2549.44 656.795 2548.05 645.516L2506.95 310.752ZM1855 557.501C1855.26 558.339 1854.83 559.23 1854.03 559.576V559.576C1853.59 559.761 1853.24 560.11 1853.11 560.562C1853 560.954 1852.95 561.257 1852.98 561.47C1853.02 561.795 1853.12 562.255 1853.29 562.848C1853.58 563.663 1853.81 564.533 1853.97 565.457C1854.22 566.936 1854.43 568.14 1854.59 569.07C1854.85 570.634 1855.32 572.157 1855.79 573.674C1855.83 573.803 1855.85 573.892 1855.86 573.938C1855.86 573.98 1855.86 574.407 1855.84 575.218C1855.84 575.405 1855.85 575.593 1855.87 575.779V575.779C1856.01 576.942 1856.53 578.437 1857.41 580.265L1861.54 588.472L1861.82 589.117C1861.96 589.447 1862.15 589.756 1862.37 590.038C1862.72 590.473 1863.03 590.877 1863.3 591.251C1863.9 592.08 1864.96 592.443 1865.98 592.319V592.319C1867.14 592.176 1867.8 592.756 1867.96 594.059V594.059C1868.23 596.216 1868.78 598.367 1870.42 599.783C1870.6 599.938 1870.77 600.082 1870.91 600.213C1873.07 602.404 1874.58 603.754 1875.45 604.261C1875.95 604.53 1876.6 604.616 1877.39 604.518V604.518C1878.41 604.393 1879.51 604.584 1880.09 605.434C1880.14 605.509 1880.19 605.585 1880.23 605.663C1880.76 606.514 1881.38 607.328 1882.2 607.898C1883 608.453 1883.96 609.184 1885.09 610.091C1886.6 611.391 1889.67 612.436 1894.29 613.225C1894.68 613.291 1895.05 613.041 1895.13 612.659V612.659C1895.2 612.331 1895.49 612.092 1895.83 612.086C1896.63 612.071 1897.27 612.092 1897.74 612.15V612.15C1899.41 612.536 1900.98 613.386 1902.7 613.259C1903.72 613.184 1904.56 613.145 1905.23 613.143C1906.64 613.112 1907.37 613.093 1907.42 613.087C1911.35 612.605 1913.8 612.29 1914.76 612.143C1915.07 612.096 1915.34 611.948 1915.57 611.732V611.732C1915.97 611.359 1916.46 611.099 1916.99 610.981L1918.32 610.686L1919.63 610.384V610.384C1920.9 610.063 1922.19 611.136 1923.47 610.837C1926.42 610.149 1929.61 609.307 1933.04 608.311L1933.87 608.165C1935.03 607.959 1936.16 607.65 1937.27 607.244L1939.23 606.521C1940.47 606.065 1941.76 605.767 1943.05 605.454C1943.64 605.311 1944.15 605.153 1944.61 604.979L1946.04 604.442C1947.52 603.889 1949.06 603.524 1950.62 603.296C1952.29 603.052 1953.33 602.838 1953.74 602.653C1955.72 601.465 1957.04 600.832 1957.69 600.752C1957.97 600.717 1958.35 600.718 1958.82 600.754C1959.15 600.761 1959.44 600.75 1959.67 600.721V600.721C1959.76 600.71 1959.85 600.69 1959.94 600.663C1963.92 599.477 1966.61 598.72 1968.03 598.393C1968.34 598.322 1968.62 598.158 1968.83 597.915V597.915C1969.13 597.556 1969.59 597.376 1970.06 597.414C1970.91 597.483 1971.61 597.484 1972.16 597.417C1972.66 597.354 1973.86 596.956 1975.74 596.222C1977.33 595.604 1978.98 595.154 1980.67 594.918C1982.17 594.709 1983.16 594.562 1983.64 594.478C1983.86 594.439 1984.07 594.35 1984.22 594.181C1984.43 593.94 1984.67 593.564 1984.92 593.052C1985.12 592.649 1985.45 592.326 1985.87 592.171L1986.19 592.056C1986.79 591.834 1987.12 591.198 1987.04 590.56V590.56C1987 590.234 1987.01 589.926 1987.07 589.635L1987.1 589.494C1987.28 588.53 1987.12 587.608 1986.58 586.791V586.791C1986.29 586.354 1986.07 585.554 1985.93 584.391L1985.87 583.903C1985.77 582.525 1985.7 581.642 1985.68 581.252C1985.66 581.1 1985.64 580.949 1985.57 580.812C1985.49 580.654 1985.38 580.454 1985.22 580.211C1984.9 579.728 1984.27 579.674 1983.76 579.415V579.415C1983.51 579.309 1983.13 578.916 1982.63 578.236C1982.28 577.771 1982.44 577.117 1982.94 576.827V576.827C1983.23 576.657 1983.42 576.35 1983.45 576.013C1983.5 575.472 1983.58 575.051 1983.68 574.749V574.749C1983.81 574.447 1983.7 574.097 1983.42 573.92L1979.17 571.187C1978.43 570.708 1978.47 569.607 1979.25 569.185V569.185V569.185C1979.3 569.369 1979.52 569.452 1979.68 569.355C1980.34 568.969 1980.77 568.665 1980.98 568.444C1981.08 568.337 1981.18 568.218 1981.26 568.095V568.095L1982.32 567.523C1982.71 567.307 1982.77 566.711 1982.35 566.551V566.551C1982.06 566.443 1981.83 566.672 1981.73 566.966C1981.56 567.502 1981.4 567.879 1981.26 568.095L1979.25 569.185C1978.93 568.153 1978.75 567.449 1978.7 567.073C1978.66 566.707 1978.81 565.757 1979.16 564.224C1979.26 563.803 1979.61 563.49 1980.04 563.437V563.437C1980.55 563.374 1980.94 562.944 1980.96 562.429C1980.99 561.781 1981.04 561.177 1981.1 560.615C1981.25 558.802 1981.3 557.45 1981.24 556.56C1980.95 553.432 1980.75 551.449 1980.65 550.611C1980.44 548.936 1980.09 547.232 1979.59 545.498C1979.49 545.039 1979.43 544.693 1979.4 544.46C1979.39 544.367 1979.39 543.044 1979.41 540.492L1979.39 540.352V540.352C1979.15 538.376 1976.38 537.944 1974.47 538.516C1974.05 538.643 1973.62 538.773 1973.19 538.905C1973.14 538.919 1973.1 538.929 1973.05 538.934V538.934L1970.36 538.911C1970.17 538.934 1969.53 539.084 1968.43 539.36C1968.06 539.453 1967.72 539.519 1967.39 539.559C1967.05 539.6 1966.63 539.621 1966.13 539.623C1964.33 539.629 1962.78 540.904 1960.99 541.123V541.123C1960.76 541.152 1960.6 541.149 1960.5 541.113L1956.71 540.303C1956.42 540.244 1955.46 540.315 1953.83 540.515C1952.58 540.669 1951.88 540.778 1951.75 540.841C1951.21 541.096 1950.59 541.598 1949.88 542.346C1948.57 543.64 1947.96 544.636 1948.05 545.333C1948.14 546.031 1948.55 546.335 1949.3 546.243V546.243C1950.28 546.123 1951.19 545.552 1952.18 545.618C1952.39 545.632 1952.53 545.633 1952.62 545.623C1957.04 545.08 1959.45 544.713 1959.85 544.522C1960.98 544.054 1961.56 543.816 1961.61 543.811V543.811C1961.65 543.805 1961.7 543.813 1961.74 543.834L1962.17 544.052C1962.58 544.257 1963.05 544.296 1963.5 544.195C1963.82 544.122 1964.12 544.069 1964.4 544.035C1964.82 543.983 1965.25 544.072 1965.7 544.299C1966.93 545.009 1967.85 546.224 1968.49 547.945C1968.72 548.588 1969.35 549.023 1970.03 548.94V548.94C1971.8 548.723 1973.48 548.941 1975.07 549.596C1975.27 549.666 1975.37 549.725 1975.37 549.771C1975.38 549.864 1975.32 549.943 1975.19 550.006L1971.08 552.282C1970.28 552.711 1969.97 553.669 1970.15 555.158L1970.24 555.856L1971.11 561.981C1971.25 563.003 1971.48 564.011 1971.77 565C1972.35 566.966 1972.67 568.138 1972.72 568.516C1972.92 570.144 1972.87 571.519 1972.58 572.641V572.641C1972.53 572.912 1972.62 573.191 1972.82 573.379L1977.33 577.565C1978.39 578.549 1978.3 580.254 1977.14 581.114L1976.39 581.668C1975.31 582.468 1975.48 584.132 1976.71 584.688V584.688C1978.1 585.324 1978.08 587.317 1976.66 587.915L1974.7 588.745C1974.21 588.947 1974.01 589.444 1974.11 590.235V590.235C1974.16 590.659 1974 591.097 1973.6 591.248C1972.66 591.606 1971.29 592.188 1969.51 592.995C1969.23 593.124 1968.93 593.226 1968.63 593.3L1965.58 594.045C1962.82 595.045 1961.16 595.579 1960.6 595.647V595.647C1959.26 595.812 1958.41 597.013 1957.45 597.959C1957.23 598.166 1956.98 598.288 1956.68 598.325C1956.5 598.348 1956.35 598.342 1956.26 598.307C1954.88 597.862 1954.07 597.654 1953.84 597.682C1953.61 597.711 1952.13 598.175 1949.41 599.077C1945.23 600.062 1943.1 600.583 1943.01 600.641V600.641C1942.14 601.343 1941.36 602.209 1940.28 602.457C1939.33 602.672 1938.59 602.814 1938.04 602.88C1937.63 602.932 1937.25 602.954 1936.92 602.948C1935.33 603.049 1934.37 603.119 1934.04 603.159C1933.71 603.199 1932.84 603.354 1931.41 603.625C1926.26 604.445 1923.53 604.875 1923.2 604.915C1922.88 604.955 1922.6 604.966 1922.36 604.948V604.948C1921.55 604.859 1920.77 604.995 1920.05 605.391C1919.92 605.467 1919.77 605.549 1919.61 605.64C1919.17 605.883 1918.6 606.047 1917.9 606.133C1917.84 606.14 1917.79 606.147 1917.73 606.153C1914.6 606.493 1911.4 608.702 1908.27 609.086V609.086C1908.13 609.103 1907.2 608.839 1905.48 608.295C1903.76 607.75 1902.51 607.338 1901.72 607.057C1899.16 606.061 1896.9 604.746 1894.95 603.112C1894.81 602.995 1894.6 603.023 1894.5 603.174V603.174C1894.38 603.341 1894.14 603.353 1894.01 603.197L1893.52 602.609C1893.26 602.358 1892.69 602.168 1891.82 602.038C1890.71 601.797 1890.07 601.639 1889.92 601.563C1889.82 601.528 1889.38 601.204 1888.6 600.592C1888.34 600.388 1887.87 600.067 1887.21 599.63C1885.61 598.551 1884.36 597.571 1883.45 596.691C1882.42 595.683 1881.24 594.884 1879.89 594.294C1878.94 593.844 1878.39 593.416 1878.25 593.008L1877.37 590.495C1877.21 589.948 1876.55 588.99 1875.39 587.621C1875.27 587.509 1875.11 587.339 1874.91 587.11C1874.22 586.328 1873.04 586.493 1872.01 586.619V586.619C1871.5 586.682 1871.21 586.458 1871.15 585.946C1871.14 585.9 1871.23 584.383 1871.41 581.395C1871.41 581.293 1871.39 581.191 1871.33 581.106V581.106C1870.5 579.861 1869.88 578.311 1869.46 576.457C1869.2 575.321 1868.29 574.421 1867.13 574.296V574.296C1867.01 574.283 1866.89 574.279 1866.76 574.284C1863.95 574.388 1862.18 574.39 1861.44 574.29C1861.2 574.256 1861.23 574.099 1861.46 574.029V574.029C1863.38 573.3 1865.04 572.661 1866.42 572.112C1867.39 571.731 1867.91 570.703 1867.53 569.743V569.743C1867.12 568.858 1866.79 568.046 1866.54 567.307C1866.38 566.826 1865.87 566.537 1865.38 566.673V566.673C1865.08 566.756 1864.75 566.685 1864.54 566.459C1864.02 565.912 1863.73 565.371 1863.67 564.833C1863.66 564.75 1863.65 564.667 1863.65 564.584C1863.62 562.574 1864.78 560.63 1864.53 558.634V558.634C1864.46 558.076 1864.42 556.334 1864.39 553.41L1864.37 553.27C1864.32 552.846 1863.93 552.402 1863.21 551.939C1862.41 551.418 1861.74 550.635 1862.46 549.994V549.994C1863.15 549.378 1863.97 548.512 1864 547.588C1864.04 546.266 1864.2 545.157 1864.47 544.262C1865.1 542.106 1865.38 540.726 1865.31 540.121C1865.22 539.443 1865.1 538.71 1864.93 537.922C1864.72 536.896 1865.1 535.92 1865.45 534.932V534.932C1865.52 534.781 1866.17 532.364 1867.39 527.68C1867.85 526.537 1868.13 525.845 1868.23 525.604C1868.25 525.547 1868.27 525.489 1868.27 525.429C1868.28 525.27 1868.28 524.979 1868.26 524.556C1868.25 524.345 1868.07 524.183 1867.86 524.191V524.191C1867.61 524.2 1867.42 523.986 1867.46 523.746V523.746C1867.49 523.556 1867.65 523.414 1867.84 523.412L1868.07 523.409C1868.12 523.409 1868.16 523.427 1868.19 523.46V523.46C1868.25 523.532 1868.36 523.526 1868.41 523.448C1868.68 523.047 1868.9 522.588 1869.07 522.071C1869.24 521.594 1869.6 521.206 1870.09 521.083L1870.25 521.043C1870.69 520.932 1871.07 520.638 1871.28 520.232C1871.97 518.893 1872.65 517.449 1873.31 515.902C1874.1 514.247 1874.91 512.754 1875.74 511.425C1876.7 509.607 1877.24 508.62 1877.36 508.463C1877.68 508.101 1878.18 507.578 1878.88 506.895C1879.1 506.671 1879.18 506.335 1879.09 506.032V506.032C1878.9 505.43 1879.42 504.832 1880.04 504.95V504.95C1880.31 505.002 1880.6 504.913 1880.79 504.708C1881.9 503.532 1882.58 502.648 1882.81 502.056V502.056C1883.14 501.32 1883.87 500.955 1884.56 500.538C1884.74 500.435 1884.88 500.332 1884.99 500.229C1886 499.255 1886.64 498.634 1886.89 498.367C1887.39 497.849 1887.77 497.012 1888.01 495.855C1888.13 495.314 1888.52 494.837 1889.07 494.77V494.77C1889.18 494.756 1889.3 494.747 1889.44 494.742C1890.66 494.698 1891.58 493.894 1892.55 493.138V493.138L1895.97 490.451C1897.76 488.861 1899.19 487.766 1900.25 487.163C1902.09 486.111 1903.92 485.149 1905.75 484.277C1905.85 484.227 1905.91 484.208 1905.99 484.123V484.123C1906.6 483.476 1907 482.5 1907.87 482.35C1909.14 482.132 1909.92 481.936 1910.21 481.761C1912.07 480.398 1913.26 479.686 1913.77 479.623V479.623C1915.73 479.383 1917.74 479.785 1919.52 478.948L1919.58 478.92C1920.67 478.406 1921.87 478.143 1923.08 478.14C1923.39 478.14 1923.56 478.138 1923.58 478.135C1924.18 478.061 1924.69 477.786 1925.11 477.31L1925.92 476.216C1926.71 475.145 1928.22 474.927 1929.28 475.73V475.73C1929.65 476.011 1930.1 476.177 1930.57 476.209L1932.36 476.329C1932.92 476.367 1933.48 476.472 1934.02 476.641V476.641C1934.17 476.67 1934.53 476.342 1935.1 475.658C1935.27 475.449 1935.46 475.33 1935.7 475.301C1935.9 475.276 1936.21 475.32 1936.63 475.432C1938.45 475.915 1940.28 476.389 1942.15 476.335V476.335C1943.26 476.303 1944.37 476.413 1945.45 476.662L1947.03 477.027C1949.27 477.224 1950.7 477.285 1951.3 477.21C1951.82 477.148 1952.77 476.417 1954.15 475.019C1954.78 474.375 1955.47 473.795 1956.21 473.279C1957.17 472.642 1957.73 472.242 1957.9 472.079V472.079C1958.64 471.481 1958.12 470.266 1957.25 469.886C1957.01 469.778 1956.8 469.735 1956.62 469.757C1956.36 469.789 1955.96 470.065 1955.43 470.586C1955.36 470.657 1955.27 470.702 1955.17 470.715V470.715C1955.04 470.73 1954.92 470.693 1954.82 470.612L1954.46 470.306C1954.13 470.03 1953.7 469.906 1953.28 469.939C1952.17 470.025 1950.93 470.002 1949.57 469.872C1948.89 469.806 1948.2 469.782 1947.52 469.834C1944.22 470.083 1942.5 470.216 1942.37 470.231C1939.89 470.49 1938.3 470.596 1937.59 470.549C1937.54 470.546 1937.5 470.546 1937.45 470.552V470.552V470.552C1935.14 470.836 1933.48 473.156 1931.3 472.308C1929.63 471.657 1928.74 471.338 1928.62 471.353C1928.48 471.37 1928.3 471.439 1928.08 471.561C1926.48 472.371 1925.66 472.779 1925.61 472.785L1923.04 473.172L1921.65 473.413L1921.45 473.459C1920.26 473.733 1919.09 474.13 1917.98 474.644V474.644C1914.85 475.689 1911.96 476.776 1909.31 477.904C1908.74 478.183 1908.06 478.433 1907.27 478.653C1905.87 479.038 1904.49 479.467 1903.21 480.141V480.141L1899.19 482.05L1896.76 483.624C1895.33 484.411 1894.11 485.156 1893.1 485.86C1892.67 486.163 1892.43 487.014 1892.36 487.539V487.539C1892.29 488.074 1892.08 488.314 1891.66 488.658C1891.57 488.733 1891.47 488.813 1891.36 488.896C1890.89 489.243 1890.5 489.431 1889.98 489.17V489.17C1889.06 488.71 1887.75 488.538 1887.02 489.26C1886.26 490.016 1885.3 491.015 1884.15 492.256L1879.54 496.063C1879.06 496.463 1878.63 496.928 1878.27 497.444V497.444C1877.95 497.905 1877.58 498.325 1877.15 498.695L1876.84 498.968C1876.41 499.348 1876.01 499.763 1875.65 500.21L1875.38 500.538C1874.89 501.13 1874.37 501.682 1873.81 502.211C1872.42 503.554 1871.18 504.943 1870.09 506.38C1869.69 506.89 1868.9 507.872 1867.71 509.324C1867.16 509.994 1866.97 510.891 1867.21 511.724L1867.27 511.94C1867.53 512.864 1867.26 514.095 1866.3 514.212V514.212V514.212C1865.17 514.352 1863.87 514.211 1863.22 515.155C1863.2 515.184 1863.19 515.21 1863.17 515.235L1861.73 518.458L1859.35 522.221L1858.4 524.251C1856.12 529.159 1855.04 532.055 1855.14 532.939C1855.21 533.442 1855.53 533.76 1856.11 533.893C1856.86 534.066 1857.55 534.634 1857.49 535.409V535.409C1857.44 535.994 1856.99 536.466 1856.41 536.537L1855.71 536.624C1854.88 536.726 1854.18 537.307 1853.96 538.11C1853.69 539.062 1853.5 539.842 1853.38 540.452C1853.35 540.598 1853.1 542.824 1852.64 547.131L1852.34 548.681C1852.28 549.001 1852.25 549.327 1852.26 549.653C1852.31 551.516 1852.32 552.96 1852.31 553.986C1852.3 554.57 1852.81 555.044 1853.39 554.973V554.973C1853.8 554.922 1854.2 555.151 1854.34 555.54C1854.55 556.092 1854.77 556.745 1855 557.501ZM2009.56 598.562V598.562C2008.67 599.42 2009.27 600.736 2010.5 600.857C2011.29 600.935 2012.14 600.995 2013.05 601.038C2014.3 601.215 2015.11 601.281 2015.48 601.235V601.235C2018.01 600.926 2020.47 599.843 2023 599.534V599.534C2024.12 599.396 2025.15 599.038 2026.08 598.46C2027.28 597.71 2028.65 596.938 2029.98 597.427C2030.06 597.457 2030.14 597.488 2030.22 597.522C2030.3 597.553 2030.37 597.592 2030.44 597.633C2030.64 597.749 2030.93 597.889 2031.32 598.051C2031.78 598.241 2032.28 597.947 2032.36 597.462L2032.36 597.411C2032.41 597.1 2032.66 596.859 2032.97 596.821L2034.87 596.588C2035.02 596.57 2035.1 596.755 2034.98 596.85V596.85C2034.88 596.938 2034.94 597.106 2035.08 597.102C2035.98 597.07 2037.74 596.934 2040.36 596.694L2042.13 596.689L2043.82 596.623V596.623C2044.99 596.711 2046.16 596.465 2047.19 595.915L2049.82 594.512C2051.61 593.562 2053.39 593.634 2055.04 594.801C2055.08 594.826 2055.12 594.851 2055.15 594.877C2056.14 595.606 2057.14 595.907 2058.17 595.782V595.782C2059.9 595.569 2061.59 595.058 2063.33 595.081L2063.48 595.083C2064.74 595.1 2066.01 594.986 2067.25 594.744C2073.19 593.586 2076.32 592.986 2076.66 592.944L2076.87 592.918C2079.25 592.627 2080.84 592.549 2081.66 592.685V592.685C2082.04 592.776 2082.43 592.728 2082.78 592.552L2089.59 589.07C2090.58 588.564 2091.76 588.597 2092.72 589.158L2095.07 590.531C2095.55 590.814 2096.17 590.6 2096.38 590.081V590.081C2096.5 589.77 2096.79 589.552 2097.12 589.512L2097.49 589.466C2097.97 589.407 2098.4 589.125 2098.66 588.719C2099.02 588.173 2099.44 587.593 2099.92 586.979C2100.18 586.657 2100.41 586.315 2100.6 585.95L2102.32 582.639L2103.25 581.037C2103.47 580.662 2103.53 579.865 2103.44 578.645C2103.43 578.46 2103.28 578.314 2103.1 578.301V578.301C2103.07 578.299 2103.05 578.299 2103.02 578.303C2102.3 578.413 2100.6 579.283 2097.93 580.912C2097.9 580.926 2097.88 580.941 2097.85 580.956C2096.21 581.913 2095.49 583.701 2094.8 585.475V585.475C2094.3 586.764 2093.72 587.449 2093.07 587.529V587.529C2092.92 587.548 2092.81 587.422 2092.72 587.298C2091.37 585.379 2090.63 584.428 2090.5 584.445C2090.17 584.485 2089.7 584.661 2089.07 584.974C2088.72 585.206 2088.04 585.408 2087.02 585.58C2084.58 586.069 2082.29 586.657 2080.16 587.344L2076.77 588.043C2075.32 588.552 2074.29 588.843 2073.69 588.917C2073.18 588.98 2072.62 589.025 2072.01 589.053C2070.31 589.073 2069.13 589.122 2068.48 589.202C2068.44 589.207 2068.31 589.239 2068.09 589.299C2066.04 589.859 2063.89 589.695 2061.77 589.955V589.955C2061.54 589.984 2061.29 590.038 2061.01 590.119C2060.47 590.28 2060.02 590.414 2059.65 590.522C2058.88 590.747 2058.08 590.774 2057.3 590.615V590.615C2056.78 590.511 2056.26 590.461 2055.73 590.467L2054.61 590.48L2053.9 590.446C2052.74 590.391 2051.6 590.698 2050.62 591.324L2048.7 592.561C2047.52 593.314 2045.98 593.113 2045.04 592.086V592.086C2044.42 591.403 2043.51 591.065 2042.59 591.177L2040.66 591.414C2040.18 591.474 2039.69 591.479 2039.2 591.432L2035.13 591.031L2034.08 591.052C2032.94 591.074 2031.81 590.958 2030.67 590.876C2030.41 590.857 2030.21 590.856 2030.08 590.871V590.871C2029.32 590.965 2028.55 590.81 2027.83 590.556C2027.46 590.427 2027.08 590.341 2026.68 590.297C2025.62 590.144 2025.03 589.578 2024.91 588.601L2023.71 577.627C2023.69 577.471 2023.45 576.923 2023 575.983C2022.84 575.649 2022.47 575.476 2022.11 575.569V575.569C2021.62 575.695 2021.14 575.328 2021.15 574.822C2021.16 574.164 2021.19 573.405 2021.24 572.546C2021.19 571.75 2021.18 571.302 2021.22 571.203V571.203C2021.59 570.462 2021.76 569.634 2021.7 568.806L2021.6 567.209C2021.56 566.635 2021.57 566.058 2021.63 565.486C2021.88 562.804 2021.97 561.211 2021.91 560.704L2021.76 559.448L2021.55 558.34L2020.08 548.622C2020.06 548.518 2020.06 548.411 2020.08 548.306V548.306C2020.13 547.915 2019.97 547.53 2019.67 547.263C2018.93 546.581 2018.39 545.75 2018.06 544.769C2017.96 544.462 2018.06 544.128 2018.3 543.91L2019.18 543.103C2019.21 543.072 2019.26 543.085 2019.28 543.128V543.128C2019.3 543.186 2019.39 543.182 2019.4 543.121C2019.46 542.86 2019.48 542.634 2019.46 542.446C2019.42 542.12 2019.35 541.751 2019.25 541.338C2019.06 540.134 2018.88 538.904 2018.73 537.647L2018.52 535.972C2018.45 534.658 2018.15 532.027 2017.62 528.078C2017.55 527.511 2017.52 527.136 2017.54 526.952C2017.54 526.906 2017.54 526.859 2017.54 526.813V526.813V526.813C2017.45 526.45 2017.43 526.072 2017.49 525.703C2017.66 524.53 2017.75 523.924 2017.74 523.883C2017.65 523.092 2017.17 522.088 2016.31 520.871V520.871C2015.43 519.906 2015.91 518.452 2016.53 517.295C2016.75 516.878 2016.83 516.468 2016.79 516.067C2016.54 514.062 2016 512.592 2015.17 511.659C2014.94 511.399 2015.01 510.946 2015.34 510.837V510.837C2015.48 510.79 2015.59 510.674 2015.62 510.529C2015.7 510.15 2015.75 509.86 2015.77 509.659C2015.78 509.621 2015.79 509.584 2015.8 509.549V509.549C2015.82 509.486 2015.83 509.42 2015.81 509.355C2015.67 508.795 2014.93 508.329 2013.59 507.958V507.958C2011.81 507.453 2010.87 505.922 2010.52 504.097L2009.39 498.258C2009.33 497.9 2009.21 497.553 2009.04 497.228V497.228C2008.39 495.928 2008.5 494.373 2009.34 493.183L2009.9 492.384C2010.5 491.535 2010.85 490.536 2010.9 489.499L2011.01 487.684C2011.06 486.833 2011.38 486.025 2011.89 485.342C2012.76 484.176 2013.4 483.143 2013.81 482.24C2013.85 482.142 2013.81 482.027 2013.71 481.979V481.979C2013.68 481.961 2013.64 481.954 2013.6 481.959L2013.42 481.981C2013.14 482.016 2012.86 481.897 2012.68 481.669L2012.24 481.082C2011.91 480.642 2011.34 480.452 2010.81 480.605V480.605C2010.31 480.75 2009.76 480.584 2009.43 480.18L2009.3 480.03C2008.69 479.295 2008.94 478.223 2009.33 477.345C2009.43 477.107 2009.49 476.858 2009.51 476.599C2009.51 476.496 2009.55 476.395 2009.61 476.314V476.314C2009.7 476.196 2009.84 476.131 2009.99 476.138C2010.4 476.155 2010.72 476.149 2010.96 476.12C2011.25 476.084 2011.66 475.958 2012.2 475.742C2012.31 475.695 2012.38 475.575 2012.36 475.451L2012.34 475.28C2012.34 475.22 2012.28 475.178 2012.22 475.185V475.185C2012.17 475.192 2012.11 475.153 2012.1 475.097C2011.82 473.53 2011.6 472.339 2011.46 471.525C2011.26 470.699 2011.13 470.03 2011.07 469.518C2011.03 469.234 2011.06 468.916 2011.16 468.565C2011.39 467.682 2011.53 466.751 2011.21 465.897V465.897C2011.12 465.666 2011.06 465.426 2011.03 465.182L2010.82 463.456C2010.71 462.572 2010.15 462.193 2009.12 462.319C2007.91 462.467 2006.19 463.199 2003.94 464.514L2003.88 464.546C2003.39 464.823 2002.97 465.193 2002.62 465.634V465.634C2002.32 466.021 2001.95 466.354 2001.54 466.617L2000.92 467.01V467.01C2000.18 467.476 1999.35 467.776 1998.53 468.085C1997.87 468.336 1997.21 468.676 1996.57 469.103C1996.4 469.225 1996.14 469.407 1995.79 469.648C1995.15 470.083 1994.92 470.916 1995.25 471.613L1995.29 471.687C1995.5 472.133 1995.93 472.435 1996.42 472.483V472.483C1996.74 472.514 1997.05 472.652 1997.26 472.891C1997.86 473.541 1998.21 474.12 1998.31 474.627C1998.41 475.04 1998.61 475.912 1998.91 477.245L1999.32 479.958C1999.34 480.118 1999.53 480.391 1999.89 480.777C2000.26 481.175 2000.52 481.669 2000.59 482.211V482.211C2000.63 482.553 2000.87 483.063 2001.31 483.741C2001.66 484.27 2001.89 484.866 2001.93 485.496C2001.95 485.82 2001.96 486.047 2001.95 486.178C2001.95 486.256 2001.97 486.28 2001.92 486.337V486.337C2001.77 486.496 2001.56 486.701 2001.59 486.916L2002.23 492.111C2002.27 492.443 2002.43 492.748 2002.69 492.964V492.964C2003.03 493.256 2003.2 493.702 2003.15 494.151C2003.01 495.502 2002.99 496.614 2003.1 497.487L2003.22 498.464C2003.36 499.249 2003.47 499.921 2003.54 500.479L2003.9 503.41L2004.93 508.951L2004.94 509.02C2004.98 510.904 2005.01 511.893 2005.02 511.986C2005.14 512.963 2005.53 513.411 2006.18 513.331C2006.29 513.317 2006.41 513.293 2006.52 513.258C2007.04 513.104 2007.69 513.481 2007.61 514.009V514.009C2007.56 514.297 2007.74 514.573 2008.01 514.656L2008.7 514.859C2009 514.948 2009.19 515.238 2009.16 515.55V515.55C2009.14 515.793 2008.97 515.997 2008.75 516.097C2008.68 516.13 2008.61 516.161 2008.56 516.191C2008.37 516.29 2008.27 516.496 2008.17 516.681L2007.57 517.765C2007.31 518.317 2007.19 518.898 2007.22 519.508V519.508C2007.25 519.795 2007.48 520.022 2007.77 520.057L2007.78 520.059C2008.14 520.103 2008.39 520.428 2008.35 520.785V520.785C2008.31 521.082 2008.08 521.315 2007.78 521.352L2007.56 521.379C2007.23 521.419 2006.94 521.625 2006.83 521.938C2006.75 522.178 2006.72 522.356 2006.73 522.472C2006.76 522.659 2006.89 522.996 2007.14 523.485C2007.28 523.846 2007.38 524.282 2007.44 524.794C2007.49 525.166 2007.53 525.727 2007.58 526.477L2007.84 528.641C2008.02 530.083 2008.1 531.066 2008.07 531.589C2007.96 532.31 2007.93 532.81 2007.97 533.089C2008 533.33 2008.13 533.529 2008.36 533.687C2009.25 534.293 2010.11 535.156 2010.01 536.232C2009.98 536.616 2009.98 536.992 2010 537.361C2010.01 537.639 2009.82 537.891 2009.54 537.925V537.925C2009.27 537.958 2009.08 538.194 2009.08 538.462C2009.1 539.061 2009.06 539.714 2008.97 540.422C2008.91 540.838 2008.94 541.261 2009.08 541.659C2009.61 543.276 2009.9 544.188 2009.92 544.396L2010.33 550.58L2010.93 553.765C2010.96 554.01 2010.9 554.593 2010.76 555.515C2010.72 555.764 2010.82 556.015 2011.02 556.17V556.17C2011.21 556.318 2011.46 556.356 2011.69 556.272L2011.98 556.162C2012.65 555.912 2013.37 556.352 2013.46 557.059V557.059C2013.5 557.374 2013.67 557.656 2013.93 557.841C2014.9 558.534 2015.4 559.045 2015.44 559.373C2015.46 559.531 2015.44 559.729 2015.36 559.966C2015.34 560.051 2015.28 560.118 2015.2 560.156V560.156C2015.15 560.18 2015.09 560.191 2015.03 560.188L2014.63 560.167C2014.16 560.142 2013.7 560.287 2013.34 560.574L2013.26 560.633C2012.43 561.161 2012.06 561.796 2012.15 562.541L2012.41 564.634L2012.42 564.774C2012.47 565.178 2012.43 565.766 2012.28 566.541C2012.04 567.873 2011.86 569.22 2011.93 570.573V570.573L2011.94 570.715C2011.98 572.143 2012.67 573.473 2013.81 574.339L2016.59 576.459C2017.61 577.233 2017.64 578.753 2016.65 579.567L2015.64 580.404C2014.67 581.207 2015.14 582.784 2016.39 582.924V582.924C2017.53 583.052 2018.06 584.404 2017.39 585.335C2016.98 585.897 2016.7 586.361 2016.54 586.726C2015.32 588.755 2014.14 590.781 2013 592.802C2012.71 593.326 2012.16 593.812 2012.24 594.408V594.408V594.408C2012.33 595.142 2012.2 595.916 2011.69 596.447C2010.73 597.429 2010.03 598.134 2009.56 598.562ZM2107.25 534.57C2107.3 535.162 2107.33 535.72 2107.35 536.243C2107.42 538.022 2108.86 539.592 2109.08 541.359V541.359C2109.18 542.197 2109.08 542.917 2108.78 543.521L2108.09 544.88C2108.06 544.979 2108.06 545.593 2108.11 546.721C2108.24 550.529 2108.33 552.596 2108.37 552.922C2108.41 553.209 2108.58 553.789 2108.89 554.663C2109.21 555.594 2109.5 556.539 2109.71 557.504L2110.05 559.091C2110.09 559.229 2110.18 559.408 2110.34 559.63C2110.97 560.513 2110.73 561.742 2110.86 562.817V562.817C2110.89 563.005 2110.98 563.263 2111.16 563.589C2111.58 564.39 2112.03 565.181 2112.32 566.038V566.038C2112.42 566.265 2112.73 566.539 2113.25 566.86C2113.7 567.131 2114.05 567.529 2114.22 568.021L2114.31 568.304C2114.56 569.039 2115.29 569.499 2116.06 569.405L2116.49 569.353C2116.53 569.347 2116.57 569.329 2116.6 569.3V569.3C2116.69 569.23 2116.81 569.227 2116.89 569.293L2117.27 569.586C2117.43 569.717 2117.65 569.777 2117.86 569.751L2119.61 569.536C2119.66 569.529 2119.71 569.501 2119.75 569.457V569.457C2119.82 569.365 2119.95 569.349 2120.04 569.42L2120.08 569.452C2120.15 569.504 2120.19 569.586 2120.18 569.67C2120.15 570.134 2120.06 570.677 2119.9 571.3C2119.69 572.135 2118.64 572.388 2117.8 572.233V572.233C2117.31 572.145 2116.88 572.472 2116.83 572.959C2116.81 573.075 2116.81 573.182 2116.82 573.278C2116.85 573.464 2117.26 573.957 2118.07 574.755C2118.61 575.303 2119 575.844 2119.26 576.38C2120.32 578.516 2120.91 579.671 2121.03 579.846C2121.17 580.006 2121.69 580.34 2122.58 580.848C2123.92 581.606 2125.2 582.469 2126.37 583.478C2127.98 584.873 2128.82 585.583 2128.89 585.61C2130.15 586.208 2131.23 586.75 2132.13 587.238C2133.2 587.811 2134.4 587.342 2135.6 587.195V587.195C2135.74 587.178 2135.88 587.17 2136.04 587.17C2136.49 587.171 2136.78 587.633 2136.66 588.076V588.076C2136.54 588.504 2136.81 588.943 2137.24 589.035C2140.1 589.642 2142.49 590 2144.42 590.11C2145.14 590.151 2145.81 589.738 2146.13 589.091L2146.22 588.908C2146.47 588.413 2147.13 588.071 2147.68 588.1V588.1C2148.91 588.166 2150.25 587.265 2150.55 586.075C2150.61 585.818 2150.68 585.619 2150.76 585.478C2150.9 585.224 2151.22 585.301 2151.46 585.453L2152.56 586.125C2154.7 587.441 2157.35 587.555 2159.66 586.559C2160.38 586.247 2160.82 586.082 2160.97 586.064V586.064C2161.87 585.953 2162.61 585.381 2163.18 584.672C2163.2 584.656 2163.21 584.641 2163.22 584.626C2163.36 584.466 2163.53 584.334 2163.7 584.211C2163.89 584.082 2164.16 583.901 2164.53 583.667C2165.71 582.929 2167.13 583.607 2168.51 583.438V583.438C2169.67 583.295 2171.02 582.539 2172.55 581.17C2173.99 579.979 2175.54 579.035 2177.22 578.338C2177.68 578.147 2177.93 577.643 2177.78 577.168V577.168C2177.61 576.614 2177.98 576.04 2178.56 575.97L2178.64 575.96C2179.43 575.863 2181.09 574.95 2183.62 573.223L2189.76 569.565C2192.9 567.101 2194.52 565.84 2194.61 565.782C2195.03 565.521 2195.61 565.213 2196.36 564.861C2196.9 564.606 2197.42 563.812 2197.69 563.282V563.282C2197.92 562.842 2198.14 562.776 2198.57 562.531C2198.78 562.416 2199.02 562.287 2199.31 562.145C2199.55 562.029 2199.77 561.897 2199.99 561.747C2200.86 561.131 2202.09 560.279 2203.68 559.19C2204.74 558.461 2205.74 557.634 2206.64 556.716L2208.62 554.71C2208.66 554.658 2209.98 553.859 2212.58 552.312C2213.01 552.022 2214.89 550.587 2218.21 548.007C2218.34 547.895 2218.55 547.73 2218.84 547.512C2219.45 547.052 2220.46 547.039 2220.66 547.777V547.777C2220.77 548.189 2220.97 548.94 2221.27 550.032C2221.65 551.45 2221.87 552.907 2221.93 554.374L2221.95 554.774L2222.05 556.157C2222.14 557.292 2222.12 558.432 2222.04 559.568C2221.97 560.559 2221.96 561.226 2222 561.568C2222.1 562.359 2222.18 562.845 2222.25 563.025C2223.25 565.783 2223.82 567.698 2223.95 568.768C2224.08 569.838 2224.06 570.832 2223.89 571.75C2223.58 573.488 2223.46 574.589 2223.51 575.055V575.055C2223.56 575.391 2223.88 575.621 2224.22 575.631C2224.74 575.645 2225.18 575.629 2225.56 575.582C2226.17 575.508 2226.69 575.326 2227.13 575.036L2231.82 571.698V571.698C2233.38 570.709 2234.75 569.445 2235.87 567.967L2235.89 567.939C2235.95 567.841 2236.05 567.733 2236.19 567.616C2237.13 566.788 2237.78 565.629 2237.5 564.407L2237.22 563.177C2237.12 562.761 2236.78 562.451 2236.35 562.405V562.405C2236.03 562.369 2235.74 562.183 2235.6 561.892C2235.3 561.255 2235.06 560.549 2234.89 559.774C2234.31 558.191 2233.93 556.963 2233.73 556.091C2233.69 555.814 2233.58 555.291 2233.38 554.522C2233.31 554.258 2233.1 554.054 2232.84 553.993V553.993C2232.6 553.94 2232.41 553.777 2232.32 553.556L2232.14 553.12C2231.96 552.678 2231.6 552.342 2231.15 552.163C2230.31 551.823 2229.51 551.393 2228.75 550.875C2228.71 550.846 2228.68 550.801 2228.68 550.751V550.751C2228.67 550.673 2228.71 550.599 2228.78 550.565C2229.34 550.294 2230.01 549.809 2230.78 549.108C2231.7 548.277 2231.98 546.98 2231.75 545.766C2231.62 545.077 2231.5 544.34 2231.41 543.553V543.553C2231.37 543.229 2231.37 542.901 2231.41 542.577L2231.5 541.984C2231.6 541.266 2231.74 540.409 2231.18 539.943C2230.99 539.781 2230.74 539.679 2230.43 539.635C2229.09 539.47 2228.29 539.308 2228.03 539.151C2227.31 538.672 2226.89 537.921 2226.76 536.898C2226.74 536.72 2226.75 536.546 2226.8 536.373C2227.24 534.626 2229.16 533.32 2228.94 531.53V531.53L2228.93 531.46C2228.01 525.481 2227.51 522.236 2227.45 521.724C2227.29 520.422 2227.22 519.25 2227.23 518.209C2227.29 517.494 2227.29 516.927 2227.24 516.509C2227.21 516.322 2227.17 516.162 2227.11 516.029C2226.74 515.318 2226.53 514.824 2226.5 514.545C2226.4 514.132 2226.11 511.948 2225.62 507.993C2225.58 507.621 2225.52 506.755 2225.45 505.394C2225.46 505.109 2225.45 504.85 2225.42 504.618C2225.38 504.245 2225.25 503.954 2225.03 503.745C2224.31 502.842 2223.9 502.018 2223.81 501.274C2223.58 499.438 2223.45 497.822 2223.41 496.428C2223.37 494.544 2223.33 492.648 2223 490.793L2222.83 489.847C2222.12 485.094 2221.62 481.98 2221.32 480.504C2221.24 480.156 2220.94 479.914 2220.58 479.907V479.907C2220.11 479.897 2219.75 479.477 2219.82 479.008L2219.91 478.377C2219.94 478.156 2219.84 477.936 2219.65 477.812V477.812C2219.51 477.714 2219.32 477.689 2219.15 477.743C2218.37 477.992 2217.75 478.144 2217.29 478.201V478.201C2217.12 478.221 2216.96 478.13 2216.91 477.973C2216.84 477.766 2216.79 477.58 2216.77 477.415C2216.7 476.856 2216.92 476.357 2217.43 475.916C2217.48 475.88 2217.52 475.844 2217.56 475.809C2218.63 474.904 2219.29 473.725 2219.47 472.336V472.336C2219.6 471.47 2219.66 470.944 2219.63 470.758C2219.61 470.525 2219.51 470.325 2219.35 470.156C2218.58 469.258 2218.16 468.577 2218.11 468.112C2218.06 467.74 2218.07 467.408 2218.13 467.118C2218.4 465.101 2218.52 463.764 2218.48 463.107C2218.29 460.769 2218.15 459.228 2218.06 458.484C2218.02 458.205 2217.97 457.952 2217.89 457.725C2217.34 455.904 2216.99 454.435 2216.86 453.318C2216.67 451.783 2216.57 450.637 2216.58 449.881C2216.62 444.823 2216.63 442.271 2216.63 442.224V442.224C2216.43 440.612 2214.29 440.217 2212.76 440.757C2212.6 440.812 2212.47 440.862 2212.36 440.907C2211.54 441.196 2211.09 441.369 2211 441.427C2210.92 441.485 2208.96 443.048 2205.13 446.115C2203.47 447.216 2202.61 447.842 2202.53 447.993C2202.3 448.4 2202.2 448.766 2202.24 449.091C2202.29 449.51 2202.75 449.973 2203.61 450.481V450.481C2204.68 451.17 2205.17 452.461 2205.1 453.731C2205.06 454.339 2205.06 454.73 2205.08 454.906L2206.72 461.363L2207.19 464.324C2207.29 464.942 2207.47 465.544 2207.72 466.117L2207.93 466.598C2208.13 467.043 2208.24 467.519 2208.28 468.004L2208.45 470.279C2208.5 471.017 2209.07 471.612 2209.81 471.692V471.692C2211.3 471.856 2211.7 473.841 2210.38 474.563L2209.4 475.106C2209.36 475.126 2209.34 475.167 2209.34 475.209V475.209C2209.37 475.82 2209.72 476.391 2210.4 476.921L2212.65 478.487C2212.86 478.65 2212.99 478.965 2213.05 479.43V479.43C2213.26 481.182 2211.58 482.695 2211.62 484.461C2211.64 485.408 2211.7 486.355 2211.82 487.302C2211.89 487.907 2212.31 489.557 2213.06 492.25C2213.51 493.943 2213.84 495.673 2214.06 497.441C2214.21 498.67 2214.2 499.848 2214.05 500.977C2213.91 501.985 2214.48 503.009 2215.47 503.252V503.252C2216.22 503.436 2216.79 504.084 2216.7 504.847C2216.64 505.352 2216.52 505.836 2216.35 506.298C2215.99 507.24 2215.83 507.85 2215.86 508.129C2215.93 508.65 2216.09 509.229 2216.34 509.867C2216.42 510.062 2216.6 510.198 2216.81 510.228V510.228C2217.08 510.268 2217.29 510.483 2217.32 510.754L2217.37 511.172C2217.41 511.502 2217.59 511.796 2217.86 511.993C2218.46 512.433 2218.77 512.749 2218.79 512.941V512.941C2219.01 514.705 2216.87 516.018 2217.07 517.785C2217.18 518.832 2217.32 520.01 2217.48 521.319L2217.84 527.084C2217.86 527.27 2217.98 527.846 2218.19 528.812C2218.37 529.923 2218.49 530.641 2218.53 530.967L2218.58 531.385L2218.64 534.211V534.211C2218.65 534.258 2218.66 534.303 2218.68 534.345L2218.8 534.613C2219.13 535.327 2219.08 536.159 2218.64 536.811C2218.24 537.403 2217.74 538.134 2217.12 539.004C2216.83 539.416 2216.58 539.857 2216.38 540.317C2215.48 542.323 2214.87 543.43 2214.56 543.639L2212.29 544.768C2211.58 545.138 2210.2 546.629 2208.16 549.241C2207.95 549.478 2207.69 549.677 2207.39 549.837C2206.94 550.069 2206.62 550.516 2206.68 551.012V551.012C2206.76 551.643 2206.23 552.174 2205.6 552.198C2205.43 552.205 2205.27 552.217 2205.13 552.235C2204.67 552.29 2204.28 552.454 2203.94 552.725C2202.41 553.938 2201.78 556.062 2200.22 557.23V557.23C2200.18 557.252 2200.14 557.277 2200.1 557.303C2198.36 558.302 2196.53 559.141 2194.96 560.392L2194.81 560.515L2192.84 561.749C2192.71 561.821 2192.56 562.053 2192.4 562.445C2192.14 563.092 2191.72 563.674 2191.13 564.033L2190.24 564.564C2189.9 564.77 2189.47 564.767 2189.13 564.557V564.557C2188.76 564.334 2188.3 564.344 2187.97 564.601C2187.2 565.188 2186.26 565.995 2185.17 567.023C2184.72 567.443 2184.22 567.809 2183.68 568.099L2182.1 568.947C2181.92 569.066 2181.65 569.351 2181.29 569.804C2180.93 570.26 2180.41 570.571 2179.83 570.642V570.642C2179.01 570.744 2178.35 571.119 2177.85 571.767C2177.31 572.479 2176.5 573.044 2175.63 572.882V572.882C2175.01 572.768 2174.39 573 2173.93 573.429C2173.3 574.021 2172.59 574.52 2171.8 574.925C2171.5 575.083 2171.25 575.342 2171.14 575.665V575.665C2171.02 576.003 2170.76 576.272 2170.43 576.414C2169.49 576.818 2168.25 577.391 2166.72 578.131L2165.18 578.817L2163.47 579.79C2163.03 580.037 2162.53 580.13 2162.03 580.052V580.052C2161.87 580.026 2161.7 580.019 2161.54 580.03L2159.18 580.191C2158.15 580.223 2157.54 580.251 2157.35 580.274C2156.79 580.342 2156.31 580.449 2155.9 580.593C2153.73 581.379 2152.42 581.801 2151.95 581.858C2151.52 581.911 2151.03 581.935 2150.47 581.932C2150.03 581.93 2149.64 581.673 2149.43 581.282V581.282C2149.14 580.73 2148.49 580.487 2147.9 580.675C2147.48 580.808 2147.17 580.887 2146.95 580.914C2145.78 581.057 2144.59 580.92 2143.36 580.505V580.505C2141.61 579.973 2140.23 578.626 2138.58 577.843C2137.23 577.198 2136.1 576.553 2135.21 575.909C2133.36 574.577 2131.65 572.473 2130.08 569.598C2129.81 569.103 2129.32 568.766 2128.76 568.714V568.714C2128.29 568.671 2127.85 568.423 2127.58 568.035L2127.54 567.984C2127.2 567.505 2126.57 567.261 2125.98 567.189V567.189C2125.28 567.103 2124.92 566.431 2124.94 565.718C2124.97 564.677 2124.95 563.915 2124.89 563.432C2124.83 562.874 2124.7 562.394 2124.51 561.992L2122.74 558.029C2122.1 556.644 2121.66 554.974 2121.42 553.02C2121.32 552.229 2121.27 551.598 2121.26 551.127C2121.28 550.558 2121.28 550.156 2121.25 549.924C2121.23 549.718 2121.14 549.448 2121 549.114C2120.76 548.53 2120.13 548.22 2119.5 548.297L2119.3 548.321C2119.02 548.356 2118.74 548.278 2118.52 548.104V548.104C2118.25 547.89 2118.09 547.555 2118.11 547.208C2118.19 545.704 2118.22 544.868 2118.2 544.702C2118.18 544.519 2118.12 544.269 2118.02 543.954C2117.91 543.62 2118.01 543.253 2118.28 543.031V543.031C2118.45 542.895 2118.55 542.7 2118.57 542.487C2118.7 541.262 2118.73 540.329 2118.65 539.688C2118.63 539.549 2118.57 539.226 2118.46 538.72C2118.32 537.981 2118.2 537.193 2118.1 536.355L2118.09 536.286C2118.06 536.053 2118.06 535.675 2118.09 535.152C2118.39 531.054 2118.51 528.583 2118.46 527.74C2118.37 526.683 2118.33 525.466 2118.35 524.087C2118.37 523.412 2118.34 522.737 2118.26 522.066C2118.25 522.01 2118.25 521.956 2118.24 521.903C2118.14 520.961 2118.12 519.963 2118.61 519.15V519.15C2119.07 518.337 2119.28 517.721 2119.23 517.302V517.302C2119.18 516.87 2118.9 516.504 2118.51 516.31C2118.44 516.277 2118.38 516.246 2118.32 516.216C2117.98 516.031 2117.66 515.699 2117.5 515.343C2117.44 515.211 2117.37 515.053 2117.31 514.872C2117.15 514.393 2117.49 513.903 2117.99 513.841V513.841C2118.24 513.811 2118.46 513.68 2118.57 513.463C2119.01 512.608 2119.41 511.126 2119.77 509.018L2121.88 496.699C2121.99 496.089 2122.21 495.504 2122.53 494.977L2123.29 493.739C2123.79 492.922 2123.56 491.951 2123.44 490.999V490.999C2123.42 490.813 2123.55 489.947 2123.83 488.401C2123.89 488.179 2123.94 487.722 2123.98 487.031C2123.99 486.901 2123.93 486.775 2123.82 486.695V486.695C2123.69 486.589 2123.5 486.581 2123.36 486.677L2122.9 486.979C2122.4 487.309 2121.73 487.213 2121.43 486.694C2121.29 486.433 2121.16 486.159 2121.04 485.872C2120.75 485.136 2121.12 484.332 2121.79 483.916V483.916C2122.17 483.679 2122.46 483.314 2122.6 482.886L2122.96 481.76C2122.98 481.682 2123.05 481.625 2123.13 481.615V481.615C2123.18 481.609 2123.23 481.621 2123.27 481.647C2123.86 482.015 2124.33 482.177 2124.69 482.133V482.133C2124.82 482.117 2124.93 482.033 2124.98 481.912C2125.37 480.927 2125.66 479.915 2125.85 478.873C2126.09 477.426 2126.34 476.546 2126.58 476.232C2127.9 474.229 2128.61 473.103 2128.72 472.853C2129.13 471.953 2129.29 471.177 2129.21 470.526V470.526C2129.15 470.031 2129.15 468.939 2129.42 468.515C2129.42 468.505 2129.43 468.494 2129.43 468.484C2129.45 468.457 2129.46 468.427 2129.46 468.396L2129.63 467.592C2129.75 466.998 2129.93 466.418 2130.17 465.861L2133.23 458.77C2134.33 455.895 2134.92 453.74 2135 452.304C2135.04 451.561 2134.49 450.822 2133.75 450.913V450.913C2132.17 451.107 2129.61 452.224 2126.08 454.263C2123.43 455.724 2121.05 457.393 2118.97 459.271C2118.37 459.815 2118.25 460.71 2118.67 461.407V461.407C2118.95 461.75 2119.42 461.905 2120.08 461.872C2120.6 461.869 2121.03 461.879 2121.36 461.901C2121.56 461.914 2121.66 462.137 2121.55 462.308V462.308C2121.51 462.371 2121.5 462.448 2121.51 462.522C2121.6 462.936 2121.67 463.314 2121.71 463.655C2121.73 463.771 2121.72 463.923 2121.69 464.111C2121.53 465.044 2121.2 465.942 2121.02 466.87L2120.9 467.438L2118.61 474.166L2117.7 477.181L2116.47 480.379L2116.08 481.843L2115.69 483.308C2114.91 487.277 2114.33 489.686 2113.96 490.534V490.534C2113.46 491.574 2113.15 492.689 2112.98 493.829L2112.69 495.796C2112.64 496.128 2112.56 496.456 2112.45 496.775V496.775C2111.99 498.176 2112.08 499.697 2112.68 501.046C2113.16 502.13 2113.4 502.733 2113.42 502.856C2113.46 503.206 2113.46 503.616 2113.43 504.086C2113.38 504.727 2112.79 505.173 2112.15 505.125V505.125C2111.56 505.08 2111.02 505.459 2110.81 506.013C2110.6 506.59 2110.31 507.236 2109.96 507.951C2109.76 508.356 2109.63 508.789 2109.57 509.236L2109.52 509.668C2109.47 510.079 2109.38 510.484 2109.25 510.879C2108.76 512.401 2108.54 513.348 2108.59 513.721V513.721C2108.75 515.027 2108.6 516.353 2108.04 517.546C2107.94 517.757 2107.9 517.879 2107.9 517.914C2107.92 518.089 2109.12 518.318 2111.5 518.603C2112.36 518.707 2112.82 520.142 2112.3 520.845V520.845C2111.84 521.541 2110.99 522.414 2109.76 523.466C2108.79 524.282 2108.85 525.823 2109.79 526.668C2110.05 526.904 2110.31 527.151 2110.56 527.41C2110.75 527.603 2110.76 527.905 2110.59 528.118V528.118C2110.5 528.233 2110.37 528.308 2110.22 528.326L2110.03 528.35C2109.54 528.409 2109.17 528.801 2109.12 529.288L2109.09 529.678C2109.07 529.997 2108.93 530.298 2108.74 530.55C2107.67 531.901 2107.18 533.241 2107.25 534.57ZM2248.05 440.333C2247.82 440.714 2247.45 440.99 2247.01 441.044V441.044C2246.62 441.092 2246.25 441.313 2246.1 441.68C2246.03 441.865 2245.96 442.062 2245.91 442.271C2245.62 443.352 2246.51 444.364 2247.62 444.228V444.228L2248.74 444.09C2248.83 444.079 2248.92 444.093 2249 444.128L2249.14 444.192C2249.21 444.222 2249.25 444.285 2249.26 444.357V444.357C2249.28 444.481 2249.4 444.563 2249.52 444.534L2250.46 444.304C2251.08 444.152 2251.7 444.577 2251.78 445.213L2251.92 446.395C2251.99 446.916 2252.47 447.437 2252.92 447.701V447.701C2253.13 447.823 2253.13 447.926 2253.19 448.161C2253.34 448.731 2253.64 449.965 2254.08 451.864C2254.67 454.389 2255.04 456.186 2255.17 457.257L2256.23 465.91C2256.25 466.088 2256.3 466.264 2256.36 466.438C2256.88 467.836 2257.09 469.472 2257.28 470.953V470.953C2257.34 471.457 2257.45 472.01 2257.61 472.614C2257.68 472.915 2258 473.06 2258.31 473.023V473.023V473.023C2259.15 472.919 2259.08 474.086 2258.78 474.88C2258.66 475.21 2258.61 475.498 2258.64 475.744C2258.67 475.93 2258.72 476.184 2258.81 476.503C2258.88 476.73 2259.08 477.769 2259.4 479.618C2259.44 479.962 2259.57 480.593 2259.79 481.51C2259.95 482.182 2260.46 482.715 2260.97 483.18V483.18V483.18C2261.88 483.888 2262.52 484.982 2262.51 486.133C2262.51 486.617 2262.54 487.105 2262.58 487.597C2262.61 487.85 2262.5 488.098 2262.29 488.245V488.245C2261.81 488.588 2261.95 489.339 2262.53 489.48L2263.22 489.65C2264.11 489.87 2264.28 491.06 2263.48 491.519L2263.02 491.789C2262.32 492.194 2262.19 493.153 2262.76 493.727L2265.24 496.224C2266.81 497.797 2266.77 500.351 2265.16 501.876L2264.88 502.141C2263.73 503.224 2263.27 504.845 2263.66 506.371L2264.41 509.229C2264.55 509.789 2264.6 510.37 2264.58 510.949C2264.56 511.38 2264.57 511.808 2264.59 512.235C2264.62 513.015 2265.13 513.667 2265.62 514.279C2265.71 514.397 2265.8 514.523 2265.88 514.656C2266.11 515.028 2266.42 515.347 2266.84 515.485L2267.31 515.643C2267.57 515.73 2267.76 515.961 2267.79 516.235V516.235C2267.83 516.514 2267.7 516.788 2267.46 516.934V516.934C2266.87 517.292 2267.06 518.196 2267.74 518.294C2269.47 518.545 2270.58 518.783 2271.06 519.007C2271.27 519.1 2271.21 519.314 2271.02 519.421V519.421C2269.26 520.487 2268.33 521.191 2268.23 521.534L2267.67 524.591C2267.56 525.159 2267.36 525.703 2267.07 526.202L2266.26 527.6C2266.23 527.639 2266.22 527.685 2266.23 527.731V527.731L2266.67 530.723L2266.8 531.774C2266.85 532.225 2267.06 532.64 2267.34 532.995C2267.63 533.357 2267.87 533.719 2268.05 534.08C2268.13 534.245 2268.3 534.347 2268.49 534.325L2268.63 534.308C2268.7 534.299 2268.75 534.256 2268.77 534.194V534.194C2268.85 533.993 2269.34 534.093 2269.34 534.308C2269.35 534.438 2269.35 534.574 2269.35 534.714C2269.43 535.319 2269.27 535.764 2268.88 536.048C2268.33 536.541 2268 536.982 2267.91 537.371C2267.62 539.626 2267.52 541.339 2267.62 542.507C2268.07 546.183 2268.35 549.407 2268.45 552.181C2268.43 552.419 2268.44 552.632 2268.46 552.818C2268.47 552.907 2268.52 553.071 2268.62 553.312C2268.9 554.024 2268.92 554.726 2268.55 555.395C2268.51 555.453 2268.48 555.513 2268.44 555.576C2268.33 555.783 2268.07 555.957 2268.1 556.192V556.192V556.192C2268.46 558.758 2268.28 561.392 2267.36 563.815C2267.05 564.626 2266.82 565.142 2266.67 565.364C2266.26 565.886 2265.78 566.181 2265.22 566.25C2265.15 566.259 2265.04 566.259 2264.89 566.251V566.251C2264.79 566.246 2264.7 566.307 2264.68 566.402C2264.44 567.209 2264.36 567.853 2264.41 568.333V568.333C2264.5 569.047 2265.1 569.585 2265.82 569.64C2266.32 569.678 2266.71 569.68 2266.98 569.646C2267.21 569.619 2268.34 569.241 2270.39 568.513C2271.56 568.094 2272.77 567.779 2274 567.58L2275.83 567.285C2278.48 566.535 2279.94 566.143 2280.22 566.108C2280.55 566.068 2280.78 566.063 2280.93 566.092C2282.85 566.329 2283.97 566.428 2284.29 566.388C2285.18 566.279 2285.94 565.949 2286.58 565.398C2289.33 563.172 2290.89 562.036 2291.26 561.99C2291.73 561.933 2292.2 562.134 2292.68 562.595C2293.93 563.775 2294.71 564.475 2295.01 564.696C2295.1 564.757 2295.19 564.742 2295.28 564.685V564.685C2295.63 564.499 2296.23 564.355 2297.07 564.253C2298.09 564.127 2299.14 564.234 2300.22 564.573C2300.32 564.609 2300.42 564.62 2300.51 564.609L2300.57 564.601C2300.62 564.595 2300.67 564.577 2300.72 564.548V564.548C2300.76 564.52 2300.81 564.502 2300.86 564.495L2301.06 564.471L2301.22 564.451C2301.85 564.374 2302.31 563.842 2302.3 563.214V563.214C2302.3 562.724 2302.58 562.272 2303.04 562.098C2303.71 561.845 2304.38 561.654 2305.05 561.526C2305.4 561.46 2305.68 561.785 2305.59 562.126V562.126C2305.51 562.41 2305.7 562.7 2305.99 562.742C2306.5 562.814 2306.84 562.839 2307.02 562.818L2311.17 562.025L2314.11 561.665L2321.42 560.625C2321.51 560.613 2321.83 560.62 2322.37 560.646C2322.89 560.671 2323.38 560.441 2323.68 560.029V560.029C2323.98 559.616 2324.47 559.397 2324.99 559.381C2325.17 559.376 2325.35 559.363 2325.51 559.344V559.344C2326.35 559.241 2327.18 559.067 2328.02 559.1C2331.26 559.226 2332.9 559.286 2332.94 559.281C2333.4 559.224 2334.3 559.02 2335.63 558.668C2336.5 558.466 2337.63 558.28 2339.03 558.108C2341.36 557.823 2342.83 557.689 2343.44 557.708C2346.58 557.889 2348.27 557.966 2348.5 557.937C2349.08 557.867 2349.8 557.537 2350.66 556.95C2351.02 556.709 2351.48 556.671 2351.85 556.876V556.876C2352.13 557.029 2352.47 557.049 2352.77 556.939C2353.03 556.846 2353.19 556.795 2353.25 556.788L2357.13 556.665L2358.77 556.464C2359.86 556.33 2360.96 556.286 2362.06 556.334L2362.97 556.373L2366.19 556.103C2366.48 556.079 2366.76 556.078 2367.05 556.099L2367.25 556.114C2368.67 556.221 2370.06 555.714 2371.08 554.722L2371.71 554.108C2373.03 552.825 2375.06 552.643 2376.59 553.672V553.672C2377.57 554.336 2378.82 554.508 2379.95 554.149V554.149C2380.2 554.071 2380.46 554.017 2380.71 553.984C2383.19 553.672 2385.02 553.035 2386.21 552.073C2387.01 551.425 2387.34 550.398 2387.55 549.388V549.388V549.388C2387.62 548.413 2388.68 547.777 2388.94 546.833C2389.04 546.458 2389.16 546.082 2389.29 545.703C2389.6 544.768 2389.73 544.114 2389.69 543.742C2389.56 542.672 2389.12 542.182 2388.37 542.274V542.274C2386.83 542.463 2385.67 543.801 2384.2 544.325C2383.33 544.637 2382.23 545.028 2380.88 545.499C2379.95 545.824 2379.07 546.031 2378.1 546.175V546.175C2377.18 546.312 2376.17 546.546 2375.38 547.045C2375.24 547.131 2375.1 547.223 2374.97 547.32V547.32C2374.22 547.875 2374.07 549 2373.19 549.304C2373.16 549.315 2373.13 549.326 2373.1 549.336C2372.91 549.399 2372.83 549.417 2372.64 549.455V549.455C2371.43 549.692 2370.09 549.377 2368.86 549.298C2368.78 549.292 2368.7 549.294 2368.62 549.304C2368.02 549.378 2367.46 549.682 2366.96 550.216C2364.7 552.571 2363.5 553.758 2363.36 553.775C2363.19 553.796 2362.41 552.912 2361.01 551.122C2360.8 550.85 2360.42 550.786 2360.13 550.976L2360.08 551.007C2360.02 551.05 2359.97 551.109 2359.93 551.178V551.178C2359.89 551.257 2359.88 551.346 2359.89 551.433L2359.99 552.302C2360.08 553.018 2359.5 553.64 2358.78 553.605V553.605C2358.36 553.584 2357.98 553.334 2357.79 552.952L2357.58 552.511C2357.21 551.746 2356.39 551.312 2355.54 551.387C2355.2 551.417 2354.97 551.428 2354.86 551.419C2353.56 551.248 2352.86 551.167 2352.77 551.179C2352.59 551.202 2352.36 551.254 2352.08 551.334V551.334C2351.57 551.546 2350.96 551.592 2350.4 551.621L2350.28 551.627L2337.81 553.37L2336.69 553.507C2334.91 553.963 2333.99 554.193 2333.94 554.199C2333.81 554.216 2332.33 554.28 2329.51 554.39C2329.22 554.378 2328.96 554.386 2328.73 554.414V554.414C2328.35 554.461 2328 554.612 2327.64 554.728C2326.57 555.07 2325.98 555.248 2325.86 555.263C2325.81 555.268 2325.48 555.285 2324.87 555.313L2322.43 555.613L2319.77 555.869L2311.81 556.279V556.279C2311.58 556.307 2311.34 556.346 2311.17 556.505C2311.05 556.62 2310.92 556.784 2310.79 556.997C2310.66 557.225 2310.51 557.448 2310.33 557.642L2309.42 558.618C2308.78 559.309 2307.68 559.298 2307.05 558.593L2306.15 557.584C2306.07 557.491 2305.93 557.482 2305.83 557.563V557.563C2305.82 557.576 2305.8 557.587 2305.78 557.596L2305.72 557.624C2305.65 557.66 2305.58 557.709 2305.52 557.767C2304.55 558.732 2303.7 559.258 2302.98 559.347C2302.75 559.375 2302.58 559.372 2302.48 559.337V559.337C2300.73 558.688 2298.87 558.506 2297.01 558.734L2296.05 558.852V558.852C2294.41 558.912 2292.79 559.198 2291.23 559.701L2288.85 560.468C2288.46 560.594 2288.06 560.683 2287.65 560.733L2286.35 560.893C2285.61 560.984 2284.92 561.347 2284.43 561.912L2284.11 562.28C2283.33 563.168 2282.09 563.229 2280.96 562.901V562.901C2280.58 562.777 2280.29 562.651 2280.09 562.522C2279.88 562.384 2279.8 562.255 2279.67 562.038V562.038C2278.87 560.673 2279.71 558.922 2280.63 557.638C2281.7 556.145 2282.16 554.74 2281.99 553.423L2280.86 547.682L2280.5 545.054C2280.29 543.517 2279.47 542.119 2279.28 540.579V540.579C2279.24 540.228 2279.29 539.64 2279.43 538.817C2279.61 537.781 2279.25 536.332 2278.21 536.461V536.461C2277.99 536.487 2277.66 536.712 2277.21 537.136C2277.14 537.199 2277.05 537.24 2276.96 537.252V537.252C2276.79 537.272 2276.63 537.192 2276.54 537.044C2276.25 536.53 2276.02 536.045 2275.85 535.591C2275.59 534.862 2275.92 534.088 2276.54 533.612L2276.63 533.543C2277.39 532.95 2277.51 531.927 2277.39 530.964V530.964C2277.39 530.918 2277.34 530.31 2277.24 529.141L2276.95 525.302C2276.92 524.868 2276.92 524.431 2276.97 523.998V523.998C2277.03 523.382 2277.02 522.762 2276.92 522.15L2276.79 521.229C2276.71 520.742 2276.68 520.25 2276.68 519.757V519.757C2276.69 518.837 2276.57 517.921 2276.31 517.038L2276.21 516.729L2275.99 515.466C2275.82 514.506 2275.59 513.56 2275.28 512.634L2274.73 510.961V510.961C2274.4 510.27 2274.52 509.424 2273.88 509.01C2273.14 508.532 2272.73 507.992 2272.66 507.389C2272.63 507.146 2272.61 506.889 2272.6 506.618C2272.59 506.127 2272.85 505.676 2273.26 505.405V505.405C2273.74 505.084 2274.01 504.516 2273.93 503.94L2273.89 503.555C2273.76 502.485 2273.6 501.772 2273.41 501.417C2273.09 500.761 2272.81 500.158 2272.57 499.608C2271.94 498.179 2272.96 496.597 2272.77 495.049V495.049C2272.61 493.746 2272.47 493.008 2272.36 492.833C2272.14 492.463 2271.6 492.028 2270.74 491.529C2270.63 491.464 2270.49 491.47 2270.38 491.541V491.541C2270.2 491.661 2269.95 491.586 2269.88 491.382C2269.77 491.082 2269.71 490.848 2269.69 490.682C2269.63 490.207 2269.71 489.532 2269.93 488.658C2269.95 488.559 2270.07 488.519 2270.15 488.582V488.582C2270.19 488.614 2270.24 488.621 2270.29 488.6L2270.93 488.322C2271.21 488.203 2271.44 487.997 2271.57 487.73C2271.74 487.383 2271.87 487.089 2271.95 486.849C2272.06 486.528 2272.02 486.186 2271.94 485.856L2271.16 482.496L2270.64 477.779C2270.53 476.825 2270.35 475.88 2270.11 474.951L2269.94 474.286V474.286C2269.56 472.25 2270.77 469.912 2272.78 469.432C2272.86 469.413 2272.94 469.394 2273.02 469.374L2274.97 469.033C2275.47 468.945 2275.96 468.802 2276.43 468.606V468.606C2277.08 468.336 2277.77 468.166 2278.47 468.104L2279.51 468.011L2280.93 467.796C2281.65 467.687 2282.38 467.672 2283.1 467.749V467.749C2283.81 467.825 2284.53 467.812 2285.23 467.71L2288.76 467.197C2289.92 467.029 2291.09 466.963 2292.26 467L2292.63 467.012C2294.57 467.073 2296.5 466.853 2298.37 466.358L2299.06 466.176C2300.06 465.913 2301.08 465.741 2302.1 465.662V465.662L2304.2 465.505C2304.77 465.463 2305.34 465.469 2305.91 465.524V465.524C2307.05 465.635 2308.2 465.546 2309.32 465.271C2310.83 464.897 2311.69 464.697 2311.9 464.671C2312.14 464.641 2313.14 464.626 2314.89 464.626C2315.44 464.626 2316 464.57 2316.54 464.442C2316.85 464.367 2317.15 464.292 2317.41 464.22C2318.74 463.862 2320.18 463.496 2321.5 463.846V463.846C2321.7 463.916 2321.85 463.946 2321.94 463.934V463.934C2322.14 463.91 2322.26 463.743 2322.35 463.57C2323.61 461.264 2324.26 460.108 2324.3 460.102C2324.54 460.074 2325.66 460.928 2327.66 462.665C2328.3 463.201 2328.96 463.426 2329.66 463.341C2329.9 463.312 2330.3 463.196 2330.85 462.993C2331.58 462.73 2332.15 462.166 2332.65 461.571C2332.85 461.321 2333.09 461.079 2333.35 460.847C2333.79 460.45 2334.05 459.879 2333.98 459.291V459.291C2333.91 458.716 2334.16 458.154 2334.6 457.779C2334.76 457.643 2334.9 457.515 2335.02 457.397C2335.46 456.965 2335.67 456.721 2335.78 456.115V456.115C2335.96 455.183 2335.1 453.938 2334.15 454.012C2334.04 454.021 2333.94 454.032 2333.83 454.044C2333.41 454.096 2332.67 454.588 2331.6 455.522C2330.92 456.125 2330.46 456.607 2330.22 456.967V456.967C2329.5 458.089 2328.02 458.464 2327.08 457.51L2325.94 456.336C2325.78 456.174 2325.52 456.174 2325.36 456.336V456.336C2325.34 456.354 2325.33 456.374 2325.31 456.394C2325.08 456.694 2324.48 456.94 2323.49 457.131C2323.23 457.181 2323.05 457.42 2323.09 457.681V457.681C2323.12 457.958 2322.92 458.208 2322.64 458.228C2321.86 458.285 2321.26 458.319 2320.83 458.333C2319.75 458.371 2319 458.416 2318.58 458.468C2318.39 458.49 2318.23 458.534 2318.1 458.597C2316.33 459.192 2313.73 459.748 2310.3 460.264C2308.08 460.631 2306.36 460.889 2305.15 461.037C2304.45 461.123 2303.85 461.22 2303.34 461.33C2301.31 461.721 2300.11 461.939 2299.74 461.985C2299.55 462.008 2299.39 462.004 2299.24 461.975C2297.43 461.82 2296.5 461.745 2296.45 461.751C2295.99 461.808 2295.07 462.039 2293.7 462.443C2293.12 462.656 2292.43 462.812 2291.64 462.909C2290.89 463 2290.12 463.048 2289.32 463.052C2287.37 463.007 2285.52 463.093 2283.75 463.31L2280.99 463.296L2277.69 463.559L2272.98 463.287C2272.67 463.297 2272.37 463.305 2272.09 463.312C2269.35 463.379 2266.62 461.656 2266.28 458.938V458.938C2266.27 458.81 2266.26 458.617 2266.27 458.358C2266.31 457.006 2265.74 455.652 2264.53 455.044V455.044C2263.97 454.735 2263.56 454.455 2263.29 454.204C2263.13 454.035 2263.03 453.811 2263 453.532C2262.98 453.362 2262.97 453.069 2262.97 452.652C2262.97 452.162 2263.44 451.92 2263.93 451.86V451.86V451.86C2265.78 451.632 2265.92 448.998 2265.62 447.156C2265.62 447.143 2265.61 447.131 2265.61 447.119C2265.48 446.28 2265.23 445.472 2264.87 444.696C2264.43 443.757 2264.29 442.275 2265.25 441.872V441.872C2265.41 441.803 2265.48 441.842 2265.66 441.859L2266.32 441.92C2267.22 442.005 2268.13 441.941 2269.02 441.755C2269.66 441.62 2270.11 441.537 2270.38 441.504L2271.7 441.342C2275.05 440.93 2277.07 440.801 2277.75 440.954C2278.04 441.005 2278.3 441.05 2278.52 441.088C2279.16 441.197 2279.8 441.148 2280.42 440.971V440.971C2281.25 440.733 2282.11 440.583 2282.98 440.523L2288.7 440.127C2289.3 440.085 2289.89 439.919 2290.42 439.639V439.639C2290.94 439.369 2291.51 439.205 2292.09 439.156L2294.85 438.924L2297.54 438.322C2298.55 438.096 2299.58 437.966 2300.61 437.934V437.934L2303.2 437.686L2305.69 437.62C2307.46 437.573 2309.21 437.272 2310.9 436.727V436.727C2312.02 436.363 2313.17 436.108 2314.34 435.965L2315.44 435.829L2317.32 435.429C2318.69 435.138 2320.08 434.999 2321.48 434.978C2322.6 434.961 2323.36 434.928 2323.76 434.879L2327.18 434.459L2327.67 434.399V434.399C2328.08 434.349 2328.5 434.388 2328.9 434.505C2329.98 434.822 2330.7 434.978 2331.07 434.974C2332.1 434.941 2333.23 434.897 2334.45 434.842L2334.59 434.824C2335.11 434.808 2335.85 434.292 2336.81 433.277C2337.68 432.32 2338.27 431.728 2338.57 431.502L2340.9 429.851C2341.52 429.413 2342.06 428.874 2342.5 428.257V428.257V428.257C2343.35 426.925 2342.15 425.375 2340.57 425.519C2340.55 425.521 2340.54 425.522 2340.53 425.523C2340.44 425.535 2339.41 425.803 2337.44 426.328L2333.52 427.304C2327.44 429.326 2324.24 430.357 2323.92 430.397C2323.54 430.443 2322.6 430.464 2321.09 430.461C2320.43 430.447 2319.82 430.475 2319.26 430.544C2318.7 430.612 2318.15 430.727 2317.6 430.889C2315.08 431.501 2312.45 432.028 2309.71 432.468C2309.23 432.546 2308.8 432.824 2308.54 433.235V433.235C2308.24 433.698 2307.73 433.989 2307.18 434.016L2304.68 434.141C2304.37 434.156 2304.07 434.029 2303.87 433.796V433.796C2303.66 433.546 2303.33 433.418 2303 433.455L2289.13 435.022C2288.66 435.032 2288.14 435.191 2287.56 435.498V435.498C2286.86 435.85 2286.1 435.936 2285.32 435.84L2283.32 435.593L2282.14 435.543C2280.94 435.491 2279.74 435.322 2278.56 435.081C2277.19 434.801 2276.33 434.681 2275.99 434.723C2275.23 434.817 2274.43 435.119 2273.6 435.631C2272.91 436.052 2272.14 436.338 2271.33 436.322V436.322C2271.17 436.318 2271 436.327 2270.84 436.347L2270.18 436.428C2269.82 436.44 2269.17 436.224 2268.23 435.783C2267.33 435.36 2266.31 435.415 2265.32 435.537V435.537C2264.49 435.64 2263.74 435.708 2263.08 435.741C2258.75 435.848 2256.4 435.924 2256.03 435.97C2255.61 436.021 2255.26 436.111 2255 436.238C2254.09 436.585 2253.55 436.77 2253.36 436.793V436.793C2252.29 436.924 2251.2 437.084 2250.41 437.819C2250.08 438.121 2249.77 438.386 2249.48 438.616C2248.94 439.051 2248.46 439.624 2248.05 440.333Z" fill="white"/>
</svg>
