<svg width="3193" height="1783" viewBox="0 0 3193 1783" fill="none" xmlns="http://www.w3.org/2000/svg">
<path d="M1328.19 1195.28C1328.03 1194.45 1328.31 1193.62 1328.06 1192.8L1278.84 1036.79C1275.81 1027.21 1266.15 1020.62 1255.16 1020.62H1132.11V909.174C1132.11 823.156 1054.89 753.162 959.972 753.162H812.018C717.103 753.162 639.882 823.156 639.882 909.174V1020.61H73.8282C62.8422 1020.61 53.1807 1027.21 50.1562 1036.78L0.934982 1192.8C0.679987 1193.62 0.956231 1194.45 0.807484 1195.28C0.573738 1196.51 0 1197.62 0 1198.91V1689.24C0 1701.55 11.0073 1711.53 24.6141 1711.53H123.056V1782H172.278V1711.53H1156.72V1782H1205.94V1711.53H1304.39C1317.99 1711.53 1329 1701.56 1329 1689.24V1198.91C1329.01 1197.63 1328.43 1196.51 1328.19 1195.28ZM689.111 909.174C689.111 847.73 744.246 797.736 812.018 797.736H959.972C1027.75 797.736 1082.89 847.73 1082.89 909.174V1020.61H689.111V909.174V909.174ZM92.3862 1065.19H664.496H1107.49H1236.61L1271.75 1176.62H57.2464L92.3862 1065.19ZM1279.79 1666.95H1205.94H1156.72H172.278H123.056H49.2212V1221.2H1279.78V1666.95H1279.79Z" fill="white"/>
<path d="M73.8282 953.753H442.998C456.597 953.753 467.612 943.785 467.612 931.463V530.29C467.612 517.968 456.597 508 443.005 508H73.8282C60.2285 508 49.2141 517.968 49.2141 530.29V931.463C49.2212 943.779 60.2356 953.753 73.8282 953.753ZM98.4495 552.574H418.384V909.173H98.4495V552.574Z" fill="white"/>
<path d="M172.277 686.304C178.574 686.304 184.871 684.129 189.68 679.774L238.902 635.2C248.513 626.495 248.513 612.39 238.902 603.686C229.29 594.981 213.714 594.981 204.102 603.686L154.881 648.26C145.269 656.964 145.269 671.069 154.881 679.774C159.69 684.123 165.98 686.304 172.277 686.304Z" fill="white"/>
<path d="M302.537 603.679L154.881 737.407C145.269 746.112 145.269 760.217 154.881 768.922C159.69 773.271 165.98 775.452 172.284 775.452C178.581 775.452 184.878 773.277 189.687 768.922L337.344 635.2C346.956 626.495 346.956 612.39 337.344 603.685C327.732 594.981 312.163 594.975 302.537 603.679Z" fill="white"/>
<path fill-rule="evenodd" clip-rule="evenodd" d="M1839.75 1183.94L2839.64 1026.43L2690.03 522.915L1730.11 814.93L1839.75 1183.94ZM1754.19 1125L1505.87 1154.07L1456.63 988.336L1688.66 904.46L1754.19 1125ZM3003.67 1000.54L2847.53 475.018L2764.69 500.21L2917.33 1014.18L3003.67 1000.54Z" fill="white"/>
<path d="M2040.73 928.46L2128.22 908.337L2160.18 1015.9C2138.8 1029.37 2113.89 1039.37 2085.39 1045.93C2054.14 1053.12 2027.36 1049.78 2005.03 1035.86C1982.68 1021.95 1966.59 998.488 1956.79 965.463C1947.21 933.238 1949.1 906.045 1962.43 883.822C1975.8 861.598 1999.29 846.635 2032.94 838.894C2045.68 835.973 2058.08 834.349 2070.12 834.133C2082.13 833.898 2092.86 834.612 2102.37 836.305L2097.6 882.573C2080.9 878.814 2063.81 878.971 2046.33 882.976C2030.33 886.656 2019.49 894.62 2013.83 906.874C2008.1 919.089 2008.08 934.708 2013.74 953.755C2019.27 972.371 2027.43 985.679 2038.24 993.637C2049.06 1001.61 2061.92 1003.87 2076.78 1000.45C2084.94 998.572 2092.17 996.071 2098.54 992.955L2089.26 961.76L2053.08 970.074L2040.73 928.46ZM2247.96 1005.56L2193.69 1018.04L2130.61 805.697L2184.87 793.208L2247.96 1005.56ZM2390.08 972.862L2377.6 955.237L2374.4 955.974C2372.02 964.136 2367.28 970.991 2360.3 976.629C2353.32 982.248 2344.42 986.338 2333.48 988.854C2316.19 992.83 2301.3 990.992 2288.69 983.333C2276.16 975.67 2267.24 962.853 2261.88 944.836L2231.97 844.161L2286.18 831.692L2311.27 916.124C2314.26 926.218 2317.99 933.521 2322.47 938.023C2326.9 942.522 2332.44 944.029 2339.13 942.492C2348.47 940.351 2354.05 935.187 2355.87 927.053C2357.71 918.922 2356.08 906.265 2350.96 889.068L2330.86 821.424L2385.07 808.948L2430.98 963.456L2390.08 972.862ZM2537.78 941.881C2511.59 947.897 2489.26 945.733 2470.71 935.376C2452.18 924.999 2439.15 907.161 2431.64 881.87C2423.87 855.754 2424.59 834.185 2433.9 817.122C2443.14 800.071 2460.19 788.674 2485.04 782.959C2508.71 777.522 2528.78 779.368 2545.32 788.559C2561.82 797.766 2573.46 813.78 2580.23 836.597L2587.28 860.343L2490.39 882.629C2493.32 891.167 2498.55 897.203 2506.06 900.702C2513.53 904.225 2522.55 904.778 2532.96 902.377C2542.48 900.202 2550.98 897.295 2558.45 893.694C2565.93 890.076 2573.7 885.068 2581.74 878.639L2593.15 917.05C2585.94 923.227 2577.99 928.237 2569.45 931.947C2560.9 935.657 2550.33 938.995 2537.78 941.881ZM2497.78 818.851C2491.43 820.311 2486.68 823.547 2483.54 828.496C2480.42 833.427 2479.73 840.209 2481.54 848.853L2528.1 838.151C2525.7 830.743 2521.78 825.273 2516.34 821.744C2510.9 818.215 2504.75 817.255 2497.78 818.851Z" fill="#969696"/>
<path d="M1213.49 997.137C1390.79 1007.22 1489.77 1210.24 1384.41 1353.2V1353.2C1359.21 1387.4 1306.72 1382.68 1288.01 1344.54L1157.99 1079.43C1138.71 1040.12 1169.78 994.651 1213.49 997.137V997.137Z" fill="white"/>
</svg>
