<svg width="2658" height="1275" viewBox="0 0 2658 1275" fill="none" xmlns="http://www.w3.org/2000/svg">
<path d="M1328.19 687.278C1328.03 686.45 1328.31 685.616 1328.06 684.802L1278.84 528.789C1275.81 519.213 1266.15 512.619 1255.16 512.619H1132.11V401.174C1132.11 315.156 1054.89 245.162 959.972 245.162H812.018C717.103 245.162 639.882 315.156 639.882 401.174V512.612H73.8282C62.8422 512.612 53.1807 519.206 50.1562 528.783L0.934982 684.795C0.679987 685.616 0.956231 686.45 0.807484 687.278C0.573738 688.509 0 689.619 0 690.908V1181.24C0 1193.55 11.0073 1203.53 24.6141 1203.53H123.056V1274H172.278V1203.53H1156.72V1274H1205.94V1203.53H1304.39C1317.99 1203.53 1329 1193.56 1329 1181.24V690.908C1329.01 689.625 1328.43 688.509 1328.19 687.278ZM689.111 401.174C689.111 339.73 744.246 289.736 812.018 289.736H959.972C1027.75 289.736 1082.89 339.73 1082.89 401.174V512.612H689.111V401.174V401.174ZM92.3862 557.186H664.496H1107.49H1236.61L1271.75 668.624H57.2464L92.3862 557.186ZM1279.79 1158.95H1205.94H1156.72H172.278H123.056H49.2212V713.199H1279.78V1158.95H1279.79Z" fill="white"/>
<path d="M73.8282 445.753H442.998C456.597 445.753 467.612 435.785 467.612 423.463V22.2902C467.612 9.96806 456.597 0 443.005 0H73.8282C60.2285 0 49.2141 9.96806 49.2141 22.2902V423.463C49.2212 435.779 60.2356 445.753 73.8282 445.753ZM98.4495 44.574H418.384V401.173H98.4495V44.574Z" fill="white"/>
<path d="M172.277 178.304C178.574 178.304 184.871 176.129 189.68 171.774L238.902 127.2C248.513 118.495 248.513 104.39 238.902 95.6855C229.29 86.9811 213.714 86.9811 204.102 95.6855L154.881 140.26C145.269 148.964 145.269 163.069 154.881 171.774C159.69 176.123 165.98 178.304 172.277 178.304Z" fill="white"/>
<path d="M302.537 95.6789L154.881 229.407C145.269 238.112 145.269 252.217 154.881 260.922C159.69 265.271 165.98 267.452 172.284 267.452C178.581 267.452 184.878 265.277 189.687 260.922L337.344 127.2C346.956 118.495 346.956 104.39 337.344 95.6853C327.732 86.9809 312.163 86.9745 302.537 95.6789Z" fill="white"/>
<path d="M1194.83 497.518C1353.85 506.649 1442.66 688.733 1348.2 816.98V816.98C1325.59 847.675 1278.48 843.456 1261.69 809.232L1144.97 571.387C1127.65 536.093 1155.58 495.264 1194.83 497.518V497.518Z" fill="white"/>
<path d="M1406.25 458.984L1632.91 368.574L1678.43 558.186L1432.98 570.32L1406.25 458.984Z" fill="white"/>
<path d="M1655.8 320.4L2452.58 83.8092L2541.06 452.337L1721.73 595.048L1655.8 320.4Z" fill="white"/>
<path d="M2482.03 69.3773L2561.29 44L2657.7 445.589L2574.12 452.977L2482.03 69.3773Z" fill="white"/>
<path d="M1838.02 429.027L1839.99 427.903C1839.29 426.191 1838.69 424.889 1838.18 423.998L1836.41 424.424C1836.36 423.424 1836.13 421.454 1835.71 418.517L1835.87 416.455C1835.84 412.123 1835.83 409.883 1835.85 409.736C1835.92 408.85 1836.1 407.601 1836.39 405.989L1839.4 405.267L1839.3 402.759C1837.8 403.12 1836.95 402.89 1836.75 402.07C1836.54 401.204 1837.29 398.204 1839 393.069L1839.72 390.944L1841.65 386.938L1842.72 383.571C1842.85 383.299 1843.22 382.729 1843.83 381.859C1844.68 382.185 1845.31 382.299 1845.72 382.201C1846.04 382.124 1846.48 381.827 1847.03 381.309L1845.81 378.347C1847.25 376.121 1848.18 374.669 1848.59 373.99C1849.69 372.136 1851.02 370.324 1852.57 368.553L1853.88 366.502L1855.31 364.929L1856.16 363.351L1860.97 358.365C1862.64 356.084 1863.86 354.538 1864.63 353.727C1865.7 354.385 1866.51 354.745 1867.06 354.807C1867.98 354.054 1868.46 353.53 1868.49 353.234C1868.61 353.156 1868.62 352.599 1868.52 351.563C1869.54 350.595 1870.87 349.527 1872.52 348.36L1874.76 346.522L1878.53 344.17L1880.33 342.942C1882.04 342.435 1883.38 341.873 1884.34 341.257C1886.84 339.837 1889.59 338.43 1892.58 337.037L1894.16 336.079L1896.09 335.398L1897.44 335.002L1899.96 334.326C1900 334.315 1900.78 333.816 1902.27 332.83C1902.48 332.684 1902.65 332.595 1902.79 332.562C1902.97 332.518 1905.2 333.09 1909.49 334.279C1910.44 332.025 1911.1 330.855 1911.47 330.767C1911.47 330.767 1911.49 330.762 1911.54 330.751C1912.21 330.734 1913.8 330.448 1916.32 329.892C1916.46 329.859 1918.48 329.468 1922.4 328.721C1924.48 328.751 1926.27 328.586 1927.78 328.225L1928.9 328.969L1929.24 328.887C1929.76 328.232 1930.15 327.872 1930.43 327.807C1930.84 327.708 1931.5 327.959 1932.41 328.558C1932.42 329.184 1932.27 329.654 1931.96 329.97C1931.81 330.15 1931.29 330.611 1930.41 331.354C1929.73 331.95 1929.12 332.604 1928.57 333.315C1927.35 334.861 1926.49 335.694 1925.99 335.814C1925.39 335.957 1923.97 336.057 1921.72 336.116L1918.45 335.744L1913.97 336.384C1912 335.797 1910.76 335.564 1910.26 335.684C1910.03 335.739 1909.85 335.879 1909.71 336.106C1909.22 336.851 1908.9 337.218 1908.75 337.205L1907.91 337.044L1904.55 337.2L1901.86 335.606L1899.97 338.879C1899.61 339.399 1899.13 339.73 1898.54 339.872C1898.5 339.883 1897.72 339.973 1896.22 340.14L1892 342.744C1890.39 342.456 1889.38 342.362 1888.97 342.46C1888.47 342.581 1887.37 343.423 1885.67 344.987C1885.3 345.268 1884.05 345.689 1881.92 346.248C1882.03 347.091 1881.94 347.641 1881.67 347.9C1879.91 348.998 1878.14 350.192 1876.38 351.483C1875.4 352.202 1874.11 353.452 1872.51 355.233L1869.41 358.291C1869.22 358.482 1868.93 359.105 1868.56 360.159C1867.49 360.126 1866.68 360.175 1866.14 360.307C1865.95 360.35 1865.66 360.444 1865.26 360.588C1865.22 362.237 1864.93 363.416 1864.38 364.127C1864.16 364.421 1863.6 365.109 1862.7 366.192C1862.44 366.497 1861.96 366.828 1861.28 367.185C1861.14 367.218 1860.96 367.574 1860.74 368.255C1860.56 368.924 1859.91 369.998 1858.77 371.476L1856.93 371.34L1857.71 373.104C1856.93 374.063 1856.38 374.774 1856.05 375.237C1855.95 375.406 1855.52 376.448 1854.78 378.363C1854.11 379.778 1853.47 381.352 1852.88 383.086C1852.31 384.957 1851.72 386.691 1851.09 388.288L1849.5 388.887C1849.38 389.83 1849.14 390.635 1848.77 391.302L1848.59 391.13L1847.96 391.209L1847.93 392.01L1848.77 391.882C1848.9 392.622 1848.96 393.066 1848.94 393.214C1848.92 393.316 1848.71 394.064 1848.33 395.459C1847.64 400.25 1847.27 402.725 1847.22 402.884C1847.19 402.986 1846.95 403.478 1846.49 404.361C1847.01 405.73 1847.4 406.962 1847.66 408.056C1847.8 408.648 1847.68 410.051 1847.3 412.265C1847.07 413.524 1847.1 415.156 1847.39 417.16C1846.1 417.807 1845.44 418.568 1845.41 419.444C1847.13 419.994 1848.07 420.588 1848.22 421.227C1848.22 421.227 1848.23 421.272 1848.25 421.363C1848.61 424.266 1848.86 425.991 1848.99 426.538C1849.09 426.948 1849.48 427.986 1850.17 429.652C1849.04 430.745 1848.59 431.792 1848.83 432.795C1848.98 433.433 1849.47 434.04 1850.28 434.616L1851.6 434.083C1851.96 435.007 1852.5 436.058 1853.22 437.236C1853.57 437.876 1853.82 438.418 1853.97 438.863C1852.4 439.724 1850.3 440.83 1847.68 442.181C1847.42 442.292 1847.29 442.348 1847.29 442.348C1847.34 442.576 1849.3 442.395 1853.16 441.806L1855.33 441.792C1856.02 444.47 1857.01 446.571 1858.29 448.096C1858.35 448.176 1858.39 448.216 1858.39 448.216C1858.55 451.31 1858.64 452.88 1858.65 452.925C1858.77 453.427 1859.08 453.617 1859.58 453.497C1860.09 453.376 1860.59 452.966 1861.1 452.266C1862.05 453.241 1862.71 453.856 1863.06 454.109C1864.36 455.338 1865.13 456.215 1865.35 456.74L1866.51 459.138C1866.7 459.527 1867.29 459.89 1868.29 460.229C1869.69 460.663 1870.96 461.323 1872.09 462.209C1873.09 462.98 1874.45 463.812 1876.16 464.703C1876.87 465.062 1877.37 465.328 1877.65 465.501C1878.5 466.021 1878.97 466.293 1879.08 466.316C1879.23 466.375 1879.88 466.46 1881.02 466.573C1881.89 466.604 1882.48 466.729 1882.77 466.948L1883.62 467.757L1883.96 467.095C1886.15 468.594 1888.64 469.709 1891.42 470.439C1892.24 470.629 1893.53 470.897 1895.3 471.243C1897.07 471.59 1898.02 471.746 1898.16 471.713C1899.25 471.451 1900.39 469.949 1901.56 467.209C1903.26 468.055 1905.2 468.215 1907.39 467.69C1908.07 467.526 1908.62 467.298 1909.03 467.006C1909.94 466.355 1910.41 466.024 1910.46 466.013C1910.46 466.013 1910.87 466.011 1911.69 466.008C1911.93 465.998 1912.2 465.956 1912.52 465.879C1912.84 465.802 1915.51 465.066 1920.53 463.669C1921.92 463.238 1922.77 462.985 1923.09 462.908C1923.41 462.832 1924.35 462.653 1925.93 462.372C1926.26 462.341 1926.63 462.276 1927.04 462.178C1927.86 461.981 1929.13 461.555 1930.85 460.9C1931.12 460.209 1931.41 459.706 1931.72 459.39C1931.8 459.323 1933.86 458.563 1937.9 457.112C1940.5 455.908 1941.92 455.279 1942.14 455.225C1942.37 455.17 1943.19 455.286 1944.61 455.572C1944.72 455.595 1944.86 455.585 1945.04 455.542C1945.91 455.334 1946.31 454.417 1946.26 452.79C1947.29 452.686 1948.09 452.569 1948.63 452.437C1949.18 452.306 1950.77 451.587 1953.39 450.282L1956.78 449.035C1959.18 447.59 1960.84 446.662 1961.75 446.25C1961.58 445.907 1961.47 445.668 1961.44 445.531C1961.25 444.756 1961.39 444.24 1961.86 443.983L1967.21 440.963L1960.54 438.803L1965.45 434.227L1957.89 428.665C1957.89 428.665 1957.91 428.518 1957.93 428.222C1958.09 427.075 1957.98 425.704 1957.6 424.109C1957.49 423.653 1956.84 422.05 1955.65 419.299L1953.7 411.811C1953.59 411.355 1953.54 411.127 1953.54 411.127C1953.19 409.669 1953.39 408.681 1954.13 408.165L1957.96 405.438C1958.08 405.36 1958.14 405.275 1958.11 405.184C1958.1 405.138 1958 405.092 1957.79 405.045C1956.14 404.574 1954.44 404.547 1952.71 404.963C1952.48 405.018 1952.09 405.111 1951.55 405.242C1950.67 402.994 1949.45 401.527 1947.89 400.842C1947.41 400.667 1946.97 400.629 1946.56 400.727C1946.1 400.836 1945.59 401.008 1945.02 401.241L1943.83 400.804L1943.76 400.82C1943.72 400.831 1943.16 401.133 1942.1 401.726C1941.72 401.961 1939.37 402.598 1935.04 403.638C1934.81 403.693 1934.14 403.709 1933.02 403.687C1932.62 404.218 1932.21 404.532 1931.8 404.631C1931.08 404.806 1930.63 404.552 1930.46 403.868C1930.3 403.184 1930.79 402.126 1931.94 400.693C1932.57 399.868 1933.13 399.3 1933.63 398.986C1933.76 398.908 1934.44 398.721 1935.67 398.425C1937.26 398.042 1938.21 397.863 1938.5 397.889L1942.35 398.266C1942.45 398.29 1942.62 398.274 1942.85 398.219C1943.49 398.066 1944.18 397.442 1944.93 396.346C1946.84 396.273 1948.2 396.138 1949.03 395.941C1949.34 395.864 1949.68 395.759 1950.03 395.626C1951.1 395.227 1951.72 395.005 1951.9 394.962L1954.58 394.68L1954.65 394.663C1956.13 394.018 1957.58 393.406 1958.98 392.828C1960.25 394.113 1960.94 394.961 1961.04 395.371L1961.07 395.508C1961.34 398.046 1961.49 399.36 1961.51 399.452C1961.56 399.679 1961.67 400.016 1961.82 400.461C1962.51 402.127 1963.06 403.781 1963.45 405.422C1963.65 406.242 1964.07 408.19 1964.71 411.266C1964.87 412.143 1964.98 413.491 1965.03 415.311C1965.03 416.129 1965.08 417.034 1965.17 418.024L1963.6 418.401C1963.35 420.388 1963.28 421.587 1963.38 421.997C1963.48 422.408 1963.79 423.201 1964.31 424.377C1965.3 423.658 1965.83 423.169 1965.91 422.908C1966.11 422.716 1966.3 422.093 1966.48 421.037C1966.9 420.984 1967.32 421.147 1967.75 421.527L1962.55 425.162L1969.36 428.517C1969.36 428.517 1969.3 428.698 1969.2 429.061C1969.1 429.469 1969.08 430.078 1969.13 430.885L1967.84 431.845C1968.79 432.968 1969.44 433.583 1969.8 433.688C1969.96 433.747 1970.27 433.721 1970.72 433.612C1971.38 434.323 1971.76 434.809 1971.87 435.072C1971.88 435.118 1972.06 436.063 1972.41 437.908C1972.44 438.045 1972.48 438.204 1972.52 438.387C1972.79 439.526 1973.1 440.296 1973.44 440.697C1974.04 441.419 1974.35 441.803 1974.36 441.849C1974.36 441.849 1974.33 442.388 1974.25 443.468C1974.22 443.763 1974.25 444.07 1974.32 444.389C1974.4 444.709 1974.51 445.068 1974.65 445.467L1972.72 446.438C1972.37 447.583 1972.03 448.29 1971.71 448.56C1971.58 448.639 1969.68 449.144 1966 450.076C1962.89 451.786 1960.99 452.723 1960.31 452.888C1959.63 453.052 1958.68 453.134 1957.48 453.134L1956.79 454.168C1955.58 454.554 1952.79 455.682 1948.41 457.551C1948.37 457.562 1948.32 457.573 1948.28 457.584C1948.05 457.639 1947.77 457.682 1947.44 457.713C1946.96 457.731 1946.59 457.773 1946.31 457.839C1945.68 457.992 1944.44 458.771 1942.61 460.175C1942.06 460.499 1940.28 461.023 1937.27 461.745C1937.27 461.745 1936.11 462.336 1933.79 463.52C1932.94 463.967 1931.81 464.382 1930.41 464.767L1925.18 467.396L1922.68 468.14C1918.61 469.841 1914.88 471.267 1911.49 472.418C1910.57 471.818 1909.94 471.585 1909.59 471.718L1908.32 472.167L1906.25 472.881L1905.41 473.879C1905.28 473.957 1902.73 474.593 1897.76 475.786C1897.72 475.797 1897 475.898 1895.6 476.089C1894.42 476.226 1892.71 476.54 1890.47 477.031C1889.4 476.372 1888.59 476.012 1888.04 475.95C1887.46 475.945 1886.64 476.023 1885.57 476.183L1885.44 477.444C1880.37 477.215 1876.97 476.512 1875.24 475.336C1873.25 474.078 1871.75 473.234 1870.73 472.804C1870.16 471.639 1869.42 470.779 1868.52 470.225C1867.89 470.424 1867.37 470.573 1866.96 470.671C1866.19 470.857 1865.53 470.845 1865 470.636C1864.08 470.229 1862.43 469.06 1860.04 467.127C1859.28 466.586 1858.11 465.83 1856.53 464.86C1856.61 463.201 1856.57 462.03 1856.41 461.346C1856.1 460.07 1855.38 459.568 1854.24 459.842C1853.74 459.962 1853.18 460.168 1852.58 460.457C1852.06 459.714 1851.21 458.762 1850.01 457.603L1849.39 456.522L1844.36 448.835C1843.28 447.119 1842.6 445.692 1842.32 444.552C1842.31 444.507 1842.29 444.416 1842.26 444.279C1842.17 443.289 1842.11 442.771 1842.1 442.726C1842.06 442.543 1841.67 441.744 1840.95 440.327C1840.91 440.19 1840.35 438.252 1839.26 434.513C1839 433.612 1838.68 432.774 1838.3 431.997C1838.06 431.426 1837.91 430.982 1837.83 430.663C1837.76 430.343 1837.82 429.798 1838.02 429.027ZM1996.3 451.911C1996.57 451.22 1997 450.514 1997.6 449.792C1998.13 449.183 1999 448.082 2000.21 446.491C2000.02 446.102 1999.88 445.726 1999.79 445.361C1999.74 445.133 1999.81 444.85 2000.02 444.511C2001.03 442.098 2002.09 439.675 2003.19 437.241C2003.44 436.459 2004.15 435.204 2005.33 433.475L1999.26 433.487L2004.23 428.315L1997.14 424.087L1996.79 421.713L1996.45 419.698C1996.73 417.847 1996.79 416.58 1996.62 415.896L1996.59 415.759L1996.1 413.708C1995.92 412.979 1996.22 412.305 1996.99 411.687L1997.57 411.113L1998.78 411.039C1998.78 411.039 1998.85 411 1998.97 410.921C1999.04 410.615 1999.06 410.371 1999.01 410.188C1998.93 409.824 1998.22 409.294 1996.9 408.6L1996.45 406.754L1994.59 407.708L1993.91 407.293C1993.96 406.122 1993.96 405.4 1993.89 405.127L1992.93 402.031L1991.83 395.932C1991.78 395.704 1991.3 394.637 1990.41 392.73C1990.47 391.559 1990.41 390.536 1990.25 389.659L1991.21 389.429C1990.94 388.289 1990.93 387.039 1991.18 385.677C1989.62 385.81 1988.76 385.557 1988.61 384.919C1988.54 384.646 1988.52 384.145 1988.54 383.418C1988.51 382.895 1988.32 381.926 1987.98 380.514C1987.84 379.921 1987.67 379.214 1987.48 378.394C1987.35 377.654 1987.24 377.101 1987.15 376.737C1987.03 376.235 1986.88 375.813 1986.7 375.471C1986.4 375.013 1986.23 374.693 1986.18 374.511C1986.14 374.328 1986.2 373.976 1986.36 373.455L1987.59 373.16L1987.6 372L1986.44 371.989L1986.33 371.511C1986.23 370.907 1986.28 370.316 1986.48 369.738L1987.08 368.294C1987.05 368.203 1987.3 368.024 1987.81 367.756L1987.81 366.817L1986.07 366.511L1986.16 364.466C1985.62 365.029 1985.1 365.371 1984.6 365.491C1983.96 365.645 1983.52 365.243 1983.29 364.285C1983.27 364.194 1983.13 363.215 1982.88 361.348L1982.86 361.28L1981.21 355.892L1980.52 353.021C1980.39 352.474 1980.2 351.818 1979.97 351.054C1979.86 350.599 1979.79 350.28 1979.74 350.097C1979.5 349.095 1979.39 347.746 1979.42 346.052L1978.39 345.361L1976.96 339.412C1977.21 339.256 1977.33 339.154 1977.32 339.109C1977.34 339.007 1977.25 338.426 1977.05 337.367C1976.14 336.38 1975.63 335.659 1975.52 335.204C1975.46 334.976 1975.4 334.702 1975.32 334.383C1974.49 333.762 1974.06 333.337 1974 333.109L1973.29 330.459C1972.84 329.17 1972.54 328.326 1972.39 327.926C1972.21 327.345 1971.67 326.703 1970.78 326.001L1969.48 326.023L1968.3 324.136C1969.19 323.394 1969.76 322.894 1970.04 322.635C1971 321.825 1972.02 321.243 1973.09 320.89L1974.12 320.064L1975.27 319.136L1976.11 317.78L1976.84 317.241C1978.93 315.68 1980.56 314.758 1981.75 314.473C1982.75 314.232 1983.36 314.545 1983.56 315.411L1984.06 317.462L1984.88 319.073C1984.48 320.036 1984.35 320.813 1984.5 321.406C1984.62 321.907 1984.82 322.557 1985.11 323.356C1985.35 324.165 1985.71 325.357 1986.18 326.93L1986.39 326.881L1986.5 327.359C1985.91 327.695 1985.45 327.901 1985.13 327.977C1984.86 328.043 1984.46 328.091 1983.94 328.12L1983.73 328.459C1983.84 329.301 1983.47 330.088 1982.63 330.819L1984.7 332.783L1986.34 332.099L1987.79 333.63L1988.48 333.466L1988.71 333.554C1988.34 334.801 1987.57 336.334 1986.42 338.154L1986.68 342.863L1984.32 347.19L1985.92 349.626L1988.7 358.503C1988.92 358.79 1989.8 359.059 1991.36 359.313C1992.81 359.542 1993.61 359.953 1993.75 360.546C1993.75 360.546 1993.74 360.597 1993.71 360.699C1993.72 360.938 1993.7 361.33 1993.63 361.875L1992.66 362.326C1993.94 363.032 1994.86 364.593 1995.44 367.008C1995.66 367.92 1995.16 368.956 1993.95 370.115C1994.69 370.998 1995.21 371.571 1995.52 371.835C1996.51 372.947 1997.1 373.891 1997.28 374.666C1997.29 374.711 1997.27 375.513 1997.21 377.07L1997.41 377.6C1997.41 377.6 1997.41 377.623 1997.43 377.669C1997.41 377.816 1997.48 378.209 1997.64 378.847C1998.61 382.711 1999.21 385.291 1999.42 386.589C1999.52 387 1999.65 387.547 1999.82 388.23C2000.11 389.461 2000.42 390.663 2000.75 391.838C2000.9 392.237 2001.01 392.596 2001.09 392.915C2001.14 393.143 2001.14 393.433 2001.08 393.785L2000.94 393.528L1999.75 394.898C2000.28 396.267 2001.15 397.31 2002.38 398.026L2002.36 398.828L2004.96 408.471L2005.3 409.548C2005.42 410.049 2005.51 410.46 2005.59 410.779C2005.72 411.326 2005.81 413.208 2005.86 416.426L2006.53 420.099L2006.09 421.289C2006.07 421.391 2006.12 421.835 2006.26 422.62C2006.34 423.951 2006.44 425.038 2006.54 425.88L2008.06 425.298C2008.84 426.51 2009.25 427.207 2009.29 427.39L2011.73 438.157C2011.96 439.114 2012.61 439.609 2013.68 439.642C2014.5 439.638 2015.26 439.816 2015.97 440.175C2016.42 440.02 2016.8 439.904 2017.12 439.827C2017.44 439.751 2018.21 439.735 2019.42 439.781L2022.16 439.414L2026.98 439.34L2031.02 438.371L2033.94 440.923L2038.96 436.826L2041.45 436.661L2043.35 436.423L2045.34 436.595C2045.39 436.584 2046.2 436.245 2047.77 435.578C2048.03 435.467 2048.28 435.384 2048.51 435.329C2048.87 435.241 2049.95 435.2 2051.73 435.206C2053.83 434.316 2054.95 433.854 2055.09 433.821C2055.73 433.668 2056.89 433.486 2058.57 433.274C2059.18 433.178 2059.73 433.069 2060.23 432.949C2060.82 432.806 2061.81 432.401 2063.19 431.731L2066.48 430.654C2068.52 429.729 2070.73 428.886 2073.1 428.123C2074.09 427.837 2074.75 427.559 2075.07 427.289C2075.65 426.908 2076.1 426.679 2076.42 426.603C2076.56 426.57 2077.45 427.488 2079.11 429.356C2079.16 429.391 2079.24 429.397 2079.33 429.376C2079.97 429.222 2080.46 428.477 2080.82 427.138C2080.99 426.469 2080.91 425.405 2080.56 423.947C2082.01 423.165 2082.96 422.599 2083.4 422.251C2085.92 420.296 2087.52 419.237 2088.21 419.073C2088.21 419.073 2088.33 419.068 2088.57 419.059C2088.85 420.437 2088.9 421.342 2088.71 421.772L2087.96 423.47L2086.41 427.532C2085.67 428.673 2085.1 429.702 2084.69 430.62L2083.05 431.013L2082.62 432.561L2077.53 430.314L2069.17 435.863C2069.17 435.863 2068.97 435.839 2068.58 435.79C2067.75 435.748 2066.17 436.006 2063.85 436.564L2063.64 436.613C2063.28 436.701 2059.62 437.843 2052.68 440.041L2048.02 440.509C2046.44 441.176 2045.63 441.515 2045.58 441.526C2044.58 441.767 2043.55 441.581 2042.49 440.969C2040.65 439.962 2039.71 439.465 2039.67 439.476L2033.22 443.917L2031.42 443.986L2029.75 444.243L2027.99 444.448C2024.96 445.079 2023.09 445.431 2022.39 445.504L2023.03 444.845L2020.15 445.535L2020.09 447.069C2019.11 446.821 2018.46 446.616 2018.13 446.454C2017.35 446.208 2016.49 446.126 2015.54 446.208C2014.38 447.789 2012.89 448.798 2011.06 449.236C2010.02 449.487 2008.71 449.657 2007.14 449.745C2006.18 450.793 2005.07 451.47 2003.79 451.777C2003.43 451.864 2002.61 451.891 2001.35 451.856C1999.41 451.986 1997.72 452.004 1996.3 451.911ZM2088.01 379.71C2087.97 378.516 2087.77 376.996 2087.43 375.151C2087.18 373.716 2087.61 372.191 2088.71 370.576L2088.66 368.853L2089.89 368.557L2090.26 367.964C2089.16 367.021 2088.01 366.26 2086.82 365.681C2088.97 363.62 2090.33 362.041 2090.88 360.944C2091.46 359.937 2092.04 359.221 2092.61 358.794C2088.38 358.845 2086.24 358.757 2086.18 358.529C2086.16 358.438 2086.44 357.673 2087.01 356.234C2086.74 355.527 2086.54 354.877 2086.39 354.285C2086.29 353.874 2086.45 352.705 2086.85 350.776L2086.87 349.036C2087.43 347.552 2087.79 346.333 2087.94 345.38L2090.09 345.298C2090.15 344.32 2090.1 343.535 2089.96 342.943C2089.92 342.761 2089.21 341.532 2087.85 339.257L2088.42 336.516L2088.56 332.288C2088.72 331.767 2088.91 331.217 2089.1 330.639C2089.37 329.755 2089.68 327.296 2090.01 323.263L2090.23 321.764L2090.45 320.266L2091.31 316.948L2091.87 313.85L2093.39 306.906L2093.56 304.912C2093.77 303.993 2093.84 303.374 2093.76 303.055C2093.67 302.69 2093.55 302.286 2093.4 301.841L2093.64 301.348C2093.3 301.334 2092.73 301.374 2091.94 301.469C2091.29 301.577 2090.8 301.475 2090.49 301.165L2089.65 300.066C2091.69 297.55 2094.16 295.271 2097.04 293.228C2100.32 290.803 2102.73 289.405 2104.28 289.033C2104.55 288.967 2104.95 288.993 2105.46 289.112C2105.94 290.344 2105.68 292.94 2104.65 296.898L2102.15 305.163L2102 306.935C2101.89 307.298 2101.29 307.707 2100.2 308.163C2101.26 308.196 2101.86 308.486 2101.99 309.033C2102.15 309.671 2102.07 310.46 2101.77 311.401C2101.69 311.662 2101.11 312.862 2100.03 315C2099.82 315.339 2099.68 316.242 2099.59 317.708C2099.53 318.833 2099.33 319.939 2099.02 321.028C2098.88 321.061 2098.81 321.077 2098.81 321.077C2098.45 321.165 2097.94 321.046 2097.28 320.722L2097.08 320.771L2096.68 322.746L2095.1 323.993C2095.47 325.11 2096.03 326.037 2096.78 326.771L2098.22 325.557L2098.65 325.817C2098.7 326.624 2098.7 327.153 2098.67 327.403C2098.56 328.971 2098.53 329.846 2098.58 330.028C2098.64 330.302 2098.92 330.742 2099.4 331.349L2097.73 334.932L2096.97 348.346C2096.83 350.79 2096.55 352.424 2096.12 353.25L2094.82 353.562C2095.22 354.623 2095.56 355.217 2095.83 355.345C2095.86 355.482 2096.32 355.685 2097.21 355.955C2097.27 356.228 2097.33 356.456 2097.37 356.638C2097.47 357.049 2097.33 357.684 2096.96 358.545C2096.74 359.031 2096.63 359.491 2096.64 359.923C2096.62 360.025 2096.8 360.874 2097.18 362.469C2097.32 364.267 2097.52 365.809 2097.78 367.096C2097.94 367.928 2098.09 370.396 2098.26 374.502C2098.29 375.026 2098.33 375.401 2098.39 375.629L2098.4 375.697C2098.6 376.518 2098.81 377.287 2099.03 378.006C2099.2 378.496 2099.3 378.81 2099.33 378.946C2099.49 379.63 2099.57 380.671 2099.57 382.07L2098.93 382.729C2099.21 383.288 2099.39 383.705 2099.45 383.978C2099.5 384.161 2099.57 385.179 2099.68 387.033L2100.53 387.553L2102.17 387.159C2102.68 387.903 2102.99 388.457 2103.07 388.822C2103.13 389.049 2103.17 389.448 2103.22 390.017C2103.28 390.483 2103.4 391.104 2103.59 391.879C2104.05 393.793 2104.68 395.402 2105.47 396.706L2107.67 400.444C2107.91 400.822 2108.09 401.284 2108.22 401.831C2108.37 402.469 2108.51 403.618 2108.61 405.279C2109.24 405.467 2109.94 405.491 2110.73 405.35L2111.91 406.658L2113.57 406.622C2115.61 409.699 2117.71 411.845 2119.88 413.059C2121.39 413.903 2123.45 414.684 2126.09 415.403C2127.24 416.186 2128.04 416.62 2128.5 416.704C2129.77 416.978 2130.97 416.977 2132.11 416.704C2132.48 416.616 2133.11 416.344 2134.01 415.886L2135.02 417.379C2135.87 417.319 2136.6 417.218 2137.19 417.075C2137.65 416.966 2138.91 416.398 2140.97 415.371C2141.36 415.182 2141.83 415.021 2142.38 414.89C2142.56 414.846 2143.16 414.749 2144.19 414.6L2146.75 414.129C2147.43 414.158 2147.77 414.173 2147.77 414.173L2149.99 412.557L2151.45 411.7C2153.16 410.614 2154.49 409.813 2155.42 409.299L2155.67 408.227C2156.9 407.499 2157.9 406.559 2158.68 405.407L2161.26 405.585C2161.56 404.018 2162.34 403.082 2163.62 402.776C2163.85 402.721 2164.14 402.65 2164.51 402.562C2165.05 401.612 2165.44 401.036 2165.69 400.834L2167.92 399.286C2169.41 397.481 2170.62 396.179 2171.53 395.38L2172.76 395.954L2174.96 394.27C2175.14 393.214 2175.33 392.613 2175.54 392.467L2177.36 391.018L2179.63 388.737C2181.13 387.943 2182.03 387.412 2182.36 387.142C2182.63 386.883 2183.35 386.179 2184.52 385.031C2184.68 383.065 2185.39 381.929 2186.67 381.623C2187.13 381.513 2187.69 381.45 2188.36 381.434L2187.87 379.383C2188.53 379.128 2189.02 378.768 2189.35 378.305C2191.08 375.479 2192.27 373.842 2192.94 373.393L2195.07 372.015C2195.39 371.745 2195.94 370.334 2196.73 367.784C2197.8 365.838 2198.53 364.458 2198.91 363.643L2198.07 362.254L2198.06 362.185L2197.67 359.385L2197.58 358.975C2197.5 358.656 2197.31 357.955 2197 356.872C2196.68 355.936 2196.5 355.378 2196.45 355.195L2195.45 349.507C2194.81 346.863 2194.33 344.761 2194.01 343.2C2195.31 342.212 2195.91 341.49 2195.8 341.034C2195.74 340.806 2195.25 340.444 2194.31 339.946L2193.98 338.579L2193.18 338.554C2192.77 337.834 2192.49 337.178 2192.35 336.585C2192.28 336.312 2192.37 335.687 2192.62 334.712C2192.84 333.838 2192.86 332.918 2192.68 331.949L2189.54 331.545C2189.86 329.831 2189.79 328.04 2189.34 326.171C2188.92 324.439 2188.4 322.757 2187.77 321.125C2186.71 318.535 2186.11 316.943 2185.97 316.35C2185.53 314.527 2185.28 312.683 2185.22 310.818C2186.08 309.791 2186.44 308.982 2186.3 308.389C2186.19 307.933 2186.02 307.636 2185.8 307.498L2183.39 306.196C2182.65 305.746 2182.24 305.219 2182.14 304.615L2182.12 304.547C2183.77 303.38 2185.42 302.213 2187.07 301.046L2180.93 301.074L2180.13 296.854L2179.02 294.951L2177.97 291.155L2175.6 284.925C2175.53 284.606 2175.46 283.537 2175.41 281.717C2174.56 281.198 2173.98 280.857 2173.65 280.694C2172.73 280.288 2172.22 279.88 2172.12 279.469C2172.05 279.15 2172.1 278.776 2172.29 278.345C2172.35 278.187 2173.14 277.466 2174.66 276.185C2178.12 272.704 2179.88 270.93 2179.96 270.862C2180.05 270.795 2180.47 270.571 2181.25 270.192C2181.72 269.935 2182.66 269.517 2184.06 268.939C2184.97 269.732 2185.5 270.425 2185.64 271.018C2185.65 271.063 2185.93 273.601 2186.46 278.631C2186.54 279.383 2186.76 280.51 2187.13 282.014C2187.39 283.108 2187.9 284.529 2188.65 286.275C2188.76 286.492 2188.84 286.737 2188.9 287.011C2189.08 287.74 2189.39 289.255 2189.85 291.556C2189.96 292.205 2189.99 293.547 2189.95 295.582C2189.92 295.877 2189.95 296.207 2190.04 296.572C2190.15 297.028 2190.64 297.657 2191.51 298.461C2191.69 298.611 2191.81 298.8 2191.86 299.027C2191.9 299.21 2191.91 299.739 2191.88 300.614C2191.86 301.921 2191.83 302.626 2191.81 302.728C2191.77 302.784 2191.26 303.342 2190.26 304.402C2189.8 304.898 2189.64 305.419 2189.77 305.966C2189.82 306.194 2189.93 306.456 2190.1 306.754C2190.24 306.721 2190.33 306.699 2190.37 306.688C2190.88 306.568 2191.56 306.307 2192.43 305.906L2193 306.201L2192.95 308.093L2194.44 307.954C2194.84 309.015 2195.76 312.241 2197.2 317.632L2198.29 321.275C2198.3 323.151 2198.69 325.684 2199.46 328.875C2199.64 329.604 2200.13 330.376 2200.96 331.191C2201.19 331.375 2201.36 331.65 2201.44 332.014C2201.5 332.242 2201.54 332.498 2201.56 332.783C2201.78 334.127 2201.94 334.981 2202.03 335.345C2202.96 339.22 2203.49 341.356 2203.64 341.756C2203.7 342.029 2203.96 342.498 2204.41 343.161C2204.49 343.287 2204.55 343.441 2204.59 343.624C2204.69 344.034 2204.75 344.597 2204.78 345.314C2204.89 346.349 2205.09 347.505 2205.4 348.781C2205.52 349.283 2206.37 352.451 2207.97 358.288L2207.98 358.356C2208.07 358.721 2208.16 359.688 2208.25 361.258C2206.83 362.177 2206.22 363.069 2206.43 363.935C2206.67 364.938 2207.18 365.636 2207.95 366.03C2208.22 366.157 2209.03 366.228 2210.38 366.24C2211.11 366.258 2211.56 366.632 2211.74 367.361L2211.68 369.544L2211.8 370.022C2212.17 371.572 2212.59 372.918 2213.06 374.059C2211.78 375.764 2210.72 376.862 2209.87 377.355L2209.92 377.56C2210.97 378.127 2212.08 378.535 2213.25 378.785L2214.02 380.19L2214.84 380.283C2215.22 381.253 2215.44 381.898 2215.52 382.217C2215.82 383.061 2216.34 384.237 2217.09 385.745C2217.41 386.68 2217.82 387.497 2218.33 388.195L2219.56 388.189L2220.92 392.056C2219.84 392.797 2219.21 393.359 2219.01 393.744L2217.57 396.186L2215.39 397.939L2211.11 401.788C2210.71 402.125 2210.21 402.365 2209.62 402.507C2209.12 402.627 2208.48 402.707 2207.72 402.745C2207.6 402.437 2207.53 402.26 2207.52 402.215C2207.41 401.759 2207.41 400.65 2207.52 398.889C2207.59 397.957 2207.49 396.967 2207.24 395.919C2206.99 394.871 2206.21 393.033 2204.9 390.406C2204.82 390.234 2204.68 389.761 2204.49 388.986C2204.37 388.485 2204.29 387.251 2204.25 385.283L2203.67 382.242L2203.27 379.663C2202.4 377.461 2201.84 376.052 2201.6 375.435C2201.48 375.127 2201.19 374.812 2200.72 374.489C2199.93 375.209 2199.42 375.694 2199.19 375.942C2196.18 378.881 2194.48 380.519 2194.08 380.856C2191.67 382.687 2190.46 383.631 2190.42 383.687L2187.49 387.429C2185.09 389.498 2183.38 390.994 2182.35 391.917C2181.46 392.466 2180.93 392.859 2180.75 393.096C2180.61 393.129 2180.42 393.656 2180.19 394.677C2179.09 395.326 2178.28 395.858 2177.75 396.274C2177.67 396.341 2176.21 397.777 2173.36 400.582L2167.68 404.911C2165.36 406.913 2163.82 408.007 2163.04 408.193C2162.72 408.27 2162.33 408.363 2161.88 408.473L2162.68 410.305C2160.78 411.242 2159.08 412.494 2157.58 414.06C2156.21 415.594 2154.96 416.497 2153.82 416.771C2153.46 416.858 2152.75 416.618 2151.69 416.052C2149.94 417.388 2149.01 418.141 2148.91 418.311C2148.59 418.581 2148.35 419.169 2148.18 420.077C2147.55 420.083 2147.03 420.135 2146.62 420.233C2146.31 420.31 2144.74 421.216 2141.93 422.952L2136.71 420.516C2136.28 420.523 2136.12 421.767 2136.24 424.246C2135.34 423.738 2134.13 423.618 2132.61 423.888L2131.82 426.03C2129.57 426.281 2126.48 426.201 2122.58 425.79L2122.83 424.138C2122.34 424.111 2121.92 424.141 2121.55 424.228C2121.19 424.316 2120.66 424.731 2119.97 425.475C2118.77 424.896 2117.02 424.208 2114.7 423.414C2114.6 423.39 2113.05 422.341 2110.04 420.266C2107.76 419.369 2106.49 418.806 2106.24 418.576C2106.1 418.416 2105.39 417.335 2104.09 415.333C2103.77 414.83 2103.32 414.337 2102.72 413.854C2101.83 413.152 2101.36 412.71 2101.32 412.527C2101.25 412.254 2101.28 411.885 2101.41 411.42C2102.2 411.279 2103.01 411.446 2103.85 411.92C2104.17 410.445 2104.3 409.281 2104.24 408.428L2103.9 408.22L2103.74 408.474L2101.62 408.983L2100.77 408.463L2100.6 408.649L2098.82 409.076L2097.79 406.866C2096.78 406.482 2096.19 406.141 2096.02 405.844L2095.44 404.61C2094.71 403.774 2094.3 403.173 2094.21 402.808C2094.08 402.261 2094.27 401.661 2094.79 401.006C2093.72 400.155 2093.12 399.552 2092.98 399.198L2091.99 396.256C2091.17 394.668 2090.71 393.669 2090.62 393.258C2090.54 392.939 2090.22 390.896 2089.65 387.127C2089.48 386.011 2089.4 385.402 2089.43 385.3L2089.95 383.873C2090.19 383.238 2090.2 382.511 2090.01 381.69C2089.8 380.824 2089.14 380.164 2088.01 379.71ZM2214.75 269.67C2214.59 268.407 2214.7 267.367 2215.09 266.552L2216.38 266.24C2216.76 265.187 2217.25 264.344 2217.87 263.713C2218.46 263.139 2219.1 262.383 2219.79 261.446C2220.58 261.544 2221.16 261.55 2221.53 261.462C2221.71 261.418 2222.23 261.173 2223.09 260.726C2223.34 260.57 2223.67 260.442 2224.08 260.344C2224.44 260.256 2226.77 259.914 2231.06 259.317C2231.71 259.21 2232.45 259.058 2233.27 258.861C2233.68 258.762 2234.16 258.551 2234.71 258.226C2236.52 258.948 2237.68 259.271 2238.19 259.197L2239.08 258.983L2240.57 258.844C2241.66 257.762 2242.73 257.096 2243.78 256.844C2244.23 256.735 2245.7 256.817 2248.17 257.09L2251.16 256.879L2254.35 256.909C2254.44 256.887 2254.78 256.686 2255.36 256.305C2255.9 255.934 2256.4 255.717 2256.87 255.654L2270.98 252.409L2271.73 253.098L2275.55 252.469L2276.28 250.992C2279.23 250.19 2282.02 249.3 2284.68 248.325C2285.21 248.102 2285.74 247.925 2286.29 247.794C2286.84 247.663 2287.44 247.566 2288.1 247.504C2289.6 247.336 2290.54 247.209 2290.9 247.121C2291.22 247.044 2294.29 245.658 2300.1 242.961L2303.88 241.546C2305.78 240.802 2306.77 240.42 2306.86 240.398C2307.18 240.321 2308.11 240.267 2309.64 240.236C2309.78 241.022 2309.61 241.907 2309.12 242.892C2308.75 243.559 2308.57 243.893 2308.57 243.893L2305.59 246.559C2305.32 246.818 2304.8 247.473 2304.04 248.523C2303.2 249.641 2302.52 250.237 2302.01 250.312L2301.87 250.345C2300.66 250.538 2299.55 250.709 2298.52 250.859C2298.1 250.912 2297.16 250.801 2295.7 250.526L2295.08 250.673L2294.6 250.788L2291.25 251.593C2290.66 251.735 2289.21 251.937 2286.91 252.2L2283.1 253.477L2280.3 254.15L2276.25 255.989L2271.15 256.708L2268.6 257.247L2267.07 257.471L2262.99 258.883L2259.41 259.6L2257.91 260.609L2250.09 262.054L2247.98 262.921C2247.94 262.932 2247.35 262.903 2246.23 262.836C2245.53 262.761 2243.55 263.118 2240.26 263.906L2238.97 264.218C2238.56 264.316 2237.68 264.598 2236.35 265.063L2234.05 265.11C2233.73 265.186 2233.32 265.694 2232.82 266.633C2233.81 267.745 2234.49 268.979 2234.87 270.336C2235.2 271.51 2235.47 272.456 2235.69 273.175C2235.02 274.396 2234.37 275.084 2233.73 275.237C2233.59 275.27 2233.27 275.25 2232.78 275.177C2232.86 276.121 2232.93 276.73 2233 277.003C2233.06 277.277 2233.19 277.488 2233.37 277.638C2233.66 277.857 2234.1 278.088 2234.69 278.333C2235.17 278.507 2235.84 278.804 2236.71 279.221C2236.73 280.711 2236.78 281.638 2236.87 282.002C2236.94 282.276 2237.53 283.652 2238.66 286.129C2239.67 286.127 2241.46 285.939 2244.02 285.565L2248.73 285.303L2251.97 284.668L2254.72 284.37C2256.45 283.954 2258.29 283.658 2260.22 283.483C2261.02 283.388 2261.78 283.253 2262.51 283.078C2263.29 282.892 2263.95 282.66 2264.51 282.381C2265.83 281.824 2266.71 281.492 2267.17 281.382C2267.21 281.371 2268.14 281.34 2269.96 281.289C2270.11 281.302 2270.28 281.286 2270.46 281.242C2270.82 281.155 2271.99 280.802 2273.96 280.184C2274.46 280.018 2275.04 279.853 2275.73 279.689C2276.91 279.404 2278.59 278.954 2280.75 278.337C2284.1 277.436 2286.62 276.59 2288.31 275.799C2288.44 275.72 2288.59 275.659 2288.78 275.616C2289.19 275.517 2289.93 275.388 2291 275.227C2291.51 275.152 2292.27 275.017 2293.29 274.822L2293.06 273.865C2294.32 273.513 2295.05 273.145 2295.25 272.76L2295.53 272.404L2299.3 275.475C2299.72 274.024 2300.02 273.134 2300.18 272.806C2300.37 272.421 2300.78 271.891 2301.39 271.214C2302.34 270.166 2303.02 269.592 2303.43 269.494C2303.98 269.363 2304.63 269.278 2305.4 269.239C2305.67 270.765 2305.68 271.63 2305.44 271.832C2305.47 272.162 2304.98 272.811 2303.95 273.779L2304.4 275.625C2303.53 276.413 2302.91 277.26 2302.55 278.166C2301.44 278.77 2300.7 279.115 2300.34 279.203C2299.66 279.367 2298.97 279.218 2298.28 278.757C2296.09 277.259 2294.88 276.537 2294.65 276.591C2294.61 276.602 2294.05 277.916 2292.99 280.532C2292.96 280.589 2292.87 280.634 2292.74 280.666C2292.65 280.688 2292.5 280.676 2292.29 280.628C2291.79 280.555 2291.08 280.509 2290.16 280.489C2289.73 280.883 2288.55 281.406 2286.64 282.059C2284.38 282.311 2283.12 282.469 2282.85 282.535C2282.57 282.601 2281.2 283.1 2278.72 284.031L2276.13 284.075L2273.22 284.628L2271.7 284.921L2266.88 286.803L2261.84 287.216L2255.65 288.846L2253.49 288.86L2251.04 289.52L2248.97 289.944L2247.38 290.833L2244.75 291.609C2243.24 292.164 2241.78 292.611 2240.37 292.95C2241.17 294.06 2241.79 295.356 2242.24 296.839L2243.01 298.824L2244.38 304.857L2245.71 308.587C2245.74 308.917 2245.58 309.535 2245.22 310.441L2244.14 311.062L2243.88 310.906C2243.74 311.906 2243.73 312.656 2243.85 313.157C2243.9 313.385 2244.06 313.733 2244.31 314.202L2244.79 313.797C2245.81 314.227 2246.46 314.626 2246.74 314.992C2246.88 315.153 2247.1 315.871 2247.41 317.147C2247.57 317.831 2247.3 318.596 2246.58 319.442C2246.96 320.412 2247.69 321.732 2248.76 323.402C2248.99 323.733 2249.23 324.423 2249.48 325.472C2249.55 325.791 2249.66 326.224 2249.79 326.771L2248.47 327.884C2248.51 328.453 2248.58 328.965 2248.69 329.421C2248.9 330.287 2249.8 330.938 2251.4 331.373C2251.15 332.156 2251.07 332.61 2251.15 332.735L2252.5 335.664L2253.28 338.298L2253.95 339.873L2254.17 341.99L2254.84 344.503L2254.86 346.089C2255.43 349.039 2255.71 350.514 2255.71 350.514C2255.93 351.665 2256.05 352.263 2256.07 352.308C2256.15 352.673 2256.39 353.17 2256.78 353.799L2254.62 355.91C2254.81 356.731 2255.3 357.65 2256.07 358.67L2256.48 358.571C2256.93 358.03 2257.27 357.731 2257.5 357.677C2257.86 357.589 2258.41 357.748 2259.13 358.152C2258.93 359.936 2258.9 361.101 2259.03 361.648C2259.07 361.83 2259.45 362.51 2260.17 363.688L2261.4 368.526L2263.18 374.102C2263.62 375.925 2262.85 378.061 2260.88 380.51C2261.19 381.786 2261.57 382.659 2262.02 383.13C2262.16 383.336 2262.57 383.504 2263.22 383.635C2263.58 383.695 2264.21 383.929 2265.13 384.335L2267.22 381.302L2270.23 380.58L2275.31 378.274L2277.76 377.905C2280.13 377.336 2281.36 377.04 2281.45 377.018C2281.6 377.031 2282.52 377.244 2284.21 377.658C2284.31 377.682 2284.47 377.666 2284.7 377.612C2285.43 377.437 2286.24 376.785 2287.12 375.656L2287.31 375.538L2287.48 375.352L2289.97 377.576L2292.04 374.764C2292.28 374.13 2292.52 373.757 2292.79 373.646C2292.79 373.646 2292.9 373.618 2293.13 373.563L2300.99 372.256L2303.6 371.7C2304.79 371.416 2305.58 371.224 2305.99 371.126C2306.6 371.029 2306.92 370.975 2306.97 370.964C2307.1 370.931 2307.85 370.609 2309.19 369.996C2309.27 369.929 2309.45 369.862 2309.72 369.796C2309.95 369.742 2310.21 369.704 2310.49 369.684C2313.28 369.255 2314.75 369.025 2314.88 368.992C2314.93 368.981 2315.81 368.648 2317.53 367.994L2318.63 367.731L2330.82 364.588L2331.79 364.426C2331.85 364.461 2332.11 364.35 2332.58 364.093C2332.84 363.981 2333.06 363.904 2333.25 363.86C2333.34 363.838 2334.04 363.839 2335.34 363.863C2335.58 363.853 2336.27 363.712 2337.41 363.439L2338.81 365.634L2340.87 365.5L2340.31 363.176L2340.4 362.938L2341 362.432C2342.86 364.348 2343.88 365.284 2344.06 365.24C2344.2 365.207 2345.26 363.893 2347.24 361.296C2347.67 360.709 2348.19 360.345 2348.78 360.202C2349.28 360.082 2349.98 360.276 2350.87 360.785C2351.86 360.26 2352.55 359.948 2352.96 359.849C2353.71 359.526 2354.23 359.207 2354.54 358.892C2354.48 358.232 2354.59 357.772 2354.86 357.514C2355.38 357.052 2355.89 356.688 2356.41 356.42C2357.44 356.122 2358.37 355.875 2359.19 355.678C2363 353.849 2365.2 352.767 2365.79 352.431C2366.68 351.542 2367.29 351.058 2367.61 350.982C2368.34 350.807 2368.83 351.243 2369.08 352.292C2369.17 352.656 2369.11 353.321 2368.91 354.285C2368.7 355.204 2368.57 356.101 2368.54 356.977C2367.9 357.516 2367.59 357.906 2367.6 358.144L2367.46 359.695C2366.64 361.484 2364.47 362.776 2360.94 363.574L2358.86 364.509L2354.39 362.182L2350.42 367.039L2347.56 367.149L2343.97 367.866L2341.41 368.046L2338.2 368.818L2334.35 369.379C2334.26 369.401 2333.96 369.546 2333.45 369.814L2332.32 369.36C2331.3 370.328 2330.45 370.894 2329.77 371.058C2329.54 371.113 2327.86 371.228 2324.72 371.403C2324.1 371.454 2322.66 371.754 2320.38 372.301C2319.01 372.629 2317.9 372.943 2317.06 373.242C2315.78 373.741 2314.91 374.046 2314.46 374.155C2314.41 374.166 2312.35 374.323 2308.28 374.626C2307.53 374.903 2307.13 375.047 2307.08 375.058C2306.72 375.146 2306.27 375.204 2305.75 375.233L2304.94 376.658C2303.89 376.717 2303.3 376.762 2303.16 376.795L2296.01 378.656L2293.14 379.345L2289.11 380.603C2288.88 380.658 2288.35 380.664 2287.52 380.622L2287.72 379.345C2286.58 379.619 2285.46 380.08 2284.36 380.729L2284.6 382.625L2283.37 382.92L2283.1 382.986L2282.98 383.087C2282.89 383.109 2282.84 383.12 2282.84 383.12C2282.75 383.142 2282.65 383.141 2282.55 383.117C2281.44 382.902 2280.38 382.915 2279.38 383.156C2278.56 383.353 2277.98 383.563 2277.65 383.787C2277.57 383.855 2277.53 383.889 2277.53 383.889C2277.44 383.911 2276.54 383.282 2274.84 382.005C2274.31 381.602 2273.81 381.455 2273.36 381.564C2272.99 381.652 2271.57 382.957 2269.09 385.481C2268.52 386.101 2267.8 386.515 2266.93 386.723C2266.61 386.799 2265.49 386.829 2263.55 386.81C2263.41 386.798 2263.17 386.83 2262.85 386.906C2262.58 386.972 2261.17 387.527 2258.63 388.572L2255.03 389.579C2252.02 391.074 2250.37 391.855 2250.1 391.92C2249.64 392.03 2248.86 392.073 2247.75 392.052C2247.59 391.607 2247.48 391.225 2247.4 390.906C2247.28 390.404 2247.3 389.7 2247.47 388.792C2247.71 388.783 2247.87 388.767 2247.96 388.745C2248.51 388.614 2248.96 388.266 2249.3 387.7C2249.57 387.203 2250.03 385.382 2250.67 382.239L2249.68 378.426C2249.67 378.381 2249.72 378.273 2249.82 378.104C2250.25 377.085 2250.46 376.552 2250.45 376.507C2249.97 375.706 2249.71 375.215 2249.66 375.033C2249.62 374.85 2249.59 374.64 2249.58 374.401C2249.16 371.657 2248.52 368.485 2247.66 364.884C2247.43 363.733 2247.33 362.021 2247.37 359.748C2247.42 359.35 2247.69 358.875 2248.18 358.323C2248.54 357.996 2248.64 357.537 2248.5 356.944C2248.35 355.92 2248.29 355.163 2248.32 354.675L2247.84 356.597L2247.29 356.728C2246.96 356.134 2246.46 355.555 2245.79 354.992C2245.62 354.263 2245.48 353.693 2245.38 353.283L2244.61 350.359L2244.59 350.291L2245.62 347.947L2245.89 343.976C2245.95 343.624 2246.8 342.819 2248.42 341.561C2248.63 341.415 2248.73 341.342 2248.73 341.342C2248.6 340.988 2246.67 340.8 2242.96 340.776L2244.97 339.209L2244.75 338.32L2243.15 337.981C2242.73 337.216 2242.16 336.676 2241.46 336.363C2241.2 335.269 2241.05 334.147 2241.02 332.999L2238.72 327.042L2243.22 321.695L2236.06 315.967L2239.8 313.188L2235.1 312.581L2236.53 311.298C2236.22 310.022 2236.09 308.753 2236.12 307.491C2235.56 307.338 2234.96 307.071 2234.34 306.69C2233.99 306.437 2233.66 306.274 2233.35 306.203C2232.81 304.743 2232.48 303.785 2232.38 303.329C2231.85 301.528 2231.53 300.519 2231.43 300.302C2231.31 299.994 2231.23 299.748 2231.18 299.566C2231.06 299.065 2231.25 298.344 2231.75 297.405C2231.4 296.959 2231 296.79 2230.54 296.9C2230.41 296.932 2230.23 296.999 2230.01 297.099C2229.68 296.312 2229.43 295.599 2229.28 294.961C2229.11 294.231 2229.31 293.364 2229.89 292.357C2228.62 291.697 2227.88 290.934 2227.67 290.068L2225.64 281.59C2225.39 280.542 2224.82 278.797 2223.95 276.356C2223.06 273.869 2222.58 272.563 2222.5 272.437C2222.39 272.368 2222.01 272.217 2221.38 271.983L2220.62 268.838L2218.36 269.67L2218.28 269.328L2217.89 269.205C2217.25 269.358 2216.84 269.457 2216.66 269.5C2216.02 269.654 2215.39 269.71 2214.75 269.67Z" fill="#969696"/>
</svg>
