<svg width="2656" height="1275" viewBox="0 0 2656 1275" fill="none" xmlns="http://www.w3.org/2000/svg">
<path d="M1328.19 687.278C1328.03 686.45 1328.31 685.617 1328.06 684.802L1278.84 528.79C1275.81 519.213 1266.15 512.619 1255.16 512.619H1132.11V401.174C1132.11 315.156 1054.89 245.162 959.972 245.162H812.018C717.103 245.162 639.882 315.156 639.882 401.174V512.612H73.8282C62.8422 512.612 53.1807 519.206 50.1562 528.783L0.934982 684.795C0.679987 685.617 0.956231 686.45 0.807484 687.278C0.573738 688.509 0 689.619 0 690.908V1181.24C0 1193.55 11.0073 1203.53 24.6141 1203.53H123.056V1274H172.278V1203.53H1156.72V1274H1205.94V1203.53H1304.39C1317.99 1203.53 1329 1193.56 1329 1181.24V690.908C1329.01 689.626 1328.43 688.509 1328.19 687.278ZM689.111 401.174C689.111 339.73 744.246 289.736 812.018 289.736H959.972C1027.75 289.736 1082.89 339.73 1082.89 401.174V512.612H689.111V401.174ZM92.3862 557.186H664.496H1107.49H1236.61L1271.75 668.625H57.2464L92.3862 557.186ZM1279.79 1158.95H1205.94H1156.72H172.278H123.056H49.2212V713.199H1279.78V1158.95H1279.79Z" fill="white"/>
<path d="M73.8282 445.753H442.998C456.597 445.753 467.612 435.785 467.612 423.463V22.2902C467.612 9.96806 456.597 0 443.005 0H73.8282C60.2285 0 49.2141 9.96806 49.2141 22.2902V423.463C49.2212 435.779 60.2356 445.753 73.8282 445.753ZM98.4495 44.574H418.384V401.173H98.4495V44.574Z" fill="white"/>
<path d="M172.277 178.304C178.574 178.304 184.871 176.129 189.681 171.774L238.902 127.2C248.514 118.495 248.514 104.39 238.902 95.6854C229.29 86.981 213.714 86.981 204.102 95.6854L154.881 140.259C145.269 148.964 145.269 163.069 154.881 171.774C159.69 176.123 165.98 178.304 172.277 178.304Z" fill="white"/>
<path d="M302.537 95.6791L154.881 229.408C145.269 238.112 145.269 252.217 154.881 260.922C159.69 265.271 165.98 267.452 172.284 267.452C178.581 267.452 184.878 265.277 189.688 260.922L337.344 127.2C346.956 118.495 346.956 104.39 337.344 95.6855C327.732 86.9811 312.163 86.9747 302.537 95.6791Z" fill="white"/>
<path d="M1194.83 497.518C1353.85 506.649 1442.66 688.733 1348.2 816.98C1325.59 847.675 1278.48 843.456 1261.69 809.232L1144.97 571.387C1127.65 536.093 1155.58 495.265 1194.83 497.518Z" fill="white"/>
<path d="M1406.25 458.984L1632.91 368.574L1678.43 558.186L1432.98 570.32L1406.25 458.984Z" fill="white"/>
<path d="M2472.5 76.5L2561.29 43.9999L2652.5 436.5L2561.29 446.5L2472.5 76.5Z" fill="white"/>
<path fill-rule="evenodd" clip-rule="evenodd" d="M2452.58 83.8093L1655.8 320.4L1721.73 595.048L2541.06 452.338L2452.58 83.8093ZM1848.97 425.746L1847 426.871C1846.8 427.642 1846.74 428.187 1846.81 428.506C1846.89 428.825 1847.05 429.27 1847.28 429.841C1847.66 430.617 1847.98 431.456 1848.24 432.357C1849.34 436.096 1849.9 438.034 1849.93 438.171C1850.66 439.587 1851.04 440.387 1851.08 440.569C1851.09 440.615 1851.15 441.132 1851.24 442.122L1851.31 442.396C1851.58 443.535 1852.26 444.963 1853.35 446.679L1858.37 454.366L1858.99 455.446C1860.19 456.606 1861.04 457.557 1861.56 458.301C1862.16 458.011 1862.72 457.806 1863.22 457.686C1864.36 457.412 1865.08 457.913 1865.39 459.19C1865.55 459.873 1865.59 461.045 1865.51 462.704C1867.09 463.674 1868.26 464.429 1869.02 464.971C1871.41 466.903 1873.06 468.073 1873.98 468.479C1874.51 468.689 1875.17 468.701 1875.94 468.515C1876.35 468.416 1876.87 468.267 1877.5 468.069C1878.4 468.623 1879.14 469.482 1879.71 470.647C1880.73 471.078 1882.23 471.922 1884.22 473.18C1885.95 474.355 1889.35 475.058 1894.42 475.287L1894.55 474.027C1895.62 473.866 1896.44 473.789 1897.02 473.794C1897.57 473.856 1898.38 474.216 1899.45 474.874C1901.7 474.383 1903.4 474.07 1904.58 473.933C1905.98 473.741 1906.7 473.64 1906.75 473.629C1911.71 472.436 1914.26 471.801 1914.39 471.722L1915.23 470.724L1917.3 470.01L1918.57 469.562C1918.92 469.428 1919.56 469.662 1920.47 470.262C1923.86 469.111 1927.59 467.685 1931.67 465.983L1934.16 465.239L1939.39 462.611C1940.79 462.226 1941.92 461.81 1942.78 461.363L1946.26 459.588C1949.26 458.866 1951.04 458.343 1951.59 458.018C1953.42 456.614 1954.66 455.835 1955.3 455.682C1955.57 455.617 1955.95 455.575 1956.42 455.556C1956.75 455.525 1957.03 455.482 1957.26 455.428L1957.4 455.395C1961.77 453.526 1964.56 452.398 1965.77 452.011L1966.46 450.977C1967.66 450.977 1968.61 450.895 1969.29 450.731C1969.98 450.567 1971.87 449.63 1974.98 447.919C1978.66 446.987 1980.57 446.482 1980.69 446.404C1981.01 446.134 1981.35 445.426 1981.7 444.281L1983.64 443.31C1983.49 442.911 1983.38 442.552 1983.31 442.233C1983.23 441.914 1983.2 441.607 1983.23 441.311L1983.35 439.692C1983.34 439.647 1983.03 439.263 1982.42 438.541C1982.08 438.14 1981.78 437.37 1981.5 436.23L1981.39 435.752C1981.04 433.906 1980.86 432.961 1980.85 432.916C1980.74 432.653 1980.36 432.166 1979.71 431.455C1979.25 431.565 1978.94 431.59 1978.78 431.532C1978.42 431.426 1977.77 430.812 1976.82 429.689L1978.11 428.729C1978.06 427.921 1978.08 427.313 1978.18 426.905L1978.34 426.36L1971.53 423.005L1973.14 421.878C1973.19 421.988 1973.24 422.102 1973.29 422.22C1974.28 421.502 1974.81 421.012 1974.89 420.751C1974.94 420.71 1974.98 420.649 1975.02 420.567L1976.73 419.37C1976.3 418.991 1975.88 418.828 1975.46 418.881C1975.32 419.708 1975.17 420.27 1975.02 420.567L1973.14 421.878C1972.71 420.889 1972.45 420.21 1972.36 419.841C1972.26 419.431 1972.34 418.232 1972.58 416.245L1974.16 415.867C1974.06 414.877 1974.01 413.973 1974.01 413.154C1973.96 411.335 1973.85 409.986 1973.69 409.109C1973.05 406.034 1972.63 404.085 1972.43 403.265C1972.04 401.624 1971.5 399.971 1970.81 398.304C1970.65 397.859 1970.55 397.523 1970.49 397.295C1970.47 397.204 1970.32 395.889 1970.05 393.351L1970.02 393.215C1969.92 392.804 1969.23 391.957 1967.96 390.671C1966.56 391.25 1965.11 391.861 1963.63 392.507L1963.56 392.523L1960.88 392.805C1960.7 392.849 1960.08 393.07 1959.02 393.47C1958.66 393.603 1958.33 393.708 1958.01 393.784C1957.19 393.981 1955.82 394.116 1953.91 394.189C1953.16 395.285 1952.47 395.91 1951.83 396.063C1951.6 396.118 1951.44 396.133 1951.33 396.11L1947.48 395.732C1947.19 395.707 1946.24 395.886 1944.65 396.269C1943.42 396.564 1942.74 396.751 1942.61 396.829C1942.11 397.143 1941.55 397.712 1940.93 398.536C1939.78 399.969 1939.28 401.028 1939.45 401.711C1939.61 402.395 1940.06 402.649 1940.79 402.474C1941.2 402.376 1941.6 402.061 1942.01 401.531C1943.12 401.552 1943.79 401.536 1944.02 401.481C1948.35 400.442 1950.7 399.804 1951.08 399.569C1952.14 398.977 1952.7 398.675 1952.74 398.664L1952.81 398.647L1954 399.085C1954.57 398.851 1955.08 398.68 1955.54 398.571C1955.95 398.472 1956.39 398.51 1956.87 398.685C1958.43 399.371 1959.65 400.837 1960.53 403.085L1961.69 402.806C1963.42 402.391 1965.12 402.418 1966.77 402.888C1966.98 402.935 1967.08 402.982 1967.1 403.028C1967.12 403.119 1967.07 403.203 1966.94 403.282L1963.11 406.009C1962.37 406.525 1962.17 407.512 1962.52 408.971L1962.68 409.654L1964.63 417.142C1965.82 419.893 1966.47 421.497 1966.58 421.953C1966.96 423.548 1967.07 424.919 1966.91 426.066L1966.88 426.509L1974.43 432.071L1969.53 436.647L1976.19 438.807L1970.84 441.826C1970.37 442.084 1970.23 442.599 1970.42 443.374C1970.45 443.511 1970.56 443.751 1970.74 444.094C1969.82 444.506 1968.17 445.434 1965.76 446.878L1962.38 448.125C1959.75 449.431 1958.16 450.149 1957.61 450.281C1957.07 450.412 1956.28 450.53 1955.24 450.634C1955.29 452.26 1954.89 453.177 1954.02 453.385C1953.84 453.429 1953.7 453.439 1953.59 453.415C1952.18 453.129 1951.35 453.013 1951.13 453.068C1950.9 453.123 1949.48 453.752 1946.88 454.955C1942.84 456.407 1940.78 457.167 1940.7 457.234C1940.39 457.549 1940.1 458.053 1939.83 458.744C1938.11 459.398 1936.84 459.824 1936.02 460.021C1935.61 460.12 1935.24 460.184 1934.91 460.215C1933.34 460.496 1932.39 460.675 1932.07 460.752C1931.75 460.828 1930.9 461.082 1929.51 461.512C1924.49 462.909 1921.82 463.646 1921.51 463.722C1921.19 463.799 1920.91 463.842 1920.67 463.851L1919.44 463.857C1919.39 463.868 1918.92 464.199 1918.02 464.849C1917.6 465.141 1917.06 465.369 1916.37 465.533C1914.18 466.059 1912.24 465.898 1910.54 465.052C1909.37 467.793 1908.24 469.294 1907.14 469.557C1907.01 469.59 1906.05 469.433 1904.28 469.087C1902.51 468.74 1901.22 468.473 1900.4 468.283C1897.62 467.552 1895.14 466.437 1892.95 464.939L1892.6 465.601L1891.75 464.791C1891.46 464.572 1890.87 464.448 1890 464.417C1888.86 464.304 1888.22 464.218 1888.06 464.16C1887.96 464.136 1887.48 463.864 1886.63 463.345C1886.35 463.172 1885.85 462.906 1885.14 462.546C1883.43 461.655 1882.07 460.824 1881.07 460.053C1879.94 459.167 1878.67 458.507 1877.27 458.073C1876.27 457.734 1875.68 457.37 1875.49 456.982L1874.33 454.583C1874.11 454.058 1873.35 453.181 1872.04 451.953C1871.69 451.699 1871.04 451.085 1870.08 450.11C1869.57 450.81 1869.07 451.22 1868.57 451.34C1868.06 451.461 1867.75 451.27 1867.63 450.769C1867.62 450.723 1867.53 449.153 1867.37 446.059L1867.27 445.939C1865.99 444.415 1865 442.314 1864.31 439.636L1862.14 439.649C1858.28 440.239 1856.33 440.419 1856.27 440.191L1856.67 440.024C1859.28 438.673 1861.38 437.567 1862.96 436.707C1862.8 436.262 1862.55 435.719 1862.2 435.079C1861.49 433.902 1860.95 432.851 1860.58 431.926L1859.26 432.46C1858.45 431.884 1857.96 431.277 1857.81 430.638C1857.57 429.636 1858.02 428.588 1859.15 427.496C1858.46 425.83 1858.07 424.791 1857.97 424.381C1857.84 423.834 1857.6 422.109 1857.24 419.207L1857.2 419.07C1857.05 418.432 1856.11 417.838 1854.39 417.287C1854.42 416.412 1855.08 415.651 1856.37 415.003C1856.08 413 1856.05 411.368 1856.28 410.108C1856.67 407.895 1856.79 406.492 1856.64 405.899C1856.38 404.805 1855.99 403.574 1855.47 402.204C1855.93 401.322 1856.17 400.83 1856.2 400.728C1856.26 400.569 1856.63 398.094 1857.31 393.302C1857.7 391.908 1857.9 391.159 1857.93 391.057C1857.94 390.909 1857.88 390.465 1857.75 389.725L1856.91 389.854L1856.94 389.052L1857.57 388.973L1857.76 389.145C1858.13 388.478 1858.37 387.673 1858.48 386.73L1860.07 386.131C1860.7 384.534 1861.29 382.8 1861.86 380.93C1862.45 379.196 1863.09 377.621 1863.76 376.206C1864.51 374.292 1864.93 373.25 1865.03 373.08C1865.36 372.617 1865.91 371.906 1866.69 370.947L1865.91 369.183L1867.75 369.32C1868.89 367.841 1869.54 366.767 1869.72 366.098C1869.94 365.418 1870.12 365.061 1870.26 365.029C1870.95 364.671 1871.42 364.34 1871.69 364.036C1872.58 362.953 1873.14 362.264 1873.36 361.971C1873.91 361.26 1874.21 360.08 1874.24 358.432C1874.64 358.288 1874.93 358.194 1875.12 358.15C1875.66 358.019 1876.47 357.97 1877.54 358.002C1877.91 356.948 1878.2 356.326 1878.39 356.134L1881.49 353.077C1883.09 351.295 1884.38 350.045 1885.36 349.327C1887.13 348.036 1888.89 346.842 1890.65 345.744C1890.93 345.485 1891.01 344.934 1890.9 344.092C1893.04 343.532 1894.28 343.112 1894.65 342.831C1896.35 341.266 1897.45 340.424 1897.95 340.304C1898.36 340.205 1899.37 340.3 1900.98 340.588L1905.2 337.984C1906.7 337.816 1907.48 337.727 1907.52 337.716C1908.12 337.574 1908.59 337.243 1908.95 336.723L1910.84 333.449L1913.53 335.043L1916.9 334.887L1917.73 335.049C1917.88 335.061 1918.2 334.695 1918.69 333.949C1918.83 333.723 1919.02 333.583 1919.24 333.528C1919.75 333.408 1920.98 333.641 1922.96 334.228L1927.43 333.587L1930.7 333.959C1932.95 333.901 1934.37 333.8 1934.97 333.658C1935.47 333.538 1936.33 332.704 1937.55 331.158C1938.1 330.447 1938.72 329.793 1939.39 329.197C1940.27 328.455 1940.79 327.994 1940.94 327.813C1941.25 327.498 1941.4 327.027 1941.4 326.402C1940.48 325.802 1939.82 325.552 1939.41 325.65C1939.13 325.716 1938.74 326.076 1938.22 326.73L1937.88 326.812L1936.76 326.069C1935.26 326.43 1933.46 326.595 1931.38 326.564C1927.47 327.312 1925.44 327.702 1925.3 327.735C1922.78 328.291 1921.19 328.578 1920.52 328.594L1920.45 328.611C1920.09 328.698 1919.43 329.869 1918.47 332.122C1914.19 330.934 1911.95 330.361 1911.77 330.405C1911.63 330.438 1911.46 330.527 1911.26 330.673C1909.76 331.66 1908.99 332.158 1908.94 332.169L1906.43 332.845L1905.08 333.242L1903.14 333.923L1901.56 334.88C1898.57 336.273 1895.82 337.68 1893.32 339.101C1892.36 339.717 1891.03 340.279 1889.32 340.786L1887.51 342.014L1883.74 344.366L1881.5 346.204C1879.86 347.371 1878.52 348.439 1877.5 349.407C1877.61 350.442 1877.59 350.999 1877.47 351.078C1877.44 351.373 1876.97 351.897 1876.04 352.65C1875.49 352.588 1874.68 352.228 1873.61 351.57C1872.84 352.382 1871.62 353.928 1869.95 356.209L1865.15 361.195L1864.3 362.773L1862.87 364.346L1861.55 366.397C1860 368.167 1858.67 369.98 1857.58 371.834C1857.16 372.512 1856.23 373.964 1854.79 376.191L1856.01 379.152C1855.46 379.67 1855.02 379.967 1854.7 380.044C1854.29 380.143 1853.66 380.029 1852.81 379.702C1852.2 380.572 1851.83 381.143 1851.71 381.414L1850.63 384.781L1848.7 388.788L1847.98 390.913C1846.28 396.047 1845.53 399.047 1845.73 399.913C1845.93 400.734 1846.78 400.963 1848.29 400.602L1848.38 403.11L1845.37 403.832C1845.09 405.444 1844.9 406.693 1844.83 407.579C1844.81 407.727 1844.82 409.967 1844.85 414.299L1844.69 416.361C1845.11 419.298 1845.34 421.267 1845.39 422.268L1847.17 421.841C1847.67 422.733 1848.27 424.034 1848.97 425.746ZM2006.58 447.635C2005.99 448.357 2005.55 449.064 2005.29 449.755C2006.71 449.848 2008.39 449.829 2010.33 449.7C2011.6 449.734 2012.41 449.708 2012.77 449.62C2014.05 449.314 2015.16 448.636 2016.12 447.588C2017.69 447.5 2019 447.331 2020.05 447.079C2021.87 446.641 2023.36 445.632 2024.52 444.051C2025.47 443.969 2026.33 444.051 2027.11 444.297C2027.44 444.459 2028.09 444.665 2029.07 444.912L2029.14 443.378L2032.01 442.689L2031.37 443.348C2032.08 443.275 2033.94 442.923 2036.97 442.292L2038.73 442.087L2040.41 441.829L2042.2 441.761L2048.65 437.319C2048.7 437.308 2049.64 437.806 2051.47 438.812C2052.53 439.425 2053.56 439.61 2054.57 439.37C2054.61 439.359 2055.42 439.02 2057 438.352L2061.66 437.884C2068.6 435.687 2072.26 434.544 2072.62 434.457L2072.83 434.407C2075.15 433.849 2076.73 433.591 2077.56 433.633L2078.15 433.707L2086.51 428.157L2091.61 430.405L2092.03 428.857L2093.67 428.463C2094.08 427.546 2094.65 426.517 2095.39 425.375L2096.94 421.314L2097.69 419.616C2097.88 419.185 2097.83 418.281 2097.55 416.903L2097.19 416.916C2096.51 417.08 2094.91 418.14 2092.39 420.095C2091.94 420.443 2090.99 421.008 2089.54 421.79C2089.89 423.249 2089.98 424.313 2089.8 424.982C2089.45 426.32 2088.95 427.066 2088.31 427.219C2088.22 427.241 2088.15 427.235 2088.09 427.2C2086.44 425.331 2085.54 424.413 2085.4 424.446C2085.08 424.523 2084.63 424.752 2084.05 425.133C2083.73 425.403 2083.07 425.681 2082.08 425.967C2079.71 426.729 2077.5 427.573 2075.46 428.497L2072.17 429.575C2070.79 430.244 2069.8 430.65 2069.21 430.792C2068.71 430.913 2068.16 431.021 2067.55 431.118C2065.87 431.329 2064.71 431.512 2064.07 431.665C2063.93 431.698 2062.81 432.159 2060.71 433.049C2058.93 433.044 2057.85 433.085 2057.49 433.172C2057.26 433.227 2057.02 433.31 2056.75 433.421C2055.18 434.089 2054.37 434.428 2054.32 434.439L2052.33 434.267L2050.43 434.505L2047.94 434.669L2042.92 438.766L2040 436.215L2035.96 437.183L2031.14 437.257L2028.41 437.624C2027.19 437.579 2026.42 437.594 2026.1 437.671C2025.78 437.747 2025.4 437.863 2024.96 438.018C2024.24 437.659 2023.48 437.481 2022.66 437.485C2021.59 437.452 2020.94 436.957 2020.71 436L2018.27 425.233C2018.23 425.051 2017.82 424.354 2017.05 423.141L2015.52 423.724C2015.42 422.882 2015.33 421.795 2015.25 420.464C2015.11 419.678 2015.05 419.234 2015.07 419.132L2015.51 417.942L2014.84 414.27C2014.79 411.052 2014.7 409.169 2014.57 408.622L2014.28 407.392L2013.95 406.314L2011.34 396.671L2011.37 395.87C2010.13 395.153 2009.26 394.111 2008.74 392.741L2009.93 391.371L2010.06 391.628C2010.12 391.276 2010.12 390.986 2010.07 390.759C2009.99 390.44 2009.88 390.08 2009.74 389.681C2009.41 388.507 2009.09 387.305 2008.8 386.074L2008.4 384.433C2008.19 383.135 2007.59 380.554 2006.62 376.691C2006.46 376.053 2006.39 375.66 2006.41 375.512L2006.39 375.444L2006.19 374.913C2006.25 373.356 2006.28 372.555 2006.26 372.509C2006.08 371.734 2005.49 370.791 2004.5 369.679C2004.2 369.414 2003.67 368.841 2002.93 367.959C2004.15 366.799 2004.65 365.763 2004.43 364.852C2003.85 362.436 2002.92 360.876 2001.64 360.17L2002.62 359.719C2002.68 359.174 2002.7 358.782 2002.69 358.543L2002.73 358.39C2002.59 357.797 2001.79 357.386 2000.34 357.156C1998.78 356.903 1997.9 356.633 1997.68 356.347L1994.9 347.47L1993.3 345.033L1995.66 340.707L1995.4 335.997C1996.56 334.178 1997.32 332.644 1997.7 331.397L1997.46 331.31L1996.77 331.474L1995.32 329.942L1993.68 330.626L1991.62 328.663C1992.45 327.932 1992.82 327.145 1992.71 326.302L1992.92 325.963C1993.44 325.934 1993.84 325.887 1994.12 325.821C1994.43 325.744 1994.89 325.538 1995.49 325.203L1995.37 324.724L1995.17 324.773C1994.69 323.2 1994.33 322.009 1994.09 321.199C1993.8 320.401 1993.6 319.751 1993.48 319.249C1993.34 318.657 1993.46 317.879 1993.86 316.916L1993.04 315.306L1992.54 313.255C1992.34 312.389 1991.73 312.076 1990.73 312.317C1989.54 312.601 1987.91 313.524 1985.83 315.085L1985.09 315.623L1984.26 316.98L1983.1 317.907L1982.07 318.733C1981 319.087 1979.98 319.669 1979.02 320.478C1978.75 320.737 1978.17 321.238 1977.29 321.98L1978.46 323.867L1979.76 323.845C1980.65 324.547 1981.19 325.188 1981.38 325.77C1981.52 326.169 1981.82 327.013 1982.27 328.302L1982.98 330.952C1983.04 331.18 1983.48 331.605 1984.3 332.227L1984.5 333.047C1984.61 333.503 1985.12 334.224 1986.03 335.21C1986.24 336.27 1986.33 336.85 1986.3 336.952C1986.31 336.998 1986.19 337.099 1985.94 337.256L1987.37 343.204L1988.4 343.896C1988.38 345.59 1988.48 346.938 1988.72 347.941L1988.95 348.898C1989.19 349.662 1989.37 350.317 1989.5 350.864L1990.19 353.736L1991.84 359.123L1991.86 359.192C1992.11 361.059 1992.25 362.038 1992.28 362.129C1992.5 363.086 1992.94 363.488 1993.58 363.335C1994.08 363.214 1994.6 362.873 1995.14 362.309L1995.05 364.355L1996.79 364.661L1996.8 365.599C1996.28 365.867 1996.04 366.047 1996.06 366.138L1995.46 367.582C1995.27 368.16 1995.21 368.751 1995.31 369.354L1995.43 369.833L1996.59 369.844L1996.57 371.003L1995.34 371.299C1995.18 371.82 1995.12 372.172 1995.16 372.354C1995.21 372.537 1995.38 372.856 1995.68 373.314C1995.86 373.657 1996.01 374.079 1996.13 374.58C1996.22 374.945 1996.33 375.497 1996.46 376.238L1996.97 378.357C1997.31 379.77 1997.49 380.738 1997.52 381.261C1997.5 381.989 1997.52 382.489 1997.59 382.763C1997.74 383.401 1998.6 383.653 2000.16 383.52C1999.91 384.882 1999.92 386.133 2000.19 387.272L1999.23 387.502C1999.4 388.379 1999.45 389.403 1999.39 390.573C2000.28 392.48 2000.76 393.548 2000.81 393.776L2001.92 399.874L2002.88 402.97C2002.94 403.244 2002.95 403.966 2002.89 405.136L2003.57 405.552L2005.44 404.597L2005.88 406.443C2007.2 407.138 2007.91 407.667 2008 408.032C2008.04 408.214 2008.03 408.459 2007.95 408.765L2007.77 408.883L2006.55 408.956L2005.97 409.531C2005.2 410.149 2004.91 410.823 2005.08 411.552L2005.57 413.603L2005.61 413.74C2005.77 414.423 2005.71 415.691 2005.43 417.541L2005.77 419.557L2006.13 421.931L2013.22 426.158L2008.24 431.33L2014.31 431.319C2013.13 433.047 2012.42 434.302 2012.18 435.085C2011.07 437.519 2010.02 439.942 2009 442.354C2008.8 442.693 2008.72 442.977 2008.77 443.205C2008.86 443.569 2009 443.946 2009.19 444.334C2007.98 445.926 2007.11 447.026 2006.58 447.635ZM2096.41 372.995C2096.75 374.84 2096.95 376.36 2097 377.554C2098.12 378.008 2098.78 378.668 2098.99 379.534C2099.19 380.354 2099.17 381.082 2098.94 381.716L2098.41 383.144C2098.39 383.246 2098.46 383.855 2098.63 384.971C2099.2 388.739 2099.52 390.783 2099.6 391.102C2099.7 391.512 2100.15 392.511 2100.97 394.099L2101.96 397.042C2102.1 397.396 2102.7 397.998 2103.77 398.849C2103.25 399.504 2103.06 400.105 2103.19 400.652C2103.28 401.016 2103.69 401.617 2104.42 402.454L2105.01 403.687C2105.17 403.984 2105.76 404.325 2106.77 404.71L2107.81 406.92L2109.58 406.493L2109.76 406.307L2110.6 406.826L2112.72 406.318L2112.88 406.063L2113.22 406.271C2113.28 407.124 2113.15 408.288 2112.83 409.764C2111.99 409.29 2111.18 409.123 2110.39 409.263C2110.26 409.728 2110.23 410.097 2110.3 410.371C2110.34 410.553 2110.81 410.995 2111.7 411.697C2112.3 412.18 2112.75 412.673 2113.07 413.177C2114.37 415.178 2115.09 416.259 2115.22 416.42C2115.47 416.65 2116.74 417.213 2119.03 418.11C2122.03 420.184 2123.58 421.234 2123.69 421.257C2126 422.052 2127.75 422.739 2128.95 423.319C2129.64 422.575 2130.17 422.159 2130.53 422.072C2130.9 421.984 2131.33 421.954 2131.81 421.981L2131.56 423.633C2135.47 424.045 2138.55 424.125 2140.8 423.873L2141.59 421.732C2143.11 421.462 2144.32 421.581 2145.22 422.09C2145.1 419.61 2145.26 418.367 2145.7 418.359L2150.91 420.796C2153.72 419.06 2155.29 418.154 2155.61 418.077C2156.02 417.978 2156.53 417.926 2157.16 417.921C2157.33 417.013 2157.57 416.424 2157.89 416.154C2158 415.985 2158.92 415.232 2160.68 413.895C2161.73 414.462 2162.44 414.702 2162.8 414.614C2163.94 414.341 2165.19 413.437 2166.56 411.904C2168.07 410.337 2169.77 409.086 2171.66 408.148L2170.86 406.316L2172.02 406.037C2172.8 405.851 2174.34 404.757 2176.66 402.755L2182.34 398.425C2185.19 395.621 2186.65 394.185 2186.73 394.117C2187.26 393.702 2188.07 393.169 2189.17 392.52C2189.41 391.499 2189.59 390.972 2189.73 390.939C2189.91 390.702 2190.45 390.309 2191.33 389.761C2192.36 388.838 2194.07 387.342 2196.47 385.272L2199.4 381.531C2199.44 381.474 2200.66 380.531 2203.06 378.7C2203.46 378.363 2205.17 376.724 2208.17 373.785C2208.4 373.537 2208.91 373.053 2209.7 372.333C2210.17 372.655 2210.46 372.971 2210.58 373.279C2210.83 373.895 2211.38 375.304 2212.25 377.507L2212.65 380.086L2213.24 383.127C2213.27 385.094 2213.35 386.328 2213.47 386.83C2213.66 387.605 2213.8 388.078 2213.89 388.249C2215.19 390.876 2215.97 392.714 2216.22 393.762C2216.47 394.811 2216.57 395.801 2216.5 396.732C2216.39 398.494 2216.4 399.602 2216.5 400.058C2216.52 400.104 2216.58 400.28 2216.7 400.589C2217.47 400.55 2218.1 400.471 2218.6 400.351C2219.19 400.208 2219.69 399.968 2220.09 399.631L2224.37 395.783L2226.55 394.03L2227.99 391.587C2228.19 391.203 2228.83 390.64 2229.9 389.9L2228.54 386.033L2227.31 386.038C2226.81 385.34 2226.39 384.523 2226.07 383.588C2225.33 382.08 2224.8 380.904 2224.5 380.06C2224.43 379.741 2224.2 379.097 2223.82 378.127L2223 378.034L2222.23 376.628C2221.06 376.379 2219.95 375.97 2218.9 375.403L2218.85 375.198C2219.7 374.706 2220.76 373.607 2222.04 371.902C2221.57 370.761 2221.15 369.416 2220.78 367.866L2220.66 367.387L2220.72 365.205C2220.54 364.476 2220.09 364.102 2219.37 364.084C2218.01 364.071 2217.2 364.001 2216.93 363.873C2216.16 363.48 2215.65 362.781 2215.41 361.779C2215.21 360.913 2215.81 360.02 2217.23 359.101C2217.14 357.531 2217.05 356.564 2216.97 356.199L2216.95 356.131C2215.36 350.295 2214.5 347.126 2214.38 346.625C2214.07 345.349 2213.87 344.193 2213.76 343.157C2213.74 342.441 2213.67 341.877 2213.57 341.467C2213.53 341.285 2213.47 341.131 2213.39 341.005C2212.94 340.341 2212.69 339.873 2212.62 339.599C2212.48 339.2 2211.94 337.063 2211.01 333.189C2210.92 332.824 2210.76 331.97 2210.54 330.626C2210.52 330.342 2210.48 330.086 2210.43 329.858C2210.34 329.493 2210.18 329.219 2209.94 329.035C2209.12 328.22 2208.62 327.448 2208.44 326.718C2207.68 323.528 2207.29 320.995 2207.27 319.118L2206.18 315.476C2204.74 310.085 2203.82 306.858 2203.42 305.797L2201.93 305.937L2201.99 304.044L2201.41 303.749C2200.54 304.15 2199.86 304.411 2199.36 304.531L2199.08 304.597C2198.91 304.3 2198.8 304.037 2198.75 303.809C2198.62 303.262 2198.78 302.741 2199.24 302.245C2200.24 301.186 2200.76 300.628 2200.79 300.571C2200.81 300.469 2200.84 299.764 2200.86 298.457C2200.89 297.582 2200.89 297.053 2200.84 296.871C2200.79 296.643 2200.67 296.454 2200.49 296.305C2199.62 295.501 2199.13 294.871 2199.02 294.415C2198.94 294.051 2198.91 293.721 2198.93 293.425C2198.97 291.391 2198.94 290.049 2198.83 289.4C2198.38 287.099 2198.06 285.584 2197.89 284.854C2197.82 284.581 2197.74 284.336 2197.64 284.119C2196.88 282.372 2196.37 280.952 2196.11 279.858C2195.75 278.354 2195.52 277.226 2195.44 276.475C2194.91 271.445 2194.64 268.907 2194.62 268.861C2194.48 268.269 2193.95 267.576 2193.04 266.783C2191.64 267.361 2190.7 267.779 2190.23 268.036C2189.46 268.415 2189.03 268.638 2188.95 268.706C2188.87 268.773 2187.1 270.547 2183.64 274.028C2182.12 275.31 2181.33 276.03 2181.27 276.189C2181.08 276.619 2181.03 276.994 2181.11 277.313C2181.21 277.723 2181.71 278.131 2182.63 278.538C2182.96 278.7 2183.55 279.041 2184.39 279.561C2184.45 281.38 2184.51 282.45 2184.59 282.769L2186.95 288.998L2188.01 292.794L2189.11 294.698L2189.91 298.917L2196.05 298.89L2191.1 302.391L2191.12 302.459C2191.22 303.062 2191.63 303.589 2192.37 304.04L2194.78 305.341C2195 305.48 2195.17 305.777 2195.28 306.233C2195.42 306.825 2195.06 307.635 2194.2 308.661C2194.26 310.527 2194.51 312.371 2194.95 314.194C2195.09 314.786 2195.69 316.378 2196.75 318.969C2197.38 320.601 2197.9 322.282 2198.32 324.014C2198.77 325.883 2198.84 327.675 2198.53 329.388L2201.66 329.793C2201.84 330.761 2201.82 331.682 2201.6 332.555C2201.35 333.531 2201.26 334.155 2201.33 334.429C2201.47 335.021 2201.75 335.677 2202.16 336.398L2202.96 336.422L2203.29 337.789C2204.23 338.287 2204.73 338.65 2204.78 338.878C2204.89 339.334 2204.29 340.056 2202.99 341.044C2203.31 342.605 2203.79 344.707 2204.43 347.35L2205.43 353.039C2205.48 353.221 2205.66 353.78 2205.98 354.715C2206.29 355.798 2206.48 356.499 2206.56 356.818L2206.66 357.228L2207.04 360.029L2207.06 360.097L2207.9 361.487C2207.51 362.302 2206.78 363.682 2205.71 365.627C2204.92 368.178 2204.37 369.588 2204.05 369.858L2201.92 371.237C2201.26 371.685 2200.06 373.323 2198.33 376.149C2198 376.612 2197.51 376.971 2196.85 377.226L2197.34 379.277C2196.67 379.294 2196.11 379.357 2195.65 379.466C2194.38 379.773 2193.66 380.909 2193.51 382.874C2192.34 384.023 2191.61 384.727 2191.34 384.985C2191.02 385.255 2190.11 385.787 2188.61 386.58L2186.34 388.861L2184.52 390.311C2184.31 390.457 2184.12 391.057 2183.94 392.113L2181.74 393.798L2180.52 393.224C2179.6 394.022 2178.39 395.324 2176.9 397.129L2174.67 398.677C2174.43 398.88 2174.03 399.456 2173.49 400.406L2172.6 400.619C2171.33 400.926 2170.54 401.862 2170.24 403.428L2167.67 403.251C2166.88 404.403 2165.88 405.343 2164.66 406.07L2164.41 407.142C2163.47 407.657 2162.14 408.457 2160.43 409.544L2158.97 410.4L2156.75 412.016L2155.73 411.973L2153.17 412.443C2152.14 412.593 2151.54 412.69 2151.36 412.733C2150.81 412.865 2150.34 413.025 2149.96 413.215C2147.89 414.241 2146.63 414.81 2146.17 414.919C2145.58 415.061 2144.86 415.162 2144 415.223L2142.99 413.73C2142.09 414.187 2141.46 414.46 2141.09 414.547C2139.95 414.821 2138.75 414.821 2137.48 414.548C2137.02 414.464 2136.22 414.03 2135.07 413.246C2132.44 412.528 2130.37 411.747 2128.86 410.903C2126.69 409.689 2124.59 407.543 2122.55 404.465L2120.89 404.501L2119.71 403.194C2118.92 403.334 2118.22 403.311 2117.6 403.123C2117.49 401.462 2117.36 400.312 2117.2 399.674C2117.07 399.127 2116.89 398.665 2116.65 398.288L2114.45 394.549C2113.66 393.246 2113.03 391.637 2112.57 389.723C2112.39 388.948 2112.26 388.327 2112.2 387.86C2112.16 387.291 2112.11 386.893 2112.05 386.665C2111.97 386.3 2111.67 385.746 2111.15 385.002L2109.51 385.396L2108.66 384.877C2108.55 383.023 2108.48 382.004 2108.43 381.822C2108.37 381.549 2108.2 381.132 2107.92 380.572L2108.55 379.913C2108.56 378.515 2108.47 377.474 2108.31 376.79C2108.28 376.653 2108.18 376.34 2108.01 375.849C2107.79 375.131 2107.58 374.361 2107.39 373.541L2107.37 373.473C2107.31 373.245 2107.27 372.869 2107.24 372.346C2107.08 368.24 2106.92 365.771 2106.77 364.94C2106.51 363.653 2106.3 362.11 2106.16 360.313C2105.78 358.717 2105.6 357.869 2105.62 357.767C2105.62 357.334 2105.72 356.875 2105.94 356.388C2106.31 355.528 2106.45 354.892 2106.35 354.482L2106.19 353.798C2105.3 353.528 2104.85 353.325 2104.81 353.188C2104.54 353.061 2104.21 352.467 2103.81 351.405L2105.11 351.094C2105.53 350.268 2105.82 348.633 2105.95 346.19L2106.71 332.776L2108.38 329.193C2107.9 328.586 2107.62 328.145 2107.56 327.872C2107.51 327.69 2107.54 326.814 2107.65 325.246C2107.69 324.997 2107.68 324.468 2107.63 323.66L2107.21 323.4L2105.76 324.615C2105.01 323.88 2104.45 322.954 2104.08 321.836L2105.66 320.589L2106.06 318.615L2106.26 318.565C2106.92 318.89 2107.43 319.008 2107.79 318.921L2108 318.871C2108.32 317.783 2108.51 316.676 2108.58 315.551C2108.66 314.085 2108.8 313.183 2109.01 312.844C2110.09 310.705 2110.67 309.505 2110.75 309.245C2111.05 308.304 2111.13 307.514 2110.98 306.876C2110.85 306.329 2110.25 306.039 2109.18 306.007C2110.27 305.551 2110.87 305.141 2110.98 304.779L2111.13 303.006L2113.63 294.742C2114.66 290.783 2114.93 288.188 2114.44 286.955C2113.93 286.837 2113.54 286.811 2113.26 286.876C2111.71 287.248 2109.3 288.647 2106.03 291.072C2103.14 293.114 2100.68 295.393 2098.63 297.91L2099.47 299.009C2099.79 299.319 2100.27 299.42 2100.92 299.312C2101.71 299.218 2102.28 299.177 2102.62 299.192L2102.38 299.684C2102.54 300.129 2102.66 300.534 2102.74 300.899C2102.82 301.218 2102.75 301.837 2102.54 302.755L2102.37 304.749L2100.85 311.693L2100.3 314.792L2099.43 318.109L2099.21 319.608L2098.99 321.107C2098.66 325.14 2098.36 327.598 2098.09 328.482C2097.89 329.06 2097.71 329.61 2097.54 330.132L2097.4 334.36L2096.83 337.1C2098.19 339.375 2098.9 340.604 2098.94 340.786C2099.09 341.379 2099.13 342.164 2099.07 343.141L2096.93 343.223C2096.77 344.177 2096.41 345.396 2095.85 346.88L2095.83 348.619C2095.43 350.548 2095.28 351.718 2095.38 352.128C2095.52 352.721 2095.72 353.371 2095.99 354.078C2095.42 355.517 2095.14 356.281 2095.16 356.373C2095.22 356.6 2097.36 356.689 2101.59 356.637C2101.02 357.064 2100.44 357.781 2099.87 358.787C2099.31 359.885 2097.95 361.464 2095.8 363.524C2097 364.104 2098.14 364.865 2099.24 365.807L2098.87 366.401L2097.64 366.696L2097.7 368.419C2096.59 370.035 2096.16 371.56 2096.41 372.995ZM2225.37 264.084L2224.07 264.396C2223.68 265.211 2223.57 266.25 2223.73 267.514C2224.37 267.554 2225 267.497 2225.64 267.344L2226.87 267.048L2227.26 267.171L2227.35 267.513L2229.61 266.682L2230.36 269.827C2231 270.06 2231.37 270.211 2231.48 270.281C2231.56 270.406 2232.04 271.713 2232.93 274.2C2233.8 276.641 2234.37 278.386 2234.62 279.434L2236.65 287.912C2236.86 288.778 2237.6 289.541 2238.87 290.201C2238.29 291.207 2238.09 292.075 2238.26 292.804C2238.42 293.442 2238.66 294.155 2238.99 294.943C2239.21 294.843 2239.39 294.776 2239.52 294.743C2239.98 294.634 2240.38 294.802 2240.73 295.249C2240.23 296.188 2240.04 296.908 2240.16 297.41C2240.21 297.592 2240.29 297.837 2240.41 298.145C2240.51 298.362 2240.83 299.371 2241.36 301.173C2241.47 301.628 2241.79 302.587 2242.34 304.047C2242.64 304.118 2242.97 304.28 2243.32 304.534C2243.94 304.915 2244.54 305.182 2245.1 305.335C2245.07 306.596 2245.21 307.865 2245.51 309.142L2244.08 310.424L2248.79 311.031L2245.04 313.81L2252.2 319.539L2247.7 324.886L2250 330.842C2250.03 331.991 2250.18 333.112 2250.44 334.206C2251.15 334.52 2251.71 335.059 2252.13 335.825L2253.73 336.164L2253.95 337.053L2251.94 338.62C2255.66 338.643 2257.58 338.832 2257.71 339.186L2257.41 339.404C2255.78 340.663 2254.94 341.468 2254.88 341.82L2254.6 345.791L2253.57 348.134L2253.59 348.203L2254.36 351.126L2254.77 352.835C2255.44 353.399 2255.94 353.978 2256.27 354.572L2256.82 354.441L2257.3 352.518C2257.27 353.007 2257.33 353.763 2257.48 354.788C2257.63 355.38 2257.52 355.84 2257.16 356.166C2256.67 356.719 2256.4 357.194 2256.35 357.591C2256.32 359.865 2256.41 361.577 2256.64 362.727C2257.51 366.328 2258.15 369.5 2258.56 372.244C2258.57 372.483 2258.6 372.694 2258.64 372.876C2258.69 373.058 2258.95 373.55 2259.43 374.35C2259.44 374.396 2259.23 374.928 2258.8 375.947C2258.7 376.117 2258.65 376.224 2258.66 376.27L2259.65 380.082C2259.01 383.226 2258.55 385.046 2258.29 385.544C2257.94 386.109 2257.49 386.457 2256.95 386.589C2256.86 386.611 2256.69 386.626 2256.45 386.635C2256.28 387.543 2256.26 388.248 2256.38 388.749C2256.46 389.068 2256.57 389.45 2256.73 389.895C2257.84 389.917 2258.63 389.873 2259.08 389.764C2259.36 389.698 2261 388.918 2264.02 387.422L2267.61 386.416C2270.15 385.371 2271.56 384.815 2271.83 384.75C2272.15 384.673 2272.39 384.641 2272.53 384.654C2274.47 384.672 2275.59 384.643 2275.91 384.566C2276.78 384.358 2277.5 383.944 2278.07 383.324C2280.55 380.801 2281.97 379.495 2282.34 379.408C2282.79 379.298 2283.29 379.445 2283.82 379.848C2285.52 381.126 2286.42 381.754 2286.51 381.732L2286.63 381.631C2286.96 381.407 2287.54 381.196 2288.36 380.999C2289.36 380.758 2290.42 380.745 2291.53 380.961C2291.64 380.984 2291.73 380.985 2291.82 380.963L2291.96 380.93L2292.08 380.829L2292.35 380.764L2293.58 380.468L2293.35 378.573C2294.44 377.924 2295.56 377.462 2296.7 377.189L2296.5 378.466C2297.33 378.508 2297.86 378.501 2298.09 378.447L2302.13 377.188L2305 376.499L2312.14 374.639C2312.28 374.606 2312.87 374.56 2313.92 374.502L2314.73 373.077C2315.26 373.048 2315.7 372.989 2316.06 372.902C2316.11 372.891 2316.51 372.747 2317.26 372.47C2321.34 372.167 2323.39 372.01 2323.44 371.999C2323.9 371.889 2324.76 371.585 2326.04 371.085C2326.89 370.786 2327.99 370.472 2329.36 370.144C2331.64 369.597 2333.08 369.298 2333.7 369.247C2336.84 369.072 2338.52 368.957 2338.75 368.902C2339.43 368.738 2340.29 368.172 2341.31 367.203L2342.43 367.657C2342.94 367.389 2343.24 367.244 2343.34 367.222L2347.18 366.661L2350.39 365.89L2352.95 365.709L2356.54 364.992L2359.41 364.883L2363.37 360.025L2367.84 362.352L2369.93 361.417C2373.45 360.62 2375.62 359.327 2376.44 357.539L2376.58 355.988C2376.57 355.749 2376.88 355.36 2377.53 354.82C2377.56 353.945 2377.68 353.048 2377.89 352.129C2378.09 351.164 2378.15 350.5 2378.06 350.135C2377.81 349.087 2377.32 348.65 2376.59 348.825C2376.27 348.902 2375.67 349.385 2374.77 350.275C2374.18 350.61 2371.98 351.693 2368.18 353.522C2367.35 353.719 2366.43 353.966 2365.39 354.263C2364.87 354.531 2364.36 354.896 2363.84 355.357C2363.57 355.616 2363.46 356.075 2363.52 356.735C2363.21 357.051 2362.69 357.37 2361.95 357.693C2361.54 357.791 2360.84 358.103 2359.86 358.628C2358.96 358.12 2358.27 357.926 2357.76 358.046C2357.17 358.188 2356.66 358.553 2356.22 359.14C2354.24 361.736 2353.18 363.051 2353.04 363.084C2352.86 363.128 2351.84 362.191 2349.98 360.275L2349.38 360.781L2349.29 361.019L2349.85 363.344L2347.79 363.478L2346.39 361.282C2345.25 361.556 2344.56 361.697 2344.33 361.706C2343.02 361.682 2342.32 361.682 2342.23 361.704C2342.05 361.747 2341.82 361.825 2341.56 361.936C2341.09 362.193 2340.83 362.304 2340.77 362.27L2339.8 362.431L2327.61 365.574L2326.52 365.837C2324.79 366.492 2323.91 366.824 2323.86 366.835C2323.73 366.868 2322.26 367.099 2319.47 367.528C2319.19 367.548 2318.93 367.585 2318.71 367.64C2318.43 367.706 2318.26 367.772 2318.18 367.84C2316.83 368.452 2316.09 368.775 2315.95 368.808C2315.9 368.819 2315.58 368.873 2314.98 368.969L2312.58 369.544L2309.97 370.099L2302.11 371.407L2301.77 371.489C2301.51 371.6 2301.26 371.973 2301.03 372.608L2298.95 375.419L2296.47 373.196L2296.29 373.382L2296.11 373.5C2295.22 374.628 2294.41 375.28 2293.68 375.455C2293.45 375.51 2293.29 375.525 2293.19 375.502C2291.5 375.088 2290.58 374.875 2290.43 374.862L2286.74 375.748L2284.3 376.118L2279.21 378.424L2276.2 379.146L2274.11 382.179C2273.19 381.772 2272.56 381.539 2272.21 381.479C2271.55 381.348 2271.15 381.179 2271 380.973C2270.55 380.503 2270.17 379.629 2269.87 378.353C2271.83 375.904 2272.6 373.768 2272.16 371.945L2270.39 366.369L2269.15 361.531C2268.44 360.353 2268.06 359.673 2268.01 359.491C2267.88 358.944 2267.91 357.779 2268.11 355.996C2267.39 355.591 2266.85 355.433 2266.48 355.52C2266.25 355.575 2265.91 355.873 2265.47 356.415L2265.06 356.513C2264.28 355.494 2263.79 354.574 2263.6 353.754L2265.77 351.642C2265.37 351.013 2265.13 350.516 2265.05 350.152C2265.04 350.106 2264.92 349.508 2264.69 348.358L2263.84 343.933L2263.82 342.347L2263.15 339.833L2262.93 337.717L2262.26 336.141L2261.49 333.508L2260.13 330.579C2260.05 330.453 2260.14 329.999 2260.38 329.217C2258.78 328.781 2257.88 328.131 2257.67 327.265C2257.56 326.809 2257.49 326.296 2257.45 325.728L2258.77 324.614L2258.46 323.315C2258.21 322.267 2257.97 321.577 2257.75 321.245C2256.67 319.575 2255.94 318.255 2255.57 317.285C2256.28 316.439 2256.55 315.674 2256.39 314.991C2256.08 313.714 2255.86 312.996 2255.73 312.836C2255.45 312.469 2254.8 312.071 2253.78 311.641L2253.3 312.045C2253.04 311.577 2252.88 311.229 2252.83 311.001C2252.71 310.499 2252.72 309.749 2252.87 308.75L2253.12 308.906L2254.2 308.285C2254.56 307.379 2254.73 306.761 2254.7 306.431L2253.37 302.701L2251.99 296.668L2251.22 294.682C2250.77 293.2 2250.15 291.904 2249.35 290.793C2250.76 290.454 2252.22 290.007 2253.73 289.453L2256.36 288.676L2257.96 287.787L2260.02 287.363L2262.47 286.704L2264.63 286.69L2270.82 285.059L2275.86 284.646L2280.69 282.764L2282.21 282.471L2285.11 281.919L2287.7 281.875C2290.18 280.943 2291.55 280.444 2291.83 280.379C2292.1 280.313 2293.36 280.154 2295.62 279.902C2297.53 279.25 2298.71 278.726 2299.15 278.332C2300.07 278.352 2300.78 278.399 2301.28 278.472C2301.48 278.519 2301.63 278.532 2301.72 278.51C2301.86 278.477 2301.94 278.432 2301.98 278.376C2303.03 275.76 2303.59 274.446 2303.63 274.435C2303.86 274.38 2305.07 275.102 2307.26 276.601C2307.95 277.062 2308.64 277.21 2309.32 277.046C2309.69 276.959 2310.42 276.613 2311.53 276.01C2311.89 275.103 2312.51 274.257 2313.38 273.469L2312.94 271.623C2313.96 270.655 2314.45 270.006 2314.42 269.676C2314.66 269.473 2314.65 268.609 2314.38 267.083C2313.62 267.121 2312.96 267.206 2312.41 267.337C2312 267.436 2311.32 268.009 2310.37 269.058C2309.76 269.734 2309.36 270.265 2309.16 270.65C2309 270.978 2308.7 271.867 2308.28 273.319L2304.51 270.248L2304.23 270.603C2304.03 270.988 2303.3 271.356 2302.04 271.708L2302.27 272.666C2301.25 272.861 2300.49 272.996 2299.98 273.071C2298.91 273.231 2298.17 273.361 2297.76 273.459C2297.58 273.503 2297.42 273.564 2297.3 273.642C2295.61 274.434 2293.09 275.28 2289.73 276.181C2287.57 276.797 2285.89 277.248 2284.71 277.532C2284.02 277.696 2283.44 277.861 2282.95 278.027C2280.97 278.646 2279.81 278.998 2279.44 279.086C2279.26 279.13 2279.09 279.145 2278.95 279.132C2277.13 279.184 2276.19 279.215 2276.15 279.226C2275.69 279.335 2274.81 279.668 2273.5 280.224C2272.94 280.503 2272.27 280.736 2271.49 280.922C2270.76 281.097 2270 281.232 2269.2 281.327C2267.27 281.502 2265.44 281.797 2263.7 282.213L2260.96 282.511L2257.71 283.146L2253 283.409C2250.44 283.783 2248.65 283.971 2247.64 283.973C2246.52 281.495 2245.92 280.119 2245.85 279.846C2245.77 279.481 2245.71 278.554 2245.69 277.065C2244.82 276.647 2244.15 276.351 2243.67 276.176C2243.08 275.932 2242.64 275.7 2242.35 275.481C2242.17 275.332 2242.04 275.12 2241.98 274.847C2241.91 274.574 2241.84 273.965 2241.76 273.02C2242.26 273.093 2242.57 273.113 2242.71 273.08C2243.35 272.927 2244 272.24 2244.67 271.018C2244.45 270.3 2244.18 269.353 2243.85 268.179C2243.47 266.823 2242.79 265.589 2241.8 264.477C2242.3 263.538 2242.71 263.03 2243.03 262.953L2245.33 262.906C2246.67 262.441 2247.54 262.16 2247.95 262.061L2249.25 261.749C2252.53 260.961 2254.52 260.605 2255.21 260.68C2256.33 260.747 2256.92 260.775 2256.96 260.764L2259.07 259.897L2266.89 258.453L2268.39 257.443L2271.98 256.726L2276.05 255.315L2277.58 255.091L2280.13 254.552L2285.24 253.832L2289.28 251.994L2292.08 251.321L2295.9 250.043C2298.2 249.781 2299.64 249.578 2300.23 249.436L2303.58 248.632L2304.06 248.517L2304.68 248.369C2306.14 248.644 2307.08 248.755 2307.51 248.703C2308.53 248.553 2309.65 248.382 2310.85 248.188L2310.99 248.155C2311.5 248.081 2312.18 247.484 2313.02 246.367C2313.78 245.316 2314.3 244.662 2314.57 244.403L2317.55 241.736L2318.1 240.735C2318.59 239.751 2318.76 238.865 2318.62 238.08C2317.09 238.111 2316.16 238.165 2315.84 238.241C2315.75 238.263 2314.76 238.646 2312.86 239.39L2309.08 240.804C2303.27 243.501 2300.2 244.888 2299.88 244.965C2299.52 245.052 2298.59 245.18 2297.08 245.348C2296.42 245.41 2295.82 245.506 2295.27 245.638C2294.73 245.769 2294.19 245.946 2293.66 246.168C2291.01 247.144 2288.21 248.033 2285.27 248.835L2284.54 250.312L2280.71 250.942L2279.97 250.253L2265.85 253.497C2265.38 253.561 2264.88 253.778 2264.34 254.148C2263.76 254.529 2263.42 254.731 2263.33 254.753L2260.14 254.723L2257.16 254.934C2254.68 254.66 2253.21 254.578 2252.76 254.688C2251.71 254.939 2250.64 255.606 2249.55 256.687L2248.06 256.827L2247.18 257.04C2246.66 257.115 2245.5 256.791 2243.69 256.069C2243.14 256.394 2242.66 256.606 2242.25 256.704C2241.43 256.901 2240.7 257.053 2240.05 257.161C2235.75 257.757 2233.43 258.1 2233.06 258.187C2232.65 258.286 2232.32 258.413 2232.07 258.57C2231.21 259.017 2230.69 259.262 2230.51 259.306C2230.15 259.393 2229.57 259.388 2228.77 259.29C2228.08 260.227 2227.44 260.982 2226.86 261.557C2226.24 262.188 2225.74 263.03 2225.37 264.084Z" fill="white"/>
</svg>
