<svg width="2579" height="1157" viewBox="0 0 2579 1157" fill="none" xmlns="http://www.w3.org/2000/svg">
<path d="M1379.34 511.735C1378.07 501.302 1385.06 491.649 1395.35 489.627L1574.31 454.47C1585.68 452.236 1596.54 460.14 1597.95 471.67L1614.56 608.097C1615.97 619.677 1607.25 630.022 1595.63 630.558L1413.41 638.963C1402.99 639.443 1393.96 631.795 1392.69 621.41L1379.34 511.735Z" fill="white"/>
<path d="M2388.47 279.621C2387.34 270.362 2392.74 261.541 2401.49 258.348L2424.87 249.812C2436.97 245.393 2450.01 253.441 2451.51 266.264L2490.54 598.879C2492.07 611.907 2480.9 622.883 2467.94 621.084L2444.61 617.846C2435.64 616.602 2428.64 609.468 2427.55 600.461L2388.47 279.621Z" fill="white"/>
<path fill-rule="evenodd" clip-rule="evenodd" d="M2366.68 289.33C2365.31 278.009 2354.79 270.139 2343.57 272.033L1630.38 392.439C1619.83 394.219 1612.55 404.005 1613.84 414.643L1643.79 660.545C1645.09 671.208 1654.55 678.933 1665.23 678.052L2385.85 618.614C2397.16 617.681 2405.43 607.495 2404.06 596.199L2366.68 289.33ZM1746.88 519.159C1747.14 519.999 1746.71 520.891 1745.91 521.238V521.238C1745.47 521.424 1745.12 521.773 1744.99 522.227C1744.88 522.619 1744.83 522.922 1744.86 523.135C1744.9 523.461 1745 523.921 1745.17 524.515C1745.46 525.331 1745.68 526.202 1745.84 527.128C1746.09 528.608 1746.3 529.814 1746.46 530.745C1746.72 532.311 1747.19 533.836 1747.66 535.355C1747.7 535.484 1747.72 535.573 1747.73 535.62C1747.73 535.662 1747.72 536.089 1747.71 536.901C1747.71 537.089 1747.71 537.276 1747.74 537.462V537.462C1747.88 538.627 1748.39 540.124 1749.27 541.954L1753.39 550.169L1753.67 550.815C1753.81 551.146 1754 551.455 1754.22 551.737C1754.57 552.172 1754.88 552.577 1755.15 552.952C1755.74 553.781 1756.81 554.144 1757.82 554.019V554.019C1758.98 553.875 1759.64 554.455 1759.8 555.76V555.76C1760.06 557.92 1760.61 560.074 1762.25 561.491C1762.43 561.646 1762.6 561.789 1762.74 561.921C1764.9 564.114 1766.41 565.464 1767.27 565.972C1767.77 566.241 1768.42 566.326 1769.21 566.228V566.228C1770.23 566.102 1771.32 566.292 1771.9 567.144C1771.95 567.218 1772 567.294 1772.05 567.372C1772.57 568.225 1773.19 569.039 1774.01 569.61C1774.81 570.165 1775.77 570.896 1776.89 571.803C1778.4 573.104 1781.46 574.149 1786.08 574.936C1786.47 575.002 1786.83 574.751 1786.92 574.369V574.369C1786.99 574.04 1787.28 573.8 1787.61 573.794C1788.42 573.778 1789.05 573.8 1789.52 573.857V573.857C1791.19 574.242 1792.76 575.093 1794.47 574.965C1795.49 574.888 1796.33 574.849 1797 574.847C1798.41 574.814 1799.14 574.795 1799.19 574.789C1803.11 574.303 1805.56 573.986 1806.52 573.839C1806.83 573.791 1807.1 573.643 1807.33 573.427V573.427C1807.73 573.052 1808.22 572.792 1808.75 572.673L1810.07 572.378L1811.38 572.074V572.074C1812.65 571.752 1813.94 572.825 1815.22 572.525C1818.16 571.834 1821.35 570.989 1824.78 569.99L1825.6 569.842C1826.76 569.635 1827.9 569.326 1829 568.918L1830.96 568.193C1832.2 567.735 1833.49 567.436 1834.77 567.122C1835.36 566.978 1835.88 566.819 1836.33 566.645L1837.76 566.106C1839.24 565.551 1840.77 565.185 1842.33 564.956C1844 564.71 1845.04 564.495 1845.45 564.309C1847.43 563.119 1848.74 562.483 1849.39 562.403C1849.67 562.368 1850.05 562.369 1850.53 562.405C1850.86 562.411 1851.14 562.4 1851.37 562.371V562.371C1851.46 562.359 1851.56 562.34 1851.65 562.313C1855.61 561.122 1858.31 560.363 1859.72 560.035C1860.03 559.963 1860.31 559.798 1860.52 559.555V559.555C1860.82 559.195 1861.28 559.015 1861.75 559.053C1862.6 559.121 1863.3 559.121 1863.84 559.054C1864.35 558.991 1865.55 558.591 1867.43 557.855C1869.01 557.235 1870.66 556.783 1872.34 556.546C1873.85 556.335 1874.84 556.188 1875.31 556.103C1875.54 556.064 1875.74 555.975 1875.89 555.805C1876.1 555.564 1876.34 555.187 1876.59 554.674C1876.79 554.271 1877.12 553.947 1877.55 553.791L1877.86 553.676C1878.46 553.454 1878.79 552.816 1878.71 552.177V552.177C1878.67 551.851 1878.68 551.542 1878.74 551.251L1878.77 551.109C1878.95 550.145 1878.79 549.221 1878.25 548.403V548.403C1877.96 547.966 1877.75 547.165 1877.61 546.001L1877.55 545.512C1877.45 544.132 1877.38 543.248 1877.35 542.858C1877.34 542.705 1877.32 542.554 1877.25 542.417C1877.17 542.259 1877.06 542.058 1876.9 541.815C1876.58 541.331 1875.96 541.278 1875.44 541.019V541.019C1875.19 540.913 1874.81 540.519 1874.31 539.839C1873.97 539.374 1874.13 538.719 1874.62 538.428V538.428C1874.92 538.257 1875.1 537.95 1875.13 537.612C1875.18 537.07 1875.26 536.649 1875.37 536.347V536.347C1875.49 536.044 1875.39 535.694 1875.11 535.517L1870.87 532.782C1870.12 532.303 1870.17 531.2 1870.94 530.778V530.778V530.778C1871 530.962 1871.21 531.045 1871.38 530.947C1872.03 530.56 1872.47 530.256 1872.68 530.034C1872.78 529.927 1872.87 529.808 1872.95 529.684V529.684L1874.01 529.111C1874.41 528.895 1874.46 528.298 1874.04 528.138V528.138C1873.75 528.03 1873.52 528.26 1873.43 528.554C1873.25 529.091 1873.1 529.468 1872.95 529.684L1870.94 530.778C1870.63 529.745 1870.45 529.04 1870.4 528.663C1870.36 528.296 1870.51 527.345 1870.86 525.809C1870.96 525.388 1871.31 525.074 1871.74 525.021V525.021C1872.25 524.958 1872.64 524.527 1872.66 524.011C1872.69 523.362 1872.73 522.757 1872.8 522.195C1872.95 520.378 1873 519.025 1872.94 518.134C1872.65 515.001 1872.46 513.015 1872.35 512.177C1872.15 510.5 1871.8 508.793 1871.31 507.057C1871.2 506.597 1871.14 506.251 1871.11 506.018C1871.1 505.925 1871.1 504.6 1871.12 502.044L1871.1 501.904V501.904C1870.86 499.925 1868.1 499.495 1866.2 500.069C1865.77 500.197 1865.34 500.327 1864.91 500.459C1864.87 500.473 1864.82 500.483 1864.78 500.489V500.489L1862.08 500.467C1861.9 500.49 1861.26 500.64 1860.16 500.918C1859.79 501.011 1859.45 501.077 1859.12 501.118C1858.79 501.159 1858.37 501.181 1857.86 501.183C1856.07 501.19 1854.51 502.468 1852.73 502.689V502.689C1852.5 502.717 1852.34 502.714 1852.24 502.679L1848.46 501.87C1848.17 501.811 1847.21 501.882 1845.59 502.084C1844.33 502.239 1843.64 502.349 1843.5 502.412C1842.97 502.668 1842.35 503.171 1841.63 503.921C1840.33 505.217 1839.72 506.215 1839.81 506.913C1839.89 507.612 1840.31 507.916 1841.05 507.823V507.823C1842.03 507.702 1842.94 507.13 1843.93 507.195C1844.13 507.209 1844.28 507.21 1844.37 507.2C1848.78 506.653 1851.19 506.284 1851.59 506.093C1852.71 505.623 1853.3 505.385 1853.34 505.379V505.379C1853.39 505.374 1853.44 505.382 1853.48 505.402L1853.91 505.62C1854.32 505.826 1854.79 505.865 1855.23 505.763C1855.56 505.69 1855.85 505.636 1856.13 505.602C1856.55 505.55 1856.98 505.638 1857.44 505.866C1858.65 506.576 1859.58 507.792 1860.21 509.515C1860.45 510.158 1861.07 510.594 1861.75 510.51V510.51C1863.52 510.291 1865.19 510.509 1866.78 511.164C1866.98 511.234 1867.08 511.292 1867.09 511.339C1867.1 511.432 1867.04 511.511 1866.9 511.575L1862.8 513.857C1862 514.286 1861.69 515.246 1861.87 516.737L1861.96 517.436L1862.82 523.569C1862.96 524.592 1863.19 525.601 1863.48 526.592C1864.06 528.56 1864.38 529.733 1864.42 530.112C1864.62 531.743 1864.58 533.119 1864.29 534.243V534.243C1864.23 534.514 1864.32 534.794 1864.52 534.982L1869.03 539.17C1870.08 540.155 1869.99 541.863 1868.83 542.725L1868.08 543.281C1867 544.082 1867.18 545.748 1868.4 546.304V546.304C1869.79 546.94 1869.76 548.935 1868.35 549.535L1866.39 550.368C1865.9 550.571 1865.7 551.068 1865.8 551.86V551.86C1865.85 552.285 1865.69 552.724 1865.29 552.876C1864.35 553.234 1862.98 553.818 1861.21 554.628C1860.92 554.757 1860.63 554.859 1860.33 554.933L1857.28 555.681C1854.52 556.684 1852.87 557.22 1852.31 557.289V557.289C1850.97 557.455 1850.12 558.659 1849.15 559.606C1848.94 559.814 1848.69 559.937 1848.39 559.973C1848.21 559.996 1848.06 559.99 1847.96 559.955C1846.59 559.511 1845.79 559.303 1845.55 559.332C1845.32 559.36 1843.85 559.827 1841.13 560.731C1836.95 561.72 1834.82 562.244 1834.74 562.302V562.302C1833.87 563.005 1833.09 563.873 1832.01 564.122C1831.06 564.338 1830.32 564.48 1829.78 564.548C1829.36 564.599 1828.98 564.622 1828.65 564.616C1827.06 564.718 1826.1 564.789 1825.78 564.83C1825.45 564.87 1824.58 565.026 1823.15 565.297C1818.01 566.122 1815.28 566.555 1814.96 566.595C1814.63 566.635 1814.35 566.646 1814.11 566.628V566.628C1813.3 566.54 1812.52 566.677 1811.81 567.074C1811.68 567.15 1811.53 567.233 1811.37 567.323C1810.92 567.567 1810.36 567.732 1809.66 567.818C1809.6 567.825 1809.54 567.832 1809.49 567.838C1806.36 568.181 1803.16 570.395 1800.04 570.782V570.782C1799.9 570.799 1798.98 570.535 1797.26 569.991C1795.54 569.447 1794.29 569.035 1793.5 568.754C1790.94 567.759 1788.69 566.443 1786.74 564.809C1786.61 564.691 1786.39 564.719 1786.29 564.87V564.87C1786.18 565.038 1785.94 565.05 1785.81 564.894L1785.32 564.305C1785.05 564.054 1784.49 563.864 1783.62 563.735C1782.51 563.495 1781.88 563.336 1781.72 563.26C1781.63 563.225 1781.19 562.902 1780.4 562.289C1780.14 562.085 1779.68 561.764 1779.01 561.326C1777.42 560.247 1776.17 559.267 1775.26 558.386C1774.24 557.377 1773.06 556.578 1771.71 555.988C1770.76 555.538 1770.21 555.109 1770.07 554.701L1769.2 552.185C1769.04 551.637 1768.38 550.678 1767.22 549.308C1767.1 549.196 1766.94 549.026 1766.74 548.797C1766.05 548.014 1764.88 548.18 1763.84 548.308V548.308C1763.33 548.371 1763.05 548.146 1762.98 547.634C1762.98 547.588 1763.07 546.069 1763.25 543.077C1763.25 542.975 1763.23 542.872 1763.17 542.787V542.787C1762.35 541.54 1761.72 539.989 1761.3 538.133C1761.05 536.996 1760.14 536.094 1758.99 535.971V535.971C1758.86 535.957 1758.74 535.953 1758.62 535.958C1755.81 536.064 1754.04 536.068 1753.3 535.968C1753.06 535.934 1753.09 535.777 1753.32 535.707V535.707C1755.24 534.976 1756.89 534.334 1758.28 533.783C1759.24 533.401 1759.77 532.372 1759.38 531.41V531.41C1758.97 530.525 1758.64 529.712 1758.4 528.972C1758.23 528.49 1757.73 528.201 1757.24 528.337V528.337C1756.94 528.421 1756.61 528.35 1756.4 528.123C1755.88 527.577 1755.59 527.034 1755.53 526.496C1755.52 526.413 1755.51 526.33 1755.51 526.247C1755.49 524.234 1756.64 522.286 1756.4 520.288V520.288C1756.33 519.729 1756.28 517.985 1756.26 515.057L1756.24 514.917C1756.19 514.492 1755.8 514.048 1755.09 513.585C1754.28 513.063 1753.62 512.28 1754.33 511.637V511.637C1755.02 511.02 1755.85 510.152 1755.88 509.226C1755.92 507.903 1756.07 506.793 1756.34 505.895C1756.98 503.736 1757.26 502.354 1757.18 501.748C1757.1 501.07 1756.98 500.336 1756.81 499.546C1756.6 498.519 1756.98 497.541 1757.33 496.552V496.552C1757.4 496.401 1758.05 493.98 1759.27 489.289C1759.74 488.143 1760.02 487.45 1760.11 487.209C1760.13 487.152 1760.15 487.094 1760.15 487.034C1760.16 486.875 1760.16 486.583 1760.14 486.159C1760.13 485.948 1759.95 485.786 1759.74 485.794V485.794C1759.5 485.804 1759.31 485.59 1759.34 485.349V485.349C1759.37 485.159 1759.53 485.017 1759.72 485.014L1759.96 485.011C1760 485.011 1760.04 485.029 1760.07 485.062V485.062C1760.13 485.134 1760.24 485.129 1760.3 485.049C1760.56 484.648 1760.78 484.188 1760.96 483.67C1761.12 483.193 1761.49 482.804 1761.98 482.681L1762.13 482.64C1762.58 482.528 1762.95 482.235 1763.16 481.828C1763.85 480.486 1764.53 479.04 1765.19 477.49C1765.98 475.832 1766.79 474.337 1767.62 473.005C1768.58 471.184 1769.12 470.195 1769.24 470.038C1769.56 469.675 1770.06 469.151 1770.75 468.467C1770.98 468.242 1771.06 467.906 1770.97 467.602V467.602C1770.78 466.999 1771.3 466.401 1771.92 466.518V466.518C1772.19 466.57 1772.48 466.48 1772.67 466.276C1773.78 465.097 1774.45 464.211 1774.68 463.618V463.618C1775.02 462.881 1775.75 462.515 1776.44 462.097C1776.61 461.994 1776.75 461.89 1776.86 461.788C1777.88 460.811 1778.51 460.189 1778.76 459.922C1779.27 459.403 1779.64 458.564 1779.89 457.405C1780 456.864 1780.39 456.386 1780.94 456.318V456.318C1781.05 456.304 1781.17 456.295 1781.31 456.29C1782.53 456.245 1783.45 455.439 1784.42 454.681V454.681L1787.84 451.988C1789.63 450.395 1791.05 449.297 1792.11 448.693C1793.95 447.638 1795.78 446.673 1797.6 445.799C1797.71 445.749 1797.77 445.73 1797.85 445.645V445.645C1798.45 444.997 1798.86 444.019 1799.73 443.868C1800.99 443.649 1801.77 443.452 1802.06 443.276C1803.92 441.911 1805.11 441.196 1805.62 441.133V441.133C1807.57 440.892 1809.58 441.293 1811.36 440.453L1811.42 440.425C1812.51 439.91 1813.7 439.646 1814.91 439.643C1815.22 439.642 1815.39 439.64 1815.41 439.637C1816.02 439.562 1816.52 439.287 1816.94 438.81L1817.75 437.713C1818.54 436.641 1820.05 436.421 1821.11 437.224V437.224C1821.48 437.506 1821.93 437.672 1822.39 437.703L1824.19 437.823C1824.75 437.86 1825.3 437.964 1825.84 438.134V438.134C1825.99 438.163 1826.35 437.834 1826.92 437.148C1827.09 436.939 1827.28 436.82 1827.52 436.791C1827.72 436.766 1828.03 436.809 1828.45 436.921C1830.26 437.404 1832.09 437.877 1833.96 437.822V437.822C1835.07 437.789 1836.18 437.899 1837.25 438.147L1838.83 438.511C1841.07 438.707 1842.5 438.767 1843.1 438.693C1843.61 438.629 1844.56 437.897 1845.95 436.496C1846.57 435.851 1847.26 435.27 1848 434.752C1848.96 434.114 1849.52 433.713 1849.69 433.55V433.55C1850.43 432.95 1849.91 431.734 1849.04 431.353C1848.8 431.246 1848.59 431.203 1848.42 431.225C1848.16 431.257 1847.76 431.534 1847.23 432.056C1847.15 432.127 1847.06 432.173 1846.96 432.185V432.185C1846.84 432.2 1846.71 432.163 1846.62 432.083L1846.25 431.776C1845.93 431.5 1845.5 431.377 1845.07 431.41C1843.97 431.496 1842.73 431.475 1841.37 431.345C1840.69 431.28 1840.01 431.256 1839.33 431.308C1836.03 431.56 1834.31 431.694 1834.18 431.71C1831.71 431.97 1830.12 432.077 1829.41 432.031C1829.36 432.028 1829.32 432.028 1829.27 432.034V432.034V432.034C1826.96 432.32 1825.3 434.644 1823.13 433.796C1821.46 433.145 1820.57 432.827 1820.46 432.842C1820.32 432.859 1820.14 432.928 1819.92 433.05C1818.32 433.863 1817.49 434.272 1817.45 434.278L1814.88 434.667L1813.49 434.91L1813.29 434.955C1812.1 435.231 1810.94 435.629 1809.82 436.144V436.144C1806.7 437.193 1803.81 438.283 1801.16 439.415C1800.6 439.695 1799.92 439.945 1799.12 440.166C1797.73 440.553 1796.35 440.983 1795.07 441.659V441.659L1791.06 443.574L1788.63 445.151C1787.2 445.94 1785.99 446.687 1784.98 447.393C1784.54 447.697 1784.3 448.549 1784.23 449.075V449.075C1784.16 449.61 1783.95 449.851 1783.54 450.196C1783.45 450.271 1783.35 450.351 1783.23 450.434C1782.76 450.782 1782.37 450.971 1781.85 450.709V450.709C1780.93 450.249 1779.63 450.078 1778.9 450.801C1778.13 451.559 1777.18 452.56 1776.03 453.804L1771.43 457.619C1770.95 458.02 1770.52 458.486 1770.16 459.003V459.003C1769.84 459.465 1769.46 459.886 1769.04 460.257L1768.73 460.53C1768.3 460.911 1767.9 461.327 1767.53 461.774L1767.27 462.103C1766.78 462.697 1766.25 463.249 1765.7 463.78C1764.31 465.125 1763.07 466.518 1761.98 467.957C1761.58 468.468 1760.79 469.452 1759.6 470.907C1759.05 471.578 1758.86 472.476 1759.1 473.31L1759.16 473.527C1759.42 474.452 1759.15 475.685 1758.2 475.803V475.803V475.803C1757.06 475.943 1755.76 475.803 1755.12 476.748C1755.1 476.777 1755.08 476.804 1755.07 476.828L1753.62 480.058L1751.25 483.827L1750.3 485.86C1748.02 490.777 1746.93 493.677 1747.04 494.563C1747.1 495.067 1747.42 495.385 1748 495.518C1748.76 495.69 1749.44 496.259 1749.38 497.035V497.035C1749.34 497.62 1748.88 498.094 1748.3 498.166L1747.6 498.253C1746.77 498.355 1746.08 498.938 1745.85 499.742C1745.59 500.695 1745.39 501.477 1745.27 502.088C1745.24 502.234 1744.99 504.463 1744.53 508.777L1744.23 510.329C1744.17 510.65 1744.14 510.976 1744.15 511.302C1744.2 513.168 1744.21 514.614 1744.2 515.642C1744.19 516.227 1744.69 516.701 1745.27 516.629V516.629C1745.68 516.578 1746.08 516.807 1746.23 517.196C1746.43 517.749 1746.65 518.403 1746.88 519.159ZM1901.19 560.176V560.176C1900.3 561.035 1900.9 562.353 1902.13 562.474C1902.92 562.551 1903.77 562.611 1904.68 562.653C1905.92 562.83 1906.73 562.895 1907.11 562.849V562.849C1909.63 562.537 1912.09 561.452 1914.61 561.14V561.14C1915.73 561.001 1916.76 560.642 1917.69 560.062C1918.89 559.31 1920.25 558.537 1921.59 559.025C1921.67 559.055 1921.75 559.087 1921.83 559.12C1921.9 559.152 1921.97 559.191 1922.04 559.231C1922.24 559.348 1922.54 559.487 1922.93 559.65C1923.38 559.84 1923.88 559.545 1923.96 559.059L1923.97 559.008C1924.01 558.696 1924.26 558.455 1924.58 558.417L1926.47 558.182C1926.62 558.164 1926.7 558.35 1926.58 558.444V558.444C1926.48 558.532 1926.54 558.701 1926.67 558.696C1927.58 558.664 1929.34 558.527 1931.95 558.284L1933.72 558.278L1935.41 558.211V558.211C1936.57 558.298 1937.74 558.052 1938.77 557.5L1941.4 556.093C1943.18 555.141 1944.97 555.211 1946.62 556.379C1946.65 556.404 1946.69 556.429 1946.72 556.455C1947.71 557.185 1948.71 557.486 1949.73 557.359V557.359C1951.47 557.145 1953.15 556.632 1954.89 556.654L1955.04 556.656C1956.3 556.672 1957.56 556.557 1958.8 556.314C1964.73 555.15 1967.87 554.547 1968.2 554.505L1968.41 554.48C1970.78 554.186 1972.38 554.107 1973.2 554.242V554.242C1973.57 554.333 1973.97 554.286 1974.31 554.109L1981.11 550.618C1982.1 550.11 1983.28 550.142 1984.24 550.704L1986.58 552.077C1987.07 552.359 1987.69 552.145 1987.9 551.625V551.625C1988.02 551.314 1988.3 551.096 1988.63 551.055L1989.01 551.008C1989.49 550.949 1989.91 550.666 1990.17 550.26C1990.53 549.712 1990.95 549.131 1991.44 548.517C1991.69 548.194 1991.92 547.851 1992.11 547.486L1993.83 544.169L1994.77 542.564C1994.98 542.188 1995.04 541.39 1994.96 540.169C1994.94 539.984 1994.8 539.838 1994.61 539.824V539.824C1994.59 539.822 1994.56 539.822 1994.54 539.826C1993.82 539.937 1992.12 540.809 1989.45 542.442C1989.42 542.456 1989.4 542.471 1989.37 542.486C1987.73 543.446 1987.01 545.237 1986.32 547.014V547.014C1985.82 548.305 1985.24 548.991 1984.59 549.072V549.072C1984.44 549.091 1984.33 548.965 1984.24 548.841C1982.9 546.92 1982.16 545.968 1982.02 545.985C1981.7 546.025 1981.22 546.202 1980.6 546.516C1980.25 546.748 1979.57 546.951 1978.55 547.124C1976.11 547.615 1973.83 548.206 1971.7 548.895L1968.31 549.597C1966.87 550.108 1965.84 550.4 1965.24 550.475C1964.73 550.538 1964.17 550.584 1963.56 550.612C1961.86 550.633 1960.69 550.683 1960.04 550.764C1960 550.769 1959.87 550.801 1959.65 550.861C1957.6 551.423 1955.45 551.261 1953.34 551.522V551.522C1953.11 551.551 1952.85 551.606 1952.58 551.687C1952.04 551.848 1951.58 551.983 1951.21 552.091C1950.45 552.318 1949.65 552.345 1948.87 552.186V552.186C1948.35 552.082 1947.83 552.033 1947.31 552.039L1946.19 552.053L1945.47 552.019C1944.32 551.965 1943.17 552.273 1942.2 552.9L1940.28 554.141C1939.11 554.895 1937.57 554.695 1936.63 553.667V553.667C1936.01 552.984 1935.1 552.645 1934.18 552.759L1932.25 552.997C1931.77 553.057 1931.28 553.063 1930.8 553.016L1926.73 552.617L1925.69 552.639C1924.55 552.662 1923.42 552.546 1922.28 552.465C1922.01 552.446 1921.82 552.445 1921.69 552.461V552.461C1920.93 552.555 1920.16 552.401 1919.44 552.147C1919.08 552.018 1918.69 551.932 1918.29 551.888C1917.24 551.735 1916.65 551.169 1916.53 550.191L1915.33 539.202C1915.31 539.046 1915.08 538.497 1914.63 537.556C1914.47 537.222 1914.1 537.049 1913.74 537.142V537.142C1913.25 537.269 1912.77 536.902 1912.78 536.395C1912.8 535.736 1912.83 534.976 1912.87 534.116C1912.82 533.318 1912.82 532.87 1912.85 532.771V532.771C1913.23 532.028 1913.39 531.199 1913.34 530.37L1913.24 528.771C1913.2 528.196 1913.21 527.619 1913.26 527.045C1913.52 524.36 1913.61 522.764 1913.55 522.257L1913.4 520.999L1913.19 519.89L1911.73 510.159C1911.71 510.054 1911.71 509.948 1911.73 509.843V509.843C1911.79 509.451 1911.62 509.065 1911.33 508.798C1910.58 508.116 1910.05 507.284 1909.72 506.301C1909.61 505.994 1909.72 505.66 1909.95 505.441L1910.83 504.633C1910.87 504.601 1910.92 504.614 1910.94 504.657V504.657C1910.96 504.716 1911.04 504.712 1911.06 504.651C1911.12 504.389 1911.14 504.163 1911.11 503.974C1911.07 503.648 1911.01 503.278 1910.91 502.865C1910.71 501.659 1910.54 500.427 1910.39 499.169L1910.18 497.492C1910.12 496.176 1909.82 493.541 1909.29 489.587C1909.22 489.02 1909.19 488.644 1909.21 488.46C1909.21 488.414 1909.21 488.367 1909.21 488.321V488.321V488.321C1909.12 487.957 1909.1 487.579 1909.16 487.209C1909.33 486.035 1909.42 485.427 1909.42 485.387C1909.32 484.595 1908.84 483.59 1907.99 482.371V482.371C1907.1 481.405 1907.59 479.949 1908.2 478.79C1908.43 478.372 1908.51 477.962 1908.46 477.56C1908.22 475.552 1907.68 474.081 1906.85 473.147C1906.62 472.887 1906.69 472.433 1907.02 472.323V472.323C1907.16 472.277 1907.27 472.16 1907.3 472.015C1907.39 471.636 1907.44 471.345 1907.46 471.144C1907.46 471.106 1907.47 471.069 1907.48 471.033V471.033C1907.5 470.971 1907.51 470.904 1907.5 470.84C1907.36 470.279 1906.62 469.812 1905.28 469.442V469.442C1903.5 468.938 1902.56 467.404 1902.21 465.578L1901.09 459.731C1901.03 459.373 1900.91 459.026 1900.74 458.7V458.7C1900.09 457.399 1900.21 455.842 1901.04 454.649L1901.6 453.849C1902.2 452.998 1902.55 451.997 1902.61 450.959L1902.71 449.141C1902.76 448.289 1903.08 447.479 1903.59 446.795C1904.46 445.627 1905.1 444.592 1905.51 443.688C1905.56 443.59 1905.51 443.475 1905.42 443.426V443.426C1905.38 443.408 1905.34 443.401 1905.3 443.406L1905.12 443.428C1904.84 443.463 1904.56 443.344 1904.39 443.116L1903.95 442.529C1903.62 442.088 1903.05 441.899 1902.52 442.052V442.052C1902.02 442.198 1901.47 442.032 1901.14 441.628L1901.01 441.478C1900.4 440.742 1900.66 439.669 1901.04 438.789C1901.15 438.55 1901.21 438.301 1901.22 438.041C1901.23 437.938 1901.26 437.837 1901.32 437.756V437.756C1901.41 437.638 1901.56 437.573 1901.71 437.579C1902.12 437.596 1902.44 437.59 1902.67 437.561C1902.96 437.525 1903.37 437.398 1903.91 437.181C1904.02 437.134 1904.09 437.014 1904.08 436.89L1904.05 436.719C1904.05 436.659 1903.99 436.617 1903.93 436.624V436.624C1903.88 436.631 1903.82 436.592 1903.81 436.535C1903.53 434.966 1903.32 433.774 1903.17 432.959C1902.98 432.132 1902.85 431.462 1902.79 430.95C1902.75 430.665 1902.78 430.347 1902.87 429.995C1903.1 429.111 1903.24 428.179 1902.93 427.323V427.323C1902.84 427.092 1902.78 426.852 1902.75 426.608L1902.54 424.879C1902.43 423.994 1901.87 423.615 1900.85 423.742C1899.64 423.891 1897.91 424.625 1895.67 425.943L1895.61 425.976C1895.12 426.253 1894.7 426.624 1894.35 427.066V427.066C1894.05 427.454 1893.68 427.787 1893.27 428.051L1892.65 428.445V428.445C1891.91 428.912 1891.08 429.212 1890.27 429.523C1889.6 429.775 1888.95 430.115 1888.3 430.543C1888.14 430.666 1887.88 430.848 1887.53 431.09C1886.89 431.526 1886.66 432.36 1886.99 433.058L1887.02 433.132C1887.23 433.579 1887.66 433.881 1888.15 433.928V433.928C1888.48 433.959 1888.78 434.098 1889 434.337C1889.59 434.987 1889.94 435.566 1890.04 436.074C1890.14 436.488 1890.34 437.361 1890.64 438.695L1891.04 441.412C1891.06 441.572 1891.25 441.845 1891.61 442.231C1891.98 442.631 1892.24 443.125 1892.31 443.667V443.667C1892.35 444.01 1892.59 444.521 1893.03 445.199C1893.38 445.728 1893.61 446.326 1893.65 446.956C1893.67 447.28 1893.67 447.508 1893.67 447.639C1893.67 447.717 1893.69 447.741 1893.63 447.798V447.798C1893.49 447.957 1893.28 448.163 1893.31 448.378L1893.94 453.581C1893.98 453.913 1894.14 454.217 1894.4 454.434V454.434C1894.74 454.726 1894.91 455.173 1894.86 455.622C1894.72 456.975 1894.7 458.089 1894.81 458.963L1894.93 459.941C1895.07 460.728 1895.18 461.4 1895.24 461.959L1895.6 464.894L1896.63 470.442L1896.64 470.512C1896.68 472.398 1896.71 473.388 1896.72 473.481C1896.84 474.459 1897.22 474.908 1897.87 474.828C1897.98 474.814 1898.1 474.789 1898.22 474.754C1898.73 474.6 1899.38 474.976 1899.3 475.506V475.506C1899.25 475.794 1899.43 476.071 1899.71 476.153L1900.39 476.356C1900.69 476.445 1900.88 476.735 1900.85 477.047V477.047C1900.82 477.29 1900.66 477.495 1900.44 477.596C1900.37 477.629 1900.3 477.66 1900.25 477.689C1900.06 477.789 1899.96 477.996 1899.86 478.18L1899.26 479.266C1899 479.819 1898.88 480.401 1898.91 481.013V481.013C1898.94 481.3 1899.17 481.527 1899.46 481.562L1899.47 481.564C1899.83 481.608 1900.08 481.933 1900.04 482.29V482.29C1900 482.587 1899.77 482.822 1899.47 482.858L1899.25 482.886C1898.92 482.926 1898.63 483.133 1898.52 483.446C1898.44 483.686 1898.41 483.864 1898.42 483.981C1898.44 484.168 1898.58 484.505 1898.83 484.995C1898.97 485.356 1899.07 485.793 1899.13 486.305C1899.17 486.678 1899.22 487.24 1899.26 487.991L1899.53 490.157C1899.7 491.602 1899.78 492.586 1899.74 493.11C1899.64 493.832 1899.61 494.332 1899.64 494.612C1899.67 494.853 1899.8 495.052 1900.04 495.21C1900.93 495.817 1901.78 496.681 1901.69 497.758C1901.66 498.142 1901.65 498.519 1901.67 498.888C1901.68 499.167 1901.49 499.42 1901.21 499.454V499.454C1900.95 499.487 1900.75 499.723 1900.76 499.992C1900.77 500.592 1900.73 501.246 1900.64 501.955C1900.58 502.371 1900.62 502.795 1900.75 503.193C1901.28 504.812 1901.56 505.725 1901.59 505.933L1901.99 512.126L1902.59 515.315C1902.62 515.56 1902.56 516.144 1902.42 517.067C1902.38 517.316 1902.48 517.568 1902.68 517.723V517.723C1902.87 517.871 1903.12 517.91 1903.35 517.825L1903.64 517.715C1904.3 517.464 1905.03 517.904 1905.11 518.612V518.612C1905.15 518.928 1905.33 519.21 1905.58 519.395C1906.55 520.088 1907.05 520.599 1907.09 520.928C1907.11 521.086 1907.09 521.284 1907.01 521.522C1906.99 521.606 1906.93 521.674 1906.85 521.712V521.712C1906.8 521.736 1906.74 521.747 1906.69 521.744L1906.28 521.723C1905.82 521.699 1905.36 521.844 1904.99 522.132L1904.91 522.191C1904.08 522.72 1903.71 523.357 1903.8 524.102L1904.06 526.199L1904.07 526.338C1904.12 526.742 1904.08 527.332 1903.94 528.108C1903.69 529.442 1903.51 530.791 1903.58 532.145V532.145L1903.58 532.288C1903.63 533.718 1904.32 535.05 1905.45 535.916L1908.23 538.037C1909.24 538.812 1909.27 540.333 1908.29 541.15L1907.28 541.988C1906.31 542.793 1906.77 544.371 1908.03 544.511V544.511C1909.17 544.638 1909.69 545.992 1909.02 546.925C1908.61 547.488 1908.33 547.953 1908.17 548.318C1906.95 550.352 1905.78 552.381 1904.64 554.405C1904.34 554.93 1903.8 555.417 1903.87 556.014V556.014V556.014C1903.96 556.749 1903.83 557.524 1903.32 558.056C1902.37 559.041 1901.66 559.747 1901.19 560.176ZM1998.79 496.029C1998.83 496.622 1998.86 497.18 1998.88 497.705C1998.95 499.486 2000.39 501.058 2000.61 502.827V502.827C2000.71 503.665 2000.61 504.387 2000.31 504.992L1999.62 506.353C1999.59 506.452 1999.59 507.067 1999.64 508.196C1999.77 512.01 1999.86 514.08 1999.9 514.406C1999.93 514.693 2000.1 515.274 2000.41 516.149C2000.73 517.081 2001.02 518.028 2001.23 518.993L2001.57 520.583C2001.6 520.721 2001.7 520.9 2001.86 521.122C2002.48 522.006 2002.25 523.237 2002.38 524.314V524.314C2002.4 524.502 2002.5 524.759 2002.67 525.086C2003.09 525.888 2003.54 526.68 2003.83 527.538V527.538C2003.93 527.765 2004.24 528.039 2004.76 528.36C2005.2 528.631 2005.56 529.03 2005.72 529.522L2005.82 529.806C2006.06 530.542 2006.79 531.002 2007.56 530.907L2007.99 530.854C2008.03 530.849 2008.07 530.831 2008.11 530.801V530.801C2008.19 530.731 2008.31 530.728 2008.39 530.795L2008.77 531.087C2008.93 531.219 2009.15 531.278 2009.36 531.252L2011.1 531.036C2011.16 531.029 2011.21 531.001 2011.24 530.957V530.957C2011.31 530.865 2011.45 530.848 2011.54 530.92L2011.58 530.952C2011.65 531.004 2011.68 531.085 2011.68 531.17C2011.65 531.635 2011.55 532.179 2011.4 532.802C2011.19 533.639 2010.14 533.892 2009.29 533.738V533.738C2008.81 533.65 2008.38 533.978 2008.32 534.466C2008.31 534.582 2008.31 534.689 2008.32 534.785C2008.34 534.972 2008.76 535.464 2009.56 536.263C2010.1 536.811 2010.5 537.353 2010.75 537.889C2011.81 540.028 2012.4 541.184 2012.52 541.359C2012.66 541.519 2013.17 541.853 2014.07 542.362C2015.41 543.12 2016.68 543.983 2017.85 544.993C2019.45 546.389 2020.29 547.1 2020.37 547.127C2021.62 547.724 2022.7 548.267 2023.6 548.754C2024.66 549.328 2025.87 548.857 2027.07 548.709V548.709C2027.2 548.692 2027.35 548.684 2027.5 548.684C2027.95 548.685 2028.24 549.147 2028.12 549.591V549.591C2028 550.019 2028.27 550.459 2028.7 550.551C2031.55 551.156 2033.94 551.513 2035.87 551.622C2036.59 551.663 2037.25 551.249 2037.58 550.6L2037.67 550.417C2037.92 549.921 2038.57 549.578 2039.13 549.608V549.608C2040.35 549.672 2041.69 548.769 2041.99 547.578C2042.06 547.321 2042.13 547.121 2042.2 546.98C2042.34 546.725 2042.66 546.803 2042.91 546.954L2044 547.626C2046.14 548.943 2048.78 549.055 2051.09 548.056C2051.81 547.744 2052.24 547.578 2052.4 547.56V547.56C2053.3 547.448 2054.04 546.874 2054.61 546.165C2054.62 546.149 2054.63 546.133 2054.65 546.118C2054.78 545.958 2054.96 545.826 2055.13 545.702C2055.31 545.573 2055.59 545.391 2055.96 545.157C2057.13 544.417 2058.55 545.095 2059.93 544.925V544.925C2061.09 544.781 2062.44 544.023 2063.97 542.652C2065.4 541.457 2066.96 540.511 2068.63 539.812C2069.08 539.62 2069.34 539.116 2069.19 538.64V538.64C2069.02 538.085 2069.39 537.511 2069.97 537.44L2070.05 537.43C2070.84 537.332 2072.5 536.417 2075.02 534.686L2081.16 531.019C2084.3 528.549 2085.91 527.285 2086 527.227C2086.42 526.965 2087 526.657 2087.75 526.303C2088.29 526.047 2088.81 525.253 2089.08 524.722V524.722C2089.31 524.28 2089.53 524.214 2089.96 523.969C2090.17 523.853 2090.41 523.724 2090.7 523.581C2090.93 523.465 2091.16 523.333 2091.37 523.182C2092.25 522.565 2093.48 521.711 2095.06 520.62C2096.13 519.889 2097.12 519.06 2098.02 518.14L2100 516.131C2100.04 516.078 2101.36 515.277 2103.95 513.726C2104.39 513.436 2106.26 511.998 2109.58 509.412C2109.71 509.299 2109.92 509.133 2110.21 508.915C2110.82 508.454 2111.83 508.44 2112.03 509.18V509.18C2112.14 509.592 2112.34 510.344 2112.63 511.437C2113.01 512.857 2113.23 514.316 2113.29 515.784L2113.31 516.186L2113.41 517.57C2113.5 518.706 2113.48 519.848 2113.4 520.986C2113.33 521.978 2113.32 522.646 2113.36 522.989C2113.45 523.781 2113.54 524.268 2113.61 524.448C2114.6 527.209 2115.17 529.126 2115.3 530.197C2115.43 531.269 2115.41 532.264 2115.24 533.184C2114.93 534.924 2114.8 536.028 2114.86 536.493V536.493C2114.9 536.83 2115.23 537.061 2115.56 537.07C2116.08 537.084 2116.53 537.067 2116.91 537.021C2117.51 536.946 2118.03 536.763 2118.47 536.473L2123.15 533.126V533.126C2124.72 532.135 2126.09 530.869 2127.2 529.388L2127.22 529.36C2127.29 529.261 2127.39 529.154 2127.52 529.036C2128.46 528.207 2129.11 527.046 2128.83 525.822L2128.55 524.59C2128.46 524.174 2128.11 523.863 2127.69 523.817V523.817C2127.37 523.782 2127.08 523.596 2126.94 523.304C2126.63 522.667 2126.4 521.96 2126.23 521.184C2125.65 519.599 2125.27 518.37 2125.07 517.496C2125.03 517.219 2124.92 516.695 2124.72 515.925C2124.66 515.661 2124.45 515.457 2124.18 515.396V515.396C2123.95 515.343 2123.76 515.18 2123.67 514.959L2123.49 514.522C2123.31 514.08 2122.94 513.744 2122.5 513.565C2121.66 513.225 2120.86 512.795 2120.11 512.276C2120.06 512.248 2120.04 512.202 2120.03 512.152V512.152C2120.02 512.075 2120.06 512 2120.13 511.966C2120.7 511.695 2121.36 511.208 2122.13 510.505C2123.05 509.673 2123.33 508.374 2123.1 507.158C2122.97 506.468 2122.86 505.73 2122.76 504.943V504.943C2122.72 504.618 2122.72 504.29 2122.77 503.965L2122.85 503.371C2122.95 502.652 2123.1 501.794 2122.54 501.328C2122.35 501.166 2122.1 501.063 2121.79 501.02C2120.45 500.855 2119.65 500.694 2119.39 500.536C2118.68 500.057 2118.25 499.306 2118.13 498.281C2118.11 498.103 2118.12 497.928 2118.16 497.756C2118.61 496.005 2120.52 494.696 2120.3 492.904V492.904L2120.3 492.834C2119.38 486.848 2118.89 483.598 2118.83 483.086C2118.67 481.781 2118.59 480.608 2118.61 479.566C2118.66 478.85 2118.67 478.282 2118.61 477.863C2118.59 477.676 2118.55 477.516 2118.49 477.382C2118.12 476.671 2117.91 476.176 2117.88 475.897C2117.78 475.483 2117.49 473.296 2117.01 469.336C2116.96 468.964 2116.91 468.096 2116.83 466.734C2116.85 466.448 2116.84 466.189 2116.81 465.956C2116.77 465.584 2116.64 465.292 2116.42 465.082C2115.7 464.179 2115.29 463.354 2115.2 462.609C2114.98 460.77 2114.85 459.153 2114.81 457.757C2114.76 455.87 2114.73 453.971 2114.4 452.114L2114.23 451.167C2113.53 446.407 2113.03 443.289 2112.73 441.812C2112.65 441.463 2112.35 441.221 2111.99 441.214V441.214C2111.52 441.205 2111.17 440.784 2111.23 440.315L2111.32 439.682C2111.35 439.461 2111.25 439.241 2111.07 439.117V439.117C2110.92 439.018 2110.74 438.994 2110.57 439.048C2109.79 439.298 2109.17 439.451 2108.71 439.508V439.508C2108.54 439.528 2108.38 439.437 2108.33 439.28C2108.25 439.073 2108.21 438.887 2108.19 438.721C2108.12 438.162 2108.34 437.662 2108.85 437.22C2108.9 437.183 2108.94 437.147 2108.98 437.112C2110.05 436.206 2110.71 435.025 2110.89 433.633V433.633C2111.02 432.766 2111.08 432.239 2111.05 432.053C2111.03 431.82 2110.93 431.619 2110.77 431.45C2110 430.552 2109.59 429.87 2109.53 429.404C2109.48 429.032 2109.49 428.7 2109.55 428.409C2109.82 426.389 2109.94 425.05 2109.91 424.392C2109.72 422.051 2109.58 420.508 2109.49 419.763C2109.45 419.483 2109.4 419.23 2109.32 419.003C2108.77 417.179 2108.43 415.709 2108.29 414.591C2108.1 413.053 2108.01 411.906 2108.01 411.149C2108.06 406.084 2108.08 403.528 2108.07 403.481V403.481C2107.87 401.867 2105.74 401.473 2104.2 402.014C2104.05 402.07 2103.92 402.12 2103.81 402.165C2102.99 402.455 2102.54 402.629 2102.45 402.687C2102.37 402.745 2100.41 404.311 2096.59 407.385C2094.93 408.489 2094.06 409.116 2093.99 409.268C2093.76 409.675 2093.66 410.041 2093.7 410.368C2093.75 410.787 2094.21 411.25 2095.07 411.758V411.758C2096.14 412.448 2096.62 413.74 2096.55 415.012C2096.51 415.62 2096.51 416.013 2096.53 416.188L2098.17 422.654L2098.63 425.618C2098.73 426.237 2098.91 426.84 2099.16 427.413L2099.37 427.895C2099.56 428.341 2099.68 428.817 2099.72 429.302L2099.88 431.581C2099.94 432.32 2100.51 432.915 2101.24 432.995V432.995C2102.73 433.158 2103.13 435.145 2101.81 435.87L2100.83 436.414C2100.79 436.434 2100.77 436.475 2100.77 436.518V436.518C2100.8 437.129 2101.15 437.7 2101.83 438.231L2104.07 439.798C2104.28 439.961 2104.42 440.276 2104.47 440.741V440.741C2104.69 442.496 2103.01 444.012 2103.04 445.78C2103.06 446.729 2103.12 447.677 2103.24 448.626C2103.31 449.232 2103.73 450.883 2104.48 453.58C2104.92 455.275 2105.25 457.007 2105.47 458.778C2105.62 460.008 2105.61 461.188 2105.46 462.318C2105.32 463.328 2105.89 464.352 2106.87 464.596V464.596C2107.62 464.779 2108.19 465.427 2108.1 466.192C2108.04 466.698 2107.93 467.182 2107.75 467.646C2107.39 468.588 2107.23 469.199 2107.26 469.479C2107.33 470 2107.49 470.58 2107.74 471.219C2107.82 471.415 2107.99 471.55 2108.2 471.581V471.581C2108.47 471.62 2108.68 471.835 2108.72 472.107L2108.77 472.525C2108.81 472.855 2108.99 473.15 2109.26 473.347C2109.85 473.788 2110.16 474.104 2110.19 474.295V474.295C2110.4 476.062 2108.26 477.379 2108.46 479.147C2108.58 480.196 2108.71 481.376 2108.87 482.686L2109.22 488.46C2109.25 488.646 2109.36 489.223 2109.57 490.189C2109.76 491.302 2109.87 492.021 2109.91 492.347L2109.96 492.766L2110.02 495.596V495.596C2110.03 495.642 2110.04 495.688 2110.06 495.73L2110.18 495.998C2110.51 496.713 2110.46 497.546 2110.02 498.2C2109.62 498.793 2109.12 499.525 2108.5 500.396C2108.21 500.809 2107.96 501.251 2107.76 501.712C2106.86 503.721 2106.25 504.83 2105.94 505.039L2103.67 506.171C2102.96 506.543 2101.58 508.037 2099.54 510.654C2099.34 510.891 2099.08 511.09 2098.77 511.251C2098.33 511.484 2098 511.931 2098.06 512.429V512.429C2098.14 513.061 2097.62 513.592 2096.98 513.617C2096.82 513.623 2096.66 513.636 2096.51 513.654C2096.06 513.71 2095.66 513.874 2095.32 514.145C2093.8 515.362 2093.17 517.489 2091.61 518.659V518.659C2091.57 518.682 2091.53 518.706 2091.49 518.732C2089.75 519.734 2087.92 520.576 2086.36 521.829L2086.21 521.952L2084.23 523.189C2084.1 523.262 2083.96 523.494 2083.8 523.886C2083.54 524.535 2083.12 525.118 2082.52 525.478L2081.64 526.01C2081.3 526.216 2080.87 526.214 2080.53 526.004V526.004C2080.17 525.781 2079.71 525.791 2079.37 526.049C2078.6 526.637 2077.67 527.446 2076.57 528.476C2076.12 528.897 2075.63 529.263 2075.09 529.555L2073.51 530.404C2073.33 530.524 2073.06 530.81 2072.7 531.263C2072.34 531.72 2071.82 532.032 2071.24 532.104V532.104C2070.42 532.206 2069.76 532.582 2069.27 533.232C2068.73 533.945 2067.92 534.511 2067.04 534.349V534.349C2066.42 534.236 2065.8 534.469 2065.34 534.899C2064.71 535.492 2064.01 535.992 2063.22 536.398C2062.92 536.556 2062.67 536.816 2062.56 537.139V537.139C2062.44 537.478 2062.18 537.748 2061.85 537.89C2060.91 538.295 2059.68 538.869 2058.15 539.612L2056.6 540.3L2054.9 541.275C2054.46 541.523 2053.95 541.616 2053.46 541.539V541.539C2053.3 541.513 2053.13 541.506 2052.97 541.517L2050.62 541.679C2049.58 541.713 2048.97 541.741 2048.79 541.764C2048.23 541.833 2047.75 541.94 2047.34 542.085C2045.17 542.873 2043.86 543.296 2043.39 543.354C2042.96 543.407 2042.47 543.432 2041.92 543.429C2041.48 543.427 2041.08 543.171 2040.88 542.779V542.779C2040.59 542.227 2039.94 541.983 2039.35 542.172C2038.93 542.305 2038.62 542.385 2038.4 542.412C2037.24 542.556 2036.04 542.42 2034.81 542.005V542.005C2033.07 541.473 2031.69 540.125 2030.05 539.342C2028.7 538.697 2027.57 538.052 2026.68 537.407C2024.83 536.075 2023.13 533.97 2021.57 531.091C2021.3 530.596 2020.81 530.259 2020.25 530.207V530.207C2019.77 530.164 2019.34 529.916 2019.06 529.528L2019.03 529.477C2018.68 528.997 2018.06 528.753 2017.47 528.682V528.682C2016.77 528.596 2016.41 527.923 2016.43 527.209C2016.46 526.167 2016.45 525.404 2016.39 524.92C2016.32 524.361 2016.19 523.88 2016 523.478L2014.24 519.511C2013.6 518.124 2013.16 516.452 2012.92 514.496C2012.83 513.704 2012.78 513.072 2012.76 512.6C2012.79 512.03 2012.79 511.628 2012.76 511.395C2012.73 511.19 2012.65 510.919 2012.51 510.584C2012.26 510 2011.64 509.69 2011.01 509.768L2010.81 509.792C2010.53 509.826 2010.25 509.748 2010.03 509.575V509.575C2009.76 509.361 2009.61 509.025 2009.63 508.678C2009.71 507.171 2009.74 506.335 2009.72 506.168C2009.7 505.985 2009.63 505.735 2009.54 505.419C2009.43 505.085 2009.53 504.717 2009.8 504.494V504.494C2009.96 504.358 2010.07 504.163 2010.09 503.95C2010.22 502.723 2010.25 501.789 2010.17 501.147C2010.15 501.007 2010.09 500.684 2009.98 500.177C2009.84 499.437 2009.72 498.648 2009.62 497.81L2009.61 497.74C2009.58 497.507 2009.58 497.129 2009.61 496.605C2009.92 492.5 2010.04 490.026 2009.98 489.182C2009.89 488.124 2009.86 486.905 2009.88 485.524C2009.89 484.849 2009.87 484.172 2009.79 483.5C2009.78 483.444 2009.78 483.39 2009.77 483.337C2009.67 482.394 2009.65 481.394 2010.14 480.579V480.579C2010.61 479.765 2010.81 479.148 2010.76 478.729V478.729C2010.71 478.296 2010.43 477.93 2010.04 477.736C2009.97 477.703 2009.91 477.672 2009.86 477.642C2009.51 477.457 2009.19 477.125 2009.03 476.769C2008.97 476.636 2008.91 476.479 2008.85 476.297C2008.69 475.817 2009.03 475.326 2009.53 475.264V475.264C2009.77 475.234 2009.99 475.102 2010.1 474.885C2010.55 474.028 2010.95 472.544 2011.31 470.433L2013.42 458.095C2013.53 457.484 2013.75 456.899 2014.07 456.37L2014.83 455.131C2015.33 454.311 2015.1 453.34 2014.98 452.387V452.387C2014.96 452.2 2015.09 451.333 2015.37 449.785C2015.43 449.562 2015.48 449.104 2015.52 448.413C2015.53 448.282 2015.47 448.156 2015.37 448.076V448.076C2015.23 447.969 2015.05 447.962 2014.9 448.058L2014.45 448.361C2013.95 448.692 2013.27 448.596 2012.98 448.077C2012.83 447.816 2012.7 447.541 2012.59 447.254C2012.3 446.516 2012.67 445.712 2013.34 445.294V445.294C2013.72 445.057 2014.01 444.691 2014.14 444.263L2014.51 443.135C2014.53 443.056 2014.6 443 2014.68 442.99V442.99C2014.73 442.984 2014.78 442.995 2014.82 443.021C2015.4 443.389 2015.88 443.551 2016.24 443.507V443.507C2016.36 443.491 2016.48 443.406 2016.52 443.285C2016.92 442.299 2017.21 441.285 2017.39 440.242C2017.64 438.793 2017.89 437.911 2018.13 437.597C2019.44 435.59 2020.16 434.462 2020.27 434.212C2020.68 433.31 2020.84 432.533 2020.76 431.88V431.88C2020.7 431.385 2020.7 430.291 2020.96 429.867C2020.97 429.857 2020.98 429.846 2020.98 429.836C2021 429.808 2021.01 429.778 2021.01 429.748L2021.17 428.942C2021.3 428.347 2021.48 427.766 2021.72 427.209L2024.77 420.105C2025.88 417.226 2026.47 415.067 2026.55 413.63C2026.59 412.886 2026.04 412.146 2025.3 412.237V412.237C2023.72 412.433 2021.17 413.552 2017.65 415.597C2014.99 417.062 2012.62 418.735 2010.54 420.617C2009.94 421.162 2009.82 422.058 2010.24 422.755V422.755C2010.52 423.099 2010.99 423.254 2011.64 423.22C2012.17 423.217 2012.59 423.227 2012.92 423.249C2013.12 423.262 2013.23 423.485 2013.12 423.656V423.656C2013.07 423.72 2013.06 423.797 2013.08 423.871C2013.17 424.285 2013.23 424.663 2013.27 425.005C2013.29 425.121 2013.28 425.273 2013.25 425.461C2013.09 426.397 2012.77 427.295 2012.58 428.224L2012.46 428.794L2010.17 435.532L2009.26 438.553L2008.03 441.756L2007.64 443.223L2007.25 444.689C2006.46 448.665 2005.88 451.077 2005.52 451.927V451.927C2005.02 452.969 2004.7 454.085 2004.53 455.227L2004.24 457.197C2004.19 457.53 2004.11 457.858 2004.01 458.178V458.178C2003.55 459.581 2003.63 461.104 2004.23 462.454C2004.71 463.54 2004.95 464.144 2004.97 464.266C2005.01 464.617 2005.01 465.027 2004.98 465.498C2004.93 466.14 2004.34 466.587 2003.7 466.539V466.539C2003.11 466.495 2002.58 466.875 2002.37 467.429C2002.15 468.008 2001.86 468.655 2001.51 469.371C2001.31 469.776 2001.18 470.21 2001.12 470.658L2001.07 471.091C2001.02 471.502 2000.93 471.908 2000.8 472.304C2000.31 473.828 2000.09 474.777 2000.14 475.15V475.15C2000.3 476.457 2000.15 477.786 1999.59 478.98C1999.49 479.192 1999.44 479.315 1999.45 479.349C1999.47 479.524 2000.67 479.753 2003.04 480.037C2003.91 480.14 2004.35 481.577 2003.84 482.282V482.282C2003.38 482.979 2002.53 483.854 2001.3 484.908C2000.34 485.726 2000.39 487.268 2001.33 488.115C2001.59 488.351 2001.84 488.598 2002.09 488.857C2002.28 489.05 2002.29 489.353 2002.13 489.566V489.566C2002.04 489.681 2001.91 489.756 2001.76 489.774L2001.56 489.798C2001.08 489.858 2000.7 490.251 2000.66 490.738L2000.63 491.129C2000.6 491.449 2000.47 491.75 2000.27 492.003C1999.21 493.356 1998.71 494.698 1998.79 496.029ZM2139.45 401.567C2139.22 401.948 2138.85 402.225 2138.41 402.279V402.279C2138.02 402.328 2137.65 402.549 2137.5 402.916C2137.43 403.102 2137.36 403.3 2137.31 403.508C2137.02 404.591 2137.91 405.604 2139.02 405.467V405.467L2140.14 405.329C2140.22 405.318 2140.31 405.331 2140.39 405.367L2140.54 405.431C2140.6 405.46 2140.65 405.523 2140.66 405.595V405.595C2140.67 405.719 2140.79 405.802 2140.91 405.772L2141.85 405.541C2142.48 405.389 2143.09 405.814 2143.17 406.451L2143.31 407.635C2143.38 408.156 2143.86 408.678 2144.31 408.941V408.941C2144.52 409.064 2144.52 409.166 2144.58 409.402C2144.73 409.972 2145.02 411.208 2145.46 413.11C2146.06 415.638 2146.42 417.438 2146.55 418.509L2147.6 427.174C2147.62 427.352 2147.67 427.528 2147.73 427.702C2148.25 429.102 2148.46 430.74 2148.64 432.224V432.224C2148.7 432.728 2148.81 433.282 2148.97 433.887C2149.05 434.187 2149.36 434.333 2149.67 434.295V434.295V434.295C2150.51 434.191 2150.44 435.36 2150.14 436.155C2150.02 436.485 2149.97 436.774 2150 437.021C2150.03 437.207 2150.08 437.46 2150.17 437.781C2150.24 438.008 2150.44 439.047 2150.76 440.899C2150.8 441.244 2150.93 441.875 2151.14 442.794C2151.3 443.466 2151.82 443.999 2152.32 444.465V444.465V444.465C2153.23 445.174 2153.87 446.269 2153.86 447.421C2153.86 447.906 2153.88 448.395 2153.93 448.887C2153.95 449.14 2153.85 449.389 2153.64 449.537V449.537C2153.16 449.88 2153.3 450.632 2153.87 450.773L2154.56 450.943C2155.45 451.162 2155.62 452.354 2154.83 452.814L2154.36 453.084C2153.66 453.491 2153.54 454.452 2154.1 455.026L2156.58 457.524C2158.14 459.099 2158.1 461.656 2156.49 463.184L2156.21 463.45C2155.07 464.535 2154.6 466.159 2155 467.687L2155.74 470.548C2155.88 471.109 2155.93 471.691 2155.91 472.27C2155.89 472.702 2155.9 473.131 2155.92 473.559C2155.95 474.339 2156.46 474.992 2156.94 475.605C2157.04 475.723 2157.12 475.849 2157.2 475.982C2157.43 476.355 2157.75 476.674 2158.16 476.812L2158.63 476.969C2158.89 477.056 2159.08 477.287 2159.11 477.562V477.562C2159.15 477.841 2159.02 478.115 2158.78 478.262V478.262C2158.19 478.621 2158.38 479.526 2159.06 479.624C2160.79 479.874 2161.89 480.112 2162.38 480.336C2162.58 480.429 2162.53 480.643 2162.33 480.75V480.75C2160.58 481.819 2159.65 482.525 2159.55 482.868L2158.98 485.93C2158.88 486.498 2158.68 487.044 2158.39 487.543L2157.57 488.944C2157.55 488.983 2157.54 489.029 2157.55 489.075V489.075L2157.98 492.071L2158.11 493.124C2158.16 493.575 2158.37 493.99 2158.65 494.345C2158.94 494.709 2159.18 495.071 2159.36 495.432C2159.44 495.597 2159.61 495.699 2159.8 495.677L2159.94 495.659C2160 495.651 2160.06 495.607 2160.08 495.545V495.545C2160.16 495.344 2160.65 495.444 2160.65 495.659C2160.65 495.79 2160.66 495.925 2160.66 496.066C2160.73 496.672 2160.58 497.117 2160.19 497.402C2159.63 497.896 2159.31 498.338 2159.22 498.728C2158.93 500.986 2158.83 502.701 2158.92 503.871C2159.37 507.552 2159.65 510.781 2159.75 513.558C2159.73 513.797 2159.73 514.009 2159.76 514.196C2159.77 514.285 2159.82 514.449 2159.91 514.69C2160.19 515.403 2160.21 516.106 2159.84 516.776C2159.81 516.834 2159.77 516.895 2159.74 516.958C2159.62 517.165 2159.36 517.339 2159.39 517.575V517.575V517.575C2159.75 520.144 2159.57 522.781 2158.65 525.209C2158.34 526.021 2158.11 526.538 2157.96 526.76C2157.55 527.284 2157.07 527.58 2156.51 527.649V527.649C2156.22 527.685 2155.95 527.837 2155.88 528.119C2155.71 528.78 2155.66 529.319 2155.71 529.735V529.735C2155.79 530.45 2156.39 530.989 2157.11 531.043C2157.61 531.081 2158 531.083 2158.27 531.049C2158.49 531.021 2159.63 530.642 2161.67 529.911C2162.84 529.491 2164.05 529.175 2165.28 528.975L2167.11 528.678C2169.75 527.925 2171.21 527.531 2171.49 527.497C2171.82 527.457 2172.05 527.451 2172.2 527.481C2174.11 527.716 2175.23 527.814 2175.56 527.774C2176.44 527.665 2177.2 527.334 2177.84 526.782C2180.59 524.55 2182.15 523.411 2182.52 523.365C2182.99 523.308 2183.46 523.509 2183.94 523.97C2185.19 525.151 2185.96 525.852 2186.26 526.073C2186.35 526.134 2186.44 526.119 2186.53 526.061V526.061C2186.88 525.876 2187.48 525.731 2188.32 525.627C2189.34 525.501 2190.39 525.607 2191.47 525.947C2191.57 525.982 2191.66 525.994 2191.75 525.982L2191.82 525.974C2191.87 525.968 2191.92 525.95 2191.96 525.921V525.921C2192 525.893 2192.05 525.874 2192.1 525.868L2192.3 525.843L2192.47 525.823C2193.09 525.746 2193.55 525.213 2193.55 524.584V524.584C2193.54 524.093 2193.82 523.64 2194.28 523.466C2194.95 523.212 2195.62 523.02 2196.29 522.892C2196.64 522.825 2196.92 523.151 2196.83 523.492V523.492C2196.75 523.777 2196.93 524.067 2197.22 524.108C2197.74 524.181 2198.08 524.206 2198.26 524.184L2202.4 523.387L2205.33 523.025L2212.63 521.979C2212.73 521.967 2213.05 521.974 2213.59 521.999C2214.1 522.024 2214.59 521.793 2214.89 521.38V521.38C2215.2 520.966 2215.69 520.747 2216.2 520.731C2216.39 520.725 2216.56 520.712 2216.72 520.693V520.693C2217.56 520.589 2218.39 520.414 2219.23 520.447C2222.46 520.571 2224.1 520.63 2224.14 520.625C2224.6 520.568 2225.5 520.363 2226.82 520.009C2227.7 519.807 2228.83 519.619 2230.22 519.447C2232.55 519.159 2234.01 519.025 2234.63 519.043C2237.76 519.223 2239.45 519.298 2239.68 519.269C2240.25 519.198 2240.97 518.868 2241.84 518.279C2242.19 518.037 2242.65 517.999 2243.03 518.204V518.204C2243.31 518.357 2243.64 518.377 2243.94 518.267C2244.2 518.173 2244.36 518.122 2244.42 518.115L2248.3 517.99L2249.93 517.787C2251.02 517.652 2252.12 517.608 2253.22 517.654L2254.13 517.693L2257.35 517.42C2257.63 517.396 2257.92 517.395 2258.2 517.416L2258.4 517.431C2259.82 517.537 2261.21 517.028 2262.23 516.034L2262.86 515.419C2264.17 514.134 2266.21 513.95 2267.73 514.979V514.979C2268.71 515.643 2269.96 515.815 2271.09 515.455V515.455C2271.33 515.376 2271.59 515.322 2271.85 515.289C2274.32 514.975 2276.15 514.335 2277.34 513.371C2278.14 512.722 2278.47 511.693 2278.68 510.682V510.682V510.682C2278.75 509.706 2279.81 509.068 2280.07 508.122C2280.17 507.747 2280.29 507.37 2280.42 506.991C2280.73 506.054 2280.86 505.399 2280.82 505.026C2280.69 503.955 2280.25 503.465 2279.51 503.557V503.557C2277.96 503.748 2276.8 505.088 2275.34 505.614C2274.47 505.927 2273.37 506.32 2272.02 506.792C2271.09 507.118 2270.22 507.326 2269.24 507.471V507.471C2268.32 507.608 2267.31 507.844 2266.53 508.343C2266.39 508.43 2266.25 508.522 2266.12 508.62V508.62C2265.37 509.176 2265.22 510.302 2264.34 510.608C2264.31 510.619 2264.28 510.629 2264.25 510.64C2264.06 510.702 2263.98 510.721 2263.79 510.759V510.759C2262.58 510.998 2261.24 510.683 2260.02 510.604C2259.93 510.599 2259.85 510.601 2259.78 510.61C2259.17 510.685 2258.62 510.99 2258.12 511.524C2255.86 513.885 2254.66 515.074 2254.52 515.091C2254.35 515.112 2253.57 514.227 2252.18 512.436C2251.97 512.164 2251.58 512.1 2251.3 512.291L2251.25 512.322C2251.19 512.365 2251.13 512.424 2251.1 512.493V512.493C2251.06 512.572 2251.04 512.661 2251.05 512.748L2251.16 513.618C2251.25 514.335 2250.67 514.958 2249.95 514.924V514.924C2249.53 514.904 2249.15 514.653 2248.96 514.271L2248.75 513.829C2248.38 513.063 2247.56 512.63 2246.72 512.705C2246.38 512.735 2246.15 512.746 2246.03 512.737C2244.74 512.567 2244.04 512.487 2243.95 512.499C2243.76 512.522 2243.53 512.574 2243.26 512.655V512.655C2242.75 512.867 2242.14 512.914 2241.58 512.943L2241.46 512.949L2229.01 514.703L2227.89 514.841C2226.11 515.298 2225.19 515.53 2225.15 515.535C2225.01 515.553 2223.53 515.617 2220.71 515.729C2220.43 515.717 2220.17 515.726 2219.94 515.754V515.754C2219.56 515.801 2219.21 515.953 2218.85 516.069C2217.78 516.412 2217.19 516.591 2217.07 516.606C2217.02 516.612 2216.7 516.629 2216.09 516.657L2213.65 516.959L2210.99 517.217L2203.05 517.633V517.633C2202.81 517.661 2202.57 517.7 2202.4 517.86C2202.28 517.975 2202.15 518.14 2202.03 518.353C2201.89 518.581 2201.74 518.804 2201.56 518.999L2200.66 519.976C2200.01 520.67 2198.92 520.659 2198.29 519.953L2197.39 518.943C2197.31 518.851 2197.17 518.841 2197.07 518.922V518.922C2197.06 518.936 2197.04 518.947 2197.02 518.955L2196.96 518.984C2196.89 519.02 2196.82 519.069 2196.76 519.128C2195.79 520.094 2194.95 520.621 2194.22 520.711C2193.99 520.74 2193.83 520.736 2193.73 520.701V520.701C2191.97 520.053 2190.12 519.871 2188.26 520.101L2187.3 520.22V520.22C2185.67 520.281 2184.05 520.568 2182.49 521.073L2180.12 521.843C2179.73 521.97 2179.32 522.059 2178.92 522.109L2177.62 522.27C2176.87 522.362 2176.19 522.726 2175.7 523.292L2175.38 523.661C2174.6 524.551 2173.36 524.613 2172.23 524.284V524.284C2171.85 524.161 2171.56 524.035 2171.36 523.905C2171.15 523.768 2171.07 523.638 2170.95 523.421V523.421C2170.15 522.055 2170.98 520.301 2171.91 519.014C2172.98 517.519 2173.43 516.112 2173.27 514.793L2172.15 509.044L2171.79 506.413C2171.58 504.874 2170.76 503.475 2170.57 501.933V501.933C2170.53 501.581 2170.58 500.992 2170.72 500.168C2170.9 499.131 2170.55 497.68 2169.5 497.809V497.809C2169.29 497.836 2168.95 498.061 2168.5 498.486C2168.43 498.549 2168.35 498.591 2168.25 498.602V498.602C2168.09 498.623 2167.92 498.542 2167.84 498.395C2167.55 497.88 2167.32 497.395 2167.15 496.939C2166.88 496.21 2167.22 495.434 2167.84 494.958L2167.92 494.889C2168.69 494.294 2168.81 493.269 2168.69 492.306V492.306C2168.69 492.259 2168.64 491.651 2168.54 490.48L2168.25 486.636C2168.22 486.201 2168.23 485.763 2168.27 485.329V485.329C2168.33 484.713 2168.32 484.092 2168.23 483.479L2168.09 482.557C2168.02 482.069 2167.98 481.577 2167.99 481.083V481.083C2168 480.162 2167.87 479.244 2167.61 478.361L2167.52 478.051L2167.3 476.787C2167.14 475.825 2166.9 474.878 2166.59 473.951L2166.04 472.276V472.276C2165.71 471.584 2165.84 470.737 2165.2 470.322C2164.46 469.845 2164.05 469.304 2163.98 468.701C2163.95 468.457 2163.93 468.2 2163.92 467.928C2163.91 467.437 2164.17 466.985 2164.58 466.713V466.713C2165.06 466.391 2165.33 465.823 2165.26 465.245L2165.21 464.86C2165.08 463.788 2164.92 463.075 2164.74 462.719C2164.41 462.063 2164.13 461.459 2163.89 460.908C2163.27 459.478 2164.29 457.893 2164.1 456.343V456.343C2163.94 455.039 2163.8 454.299 2163.69 454.124C2163.47 453.753 2162.93 453.319 2162.07 452.82C2161.96 452.755 2161.82 452.76 2161.72 452.832V452.832C2161.53 452.952 2161.29 452.877 2161.22 452.673C2161.11 452.372 2161.04 452.138 2161.02 451.972C2160.96 451.496 2161.04 450.82 2161.26 449.944C2161.29 449.846 2161.4 449.806 2161.48 449.868V449.868C2161.52 449.9 2161.58 449.907 2161.63 449.887L2162.27 449.607C2162.54 449.489 2162.77 449.282 2162.9 449.014C2163.08 448.667 2163.2 448.373 2163.29 448.132C2163.39 447.811 2163.35 447.468 2163.28 447.137L2162.5 443.773L2161.98 439.05C2161.87 438.094 2161.7 437.148 2161.46 436.218L2161.29 435.553V435.553C2160.91 433.514 2162.11 431.172 2164.13 430.69C2164.21 430.671 2164.29 430.652 2164.36 430.632L2166.31 430.288C2166.81 430.2 2167.3 430.057 2167.77 429.86V429.86C2168.42 429.589 2169.1 429.419 2169.8 429.356L2170.85 429.262L2172.27 429.046C2172.99 428.937 2173.71 428.921 2174.44 428.998V428.998C2175.14 429.074 2175.85 429.06 2176.56 428.957L2180.08 428.442C2181.24 428.272 2182.41 428.205 2183.58 428.242L2183.95 428.253C2185.88 428.313 2187.82 428.091 2189.68 427.595L2190.37 427.412C2191.37 427.148 2192.38 426.975 2193.41 426.895V426.895L2195.5 426.737C2196.07 426.694 2196.64 426.7 2197.21 426.754V426.754C2198.35 426.864 2199.5 426.775 2200.61 426.499C2202.12 426.123 2202.98 425.923 2203.19 425.897C2203.44 425.867 2204.43 425.851 2206.17 425.85C2206.73 425.849 2207.28 425.793 2207.82 425.664C2208.14 425.588 2208.43 425.514 2208.7 425.441C2210.02 425.081 2211.46 424.714 2212.78 425.064V425.064C2212.98 425.134 2213.13 425.164 2213.22 425.152V425.152C2213.42 425.128 2213.54 424.96 2213.63 424.786C2214.89 422.476 2215.54 421.318 2215.58 421.313C2215.81 421.284 2216.93 422.139 2218.94 423.877C2219.57 424.414 2220.23 424.639 2220.93 424.552C2221.16 424.523 2221.56 424.407 2222.12 424.204C2222.85 423.939 2223.41 423.374 2223.91 422.778C2224.12 422.527 2224.35 422.286 2224.61 422.053C2225.05 421.655 2225.32 421.083 2225.24 420.494V420.494C2225.17 419.918 2225.42 419.355 2225.86 418.98C2226.02 418.843 2226.17 418.715 2226.29 418.597C2226.73 418.164 2226.93 417.919 2227.04 417.312V417.312C2227.22 416.379 2226.37 415.133 2225.42 415.208C2225.31 415.217 2225.2 415.227 2225.1 415.24C2224.68 415.292 2223.94 415.786 2222.88 416.721C2222.19 417.326 2221.73 417.809 2221.5 418.169V418.169C2220.77 419.293 2219.29 419.669 2218.36 418.715L2217.21 417.54C2217.06 417.378 2216.8 417.379 2216.64 417.541V417.541C2216.62 417.559 2216.6 417.579 2216.59 417.599C2216.36 417.9 2215.76 418.146 2214.77 418.338C2214.52 418.388 2214.34 418.628 2214.37 418.89V418.89C2214.4 419.167 2214.2 419.417 2213.92 419.437C2213.14 419.494 2212.54 419.53 2212.11 419.543C2211.03 419.583 2210.28 419.628 2209.86 419.68C2209.68 419.703 2209.52 419.746 2209.39 419.81C2207.62 420.407 2205.02 420.965 2201.59 421.484C2199.38 421.853 2197.66 422.112 2196.45 422.262C2195.76 422.348 2195.16 422.446 2194.65 422.556C2192.62 422.949 2191.42 423.168 2191.05 423.214C2190.87 423.237 2190.7 423.234 2190.56 423.205C2188.74 423.051 2187.82 422.977 2187.77 422.982C2187.31 423.04 2186.39 423.271 2185.02 423.677C2184.44 423.891 2183.75 424.047 2182.96 424.145C2182.22 424.237 2181.44 424.286 2180.64 424.29C2178.7 424.246 2176.85 424.334 2175.09 424.552L2172.32 424.539L2169.03 424.805L2164.33 424.536C2164.02 424.546 2163.72 424.555 2163.44 424.562C2160.7 424.63 2157.98 422.907 2157.65 420.185V420.185C2157.63 420.057 2157.63 419.864 2157.63 419.605C2157.67 418.25 2157.1 416.895 2155.9 416.288V416.288C2155.34 415.978 2154.93 415.698 2154.66 415.447C2154.5 415.278 2154.4 415.054 2154.37 414.774C2154.35 414.604 2154.34 414.31 2154.34 413.893C2154.34 413.402 2154.81 413.159 2155.3 413.099V413.099V413.099C2157.15 412.87 2157.29 410.232 2156.99 408.387C2156.99 408.375 2156.98 408.363 2156.98 408.35C2156.85 407.51 2156.6 406.701 2156.24 405.924C2155.8 404.985 2155.67 403.5 2156.62 403.097V403.097C2156.79 403.027 2156.85 403.066 2157.03 403.083L2157.69 403.144C2158.59 403.228 2159.5 403.164 2160.39 402.976C2161.03 402.841 2161.48 402.757 2161.74 402.725L2163.07 402.561C2166.41 402.147 2168.43 402.016 2169.1 402.168C2169.4 402.22 2169.66 402.265 2169.88 402.302C2170.52 402.411 2171.15 402.361 2171.77 402.184V402.184C2172.6 401.945 2173.46 401.794 2174.33 401.734L2180.04 401.333C2180.64 401.291 2181.23 401.124 2181.76 400.844V400.844C2182.28 400.573 2182.85 400.408 2183.43 400.359L2186.19 400.124L2188.88 399.52C2189.88 399.293 2190.91 399.162 2191.94 399.129V399.129L2194.53 398.88L2197.01 398.812C2198.78 398.763 2200.53 398.461 2202.21 397.914V397.914C2203.33 397.549 2204.48 397.293 2205.65 397.148L2206.75 397.012L2208.63 396.61C2209.99 396.318 2211.38 396.177 2212.78 396.155C2213.9 396.137 2214.66 396.104 2215.05 396.055L2218.47 395.632L2218.96 395.572V395.572C2219.37 395.521 2219.79 395.559 2220.19 395.676C2221.27 395.993 2221.99 396.149 2222.35 396.145C2223.38 396.111 2224.51 396.066 2225.73 396.01L2225.87 395.993C2226.39 395.976 2227.12 395.459 2228.09 394.442C2228.96 393.482 2229.55 392.889 2229.85 392.663L2232.17 391.009C2232.79 390.569 2233.33 390.029 2233.77 389.411V389.411V389.411C2234.63 388.077 2233.42 386.525 2231.84 386.671C2231.83 386.672 2231.82 386.673 2231.81 386.675C2231.72 386.686 2230.69 386.955 2228.72 387.482L2224.81 388.463C2218.74 390.492 2215.54 391.526 2215.21 391.566C2214.84 391.612 2213.9 391.634 2212.39 391.632C2211.73 391.619 2211.12 391.647 2210.56 391.716C2210 391.785 2209.45 391.901 2208.91 392.063C2206.39 392.678 2203.76 393.207 2201.03 393.65C2200.55 393.728 2200.12 394.006 2199.85 394.418V394.418C2199.56 394.882 2199.05 395.174 2198.5 395.202L2196 395.328C2195.69 395.344 2195.39 395.216 2195.19 394.983V394.983C2194.98 394.733 2194.66 394.605 2194.33 394.643L2180.48 396.221C2180.01 396.232 2179.48 396.391 2178.91 396.699V396.699C2178.21 397.051 2177.44 397.138 2176.67 397.042L2174.68 396.797L2173.49 396.747C2172.29 396.696 2171.1 396.527 2169.92 396.287C2168.55 396.007 2167.69 395.888 2167.35 395.93C2166.59 396.024 2165.79 396.328 2164.96 396.841C2164.28 397.263 2163.51 397.549 2162.7 397.534V397.534C2162.54 397.531 2162.37 397.539 2162.21 397.56L2161.55 397.642C2161.19 397.653 2160.54 397.438 2159.61 396.997C2158.71 396.573 2157.69 396.63 2156.7 396.752V396.752C2155.86 396.856 2155.12 396.924 2154.46 396.958C2150.14 397.068 2147.79 397.146 2147.42 397.192C2147 397.244 2146.66 397.334 2146.39 397.461C2145.49 397.809 2144.94 397.995 2144.76 398.018V398.018C2143.69 398.15 2142.59 398.311 2141.8 399.047C2141.48 399.35 2141.17 399.616 2140.88 399.846C2140.34 400.282 2139.86 400.856 2139.45 401.567Z" fill="white"/>
<path d="M1328.19 570.116C1328.03 569.289 1328.31 568.455 1328.06 567.64L1278.84 411.628C1275.81 402.051 1266.15 395.457 1255.16 395.457H1132.11V284.012C1132.11 197.994 1054.89 128 959.972 128H812.018C717.103 128 639.882 197.994 639.882 284.012V395.451H73.8282C62.8422 395.451 53.1807 402.045 50.1562 411.621L0.934982 567.634C0.679987 568.455 0.956231 569.289 0.807484 570.116C0.573738 571.348 0 572.457 0 573.747V1064.07C0 1076.39 11.0073 1086.36 24.6141 1086.36H123.056V1156.84H172.278V1086.36H1156.72V1156.84H1205.94V1086.36H1304.39C1317.99 1086.36 1329 1076.4 1329 1064.07V573.747C1329.01 572.464 1328.43 571.348 1328.19 570.116ZM689.111 284.012C689.111 222.568 744.246 172.574 812.018 172.574H959.972C1027.75 172.574 1082.89 222.568 1082.89 284.012V395.451H689.111V284.012ZM92.3862 440.025H664.496H1107.49H1236.61L1271.75 551.463H57.2464L92.3862 440.025ZM1279.79 1041.79H1205.94H1156.72H172.278H123.056H49.2212V596.037H1279.78V1041.79H1279.79Z" fill="white"/>
<path d="M732.998 411.838H1279V562.838L803.499 588.838C803.499 588.838 687.998 515.838 803.498 488.338C918.998 460.838 732.998 411.838 732.998 411.838Z" fill="white"/>
<path d="M771 588.871H1294C1294 588.871 1294 785.905 1294 860.871C1294 935.838 1088.5 952.838 1047.5 786.371C1006.5 619.905 771 588.871 771 588.871Z" fill="white"/>
</svg>
