<svg width="2739" height="1275" viewBox="0 0 2739 1275" fill="none" xmlns="http://www.w3.org/2000/svg">
<path d="M1328.19 687.278C1328.03 686.451 1328.31 685.617 1328.06 684.802L1278.84 528.79C1275.81 519.213 1266.15 512.619 1255.16 512.619H1132.11V401.175C1132.11 315.157 1054.89 245.162 959.972 245.162H812.018C717.103 245.162 639.882 315.157 639.882 401.175V512.613H73.8282C62.8422 512.613 53.1807 519.207 50.1562 528.784L0.934982 684.796C0.679987 685.617 0.956231 686.451 0.807484 687.278C0.573738 688.51 0 689.62 0 690.909V1181.24C0 1193.55 11.0073 1203.53 24.6141 1203.53H123.056V1274H172.278V1203.53H1156.72V1274H1205.94V1203.53H1304.39C1317.99 1203.53 1329 1193.56 1329 1181.24V690.909C1329.01 689.626 1328.43 688.51 1328.19 687.278ZM689.111 401.175C689.111 339.73 744.246 289.736 812.018 289.736H959.972C1027.75 289.736 1082.89 339.73 1082.89 401.175V512.613H689.111V401.175ZM92.3862 557.187H664.496H1107.49H1236.61L1271.75 668.625H57.2464L92.3862 557.187ZM1279.79 1158.95H1205.94H1156.72H172.278H123.056H49.2212V713.199H1279.78V1158.95H1279.79Z" fill="white"/>
<path d="M73.828 445.754H442.997C456.597 445.754 467.612 435.786 467.612 423.463V22.2907C467.612 9.96855 456.597 0.000488281 443.005 0.000488281H73.828C60.2282 0.000488281 49.2139 9.96855 49.2139 22.2907V423.463C49.221 435.779 60.2353 445.754 73.828 445.754ZM98.4492 44.5745H418.383V401.173H98.4492V44.5745Z" fill="white"/>
<path d="M172.277 178.304C178.574 178.304 184.871 176.13 189.681 171.774L238.902 127.2C248.514 118.496 248.514 104.39 238.902 95.6859C229.29 86.9815 213.714 86.9815 204.102 95.6859L154.881 140.26C145.269 148.964 145.269 163.07 154.881 171.774C159.69 176.123 165.98 178.304 172.277 178.304Z" fill="white"/>
<path d="M302.537 95.6796L154.881 229.408C145.269 238.113 145.269 252.218 154.881 260.922C159.69 265.271 165.98 267.452 172.284 267.452C178.581 267.452 184.878 265.278 189.688 260.922L337.344 127.2C346.956 118.496 346.956 104.39 337.344 95.6861C327.732 86.9816 312.163 86.9752 302.537 95.6796Z" fill="white"/>
<path d="M1194.83 497.519C1353.85 506.65 1442.66 688.734 1348.2 816.981C1325.59 847.676 1278.48 843.457 1261.69 809.232L1144.97 571.387C1127.65 536.093 1155.58 495.265 1194.83 497.519Z" fill="white"/>
<path d="M1429.78 532.619L1667.41 486.314L1691.17 679.86L1449.22 690.93L1429.78 532.619Z" fill="white"/>
<path d="M2528.78 284.878L2596.3 260.426L2645.29 674.543L2575.45 664.927L2528.78 284.878Z" fill="white"/>
<path fill-rule="evenodd" clip-rule="evenodd" d="M2504.4 290.013L1685.02 427.227L1722.68 733.924L2550.59 666.188L2504.4 290.013ZM1855.44 558.972L1853.35 559.866C1853.06 560.609 1852.94 561.144 1852.98 561.47C1853.02 561.795 1853.12 562.255 1853.29 562.848C1853.58 563.663 1853.81 564.533 1853.97 565.457C1854.63 569.296 1854.96 571.285 1854.98 571.425C1855.54 572.915 1855.83 573.752 1855.86 573.938C1855.86 573.985 1855.86 574.505 1855.84 575.5L1855.87 575.779C1856.01 576.942 1856.53 578.437 1857.41 580.265L1861.54 588.472L1862.03 589.615C1863.09 590.902 1863.83 591.945 1864.26 592.742C1864.89 592.523 1865.47 592.382 1865.98 592.319C1867.14 592.176 1867.8 592.756 1867.96 594.059C1868.05 594.756 1867.96 595.925 1867.68 597.564C1869.15 598.707 1870.22 599.59 1870.91 600.213C1873.07 602.404 1874.58 603.754 1875.45 604.261C1875.95 604.53 1876.6 604.616 1877.39 604.518C1877.81 604.467 1878.34 604.378 1878.99 604.252C1879.83 604.905 1880.46 605.842 1880.89 607.064C1881.86 607.607 1883.26 608.616 1885.09 610.091C1886.67 611.455 1889.97 612.537 1894.98 613.339L1895.25 612.101C1896.34 612.063 1897.16 612.079 1897.74 612.15C1898.28 612.274 1899.04 612.723 1900.03 613.498C1902.32 613.265 1904.05 613.147 1905.23 613.143C1906.64 613.112 1907.37 613.093 1907.42 613.087C1912.49 612.464 1915.09 612.121 1915.23 612.058L1916.18 611.161L1918.32 610.686L1919.63 610.384C1919.99 610.292 1920.6 610.595 1921.44 611.295C1924.93 610.535 1928.8 609.541 1933.04 608.311L1935.61 607.855L1941.1 605.835C1942.54 605.611 1943.7 605.326 1944.61 604.979L1948.26 603.609C1951.33 603.232 1953.16 602.913 1953.74 602.653C1955.72 601.465 1957.04 600.832 1957.69 600.752C1957.97 600.717 1958.35 600.718 1958.82 600.754C1959.15 600.761 1959.44 600.75 1959.67 600.721L1959.81 600.704C1964.36 599.342 1967.26 598.537 1968.51 598.29L1969.31 597.341C1970.51 597.477 1971.46 597.503 1972.16 597.417C1972.85 597.331 1974.84 596.615 1978.13 595.267C1981.89 594.758 1983.84 594.471 1983.97 594.408C1984.32 594.176 1984.73 593.511 1985.21 592.413L1987.25 591.668C1987.15 591.255 1987.08 590.885 1987.04 590.56C1987 590.234 1987.01 589.926 1987.07 589.635L1987.37 588.04C1987.36 587.993 1987.1 587.577 1986.58 586.791C1986.29 586.354 1986.07 585.554 1985.93 584.391L1985.87 583.903C1985.73 582.03 1985.66 581.071 1985.66 581.024C1985.58 580.751 1985.25 580.224 1984.68 579.444C1984.22 579.501 1983.91 579.491 1983.76 579.415C1983.41 579.269 1982.83 578.585 1982.02 577.362L1983.41 576.554C1983.45 575.746 1983.54 575.144 1983.68 574.749L1983.9 574.227L1977.52 570.122L1979.25 569.185C1979.28 569.3 1979.32 569.419 1979.36 569.542C1980.42 568.94 1981 568.514 1981.11 568.264C1981.16 568.228 1981.21 568.171 1981.26 568.095L1983.1 567.1C1982.71 566.674 1982.31 566.464 1981.89 566.469C1981.65 567.275 1981.44 567.817 1981.26 568.095L1979.25 569.185C1978.93 568.153 1978.75 567.449 1978.7 567.073C1978.65 566.654 1978.86 565.471 1979.33 563.524L1980.93 563.327C1980.95 562.333 1981.01 561.429 1981.1 560.615C1981.25 558.802 1981.3 557.45 1981.24 556.56C1980.95 553.432 1980.75 551.449 1980.65 550.611C1980.44 548.936 1980.09 547.232 1979.59 545.498C1979.49 545.039 1979.43 544.693 1979.4 544.46C1979.39 544.367 1979.39 543.044 1979.41 540.492L1979.39 540.352C1979.34 539.934 1978.75 539.014 1977.63 537.593C1976.17 538.008 1974.67 538.452 1973.12 538.926L1973.05 538.934L1970.36 538.911C1970.17 538.934 1969.53 539.084 1968.43 539.36C1968.06 539.453 1967.72 539.519 1967.39 539.559C1966.55 539.661 1965.18 539.641 1963.27 539.497C1962.4 540.501 1961.64 541.043 1960.99 541.123C1960.76 541.152 1960.6 541.149 1960.5 541.113L1956.71 540.303C1956.42 540.244 1955.46 540.315 1953.83 540.515C1952.58 540.669 1951.88 540.778 1951.75 540.841C1951.21 541.096 1950.59 541.598 1949.88 542.346C1948.57 543.64 1947.96 544.636 1948.05 545.333C1948.14 546.031 1948.55 546.335 1949.3 546.243C1949.71 546.192 1950.15 545.925 1950.61 545.444C1951.72 545.591 1952.39 545.651 1952.62 545.623C1957.04 545.08 1959.45 544.713 1959.85 544.522C1960.98 544.054 1961.56 543.816 1961.61 543.811L1961.68 543.802L1962.81 544.371C1963.4 544.204 1963.93 544.092 1964.4 544.035C1964.82 543.983 1965.25 544.072 1965.7 544.299C1967.18 545.157 1968.23 546.753 1968.84 549.085L1970.03 548.94C1971.8 548.723 1973.48 548.941 1975.07 549.596C1975.27 549.666 1975.37 549.725 1975.37 549.771C1975.38 549.864 1975.32 549.943 1975.19 550.006L1971.08 552.282C1970.28 552.711 1969.97 553.669 1970.15 555.158L1970.24 555.856L1971.32 563.516C1972.19 566.384 1972.66 568.051 1972.72 568.516C1972.92 570.144 1972.87 571.519 1972.58 572.641L1972.5 573.077L1979.37 579.458L1973.98 583.449L1980.36 586.35L1974.7 588.745C1974.21 588.947 1974.01 589.444 1974.11 590.235C1974.12 590.374 1974.2 590.625 1974.34 590.985C1973.39 591.291 1971.64 592.026 1969.09 593.189L1965.58 594.045C1962.82 595.045 1961.16 595.579 1960.6 595.647C1960.05 595.716 1959.25 595.743 1958.21 595.729C1958.07 597.351 1957.57 598.216 1956.68 598.325C1956.5 598.348 1956.35 598.342 1956.26 598.307C1954.88 597.862 1954.07 597.654 1953.84 597.682C1953.61 597.711 1952.13 598.175 1949.41 599.077C1945.23 600.062 1943.1 600.583 1943.01 600.641C1942.67 600.919 1942.32 601.387 1941.98 602.043C1940.19 602.498 1938.88 602.778 1938.04 602.88C1937.63 602.932 1937.25 602.954 1936.92 602.948C1935.33 603.049 1934.37 603.119 1934.04 603.159C1933.71 603.199 1932.84 603.354 1931.41 603.625C1926.26 604.445 1923.53 604.875 1923.2 604.915C1922.88 604.955 1922.6 604.966 1922.36 604.948L1921.14 604.814C1921.09 604.82 1920.58 605.095 1919.61 605.64C1919.17 605.883 1918.6 606.047 1917.9 606.133C1915.67 606.407 1913.75 606.028 1912.16 604.995C1910.69 607.585 1909.39 608.949 1908.27 609.086C1908.13 609.103 1907.2 608.839 1905.48 608.295C1903.76 607.75 1902.51 607.338 1901.72 607.057C1899.04 606.016 1896.7 604.627 1894.69 602.89L1894.27 603.509L1893.52 602.609C1893.26 602.358 1892.69 602.168 1891.82 602.038C1890.71 601.797 1890.07 601.639 1889.92 601.563C1889.82 601.528 1889.38 601.204 1888.6 600.592C1888.34 600.388 1887.87 600.067 1887.21 599.63C1885.61 598.551 1884.36 597.571 1883.45 596.691C1882.42 595.683 1881.24 594.884 1879.89 594.294C1878.94 593.844 1878.39 593.416 1878.25 593.008L1877.37 590.495C1877.21 589.948 1876.55 588.99 1875.39 587.621C1875.07 587.33 1874.49 586.645 1873.65 585.568C1873.07 586.206 1872.52 586.557 1872.01 586.619C1871.5 586.682 1871.21 586.458 1871.15 585.946C1871.14 585.9 1871.23 584.33 1871.42 581.237L1871.33 581.106C1870.23 579.447 1869.49 577.247 1869.1 574.508L1866.95 574.277C1863.05 574.425 1861.08 574.383 1861.05 574.15L1861.46 574.029C1864.22 572.983 1866.43 572.121 1868.09 571.445C1867.99 570.985 1867.8 570.418 1867.53 569.743C1866.95 568.492 1866.53 567.386 1866.27 566.426L1864.9 566.807C1864.16 566.142 1863.75 565.484 1863.67 564.833C1863.54 563.81 1864.1 562.819 1865.35 561.863C1864.86 560.129 1864.58 559.053 1864.53 558.634C1864.46 558.076 1864.42 556.334 1864.39 553.41L1864.37 553.27C1864.29 552.619 1863.43 551.922 1861.78 551.18C1861.91 550.314 1862.65 549.633 1864 549.136C1863.95 547.112 1864.1 545.488 1864.47 544.262C1865.1 542.106 1865.38 540.726 1865.31 540.121C1865.17 539.004 1864.92 537.736 1864.56 536.317C1865.12 535.492 1865.41 535.031 1865.45 534.932C1865.52 534.781 1866.17 532.364 1867.39 527.68C1867.94 526.338 1868.22 525.618 1868.26 525.519C1868.29 525.374 1868.28 524.926 1868.24 524.176L1867.39 524.209L1867.51 523.416L1868.14 523.408L1868.31 523.601C1868.75 522.98 1869.08 522.207 1869.3 521.283L1870.95 520.868C1871.75 519.352 1872.54 517.697 1873.31 515.902C1874.1 514.247 1874.91 512.754 1875.74 511.425C1876.7 509.607 1877.24 508.62 1877.36 508.463C1877.73 508.039 1878.36 507.395 1879.25 506.531L1878.67 504.69L1880.48 505.034C1881.78 503.693 1882.55 502.701 1882.81 502.056C1883.1 501.405 1883.32 501.072 1883.46 501.055C1884.18 500.777 1884.69 500.502 1884.99 500.229C1886 499.255 1886.64 498.634 1886.89 498.367C1887.52 497.723 1887.94 496.584 1888.17 494.951C1888.58 494.853 1888.88 494.793 1889.07 494.77C1889.62 494.701 1890.43 494.744 1891.49 494.897C1891.98 493.893 1892.33 493.306 1892.55 493.138L1895.97 490.451C1897.76 488.861 1899.19 487.766 1900.25 487.163C1902.14 486.08 1904.03 485.093 1905.9 484.202C1906.21 483.976 1906.35 483.438 1906.34 482.589C1908.52 482.274 1909.81 481.998 1910.21 481.761C1912.07 480.398 1913.26 479.686 1913.77 479.623C1914.19 479.571 1915.18 479.78 1916.75 480.249L1921.24 478.139C1922.75 478.142 1923.53 478.141 1923.58 478.135C1924.18 478.061 1924.69 477.786 1925.11 477.31L1927.35 474.272L1929.85 476.161L1933.21 476.386L1934.02 476.641C1934.17 476.67 1934.53 476.342 1935.1 475.658C1935.27 475.449 1935.46 475.33 1935.7 475.301C1936.21 475.239 1937.41 475.61 1939.31 476.417L1943.82 476.287L1947.03 477.027C1949.27 477.224 1950.7 477.285 1951.3 477.21C1951.82 477.148 1952.77 476.417 1954.15 475.019C1954.78 474.375 1955.47 473.795 1956.21 473.279C1957.17 472.642 1957.73 472.242 1957.9 472.079C1958.24 471.801 1958.45 471.351 1958.51 470.729C1957.67 470.029 1957.04 469.705 1956.62 469.757C1956.34 469.791 1955.91 470.104 1955.32 470.696L1954.97 470.739L1953.95 469.873C1952.41 470.062 1950.61 470.023 1948.55 469.757C1944.57 470.056 1942.51 470.214 1942.37 470.231C1939.81 470.499 1938.19 470.603 1937.52 470.544L1937.45 470.552C1937.08 470.598 1936.29 471.686 1935.09 473.817C1930.97 472.151 1928.81 471.33 1928.62 471.353C1928.48 471.37 1928.3 471.439 1928.08 471.561C1926.48 472.371 1925.66 472.779 1925.61 472.785L1923.04 473.172L1921.65 473.413L1919.65 473.871L1917.98 474.644C1914.85 475.689 1911.96 476.776 1909.31 477.904C1908.29 478.407 1906.89 478.814 1905.14 479.124L1903.21 480.141L1899.19 482.05L1896.76 483.624C1895 484.597 1893.55 485.506 1892.42 486.353C1892.41 487.393 1892.34 487.946 1892.2 488.009C1892.14 488.3 1891.61 488.767 1890.6 489.41C1890.07 489.287 1889.31 488.837 1888.31 488.062C1887.46 488.781 1886.07 490.179 1884.15 492.256L1878.81 496.666L1877.79 498.138L1876.19 499.539L1874.65 501.428C1872.91 503.011 1871.39 504.662 1870.09 506.38C1869.6 507.007 1868.51 508.345 1866.83 510.394L1867.7 513.474C1867.1 513.926 1866.63 514.172 1866.3 514.212C1865.89 514.264 1865.27 514.079 1864.47 513.659C1863.76 514.454 1863.33 514.979 1863.17 515.235L1861.73 518.458L1859.35 522.221L1858.4 524.251C1856.12 529.159 1855.04 532.055 1855.14 532.939C1855.25 533.776 1856.07 534.1 1857.6 533.912L1857.41 536.415L1854.34 536.792C1853.87 538.36 1853.55 539.581 1853.38 540.452C1853.35 540.598 1853.1 542.824 1852.64 547.131L1852.25 549.162C1852.33 552.128 1852.34 554.11 1852.27 555.11L1854.08 554.887C1854.48 555.83 1854.93 557.192 1855.44 558.972ZM2009.56 598.562C2008.88 599.212 2008.37 599.865 2008.03 600.521C2009.43 600.774 2011.1 600.947 2013.05 601.038C2014.3 601.215 2015.11 601.281 2015.48 601.235C2016.79 601.075 2017.97 600.529 2019.04 599.595C2020.61 599.685 2021.93 599.665 2023 599.534C2024.86 599.305 2026.45 598.471 2027.79 597.032C2028.74 597.058 2029.59 597.237 2030.33 597.57C2030.64 597.768 2031.27 598.046 2032.21 598.403L2032.45 596.886L2035.38 596.526L2034.67 597.108C2035.38 597.116 2037.28 596.977 2040.36 596.694L2042.13 596.689L2043.82 596.623L2045.61 596.757L2052.52 593.075C2052.57 593.069 2053.45 593.67 2055.15 594.877C2056.14 595.606 2057.14 595.907 2058.17 595.782C2058.21 595.776 2059.06 595.531 2060.7 595.046L2065.38 595.109C2072.53 593.711 2076.29 592.99 2076.66 592.944L2076.87 592.918C2079.25 592.627 2080.84 592.549 2081.66 592.685L2082.24 592.825L2091.18 588.258L2095.98 591.068L2096.58 589.578L2098.26 589.372C2098.76 588.507 2099.45 587.549 2100.31 586.498L2102.32 582.639L2103.25 581.037C2103.49 580.63 2103.54 579.726 2103.42 578.325L2103.06 578.298C2102.36 578.383 2100.65 579.255 2097.93 580.912C2097.44 581.207 2096.44 581.661 2094.9 582.274C2095.09 583.763 2095.05 584.83 2094.8 585.475C2094.3 586.764 2093.72 587.449 2093.07 587.529C2092.98 587.541 2092.91 587.526 2092.85 587.485C2091.42 585.441 2090.64 584.428 2090.5 584.445C2090.17 584.485 2089.7 584.661 2089.07 584.974C2088.72 585.206 2088.04 585.408 2087.02 585.58C2084.58 586.069 2082.29 586.657 2080.16 587.344L2076.77 588.043C2075.32 588.552 2074.29 588.843 2073.69 588.917C2073.18 588.98 2072.62 589.025 2072.01 589.053C2070.31 589.073 2069.13 589.122 2068.48 589.202C2068.34 589.219 2067.18 589.551 2064.99 590.198C2063.22 589.99 2062.15 589.909 2061.77 589.955C2061.54 589.984 2061.29 590.038 2061.01 590.119C2059.37 590.604 2058.53 590.849 2058.48 590.855L2056.52 590.458L2054.61 590.48L2052.12 590.361L2046.67 593.864L2044.05 590.998L2039.93 591.503L2035.13 591.031L2032.37 591.086C2031.17 590.903 2030.4 590.831 2030.08 590.871C2029.75 590.911 2029.36 590.983 2028.9 591.087C2028.23 590.649 2027.49 590.386 2026.68 590.297C2025.62 590.144 2025.03 589.578 2024.91 588.601L2023.71 577.627C2023.68 577.441 2023.36 576.702 2022.73 575.41L2021.15 575.817C2021.14 574.968 2021.17 573.878 2021.24 572.546C2021.19 571.75 2021.18 571.302 2021.22 571.203L2021.79 570.071L2021.54 566.346C2021.86 563.143 2021.98 561.263 2021.91 560.704L2021.76 559.448L2021.55 558.34L2020.05 548.465L2020.17 547.671C2019.03 546.82 2018.27 545.684 2017.91 544.265L2019.25 543.038L2019.35 543.309C2019.45 542.966 2019.49 542.678 2019.46 542.446C2019.42 542.12 2019.35 541.751 2019.25 541.338C2019.06 540.134 2018.88 538.904 2018.73 537.647L2018.52 535.972C2018.45 534.658 2018.15 532.027 2017.62 528.078C2017.54 527.426 2017.52 527.028 2017.55 526.883L2017.54 526.813L2017.4 526.263C2017.64 524.723 2017.75 523.93 2017.74 523.883C2017.65 523.092 2017.17 522.088 2016.31 520.871C2016.04 520.574 2015.58 519.945 2014.95 518.984C2016.29 517.97 2016.9 516.997 2016.79 516.067C2016.48 513.601 2015.74 511.945 2014.55 511.1L2015.57 510.762C2015.69 510.227 2015.76 509.841 2015.78 509.602L2015.83 509.454C2015.76 508.849 2015.01 508.35 2013.59 507.958C2012.08 507.53 2011.23 507.162 2011.05 506.853L2009.29 497.718L2007.98 495.117L2010.81 491.085L2011.09 486.376C2012.44 484.699 2013.37 483.262 2013.89 482.065L2013.66 481.951L2012.96 482.037L2011.69 480.351L2009.98 480.844L2008.15 478.66C2009.07 478.028 2009.52 477.288 2009.51 476.439L2009.76 476.126C2010.28 476.156 2010.68 476.154 2010.96 476.12C2011.29 476.08 2011.76 475.927 2012.39 475.661L2012.33 475.172L2012.12 475.198C2011.83 473.581 2011.61 472.356 2011.46 471.525C2011.26 470.699 2011.13 470.03 2011.07 469.518C2011 468.913 2011.21 468.155 2011.71 467.243L2011.08 465.55L2010.82 463.456C2010.71 462.572 2010.15 462.193 2009.12 462.319C2007.91 462.467 2006.19 463.199 2003.94 464.514L2003.14 464.966L2002.16 466.219L2000.92 467.01L1999.8 467.714C1998.69 467.944 1997.62 468.407 1996.57 469.103C1996.26 469.329 1995.63 469.76 1994.67 470.398L1995.63 472.406L1996.92 472.531C1997.72 473.329 1998.19 474.028 1998.31 474.627C1998.41 475.04 1998.61 475.912 1998.91 477.245L1999.32 479.958C1999.35 480.19 1999.73 480.662 2000.48 481.373L2000.59 482.211C2000.64 482.676 2001.07 483.45 2001.86 484.533C2001.95 485.609 2001.97 486.196 2001.94 486.295C2001.94 486.342 2001.81 486.429 2001.54 486.556L2002.29 492.627L2003.24 493.432C2003.02 495.112 2002.97 496.463 2003.1 497.487L2003.22 498.464C2003.36 499.249 2003.47 499.921 2003.54 500.479L2003.9 503.41L2004.93 508.951L2004.94 509.02C2004.98 510.904 2005.01 511.893 2005.02 511.986C2005.14 512.963 2005.53 513.411 2006.18 513.331C2006.69 513.269 2007.25 512.988 2007.85 512.489L2007.53 514.512L2009.22 515.012L2009.12 515.945C2008.58 516.154 2008.31 516.304 2008.32 516.397L2007.57 517.765C2007.31 518.317 2007.19 518.898 2007.22 519.508L2007.28 519.997L2008.43 520.139L2008.29 521.29L2007.03 521.444C2006.81 521.943 2006.71 522.286 2006.73 522.472C2006.76 522.659 2006.89 522.996 2007.14 523.485C2007.28 523.846 2007.38 524.282 2007.44 524.794C2007.49 525.166 2007.53 525.727 2007.58 526.477L2007.84 528.641C2008.02 530.083 2008.1 531.066 2008.07 531.589C2007.96 532.31 2007.93 532.81 2007.97 533.089C2008.05 533.74 2008.87 534.088 2010.43 534.132C2010.03 535.457 2009.9 536.701 2010.04 537.864L2009.06 537.984C2009.12 538.874 2009.06 539.897 2008.87 541.053C2009.54 543.049 2009.89 544.163 2009.92 544.396L2010.33 550.58L2010.93 553.765C2010.96 554.044 2010.89 554.762 2010.7 555.918L2011.32 556.408L2013.29 555.671L2013.52 557.555C2014.76 558.395 2015.4 559.001 2015.44 559.373C2015.47 559.56 2015.43 559.801 2015.32 560.097L2015.12 560.193L2013.91 560.129L2013.26 560.633C2012.43 561.161 2012.06 561.796 2012.15 562.541L2012.41 564.634L2012.42 564.774C2012.51 565.472 2012.31 566.724 2011.82 568.532L2011.93 570.573L2012.01 572.971L2018.58 577.974L2013.05 582.549L2019.08 583.225C2017.72 584.809 2016.87 585.976 2016.54 586.726C2015.16 589.019 2013.84 591.307 2012.56 593.589C2012.32 593.903 2012.21 594.176 2012.24 594.408C2012.28 594.78 2012.38 595.17 2012.52 595.578C2011.14 597.022 2010.15 598.017 2009.56 598.562ZM2107.25 534.57C2107.39 536.442 2107.41 537.975 2107.32 539.166C2108.38 539.744 2108.97 540.475 2109.08 541.359C2109.18 542.197 2109.08 542.917 2108.78 543.521L2108.09 544.88C2108.06 544.979 2108.06 545.593 2108.11 546.721C2108.24 550.529 2108.33 552.596 2108.37 552.922C2108.42 553.341 2108.77 554.385 2109.4 556.055L2110.05 559.091C2110.14 559.458 2110.67 560.125 2111.64 561.092C2111.06 561.684 2110.8 562.259 2110.86 562.817C2110.91 563.189 2111.25 563.833 2111.88 564.747L2112.32 566.038C2112.45 566.353 2113 566.758 2113.96 567.254L2114.74 569.567L2116.55 569.344L2116.75 569.179L2117.53 569.791L2119.69 569.526L2119.88 569.291L2120.19 569.535C2120.15 570.39 2119.89 571.532 2119.41 572.961C2118.63 572.395 2117.84 572.138 2117.04 572.189C2116.86 572.636 2116.79 572.999 2116.82 573.278C2116.85 573.464 2117.26 573.957 2118.07 574.755C2118.61 575.303 2119 575.844 2119.26 576.38C2120.32 578.516 2120.91 579.671 2121.03 579.846C2121.25 580.102 2122.45 580.805 2124.62 581.955C2127.37 584.357 2128.79 585.575 2128.89 585.61C2131.1 586.662 2132.77 587.543 2133.89 588.255C2134.66 587.594 2135.23 587.24 2135.6 587.195C2135.98 587.149 2136.4 587.167 2136.89 587.25L2136.45 588.862C2140.28 589.714 2143.33 590.142 2145.6 590.147L2146.63 588.108C2148.17 588.013 2149.36 588.268 2150.19 588.875C2150.36 586.398 2150.66 585.181 2151.09 585.223L2155.99 588.233C2158.98 586.827 2160.64 586.104 2160.97 586.064C2161.39 586.012 2161.91 586.019 2162.53 586.085C2162.8 585.202 2163.11 584.644 2163.46 584.412C2163.58 584.256 2164.59 583.612 2166.48 582.483C2167.46 583.165 2168.14 583.484 2168.51 583.438C2169.67 583.295 2171.02 582.539 2172.55 581.17C2174.22 579.784 2176.05 578.733 2178.04 578.017L2177.46 576.105L2178.64 575.96C2179.43 575.863 2181.09 574.95 2183.62 573.223L2189.76 569.565C2192.9 567.101 2194.52 565.84 2194.61 565.782C2195.18 565.429 2196.04 564.991 2197.21 564.471C2197.56 563.483 2197.8 562.981 2197.94 562.964C2198.15 562.749 2198.73 562.419 2199.66 561.973C2200.79 561.173 2202.67 559.881 2205.28 558.096L2208.62 554.71C2208.66 554.658 2209.98 553.859 2212.58 552.312C2213.01 552.022 2214.89 550.587 2218.21 548.007C2218.47 547.787 2219.03 547.364 2219.9 546.738C2220.32 547.111 2220.58 547.457 2220.66 547.777C2220.83 548.417 2221.23 549.88 2221.84 552.167L2221.95 554.774L2222.18 557.862C2222 559.821 2221.94 561.057 2222 561.568C2222.1 562.359 2222.18 562.845 2222.25 563.025C2223.25 565.783 2223.82 567.698 2223.95 568.768C2224.08 569.838 2224.06 570.832 2223.89 571.75C2223.58 573.488 2223.46 574.589 2223.51 575.055C2223.52 575.101 2223.57 575.284 2223.65 575.604C2224.41 575.653 2225.05 575.645 2225.56 575.582C2226.17 575.508 2226.69 575.326 2227.13 575.036L2231.82 571.698L2234.18 570.203L2235.89 567.939C2236.13 567.579 2236.82 567.092 2237.98 566.478L2237.06 562.482L2235.84 562.349C2235.42 561.598 2235.1 560.739 2234.89 559.774C2234.31 558.191 2233.93 556.963 2233.73 556.091C2233.69 555.765 2233.53 555.099 2233.27 554.093L2232.47 553.908L2231.86 552.424C2230.73 552.043 2229.67 551.512 2228.69 550.83L2228.66 550.62C2229.56 550.227 2230.74 549.256 2232.2 547.706C2231.87 546.52 2231.6 545.135 2231.41 543.553L2231.35 543.065L2231.65 540.903C2231.56 540.158 2231.15 539.736 2230.43 539.635C2229.09 539.47 2228.29 539.308 2228.03 539.151C2227.31 538.672 2226.89 537.921 2226.76 536.898C2226.66 536.014 2227.36 535.195 2228.87 534.443C2228.96 532.873 2228.98 531.902 2228.94 531.53L2228.93 531.46C2228.01 525.481 2227.51 522.236 2227.45 521.724C2227.29 520.422 2227.22 519.25 2227.23 518.209C2227.29 517.494 2227.29 516.927 2227.24 516.509C2227.21 516.322 2227.17 516.162 2227.11 516.029C2226.74 515.318 2226.53 514.824 2226.5 514.545C2226.4 514.132 2226.11 511.948 2225.62 507.993C2225.58 507.621 2225.52 506.755 2225.45 505.394C2225.46 505.109 2225.45 504.85 2225.42 504.618C2225.38 504.245 2225.25 503.954 2225.03 503.745C2224.31 502.842 2223.9 502.018 2223.81 501.274C2223.41 498.017 2223.3 495.456 2223.5 493.59L2222.83 489.847C2222.01 484.328 2221.46 481.018 2221.18 479.919L2219.69 479.889L2219.96 478.015L2219.42 477.656C2218.51 477.956 2217.8 478.138 2217.29 478.201L2217.01 478.235C2216.88 477.921 2216.8 477.647 2216.77 477.415C2216.7 476.856 2216.92 476.357 2217.43 475.916C2218.55 474.977 2219.12 474.481 2219.16 474.429C2219.2 474.33 2219.3 473.632 2219.47 472.336C2219.6 471.47 2219.66 470.944 2219.63 470.758C2219.61 470.525 2219.51 470.325 2219.35 470.156C2218.58 469.258 2218.16 468.577 2218.11 468.112C2218.06 467.74 2218.07 467.408 2218.13 467.118C2218.4 465.101 2218.52 463.764 2218.48 463.107C2218.29 460.769 2218.15 459.228 2218.06 458.484C2218.02 458.205 2217.97 457.952 2217.89 457.725C2217.34 455.904 2216.99 454.435 2216.86 453.318C2216.67 451.783 2216.57 450.637 2216.58 449.881C2216.62 444.823 2216.63 442.271 2216.63 442.224C2216.55 441.619 2216.11 440.871 2215.29 439.98C2213.83 440.395 2212.85 440.704 2212.36 440.907C2211.54 441.196 2211.09 441.369 2211 441.427C2210.92 441.485 2208.96 443.048 2205.13 446.115C2203.47 447.216 2202.61 447.842 2202.53 447.993C2202.3 448.4 2202.2 448.766 2202.24 449.091C2202.29 449.51 2202.75 449.973 2203.61 450.481C2203.92 450.679 2204.47 451.085 2205.25 451.697C2205.1 453.511 2205.04 454.58 2205.08 454.906L2206.72 461.363L2207.34 465.254L2208.23 467.271L2208.54 471.554L2214.64 472.221L2209.33 475.14L2209.34 475.209C2209.37 475.82 2209.72 476.391 2210.4 476.921L2212.65 478.487C2212.86 478.65 2212.99 478.965 2213.05 479.43C2213.12 480.035 2212.67 480.798 2211.7 481.721C2211.55 483.581 2211.59 485.441 2211.82 487.302C2211.89 487.907 2212.31 489.557 2213.06 492.25C2213.51 493.943 2213.84 495.673 2214.06 497.441C2214.29 499.349 2214.16 501.137 2213.65 502.804L2216.72 503.561C2216.79 504.544 2216.67 505.456 2216.35 506.298C2215.99 507.24 2215.83 507.85 2215.86 508.129C2215.94 508.734 2216.14 509.417 2216.47 510.18L2217.26 510.295L2217.43 511.691C2218.31 512.291 2218.76 512.708 2218.79 512.941C2218.85 513.406 2218.17 514.056 2216.77 514.89C2216.91 516.477 2217.15 518.62 2217.48 521.319L2217.84 527.084C2217.86 527.27 2217.98 527.846 2218.19 528.812C2218.37 529.923 2218.49 530.641 2218.53 530.967L2218.58 531.385L2218.64 534.211L2218.65 534.281L2219.33 535.756C2218.85 536.523 2217.97 537.812 2216.69 539.623C2215.62 542.068 2214.91 543.407 2214.56 543.639L2212.29 544.768C2211.58 545.138 2210.2 546.629 2208.16 549.241C2207.79 549.665 2207.26 549.966 2206.57 550.145L2206.83 552.238C2206.16 552.179 2205.59 552.178 2205.13 552.235C2203.83 552.395 2202.99 553.442 2202.61 555.378C2201.32 556.386 2200.52 557.004 2200.22 557.23C2199.87 557.462 2198.9 557.887 2197.33 558.506L2194.81 560.515L2192.84 561.749C2192.62 561.871 2192.36 562.446 2192.06 563.474L2189.68 564.899L2188.53 564.19C2187.53 564.88 2186.18 566.037 2184.49 567.661L2182.1 568.947C2181.84 569.121 2181.39 569.649 2180.74 570.531L2179.83 570.642C2178.53 570.802 2177.64 571.643 2177.17 573.166L2174.63 572.698C2173.72 573.754 2172.62 574.574 2171.32 575.159L2170.95 576.196C2169.96 576.601 2168.55 577.246 2166.72 578.131L2165.18 578.817L2162.8 580.172L2161.78 580.013L2159.18 580.191C2158.15 580.223 2157.54 580.251 2157.35 580.274C2156.79 580.342 2156.31 580.449 2155.9 580.593C2153.73 581.379 2152.42 581.801 2151.95 581.858C2151.35 581.932 2150.62 581.951 2149.76 581.914L2148.93 580.316C2147.98 580.669 2147.32 580.868 2146.95 580.914C2145.78 581.057 2144.59 580.92 2143.36 580.505C2142.91 580.37 2142.16 579.848 2141.11 578.939C2138.58 577.928 2136.61 576.917 2135.21 575.909C2133.19 574.456 2131.34 572.086 2129.66 568.797L2128.01 568.645L2126.99 567.213C2126.19 567.264 2125.49 567.16 2124.9 566.903C2124.98 565.24 2124.97 564.083 2124.89 563.432C2124.83 562.874 2124.7 562.394 2124.51 561.992L2122.74 558.029C2122.1 556.644 2121.66 554.974 2121.42 553.02C2121.32 552.229 2121.27 551.598 2121.26 551.127C2121.28 550.558 2121.28 550.156 2121.25 549.924C2121.21 549.552 2120.97 548.967 2120.54 548.169L2118.87 548.375L2118.08 547.763C2118.19 545.908 2118.23 544.888 2118.2 544.702C2118.17 544.423 2118.04 543.989 2117.83 543.402L2118.54 542.819C2118.7 541.43 2118.74 540.386 2118.65 539.688C2118.63 539.549 2118.57 539.226 2118.46 538.72C2118.32 537.981 2118.2 537.193 2118.1 536.355L2118.09 536.286C2118.06 536.053 2118.06 535.675 2118.09 535.152C2118.39 531.054 2118.51 528.583 2118.46 527.74C2118.34 526.431 2118.32 524.876 2118.38 523.074C2118.18 521.445 2118.1 520.582 2118.13 520.483C2118.18 520.053 2118.33 519.608 2118.61 519.15C2119.07 518.337 2119.28 517.721 2119.23 517.302L2119.14 516.604C2118.3 516.236 2117.86 515.982 2117.85 515.843C2117.59 515.685 2117.33 515.056 2117.05 513.957L2118.37 513.794C2118.89 513.022 2119.36 511.43 2119.77 509.018L2122.04 495.775L2124.11 492.405C2123.7 491.747 2123.47 491.278 2123.44 490.999C2123.42 490.813 2123.55 489.947 2123.83 488.401C2123.89 488.157 2123.95 487.631 2123.99 486.823L2123.6 486.517L2122.03 487.56C2121.36 486.745 2120.91 485.761 2120.67 484.609L2122.38 483.549L2123 481.632L2123.21 481.606C2123.82 482.003 2124.32 482.178 2124.69 482.133L2124.9 482.107C2125.34 481.061 2125.65 479.983 2125.85 478.873C2126.09 477.426 2126.34 476.546 2126.58 476.232C2127.9 474.229 2128.61 473.103 2128.72 472.853C2129.13 471.953 2129.29 471.177 2129.21 470.526C2129.15 469.967 2128.58 469.612 2127.52 469.458C2128.66 469.129 2129.31 468.79 2129.45 468.442L2129.81 466.698L2133.23 458.77C2134.69 454.953 2135.25 452.405 2134.91 451.125C2134.41 450.949 2134.03 450.879 2133.75 450.913C2132.17 451.107 2129.61 452.224 2126.08 454.263C2122.99 455.965 2120.28 457.951 2117.96 460.219L2118.67 461.407C2118.95 461.75 2119.42 461.905 2120.08 461.872C2120.88 461.868 2121.45 461.892 2121.78 461.945L2121.49 462.407C2121.59 462.866 2121.67 463.282 2121.71 463.655C2121.75 463.98 2121.61 464.587 2121.3 465.476L2120.9 467.438L2118.61 474.166L2117.7 477.181L2116.47 480.379L2116.08 481.843L2115.69 483.308C2114.91 487.277 2114.33 489.686 2113.96 490.534C2113.7 491.086 2113.46 491.611 2113.23 492.111L2112.61 496.296L2111.74 498.954C2112.83 501.369 2113.4 502.67 2113.42 502.856C2113.49 503.461 2113.45 504.245 2113.28 505.21L2111.14 505.048C2110.87 505.978 2110.38 507.149 2109.66 508.56L2109.44 510.286C2108.82 512.157 2108.54 513.302 2108.59 513.721C2108.66 514.325 2108.79 514.994 2108.98 515.727C2108.25 517.092 2107.89 517.821 2107.9 517.914C2107.93 518.147 2110.05 518.477 2114.26 518.905C2113.64 519.264 2112.99 519.911 2112.3 520.845C2111.62 521.873 2110.1 523.288 2107.72 525.091C2108.85 525.803 2109.9 526.689 2110.88 527.749L2110.45 528.298L2109.19 528.452L2109.05 530.17C2107.77 531.65 2107.17 533.116 2107.25 534.57ZM2247.71 440.958L2246.39 441.121C2245.91 441.887 2245.68 442.907 2245.7 444.18C2246.33 444.292 2246.97 444.308 2247.62 444.228L2248.87 444.074L2249.25 444.24L2249.29 444.589L2251.63 444.019L2252.02 447.229C2252.63 447.533 2252.98 447.725 2253.09 447.807C2253.15 447.941 2253.48 449.293 2254.08 451.864C2254.67 454.389 2255.04 456.186 2255.17 457.257L2256.23 465.91C2256.34 466.794 2256.99 467.636 2258.17 468.435C2257.48 469.37 2257.18 470.209 2257.28 470.953C2257.36 471.605 2257.52 472.341 2257.76 473.161C2257.99 473.086 2258.17 473.04 2258.31 473.023C2258.77 472.966 2259.15 473.179 2259.45 473.662C2258.85 474.538 2258.58 475.233 2258.64 475.744C2258.67 475.93 2258.72 476.184 2258.81 476.503C2258.88 476.73 2259.08 477.769 2259.4 479.618C2259.46 480.084 2259.67 481.072 2260.05 482.585C2260.35 482.69 2260.65 482.889 2260.97 483.18C2261.55 483.629 2262.11 483.962 2262.65 484.178C2262.48 485.427 2262.47 486.704 2262.63 488.006L2261.06 489.119L2265.67 490.254L2261.63 492.592L2268.1 499.094L2263.02 503.897L2264.63 510.075C2264.53 511.221 2264.55 512.351 2264.69 513.468C2265.35 513.859 2265.85 514.459 2266.19 515.268L2267.74 515.786L2267.85 516.693L2265.68 518.023C2269.37 518.467 2271.26 518.872 2271.35 519.239L2271.02 519.421C2269.26 520.487 2268.33 521.191 2268.23 521.534L2267.51 525.448L2266.22 527.661L2266.23 527.731L2266.67 530.723L2266.88 532.468C2267.48 533.103 2267.91 533.734 2268.18 534.363L2268.74 534.294L2269.43 532.438C2269.35 532.921 2269.32 533.679 2269.35 534.714C2269.43 535.319 2269.27 535.764 2268.88 536.048C2268.33 536.541 2268 536.982 2267.91 537.371C2267.62 539.626 2267.52 541.339 2267.62 542.507C2268.07 546.183 2268.35 549.407 2268.45 552.181C2268.43 552.419 2268.44 552.632 2268.46 552.818C2268.48 553.004 2268.69 553.522 2269.08 554.371C2269.08 554.418 2268.81 554.923 2268.27 555.887C2268.15 556.044 2268.09 556.145 2268.1 556.192L2268.64 560.092C2267.65 563.142 2266.99 564.899 2266.67 565.364C2266.26 565.886 2265.78 566.181 2265.22 566.25C2265.15 566.259 2265.04 566.259 2264.89 566.251C2264.84 566.248 2264.79 566.245 2264.72 566.24C2264.46 567.123 2264.35 567.821 2264.41 568.333C2264.45 568.658 2264.53 569.051 2264.63 569.51C2265.73 569.658 2266.52 569.704 2266.98 569.646C2267.26 569.612 2268.99 569.023 2272.15 567.879L2275.83 567.285C2278.48 566.535 2279.94 566.143 2280.22 566.108C2280.55 566.068 2280.78 566.063 2280.93 566.092C2282.85 566.329 2283.97 566.428 2284.29 566.388C2285.18 566.279 2285.94 565.949 2286.58 565.398C2289.33 563.172 2290.89 562.036 2291.26 561.99C2291.73 561.933 2292.2 562.134 2292.68 562.595C2294.23 564.057 2295.05 564.783 2295.15 564.772L2295.28 564.685C2295.63 564.499 2296.23 564.355 2297.07 564.253C2298.09 564.127 2299.14 564.234 2300.22 564.573C2300.32 564.609 2300.42 564.62 2300.51 564.609L2300.65 564.592L2300.78 564.505L2301.06 564.471L2302.32 564.316L2302.3 562.406C2303.46 561.886 2304.62 561.554 2305.79 561.411L2305.44 562.657C2306.26 562.793 2306.79 562.846 2307.02 562.818L2311.17 562.025L2314.11 561.665L2321.42 560.625C2321.56 560.608 2322.15 560.63 2323.19 560.69L2324.17 559.367C2324.69 559.397 2325.14 559.389 2325.51 559.344C2325.56 559.338 2325.97 559.24 2326.75 559.05C2330.83 559.21 2332.89 559.287 2332.94 559.281C2333.4 559.224 2334.3 559.02 2335.63 558.668C2336.5 558.466 2337.63 558.28 2339.03 558.108C2341.36 557.823 2342.83 557.689 2343.44 557.708C2346.58 557.889 2348.27 557.966 2348.5 557.937C2349.2 557.852 2350.11 557.386 2351.23 556.539L2352.3 557.117C2352.84 556.909 2353.15 556.799 2353.25 556.788L2357.13 556.665L2360.41 556.263L2362.97 556.373L2366.62 556.067L2369.48 556.282L2373.97 551.905L2378.14 554.723L2380.32 554.03C2383.91 553.636 2386.22 552.598 2387.24 550.914L2387.55 549.388C2387.57 549.15 2387.92 548.799 2388.62 548.336C2388.75 547.47 2388.97 546.592 2389.29 545.703C2389.6 544.768 2389.73 544.114 2389.69 543.742C2389.56 542.672 2389.12 542.182 2388.37 542.274C2388.05 542.314 2387.39 542.725 2386.4 543.508C2385.77 543.774 2383.46 544.6 2379.48 545.987C2378.64 546.09 2377.69 546.23 2376.63 546.408C2376.08 546.616 2375.53 546.92 2374.97 547.32C2374.66 547.546 2374.51 547.991 2374.49 548.654C2374.15 548.932 2373.59 549.189 2372.82 549.426C2372.4 549.478 2371.67 549.708 2370.64 550.119C2369.81 549.513 2369.13 549.241 2368.62 549.304C2368.02 549.378 2367.46 549.682 2366.96 550.216C2364.7 552.571 2363.5 553.758 2363.36 553.775C2363.18 553.798 2362.27 552.752 2360.64 550.638L2359.98 551.073L2359.87 551.299L2360.16 553.672L2358.1 553.571L2356.96 551.232C2355.79 551.374 2355.09 551.437 2354.86 551.419C2353.56 551.248 2352.86 551.167 2352.77 551.179C2352.59 551.202 2352.36 551.254 2352.08 551.334C2351.59 551.537 2351.31 551.618 2351.26 551.577L2350.28 551.627L2337.81 553.37L2336.69 553.507C2334.91 553.963 2333.99 554.193 2333.94 554.199C2333.81 554.216 2332.33 554.28 2329.51 554.39C2329.22 554.378 2328.96 554.386 2328.73 554.414C2328.45 554.449 2328.27 554.495 2328.18 554.553C2326.77 555.009 2326 555.246 2325.86 555.263C2325.81 555.268 2325.48 555.285 2324.87 555.313L2322.43 555.613L2319.77 555.869L2311.81 556.279L2311.47 556.322C2311.19 556.402 2310.9 556.745 2310.6 557.349L2308.22 559.908L2306 557.417L2305.81 557.582L2305.61 557.678C2304.6 558.699 2303.73 559.255 2302.98 559.347C2302.75 559.375 2302.58 559.372 2302.48 559.337C2300.85 558.734 2299.96 558.419 2299.82 558.389L2296.05 558.852L2293.58 558.942L2288.27 560.658L2285.2 561.035L2282.77 563.811C2281.91 563.304 2281.3 563 2280.96 562.901C2280.32 562.696 2279.94 562.483 2279.82 562.261C2279.43 561.743 2279.15 560.833 2278.99 559.53C2281.22 557.32 2282.22 555.284 2281.99 553.423L2280.86 547.682L2280.19 542.735C2279.61 541.484 2279.31 540.765 2279.28 540.579C2279.22 540.021 2279.38 538.867 2279.78 537.118C2279.11 536.634 2278.58 536.415 2278.21 536.461C2277.98 536.489 2277.61 536.747 2277.1 537.234L2276.68 537.286C2276.03 536.185 2275.65 535.217 2275.55 534.379L2277.94 532.527C2277.62 531.857 2277.44 531.337 2277.39 530.964C2277.39 530.918 2277.34 530.31 2277.24 529.141L2276.9 524.649L2277.06 523.071L2276.68 520.497L2276.7 518.369L2276.21 516.729L2275.74 514.024L2274.73 510.961C2274.66 510.827 2274.8 510.385 2275.13 509.636C2273.59 509.022 2272.77 508.273 2272.66 507.389C2272.6 506.924 2272.58 506.407 2272.61 505.837L2274.05 504.881L2273.89 503.555C2273.76 502.485 2273.6 501.772 2273.41 501.417C2272.53 499.636 2271.96 498.242 2271.69 497.236C2272.5 496.476 2272.86 495.747 2272.77 495.049C2272.61 493.746 2272.47 493.008 2272.36 492.833C2272.12 492.437 2271.52 491.968 2270.56 491.425L2270.03 491.773C2269.83 491.278 2269.71 490.914 2269.69 490.682C2269.62 490.17 2269.72 489.426 2269.98 488.45L2270.21 488.633L2271.36 488.139C2271.82 487.279 2272.05 486.684 2272.06 486.352L2271.16 482.496L2270.48 476.346L2269.94 474.286C2269.66 472.763 2269.18 471.404 2268.52 470.211C2269.96 470.033 2271.46 469.755 2273.02 469.374L2275.72 468.901L2277.41 468.198L2279.51 468.011L2282.02 467.632L2284.17 467.864L2290.5 466.944L2295.55 467.104L2300.56 465.78L2302.1 465.662L2305.05 465.441L2307.63 465.691C2310.2 465.045 2311.62 464.706 2311.9 464.671C2312.18 464.637 2313.45 464.622 2315.72 464.627C2317.7 464.196 2318.93 463.809 2319.4 463.467C2320.32 463.591 2321.02 463.717 2321.5 463.846C2321.7 463.916 2321.85 463.946 2321.94 463.934C2322.08 463.917 2322.17 463.883 2322.21 463.83C2323.56 461.351 2324.26 460.108 2324.3 460.102C2324.54 460.074 2325.66 460.928 2327.66 462.665C2328.3 463.201 2328.96 463.426 2329.66 463.341C2330.03 463.295 2330.8 463.035 2331.97 462.561C2332.43 461.701 2333.14 460.93 2334.1 460.246L2333.87 458.361C2334.99 457.515 2335.56 456.926 2335.56 456.595C2335.82 456.421 2335.91 455.561 2335.81 454.014C2335.05 453.966 2334.39 453.976 2333.83 454.044C2333.41 454.096 2332.67 454.588 2331.6 455.522C2330.92 456.125 2330.46 456.607 2330.22 456.967C2330.03 457.275 2329.63 458.125 2329.05 459.52L2325.65 456.041L2325.33 456.363C2325.09 456.723 2324.33 457.006 2323.03 457.213L2323.15 458.19C2322.12 458.269 2321.35 458.317 2320.83 458.333C2319.75 458.371 2319 458.416 2318.58 458.468C2318.39 458.49 2318.23 458.534 2318.1 458.597C2316.33 459.192 2313.73 459.748 2310.3 460.264C2308.08 460.631 2306.36 460.889 2305.15 461.037C2304.45 461.123 2303.85 461.22 2303.34 461.33C2301.31 461.721 2300.11 461.939 2299.74 461.985C2299.55 462.008 2299.39 462.004 2299.24 461.975C2297.43 461.82 2296.5 461.745 2296.45 461.751C2295.99 461.808 2295.07 462.039 2293.7 462.443C2293.12 462.656 2292.43 462.812 2291.64 462.909C2290.89 463 2290.12 463.048 2289.32 463.052C2287.37 463.007 2285.52 463.093 2283.75 463.31L2280.99 463.296L2277.69 463.559L2272.98 463.287C2270.39 463.368 2268.6 463.353 2267.59 463.24C2266.75 460.651 2266.32 459.217 2266.28 458.938C2266.24 458.566 2266.29 457.638 2266.44 456.156C2265.62 455.643 2264.98 455.272 2264.53 455.044C2263.97 454.735 2263.56 454.455 2263.29 454.204C2263.13 454.035 2263.03 453.811 2263 453.532C2262.97 453.253 2262.96 452.64 2262.99 451.692C2263.47 451.821 2263.79 451.877 2263.93 451.86C2264.58 451.78 2265.31 451.171 2266.11 450.033C2265.97 449.294 2265.81 448.323 2265.61 447.119C2265.39 445.729 2264.86 444.426 2264 443.209C2264.6 442.332 2265.06 441.874 2265.39 441.834L2267.68 442.048C2269.06 441.737 2269.96 441.556 2270.38 441.504L2271.7 441.342C2275.05 440.93 2277.07 440.801 2277.75 440.954C2278.86 441.148 2279.44 441.242 2279.48 441.236L2281.67 440.613L2289.61 440.064L2291.21 439.23L2294.85 438.924L2299.06 437.983L2300.61 437.934L2303.2 437.686L2308.36 437.549L2312.58 436.181L2315.44 435.829L2319.38 434.992C2321.69 434.991 2323.15 434.954 2323.76 434.879L2327.18 434.459L2327.67 434.399L2328.29 434.322C2329.72 434.762 2330.64 434.979 2331.07 434.974C2332.1 434.941 2333.23 434.897 2334.45 434.842L2334.59 434.824C2335.11 434.808 2335.85 434.292 2336.81 433.277C2337.68 432.32 2338.27 431.728 2338.57 431.502L2341.83 429.189L2342.5 428.257C2343.09 427.334 2343.36 426.474 2343.31 425.678C2341.78 425.535 2340.86 425.483 2340.53 425.523C2340.44 425.535 2339.41 425.803 2337.44 426.328L2333.52 427.304C2327.44 429.326 2324.24 430.357 2323.92 430.397C2323.54 430.443 2322.6 430.464 2321.09 430.461C2320.43 430.447 2319.82 430.475 2319.26 430.544C2318.7 430.612 2318.15 430.727 2317.6 430.889C2314.85 431.557 2311.97 432.124 2308.95 432.588L2308.06 433.973L2304.19 434.165L2303.53 433.396L2289.13 435.022C2288.66 435.032 2288.14 435.191 2287.56 435.498C2286.94 435.811 2286.58 435.973 2286.49 435.984L2283.32 435.593L2280.33 435.465C2277.9 434.913 2276.46 434.666 2275.99 434.723C2274.92 434.854 2273.78 435.395 2272.58 436.346L2271.09 436.317L2270.18 436.428C2269.66 436.444 2268.54 435.991 2266.82 435.069C2266.24 435.329 2265.74 435.485 2265.32 435.537C2264.49 435.64 2263.74 435.708 2263.08 435.741C2258.75 435.848 2256.4 435.924 2256.03 435.97C2255.61 436.021 2255.26 436.111 2255 436.238C2254.09 436.585 2253.55 436.77 2253.36 436.793C2252.99 436.838 2252.42 436.767 2251.64 436.58C2250.85 437.433 2250.13 438.111 2249.48 438.616C2248.79 439.172 2248.2 439.953 2247.71 440.958Z" fill="white"/>
</svg>
