<svg width="83" height="63" viewBox="0 0 83 63" fill="none" xmlns="http://www.w3.org/2000/svg">
<g clip-path="url(#clip0_529_171)">
<path d="M15.6082 37.2104C15.6082 37.2104 17.5805 36.3017 17.2511 35.4458C16.6559 33.8982 19.8466 32.7951 19.8466 32.7951C19.8466 32.7951 22.724 31.319 23.3188 32.9742C23.6464 33.8861 25.5315 33.2424 25.5315 33.2424L31.6353 52.3389L21.53 56.1916L15.6082 37.2104Z" fill="white"/>
<path d="M82.9573 25.8068C79.8943 25.9024 76.7773 26.2293 73.6214 26.824C41.1832 32.9366 20.9417 47.2782 14.932 57.1816C13.6915 59.2257 13.4204 61.3532 13.9563 63.4978H48.4568H65L82.9573 50.5V25.8068Z" fill="url(#paint0_linear_529_171)"/>
<path d="M14.522 62.494C15.0667 63.0823 16.4586 60.7031 16.6223 59.3438C16.786 57.9843 15.123 54.3218 14.2026 53.7354C15.8379 56.6805 12.4775 56.0293 12.4775 56.0293C12.4775 56.0293 13.2311 53.4942 12.51 52.2976C12.479 53.0099 12.7879 55.2583 10.881 56.9267C8.97401 58.595 10.4879 55.2692 11.1914 54.7856C11.4637 54.5983 8.94596 55.395 8.2999 57.2675C7.40965 59.848 10.4678 51.279 8.11955 50.2095C9.28091 51.3872 8.2112 57.5803 6.17423 59.1738C3.76016 61.0621 4.59892 56.1038 5.28136 55.0441C5.63318 54.4978 4.07215 56.2512 4.07215 56.2512C4.07215 56.2512 4.13423 57.0766 4.07215 56.2454C4.01006 55.4141 4.33051 54.2053 4.98866 53.3964C5.94901 52.7469 5.28155 52.9312 3.55772 54.6462C3.10465 55.0969 3.63755 56.15 3.0226 55.4656C2.40765 54.7813 2.80087 53.9897 3.22068 53.4698C3.6405 52.95 -0.398019 55.5846 1.10979 60.5366C2.61761 65.4887 14.522 62.4942 14.522 62.4942L14.522 62.494Z" fill="white" stroke="white" stroke-linecap="round"/>
<path d="M71.0138 0.634182L66.8513 -0.00109863L62.389 35.6236L66.5516 36.2589L71.0138 0.634182Z" fill="white"/>
<path d="M76.9427 8.38864L59.1707 6.25671L58.547 10.1698L76.319 12.3017L76.9427 8.38864Z" fill="white"/>
<mask id="path-6-inside-1_529_171" fill="white">
<path d="M36.8499 13.0324C37.632 14.7075 36.9784 16.8286 35.3901 17.77C33.8018 18.7115 31.8802 18.1167 31.0981 16.4416C30.316 14.7665 30.9696 12.6454 32.5579 11.704C34.1392 10.7667 36.0523 11.3516 36.841 13.0134"/>
</mask>
<path d="M12.74 27.3228C6.99632 15.0209 11.7722 -0.638639 23.5389 -7.61303L47.2414 43.1531C62.1847 34.2959 68.2677 14.3941 60.9598 -1.25805L12.74 27.3228ZM23.5389 -7.61303C35.3055 -14.5874 49.4642 -10.1508 55.208 2.15116L6.98826 30.732C14.2962 46.3842 32.2981 52.0103 47.2414 43.1531L23.5389 -7.61303ZM55.208 2.15116C60.9517 14.4531 56.1758 30.1127 44.4091 37.087L20.7067 -13.6791C5.76338 -4.82188 -0.319679 15.0799 6.98826 30.732L55.208 2.15116ZM44.4091 37.087C32.6941 44.0308 18.5976 39.6659 12.8067 27.4643L60.8753 -1.43755C53.507 -16.9628 35.5843 -22.4974 20.7067 -13.6791L44.4091 37.087Z" fill="white" mask="url(#path-6-inside-1_529_171)"/>
<path d="M32.6579 9.69711L30.9905 10.6726L36.1875 21.7296L37.855 20.7541L32.6579 9.69711Z" fill="white"/>
<path d="M37.8945 11.4648L29.3043 16.4719L30.0013 17.9499L38.5914 12.9428L37.8945 11.4648Z" fill="white"/>
<path d="M39.0669 18.9155L34.158 21.7499L39.7759 33.6053L44.6849 30.7709L39.0669 18.9155Z" fill="white"/>
<path d="M45.4493 26.6015L36.2352 31.9216L39.4829 38.7751L48.697 33.455L45.4493 26.6015Z" fill="white"/>
<path d="M50.0399 32.0088L37.6433 39.1664L38.1857 40.3111L50.5823 33.1534L50.0399 32.0088Z" fill="white"/>
<path d="M28.8898 44.2333C28.8898 44.2333 28.411 42.5545 28.5512 41.3049C28.7845 41.6114 28.1582 42.5474 29.1279 43.1304C30.0976 43.7134 28.7173 42.3888 29.177 41.802C29.3261 42.2416 29.2355 42.6284 29.7993 43.024C31.2438 44.038 28.8898 44.2333 28.8898 44.2333L28.8898 44.2333Z" fill="white" stroke="white"/>
<path d="M38.307 38.6592C38.3058 38.6607 37.4143 37.2766 36.7851 37.3559C36.0408 37.3886 35.8569 37.1935 36.8101 37.0281C37.1979 36.9608 38.0712 36.9955 38.7052 38.2589C39.8671 40.7538 38.4829 36.0056 36.7433 35.9769C35.9537 35.8247 35.5646 35.8706 36.8527 35.6124C37.4355 35.4957 38.5616 35.9805 39.5489 38.1276C41.5236 42.4216 38.3072 38.6593 38.3072 38.6593L38.307 38.6592Z" fill="white" stroke="white"/>
<path d="M62.3957 29.8406C62.3946 29.8421 61.5031 28.458 60.8738 28.5373C60.1295 28.57 59.9457 28.3749 60.8988 28.2095C61.2866 28.1422 62.16 28.1769 62.794 29.4403C63.9558 31.9352 62.5716 27.187 60.8321 27.1583C60.0425 27.0061 59.6533 27.0519 60.9414 26.7938C61.5242 26.6771 62.6504 27.1619 63.6377 29.309C65.6123 33.603 62.3959 29.8407 62.3959 29.8407L62.3957 29.8406Z" fill="white" stroke="white"/>
<path d="M62.2589 27.6195C62.2572 27.6202 62.0454 25.9382 61.454 25.6879C60.7801 25.3375 60.6987 25.0707 61.6133 25.4098C61.9855 25.5478 62.7456 26.0237 62.7796 27.4674C62.7666 30.2725 63.5248 25.3554 61.9938 24.4433C61.357 23.9059 60.9926 23.7483 62.2432 24.1758C62.809 24.3693 63.6051 25.3732 63.5828 27.7809C63.5382 32.5961 62.2589 27.6197 62.2589 27.6197L62.2589 27.6195Z" fill="white" stroke="white"/>
<path d="M68.6675 29.5257C68.6686 29.5272 69.5601 28.1432 70.1894 28.2225C70.9337 28.2552 71.1175 28.06 70.1644 27.8947C69.7766 27.8274 68.9032 27.8621 68.2692 29.1254C67.1074 31.6204 68.4916 26.8722 70.2311 26.8435C71.0207 26.6912 71.4099 26.7371 70.1217 26.479C69.539 26.3623 68.4128 26.8471 67.4255 28.9942C65.4509 33.2882 68.6673 29.5259 68.6673 29.5259L68.6675 29.5257Z" fill="white" stroke="white"/>
<path d="M68.8043 27.3046C68.8061 27.3052 69.0179 25.6233 69.6092 25.3729C70.2831 25.0226 70.3645 24.7558 69.4499 25.0949C69.0778 25.2328 68.3177 25.7087 68.2836 27.1525C68.2966 29.9576 67.5384 25.0405 69.0695 24.1284C69.7062 23.591 70.0706 23.4333 68.82 23.8609C68.2542 24.0543 67.4581 25.0583 67.4804 27.466C67.525 32.2812 68.8043 27.3047 68.8043 27.3047V27.3046Z" fill="white" stroke="white"/>
</g>
<defs>
<linearGradient id="paint0_linear_529_171" x1="61.5" y1="47" x2="66.4999" y2="58" gradientUnits="userSpaceOnUse">
<stop stop-color="white"/>
<stop offset="1" stop-color="white" stop-opacity="0"/>
</linearGradient>
<clipPath id="clip0_529_171">
<rect width="82.9573" height="62.4385" fill="white"/>
</clipPath>
</defs>
</svg>
