<svg width="732" height="98" viewBox="0 0 732 98" fill="none" xmlns="http://www.w3.org/2000/svg">
<path d="M23.769 0.276734C11.4207 2.20474 2.14034 10.9867 0.237998 22.5338C-0.149848 25.0068 -0.0531353 30.8098 0.451364 33.5558C1.17022 37.5668 2.23805 41.0918 3.55812 43.9348L4.41258 45.7268L3.92702 46.2138C3.67477 46.4668 3.46141 46.7788 3.46141 46.9148C3.46141 47.0318 3.15033 49.5828 2.78143 52.5618C2.06257 58.2668 2.06257 58.5008 2.8592 59.1048C3.38364 59.4938 4.39264 59.3968 4.89813 58.9098C5.26703 58.5398 5.38369 58.0528 5.67482 55.6578C5.8493 54.0998 6.06267 52.4838 6.12149 52.0748L6.23814 51.2958L7.48045 52.6588L8.70381 54.0018L6.76059 50.0098C5.69277 47.8098 4.81937 45.9598 4.81937 45.8628C4.81937 45.7848 5.05267 45.7268 5.32386 45.7268C5.8483 45.7268 6.29498 46.1358 7.88624 48.1028C8.3718 48.7068 8.81847 49.1738 8.85735 49.1348C8.89623 49.0958 9.09066 47.7918 9.28408 46.2338C9.49745 44.6758 9.76964 43.2348 9.90523 43.0208C10.2741 42.4168 11.2831 42.1448 11.8664 42.4558C12.3908 42.7478 18.4478 49.7968 18.9144 50.6728C19.4777 51.7048 18.7399 52.9318 17.5555 52.9318C16.7399 52.9318 16.5265 52.7568 14.2553 50.0498C13.2264 48.8228 12.3918 47.8688 12.3918 47.9078C12.3918 47.9268 12.2174 49.2708 12.004 50.8478C11.5962 54.0028 11.3629 54.6258 10.4506 54.8198C10.1206 54.8778 9.86834 54.9558 9.86834 55.0148C9.86834 55.0538 10.0428 55.4238 10.2572 55.8328L10.6261 56.5728L9.67492 57.1958C6.60705 59.2018 4.9769 63.2908 5.81141 66.9318C6.33585 69.2688 8.31596 71.8199 10.4516 72.9689C11.7328 73.6509 14.1207 74.2349 14.9751 74.0789C15.4796 73.9819 15.4996 74.0009 15.4996 74.7019C15.4996 75.0919 15.3251 76.4739 15.1117 77.7589C14.8984 79.0439 14.7229 80.5049 14.7229 81.0109C14.7229 81.5369 14.704 81.9459 14.6651 81.9459C14.6262 81.9459 13.9661 81.7319 13.2094 81.4789L11.8116 80.9919L11.6371 81.7129C10.8604 84.6539 8.31696 95.4609 8.31696 95.8109C8.3359 96.3369 8.64698 96.7849 9.22924 97.0959C9.87034 97.4459 10.3748 97.3879 10.9182 96.8819C11.3449 96.5119 11.5783 95.7329 12.5882 91.5849C14.2772 84.5549 14.0439 85.2559 14.7628 85.4509C15.0928 85.5479 15.9473 86.1909 16.6462 86.8719C18.064 88.2349 19.5007 89.3639 21.7909 90.9029C23.2086 91.8569 23.4609 91.9549 25.3822 92.2659C28.6824 92.8309 28.4501 92.6939 28.5468 94.0579C28.6245 95.0509 28.7212 95.3239 29.1679 95.7129C29.8668 96.2969 30.7213 96.2969 31.3225 95.6739C31.7303 95.2649 31.8081 95.0309 31.8081 93.9409C31.8081 93.2399 31.8858 92.6369 31.9825 92.5779C32.0793 92.5199 33.0703 92.9289 34.176 93.5129C37.6706 95.3239 40.5829 95.9669 45.4176 95.9669H48.5044V96.4149C48.5044 97.3499 49.8444 98.0119 50.9312 97.6029C51.319 97.4469 51.8046 96.5119 51.8046 95.9279C51.8046 95.5189 51.979 95.4409 53.5912 95.0519C54.6979 94.7789 55.7658 94.3699 56.4258 93.9609L57.4936 93.2989L61.0849 95.5189C65.2206 98.0889 65.3951 98.1669 66.114 97.8949C66.8129 97.6219 67.124 97.1549 67.1429 96.3369C67.1429 95.4409 67.0073 95.3239 62.8527 92.7539L59.4139 90.6499L59.5106 89.1309C59.6462 87.3979 59.3162 86.2099 58.5006 85.4509C58.2294 85.1979 58.0151 84.8469 58.0151 84.6529C58.0151 84.3799 59.393 78.2069 59.6851 77.2529C59.7629 76.9999 60.2096 76.9219 62.1119 76.8049C71.0234 76.2989 74.9447 73.2999 73.8769 67.8278C73.6246 66.5618 73.4113 66.1528 70.479 61.8108L67.3334 57.1758L67.8189 56.1628C68.7511 54.2548 68.79 51.2358 67.9156 49.3668C67.4879 48.4518 66.77 47.5948 65.8767 46.9718L65.3134 46.5438L65.9156 45.4138C66.2456 44.7718 66.6534 43.7978 66.8279 43.2138C67.1768 42.0068 67.2356 39.6308 66.9246 38.3258C66.4201 36.0868 64.5756 33.4188 62.4589 31.8218C61.3322 30.9648 61.2355 30.8288 61.1966 30.0888C61.1188 28.8228 59.8566 24.6758 58.711 21.9298C53.7448 9.97474 44.2122 1.93274 33.1072 0.276734C30.6415 -0.0922671 26.1569 -0.0922671 23.769 0.276734ZM57.026 32.5438C58.7928 33.1668 60.6762 34.3938 61.8407 35.6788C64.2874 38.4048 64.5785 41.5788 62.6563 44.5388L62.0351 45.4928L60.4628 45.3958C59.065 45.2988 56.9104 45.4738 54.677 45.8438L53.9392 45.9798V45.1618C53.9392 43.0588 52.9292 39.9628 51.6291 38.0538C50.8524 36.9438 49.4157 35.4638 48.3478 34.6848L47.5133 34.0808L48.1734 33.5748C48.969 32.9518 50.3868 32.3288 51.4745 32.0948C52.8514 31.8038 55.4926 32.0178 57.026 32.5438ZM41.8631 35.3278C45.9988 36.1648 49.3379 39.2028 50.3479 43.0198C50.6779 44.2468 50.7168 46.4278 50.4257 47.6738C49.8434 50.2638 47.5522 53.1458 45.0676 54.4498C41.8253 56.1638 37.6118 56.2798 34.4482 54.7808C30.136 52.7368 27.6514 48.4138 28.2925 44.1298C29.2238 38.0348 35.4173 34.0038 41.8631 35.3278ZM67.782 63.6608C70.3833 67.5358 70.6744 68.0418 70.7721 68.9768C70.9466 70.6318 70.131 71.7029 68.112 72.4819C65.1608 73.6309 56.5604 74.0589 46.8912 73.5329C39.902 73.1439 38.7175 73.1829 37.3974 73.8059C34.2328 75.2859 32.6406 78.4019 33.4372 81.5169C34.3106 84.9829 36.2528 86.9109 39.8242 87.9239C40.3875 88.0799 41.9788 88.2549 43.3577 88.3129C46.0567 88.4299 48.289 88.2159 50.9292 87.5729C53.007 87.0859 55.2972 87.0669 55.8994 87.5729C56.2683 87.8649 56.346 88.0989 56.3261 88.7799C56.2683 90.1629 55.1616 91.2529 53.2782 91.7589C52.2104 92.0509 48.618 92.5769 46.5213 92.7519C44.8323 92.8879 41.3766 92.5569 39.4543 92.0699C36.6008 91.3489 32.3485 88.9739 29.9994 86.8119C25.0681 82.2939 24.8936 76.5889 29.4361 70.5328C30.4651 69.1698 30.834 68.8578 32.6007 67.7868C41.0067 62.8018 50.1515 60.0558 57.3162 60.3868C60.054 60.5228 62.2475 60.3088 63.6264 59.7438C64.1119 59.5488 64.6164 59.3938 64.7131 59.3738C64.8308 59.3768 66.2097 61.3038 67.782 63.6608ZM39.8053 80.0369C39.3396 82.0039 38.8541 83.6779 38.7763 83.7759C38.4852 84.1069 37.2618 82.7239 36.854 81.6139C36.0774 79.5299 36.4851 78.1669 38.213 77.1159C38.893 76.7069 39.5141 76.4929 39.9797 76.4929H40.6976L39.8053 80.0369ZM48.8334 76.9609C48.8523 76.9799 48.4256 78.8109 47.9012 81.0309L46.9111 85.0619H44.3876C42.0964 85.0619 41.8831 85.0429 41.9798 84.7119C42.0386 84.5369 42.4843 82.7649 42.9698 80.7789C43.4554 78.7929 43.9021 77.0599 43.941 76.9229C44.0187 76.7279 44.5621 76.7089 46.4066 76.8059C47.7267 76.8829 48.8135 76.9409 48.8334 76.9609ZM56.2493 77.4079C56.2493 77.6029 55.9193 79.1219 55.5115 80.7769L54.7927 83.7949L53.2592 83.9119C52.4048 83.9709 51.4147 84.0869 51.0658 84.1849C50.4835 84.3019 50.4247 84.2819 50.5224 83.9709C50.6001 83.6789 51.5513 79.8229 52.0947 77.5059C52.1914 77.0969 52.2891 77.0779 54.2303 77.0779C56.0549 77.0769 56.2693 77.1159 56.2493 77.4079Z" fill="#EEEEEE"/>
<path d="M56.5215 38.2298C55.5703 38.6388 55.0658 39.5739 55.1625 40.7219C55.337 42.8249 57.6092 43.6819 59.2204 42.2409C60.4438 41.1509 60.0549 38.8718 58.5016 38.2098C57.686 37.8788 57.3171 37.8788 56.5215 38.2298Z" fill="#EEEEEE"/>
<path d="M37.2418 43.2148C35.145 44.0518 34.5428 47.2068 36.1939 48.6668C37.3584 49.6788 38.8151 49.8738 40.0374 49.1728C41.9398 48.0818 42.3675 45.8038 40.9886 44.1488C40.1152 43.1168 38.504 42.7078 37.2418 43.2148Z" fill="#EEEEEE"/>
<path d="M108.756 35.0156C108.652 34.9115 108.522 34.7292 108.366 34.4688C108.209 34.2083 108.053 33.9219 107.897 33.6094C107.741 33.2448 107.584 32.9323 107.428 32.6719C107.324 32.3594 107.272 32.125 107.272 31.9688C107.272 31.5 107.48 31.1354 107.897 30.875C108.314 30.6146 108.782 30.4583 109.303 30.4062C109.824 30.3542 110.319 30.3281 110.787 30.3281C111.308 30.3281 111.621 30.3281 111.725 30.3281C111.881 30.3281 112.09 30.3542 112.35 30.4062C112.662 30.4062 112.975 30.4323 113.287 30.4844C113.652 30.4844 113.965 30.5104 114.225 30.5625C114.485 30.5625 114.668 30.5625 114.772 30.5625C116.491 31.1875 118.444 31.9167 120.631 32.75C122.871 33.5833 125.162 34.5469 127.506 35.6406C129.85 36.7344 132.142 37.9844 134.381 39.3906C136.621 40.7448 138.626 42.3073 140.397 44.0781C142.168 45.7969 143.6 47.6979 144.694 49.7812C145.787 51.8646 146.334 54.1823 146.334 56.7344C146.334 58.9219 145.918 60.901 145.084 62.6719C144.251 64.3906 143.131 65.901 141.725 67.2031C140.371 68.4531 138.782 69.5469 136.959 70.4844C135.136 71.3698 133.261 72.099 131.334 72.6719C129.459 73.1927 127.558 73.5833 125.631 73.8438C123.704 74.1042 121.907 74.2344 120.241 74.2344C119.876 74.2344 119.251 74.2083 118.366 74.1562C117.48 74.1562 116.569 74.1302 115.631 74.0781C114.694 74.026 113.834 74 113.053 74C112.324 73.9479 111.933 73.9219 111.881 73.9219L111.725 71.0312L108.756 35.0156ZM113.209 34.625C113.209 34.7292 113.209 34.9375 113.209 35.25C113.209 35.5625 113.209 35.9271 113.209 36.3438C113.261 36.7083 113.287 37.0469 113.287 37.3594C113.287 37.6719 113.287 37.9062 113.287 38.0625C113.34 38.8438 113.392 40.0938 113.444 41.8125C113.548 43.5312 113.626 45.4844 113.678 47.6719C113.782 49.8594 113.886 52.151 113.991 54.5469C114.147 56.8906 114.277 59.1562 114.381 61.3438C114.485 63.4792 114.564 65.4323 114.616 67.2031C114.72 68.9219 114.772 70.1979 114.772 71.0312C115.084 71.0312 115.579 71.0573 116.256 71.1094C116.985 71.1094 117.741 71.1354 118.522 71.1875C119.303 71.1875 120.032 71.2135 120.709 71.2656C121.439 71.2656 121.959 71.2656 122.272 71.2656C124.668 71.2656 127.037 70.9792 129.381 70.4062C131.725 69.7812 133.808 68.8698 135.631 67.6719C137.506 66.4219 139.017 64.8333 140.162 62.9062C141.36 60.9271 141.959 58.5573 141.959 55.7969C141.959 53.7656 141.491 51.8385 140.553 50.0156C139.616 48.1406 138.366 46.4219 136.803 44.8594C135.293 43.2969 133.548 41.8906 131.569 40.6406C129.59 39.3906 127.532 38.3229 125.397 37.4375C123.314 36.5 121.204 35.7969 119.069 35.3281C116.985 34.8594 115.032 34.625 113.209 34.625ZM150.494 59.7031C150.494 58.5052 150.598 57.125 150.806 55.5625C151.015 53.9479 151.353 52.3333 151.822 50.7188C152.291 49.1042 152.864 47.5156 153.541 45.9531C154.27 44.3906 155.129 43.0104 156.119 41.8125C157.108 40.5625 158.254 39.5729 159.556 38.8438C160.858 38.0625 162.317 37.6719 163.931 37.6719C165.598 37.6719 167.134 38.2448 168.541 39.3906C169.999 40.5365 171.223 42.0208 172.212 43.8438C173.254 45.6667 174.035 47.6979 174.556 49.9375C175.077 52.1771 175.285 54.3646 175.181 56.5C175.181 59.625 174.582 62.4115 173.384 64.8594C172.186 67.3073 170.65 69.2865 168.775 70.7969C166.952 72.3073 164.973 73.3229 162.837 73.8438C160.754 74.3646 158.775 74.2344 156.9 73.4531C155.077 72.6198 153.541 71.0833 152.291 68.8438C151.093 66.6042 150.494 63.5573 150.494 59.7031ZM153.384 60.0156C153.541 63.1927 154.087 65.6406 155.025 67.3594C155.962 69.0781 157.082 70.224 158.384 70.7969C159.739 71.3177 161.197 71.3177 162.759 70.7969C164.322 70.276 165.78 69.3646 167.134 68.0625C168.489 66.7083 169.634 65.0417 170.572 63.0625C171.561 61.0312 172.108 58.7656 172.212 56.2656C172.317 54.3906 172.16 52.5677 171.744 50.7969C171.379 49.026 170.832 47.4635 170.103 46.1094C169.426 44.7031 168.567 43.6094 167.525 42.8281C166.535 41.9948 165.39 41.5781 164.087 41.5781C162.837 41.5781 161.718 41.8906 160.728 42.5156C159.739 43.1406 158.827 44 157.994 45.0938C157.212 46.1354 156.535 47.3333 155.962 48.6875C155.39 50.0417 154.895 51.3958 154.478 52.75C154.114 54.1042 153.827 55.4323 153.619 56.7344C153.462 57.9844 153.384 59.0781 153.384 60.0156ZM181.059 73.6094C180.955 72.776 180.851 71.5781 180.747 70.0156C180.695 68.401 180.617 66.6042 180.512 64.625C180.46 62.5938 180.408 60.4844 180.356 58.2969C180.304 56.1094 180.252 54.026 180.2 52.0469C180.148 50.0677 180.07 48.2969 179.966 46.7344C179.914 45.1198 179.809 43.8958 179.653 43.0625C179.653 43.0104 179.627 42.8802 179.575 42.6719C179.575 42.4635 179.549 42.2292 179.497 41.9688C179.497 41.7083 179.497 41.5 179.497 41.3438C179.497 41.1354 179.497 40.9792 179.497 40.875C180.278 40.25 180.929 40.0417 181.45 40.25C182.023 40.4583 182.492 40.9271 182.856 41.6562C183.221 42.3333 183.481 43.1927 183.637 44.2344C183.794 45.276 183.898 46.3177 183.95 47.3594C184.054 48.401 184.106 49.3646 184.106 50.25C184.106 51.0833 184.106 51.6823 184.106 52.0469C184.21 51.1615 184.367 50.1198 184.575 48.9219C184.783 47.724 185.096 46.5 185.512 45.25C185.929 44 186.424 42.776 186.997 41.5781C187.622 40.3281 188.377 39.2344 189.262 38.2969C190.148 37.3594 191.137 36.6302 192.231 36.1094C193.377 35.5885 194.679 35.3802 196.137 35.4844C198.429 35.5885 200.304 36.2135 201.762 37.3594C203.273 38.5052 204.445 40.0417 205.278 41.9688C206.164 43.8958 206.789 46.1094 207.153 48.6094C207.57 51.1094 207.83 53.7656 207.934 56.5781C208.091 59.3906 208.143 62.2552 208.091 65.1719C208.039 68.0365 208.012 70.7969 208.012 73.4531C207.544 73.5573 207.075 73.7396 206.606 74C206.137 74.2083 205.747 74.2865 205.434 74.2344C205.122 74.2344 204.887 74.026 204.731 73.6094C204.627 73.1406 204.679 72.2552 204.887 70.9531C204.94 70.0156 205.018 68.5833 205.122 66.6562C205.278 64.6771 205.33 62.4896 205.278 60.0938C205.278 57.6979 205.148 55.224 204.887 52.6719C204.627 50.1198 204.132 47.8021 203.403 45.7188C202.726 43.5833 201.736 41.8646 200.434 40.5625C199.132 39.2083 197.44 38.5312 195.356 38.5312C193.221 39.4167 191.424 41.0833 189.966 43.5312C188.559 45.9792 187.414 48.8438 186.528 52.125C185.695 55.4062 185.07 58.974 184.653 62.8281C184.289 66.6302 184.08 70.3542 184.028 74C183.924 73.9479 183.716 73.9219 183.403 73.9219C183.143 73.9219 182.83 73.9219 182.466 73.9219C182.153 73.8698 181.841 73.8177 181.528 73.7656C181.268 73.7135 181.111 73.6615 181.059 73.6094ZM212.328 43.6875C212.328 43.4271 212.484 43.1667 212.797 42.9062C213.161 42.6458 213.578 42.4375 214.047 42.2812C214.568 42.125 215.062 42.0208 215.531 41.9688C216 41.9167 216.339 41.9948 216.547 42.2031C216.859 48.6615 217.458 53.8177 218.344 57.6719C219.281 61.474 220.323 64.2604 221.469 66.0312C222.667 67.8021 223.943 68.7135 225.297 68.7656C226.651 68.7656 227.979 68.1927 229.281 67.0469C230.583 65.849 231.781 64.2344 232.875 62.2031C234.021 60.1719 234.932 57.9844 235.609 55.6406C236.339 53.2969 236.781 50.9531 236.937 48.6094C237.094 46.2656 236.885 44.1823 236.312 42.3594L241 41.8125C241.052 42.5938 241.182 43.8958 241.391 45.7188C241.651 47.4896 241.911 49.5208 242.172 51.8125C242.484 54.0521 242.823 56.3958 243.187 58.8438C243.552 61.2917 243.865 63.5833 244.125 65.7188C244.385 67.8021 244.62 69.599 244.828 71.1094C245.036 72.5677 245.141 73.4792 245.141 73.8438H241.781L238.109 60.3281C237.38 62.151 236.495 63.8958 235.453 65.5625C234.411 67.2292 233.266 68.6875 232.016 69.9375C230.818 71.1875 229.542 72.1771 228.187 72.9062C226.833 73.5833 225.479 73.8698 224.125 73.7656C222.823 73.6094 221.547 72.9844 220.297 71.8906C219.047 70.7969 217.875 69.0781 216.781 66.7344C215.74 64.3385 214.828 61.2656 214.047 57.5156C213.266 53.7656 212.693 49.1562 212.328 43.6875ZM258.519 45.6406C258.05 45.4844 257.399 45.4323 256.566 45.4844C255.784 45.4844 254.925 45.5365 253.987 45.6406C253.102 45.6927 252.243 45.7708 251.409 45.875C250.576 45.9792 249.873 46.0312 249.3 46.0312C249.04 46.0312 248.857 45.6667 248.753 44.9375C248.701 44.1562 248.597 43.1146 248.441 41.8125L259.456 41.0312C259.612 39.2083 259.717 37.9062 259.769 37.125C259.821 36.3438 259.821 35.6927 259.769 35.1719C259.769 34.599 259.743 33.974 259.691 33.2969C259.691 32.5677 259.691 31.4479 259.691 29.9375C261.045 29.7292 262.06 29.6771 262.737 29.7812C263.467 29.8333 263.961 30.0156 264.222 30.3281C264.482 30.6406 264.586 31.1094 264.534 31.7344C264.534 32.3073 264.456 33.0365 264.3 33.9219C264.196 34.8073 264.092 35.875 263.987 37.125C263.935 38.375 263.987 39.7812 264.144 41.3438L273.519 41.0312V44.8594C273.102 44.8594 272.451 44.8854 271.566 44.9375C270.68 44.9896 269.717 45.0417 268.675 45.0938C267.685 45.1458 266.748 45.1979 265.862 45.25C265.029 45.3021 264.404 45.4062 263.987 45.5625C263.571 47.4375 263.128 49.4427 262.659 51.5781C262.191 53.7135 261.878 55.8229 261.722 57.9062C261.566 59.9896 261.618 61.9427 261.878 63.7656C262.139 65.5365 262.79 67.0208 263.831 68.2188C264.873 69.3646 266.357 70.1719 268.284 70.6406C270.211 71.0573 272.764 70.901 275.941 70.1719C275.836 70.9531 275.524 71.6042 275.003 72.125C274.534 72.5938 273.961 72.9844 273.284 73.2969C272.659 73.5573 271.982 73.7656 271.253 73.9219C270.524 74.026 269.873 74.0781 269.3 74.0781C266.644 74.0781 264.534 73.6094 262.972 72.6719C261.409 71.6823 260.237 70.4062 259.456 68.8438C258.675 67.2812 258.18 65.5104 257.972 63.5312C257.764 61.5 257.685 59.4427 257.737 57.3594C257.842 55.276 257.998 53.2188 258.206 51.1875C258.415 49.1562 258.519 47.3073 258.519 45.6406ZM283.537 67.6719C284.475 67.6719 285.334 67.8542 286.116 68.2188C286.949 68.5833 287.756 69 288.537 69.4688C289.319 69.8854 290.1 70.276 290.881 70.6406C291.715 70.9531 292.6 71.1094 293.537 71.1094C294.631 71.1094 295.751 70.9271 296.897 70.5625C298.095 70.1458 299.189 69.599 300.178 68.9219C301.168 68.1927 301.975 67.3333 302.6 66.3438C303.225 65.3021 303.537 64.1823 303.537 62.9844C303.59 62.6198 303.59 62.1771 303.537 61.6562C303.537 61.1354 303.381 60.6146 303.069 60.0938C302.756 59.5208 302.235 59 301.506 58.5312C300.777 58.0104 299.709 57.6198 298.303 57.3594C296.949 57.099 295.23 56.9688 293.147 56.9688C291.064 56.9167 288.485 57.099 285.412 57.5156C284.631 57.5156 283.876 57.3073 283.147 56.8906C282.418 56.4219 281.767 55.875 281.194 55.25C280.621 54.5729 280.152 53.8698 279.787 53.1406C279.423 52.3594 279.241 51.6302 279.241 50.9531C279.241 48.9219 279.657 47.2812 280.491 46.0312C281.376 44.7292 282.496 43.7135 283.85 42.9844C285.204 42.2031 286.715 41.6562 288.381 41.3438C290.048 41.0312 291.741 40.875 293.459 40.875C294.241 40.875 295.126 40.9271 296.116 41.0312C297.157 41.0833 298.095 41.2917 298.928 41.6562C299.814 41.9688 300.543 42.4896 301.116 43.2188C301.741 43.9479 302.053 44.9635 302.053 46.2656C301.949 47.151 301.793 47.6979 301.584 47.9062C301.428 48.0625 301.168 48.0104 300.803 47.75C300.491 47.4375 300.1 47.0208 299.631 46.5C299.162 45.9792 298.59 45.4844 297.912 45.0156C297.287 44.4948 296.506 44.1042 295.569 43.8438C294.683 43.5833 293.668 43.5833 292.522 43.8438C291.324 43.8438 290.126 43.974 288.928 44.2344C287.73 44.4427 286.636 44.8333 285.647 45.4062C284.709 45.9792 283.928 46.7604 283.303 47.75C282.73 48.7396 282.444 49.9896 282.444 51.5C282.444 52.2812 282.782 52.8281 283.459 53.1406C284.189 53.401 285.126 53.5312 286.272 53.5312C287.47 53.5312 288.798 53.5052 290.256 53.4531C291.767 53.349 293.303 53.2969 294.866 53.2969C296.428 53.2969 297.939 53.4271 299.397 53.6875C300.855 53.8958 302.131 54.3646 303.225 55.0938C304.371 55.7708 305.256 56.7604 305.881 58.0625C306.506 59.3646 306.741 61.0573 306.584 63.1406C306.584 64.651 306.142 66.0833 305.256 67.4375C304.423 68.7917 303.329 69.9896 301.975 71.0312C300.673 72.0208 299.215 72.8021 297.6 73.375C295.985 73.9479 294.423 74.1562 292.912 74C292.287 73.9479 291.428 73.7917 290.334 73.5312C289.293 73.2188 288.251 72.8021 287.209 72.2812C286.22 71.7604 285.36 71.1354 284.631 70.4062C283.902 69.625 283.537 68.7135 283.537 67.6719ZM321.447 71.7344C321.447 71.1615 321.551 70.7188 321.759 70.4062C321.968 70.0938 322.358 69.7812 322.931 69.4688C323.556 69.7812 323.973 70.0938 324.181 70.4062C324.442 70.7188 324.572 71.1615 324.572 71.7344C324.572 72.3073 324.442 72.75 324.181 73.0625C323.973 73.375 323.556 73.6875 322.931 74C322.358 73.6875 321.968 73.375 321.759 73.0625C321.551 72.75 321.447 72.3073 321.447 71.7344ZM318.4 50.7188C318.4 49.5729 318.686 48.6094 319.259 47.8281C319.884 47.0469 320.64 46.3698 321.525 45.7969C322.462 45.1719 323.452 44.599 324.494 44.0781C325.587 43.5573 326.577 43.0104 327.462 42.4375C328.348 41.8125 329.103 41.0833 329.728 40.25C330.353 39.4167 330.666 38.401 330.666 37.2031C330.666 36.3698 330.379 35.6927 329.806 35.1719C329.233 34.651 328.53 34.2604 327.697 34C326.916 33.7396 326.082 33.5833 325.197 33.5312C324.311 33.4271 323.582 33.375 323.009 33.375C321.916 33.375 320.874 33.6094 319.884 34.0781C318.895 34.5469 317.931 35.0938 316.994 35.7188C316.056 36.3438 315.145 36.8906 314.259 37.3594C313.426 37.8281 312.593 38.0625 311.759 38.0625C311.186 38.0625 310.744 37.9583 310.431 37.75C310.119 37.4896 309.806 37.0729 309.494 36.5C310.171 35.4583 310.978 34.5729 311.916 33.8438C312.853 33.0625 313.869 32.4115 314.962 31.8906C316.056 31.3698 317.202 30.9792 318.4 30.7188C319.598 30.4583 320.796 30.3281 321.994 30.3281C322.931 30.3281 324.051 30.4583 325.353 30.7188C326.655 30.9271 327.905 31.3177 329.103 31.8906C330.353 32.4115 331.395 33.1146 332.228 34C333.114 34.8333 333.556 35.901 333.556 37.2031C333.556 38.5573 333.114 39.9635 332.228 41.4219C331.343 42.8802 330.301 44.2604 329.103 45.5625C327.957 46.8646 326.733 48.0365 325.431 49.0781C324.129 50.1198 323.061 50.9271 322.228 51.5V58.5312C321.291 58.5312 320.561 58.2448 320.041 57.6719C319.52 57.099 319.129 56.4219 318.869 55.6406C318.66 54.8073 318.53 53.9479 318.478 53.0625C318.426 52.125 318.4 51.3438 318.4 50.7188ZM367.344 19.0781C367.344 18.4531 367.552 17.9583 367.969 17.5938C368.437 17.1771 368.984 16.9688 369.609 16.9688C369.661 16.9688 369.792 16.9688 370 16.9688C370.208 16.9688 370.339 16.9688 370.391 16.9688C370.651 21.3438 370.885 25.5104 371.094 29.4688C371.302 33.375 371.458 37.2292 371.562 41.0312C371.719 44.8333 371.823 48.6354 371.875 52.4375C371.927 56.1875 371.953 60.1198 371.953 64.2344C371.953 64.8073 371.979 65.5885 372.031 66.5781C372.135 67.5677 372.214 68.5312 372.266 69.4688C372.37 70.4062 372.448 71.2656 372.5 72.0469C372.604 72.776 372.656 73.1667 372.656 73.2188L369.297 73.8438C369.193 71.7083 369.089 69.2604 368.984 66.5C368.88 63.6875 368.776 60.7188 368.672 57.5938C368.62 54.4167 368.542 51.1615 368.437 47.8281C368.385 44.4427 368.281 41.1094 368.125 37.8281C368.021 34.5469 367.891 31.3958 367.734 28.375C367.63 25.3021 367.5 22.5156 367.344 20.0156V19.0781ZM408.631 35.0156C408.527 34.9115 408.397 34.7292 408.241 34.4688C408.084 34.2083 407.928 33.9219 407.772 33.6094C407.616 33.2448 407.459 32.9323 407.303 32.6719C407.199 32.3594 407.147 32.125 407.147 31.9688C407.147 31.5 407.355 31.1354 407.772 30.875C408.189 30.6146 408.657 30.4583 409.178 30.4062C409.699 30.3542 410.194 30.3281 410.662 30.3281C411.183 30.3281 411.496 30.3281 411.6 30.3281C411.756 30.3281 411.965 30.3542 412.225 30.4062C412.537 30.4062 412.85 30.4323 413.162 30.4844C413.527 30.4844 413.84 30.5104 414.1 30.5625C414.36 30.5625 414.543 30.5625 414.647 30.5625C416.366 31.1875 418.319 31.9167 420.506 32.75C422.746 33.5833 425.037 34.5469 427.381 35.6406C429.725 36.7344 432.017 37.9844 434.256 39.3906C436.496 40.7448 438.501 42.3073 440.272 44.0781C442.043 45.7969 443.475 47.6979 444.569 49.7812C445.662 51.8646 446.209 54.1823 446.209 56.7344C446.209 58.9219 445.793 60.901 444.959 62.6719C444.126 64.3906 443.006 65.901 441.6 67.2031C440.246 68.4531 438.657 69.5469 436.834 70.4844C435.011 71.3698 433.136 72.099 431.209 72.6719C429.334 73.1927 427.433 73.5833 425.506 73.8438C423.579 74.1042 421.782 74.2344 420.116 74.2344C419.751 74.2344 419.126 74.2083 418.241 74.1562C417.355 74.1562 416.444 74.1302 415.506 74.0781C414.569 74.026 413.709 74 412.928 74C412.199 73.9479 411.808 73.9219 411.756 73.9219L411.6 71.0312L408.631 35.0156ZM413.084 34.625C413.084 34.7292 413.084 34.9375 413.084 35.25C413.084 35.5625 413.084 35.9271 413.084 36.3438C413.136 36.7083 413.162 37.0469 413.162 37.3594C413.162 37.6719 413.162 37.9062 413.162 38.0625C413.215 38.8438 413.267 40.0938 413.319 41.8125C413.423 43.5312 413.501 45.4844 413.553 47.6719C413.657 49.8594 413.761 52.151 413.866 54.5469C414.022 56.8906 414.152 59.1562 414.256 61.3438C414.36 63.4792 414.439 65.4323 414.491 67.2031C414.595 68.9219 414.647 70.1979 414.647 71.0312C414.959 71.0312 415.454 71.0573 416.131 71.1094C416.86 71.1094 417.616 71.1354 418.397 71.1875C419.178 71.1875 419.907 71.2135 420.584 71.2656C421.314 71.2656 421.834 71.2656 422.147 71.2656C424.543 71.2656 426.912 70.9792 429.256 70.4062C431.6 69.7812 433.683 68.8698 435.506 67.6719C437.381 66.4219 438.892 64.8333 440.037 62.9062C441.235 60.9271 441.834 58.5573 441.834 55.7969C441.834 53.7656 441.366 51.8385 440.428 50.0156C439.491 48.1406 438.241 46.4219 436.678 44.8594C435.168 43.2969 433.423 41.8906 431.444 40.6406C429.465 39.3906 427.407 38.3229 425.272 37.4375C423.189 36.5 421.079 35.7969 418.944 35.3281C416.86 34.8594 414.907 34.625 413.084 34.625ZM453.728 43.6875C454.353 43.6875 454.874 43.6615 455.291 43.6094C455.759 43.5573 456.15 43.8177 456.462 44.3906C456.619 46.7344 456.801 49.1302 457.009 51.5781C457.218 53.974 457.426 56.3958 457.634 58.8438C457.843 61.2917 457.973 63.7656 458.025 66.2656C458.129 68.7135 458.155 71.1094 458.103 73.4531C458.103 73.7656 458.025 73.9479 457.869 74C457.712 74.1042 457.478 74.1302 457.166 74.0781C456.905 74.0781 456.567 74.0521 456.15 74C455.785 74 455.369 74.0521 454.9 74.1562L453.728 43.6875ZM449.197 29.7031C449.197 29.3385 449.223 28.9479 449.275 28.5312C449.327 28.0625 449.431 27.6458 449.587 27.2812C449.796 26.9167 450.03 26.6042 450.291 26.3438C450.603 26.0833 450.968 25.9531 451.384 25.9531C452.009 25.9531 452.634 25.9792 453.259 26.0312C453.884 26.0833 454.483 26.2135 455.056 26.4219C455.629 26.5781 456.098 26.8646 456.462 27.2812C456.827 27.6458 457.009 28.1927 457.009 28.9219C457.009 30.1719 456.541 31.2917 455.603 32.2812C454.666 33.2188 453.52 33.6875 452.166 33.6875C451.124 33.6875 450.369 33.2969 449.9 32.5156C449.431 31.6823 449.197 30.7448 449.197 29.7031ZM453.728 30.0938C453.572 30.0938 453.494 30.224 453.494 30.4844C453.494 30.7448 453.572 30.875 453.728 30.875C453.936 30.875 454.041 30.7448 454.041 30.4844C454.041 30.224 453.936 30.0938 453.728 30.0938ZM460.856 62.6719C460.856 61.2656 461.091 59.7292 461.559 58.0625C462.028 56.3438 462.705 54.7812 463.591 53.375C464.476 51.9167 465.544 50.7188 466.794 49.7812C468.044 48.8438 469.502 48.375 471.169 48.375C472.419 48.375 473.512 48.5052 474.45 48.7656C475.44 48.974 476.351 49.3646 477.184 49.9375C478.07 50.4583 478.877 51.1094 479.606 51.8906C480.387 52.6198 481.195 53.4792 482.028 54.4688L481.559 14.3906C482.966 13.8698 483.825 13.6615 484.137 13.7656C484.502 13.8698 484.684 14.3125 484.684 15.0938C484.684 15.1979 484.658 15.3542 484.606 15.5625C484.606 15.7708 484.606 15.901 484.606 15.9531C484.554 16.9427 484.502 18.349 484.45 20.1719C484.45 21.9948 484.45 24.1042 484.45 26.5C484.502 28.8958 484.554 31.5 484.606 34.3125C484.658 37.0729 484.71 39.8854 484.762 42.75C484.815 45.5625 484.867 48.375 484.919 51.1875C485.023 53.9479 485.075 56.526 485.075 58.9219C485.127 61.3177 485.127 63.4531 485.075 65.3281C485.075 67.151 485.049 68.5312 484.997 69.4688C484.424 70.6667 483.617 71.5781 482.575 72.2031C481.585 72.8281 480.492 73.2969 479.294 73.6094C478.148 73.8698 476.95 74.026 475.7 74.0781C474.45 74.1302 473.278 74.1562 472.184 74.1562C468.695 74.1562 465.934 73.1406 463.903 71.1094C461.872 69.026 460.856 66.2135 460.856 62.6719ZM463.981 60.5625C463.981 61.8646 464.085 63.1667 464.294 64.4688C464.502 65.7188 464.867 66.8385 465.387 67.8281C465.908 68.8177 466.637 69.625 467.575 70.25C468.512 70.8229 469.71 71.1094 471.169 71.1094C472.054 71.1094 473.122 71.1094 474.372 71.1094C475.622 71.1094 476.82 70.9792 477.966 70.7188C479.111 70.4062 480.075 69.9375 480.856 69.3125C481.637 68.6875 482.028 67.8021 482.028 66.6562C482.028 65.3021 481.82 63.7656 481.403 62.0469C481.039 60.276 480.44 58.6094 479.606 57.0469C478.825 55.4323 477.809 54.0781 476.559 52.9844C475.361 51.8385 473.929 51.2656 472.262 51.2656C471.169 51.2656 470.127 51.5521 469.137 52.125C468.148 52.6979 467.262 53.4271 466.481 54.3125C465.752 55.1979 465.153 56.1875 464.684 57.2812C464.216 58.375 463.981 59.4688 463.981 60.5625ZM490.172 73.6094C490.068 72.776 489.964 71.5781 489.859 70.0156C489.807 68.401 489.729 66.6042 489.625 64.625C489.573 62.5938 489.521 60.4844 489.469 58.2969C489.417 56.1094 489.365 54.026 489.312 52.0469C489.26 50.0677 489.182 48.2969 489.078 46.7344C489.026 45.1198 488.922 43.8958 488.766 43.0625C488.766 43.0104 488.74 42.8802 488.687 42.6719C488.687 42.4635 488.661 42.2292 488.609 41.9688C488.609 41.7083 488.609 41.5 488.609 41.3438C488.609 41.1354 488.609 40.9792 488.609 40.875C489.391 40.25 490.042 40.0417 490.562 40.25C491.135 40.4583 491.604 40.9271 491.969 41.6562C492.333 42.3333 492.594 43.1927 492.75 44.2344C492.906 45.276 493.01 46.3177 493.062 47.3594C493.167 48.401 493.219 49.3646 493.219 50.25C493.219 51.0833 493.219 51.6823 493.219 52.0469C493.323 51.1615 493.479 50.1198 493.687 48.9219C493.896 47.724 494.208 46.5 494.625 45.25C495.042 44 495.536 42.776 496.109 41.5781C496.734 40.3281 497.49 39.2344 498.375 38.2969C499.26 37.3594 500.25 36.6302 501.344 36.1094C502.49 35.5885 503.792 35.3802 505.25 35.4844C507.542 35.5885 509.417 36.2135 510.875 37.3594C512.385 38.5052 513.557 40.0417 514.391 41.9688C515.276 43.8958 515.901 46.1094 516.266 48.6094C516.682 51.1094 516.943 53.7656 517.047 56.5781C517.203 59.3906 517.255 62.2552 517.203 65.1719C517.151 68.0365 517.125 70.7969 517.125 73.4531C516.656 73.5573 516.187 73.7396 515.719 74C515.25 74.2083 514.859 74.2865 514.547 74.2344C514.234 74.2344 514 74.026 513.844 73.6094C513.74 73.1406 513.792 72.2552 514 70.9531C514.052 70.0156 514.13 68.5833 514.234 66.6562C514.391 64.6771 514.443 62.4896 514.391 60.0938C514.391 57.6979 514.26 55.224 514 52.6719C513.74 50.1198 513.245 47.8021 512.516 45.7188C511.839 43.5833 510.849 41.8646 509.547 40.5625C508.245 39.2083 506.552 38.5312 504.469 38.5312C502.333 39.4167 500.536 41.0833 499.078 43.5312C497.672 45.9792 496.526 48.8438 495.641 52.125C494.807 55.4062 494.182 58.974 493.766 62.8281C493.401 66.6302 493.193 70.3542 493.141 74C493.036 73.9479 492.828 73.9219 492.516 73.9219C492.255 73.9219 491.943 73.9219 491.578 73.9219C491.266 73.8698 490.953 73.8177 490.641 73.7656C490.38 73.7135 490.224 73.6615 490.172 73.6094ZM521.05 20.0156C521.05 19.7552 521.258 19.4427 521.675 19.0781C522.092 18.7135 522.404 18.5312 522.612 18.5312C523.915 19.3646 524.748 20.4844 525.112 21.8906C525.477 23.2448 525.659 24.651 525.659 26.1094C525.659 26.4219 525.659 26.8125 525.659 27.2812C525.711 27.6979 525.711 28.1406 525.659 28.6094C525.607 29.026 525.451 29.4167 525.191 29.7812C524.982 30.1458 524.618 30.4062 524.097 30.5625C523.68 30.4062 523.29 29.8333 522.925 28.8438C522.56 27.8542 522.222 26.7604 521.909 25.5625C521.649 24.3646 521.441 23.2188 521.284 22.125C521.128 21.0312 521.05 20.3281 521.05 20.0156ZM538.959 45.6406C538.491 45.4844 537.84 45.4323 537.006 45.4844C536.225 45.4844 535.366 45.5365 534.428 45.6406C533.543 45.6927 532.683 45.7708 531.85 45.875C531.017 45.9792 530.314 46.0312 529.741 46.0312C529.48 46.0312 529.298 45.6667 529.194 44.9375C529.142 44.1562 529.037 43.1146 528.881 41.8125L539.897 41.0312C540.053 39.2083 540.157 37.9062 540.209 37.125C540.261 36.3438 540.261 35.6927 540.209 35.1719C540.209 34.599 540.183 33.974 540.131 33.2969C540.131 32.5677 540.131 31.4479 540.131 29.9375C541.485 29.7292 542.501 29.6771 543.178 29.7812C543.907 29.8333 544.402 30.0156 544.662 30.3281C544.923 30.6406 545.027 31.1094 544.975 31.7344C544.975 32.3073 544.897 33.0365 544.741 33.9219C544.636 34.8073 544.532 35.875 544.428 37.125C544.376 38.375 544.428 39.7812 544.584 41.3438L553.959 41.0312V44.8594C553.543 44.8594 552.892 44.8854 552.006 44.9375C551.121 44.9896 550.157 45.0417 549.116 45.0938C548.126 45.1458 547.189 45.1979 546.303 45.25C545.47 45.3021 544.845 45.4062 544.428 45.5625C544.011 47.4375 543.569 49.4427 543.1 51.5781C542.631 53.7135 542.319 55.8229 542.162 57.9062C542.006 59.9896 542.058 61.9427 542.319 63.7656C542.579 65.5365 543.23 67.0208 544.272 68.2188C545.314 69.3646 546.798 70.1719 548.725 70.6406C550.652 71.0573 553.204 70.901 556.381 70.1719C556.277 70.9531 555.965 71.6042 555.444 72.125C554.975 72.5938 554.402 72.9844 553.725 73.2969C553.1 73.5573 552.423 73.7656 551.694 73.9219C550.965 74.026 550.314 74.0781 549.741 74.0781C547.084 74.0781 544.975 73.6094 543.412 72.6719C541.85 71.6823 540.678 70.4062 539.897 68.8438C539.116 67.2812 538.621 65.5104 538.412 63.5312C538.204 61.5 538.126 59.4427 538.178 57.3594C538.282 55.276 538.439 53.2188 538.647 51.1875C538.855 49.1562 538.959 47.3073 538.959 45.6406ZM590.169 43.5312C590.794 43.2708 591.341 43.2188 591.809 43.375C592.278 43.5312 592.669 43.8177 592.981 44.2344C593.294 44.651 593.528 45.1458 593.684 45.7188C593.841 46.2396 593.971 46.7604 594.075 47.2812C594.752 46.1354 595.716 45.224 596.966 44.5469C598.268 43.8177 599.648 43.349 601.106 43.1406C602.565 42.8802 604.023 42.8281 605.481 42.9844C606.94 43.0885 608.163 43.401 609.153 43.9219C610.195 44.3906 610.924 45.0677 611.341 45.9531C611.757 46.7865 611.653 47.776 611.028 48.9219C609.674 48.1406 608.242 47.5156 606.731 47.0469C605.273 46.5781 603.841 46.4219 602.434 46.5781C601.028 46.7344 599.726 47.2812 598.528 48.2188C597.33 49.1042 596.341 50.5365 595.559 52.5156C594.778 54.4948 594.283 57.125 594.075 60.4062C593.919 63.6354 594.153 67.6719 594.778 72.5156H591.809C591.809 72.5156 591.757 72.099 591.653 71.2656C591.601 70.3802 591.523 69.2344 591.419 67.8281C591.367 66.4219 591.262 64.8594 591.106 63.1406C591.002 61.4219 590.898 59.6771 590.794 57.9062C590.69 56.1354 590.585 54.4427 590.481 52.8281C590.429 51.1615 590.351 49.7292 590.247 48.5312C590.247 48.375 590.221 48.0625 590.169 47.5938C590.169 47.125 590.169 46.6302 590.169 46.1094C590.169 45.5365 590.169 45.0156 590.169 44.5469C590.169 44.0781 590.169 43.7396 590.169 43.5312ZM615.891 55.6406C615.891 54.0781 616.229 52.3594 616.906 50.4844C617.583 48.5573 618.495 46.7865 619.641 45.1719C620.839 43.5052 622.167 42.125 623.625 41.0312C625.135 39.8854 626.698 39.3125 628.312 39.3125C629.198 39.3125 630.057 39.4948 630.891 39.8594C631.776 40.224 632.609 40.7188 633.391 41.3438C634.224 41.9167 634.953 42.5938 635.578 43.375C636.255 44.1042 636.776 44.8854 637.141 45.7188C637.505 46.5521 637.688 47.3594 637.688 48.1406C637.74 48.9219 637.531 49.599 637.062 50.1719L620.578 53.2188C620.37 53.2708 620.188 53.5312 620.031 54C619.875 54.4167 619.745 54.9635 619.641 55.6406C619.536 56.3177 619.432 57.0729 619.328 57.9062C619.276 58.6875 619.224 59.4688 619.172 60.25C619.12 60.9792 619.094 61.6562 619.094 62.2812C619.094 62.8542 619.094 63.2969 619.094 63.6094C619.094 65.0677 619.432 66.2656 620.109 67.2031C620.839 68.0885 621.75 68.7656 622.844 69.2344C623.938 69.7031 625.161 70.0156 626.516 70.1719C627.922 70.3281 629.302 70.4062 630.656 70.4062C632.01 70.4062 633.286 70.3542 634.484 70.25C635.682 70.1458 636.672 70.0938 637.453 70.0938C637.453 70.3021 637.375 70.5365 637.219 70.7969C637.062 71.0573 636.88 71.3177 636.672 71.5781C636.464 71.7865 636.255 71.9948 636.047 72.2031C635.839 72.3594 635.708 72.4635 635.656 72.5156C635.24 72.6198 634.589 72.776 633.703 72.9844C632.87 73.1406 631.958 73.2969 630.969 73.4531C630.031 73.6094 629.146 73.7396 628.312 73.8438C627.479 73.9479 626.906 74 626.594 74C624.979 74.3125 623.573 74.2865 622.375 73.9219C621.177 73.5573 620.161 72.9323 619.328 72.0469C618.495 71.1615 617.818 70.0938 617.297 68.8438C616.776 67.5417 616.385 66.1615 616.125 64.7031C615.865 63.2448 615.708 61.7344 615.656 60.1719C615.656 58.6094 615.734 57.099 615.891 55.6406ZM627.219 42.2812C626.75 42.2812 626.125 42.5417 625.344 43.0625C624.615 43.5312 623.911 44.1562 623.234 44.9375C622.609 45.6667 622.062 46.474 621.594 47.3594C621.177 48.1927 621.047 48.9219 621.203 49.5469C622.557 49.7031 623.964 49.6771 625.422 49.4688C626.88 49.2604 628.208 48.9479 629.406 48.5312C630.604 48.0625 631.594 47.5417 632.375 46.9688C633.156 46.3438 633.521 45.7188 633.469 45.0938C633.469 44.4688 632.974 43.9219 631.984 43.4531C631.047 42.9323 629.458 42.5417 627.219 42.2812ZM642.472 67.2812C642.472 64.3125 643.279 62.151 644.894 60.7969C646.56 59.4427 648.722 58.7656 651.378 58.7656C652.42 58.7656 653.383 58.7917 654.269 58.8438C655.206 58.8958 656.092 59.026 656.925 59.2344C657.758 59.4427 658.566 59.7552 659.347 60.1719C660.18 60.5885 661.04 61.1875 661.925 61.9688C661.925 61.8125 661.925 61.5 661.925 61.0312C661.977 60.5104 662.003 59.9635 662.003 59.3906C662.003 58.8177 662.003 58.2969 662.003 57.8281C662.003 57.3073 662.003 56.9427 662.003 56.7344C661.951 55.7969 661.925 54.599 661.925 53.1406C661.925 51.6302 661.795 50.0938 661.534 48.5312C661.326 46.9688 660.857 45.4844 660.128 44.0781C659.451 42.6719 658.331 41.6042 656.769 40.875C655.675 40.875 654.659 41.0573 653.722 41.4219C652.784 41.7865 651.847 42.1771 650.909 42.5938C649.972 43.0104 649.034 43.401 648.097 43.7656C647.159 44.0781 646.144 44.2344 645.05 44.2344C645.05 42.9323 645.441 41.8646 646.222 41.0312C647.055 40.1458 648.045 39.4688 649.191 39C650.336 38.5312 651.534 38.2188 652.784 38.0625C654.034 37.9062 655.128 37.8281 656.066 37.8281C657.003 37.9844 657.862 38.1667 658.644 38.375C659.477 38.5833 660.232 39 660.909 39.625C661.639 40.25 662.29 41.2135 662.862 42.5156C663.487 43.7656 664.008 45.5365 664.425 47.8281C664.894 50.1198 665.284 53.0365 665.597 56.5781C665.961 60.0677 666.248 64.3646 666.456 69.4688C666.56 70.1458 666.326 70.7448 665.753 71.2656C665.232 71.7344 664.503 72.151 663.566 72.5156C662.628 72.8281 661.56 73.1146 660.362 73.375C659.217 73.5833 658.045 73.7396 656.847 73.8438C655.649 73.9479 654.503 74.026 653.409 74.0781C652.316 74.1302 651.404 74.1562 650.675 74.1562C649.737 74.1562 648.774 74 647.784 73.6875C646.847 73.375 645.961 72.9323 645.128 72.3594C644.347 71.7344 643.696 71.0052 643.175 70.1719C642.706 69.2865 642.472 68.3229 642.472 67.2812ZM652.628 61.8125C650.024 62.5417 648.201 63.4271 647.159 64.4688C646.118 65.4583 645.649 66.4219 645.753 67.3594C645.909 68.2969 646.534 69.1562 647.628 69.9375C648.722 70.6667 650.05 71.1615 651.612 71.4219C653.175 71.6302 654.868 71.5 656.691 71.0312C658.514 70.5104 660.258 69.5208 661.925 68.0625C661.3 66.5521 660.675 65.4062 660.05 64.625C659.425 63.7917 658.748 63.1667 658.019 62.75C657.29 62.3333 656.482 62.0729 655.597 61.9688C654.711 61.8646 653.722 61.8125 652.628 61.8125ZM669.053 62.6719C669.053 61.2656 669.287 59.7292 669.756 58.0625C670.225 56.3438 670.902 54.7812 671.787 53.375C672.673 51.9167 673.741 50.7188 674.991 49.7812C676.241 48.8438 677.699 48.375 679.366 48.375C680.616 48.375 681.709 48.5052 682.647 48.7656C683.636 48.974 684.548 49.3646 685.381 49.9375C686.267 50.4583 687.074 51.1094 687.803 51.8906C688.584 52.6198 689.392 53.4792 690.225 54.4688L689.756 14.3906C691.162 13.8698 692.022 13.6615 692.334 13.7656C692.699 13.8698 692.881 14.3125 692.881 15.0938C692.881 15.1979 692.855 15.3542 692.803 15.5625C692.803 15.7708 692.803 15.901 692.803 15.9531C692.751 16.9427 692.699 18.349 692.647 20.1719C692.647 21.9948 692.647 24.1042 692.647 26.5C692.699 28.8958 692.751 31.5 692.803 34.3125C692.855 37.0729 692.907 39.8854 692.959 42.75C693.011 45.5625 693.064 48.375 693.116 51.1875C693.22 53.9479 693.272 56.526 693.272 58.9219C693.324 61.3177 693.324 63.4531 693.272 65.3281C693.272 67.151 693.246 68.5312 693.194 69.4688C692.621 70.6667 691.814 71.5781 690.772 72.2031C689.782 72.8281 688.689 73.2969 687.491 73.6094C686.345 73.8698 685.147 74.026 683.897 74.0781C682.647 74.1302 681.475 74.1562 680.381 74.1562C676.892 74.1562 674.131 73.1406 672.1 71.1094C670.069 69.026 669.053 66.2135 669.053 62.6719ZM672.178 60.5625C672.178 61.8646 672.282 63.1667 672.491 64.4688C672.699 65.7188 673.064 66.8385 673.584 67.8281C674.105 68.8177 674.834 69.625 675.772 70.25C676.709 70.8229 677.907 71.1094 679.366 71.1094C680.251 71.1094 681.319 71.1094 682.569 71.1094C683.819 71.1094 685.017 70.9792 686.162 70.7188C687.308 70.4062 688.272 69.9375 689.053 69.3125C689.834 68.6875 690.225 67.8021 690.225 66.6562C690.225 65.3021 690.017 63.7656 689.6 62.0469C689.235 60.276 688.636 58.6094 687.803 57.0469C687.022 55.4323 686.006 54.0781 684.756 52.9844C683.558 51.8385 682.126 51.2656 680.459 51.2656C679.366 51.2656 678.324 51.5521 677.334 52.125C676.345 52.6979 675.459 53.4271 674.678 54.3125C673.949 55.1979 673.35 56.1875 672.881 57.2812C672.412 58.375 672.178 59.4688 672.178 60.5625ZM698.212 71.0312C698.004 70.25 698.004 69.651 698.212 69.2344C698.473 68.7656 698.811 68.4271 699.228 68.2188C699.645 68.0104 700.114 67.9062 700.634 67.9062C701.155 67.8542 701.624 67.8281 702.041 67.8281C702.405 67.8281 702.848 67.8542 703.369 67.9062C703.89 67.9062 704.358 68.0104 704.775 68.2188C705.192 68.4271 705.504 68.7656 705.712 69.2344C705.921 69.651 705.921 70.25 705.712 71.0312C705.66 71.3958 705.504 71.7604 705.244 72.125C704.983 72.4375 704.671 72.75 704.306 73.0625C703.994 73.375 703.629 73.6354 703.212 73.8438C702.796 74.0521 702.405 74.1562 702.041 74.1562C701.624 74.1562 701.207 74.0521 700.791 73.8438C700.374 73.6354 699.983 73.375 699.619 73.0625C699.254 72.75 698.942 72.4375 698.681 72.125C698.473 71.7604 698.317 71.3958 698.212 71.0312ZM710.575 71.0312C710.367 70.25 710.367 69.651 710.575 69.2344C710.835 68.7656 711.174 68.4271 711.591 68.2188C712.007 68.0104 712.476 67.9062 712.997 67.9062C713.518 67.8542 713.986 67.8281 714.403 67.8281C714.768 67.8281 715.21 67.8542 715.731 67.9062C716.252 67.9062 716.721 68.0104 717.137 68.2188C717.554 68.4271 717.867 68.7656 718.075 69.2344C718.283 69.651 718.283 70.25 718.075 71.0312C718.023 71.3958 717.867 71.7604 717.606 72.125C717.346 72.4375 717.033 72.75 716.669 73.0625C716.356 73.375 715.992 73.6354 715.575 73.8438C715.158 74.0521 714.768 74.1562 714.403 74.1562C713.986 74.1562 713.57 74.0521 713.153 73.8438C712.736 73.6354 712.346 73.375 711.981 73.0625C711.617 72.75 711.304 72.4375 711.044 72.125C710.835 71.7604 710.679 71.3958 710.575 71.0312ZM722.938 71.0312C722.729 70.25 722.729 69.651 722.938 69.2344C723.198 68.7656 723.536 68.4271 723.953 68.2188C724.37 68.0104 724.839 67.9062 725.359 67.9062C725.88 67.8542 726.349 67.8281 726.766 67.8281C727.13 67.8281 727.573 67.8542 728.094 67.9062C728.615 67.9062 729.083 68.0104 729.5 68.2188C729.917 68.4271 730.229 68.7656 730.438 69.2344C730.646 69.651 730.646 70.25 730.438 71.0312C730.385 71.3958 730.229 71.7604 729.969 72.125C729.708 72.4375 729.396 72.75 729.031 73.0625C728.719 73.375 728.354 73.6354 727.938 73.8438C727.521 74.0521 727.13 74.1562 726.766 74.1562C726.349 74.1562 725.932 74.0521 725.516 73.8438C725.099 73.6354 724.708 73.375 724.344 73.0625C723.979 72.75 723.667 72.4375 723.406 72.125C723.198 71.7604 723.042 71.3958 722.938 71.0312Z" fill="#EEEEEE"/>
</svg>
