<svg width="520" height="520" viewBox="0 0 520 520" fill="none" xmlns="http://www.w3.org/2000/svg">
<rect x="-0.000244141" width="520" height="520" rx="100" fill="url(#paint0_angular_529_193)"/>
<path d="M107.23 229.561L92.3108 123.615L112.89 122.607L131.995 119.573L123.338 123.958L223.826 174.981L222.659 177.281L120.965 125.48L116.017 126.903L203.225 202.615L201.882 205.645L110.48 126.053L104.551 127.279L154.702 223.85L155.165 228.381L151.217 224.541L99.7708 127.306L97.4359 126.796L110.332 227.858L107.23 229.561Z" fill="white"/>
<path d="M56.3058 212.856C75.3412 208.626 100.721 223.091 108.573 229.3C112.415 220.59 145.939 218.503 154.65 226.957C156.337 209.188 185.786 195.521 203.138 204.943C201.113 192.075 207.862 175.307 221.942 175.804" stroke="white" stroke-width="2"/>
<path d="M64.1655 180.377C77.4488 165.107 97.6907 177.981 102.39 180.299C107.464 175.513 114.701 170.524 127.468 173.818C131.67 168.015 145.106 161.86 157.925 164.864C159.272 163.116 165.546 152.584 179.377 153.518C180.618 148.537 190.477 140.274 199.259 143.312" stroke="white" stroke-width="2"/>
<path d="M53.4544 198.651C69.7211 184.961 93.2787 190.15 103.009 197.914C109.101 190.958 128.44 190.953 137.499 194.404C141.048 188.998 159.785 173.933 178.333 180.859C179.209 177.055 183.786 164.189 196.148 160.819C197.47 154.487 208.819 147.327 215.324 153.565" stroke="white" stroke-width="2"/>
<path d="M172.698 129.818C165.52 128.167 157.682 133.379 152.192 140.909C145.66 140.064 137.636 144.44 137.495 146.597C126.653 143.602 117.763 145.792 115.185 152.708C110.636 150.17 101.08 154.429 98.3167 158.995C84.7001 156.376 77.5738 155.849 68.4508 162.33" stroke="white" stroke-width="2"/>
<path d="M167.157 284.778C166.649 289.613 161.931 293.081 156.618 292.522C151.306 291.964 147.412 287.591 147.92 282.756C148.429 277.92 153.147 274.453 158.459 275.011C163.771 275.569 167.665 279.942 167.157 284.778Z" fill="white"/>
<path d="M166.867 292.981C167.366 296.131 164.463 299.209 160.384 299.855C156.304 300.501 152.593 298.471 152.094 295.321C151.595 292.17 154.497 289.092 158.577 288.446C162.656 287.8 166.368 289.83 166.867 292.981Z" fill="white"/>
<path d="M162.918 277.731L166.879 266.332L179.864 259.756" stroke="white" stroke-width="2"/>
<path d="M186.705 268.67L173.754 271.809L165.117 280.186" stroke="white" stroke-width="2"/>
<path d="M166.055 283.398L178.224 281.242L191.818 286.634" stroke="white" stroke-width="2"/>
<path d="M188.649 294.008L177.122 288.437L163.426 287.261" stroke="white" stroke-width="2"/>
<path d="M150.2 279.72L145.747 270.135L134.907 269.392" stroke="white" stroke-width="2"/>
<path d="M132.027 279.48L142.29 277.164L149.051 282.041" stroke="white" stroke-width="2"/>
<path d="M149.052 287.198L138.208 286.997L128.447 294.663" stroke="white" stroke-width="2"/>
<path d="M135.611 305.638L141.089 295.838L151.928 289.872" stroke="white" stroke-width="2"/>
<path d="M157.5 277.5L154.42 224.337" stroke="white" stroke-width="1.5"/>
<path d="M222.447 175.782C222.447 175.782 223.457 172.315 230.575 166.828C237.693 161.34 239.885 162.362 239.885 162.362" stroke="white" stroke-width="2"/>
<path d="M34.1021 119.488C35.6516 119.488 37.6568 118.167 40.1177 115.523C42.3964 115.523 43.7636 115.523 44.2193 115.523C45.8599 115.615 46.8625 115.66 47.2271 115.66L54.6099 115.387C55.1568 115.387 57.3899 116.253 61.3091 117.984C61.4914 118.076 61.7193 118.121 61.9927 118.121C62.2662 118.121 63.1776 117.711 64.7271 116.891H66.231L91.7974 116.07C92.5266 115.979 93.6203 116.435 95.0787 117.438C95.8078 117.984 97.0383 118.531 98.7701 119.078L101.094 116.754C106.107 116.754 111.257 117.118 116.544 117.848L116.954 117.438C118.503 119.534 119.961 120.582 121.329 120.582C122.605 120.582 123.835 119.488 125.02 117.301C127.572 117.483 129.805 117.574 131.719 117.574L150.86 120.035L156.876 120.172C159.883 120.901 162.527 121.357 164.805 121.539C165.17 123.362 165.717 124.365 166.446 124.547C166.81 124.82 168.633 125.094 171.915 125.367C172.917 123.362 173.965 122.359 175.059 122.359C175.241 122.359 176.153 122.633 177.794 123.18L182.442 123.316C183.353 123.316 184.903 124 187.09 125.367C190.007 127.19 191.876 128.102 192.696 128.102L195.567 127.281L208.145 132.613C216.348 134.345 220.951 135.576 221.954 136.305C223.139 137.216 223.822 137.672 224.004 137.672L226.739 138.082C228.835 139.632 230.385 140.725 231.387 141.363L237.129 145.875L243.282 149.703C246.745 152.346 249.525 154.169 251.622 155.172C251.075 157.177 250.801 158.59 250.801 159.41C250.801 161.78 251.576 162.965 253.126 162.965C254.402 162.965 255.814 162.646 257.364 162.008C259.096 164.104 261.511 166.611 264.61 169.527C266.706 171.624 267.663 172.945 267.481 173.492L268.438 177.594L271.856 187.027L272.129 193.316L274.454 201.793L274.864 212.184L275.821 216.559L275.137 226.949C274.955 232.236 274.545 236.292 273.907 239.117C273.36 241.487 272.312 244.768 270.762 248.961H268.301C268.21 249.326 268.165 249.645 268.165 249.918C268.165 250.1 268.666 251.103 269.669 252.926C269.76 253.199 269.805 253.564 269.805 254.02C269.805 255.296 269.486 256.754 268.848 258.395C268.119 260.217 267.709 261.311 267.618 261.676C266.251 265.96 264.929 268.102 263.653 268.102C262.559 268.102 261.42 266.689 260.235 263.863L257.227 268.785L258.184 270.426L257.501 273.16L259.961 276.715C258.503 278.629 256.544 282.229 254.083 287.516L250.665 291.891L250.118 293.531L243.965 299.957L243.008 302.418L239.044 307.066C237.585 308.798 236.628 309.664 236.172 309.664C235.717 309.664 235.079 309.254 234.258 308.434H232.208L230.43 306.109C228.79 307.932 227.969 309.345 227.969 310.348C227.969 311.168 228.607 312.353 229.883 313.902C227.696 315.999 224.916 318.141 221.544 320.328C219.629 321.604 218.126 322.926 217.032 324.293C214.206 323.108 211.29 322.333 208.282 321.969L207.735 323.609C208.92 325.25 209.695 326.617 210.059 327.711C208.327 329.443 205.228 331.858 200.762 334.957L191.465 339.742C190.736 340.107 189.232 341.383 186.954 343.57C184.857 341.656 182.943 340.654 181.211 340.562C180.573 343.479 179.753 345.348 178.751 346.168C178.295 346.441 175.469 347.262 170.274 348.629C169.727 348.72 169.044 349.085 168.223 349.723C164.851 352.548 163.073 353.961 162.891 353.961H159.883C159.519 353.961 158.243 354.781 156.055 356.422C155.599 356.786 153.594 357.561 150.04 358.746C149.402 359.02 148.581 359.384 147.579 359.84C142.201 362.392 138.373 363.85 136.094 364.215C133.633 364.397 130.626 365.035 127.071 366.129L113.946 370.641L104.922 371.461L101.504 372.555L99.1802 372.828L94.1216 373.512H91.1138L85.3716 374.879L77.5787 375.152L66.7779 375.973L64.3169 375.836C61.9471 375.745 60.1242 375.608 58.8482 375.426L38.0669 376.246C37.9758 376.246 37.5656 376.383 36.8365 376.656C36.563 376.747 36.2896 376.793 36.0162 376.793C33.6464 376.793 32.4615 375.654 32.4615 373.375C32.4615 372.646 32.7349 372.099 33.2818 371.734C33.9198 371.37 36.0162 370.504 39.5708 369.137C43.3078 367.77 45.9511 366.539 47.5005 365.445C47.8651 362.984 48.7766 360.797 50.2349 358.883C49.9615 355.966 49.8248 353.824 49.8248 352.457L51.6021 342.066V341.93C51.6021 340.927 51.4654 339.833 51.1919 338.648C50.8274 337.372 50.6451 336.734 50.6451 336.734C50.6451 336.461 51.2831 333.59 52.5591 328.121C52.7414 327.301 52.8326 326.526 52.8326 325.797C52.8326 324.885 52.2857 323.199 51.1919 320.738L62.4029 317.594L51.6021 300.23C51.6021 300.23 51.6932 300.048 51.8755 299.684C55.3391 298.954 57.0708 297.77 57.0708 296.129C57.0708 295.126 56.4328 293.714 55.1568 291.891C54.3365 292.255 53.5617 292.438 52.8326 292.438C51.4654 292.438 50.7818 290.934 50.7818 287.926L51.0552 284.508V266.051C51.0552 264.775 50.9641 263.681 50.7818 262.77C50.6906 261.858 50.6451 261.311 50.6451 261.129C50.6451 259.671 51.4198 257.711 52.9693 255.25L50.6451 253.609V249.645L52.8326 247.457C51.1008 245.725 50.2349 243.674 50.2349 241.305V240.758V237.75C50.2349 232.372 50.0982 228.544 49.8248 226.266C49.7336 224.99 49.688 223.941 49.688 223.121C49.688 222.301 49.9615 221.298 50.5083 220.113C51.6021 220.296 52.5591 220.387 53.3794 220.387C54.5643 220.387 55.1568 219.885 55.1568 218.883C55.1568 218.609 54.6099 217.926 53.5162 216.832C52.6958 215.647 51.8755 214.736 51.0552 214.098C48.7766 213.915 47.5461 212.867 47.3638 210.953L48.3208 203.434L47.2271 176.363L48.1841 175.406H49.2779C50.2805 172.49 50.7818 170.53 50.7818 169.527C50.7818 168.251 49.4602 166.975 46.8169 165.699C46.6346 163.694 45.7688 159.592 44.2193 153.395L43.9458 148.473C43.2167 146.012 42.8521 143.551 42.8521 141.09C42.761 138.629 42.2596 134.254 41.3482 127.965C39.343 127.965 38.0669 127.919 37.5201 127.828C36.9732 127.737 36.6998 127.691 36.6998 127.691C36.244 127.691 35.2414 127.965 33.6919 128.512C32.6893 128.967 30.8208 129.195 28.0865 129.195C27.5396 128.01 27.2662 127.008 27.2662 126.188C27.2662 124.182 28.4966 122.633 30.9576 121.539C32.507 120.901 33.5552 120.217 34.1021 119.488ZM63.2232 150.25H66.5044C67.2336 152.073 67.8261 155.035 68.2818 159.137L68.9654 162.145L68.6919 170.895L69.1021 175.953C67.7349 178.961 67.0513 180.647 67.0513 181.012C67.0513 181.376 67.4159 182.835 68.1451 185.387L67.5982 195.367L67.7349 198.238L67.8716 202.75C68.5096 205.667 68.8287 207.398 68.8287 207.945C68.8287 208.674 68.6008 209.495 68.1451 210.406L64.5904 209.312C64.0435 210.406 63.7701 211.272 63.7701 211.91C63.7701 213.551 64.4537 214.553 65.8208 214.918C66.0031 215.009 66.5044 215.1 67.3248 215.191C68.1451 215.283 69.2388 215.556 70.606 216.012C68.6919 217.926 67.2336 219.247 66.231 219.977C61.856 223.258 59.6685 225.901 59.6685 227.906C59.6685 228.18 63.3599 233.967 70.7427 245.27C69.9224 249.189 69.4667 252.698 69.3755 255.797L66.0943 257.301L66.7779 258.668L70.1958 259.898L70.4693 261.266V280.816C70.4693 292.939 70.6971 299.41 71.1529 300.23C71.244 300.868 71.2896 301.37 71.2896 301.734C71.2896 301.917 71.0617 303.421 70.606 306.246C70.5149 307.158 70.4693 307.932 70.4693 308.57C70.4693 310.211 70.9706 313.948 71.9732 319.781C72.0643 320.328 72.1099 320.875 72.1099 321.422C72.1099 322.242 71.7909 323.199 71.1529 324.293L65.5474 322.516C64.5448 323.974 64.0435 325.159 64.0435 326.07C64.0435 329.078 65.7297 330.582 69.1021 330.582C69.5578 330.582 70.0591 330.582 70.606 330.582C70.6971 332.587 70.9706 334.592 71.4263 336.598C71.7909 338.238 71.9732 341.246 71.9732 345.621C71.9732 346.988 72.3378 350.361 73.0669 355.738C70.3326 357.652 68.4641 359.84 67.4615 362.301L63.4966 363.941V364.762L63.9068 365.309C64.8182 364.944 65.3651 364.762 65.5474 364.762L72.9302 365.035C76.0292 365.035 77.761 365.081 78.1255 365.172C78.4901 365.263 79.356 365.719 80.7232 366.539L82.6373 363.805C83.9133 363.987 84.7792 364.078 85.2349 364.078L98.9068 363.668C99.0891 363.668 99.8638 363.987 101.231 364.625C102.142 362.802 103.008 361.663 103.829 361.207C105.105 360.66 107.019 360.387 109.571 360.387H110.938C116.042 360.387 119.278 360.113 120.645 359.566L124.336 357.926L129.805 356.285C137.826 353.004 142.748 350.816 144.571 349.723L148.946 348.492C153.868 346.396 156.602 345.257 157.149 345.074C157.514 345.074 158.562 345.029 160.294 344.938L167.54 340.973C170.821 340.243 172.598 339.697 172.872 339.332C172.963 339.059 173.054 338.512 173.145 337.691C174.968 336.871 176.198 336.324 176.836 336.051C180.027 334.775 184.128 332.451 189.141 329.078C191.967 327.711 193.881 326.708 194.883 326.07C195.521 325.615 200.033 321.878 208.419 314.859L216.075 308.844L220.04 302.965L226.739 296.676C227.377 296.129 228.197 294.898 229.2 292.984C229.838 291.617 232.846 287.698 238.223 281.227C238.314 281.135 238.77 279.996 239.59 277.809C239.955 276.988 240.912 275.074 242.461 272.066C243.555 269.879 244.148 267.372 244.239 264.547C244.33 262.906 245.333 259.944 247.247 255.66C249.07 251.376 249.844 248.733 249.571 247.73L249.708 241.441L250.938 234.059C251.211 231.051 251.53 228.863 251.895 227.496C255.267 226.767 256.954 224.26 256.954 219.977C256.954 217.424 255.267 215.374 251.895 213.824C251.713 211.454 251.166 208.219 250.254 204.117L249.981 200.152C248.887 196.871 248.34 194.957 248.34 194.41C248.34 193.225 248.523 191.721 248.887 189.898C247.064 188.258 245.287 185.979 243.555 183.062C240.912 178.414 239.499 175.862 239.317 175.406C239.226 175.315 239.044 174.039 238.77 171.578L237.266 170.074C235.808 170.074 234.76 169.983 234.122 169.801C233.21 169.71 231.57 168.661 229.2 166.656C229.747 165.198 230.02 163.967 230.02 162.965C230.02 162.327 229.61 161.461 228.79 160.367C227.422 160.185 226.192 160.094 225.098 160.094C224.825 160.094 223.594 160.276 221.407 160.641C221.316 160.641 221.224 160.641 221.133 160.641C220.586 160.641 217.807 158.59 212.794 154.488L206.504 150.797L202.403 147.516L198.165 145.465L188.458 140.406L184.356 139.176L180.801 137.945L173.829 136.988L168.633 135.484L157.559 133.707L149.219 131.93C141.928 130.654 138.054 129.879 137.598 129.605C137.325 129.423 136.413 128.648 134.864 127.281C133.952 126.461 133.269 126.051 132.813 126.051C131.993 126.051 130.899 126.415 129.532 127.145C128.529 127.691 127.663 127.965 126.934 127.965C126.843 127.965 125.294 127.737 122.286 127.281L116.68 127.145L102.188 126.188L90.4302 126.598H84.0044H82.6373H81.8169C80.632 126.598 79.5383 126.37 78.5357 125.914C76.0748 124.911 74.7076 124.41 74.4341 124.41C74.343 124.41 73.6138 124.684 72.2466 125.23C71.5175 125.504 70.3781 125.732 68.8287 125.914C68.0083 127.372 67.5982 128.329 67.5982 128.785L68.0083 133.707L66.9146 137.672C66.55 140.862 66.0487 143.414 65.4107 145.328L62.9498 144.508C62.1294 145.875 61.7193 146.969 61.7193 147.789C61.7193 148.336 61.9016 148.792 62.2662 149.156L63.2232 150.25ZM305.429 377.887L306.112 376.656C308.938 371.005 310.442 367.906 310.624 367.359C310.806 366.812 310.989 364.579 311.171 360.66C312.903 351.363 313.905 344.755 314.179 340.836L312.128 339.605L311.718 338.785C318.098 335.777 321.835 333.909 322.929 333.18C324.114 332.359 324.706 331.402 324.706 330.309C324.706 327.939 320.741 324.566 312.811 320.191L315.956 319.098C315.956 316.637 316.093 314.996 316.366 314.176C316.366 313.993 316.366 313.902 316.366 313.902C316.366 313.538 316.002 312.535 315.272 310.895C314.543 309.072 314.179 306.839 314.179 304.195L316.229 286.422V267.555C316.229 266.643 316.822 265.413 318.007 263.863C319.101 262.678 319.966 261.174 320.604 259.352L316.093 257.301C315.455 253.017 315.136 249.736 315.136 247.457C315.136 246.546 315.181 245.634 315.272 244.723C315.728 238.707 315.956 235.426 315.956 234.879C315.956 234.788 315.956 234.605 315.956 234.332C314.953 226.129 314.452 222.027 314.452 222.027C314.452 221.845 314.908 221.389 315.819 220.66C316.457 220.113 317.414 219.293 318.69 218.199V216.285L314.999 213.551C315.181 211.637 315.272 209.996 315.272 208.629C315.272 205.712 315.09 202.34 314.726 198.512L317.46 195.23C316.093 193.408 315.409 192.04 315.409 191.129C315.409 190.309 315.546 189.397 315.819 188.395L313.358 188.121C313.176 187.757 313.085 187.529 313.085 187.438L320.468 175.543L321.015 164.332L324.706 159.957L312.811 148.473L313.085 139.312C313.085 136.943 312.128 135.758 310.214 135.758C309.302 135.758 308.254 135.986 307.069 136.441C306.158 135.712 305.702 134.983 305.702 134.254C305.702 132.613 306.34 131.292 307.616 130.289C308.254 129.742 309.074 129.469 310.077 129.469C310.897 129.469 311.946 129.56 313.222 129.742C315.136 128.193 317.186 126.871 319.374 125.777C323.658 123.772 326.073 122.77 326.62 122.77C327.532 122.77 328.625 123.772 329.901 125.777C330.539 125.686 331.041 125.641 331.405 125.641C332.408 125.641 333.821 126.005 335.643 126.734L338.515 124.273C342.16 124.547 344.576 124.775 345.761 124.957C348.13 125.23 349.862 125.367 350.956 125.367C351.138 125.367 355.696 124.866 364.628 123.863H364.765C365.038 123.863 365.904 124 367.362 124.273C370.917 124.82 379.621 125.276 393.476 125.641L396.893 126.188L403.319 126.598C404.413 126.689 405.097 126.734 405.37 126.734C406.373 126.734 407.74 126.051 409.472 124.684C411.75 125.23 414.94 125.641 419.042 125.914L426.151 127.008L431.073 127.555L434.491 128.512H439.55L443.925 129.195C447.479 129.651 451.308 130.699 455.409 132.34C457.505 133.16 458.736 134.527 459.101 136.441L458.554 137.125H456.503V140.68C457.323 141.409 458.235 141.819 459.237 141.91L459.921 141.363C459.83 140.725 459.784 140.178 459.784 139.723C459.784 138.902 460.331 137.945 461.425 136.852C462.154 137.034 462.883 137.49 463.612 138.219C464.068 138.583 464.524 138.902 464.979 139.176C467.714 140.999 469.081 142.594 469.081 143.961C469.081 146.786 468.671 150.25 467.851 154.352C469.856 154.443 470.858 155.081 470.858 156.266C470.858 156.904 469.992 158.59 468.261 161.324C466.62 163.785 464.797 165.608 462.792 166.793C462.61 166.884 462.063 167.522 461.151 168.707C460.331 169.527 457.004 172.717 451.171 178.277C447.069 181.103 444.882 182.652 444.608 182.926C443.97 183.564 443.332 184.794 442.694 186.617L438.046 189.625L435.585 189.078C434.4 190.081 433.215 190.855 432.03 191.402C430.116 192.132 428.339 193.499 426.698 195.504C424.511 197.965 423.052 199.423 422.323 199.879C421.685 200.243 420.318 200.562 418.222 200.836L415.897 202.887L412.206 201.793C411.659 203.434 411.067 204.801 410.429 205.895C407.147 206.624 404.55 207.672 402.636 209.039L403.183 209.586C401.177 212.047 399.309 213.779 397.577 214.781C396.483 215.328 394.569 215.875 391.835 216.422C390.923 216.604 390.149 217.424 389.511 218.883C386.321 220.888 383.951 222.483 382.401 223.668C384.407 224.033 385.455 224.352 385.546 224.625L390.741 235.016L395.663 240.211C396.119 240.667 396.757 241.76 397.577 243.492L395.253 244.586L397.167 246.5C397.805 246.5 398.306 246.5 398.671 246.5C400.311 246.5 402.18 247.457 404.276 249.371C404.823 249.918 405.735 251.103 407.011 252.926C408.013 254.293 409.061 255.706 410.155 257.164C408.515 258.622 407.558 259.944 407.284 261.129L408.788 262.496L414.393 263.043C415.032 263.772 415.715 264.866 416.444 266.324C416.444 266.507 417.538 267.691 419.726 269.879C420.09 270.335 421.685 273.297 424.511 278.766C425.878 281.135 429.797 286.148 436.268 293.805L440.643 299.957C443.742 303.603 445.474 305.882 445.839 306.793C447.024 309.345 447.616 311.077 447.616 311.988L447.479 313.902V314.176C447.479 314.996 447.662 315.725 448.026 316.363C448.3 316.91 450.67 318.414 455.136 320.875C457.232 322.151 459.374 324.156 461.561 326.891C468.215 335.367 471.724 340.016 472.089 340.836C472.818 342.385 473.183 344.391 473.183 346.852C474.55 348.219 476.692 349.586 479.608 350.953L481.522 350.543H481.659C482.297 350.543 482.753 350.68 483.026 350.953C483.209 351.044 483.938 352.411 485.214 355.055C485.67 355.602 487.356 356.695 490.272 358.336C491.64 359.977 492.597 360.797 493.143 360.797C493.69 360.797 495.331 360.159 498.065 358.883L502.577 359.293C502.942 359.293 503.625 359.065 504.628 358.609C505.448 359.339 505.858 360.068 505.858 360.797C505.858 361.526 505.585 362.21 505.038 362.848C504.856 363.03 502.896 363.987 499.159 365.719L494.511 368.316C493.964 368.59 492.551 368.954 490.272 369.41C488.449 369.684 485.624 370.549 481.796 372.008L477.694 373.512C475.416 375.061 474.231 375.836 474.14 375.836C473.775 375.836 472.681 374.97 470.858 373.238C470.038 372.509 468.762 371.78 467.03 371.051C466.028 368.863 463.84 365.217 460.468 360.113C459.921 359.293 459.602 357.516 459.511 354.781L451.171 349.723L453.495 344.664C451.581 342.385 449.621 340.608 447.616 339.332C445.884 337.509 443.15 333.727 439.413 327.984L439.823 324.566C437.18 323.382 434.947 321.832 433.124 319.918C428.384 315.361 425.696 310.257 425.058 304.605C423.964 302.509 421.822 300.732 418.632 299.273C416.718 298.089 413.983 294.534 410.429 288.609C408.515 288.062 407.056 287.151 406.054 285.875C404.595 283.961 402.909 282.047 400.995 280.133C401.086 277.581 400.676 275.712 399.765 274.527C397.759 271.702 396.21 270.289 395.116 270.289C394.296 270.289 393.384 270.38 392.382 270.562C391.561 269.56 390.103 267.236 388.007 263.59L378.3 251.012C375.474 247.092 372.74 243.902 370.097 241.441C364.172 236.064 360.344 233.375 358.612 233.375C358.43 233.375 352.551 235.562 340.976 239.938C340.976 239.938 340.793 239.938 340.429 239.938C339.426 239.938 338.196 239.846 336.737 239.664C336.464 241.122 335.917 242.854 335.097 244.859C334.823 245.589 334.686 246.09 334.686 246.363L334.96 249.781V253.473C335.507 257.574 335.78 259.625 335.78 259.625C335.78 260.172 335.552 261.585 335.097 263.863C334.914 264.775 334.823 265.868 334.823 267.145C334.823 268.967 334.914 270.882 335.097 272.887C335.188 274.436 335.279 278.355 335.37 284.645L336.327 288.473V299.547C336.692 303.375 336.874 305.426 336.874 305.699C336.874 306.52 336.555 307.477 335.917 308.57C335.188 309.755 334.778 311.077 334.686 312.535L331.132 313.902L332.089 320.602C333.456 320.693 334.595 321.057 335.507 321.695C334.96 323.245 334.686 324.521 334.686 325.523C334.686 325.797 335.051 327.21 335.78 329.762C335.871 330.035 335.917 330.445 335.917 330.992C335.917 331.539 335.871 332.587 335.78 334.137C335.78 334.775 335.78 335.504 335.78 336.324C335.78 338.056 335.826 339.879 335.917 341.793C333.729 342.978 332.636 344.573 332.636 346.578C332.636 348.401 333.866 349.449 336.327 349.723C335.963 350.908 335.78 351.637 335.78 351.91L336.054 360.25C336.054 361.617 335.416 363.395 334.14 365.582C333.502 366.767 332.226 367.861 330.311 368.863C328.215 370.048 327.076 370.777 326.893 371.051C326.255 371.689 325.572 372.6 324.843 373.785L320.058 373.102C317.232 377.203 313.677 379.254 309.393 379.254C308.573 379.254 307.252 378.798 305.429 377.887ZM328.534 189.078L331.132 187.711L334.276 190.855C334.276 194.592 334.413 198.694 334.686 203.16V208.492L335.097 215.465C334.55 218.199 334.276 221.754 334.276 226.129L331.952 226.949V229.273C332.226 229.273 332.408 229.273 332.499 229.273C333.41 229.365 334.55 229.638 335.917 230.094C337.375 228.909 338.651 228.18 339.745 227.906C340.383 227.724 341.933 227.359 344.393 226.812C345.578 227.451 346.444 227.77 346.991 227.77C347.538 227.77 348.404 227.496 349.589 226.949L350.272 225.719C352.278 225.536 355.65 224.579 360.39 222.848L364.081 222.164L371.737 217.379C374.38 216.103 377.252 214.462 380.351 212.457L407.558 197.828C412.844 195.458 416.49 193.635 418.495 192.359C419.862 191.357 421.867 189.443 424.511 186.617L429.979 182.516C432.44 180.055 434.035 178.505 434.765 177.867C435.311 177.594 436.633 177.047 438.729 176.227C439.367 175.862 440.826 173.993 443.104 170.621C445.018 169.254 446.158 168.251 446.522 167.613C447.343 165.973 447.753 164.378 447.753 162.828C447.753 162.19 447.662 161.507 447.479 160.777C447.024 159.41 446.796 158.499 446.796 158.043C446.796 157.861 446.887 157.405 447.069 156.676L449.804 154.898V154.215L444.882 152.438C443.788 150.523 443.013 149.202 442.558 148.473V146.695C442.558 146.604 442.421 146.376 442.147 146.012C441.601 145.374 441.327 144.645 441.327 143.824C441.327 143.368 441.373 142.822 441.464 142.184L437.226 140.953L436.952 143.004C434.765 142.366 433.352 141.91 432.714 141.637C430.344 140.725 428.02 139.996 425.741 139.449C424.009 139.085 422.505 138.31 421.229 137.125C419.68 137.581 418.723 137.809 418.358 137.809L410.702 135.348H400.175C399.172 135.348 397.851 134.71 396.21 133.434C394.66 133.889 391.744 134.163 387.46 134.254C384.634 135.074 383.085 135.484 382.811 135.484C382.356 135.484 380.305 134.755 376.659 133.297C376.477 133.206 374.699 132.841 371.327 132.203C368.775 132.203 364.901 133.616 359.706 136.441C358.065 137.353 356.516 137.809 355.058 137.809C354.42 137.809 354.009 137.672 353.827 137.398L349.179 130.699L344.393 132.613C340.11 132.887 337.649 133.206 337.011 133.57C335.461 134.573 334.504 135.803 334.14 137.262C334.048 137.535 333.912 141.044 333.729 147.789C333.729 148.609 333.091 150.569 331.815 153.668L329.901 152.984L329.218 155.172V155.309C329.127 156.22 329.537 157.223 330.448 158.316C332.818 160.777 334.185 162.372 334.55 163.102C334.55 167.385 334.55 169.983 334.55 170.895C334.641 171.897 334.686 172.672 334.686 173.219C334.686 173.857 334.413 174.723 333.866 175.816C333.228 177.001 332.909 178.505 332.909 180.328L330.175 182.926C330.175 185.113 329.491 186.982 328.124 188.531L328.534 189.078Z" fill="url(#paint1_diamond_529_193)"/>
<defs>
<radialGradient id="paint0_angular_529_193" cx="0" cy="0" r="1" gradientUnits="userSpaceOnUse" gradientTransform="translate(260 260) rotate(90) scale(260)">
<stop/>
<stop offset="0.5" stop-color="#2C2C2C"/>
<stop offset="1"/>
</radialGradient>
<radialGradient id="paint1_diamond_529_193" cx="0" cy="0" r="1" gradientUnits="userSpaceOnUse" gradientTransform="translate(260 -85.2558) rotate(90) scale(605.256)">
<stop/>
<stop offset="1" stop-color="white"/>
</radialGradient>
</defs>
</svg>
