<svg width="2789" height="1016" viewBox="0 0 2789 1016" fill="none" xmlns="http://www.w3.org/2000/svg">
<path d="M1346.91 2.73298C1329.7 5.41298 1295.48 14.013 1290.32 16.883C1288.03 18.223 1288.98 19.173 1294.14 20.903C1305.04 24.913 1351.3 48.243 1368.32 58.373L1384.19 67.933L1399.87 58.563C1416.89 48.243 1462.96 24.723 1473.86 20.903C1482.27 18.033 1480.55 16.8829 1456.65 10.3929C1418.22 -0.137054 1381.32 -2.61702 1346.91 2.73298Z" fill="white"/>
<path d="M1183.26 41.923C1146.36 47.463 1102.01 69.833 1050.39 108.643C1017.7 133.303 998.39 151.083 996.86 158.163C996.1 161.413 996.86 166.383 998.39 170.013C1000.11 173.833 1022.29 197.543 1050.2 225.263L1097.67 272.547C1098.61 273.486 1099.14 274.76 1099.14 276.09V432.703C1099.14 519.883 1098.57 643.773 1097.8 708.003L1096.67 822.528C1096.66 823.868 1096.11 825.147 1095.14 826.077L1091.3 829.783C1085.18 835.903 1074.09 837.043 1067.02 832.073C1057.46 825.383 1057.08 823.083 1057.08 751.013V692.196C1057.08 688.478 1053.17 686.061 1049.84 687.724L1042.17 691.563C991.32 717.183 948.68 759.243 923.25 809.143C903.75 847.383 896.68 877.773 895.15 928.253L894.068 962.791C894.025 964.17 894.554 965.507 895.53 966.483L900.88 971.833L906.106 977.058C907.043 977.996 908.315 978.523 909.641 978.523H1384H1858.36C1859.69 978.523 1860.96 977.996 1861.89 977.058L1867.12 971.833L1872.47 966.483C1873.45 965.507 1873.98 964.17 1873.93 962.791L1872.85 928.243C1872.08 901.283 1870.75 886.943 1867.88 874.333C1848.95 791.933 1799.25 728.463 1724.88 690.993L1718.13 687.666C1714.81 686.029 1710.92 688.447 1710.92 692.151V750.063C1710.92 820.993 1710.35 825.583 1701.17 832.083C1693.9 837.053 1682.82 836.093 1676.7 829.793L1672.86 826.086C1671.89 825.156 1671.34 823.879 1671.33 822.54L1670.2 715.653L1669.07 608.837C1669.06 607.575 1669.52 606.354 1670.37 605.42L1676.7 598.463C1694.29 579.533 1693.91 559.843 1675.74 542.253C1666.56 533.273 1666.37 526.583 1675.74 517.593C1684.15 509.753 1689.89 498.093 1689.89 489.103C1689.89 480.113 1684.15 468.453 1675.74 460.613L1670.37 455.395C1669.41 454.454 1668.86 453.161 1668.86 451.811V363.873V276.09C1668.86 274.76 1669.39 273.486 1670.33 272.547L1717.8 225.263C1744.76 198.493 1767.89 173.833 1769.42 170.393C1773.82 160.073 1771.14 153.763 1756.04 139.993C1739.22 124.313 1698.11 93.343 1676.51 79.963C1654.14 66.003 1625.46 52.433 1604.82 46.313C1562.57 33.883 1514.39 43.253 1450.92 76.523C1438.88 82.833 1418.8 94.493 1406.56 102.333L1386.67 114.81C1385.04 115.832 1382.96 115.828 1381.34 114.799L1361.63 102.333C1288.79 56.263 1227.04 35.423 1183.26 41.923ZM1421.28 208.063L1456.34 242.928C1457.27 243.86 1458.54 244.383 1459.86 244.383H1502.15H1541.5C1544.26 244.383 1546.5 246.622 1546.5 249.383V264.463V279.533C1546.5 282.294 1544.26 284.533 1541.5 284.533H1384H1226.5C1223.74 284.533 1221.5 282.294 1221.5 279.533V264.653V249.519C1221.5 246.783 1223.7 244.555 1226.44 244.519L1266.43 244.003L1309.32 243.459C1310.63 243.442 1311.88 242.913 1312.8 241.985L1347.11 207.493C1366.99 187.803 1383.43 171.743 1384.01 171.743C1384.38 171.733 1401.21 187.983 1421.28 208.063ZM1179.44 505.543V760.802C1179.44 762.128 1178.91 763.4 1177.98 764.337L1173.9 768.413C1167.78 774.533 1158.8 775.683 1149.81 771.663C1138.72 766.693 1139.29 780.073 1139.29 515.103V273.738C1139.29 272.224 1139.98 270.791 1141.16 269.842L1148.08 264.273C1156.68 257.013 1172.55 248.403 1177.14 248.213C1178.86 248.213 1179.44 300.973 1179.44 505.543ZM1607.3 255.093C1611.7 257.773 1618.39 262.553 1622.02 265.803L1626.97 270.047C1628.07 270.996 1628.71 272.382 1628.71 273.841V363.313V452.598C1628.71 454.049 1628.08 455.429 1626.98 456.378L1622.97 459.853C1614.75 466.733 1609.01 478.783 1608.82 489.293C1608.82 499.043 1615.7 513.003 1623.92 519.303C1631.57 525.423 1630.42 533.453 1620.29 544.733C1610.16 556.013 1606.53 567.293 1609.39 578.193C1611.68 586.413 1618.57 596.933 1624.68 601.323C1628.69 604.003 1628.69 605.533 1628.69 681.623C1628.69 750.453 1628.31 759.623 1625.44 764.403C1618.94 775.493 1603.26 777.403 1594.09 768.413L1590.01 764.338C1589.07 763.4 1588.54 762.127 1588.54 760.799V505.353V253.348C1588.54 250.547 1591.17 248.492 1593.89 249.173V249.173C1596.79 249.743 1602.71 252.603 1607.3 255.093ZM1546.5 436.333V544.585C1546.5 545.674 1546.14 546.733 1545.49 547.601L1535.22 561.173C1520.5 580.673 1488 612.023 1470.6 623.493C1400.05 670.143 1326.07 658.863 1259.15 591.183C1250.74 582.963 1239.08 569.383 1232.77 561.163L1222.51 547.601C1221.86 546.733 1221.5 545.674 1221.5 544.585V436.333V331.593C1221.5 328.832 1223.74 326.593 1226.5 326.593H1384H1541.5C1544.26 326.593 1546.5 328.832 1546.5 331.593V436.333ZM1256.29 644.343C1263.36 650.083 1276.55 658.873 1285.54 664.223C1295.48 669.963 1302.17 675.123 1302.75 677.413C1303.13 679.513 1306.57 710.103 1310.21 745.283C1323.78 874.523 1323.02 869.743 1336.59 874.903C1342.9 877.383 1344.43 877.193 1350.93 874.143C1363.36 868.023 1364.12 864.583 1360.87 833.993C1357.43 799.383 1357.24 738.403 1360.87 724.253C1366.22 703.223 1373.3 693.663 1384 693.663C1396.23 693.663 1404.65 707.623 1408.85 734.003C1411.53 751.213 1410.57 803.593 1406.75 837.623C1403.88 864.003 1405.03 868.213 1417.07 874.143C1423.57 877.203 1425.1 877.393 1431.41 874.903C1444.98 869.743 1444.22 874.523 1457.79 745.283C1461.42 710.103 1464.86 679.513 1465.25 677.413C1465.82 675.123 1472.52 669.953 1482.46 664.223C1500.24 653.893 1518.21 639.943 1535.61 623.123L1538.04 620.78C1541.21 617.719 1546.51 619.969 1546.51 624.38V640.523V666.085C1546.51 667.572 1545.85 668.983 1544.7 669.932L1537.52 675.893C1532.36 679.903 1523.37 686.983 1517.45 691.383C1511.33 695.783 1505.6 700.943 1504.64 702.853C1503.11 705.913 1496.04 765.753 1491.07 820.813C1488.01 852.743 1484 874.343 1479.41 883.133C1464.12 913.343 1431.42 924.433 1397.78 910.853L1385.88 906.064C1384.68 905.582 1383.34 905.582 1382.14 906.064L1370.24 910.853C1350.93 918.503 1332.2 918.693 1316.71 911.043C1305.05 905.303 1294.53 894.983 1288.61 883.133C1283.83 874.153 1279.82 852.163 1276.95 819.853C1272.55 770.143 1265.29 707.823 1263.57 703.803C1262.61 701.513 1255.16 694.823 1246.94 688.893C1238.72 682.773 1229.73 675.703 1226.87 673.023L1223.12 669.536C1222.1 668.59 1221.52 667.263 1221.52 665.873V640.333V624.24C1221.52 619.85 1226.77 617.591 1229.96 620.611L1232.61 623.123C1238.51 629.043 1249.22 638.603 1256.29 644.343Z" fill="white"/>
<path d="M1375.4 236.743L1367.94 244.393H1384H1400.06L1392.6 236.743C1388.58 232.533 1384.57 229.093 1384 229.093C1383.43 229.093 1379.41 232.533 1375.4 236.743Z" fill="white"/>
<path d="M1268.14 373.243C1260.88 380.503 1259.73 387.963 1264.32 397.143C1268.72 405.363 1274.64 406.893 1303.51 406.893C1326.83 406.893 1330.47 406.513 1334.67 403.073C1346.14 394.083 1345.57 377.643 1333.52 370.383C1328.36 367.323 1323.77 366.753 1301.21 366.753H1274.64L1268.14 373.243Z" fill="white"/>
<path d="M1434.47 370.373C1427.59 374.583 1423.38 384.713 1425.3 392.363C1425.87 395.043 1429.12 399.433 1432.18 402.113C1437.53 406.703 1438.87 406.893 1464.3 406.893C1493.17 406.893 1498.33 405.553 1503.11 397.333C1508.46 388.543 1507.32 380.703 1499.86 373.243L1493.36 366.743H1466.98C1444.22 366.743 1439.63 367.313 1434.47 370.373Z" fill="white"/>
<path d="M1357.23 469.413C1355.7 469.983 1350.16 474.573 1344.8 479.543C1335.24 488.533 1335.24 488.723 1319.56 489.673C1301.21 490.823 1287.44 496.363 1275.21 507.453C1259.72 521.213 1257.43 533.073 1268.14 543.773C1278.46 554.093 1287.64 552.753 1301.41 538.993C1307.72 532.493 1317.85 529.243 1331.43 529.243C1348.25 529.243 1355.14 526.183 1368.9 512.233C1375.97 505.353 1382.09 498.273 1382.86 496.743C1383.82 494.263 1384.2 494.263 1385.15 496.743C1385.91 498.273 1392.03 505.343 1399.1 512.233C1413.06 526.383 1419.56 529.243 1438.48 529.243C1451.86 529.243 1464.48 534.213 1468.88 541.283C1476.15 552.183 1490.29 553.333 1499.85 543.773C1510.56 533.063 1508.26 521.213 1492.78 507.453C1480.54 496.363 1466.78 490.823 1448.43 489.673C1432.75 488.713 1432.75 488.713 1423.19 479.353C1418.03 474.383 1411.34 469.603 1408.66 469.033C1401.78 467.313 1390.31 472.473 1387.44 478.403C1386.29 481.273 1384.76 483.373 1384 483.373C1383.24 483.373 1381.71 481.273 1380.56 478.403C1377.31 471.513 1364.88 466.543 1357.23 469.413Z" fill="white"/>
<path d="M1354.37 552.573C1347.68 556.203 1343.85 562.513 1343.85 569.973C1343.85 575.323 1347.29 584.123 1356.28 601.903C1366.8 622.363 1369.85 626.753 1375.21 629.433C1383.24 633.253 1384.77 633.253 1392.8 629.433C1398.15 626.753 1401.21 622.363 1411.73 601.903C1419.18 587.183 1424.16 574.943 1424.16 571.313C1424.16 563.283 1419.76 555.253 1413.64 552.573C1407.32 549.703 1359.72 549.513 1354.37 552.573Z" fill="white"/>
<path d="M806.95 198.815L754.373 190.488C752.695 190.222 750.996 190.827 749.863 192.095L707.114 239.933C704.592 242.755 699.972 241.862 698.684 238.304L677.938 180.997C677.318 179.286 675.817 178.046 674.018 177.761L559.123 159.563C555.292 158.957 552.259 162.752 553.696 166.354L665.454 446.507C666.859 450.028 671.519 450.766 673.943 447.851L866.803 215.946C869.283 212.964 867.571 208.417 863.741 207.81L806.95 198.815ZM590.156 195.266C588.718 191.663 591.751 187.867 595.582 188.474L622.74 192.775C624.49 193.052 625.962 194.234 626.611 195.883L682.604 338.142C684 341.689 688.694 342.432 691.117 339.488L788.261 221.487C789.387 220.119 791.153 219.449 792.903 219.727L820.063 224.028C823.893 224.635 825.605 229.181 823.125 232.163L681.036 403.063C678.612 405.979 673.952 405.241 672.547 401.72L590.156 195.266Z" fill="white"/>
<path d="M2255.54 571.198C2243.38 584.299 2236.62 595.44 2232.34 609.267C2227.29 625.746 2226.84 644.329 2231.19 662.138C2239.29 695.803 2264.82 726.207 2294.45 737.554C2302.59 740.598 2324.47 744.192 2332.1 743.592C2347.54 742.497 2360.46 737.78 2372.85 728.775C2378.16 724.876 2388.16 714.623 2392.3 708.753L2395.17 704.739L2390.78 708.503C2372.39 724.428 2347.96 727.255 2319.58 716.969C2297.59 708.942 2280.54 695.316 2267.38 675.42C2244.68 640.853 2242.07 598.192 2260.82 567.084C2261.96 565.275 2262.8 563.705 2262.67 563.684C2262.62 563.674 2259.33 567.049 2255.54 571.198Z" fill="white"/>
<path d="M2160.81 586.124C2146.52 601.94 2140.74 609.467 2134.84 620.104C2122.22 642.744 2116.01 672.634 2117.87 701.644C2119.07 720.071 2123.14 737.192 2130.83 756.403C2135.76 768.68 2137.94 772.812 2145.25 784.054C2161.98 809.88 2181.64 828.631 2206.62 842.562C2226.86 853.796 2260.02 860.24 2287.6 858.358C2325.25 855.711 2359.28 836.3 2383.54 803.677C2387.51 798.42 2393.52 788.72 2393.75 787.337C2393.82 786.921 2392.08 788.418 2389.96 790.633C2377.75 803.298 2357.97 815.007 2340.52 820.047C2320.55 825.743 2302 826.401 2280.63 822.107C2203.46 806.798 2145.24 727.939 2149.6 644.831C2150.86 620.966 2159.79 593.445 2172.18 574.964C2173.54 572.979 2174.59 571.299 2174.47 571.279C2174.35 571.255 2168.25 577.946 2160.81 586.124Z" fill="white"/>
<path d="M2048.46 609.838C2029.28 628.982 2025.46 633.265 2018.2 644.256C2003 667.255 1993.45 693.324 1989.81 721.852C1978.35 810.996 2019.37 903.269 2093.25 954.43C2112.31 967.676 2126.86 974.337 2150.41 980.84C2165.01 984.808 2192.03 988.744 2204.96 988.731C2240.47 988.792 2271.83 980.126 2300.93 962.259C2324.19 947.986 2351.11 921.283 2363.93 899.745L2366.26 895.852L2362.6 899.169C2340.21 919.638 2316.59 931.785 2288.04 937.565C2266.35 941.91 2246.58 942.08 2222.24 938.083C2196.06 933.784 2176.04 927.15 2156.29 916.144C2129.33 901.173 2105.37 880.578 2085.55 855.386C2077.5 845.082 2064.95 825.425 2059.27 814.099C2039 773.876 2030.37 731.507 2033.49 687.152C2034.21 676.87 2038.83 652.277 2041.82 642.795C2046.6 627.485 2053.82 611.578 2061.2 599.897C2063.3 596.611 2064.91 593.882 2064.79 593.861C2064.67 593.841 2057.31 601.036 2048.46 609.838Z" fill="white"/>
<path d="M494.175 809.102C492.728 812.373 495.084 816.061 498.66 816.123L538.041 816.811C541.617 816.873 544.1 813.27 542.769 809.95L523.893 762.899C522.246 758.793 516.47 758.692 514.68 762.739L494.175 809.102ZM522.911 650.641C521.84 650.241 520.664 650.221 519.58 650.583L375.65 698.618C373.435 699.357 372.026 701.531 372.257 703.854L390.937 892.072C391.097 893.682 392.026 895.116 393.431 895.919L513.361 964.488C514.844 965.337 516.659 965.368 518.171 964.572L640.421 900.23C641.853 899.476 642.831 898.076 643.047 896.473L668.285 709.022C668.596 706.708 667.265 704.486 665.077 703.67L522.911 650.641ZM607.018 885.494C608.454 888.829 605.969 892.535 602.338 892.471L578.72 892.059C576.686 892.023 574.875 890.758 574.143 888.86L558.651 848.709C557.918 846.81 556.108 845.545 554.073 845.51L481.779 844.248C479.744 844.212 477.891 845.413 477.092 847.285L460.208 886.871C459.41 888.743 457.557 889.944 455.522 889.909L431.83 889.495C428.201 889.432 425.846 885.643 427.396 882.36L515.915 694.938C517.754 691.045 523.326 691.141 525.028 695.096L607.018 885.494Z" fill="white"/>
<path d="M2123.13 210.846C2120.01 209.362 2116.88 207.94 2113.75 206.58C2114.55 204.353 2115.29 202.118 2116.03 199.884C2127.63 163.85 2126.14 133.658 2110.83 122.011C2096.07 110.865 2069.16 117.639 2040.38 138.052C2037.54 140.047 2034.74 142.172 2032.05 144.311C2030.61 142.517 2029.11 140.717 2027.6 138.978C2003.08 110.862 1976.85 97.2185 1959.3 105.185C1942.47 112.794 1934.6 140.164 1937.24 175.815C1937.51 179.355 1937.84 182.84 1938.29 186.401C1934.31 187.076 1930.38 187.882 1926.68 188.777C1893.25 196.563 1868.16 212.005 1866.03 230.691C1863.83 249.995 1886.17 272.158 1918.21 287.718C1920.81 288.954 1923.42 290.191 1926.09 291.311C1924.77 294.92 1923.57 298.482 1922.42 302.174C1912.19 335.793 1914.02 363.58 1928.72 374.718C1943.86 386.221 1972.3 379.433 2001.62 358.518C2003.94 356.84 2006.27 355.1 2008.62 353.236C2010.96 356.198 2013.44 359.05 2015.92 361.84C2039.08 387.543 2063.47 399.662 2080.24 392.108C2097.58 384.306 2106.21 355.643 2103.41 319.223C2103.18 316.439 2102.9 313.586 2102.56 310.664C2104.55 310.327 2106.48 309.921 2108.42 309.514C2144.48 301.651 2171.8 285.398 2174.03 265.784C2176.17 247.036 2154.54 226.145 2123.13 210.846V210.846ZM2047.72 149.042C2072.39 131.545 2094.16 126.065 2103.02 132.779C2112.5 139.939 2113.65 164.639 2103.64 195.777C2102.98 197.833 2102.33 199.826 2101.55 201.806C2088.55 197.191 2075.27 193.422 2061.82 190.635C2055.31 178.236 2048.02 166.249 2039.93 154.861C2042.54 152.839 2045.07 150.934 2047.72 149.042V149.042ZM1956.19 257.134C1958.34 262.894 1960.55 268.599 1962.95 274.263C1965.41 279.995 1967.92 285.735 1970.63 291.371C1961.37 289.25 1952.22 286.641 1943.25 283.55C1946.91 274.942 1951.27 266.1 1956.19 257.134V257.134ZM1959.76 225.826C1957.02 216.175 1954.86 206.778 1953.2 197.753C1962.09 196.76 1971.48 196.2 1981.19 196.052C1977.41 200.824 1973.69 205.727 1970.13 210.712C1966.58 215.636 1963.08 220.69 1959.76 225.826ZM1964.83 242.261C1969.77 234.175 1975.06 226.316 1980.57 218.608C1986.08 210.899 1991.92 203.48 1997.99 196.211C2007.09 196.559 2016.33 197.236 2025.72 198.306C2035.1 199.375 2044.33 200.802 2053.21 202.503C2057.44 210.882 2061.4 219.419 2065.1 228.114C2068.8 236.809 2072.18 245.655 2075.31 254.598C2070.3 262.677 2065.01 270.599 2059.44 278.362C2053.93 286.07 2048.15 293.496 2042.13 300.834C2033.09 300.493 2023.73 299.74 2014.28 298.664C2004.84 297.588 1995.73 296.237 1986.95 294.672C1982.61 286.218 1978.6 277.612 1974.9 268.856C1971.21 260.099 1967.89 251.259 1964.83 242.261ZM2069.87 286.319C2073.55 281.224 2077.07 276.046 2080.53 270.8C2083.36 280.21 2085.69 289.689 2087.57 299.368C2078 300.471 2068.37 301.065 2058.74 301.096C2062.58 296.269 2066.25 291.297 2069.87 286.319ZM2083.92 239.973C2081.71 234.206 2079.45 228.432 2077.05 222.768C2074.7 217.173 2072.22 211.626 2069.62 206.128C2079.16 208.469 2088.24 211.195 2096.67 214.224C2092.86 223.065 2088.59 231.605 2083.92 239.973V239.973ZM2029.83 163.299C2035.34 171.072 2040.45 179.176 2045.11 187.479C2033.26 185.565 2021.29 184.201 2009.32 183.4C2016.12 176.09 2023.05 169.358 2029.83 163.299ZM1964.37 117.42C1975.17 112.508 1996.62 123.727 2017.81 147.952C2019.15 149.485 2020.49 151.141 2021.88 152.804C2011.38 162.075 2001.53 172.108 1992.33 182.719C1978.6 182.407 1964.87 183.037 1951.17 184.547C1950.75 181.303 1950.46 178.01 1950.16 174.717C1947.92 144.126 1954.22 121.968 1964.37 117.42V117.42ZM1931.05 278.838C1928.6 277.808 1926.23 276.723 1923.86 275.576C1911.52 269.97 1897.71 261.753 1888.16 251.953C1882.58 246.93 1879.25 239.781 1878.96 232.164C1880.25 220.842 1900.91 208.529 1929.46 201.817C1933.03 200.97 1936.65 200.254 1940.26 199.6C1942.82 213.492 1946.25 227.233 1950.51 240.63C1943.26 252.904 1936.75 265.699 1931.05 278.838V278.838ZM1994.28 347.466C1983.29 355.678 1970.96 361.794 1957.86 365.442C1950.81 367.96 1943.08 367.392 1936.54 363.826C1927.62 357.044 1926.14 334.751 1934.9 305.978C1935.96 302.588 1937.07 299.206 1938.3 295.899C1951.44 300.404 1964.8 303.995 1978.46 306.616C1985.08 319.091 1992.54 331.16 2000.68 342.617C1998.54 344.316 1996.4 345.953 1994.28 347.466ZM2010.73 334.11C2005.37 326.605 2000.1 318.357 1995.07 309.573C2000.81 310.479 2006.75 311.281 2012.77 311.967C2018.97 312.673 2025.06 313.241 2031.11 313.617C2024.68 320.844 2017.87 327.653 2010.73 334.11V334.11ZM2087.25 361.63C2085.84 369.117 2081.43 375.76 2075.11 379.866C2064.9 384.468 2045.35 374.72 2025.55 352.783C2023.27 350.268 2021.02 347.567 2018.72 344.797C2029.11 335.389 2038.86 325.281 2047.88 314.526C2061.79 314.92 2075.76 314.317 2089.65 312.704C2089.96 315.309 2090.22 317.907 2090.41 320.437C2091.84 334.138 2090.74 348.114 2087.25 361.63V361.63ZM2105.77 296.364C2104.02 296.729 2102.28 297.094 2100.48 297.39C2097.8 283.422 2094.13 269.654 2089.63 256.167C2096.85 244.203 2103.2 231.765 2108.81 218.928C2111.83 220.213 2114.72 221.546 2117.5 222.865C2144.4 235.958 2162.4 252.925 2161.11 264.186C2159.73 276.313 2136.95 289.575 2105.77 296.364ZM2023.23 220.147C2038.45 221.881 2049.34 235.97 2047.55 251.624C2045.77 267.278 2031.99 278.557 2016.77 276.823C2001.55 275.089 1990.67 260.999 1992.45 245.346C1994.23 229.692 2008.01 218.413 2023.23 220.147Z" fill="white"/>
<g clip-path="url(#clip0_863_120)">
<path d="M64.4341 246.63C63.3109 244.107 64.4454 241.152 66.9681 240.028L100.373 225.156C102.895 224.032 105.851 225.167 106.974 227.69L110.827 236.344C111.951 238.867 110.816 241.822 108.293 242.946L92.6782 249.898C90.1556 251.021 89.021 253.977 90.1442 256.499L93.9975 265.154C95.1206 267.677 98.0762 268.811 100.599 267.688L116.214 260.736C118.737 259.613 121.692 260.747 122.815 263.27L126.669 271.924C127.792 274.447 126.657 277.403 124.135 278.526L90.73 293.398C88.2073 294.522 85.2518 293.387 84.1286 290.864L64.4341 246.63Z" fill="white"/>
<path d="M115.482 223.902C114.359 221.379 115.493 218.423 118.016 217.3L151.421 202.428C153.943 201.304 156.899 202.439 158.022 204.962L160.842 211.296C161.965 213.818 160.831 216.774 158.308 217.897L139.672 226.194C138.818 226.575 138.434 227.576 138.814 228.43V228.43C139.194 229.284 140.195 229.669 141.05 229.288L159.686 220.991C162.208 219.868 165.164 221.002 166.287 223.525L178.061 249.97C179.184 252.492 178.05 255.448 175.527 256.571L142.122 271.444C139.6 272.567 136.644 271.433 135.521 268.91L132.356 261.802C131.233 259.28 132.368 256.324 134.89 255.201L153.526 246.904C154.381 246.523 154.765 245.522 154.384 244.668V244.668C154.004 243.813 153.003 243.429 152.149 243.81L133.513 252.107C130.99 253.23 128.035 252.095 126.911 249.573L115.482 223.902Z" fill="white"/>
<path d="M166.53 201.174C165.407 198.651 166.542 195.695 169.064 194.572L202.469 179.699C204.992 178.576 207.947 179.711 209.07 182.234L211.891 188.568C213.014 191.09 211.879 194.046 209.356 195.169L190.721 203.466C189.866 203.847 189.482 204.848 189.862 205.702V205.702C190.243 206.556 191.244 206.941 192.098 206.56L210.734 198.263C213.257 197.14 216.212 198.274 217.335 200.797L229.109 227.242C230.232 229.764 229.098 232.72 226.575 233.843L193.171 248.716C190.648 249.839 187.692 248.704 186.569 246.182L183.405 239.074C182.281 236.551 183.416 233.596 185.939 232.473L204.575 224.175C205.429 223.795 205.813 222.794 205.433 221.94V221.94C205.052 221.085 204.051 220.701 203.197 221.082L184.561 229.379C182.039 230.502 179.083 229.367 177.96 226.845L166.53 201.174Z" fill="white"/>
<path fill-rule="evenodd" clip-rule="evenodd" d="M306.589 226.597C309.272 225.403 312.402 226.767 313.353 229.546L412.389 518.82C413.063 520.791 412.446 522.973 410.838 524.298L313.871 604.219C313.17 604.796 312.326 605.172 311.428 605.306L187.487 623.795C185.427 624.102 183.393 623.101 182.38 621.281L33.6811 354.063C32.2531 351.497 33.3337 348.258 36.0165 347.064L306.589 226.597ZM152.268 450.635C149.585 451.83 148.505 455.07 149.934 457.636L163.834 482.588C165.094 484.849 167.871 485.775 170.236 484.722L244.658 451.587L282.791 434.609C285.475 433.414 288.605 434.779 289.556 437.558L302.862 476.455C303.54 478.437 302.911 480.631 301.285 481.953L269.527 507.767C269.526 507.768 269.526 507.769 269.526 507.77V507.77C269.526 507.771 269.526 507.772 269.525 507.772L269.506 507.788C269.501 507.792 269.495 507.795 269.489 507.796L229.124 514.109C227.054 514.432 225.002 513.431 223.983 511.6L212.93 491.744C211.671 489.482 208.893 488.555 206.528 489.608L191.698 496.21L180.441 501.222C177.758 502.417 176.678 505.655 178.106 508.222L203.24 553.38C204.252 555.2 206.287 556.201 208.346 555.894L285.714 544.353C285.746 544.348 285.776 544.335 285.8 544.314L285.902 544.231C285.903 544.229 285.904 544.227 285.903 544.226V544.226C285.902 544.224 285.903 544.222 285.904 544.221L346.241 494.498C347.849 493.173 348.467 490.99 347.791 489.019L346.8 486.126L313.883 389.981L310.541 380.168L287 311.424C286.049 308.645 282.919 307.281 280.236 308.476L197.246 345.425L114.297 382.357C111.611 383.552 110.532 386.797 111.966 389.363L125.9 414.3C127.161 416.558 129.936 417.481 132.298 416.429L213.006 380.496C213.006 380.496 213.006 380.496 213.006 380.496V380.496C213.006 380.496 213.006 380.496 213.006 380.496L257.384 360.737C260.067 359.543 263.196 360.906 264.148 363.683L273.71 391.577C274.55 394.027 273.38 396.713 271.014 397.766L228.898 416.518L152.268 450.635Z" fill="white"/>
</g>
<g clip-path="url(#clip1_863_120)">
<path fill-rule="evenodd" clip-rule="evenodd" d="M2500.41 184.791C2479.64 176.607 2457.26 188.344 2450.34 207.909C2443.7 226.703 2433.39 250.375 2419.5 267.517C2406.74 283.262 2392.78 291.536 2376.9 288.868C2374.35 288.44 2371.73 289.686 2370.78 292.088L2367 301.695C2366.05 304.097 2367.12 306.793 2369.27 308.217C2382.71 317.101 2387.28 332.673 2385.87 352.888C2384.34 374.898 2375.74 399.244 2367.78 417.52C2359.49 436.543 2367.85 460.389 2388.63 468.573L2601.52 552.434C2622.3 560.618 2644.68 548.88 2651.59 529.316C2658.23 510.521 2668.54 486.85 2682.43 469.707C2695.19 453.963 2709.13 445.68 2725.01 448.346C2727.56 448.773 2730.18 447.528 2731.12 445.126L2734.91 435.519C2735.85 433.117 2734.79 430.421 2732.63 428.997C2719.2 420.114 2714.65 404.551 2716.06 384.336C2717.6 362.326 2726.2 337.98 2734.16 319.706C2742.44 300.682 2734.08 276.835 2713.31 268.651L2500.41 184.791ZM2599.85 425.713C2589.38 452.281 2562.77 460.404 2529.13 447.154L2470.35 423.998C2467.78 422.986 2466.52 420.082 2467.53 417.513L2523.32 275.884C2524.33 273.315 2527.23 272.052 2529.8 273.064L2588.26 296.091C2616.31 307.14 2628.86 329.244 2619.88 352.046C2613.63 367.913 2595.86 377.34 2579.22 373.889C2578.97 373.838 2578.72 373.97 2578.63 374.205V374.205C2578.53 374.449 2578.64 374.727 2578.87 374.851C2599.14 385.665 2607.71 405.765 2599.85 425.713ZM2574.8 312.902L2546.81 301.873C2544.24 300.861 2541.33 302.124 2540.32 304.693L2526.23 340.47C2525.22 343.039 2526.48 345.942 2529.05 346.954L2551.9 355.955C2573.15 364.328 2588.17 360.578 2594.06 345.62C2599.58 331.604 2592.55 319.894 2574.8 312.902ZM2522 364.841C2519.43 363.829 2516.53 365.091 2515.52 367.661L2499.61 408.04C2498.6 410.609 2499.86 413.513 2502.43 414.525L2531.63 426.028C2553.77 434.746 2568.91 430.682 2575.34 414.366C2581.76 398.048 2573.01 384.933 2549.78 375.783L2522 364.841Z" fill="white"/>
<path d="M2450.34 207.909L2449.87 207.742L2449.87 207.742L2450.34 207.909ZM2419.5 267.517L2419.11 267.202L2419.11 267.202L2419.5 267.517ZM2385.87 352.888L2385.37 352.853L2385.37 352.853L2385.87 352.888ZM2367.78 417.52L2368.24 417.719L2368.24 417.719L2367.78 417.52ZM2651.59 529.316L2652.06 529.483L2652.06 529.483L2651.59 529.316ZM2682.43 469.707L2682.04 469.392L2682.04 469.392L2682.43 469.707ZM2716.06 384.336L2715.56 384.301L2715.56 384.301L2716.06 384.336ZM2734.16 319.706L2734.61 319.905L2734.61 319.905L2734.16 319.706ZM2515.52 367.661L2515.05 367.477L2515.52 367.661ZM2540.32 304.693L2539.86 304.51L2540.32 304.693ZM2523.32 275.884L2523.78 276.067L2523.32 275.884ZM2578.87 374.851L2579.1 374.41L2578.87 374.851ZM2732.63 428.997L2732.91 428.58L2732.63 428.997ZM2579.22 373.889L2579.32 373.4L2579.22 373.889ZM2725.01 448.346L2724.93 448.839L2725.01 448.346ZM2376.9 288.868L2376.98 288.375L2376.9 288.868ZM2526.23 340.47L2526.69 340.653L2526.23 340.47ZM2369.27 308.217L2369.55 307.8L2369.27 308.217ZM2499.61 408.04L2500.08 408.223L2499.61 408.04ZM2467.53 417.513L2467.06 417.33L2467.53 417.513ZM2450.82 208.076C2457.64 188.759 2479.73 177.183 2500.23 185.256L2500.6 184.325C2479.54 176.03 2456.87 187.929 2449.87 207.742L2450.82 208.076ZM2419.89 267.832C2433.83 250.622 2444.17 226.886 2450.82 208.076L2449.87 207.742C2443.24 226.52 2432.95 250.127 2419.11 267.202L2419.89 267.832ZM2376.81 289.361C2392.96 292.072 2407.08 283.637 2419.89 267.832L2419.11 267.202C2406.4 282.887 2392.61 290.999 2376.98 288.375L2376.81 289.361ZM2367.47 301.878L2371.25 292.271L2370.32 291.905L2366.54 301.511L2367.47 301.878ZM2386.37 352.923C2387.78 332.63 2383.21 316.829 2369.55 307.8L2369 308.634C2382.22 317.373 2386.77 332.716 2385.37 352.853L2386.37 352.923ZM2368.24 417.719C2376.2 399.428 2384.83 375.019 2386.37 352.923L2385.37 352.853C2383.85 374.777 2375.27 399.061 2367.32 417.32L2368.24 417.719ZM2388.81 468.108C2368.32 460.035 2360.05 436.501 2368.24 417.719L2367.32 417.32C2358.93 436.584 2367.39 460.744 2388.44 469.038L2388.81 468.108ZM2601.7 551.969L2388.81 468.108L2388.44 469.038L2601.34 552.899L2601.7 551.969ZM2651.12 529.149C2644.29 548.466 2622.2 560.042 2601.7 551.969L2601.34 552.899C2622.39 561.194 2645.06 549.295 2652.06 529.483L2651.12 529.149ZM2682.04 469.392C2668.1 486.602 2657.76 510.338 2651.12 529.149L2652.06 529.483C2658.7 510.704 2668.99 487.097 2682.82 470.022L2682.04 469.392ZM2725.09 447.853C2708.95 445.143 2694.85 453.588 2682.04 469.392L2682.82 470.022C2695.53 454.338 2709.31 446.217 2724.93 448.839L2725.09 447.853ZM2734.44 435.336L2730.66 444.943L2731.59 445.309L2735.37 435.703L2734.44 435.336ZM2715.56 384.301C2714.15 404.593 2718.7 420.386 2732.36 429.414L2732.91 428.58C2719.69 419.843 2715.16 404.509 2716.56 384.371L2715.56 384.301ZM2733.7 319.506C2725.73 337.796 2717.1 362.205 2715.56 384.301L2716.56 384.371C2718.09 362.447 2726.66 338.164 2734.61 319.905L2733.7 319.506ZM2713.12 269.116C2733.62 277.189 2741.88 300.723 2733.7 319.506L2734.61 319.905C2743.01 300.64 2734.55 276.481 2713.49 268.186L2713.12 269.116ZM2500.23 185.256L2713.12 269.116L2713.49 268.186L2500.6 184.325L2500.23 185.256ZM2528.95 447.619C2545.84 454.271 2561.02 455.582 2573.33 451.844C2585.65 448.1 2595.03 439.31 2600.32 425.896L2599.39 425.53C2594.2 438.684 2585.04 447.239 2573.04 450.887C2561.01 454.54 2546.07 453.287 2529.32 446.689L2528.95 447.619ZM2470.16 424.463L2528.95 447.619L2529.32 446.689L2470.53 423.532L2470.16 424.463ZM2522.85 275.701L2467.06 417.33L2467.99 417.696L2523.78 276.067L2522.85 275.701ZM2588.44 295.626L2529.99 272.599L2529.62 273.529L2588.08 296.557L2588.44 295.626ZM2620.35 352.229C2624.89 340.692 2623.99 329.307 2618.39 319.415C2612.8 309.534 2602.55 301.181 2588.44 295.626L2588.08 296.557C2602.02 302.05 2612.07 310.274 2617.52 319.907C2622.97 329.53 2623.85 340.598 2619.42 351.863L2620.35 352.229ZM2579.11 374.379C2595.99 377.878 2614.01 368.326 2620.35 352.229L2619.42 351.863C2613.26 367.5 2595.73 376.802 2579.32 373.4L2579.11 374.379ZM2600.32 425.896C2608.28 405.678 2599.57 385.325 2579.1 374.41L2578.63 375.292C2598.72 386.004 2607.14 405.852 2599.39 425.53L2600.32 425.896ZM2546.62 302.339L2574.62 313.367L2574.99 312.437L2546.99 301.408L2546.62 302.339ZM2526.69 340.653L2540.79 304.876L2539.86 304.51L2525.76 340.287L2526.69 340.653ZM2552.08 355.49L2529.23 346.489L2528.86 347.42L2551.71 356.42L2552.08 355.49ZM2593.6 345.437C2590.71 352.777 2585.6 357.332 2578.62 359.051C2571.61 360.777 2562.66 359.656 2552.08 355.49L2551.71 356.42C2562.39 360.626 2571.57 361.817 2578.86 360.022C2586.18 358.22 2591.53 353.421 2594.53 345.804L2593.6 345.437ZM2574.62 313.367C2583.44 316.84 2589.52 321.459 2592.73 326.882C2595.93 332.285 2596.31 338.552 2593.6 345.437L2594.53 345.804C2597.34 338.673 2596.97 332.077 2593.59 326.373C2590.23 320.689 2583.92 315.956 2574.99 312.437L2574.62 313.367ZM2500.08 408.223L2515.98 367.844L2515.05 367.477L2499.15 407.857L2500.08 408.223ZM2531.82 425.563L2502.61 414.059L2502.25 414.99L2531.45 426.493L2531.82 425.563ZM2574.87 414.182C2571.71 422.216 2566.43 427.183 2559.25 429.102C2552.04 431.029 2542.83 429.903 2531.82 425.563L2531.45 426.493C2542.57 430.872 2552 432.073 2559.5 430.068C2567.04 428.055 2572.54 422.832 2575.8 414.549L2574.87 414.182ZM2549.6 376.249C2561.17 380.807 2569.06 386.324 2573.26 392.663C2577.45 398.971 2578.03 406.155 2574.87 414.182L2575.8 414.549C2579.07 406.259 2578.49 398.726 2574.1 392.11C2569.73 385.525 2561.62 379.91 2549.96 375.318L2549.6 376.249ZM2521.82 365.306L2549.6 376.249L2549.96 375.318L2522.18 364.376L2521.82 365.306ZM2515.98 367.844C2516.89 365.532 2519.51 364.395 2521.82 365.306L2522.18 364.376C2519.36 363.263 2516.16 364.651 2515.05 367.477L2515.98 367.844ZM2546.99 301.408C2544.16 300.295 2540.97 301.683 2539.86 304.51L2540.79 304.876C2541.7 302.564 2544.31 301.428 2546.62 302.339L2546.99 301.408ZM2523.78 276.067C2524.69 273.755 2527.31 272.619 2529.62 273.529L2529.99 272.599C2527.16 271.486 2523.97 272.874 2522.85 275.701L2523.78 276.067ZM2578.16 374.022C2577.97 374.508 2578.18 375.052 2578.63 375.292L2579.1 374.41C2579.1 374.407 2579.09 374.403 2579.09 374.397C2579.09 374.394 2579.09 374.392 2579.09 374.391C2579.09 374.39 2579.09 374.389 2579.09 374.388L2578.16 374.022ZM2735.37 435.703C2736.42 433.048 2735.23 430.114 2732.91 428.58L2732.36 429.414C2734.34 430.728 2735.29 433.186 2734.44 435.336L2735.37 435.703ZM2579.32 373.4C2578.84 373.3 2578.34 373.556 2578.16 374.022L2579.09 374.388C2579.09 374.386 2579.09 374.385 2579.09 374.385C2579.09 374.384 2579.1 374.382 2579.1 374.381C2579.1 374.378 2579.11 374.377 2579.11 374.379L2579.32 373.4ZM2724.93 448.839C2727.67 449.3 2730.54 447.963 2731.59 445.309L2730.66 444.943C2729.81 447.093 2727.44 448.247 2725.09 447.853L2724.93 448.839ZM2376.98 288.375C2374.24 287.914 2371.37 289.25 2370.32 291.905L2371.25 292.271C2372.1 290.121 2374.46 288.967 2376.81 289.361L2376.98 288.375ZM2525.76 340.287C2524.65 343.113 2526.04 346.306 2528.86 347.42L2529.23 346.489C2526.92 345.578 2525.78 342.965 2526.69 340.653L2525.76 340.287ZM2366.54 301.511C2365.49 304.166 2366.68 307.1 2369 308.634L2369.55 307.8C2367.56 306.486 2366.62 304.028 2367.47 301.878L2366.54 301.511ZM2499.15 407.857C2498.03 410.683 2499.42 413.877 2502.25 414.99L2502.61 414.059C2500.3 413.149 2499.17 410.536 2500.08 408.223L2499.15 407.857ZM2470.53 423.532C2468.22 422.622 2467.08 420.009 2467.99 417.696L2467.06 417.33C2465.95 420.156 2467.34 423.35 2470.16 424.463L2470.53 423.532Z" fill="white"/>
</g>
<defs>
<clipPath id="clip0_863_120">
<rect width="307.11" height="433.5" fill="white" transform="translate(0 265.526) rotate(-22.5)"/>
</clipPath>
<clipPath id="clip1_863_120">
<rect width="391.353" height="305.006" fill="white" transform="translate(2424.79 155) rotate(21.5)"/>
</clipPath>
</defs>
</svg>
