<svg width="2990" height="1016" viewBox="0 0 2990 1016" fill="none" xmlns="http://www.w3.org/2000/svg">
<path d="M1402.91 2.73298C1385.7 5.41298 1351.48 14.013 1346.32 16.883C1344.03 18.223 1344.98 19.173 1350.14 20.903C1361.04 24.913 1407.3 48.243 1424.32 58.373L1440.19 67.933L1455.87 58.563C1472.89 48.243 1518.96 24.723 1529.86 20.903C1538.27 18.033 1536.55 16.8829 1512.65 10.3929C1474.22 -0.137057 1437.32 -2.61702 1402.91 2.73298Z" fill="white"/>
<path d="M1239.26 41.923C1202.36 47.463 1158.01 69.833 1106.39 108.643C1073.7 133.303 1054.39 151.083 1052.86 158.163C1052.1 161.413 1052.86 166.383 1054.39 170.013C1056.11 173.833 1078.29 197.543 1106.2 225.263L1155.14 274.013V432.703C1155.14 519.883 1154.57 643.773 1153.8 708.003L1152.65 824.623L1147.3 829.783C1141.18 835.903 1130.09 837.043 1123.02 832.073C1113.46 825.383 1113.08 823.083 1113.08 751.013V684.103L1098.17 691.563C1047.32 717.183 1004.68 759.243 979.25 809.143C959.75 847.383 952.68 877.773 951.15 928.253L950 964.953L956.88 971.833L963.57 978.523H1440H1916.43L1923.12 971.833L1930 964.953L1928.85 928.243C1928.08 901.283 1926.75 886.943 1923.88 874.333C1904.95 791.933 1855.25 728.463 1780.88 690.993L1766.92 684.113V750.063C1766.92 820.993 1766.35 825.583 1757.17 832.083C1749.9 837.053 1738.82 836.093 1732.7 829.793L1727.35 824.633L1726.2 715.653L1725.05 606.873L1732.7 598.463C1750.29 579.533 1749.91 559.843 1731.74 542.253C1722.56 533.273 1722.37 526.583 1731.74 517.593C1740.15 509.753 1745.89 498.093 1745.89 489.103C1745.89 480.113 1740.15 468.453 1731.74 460.613L1724.86 453.923V363.873V274.013L1773.8 225.263C1800.76 198.493 1823.89 173.833 1825.42 170.393C1829.82 160.073 1827.14 153.763 1812.04 139.993C1795.22 124.313 1754.11 93.343 1732.51 79.963C1710.14 66.003 1681.46 52.433 1660.82 46.313C1618.57 33.883 1570.39 43.253 1506.92 76.523C1494.88 82.833 1474.8 94.493 1462.56 102.333L1440 116.483L1417.63 102.333C1344.79 56.263 1283.04 35.423 1239.26 41.923ZM1477.28 208.063L1513.8 244.383H1558.15H1602.5V264.463V284.533H1440H1277.5V264.653V244.583L1322.43 244.003L1367.36 243.433L1403.11 207.493C1422.99 187.803 1439.43 171.743 1440.01 171.743C1440.38 171.733 1457.21 187.983 1477.28 208.063ZM1235.44 505.543V762.873L1229.9 768.413C1223.78 774.533 1214.8 775.683 1205.81 771.663C1194.72 766.693 1195.29 780.073 1195.29 515.103V271.343L1204.08 264.273C1212.68 257.013 1228.55 248.403 1233.14 248.213C1234.86 248.213 1235.44 300.973 1235.44 505.543ZM1663.3 255.093C1667.7 257.773 1674.39 262.553 1678.02 265.803L1684.71 271.543V363.313V454.883L1678.97 459.853C1670.75 466.733 1665.01 478.783 1664.82 489.293C1664.82 499.043 1671.7 513.003 1679.92 519.303C1687.57 525.423 1686.42 533.453 1676.29 544.733C1666.16 556.013 1662.53 567.293 1665.39 578.193C1667.68 586.413 1674.57 596.933 1680.68 601.323C1684.69 604.003 1684.69 605.533 1684.69 681.623C1684.69 750.453 1684.31 759.623 1681.44 764.403C1674.94 775.493 1659.26 777.403 1650.09 768.413L1644.54 762.873V505.353V247.833L1649.89 249.173C1652.79 249.743 1658.71 252.603 1663.3 255.093ZM1602.5 436.333V546.263L1591.22 561.173C1576.5 580.673 1544 612.023 1526.6 623.493C1456.05 670.143 1382.07 658.863 1315.15 591.183C1306.74 582.963 1295.08 569.383 1288.77 561.163L1277.5 546.263V436.333V326.593H1440H1602.5V436.333ZM1312.29 644.343C1319.36 650.083 1332.55 658.873 1341.54 664.223C1351.48 669.963 1358.17 675.123 1358.75 677.413C1359.13 679.513 1362.57 710.103 1366.21 745.283C1379.78 874.523 1379.02 869.743 1392.59 874.903C1398.9 877.383 1400.43 877.193 1406.93 874.143C1419.36 868.023 1420.12 864.583 1416.87 833.993C1413.43 799.383 1413.24 738.403 1416.87 724.253C1422.22 703.223 1429.3 693.663 1440 693.663C1452.23 693.663 1460.65 707.623 1464.85 734.003C1467.53 751.213 1466.57 803.593 1462.75 837.623C1459.88 864.003 1461.03 868.213 1473.07 874.143C1479.57 877.203 1481.1 877.393 1487.41 874.903C1500.98 869.743 1500.22 874.523 1513.79 745.283C1517.42 710.103 1520.86 679.513 1521.25 677.413C1521.82 675.123 1528.52 669.953 1538.46 664.223C1556.24 653.893 1574.21 639.943 1591.61 623.123L1602.51 612.613V640.523V668.433L1593.52 675.893C1588.36 679.903 1579.37 686.983 1573.45 691.383C1567.33 695.783 1561.6 700.943 1560.64 702.853C1559.11 705.913 1552.04 765.753 1547.07 820.813C1544.01 852.743 1540 874.343 1535.41 883.133C1520.12 913.343 1487.42 924.433 1453.78 910.853L1440.01 905.313L1426.24 910.853C1406.93 918.503 1388.2 918.693 1372.71 911.043C1361.05 905.303 1350.53 894.983 1344.61 883.133C1339.83 874.153 1335.82 852.163 1332.95 819.853C1328.55 770.143 1321.29 707.823 1319.57 703.803C1318.61 701.513 1311.16 694.823 1302.94 688.893C1294.72 682.773 1285.73 675.703 1282.87 673.023L1277.52 668.053V640.333V612.613L1288.61 623.123C1294.51 629.043 1305.22 638.603 1312.29 644.343Z" fill="white"/>
<path d="M1431.4 236.743L1423.94 244.393H1440H1456.06L1448.6 236.743C1444.58 232.533 1440.57 229.093 1440 229.093C1439.43 229.093 1435.41 232.533 1431.4 236.743Z" fill="white"/>
<path d="M1324.14 373.243C1316.88 380.503 1315.73 387.963 1320.32 397.143C1324.72 405.363 1330.64 406.893 1359.51 406.893C1382.83 406.893 1386.47 406.513 1390.67 403.073C1402.14 394.083 1401.57 377.643 1389.52 370.383C1384.36 367.323 1379.77 366.753 1357.21 366.753H1330.64L1324.14 373.243Z" fill="white"/>
<path d="M1490.47 370.373C1483.59 374.583 1479.38 384.713 1481.3 392.363C1481.87 395.043 1485.12 399.433 1488.18 402.113C1493.53 406.703 1494.87 406.893 1520.3 406.893C1549.17 406.893 1554.33 405.553 1559.11 397.333C1564.46 388.543 1563.32 380.703 1555.86 373.243L1549.36 366.743H1522.98C1500.22 366.743 1495.63 367.313 1490.47 370.373Z" fill="white"/>
<path d="M1413.23 469.413C1411.7 469.983 1406.16 474.573 1400.8 479.543C1391.24 488.533 1391.24 488.723 1375.56 489.673C1357.21 490.823 1343.44 496.363 1331.21 507.453C1315.72 521.213 1313.43 533.073 1324.14 543.773C1334.46 554.093 1343.64 552.753 1357.41 538.993C1363.72 532.493 1373.85 529.243 1387.43 529.243C1404.25 529.243 1411.14 526.183 1424.9 512.233C1431.97 505.353 1438.09 498.273 1438.86 496.743C1439.82 494.263 1440.2 494.263 1441.15 496.743C1441.91 498.273 1448.03 505.343 1455.1 512.233C1469.06 526.383 1475.56 529.243 1494.48 529.243C1507.86 529.243 1520.48 534.213 1524.88 541.283C1532.15 552.183 1546.29 553.333 1555.85 543.773C1566.56 533.063 1564.26 521.213 1548.78 507.453C1536.54 496.363 1522.78 490.823 1504.43 489.673C1488.75 488.713 1488.75 488.713 1479.19 479.353C1474.03 474.383 1467.34 469.603 1464.66 469.033C1457.78 467.313 1446.31 472.473 1443.44 478.403C1442.29 481.273 1440.76 483.373 1440 483.373C1439.24 483.373 1437.71 481.273 1436.56 478.403C1433.31 471.513 1420.88 466.543 1413.23 469.413Z" fill="white"/>
<path d="M1410.37 552.573C1403.68 556.203 1399.85 562.513 1399.85 569.973C1399.85 575.323 1403.29 584.123 1412.28 601.903C1422.8 622.363 1425.85 626.753 1431.21 629.433C1439.24 633.253 1440.77 633.253 1448.8 629.433C1454.15 626.753 1457.21 622.363 1467.73 601.903C1475.18 587.183 1480.16 574.943 1480.16 571.313C1480.16 563.283 1475.76 555.253 1469.64 552.573C1463.32 549.703 1415.72 549.513 1410.37 552.573Z" fill="white"/>
<path d="M862.949 198.815L807.68 190.061L757.534 246.177L732.933 178.223L606.438 158.188L724.568 454.313L928.425 209.186L862.949 198.815ZM642.896 187.098L681.563 193.223L741.716 346.049L846.078 219.279L884.745 225.403L731.662 409.526L642.896 187.098Z" fill="white"/>
<path d="M2311.54 571.198C2299.38 584.299 2292.62 595.44 2288.33 609.267C2283.29 625.746 2282.84 644.329 2287.19 662.138C2295.29 695.803 2320.82 726.207 2350.45 737.554C2358.59 740.598 2380.47 744.192 2388.1 743.592C2403.54 742.497 2416.46 737.78 2428.85 728.775C2434.16 724.876 2444.16 714.623 2448.3 708.753L2451.17 704.739L2446.78 708.503C2428.39 724.428 2403.96 727.255 2375.58 716.969C2353.59 708.942 2336.54 695.316 2323.38 675.42C2300.68 640.853 2298.07 598.192 2316.82 567.084C2317.96 565.275 2318.8 563.705 2318.67 563.684C2318.62 563.674 2315.33 567.049 2311.54 571.198Z" fill="white"/>
<path d="M2216.81 586.124C2202.52 601.94 2196.74 609.467 2190.84 620.104C2178.22 642.744 2172.01 672.634 2173.87 701.644C2175.07 720.071 2179.14 737.192 2186.83 756.403C2191.76 768.68 2193.94 772.812 2201.25 784.054C2217.98 809.88 2237.64 828.631 2262.62 842.562C2282.86 853.796 2316.02 860.24 2343.6 858.358C2381.25 855.711 2415.28 836.3 2439.54 803.677C2443.51 798.42 2449.52 788.72 2449.75 787.337C2449.82 786.921 2448.08 788.418 2445.96 790.633C2433.75 803.298 2413.97 815.008 2396.52 820.047C2376.55 825.743 2358 826.401 2336.63 822.107C2259.46 806.798 2201.24 727.939 2205.6 644.831C2206.86 620.966 2215.79 593.445 2228.17 574.964C2229.54 572.979 2230.59 571.299 2230.47 571.279C2230.35 571.255 2224.25 577.946 2216.81 586.124Z" fill="white"/>
<path d="M2104.46 609.838C2085.28 628.982 2081.46 633.265 2074.2 644.256C2058.99 667.255 2049.45 693.324 2045.8 721.852C2034.35 810.996 2075.37 903.269 2149.25 954.43C2168.31 967.676 2182.86 974.337 2206.41 980.84C2221.01 984.808 2248.03 988.744 2260.96 988.731C2296.47 988.792 2327.83 980.126 2356.93 962.259C2380.19 947.986 2407.1 921.283 2419.93 899.745L2422.26 895.852L2418.6 899.169C2396.21 919.638 2372.59 931.785 2344.04 937.565C2322.35 941.91 2302.58 942.08 2278.24 938.083C2252.06 933.784 2232.04 927.15 2212.29 916.144C2185.33 901.173 2161.37 880.578 2141.55 855.386C2133.5 845.082 2120.95 825.425 2115.27 814.099C2094.99 773.876 2086.37 731.507 2089.49 687.152C2090.21 676.87 2094.83 652.277 2097.82 642.795C2102.6 627.485 2109.82 611.578 2117.2 599.897C2119.3 596.611 2120.91 593.882 2120.79 593.861C2120.67 593.841 2113.31 601.036 2104.46 609.838Z" fill="white"/>
<path d="M547.127 815.992L601.574 816.942L575.478 751.892L547.127 815.992ZM577.256 650.024L427.863 699.882L447.192 894.639L571.743 965.85L698.703 899.029L724.818 705.065L577.256 650.024ZM666.081 892.606L631.355 892L613.439 845.568L534.413 844.189L514.888 889.967L480.091 889.36L576.647 684.92L666.081 892.606Z" fill="white"/>
<path d="M2179.13 210.846C2176.01 209.362 2172.88 207.94 2169.75 206.58C2170.55 204.353 2171.29 202.118 2172.03 199.884C2183.63 163.85 2182.14 133.658 2166.83 122.011C2152.07 110.865 2125.16 117.639 2096.38 138.052C2093.54 140.047 2090.73 142.172 2088.05 144.311C2086.61 142.517 2085.11 140.717 2083.6 138.978C2059.08 110.862 2032.85 97.2185 2015.3 105.185C1998.47 112.794 1990.6 140.164 1993.24 175.815C1993.51 179.355 1993.84 182.84 1994.29 186.401C1990.31 187.076 1986.38 187.882 1982.68 188.777C1949.25 196.563 1924.16 212.005 1922.03 230.691C1919.83 249.995 1942.16 272.158 1974.21 287.718C1976.81 288.954 1979.42 290.191 1982.09 291.311C1980.77 294.92 1979.57 298.482 1978.42 302.174C1968.19 335.793 1970.02 363.58 1984.71 374.718C1999.86 386.221 2028.3 379.433 2057.61 358.518C2059.94 356.84 2062.27 355.1 2064.62 353.236C2066.96 356.198 2069.44 359.05 2071.92 361.84C2095.08 387.543 2119.47 399.662 2136.24 392.108C2153.58 384.306 2162.21 355.643 2159.41 319.223C2159.18 316.439 2158.9 313.586 2158.56 310.664C2160.55 310.327 2162.48 309.921 2164.42 309.514C2200.47 301.651 2227.8 285.398 2230.03 265.784C2232.17 247.036 2210.54 226.145 2179.13 210.846V210.846ZM2103.72 149.042C2128.39 131.545 2150.16 126.065 2159.02 132.779C2168.5 139.939 2169.65 164.639 2159.64 195.777C2158.98 197.833 2158.33 199.826 2157.55 201.806C2144.55 197.191 2131.27 193.422 2117.82 190.635C2111.31 178.236 2104.02 166.249 2095.93 154.861C2098.54 152.839 2101.07 150.934 2103.72 149.042V149.042ZM2012.19 257.134C2014.34 262.894 2016.55 268.599 2018.95 274.263C2021.41 279.995 2023.92 285.735 2026.63 291.371C2017.37 289.25 2008.22 286.641 1999.25 283.55C2002.91 274.942 2007.27 266.1 2012.19 257.134V257.134ZM2015.76 225.826C2013.02 216.175 2010.86 206.778 2009.2 197.753C2018.09 196.76 2027.48 196.2 2037.19 196.052C2033.41 200.824 2029.68 205.727 2026.13 210.712C2022.58 215.636 2019.08 220.69 2015.76 225.826ZM2020.83 242.261C2025.77 234.175 2031.06 226.316 2036.57 218.608C2042.08 210.899 2047.92 203.48 2053.99 196.211C2063.09 196.559 2072.33 197.236 2081.72 198.306C2091.1 199.375 2100.33 200.802 2109.21 202.503C2113.44 210.882 2117.4 219.419 2121.1 228.114C2124.8 236.809 2128.18 245.655 2131.31 254.598C2126.3 262.677 2121.01 270.599 2115.44 278.362C2109.93 286.07 2104.15 293.496 2098.13 300.834C2089.09 300.493 2079.73 299.74 2070.28 298.664C2060.84 297.588 2051.73 296.237 2042.95 294.672C2038.61 286.218 2034.6 277.612 2030.9 268.856C2027.21 260.099 2023.89 251.259 2020.83 242.261ZM2125.87 286.319C2129.55 281.224 2133.07 276.046 2136.53 270.8C2139.36 280.21 2141.69 289.689 2143.57 299.368C2134 300.471 2124.37 301.065 2114.74 301.096C2118.58 296.269 2122.25 291.297 2125.87 286.319ZM2139.92 239.973C2137.71 234.206 2135.45 228.432 2133.05 222.768C2130.7 217.173 2128.22 211.626 2125.62 206.128C2135.16 208.469 2144.24 211.195 2152.67 214.224C2148.86 223.065 2144.59 231.605 2139.92 239.973V239.973ZM2085.83 163.299C2091.34 171.072 2096.45 179.176 2101.11 187.479C2089.26 185.565 2077.29 184.201 2065.32 183.4C2072.12 176.09 2079.04 169.358 2085.83 163.299ZM2020.37 117.42C2031.16 112.508 2052.62 123.727 2073.81 147.952C2075.15 149.485 2076.49 151.141 2077.88 152.804C2067.38 162.075 2057.53 172.108 2048.33 182.719C2034.6 182.407 2020.87 183.037 2007.17 184.547C2006.75 181.303 2006.46 178.01 2006.16 174.717C2003.92 144.126 2010.22 121.968 2020.37 117.42V117.42ZM1987.05 278.838C1984.6 277.808 1982.23 276.723 1979.86 275.576C1967.52 269.97 1953.71 261.753 1944.16 251.953C1938.58 246.93 1935.25 239.781 1934.96 232.164C1936.25 220.842 1956.91 208.529 1985.46 201.817C1989.03 200.97 1992.65 200.254 1996.26 199.6C1998.82 213.492 2002.25 227.233 2006.51 240.63C1999.26 252.904 1992.75 265.699 1987.05 278.838V278.838ZM2050.28 347.466C2039.29 355.678 2026.96 361.794 2013.86 365.442C2006.81 367.96 1999.08 367.392 1992.54 363.826C1983.62 357.044 1982.14 334.751 1990.9 305.978C1991.96 302.588 1993.07 299.206 1994.3 295.899C2007.44 300.404 2020.8 303.995 2034.46 306.616C2041.08 319.091 2048.54 331.16 2056.68 342.617C2054.54 344.316 2052.4 345.953 2050.28 347.466ZM2066.73 334.11C2061.37 326.605 2056.1 318.357 2051.06 309.573C2056.81 310.479 2062.75 311.281 2068.77 311.967C2074.96 312.673 2081.06 313.241 2087.11 313.617C2080.68 320.844 2073.87 327.653 2066.73 334.11V334.11ZM2143.24 361.63C2141.84 369.117 2137.43 375.76 2131.11 379.866C2120.9 384.468 2101.35 374.72 2081.55 352.783C2079.27 350.268 2077.02 347.567 2074.72 344.797C2085.11 335.389 2094.86 325.281 2103.88 314.526C2117.79 314.92 2131.76 314.317 2145.65 312.704C2145.96 315.309 2146.22 317.907 2146.41 320.437C2147.84 334.138 2146.73 348.114 2143.24 361.63V361.63ZM2161.77 296.364C2160.02 296.729 2158.28 297.094 2156.47 297.39C2153.8 283.422 2150.13 269.654 2145.63 256.167C2152.85 244.203 2159.2 231.765 2164.81 218.928C2167.83 220.213 2170.72 221.546 2173.5 222.865C2200.4 235.958 2218.4 252.925 2217.11 264.186C2215.73 276.313 2192.95 289.575 2161.77 296.364ZM2079.23 220.147C2094.45 221.881 2105.34 235.97 2103.55 251.624C2101.77 267.278 2087.99 278.557 2072.77 276.823C2057.55 275.089 2046.67 260.999 2048.45 245.346C2050.23 229.692 2064.01 218.413 2079.23 220.147Z" fill="white"/>
<g clip-path="url(#clip0_824_76)">
<path d="M311.583 224.374L413.511 522.096L312.801 605.101L184.064 624.306L31.0239 349.287L311.583 224.374Z" fill="#BFBFBF"/>
<path d="M383.511 513.605L296.409 259.188L181.729 310.247L302.133 580.678L383.511 513.605Z" fill="white" fill-opacity="0.22"/>
<path d="M147.273 452.86L166.059 486.582L244.658 451.587L229.02 416.464L147.273 452.86Z" fill="#EBEBEB"/>
<path d="M197.367 345.371L197.246 345.425L109.295 384.583L128.127 418.286L213.006 380.496L197.367 345.371Z" fill="#EBEBEB"/>
<path d="M285.904 544.229L269.634 507.685L269.498 507.794L225.679 514.647L210.706 487.748L191.698 496.21L175.448 503.446L204.923 556.405L285.763 544.345L285.904 544.229Z" fill="#EBEBEB"/>
<path d="M62.4004 242.062L104.94 223.122L112.861 240.912L88.1105 251.932L96.0312 269.722L120.782 258.702L128.702 276.492L86.1623 295.432L62.4004 242.062Z" fill="white"/>
<path d="M113.448 219.334L155.989 200.394L162.876 215.864L138.125 226.883L139.503 229.977L164.254 218.957L180.095 254.538L137.555 273.478L130.323 257.235L155.073 246.215L153.696 243.121L128.945 254.141L113.448 219.334Z" fill="white"/>
<path d="M164.497 196.606L207.037 177.666L213.924 193.135L189.174 204.155L190.551 207.249L215.302 196.229L231.143 231.809L188.603 250.75L181.371 234.506L206.122 223.487L204.744 220.393L179.993 231.413L164.497 196.606Z" fill="white"/>
<path d="M287.786 432.385L303.991 479.754L269.525 507.768L285.795 544.311L348.914 492.296L346.8 486.126L313.883 389.981L310.541 380.168L285.23 306.253L197.246 345.426L212.884 380.55L262.376 358.515L275.194 395.905L228.898 416.518L244.536 451.641L287.786 432.385Z" fill="white"/>
</g>
<g clip-path="url(#clip1_824_76)">
<path d="M2651.34 245.909C2658.26 226.344 2680.64 214.607 2701.41 222.791L2914.31 306.651C2935.08 314.835 2943.44 338.682 2935.16 357.706C2927.2 375.98 2918.6 400.326 2917.06 422.336C2915.52 444.414 2921.09 460.943 2937.58 469.281L2930.45 487.365C2912.71 482.217 2897.37 490.512 2883.43 507.707C2869.54 524.85 2859.23 548.521 2852.59 567.316C2845.68 586.88 2823.3 598.618 2802.52 590.434L2589.63 506.573C2568.85 498.389 2560.49 474.543 2568.78 455.52C2576.74 437.244 2585.34 412.898 2586.87 390.888C2588.41 368.81 2582.82 352.271 2566.33 343.933L2573.45 325.849C2591.2 330.997 2606.57 322.712 2620.5 305.517C2634.39 288.375 2644.7 264.703 2651.34 245.909V245.909Z" fill="url(#paint0_linear_824_76)"/>
<g filter="url(#filter0_d_824_76)">
<path d="M2730.13 485.154C2763.77 498.404 2790.38 490.281 2800.85 463.713C2808.76 443.63 2800.03 423.394 2779.46 412.634L2779.79 411.797C2796.55 415.502 2814.58 406.049 2820.88 390.046C2829.86 367.244 2817.31 345.14 2789.26 334.091L2726.15 309.232L2666.7 460.165L2730.13 485.154ZM2743.15 338.041L2775.8 350.902C2793.55 357.894 2800.58 369.604 2795.06 383.62C2789.17 398.578 2774.15 402.328 2752.9 393.955L2725.4 383.122L2743.15 338.041V338.041ZM2698.78 450.692L2718.35 401.008L2750.78 413.783C2774.01 422.933 2782.76 436.048 2776.34 452.365C2769.91 468.682 2754.77 472.746 2732.63 464.028L2698.78 450.692V450.692Z" fill="url(#paint1_linear_824_76)"/>
<path d="M2730.13 485.154C2763.77 498.404 2790.38 490.281 2800.85 463.713C2808.76 443.63 2800.03 423.394 2779.46 412.634L2779.79 411.797C2796.55 415.502 2814.58 406.049 2820.88 390.046C2829.86 367.244 2817.31 345.14 2789.26 334.091L2726.15 309.232L2666.7 460.165L2730.13 485.154ZM2743.15 338.041L2775.8 350.902C2793.55 357.894 2800.58 369.604 2795.06 383.62C2789.17 398.578 2774.15 402.328 2752.9 393.955L2725.4 383.122L2743.15 338.041V338.041ZM2698.78 450.692L2718.35 401.008L2750.78 413.783C2774.01 422.933 2782.76 436.048 2776.34 452.365C2769.91 468.682 2754.77 472.746 2732.63 464.028L2698.78 450.692V450.692Z" stroke="white"/>
</g>
</g>
<defs>
<filter id="filter0_d_824_76" x="2650.05" y="296.583" width="190.201" height="215.322" filterUnits="userSpaceOnUse" color-interpolation-filters="sRGB">
<feFlood flood-opacity="0" result="BackgroundImageFix"/>
<feColorMatrix in="SourceAlpha" type="matrix" values="0 0 0 0 0 0 0 0 0 0 0 0 0 0 0 0 0 0 127 0" result="hardAlpha"/>
<feOffset dy="4"/>
<feGaussianBlur stdDeviation="8"/>
<feColorMatrix type="matrix" values="0 0 0 0 0 0 0 0 0 0 0 0 0 0 0 0 0 0 0.15 0"/>
<feBlend mode="normal" in2="BackgroundImageFix" result="effect1_dropShadow_824_76"/>
<feBlend mode="normal" in="SourceGraphic" in2="effect1_dropShadow_824_76" result="shape"/>
</filter>
<linearGradient id="paint0_linear_824_76" x1="2676.93" y1="221.823" x2="2889.65" y2="598.783" gradientUnits="userSpaceOnUse">
<stop stop-color="white"/>
<stop offset="1" stop-color="#565656"/>
</linearGradient>
<linearGradient id="paint1_linear_824_76" x1="2733.34" y1="323.538" x2="2755.27" y2="469.62" gradientUnits="userSpaceOnUse">
<stop stop-color="white"/>
<stop offset="1" stop-color="#F1E5FC"/>
</linearGradient>
<clipPath id="clip0_824_76">
<rect width="307.11" height="433.5" fill="white" transform="translate(0 265.526) rotate(-22.5)"/>
</clipPath>
<clipPath id="clip1_824_76">
<rect width="391.353" height="305.006" fill="white" transform="translate(2625.79 193) rotate(21.5)"/>
</clipPath>
</defs>
</svg>
