<svg width="675" height="105" viewBox="0 0 675 105" fill="none" xmlns="http://www.w3.org/2000/svg">
<g filter="url(#filter0_d_831_42)">
<path d="M72.5726 27.984C72.5726 26 71.0366 24.624 67.9646 23.856C64.8926 23.088 61.1166 22.704 56.6366 22.704C52.2206 22.704 46.4286 23.344 39.2606 24.624C27.0366 26.864 18.4606 29.808 13.5326 33.456C11.4206 34.992 10.3646 36.496 10.3646 37.968C10.3646 39.44 11.3886 40.88 13.4366 42.288C13.8846 42.544 13.8526 42.704 13.3406 42.768C12.8926 42.768 12.5086 42.64 12.1886 42.384C10.5886 41.296 9.43662 39.76 8.73262 37.776C8.41262 36.88 8.25262 35.888 8.25262 34.8C8.25262 30.896 10.2046 27.856 14.1086 25.68C19.0366 22.8 25.1806 20.528 32.5406 18.864C39.9006 17.136 46.8446 16.272 53.3726 16.272C57.7246 16.272 62.0766 17.072 66.4286 18.672C68.7326 19.568 70.4606 20.816 71.6126 22.416C72.7646 24.016 73.3406 25.712 73.3406 27.504C73.3406 28.976 73.1486 29.712 72.7646 29.712C72.4446 29.648 72.3166 29.424 72.3806 29.04C72.5086 28.656 72.5726 28.304 72.5726 27.984ZM62.3966 23.952C62.9726 23.952 63.2606 24.112 63.2606 24.432C63.2606 24.88 62.9086 25.584 62.2046 26.544C52.7326 39.024 43.0366 53.648 33.1166 70.416C37.2766 70.864 40.9246 71.632 44.0606 72.72C47.2606 73.744 49.8206 75.312 51.7406 77.424C53.6606 79.472 54.6206 81.808 54.6206 84.432C54.6206 86.16 54.3646 86.992 53.8526 86.928C53.5326 86.928 53.4046 86.704 53.4686 86.256C53.5966 85.808 53.6606 85.488 53.6606 85.296C53.6606 83.824 52.5406 82.48 50.3006 81.264C46.2686 79.088 40.3806 78 32.6366 78C31.3566 78 30.0446 78.032 28.7006 78.096C25.4366 83.92 23.1966 88.368 21.9806 91.44C21.6606 92.144 21.3406 92.496 21.0206 92.496C20.7646 92.496 20.6366 92.144 20.6366 91.44C20.6366 89.776 22.5246 85.36 26.3006 78.192C21.9486 78.576 17.5326 79.664 13.0526 81.456C11.1966 82.16 9.69262 82.736 8.54062 83.184C7.38862 83.696 6.07662 84.08 4.60462 84.336C3.13262 84.656 2.20462 84.528 1.82062 83.952C1.30862 83.568 1.05262 82.992 1.05262 82.224C1.05262 81.52 1.18062 80.72 1.43662 79.824C1.75662 78.992 2.36462 78.064 3.26062 77.04C5.18062 74.672 9.02062 72.752 14.7806 71.28C17.9166 70.448 20.9566 70.032 23.9006 70.032C26.8446 70.032 29.1486 70.096 30.8126 70.224C36.6366 60.368 43.0046 50.224 49.9166 39.792C56.8926 29.296 60.7646 24.048 61.5326 24.048L62.3966 23.952ZM75.7144 45.072C77.1224 42.96 78.2424 41.296 79.0744 40.08C79.9704 38.8 80.6744 37.872 81.1864 37.296C81.6984 36.72 82.8504 36.24 84.6424 35.856C86.4344 35.408 88.1624 35.184 89.8264 35.184C91.4904 35.184 92.3224 35.376 92.3224 35.76C92.3224 36.08 90.9464 37.552 88.1944 40.176C85.4424 42.8 82.2424 46.288 78.5944 50.64C82.9464 51.344 85.7944 52.72 87.1384 54.768C87.6504 55.664 87.7144 56.24 87.3304 56.496C87.0104 56.752 86.6264 56.656 86.1784 56.208C84.8344 54.864 82.6904 54.192 79.7464 54.192C78.4664 54.192 77.0264 54.32 75.4264 54.576C70.2424 61.232 66.9784 66.672 65.6344 70.896C65.1864 72.112 64.9624 73.136 64.9624 73.968C64.9624 76.208 65.8904 77.328 67.7464 77.328C69.7304 77.328 72.5144 75.952 76.0984 73.2C80.7704 69.68 84.8344 66.192 88.2904 62.736C88.9304 62.032 89.3464 61.872 89.5384 62.256C89.7304 62.64 89.5704 63.056 89.0584 63.504C83.5544 69.264 78.9144 73.52 75.1384 76.272C71.4264 78.96 68.0024 80.304 64.8664 80.304C60.5784 80.304 58.4344 78.032 58.4344 73.488C58.4344 71.312 59.0424 68.72 60.2584 65.712L58.5304 67.344C58.0184 67.856 57.6664 68.016 57.4744 67.824C57.2184 67.568 57.0904 67.344 57.0904 67.152C57.0904 66.96 57.3464 66.64 57.8584 66.192C62.5304 62.096 65.7304 58.992 67.4584 56.88C66.2424 57.328 65.4104 57.36 64.9624 56.976C64.5784 56.592 64.2904 56.08 64.0984 55.44C63.9704 54.8 64.2904 54.032 65.0584 53.136C65.8904 52.176 67.0744 51.504 68.6104 51.12C70.2104 50.672 71.3944 50.416 72.1624 50.352C73.1224 48.944 74.3064 47.184 75.7144 45.072ZM97.4434 37.296C99.1074 37.296 100.195 37.744 100.707 38.64C101.283 39.536 101.571 40.496 101.571 41.52C101.571 42.48 101.123 44.016 100.227 46.128C99.3314 48.24 97.6034 50.416 95.0434 52.656C92.1634 55.088 89.4114 56.304 86.7874 56.304C86.5314 56.304 86.4034 56.208 86.4034 56.016C86.4034 55.824 86.5314 55.696 86.7874 55.632C89.5394 55.376 92.0674 54.064 94.3714 51.696C96.6754 49.264 98.0194 46.64 98.4034 43.824C96.9314 45.68 95.1394 46.608 93.0274 46.608C92.2594 46.608 91.6194 46.384 91.1074 45.936C90.6594 45.488 90.4354 45.008 90.4354 44.496C90.4354 42.768 91.1714 41.168 92.6434 39.696C94.2434 38.096 95.8434 37.296 97.4434 37.296ZM95.8511 72.72C95.7871 72.656 95.7551 72.56 95.7551 72.432C95.7551 72.304 95.8831 72.24 96.1391 72.24C96.3311 72.24 96.4591 72.368 96.5231 72.624C97.6751 75.184 99.5631 76.464 102.187 76.464C105.451 76.464 108.299 74.864 110.731 71.664C112.523 69.296 114.091 66.832 115.435 64.272C116.843 61.648 117.995 59.568 118.891 58.032C119.851 56.496 121.291 54.768 123.211 52.848C125.195 50.928 126.987 49.744 128.587 49.296C128.203 49.104 127.563 49.008 126.667 49.008C125.771 49.008 124.075 49.68 121.579 51.024C119.147 52.304 116.715 53.968 114.283 56.016C111.851 58 109.227 60.272 106.411 62.832C103.595 65.392 101.899 66.896 101.323 67.344C100.747 67.792 100.395 67.792 100.267 67.344C100.139 66.896 100.299 66.48 100.747 66.096C102.411 64.688 104.811 62.512 107.947 59.568C111.083 56.56 113.451 54.384 115.051 53.04C116.715 51.632 118.571 50.448 120.619 49.488C122.667 48.464 124.203 47.952 125.227 47.952C127.787 47.952 129.355 48.4 129.931 49.296C128.267 50 126.891 51.856 125.803 54.864C124.779 57.872 123.595 61.36 122.251 65.328C120.971 69.296 119.339 72.4 117.355 74.64C119.019 74 121.579 72.528 125.035 70.224C128.555 67.856 131.659 65.296 134.347 62.544C134.923 62.032 135.339 61.968 135.595 62.352C135.595 62.48 135.595 62.64 135.595 62.832C135.595 62.96 134.987 63.632 133.771 64.848C132.555 66.064 131.051 67.44 129.259 68.976C127.531 70.448 125.355 72.112 122.731 73.968C117.291 77.808 111.819 79.728 106.315 79.728C100.875 79.728 97.3871 77.392 95.8511 72.72ZM193.602 63.216C192.898 64.048 192.162 64.944 191.394 65.904C190.69 66.864 189.762 68.176 188.61 69.84C187.522 71.504 186.978 72.912 186.978 74.064C186.978 75.216 187.458 75.792 188.418 75.792C189.442 75.792 191.074 75.184 193.314 73.968C197.794 71.408 202.754 67.568 208.194 62.448C208.834 61.808 209.25 61.712 209.442 62.16C209.442 62.224 209.442 62.352 209.442 62.544C209.442 62.736 209.314 62.96 209.058 63.216C198.05 73.584 190.05 78.768 185.058 78.768C183.586 78.768 182.338 78.288 181.314 77.328C180.354 76.304 179.874 75.12 179.874 73.776C179.874 72.432 180.45 70.384 181.602 67.632C178.722 71.216 175.618 74 172.29 75.984C169.026 77.904 166.466 78.864 164.61 78.864C162.754 78.864 161.154 78.32 159.81 77.232C158.53 76.08 157.89 74.672 157.89 73.008C157.89 68.272 160.002 63.632 164.226 59.088C167.426 55.696 171.394 53.296 176.13 51.888C178.242 51.184 180.29 50.832 182.274 50.832C184.322 50.832 186.274 51.408 188.13 52.56C190.05 53.648 191.266 54.96 191.778 56.496C193.698 56.496 195.074 57.2 195.906 58.608C196.034 58.8 196.098 59.12 196.098 59.568C196.098 60.016 195.842 60.528 195.33 61.104C194.882 61.68 194.306 62.384 193.602 63.216ZM186.594 53.712C185.25 53.712 183.65 54.128 181.794 54.96C178.53 56.368 175.426 58.8 172.482 62.256C167.81 67.76 165.474 71.792 165.474 74.352C165.474 75.696 166.018 76.368 167.106 76.368C168.002 76.368 169.474 75.792 171.522 74.64C173.634 73.488 176.386 71.216 179.778 67.824C179.97 67.632 180.706 66.928 181.986 65.712C183.266 64.496 184.354 63.44 185.25 62.544C188.258 59.408 189.762 57.168 189.762 55.824C189.762 54.416 188.706 53.712 186.594 53.712ZM266.277 79.92C266.021 79.92 265.893 79.664 265.893 79.152C265.893 78.256 267.685 75.568 271.269 71.088C271.781 70.448 273.861 67.92 277.509 63.504C281.157 59.088 283.685 55.984 285.093 54.192C290.341 47.408 293.829 42.256 295.557 38.736C297.349 35.216 298.245 32.304 298.245 30C298.245 24.752 293.893 22.128 285.189 22.128C275.973 22.128 264.005 24.624 249.285 29.616C238.981 33.136 233.829 36.4 233.829 39.408C233.829 40.496 234.565 41.552 236.037 42.576C236.485 42.832 236.453 42.992 235.941 43.056C235.493 43.056 235.109 42.96 234.789 42.768C232.869 41.488 231.909 39.824 231.909 37.776C231.909 35.728 232.485 33.712 233.637 31.728C234.853 29.68 236.805 27.92 239.493 26.448C245.637 22.928 252.997 20.08 261.573 17.904C270.789 15.536 279.397 14.352 287.397 14.352C295.845 14.352 301.285 15.92 303.717 19.056C305.317 21.04 306.117 23.024 306.117 25.008C306.117 26.928 305.733 28.848 304.965 30.768C303.557 34.672 301.285 38.512 298.149 42.288C297.509 43.12 295.333 45.712 291.621 50.064C287.973 54.352 285.125 57.776 283.077 60.336C306.181 36.016 322.437 23.856 331.845 23.856C334.533 23.856 336.453 25.008 337.605 27.312C338.245 28.592 338.565 29.712 338.565 30.672C338.565 31.632 338.501 32.72 338.373 33.936C338.181 37.136 335.493 43.12 330.309 51.888C338.117 43.76 345.093 37.424 351.237 32.88C358.661 27.376 364.997 24.624 370.245 24.624C373.253 24.624 374.757 25.904 374.757 28.464C374.757 30.96 373.157 34.576 369.957 39.312C351.077 67.024 341.637 85.456 341.637 94.608C341.637 97.488 342.469 99.056 344.133 99.312C345.157 99.504 346.245 99.184 347.397 98.352C347.845 98.032 348.229 98.064 348.549 98.448C348.869 98.896 348.741 99.376 348.165 99.888C347.589 100.464 346.917 100.752 346.149 100.752C345.381 100.752 344.485 100.688 343.461 100.56C342.437 100.432 341.093 100.016 339.429 99.312C337.765 98.672 336.357 97.552 335.205 95.952C334.117 94.416 333.573 92.688 333.573 90.768C333.573 88.016 333.925 85.552 334.629 83.376C336.357 78.32 344.453 65.712 358.917 45.552C363.269 39.472 365.445 35.12 365.445 32.496C365.445 30.512 364.421 29.52 362.373 29.52C359.621 29.52 356.389 30.928 352.677 33.744C344.741 39.76 335.877 48.144 326.085 58.896C323.397 63.248 320.069 68.336 316.101 74.16C315.525 74.992 314.853 75.408 314.085 75.408C311.525 75.408 310.245 74.832 310.245 73.68C310.245 73.424 310.309 73.168 310.437 72.912C321.061 54.48 327.013 42.672 328.293 37.488C328.677 35.696 328.869 34.32 328.869 33.36C328.869 32.336 328.837 31.536 328.773 30.96C328.325 29.104 327.173 28.176 325.317 28.176C323.461 28.176 320.933 29.232 317.733 31.344C312.229 34.864 305.413 40.528 297.285 48.336C289.157 56.144 281.349 64.24 273.861 72.624C273.669 72.816 273.445 72.912 273.189 72.912C269.477 77.584 267.173 79.92 266.277 79.92ZM395.514 63.216C394.81 64.048 394.074 64.944 393.306 65.904C392.602 66.864 391.674 68.176 390.522 69.84C389.434 71.504 388.89 72.912 388.89 74.064C388.89 75.216 389.37 75.792 390.33 75.792C391.354 75.792 392.986 75.184 395.226 73.968C399.706 71.408 404.666 67.568 410.106 62.448C410.746 61.808 411.162 61.712 411.354 62.16C411.354 62.224 411.354 62.352 411.354 62.544C411.354 62.736 411.226 62.96 410.97 63.216C399.962 73.584 391.962 78.768 386.97 78.768C385.498 78.768 384.25 78.288 383.226 77.328C382.266 76.304 381.786 75.12 381.786 73.776C381.786 72.432 382.362 70.384 383.514 67.632C380.634 71.216 377.53 74 374.202 75.984C370.938 77.904 368.378 78.864 366.522 78.864C364.666 78.864 363.066 78.32 361.722 77.232C360.442 76.08 359.802 74.672 359.802 73.008C359.802 68.272 361.914 63.632 366.138 59.088C369.338 55.696 373.306 53.296 378.042 51.888C380.154 51.184 382.202 50.832 384.186 50.832C386.234 50.832 388.186 51.408 390.042 52.56C391.962 53.648 393.178 54.96 393.69 56.496C395.61 56.496 396.986 57.2 397.818 58.608C397.946 58.8 398.01 59.12 398.01 59.568C398.01 60.016 397.754 60.528 397.242 61.104C396.794 61.68 396.218 62.384 395.514 63.216ZM388.506 53.712C387.162 53.712 385.562 54.128 383.706 54.96C380.442 56.368 377.338 58.8 374.394 62.256C369.722 67.76 367.386 71.792 367.386 74.352C367.386 75.696 367.93 76.368 369.018 76.368C369.914 76.368 371.386 75.792 373.434 74.64C375.546 73.488 378.298 71.216 381.69 67.824C381.882 67.632 382.618 66.928 383.898 65.712C385.178 64.496 386.266 63.44 387.162 62.544C390.17 59.408 391.674 57.168 391.674 55.824C391.674 54.416 390.618 53.712 388.506 53.712ZM424.738 45.072C426.146 42.96 427.266 41.296 428.098 40.08C428.994 38.8 429.698 37.872 430.21 37.296C430.722 36.72 431.874 36.24 433.666 35.856C435.458 35.408 437.186 35.184 438.85 35.184C440.514 35.184 441.346 35.376 441.346 35.76C441.346 36.08 439.97 37.552 437.218 40.176C434.466 42.8 431.266 46.288 427.618 50.64C431.97 51.344 434.818 52.72 436.162 54.768C436.674 55.664 436.738 56.24 436.354 56.496C436.034 56.752 435.65 56.656 435.202 56.208C433.858 54.864 431.714 54.192 428.77 54.192C427.49 54.192 426.05 54.32 424.45 54.576C419.266 61.232 416.002 66.672 414.658 70.896C414.21 72.112 413.986 73.136 413.986 73.968C413.986 76.208 414.914 77.328 416.77 77.328C418.754 77.328 421.538 75.952 425.122 73.2C429.794 69.68 433.858 66.192 437.314 62.736C437.954 62.032 438.37 61.872 438.562 62.256C438.754 62.64 438.594 63.056 438.082 63.504C432.578 69.264 427.938 73.52 424.162 76.272C420.45 78.96 417.026 80.304 413.89 80.304C409.602 80.304 407.458 78.032 407.458 73.488C407.458 71.312 408.066 68.72 409.282 65.712L407.554 67.344C407.042 67.856 406.69 68.016 406.498 67.824C406.242 67.568 406.114 67.344 406.114 67.152C406.114 66.96 406.37 66.64 406.882 66.192C411.554 62.096 414.754 58.992 416.482 56.88C415.266 57.328 414.434 57.36 413.986 56.976C413.602 56.592 413.314 56.08 413.122 55.44C412.994 54.8 413.314 54.032 414.082 53.136C414.914 52.176 416.098 51.504 417.634 51.12C419.234 50.672 420.418 50.416 421.186 50.352C422.146 48.944 423.33 47.184 424.738 45.072ZM462.979 55.248C462.979 54.032 462.339 53.424 461.059 53.424C459.971 53.424 458.275 53.936 455.971 54.96C453.731 55.92 451.203 58.032 448.387 61.296C444.995 65.328 443.299 68.912 443.299 72.048C443.299 74.416 444.195 76.016 445.987 76.848C446.563 77.104 447.235 77.232 448.003 77.232C450.627 77.232 453.699 76.112 457.219 73.872C460.803 71.632 465.411 67.92 471.043 62.736C471.939 61.84 472.387 61.84 472.387 62.736C472.387 63.12 472.195 63.472 471.811 63.792C464.003 70.96 458.243 75.408 454.531 77.136C450.883 78.8 448.003 79.632 445.891 79.632C438.467 79.632 434.755 76.912 434.755 71.472C434.755 66.032 437.187 61.36 442.051 57.456C446.979 53.488 452.099 51.504 457.411 51.504C460.739 51.504 462.979 52.272 464.131 53.808C464.835 54.576 465.187 55.408 465.187 56.304C465.187 57.136 464.963 58.032 464.515 58.992C464.067 59.888 463.331 60.336 462.307 60.336C461.347 60.336 461.219 59.728 461.923 58.512C462.627 57.232 462.979 56.144 462.979 55.248ZM495.312 54.576C495.312 53.744 494.704 53.328 493.488 53.328C491.312 53.328 488.656 54.864 485.52 57.936C484.752 58.704 483.344 60.304 481.296 62.736C479.312 65.168 477.36 67.952 475.44 71.088L473.04 76.368L473.328 75.408C473.2 75.664 473.072 76.048 472.944 76.56C472.624 77.328 471.696 77.968 470.16 78.48C469.84 78.608 469.552 78.672 469.296 78.672C468.656 78.672 468.592 78.192 469.104 77.232C469.36 76.592 470.256 74.32 471.792 70.416C473.328 66.448 474.576 63.28 475.536 60.912C473.04 63.664 470.704 65.904 468.528 67.632C467.888 68.144 467.44 68.208 467.184 67.824C467.12 67.76 467.088 67.632 467.088 67.44C467.088 67.248 467.376 66.896 467.952 66.384C471.856 62.992 474.928 59.856 477.168 56.976C478.832 53.072 481.872 47.664 486.288 40.752C490.768 33.776 495.344 28.016 500.016 23.472C503.152 20.336 506.544 18.224 510.192 17.136C511.856 16.624 513.392 16.368 514.8 16.368C516.272 16.368 517.616 16.784 518.832 17.616C520.112 18.384 520.752 19.856 520.752 22.032C520.752 24.912 519.792 27.824 517.872 30.768C515.952 33.712 512.56 37.008 507.696 40.656C502.832 44.24 498.32 46.928 494.16 48.72C493.392 49.04 492.944 49.008 492.816 48.624C492.688 48.176 493.008 47.792 493.776 47.472C497.488 45.808 501.648 43.184 506.256 39.6C510.928 36.016 514.032 32.976 515.568 30.48C517.168 27.92 517.968 25.872 517.968 24.336C517.968 22.736 517.296 21.936 515.952 21.936C514.416 21.936 511.984 23.216 508.656 25.776C503.728 29.744 498.544 35.28 493.104 42.384C487.728 49.488 483.088 56.656 479.184 63.888C480.976 61.328 482.608 59.216 484.08 57.552C487.664 53.52 491.152 51.504 494.544 51.504C497.744 51.504 499.632 52.912 500.208 55.728C500.272 56.112 500.304 56.656 500.304 57.36C500.304 58.064 500.048 59.12 499.536 60.528C499.088 61.872 497.744 64.4 495.504 68.112C493.328 71.76 492.24 73.968 492.24 74.736C492.24 75.504 492.496 75.888 493.008 75.888C493.712 75.888 494.768 75.44 496.176 74.544C499.76 72.304 504.432 68.528 510.192 63.216C510.96 62.448 511.312 62.32 511.248 62.832C511.248 63.344 511.056 63.824 510.672 64.272C505.936 69.136 501.04 73.2 495.984 76.464C493.616 78 491.472 78.768 489.552 78.768C489.04 78.768 488.56 78.704 488.112 78.576C485.616 78.064 484.368 76.688 484.368 74.448C484.368 72.144 485.264 69.584 487.056 66.768C487.376 66.32 488.56 64.816 490.608 62.256C493.744 58.416 495.312 55.856 495.312 54.576ZM543.347 25.968C545.395 25.968 546.419 26.672 546.419 28.08C546.419 29.104 544.595 31.152 540.947 34.224C539.219 35.632 537.747 36.976 536.531 38.256C535.315 39.472 533.843 41.264 532.115 43.632C530.451 46 528.979 48.336 527.699 50.64C526.483 52.88 525.459 55.088 524.627 57.264C522.835 61.616 522.707 64.144 524.243 64.848C524.627 64.976 524.755 65.168 524.627 65.424C524.499 65.616 524.243 65.616 523.859 65.424C521.619 64.272 520.499 62.224 520.499 59.28C520.499 58.576 520.595 57.808 520.787 56.976C521.427 52.752 522.867 48.368 525.107 43.824C527.411 39.216 529.555 35.792 531.539 33.552C536.083 28.496 540.019 25.968 543.347 25.968ZM515.795 78.672C515.027 78.672 514.323 78.416 513.683 77.904C513.107 77.392 512.819 76.848 512.819 76.272C512.819 74.352 513.363 72.816 514.451 71.664C515.987 70.064 517.587 69.264 519.251 69.264C519.955 69.264 520.595 69.52 521.171 70.032C521.811 70.48 522.131 71.344 522.131 72.624C522.131 73.84 521.459 75.152 520.115 76.56C518.835 77.968 517.395 78.672 515.795 78.672Z" fill="#EEEEEE"/>
<path d="M663.257 30.6804C663.212 30.3613 662.75 29.9279 662.75 29.9279C662.476 29.7733 662.146 29.7603 661.86 29.8931C661.339 30.135 660.41 30.5665 659.578 30.9529C659.943 28.5268 660.293 24.615 659.502 21.2435C659.439 20.9735 659.272 20.7419 659.04 20.6012C658.808 20.4605 658.529 20.4227 658.269 20.4966C655.018 21.4191 651.858 23.6297 649.97 25.1338C649.895 24.198 649.812 23.1537 649.766 22.5678C649.74 22.2465 649.57 21.9566 649.305 21.7846C649.037 21.6122 648.712 21.5791 648.419 21.6936C648.069 21.8301 639.806 25.1165 635.833 31.9284C635.035 33.2958 634.438 34.7746 634.059 36.3237C633.924 36.8744 634.248 37.4319 634.782 37.5694C635.317 37.7068 635.86 37.3718 635.994 36.8211C636.326 35.4682 636.847 34.1769 637.543 32.9831C640.29 28.2749 645.512 25.3267 647.89 24.1719L648.12 27.0623C648.175 27.7476 648.476 28.1273 649.015 28.1899C649.282 28.2211 649.55 28.1404 649.758 27.9662C649.768 27.958 649.795 27.9343 649.838 27.8962C650.844 26.9943 654.186 24.1556 657.77 22.8158C658.367 26.6888 657.571 31.0695 657.291 32.4112C657.279 32.4672 657.272 32.5024 657.27 32.5152C657.223 32.7873 657.284 33.0673 657.439 33.292C657.754 33.7466 658.223 33.8334 658.833 33.5508L661.406 32.3565C661.577 35.0507 661.602 41.1677 658.92 45.9303C657.137 49.096 654.262 51.415 651.032 52.2925C647.958 53.1275 644.744 52.6064 641.738 50.7854C641.329 50.5377 640.929 50.268 640.549 49.9838C640.102 49.6509 639.479 49.7529 639.154 50.2124C638.829 50.6719 638.927 51.3144 639.372 51.6476C639.804 51.9704 640.258 52.2765 640.722 52.5576C644.197 54.6621 647.936 55.2577 651.536 54.2797C655.278 53.2632 658.598 50.5943 660.646 46.9575C664.518 40.0834 663.31 31.061 663.257 30.6804Z" fill="white"/>
<path d="M578.928 71.9636C577.705 72.6037 577.193 74.1339 577.785 75.3813C578.377 76.6286 579.848 77.1209 581.072 76.4807L578.928 71.9636ZM639.27 46.0267L641.485 44.8676L639.341 40.3504L637.126 41.5095L639.27 46.0267ZM581.072 76.4807L639.27 46.0267L637.126 41.5095L578.928 71.9636L581.072 76.4807Z" fill="#EEEEEE"/>
<path d="M640.488 39.5865L642.784 44.4251C645.281 45.0709 646.705 44.6557 649.226 42.5637C652.099 40.2258 652.821 38.8874 651.906 36.6316C650.734 34.4458 649.41 34.551 645.782 35.3059C642.829 35.9944 641.608 36.8915 640.488 39.5865Z" fill="#EEEEEE" stroke="#EEEEEE"/>
<path d="M573.94 15.2987C574.087 15.0116 574.665 14.7522 574.665 14.7522C574.974 14.6954 575.29 14.7903 575.517 15.0089C575.931 15.4074 576.669 16.1178 577.33 16.7541C577.774 14.3412 578.718 10.5287 580.563 7.59833C580.711 7.36371 580.944 7.19895 581.209 7.14156C581.475 7.08416 581.75 7.13899 581.972 7.2936C584.746 9.2244 587.014 12.3434 588.309 14.3801C588.684 13.5195 589.103 12.5592 589.338 12.0204C589.466 11.7249 589.722 11.5063 590.028 11.4299C590.338 11.3541 590.656 11.4286 590.896 11.6322C591.182 11.8752 597.925 17.6726 599.464 25.4072C599.773 26.9598 599.856 28.5523 599.711 30.1406C599.659 30.7051 599.171 31.1268 598.621 31.0828C598.071 31.0387 597.667 30.5452 597.718 29.9807C597.846 28.5936 597.773 27.2031 597.503 25.8476C596.439 20.5016 592.461 16.0137 590.589 14.1479L589.431 16.8058C589.155 17.4358 588.747 17.6967 588.217 17.5804C587.955 17.5232 587.728 17.3598 587.587 17.1272C587.581 17.1161 587.563 17.085 587.535 17.0351C586.877 15.8547 584.641 12.0825 581.689 9.64885C579.863 13.1166 579.19 17.5178 579.018 18.8776C579.011 18.9344 579.006 18.9698 579.004 18.9827C578.96 19.2554 578.811 19.5003 578.591 19.662C578.145 19.9893 577.673 19.9187 577.189 19.453L575.145 17.4863C574.106 19.9779 572.091 25.7535 573.076 31.1297C573.731 34.7034 575.695 37.8321 578.464 39.7136C581.098 41.5037 584.306 42.0572 587.741 41.3143C588.209 41.2132 588.675 41.0885 589.127 40.9435C589.657 40.7741 590.214 41.0735 590.371 41.6137C590.529 42.1539 590.227 42.7297 589.697 42.8997C589.184 43.0644 588.655 43.206 588.125 43.3207C584.155 44.1793 580.425 43.525 577.34 41.4283C574.133 39.2489 571.862 35.6444 571.109 31.5389C569.687 23.7789 573.766 15.6412 573.94 15.2987Z" fill="white"/>
<path d="M640.234 81.7876C641.183 82.7912 641.169 84.4046 640.203 85.3913C639.237 86.378 637.685 86.3644 636.737 85.3608L640.234 81.7876ZM591.624 37.6183L589.907 35.8012L593.405 32.228L595.122 34.0452L591.624 37.6183ZM636.737 85.3608L591.624 37.6183L595.122 34.0452L640.234 81.7876L636.737 85.3608Z" fill="#EEEEEE"/>
<path d="M592.57 31.1326L588.823 34.96C586.252 34.7575 585.041 33.9015 583.338 31.1025C581.383 27.9568 581.136 26.4562 582.736 24.6212C584.555 22.936 585.773 23.4667 588.957 25.3614C591.525 26.9739 592.388 28.2196 592.57 31.1326Z" fill="#EEEEEE" stroke="#EEEEEE"/>
</g>
<defs>
<filter id="filter0_d_831_42" x="1.05261" y="7.11932" width="666.424" height="97.6326" filterUnits="userSpaceOnUse" color-interpolation-filters="sRGB">
<feFlood flood-opacity="0" result="BackgroundImageFix"/>
<feColorMatrix in="SourceAlpha" type="matrix" values="0 0 0 0 0 0 0 0 0 0 0 0 0 0 0 0 0 0 127 0" result="hardAlpha"/>
<feOffset dx="2" dy="2"/>
<feGaussianBlur stdDeviation="1"/>
<feComposite in2="hardAlpha" operator="out"/>
<feColorMatrix type="matrix" values="0 0 0 0 0.192157 0 0 0 0 0.215686 0 0 0 0 0.278431 0 0 0 1 0"/>
<feBlend mode="normal" in2="BackgroundImageFix" result="effect1_dropShadow_831_42"/>
<feBlend mode="normal" in="SourceGraphic" in2="effect1_dropShadow_831_42" result="shape"/>
</filter>
</defs>
</svg>
