<svg width="2502" height="767" viewBox="0 0 2502 767" fill="none" xmlns="http://www.w3.org/2000/svg">
<g filter="url(#filter0_d_863_125)">
<path d="M59.4258 283.964L97.7119 266.918L104.84 282.929L82.5649 292.846L89.6935 308.857L111.969 298.94L119.098 314.951L80.8115 331.997L59.4258 283.964Z" fill="white"/>
<path d="M105.369 263.509L143.655 246.462L149.854 260.385L127.578 270.303L128.818 273.087L151.093 263.17L165.35 295.192L127.064 312.238L120.556 297.619L142.831 287.701L141.591 284.917L119.316 294.835L105.369 263.509Z" fill="white"/>
<path d="M151.312 243.053L189.599 226.007L195.797 239.93L173.522 249.847L174.762 252.632L197.037 242.714L211.294 274.736L173.008 291.782L166.499 277.163L188.775 267.246L187.535 264.461L165.26 274.379L151.312 243.053Z" fill="white"/>
<path fill-rule="evenodd" clip-rule="evenodd" d="M283.689 268.044L375.424 535.994L284.785 610.699L168.922 627.983L31.186 380.466L283.689 268.044ZM135.81 473.681L152.718 504.031L223.347 472.585L262.272 455.254L276.857 497.886L245.838 523.099L245.839 523.102L245.813 523.123L206.375 529.291L192.9 505.081L175.793 512.697L161.168 519.209L187.695 566.872L260.451 556.019L260.578 555.913L260.576 555.908L317.287 509.174L315.385 503.621L285.76 417.091L282.752 408.259L259.971 341.735L180.895 376.942L180.786 376.991L101.631 412.233L118.579 442.566L194.861 408.603L239.403 388.771L250.939 422.423L209.382 440.925L135.81 473.681Z" fill="white"/>
<path d="M488.19 197.402L539.521 215.58L535.415 145.61L488.19 197.402ZM569.424 49.5703L411.931 49.4489L368.464 240.275L463.983 347.327L605.585 324.244L691.896 148.59L569.424 49.5703ZM576.686 307.802L543.947 296.208L541.69 246.491L467.186 220.108L434.144 257.325L401.338 245.708L557.774 82.4698L576.686 307.802Z" fill="white"/>
<path d="M1522.97 124.217C1510.24 132.321 1510.72 115.98 1515.1 366.892C1519.02 591.488 1519.06 594.177 1523.01 600.449C1531.12 613.19 1493.25 612.881 2009.3 603.873C2525.35 594.865 2487.51 596.486 2495.16 583.48C2498.89 577.074 2498.85 574.385 2494.93 349.789C2490.55 98.877 2491.6 115.191 2478.59 107.537C2472.37 103.805 2465.07 103.932 2000.7 112.038C1536.35 120.143 1529.05 120.271 1522.97 124.217ZM2352.76 165.082C2356.16 183.665 2362.17 197.593 2372.96 210.276C2389.26 229.975 2411.76 242.074 2435.62 244.158L2446.98 245.11L2448.82 350.204L2450.65 455.298L2439.33 456.645C2415.55 459.561 2393.48 472.438 2377.89 492.693C2367.93 505.549 2362.03 519.494 2359.45 537.602L2357.56 549.747L2008.28 555.843L1659.19 561.937L1657.67 551.972C1652.91 521.69 1634.39 495.489 1608.01 481.538C1597.15 475.966 1578.81 471.096 1569.4 471.26L1563.06 471.371L1561.22 366.087L1559.38 260.993L1574.33 258.231C1615.72 250.978 1646.65 217.573 1651.1 175.409L1652.27 164.627L2001.35 158.534L2350.64 152.437L2352.76 165.082Z" fill="white"/>
<path d="M1981.86 187.698C1976.69 188.749 1965.04 193.183 1956.09 197.76C1925.99 212.887 1899.09 246.612 1885.95 285.847C1876.64 314.064 1874.92 325.826 1875.73 361.167C1876.33 395.562 1879.5 411.839 1890.95 440.653C1907.22 481.306 1941.44 514.724 1979.13 526.748C1994.77 531.665 2022.43 530.792 2038.67 524.938C2083.74 508.579 2115.33 468.442 2130.41 407.829C2134.54 391.235 2134.83 385.649 2134.3 355.683C2133.78 325.708 2133.3 320.145 2128.6 303.705C2117.35 264.885 2101.1 236.925 2077.09 215.431C2049.18 190.554 2015.56 180.769 1981.86 187.698ZM2018.75 241.633L2019.58 256.22L2030.2 259.306C2048.74 264.743 2060.8 273.184 2069.49 286.674C2075.82 296.745 2074.7 298.495 2057.3 304.179C2038 310.477 2037.04 310.494 2031.56 304.819C2026.87 300.1 2014.12 296.282 2003.93 296.46C1977.8 296.916 1962.95 315.628 1977.21 329.601C1983.07 335.26 1984.62 335.623 2013.69 338.186C2054.11 342.091 2078.13 363.585 2078.71 396.82C2079.21 425.256 2065.13 444.334 2035.72 454.839L2023.12 459.29L2022.79 473.708L2022.46 488.316L2007.29 488.58C1992.5 488.839 1991.92 488.659 1990.68 483.87C1989.86 481.193 1989.78 476.194 1990.29 472.535C1991.5 464.442 1989.85 458.13 1986.39 458.19C1980.82 458.288 1962.42 450.538 1955.22 445.093C1946.65 438.511 1937 425.427 1936.91 420.428C1936.87 417.739 1940.48 415.755 1952.71 411.691C1972.02 405.393 1972.98 405.377 1978.46 411.052C1983.15 415.771 1995.9 419.589 2006.09 419.411C2032.21 418.955 2047.07 400.243 2032.8 386.269C2026.74 380.614 2025.01 380.255 1995.75 377.495C1953.6 373.62 1929.94 350.199 1931.61 314.235C1932.86 286.919 1949.63 267.413 1978.31 259.411L1986.92 257.151L1987.24 242.343L1987.57 227.535L2002.73 227.27L2017.91 227.005L2018.75 241.633Z" fill="white"/>
<path d="M1715.32 309.969C1697.76 316.806 1684.19 331.845 1679.87 349.023C1677.18 359.832 1679.23 378.439 1684.39 388.15C1689.76 398.238 1699.92 408.062 1710.59 413.447C1722.22 419.395 1747.97 419.136 1759.2 412.789C1771.2 406.048 1777.62 399.785 1783.57 388.34C1788.6 379.22 1789.12 376.131 1788.87 361.723C1788.62 347.315 1787.98 344.246 1782.64 335.308C1772.34 317.235 1757.19 308.268 1736.03 307.487C1727.58 307.255 1719.9 308.159 1715.32 309.969Z" fill="white"/>
<path d="M2257.12 300.512C2239.18 307.556 2225.98 322.198 2221.68 339.756C2217 358.29 2224.95 384.096 2238.79 395.386C2251.27 405.55 2259.39 408.288 2276.88 407.983C2290.14 407.752 2294.73 406.901 2301.39 403.135C2335.08 384.484 2341.79 339.39 2314.62 313.15C2310.72 309.568 2303.9 304.686 2299.44 302.463C2289.16 297.452 2267.42 296.481 2257.12 300.512Z" fill="white"/>
<path d="M840 328.5C825.917 328.5 814.5 339.917 814.5 354C814.5 368.083 825.917 379.5 840 379.5L840 328.5ZM1463.03 372.031C1472.99 362.073 1472.99 345.927 1463.03 335.969L1300.75 173.688C1290.79 163.729 1274.65 163.729 1264.69 173.688C1254.73 183.646 1254.73 199.792 1264.69 209.75L1408.94 354L1264.69 498.25C1254.73 508.208 1254.73 524.354 1264.69 534.312C1274.65 544.271 1290.79 544.271 1300.75 534.312L1463.03 372.031ZM840 379.5L1445 379.5L1445 328.5L840 328.5L840 379.5Z" fill="white"/>
<path d="M781.649 447.042L738.212 436.212L694.335 477.437L679.467 421.565L580.054 396.778L653.551 641.014L833.107 459.872L781.649 447.042ZM607.093 422.361L637.482 429.937L674.765 555.927L766.777 462.174L797.166 469.751L662.327 605.815L607.093 422.361Z" fill="white"/>
</g>
<defs>
<filter id="filter0_d_863_125" x="31.186" y="49.449" width="2470.73" height="716.829" filterUnits="userSpaceOnUse" color-interpolation-filters="sRGB">
<feFlood flood-opacity="0" result="BackgroundImageFix"/>
<feColorMatrix in="SourceAlpha" type="matrix" values="0 0 0 0 0 0 0 0 0 0 0 0 0 0 0 0 0 0 127 0" result="hardAlpha"/>
<feOffset dx="2" dy="2"/>
<feGaussianBlur stdDeviation="1"/>
<feComposite in2="hardAlpha" operator="out"/>
<feColorMatrix type="matrix" values="0 0 0 0 0.192157 0 0 0 0 0.215686 0 0 0 0 0.278431 0 0 0 1 0"/>
<feBlend mode="normal" in2="BackgroundImageFix" result="effect1_dropShadow_863_125"/>
<feBlend mode="normal" in="SourceGraphic" in2="effect1_dropShadow_863_125" result="shape"/>
</filter>
</defs>
</svg>
