<svg width="2608" height="767" viewBox="0 0 2608 767" fill="none" xmlns="http://www.w3.org/2000/svg">
<path d="M583.21 77.8274L685.138 375.549L584.428 458.555L455.691 477.759L302.651 202.74L583.21 77.8274Z" fill="#BFBFBF"/>
<path d="M655.138 367.058L568.037 112.641L453.356 163.7L573.76 434.131L655.138 367.058Z" fill="white" fill-opacity="0.22"/>
<path d="M418.9 306.313L437.686 340.036L516.285 305.041L500.647 269.918L418.9 306.313Z" fill="#EBEBEB"/>
<path d="M468.995 198.825L468.873 198.879L380.923 238.037L399.754 271.74L484.633 233.95L468.995 198.825Z" fill="#EBEBEB"/>
<path d="M557.531 397.682L541.261 361.139L541.125 361.248L497.306 368.101L482.333 341.202L463.325 349.664L447.075 356.899L476.55 409.858L557.39 397.799L557.531 397.682Z" fill="#EBEBEB"/>
<path d="M334.028 95.5156L376.568 76.5756L384.488 94.3656L359.738 105.385L367.658 123.175L392.409 112.156L400.33 129.946L357.79 148.886L334.028 95.5156Z" fill="white"/>
<path d="M385.076 72.7881L427.616 53.848L434.503 69.3176L409.753 80.3373L411.13 83.4312L435.881 72.4115L451.722 107.992L409.182 126.932L401.95 110.689L426.701 99.6689L425.323 96.575L400.573 107.595L385.076 72.7881Z" fill="white"/>
<path d="M436.124 50.0596L478.664 31.1195L485.551 46.5891L460.801 57.6088L462.178 60.7027L486.929 49.683L502.77 85.2631L460.23 104.203L452.998 87.9601L477.749 76.9404L476.371 73.8465L451.621 84.8662L436.124 50.0596Z" fill="white"/>
<path d="M559.414 285.839L575.618 333.207L541.153 361.222L557.422 397.764L620.541 345.749L618.427 339.58L585.511 243.435L582.168 233.621L556.857 159.706L468.873 198.879L484.511 234.003L534.003 211.968L546.821 249.359L500.525 269.971L516.163 305.095L559.414 285.839Z" fill="white"/>
<path d="M164.189 431.402L215.521 449.58L211.414 379.61L164.189 431.402ZM245.423 283.57L87.9304 283.449L44.4634 474.275L139.982 581.327L281.584 558.244L367.895 382.59L245.423 283.57ZM252.685 541.802L219.946 530.208L217.69 480.491L143.185 454.108L110.143 491.325L77.3369 479.708L233.773 316.47L252.685 541.802Z" fill="white"/>
<path d="M1640.12 278.84C1627.25 286.72 1628.01 270.39 1628.01 521.34C1628.01 745.97 1628.01 748.66 1631.85 755C1639.73 767.88 1601.87 766.91 2118 766.91C2634.13 766.91 2596.27 767.87 2604.15 755C2607.99 748.66 2607.99 745.97 2607.99 521.34C2607.99 270.39 2608.76 286.72 2595.88 278.84C2589.73 275 2582.43 275 2117.99 275C1653.57 275 1646.27 275 1640.12 278.84ZM2469.07 334.18C2472.14 352.82 2477.91 366.85 2488.48 379.72C2504.43 399.7 2526.72 412.19 2550.54 414.69L2561.88 415.84V520.95V626.06L2550.54 627.21C2526.71 629.71 2504.42 642.2 2488.48 662.18C2478.29 674.86 2472.15 688.7 2469.26 706.76L2467.15 718.87H2117.82H1768.68L1767.33 708.88C1763.1 678.52 1745.04 652 1718.91 637.59C1708.15 631.83 1689.9 626.64 1680.48 626.64H1674.14V521.34V416.23L1689.13 413.73C1730.64 407.2 1762.15 374.34 1767.34 332.26L1768.69 321.5H2117.83H2467.17L2469.07 334.18Z" fill="white"/>
<path d="M2097.83 350.32C2092.64 351.28 2080.92 355.51 2071.89 359.93C2041.53 374.53 2014.05 407.78 2000.22 446.78C1990.42 474.83 1988.5 486.56 1988.69 521.91C1988.69 556.31 1991.57 572.64 2002.52 601.65C2018.08 642.58 2051.71 676.59 2089.18 689.27C2104.74 694.46 2132.41 694.07 2148.75 688.5C2194.1 672.93 2226.38 633.35 2242.52 573.01C2246.94 556.49 2247.32 550.91 2247.32 520.94C2247.32 490.96 2246.94 485.39 2242.52 468.87C2231.95 429.86 2216.19 401.62 2192.56 379.71C2165.09 354.35 2131.65 343.98 2097.83 350.32ZM2133.77 404.89L2134.35 419.49L2144.91 422.76C2163.36 428.52 2175.27 437.17 2183.72 450.81C2189.87 460.99 2188.72 462.72 2171.23 468.1C2151.82 474.06 2150.86 474.06 2145.48 468.29C2140.87 463.49 2128.19 459.45 2118 459.45C2091.87 459.45 2076.69 477.9 2090.71 492.12C2096.47 497.88 2098.01 498.27 2127.03 501.34C2167.38 505.95 2191.02 527.86 2191.02 561.1C2191.02 589.54 2176.61 608.37 2147.02 618.36L2134.34 622.59L2133.76 637L2133.18 651.6H2118.01C2103.21 651.6 2102.64 651.41 2101.48 646.6C2100.71 643.91 2100.71 638.91 2101.29 635.26C2102.64 627.19 2101.1 620.85 2097.64 620.85C2092.07 620.85 2073.81 612.78 2066.7 607.21C2058.25 600.48 2048.83 587.23 2048.83 582.23C2048.83 579.54 2052.48 577.62 2064.78 573.77C2084.19 567.81 2085.15 567.81 2090.53 573.58C2095.14 578.38 2107.82 582.42 2118.01 582.42C2144.14 582.42 2159.32 563.97 2145.3 549.75C2139.34 543.99 2137.61 543.6 2108.41 540.33C2066.33 535.72 2043.08 511.89 2045.38 475.96C2047.11 448.67 2064.21 429.46 2093.03 421.96L2101.68 419.85L2102.26 405.05L2102.84 390.25H2118.01H2133.19L2133.77 404.89Z" fill="white"/>
<path d="M1829.2 467.92C1811.52 474.45 1797.69 489.25 1793.07 506.35C1790.19 517.11 1791.92 535.75 1796.91 545.55C1802.1 555.73 1812.09 565.73 1822.66 571.3C1834.19 577.45 1859.94 577.64 1871.28 571.49C1883.39 564.96 1889.92 558.81 1896.07 547.47C1901.26 538.44 1901.83 535.36 1901.83 520.95C1901.83 506.54 1901.25 503.46 1896.07 494.43C1886.08 476.18 1871.09 466.95 1849.95 465.8C1841.5 465.42 1833.81 466.19 1829.2 467.92Z" fill="white"/>
<path d="M2371.08 467.92C2353.02 474.65 2339.57 489.06 2334.96 506.54C2329.96 524.99 2337.46 550.93 2351.1 562.46C2363.4 572.84 2371.47 575.72 2388.96 575.72C2402.22 575.72 2406.83 574.95 2413.55 571.3C2447.56 553.24 2455.06 508.27 2428.35 481.56C2424.51 477.91 2417.78 472.91 2413.36 470.61C2403.17 465.42 2381.45 464.07 2371.08 467.92Z" fill="white"/>
<path d="M1572.46 426.149C1583.87 417.885 1586.41 401.941 1578.15 390.537L1443.48 204.7C1435.22 193.296 1419.28 190.75 1407.87 199.014C1396.47 207.278 1393.92 223.221 1402.19 234.625L1521.89 399.814L1356.7 519.516C1345.3 527.78 1342.75 543.724 1351.01 555.128C1359.28 566.532 1375.22 569.077 1386.63 560.814L1572.46 426.149ZM720.479 297.681L1553.48 430.681L1561.52 380.319L728.521 247.319L720.479 297.681Z" fill="white"/>
</svg>
