<svg width="2502" height="767" viewBox="0 0 2502 767" fill="none" xmlns="http://www.w3.org/2000/svg">
<g filter="url(#filter0_d_863_125)">
<path d="M61.4595 288.531C60.3363 286.009 61.4708 283.053 63.9935 281.93L93.1441 268.951C95.6668 267.828 98.6224 268.963 99.7456 271.485L102.807 278.361C103.93 280.884 102.795 283.839 100.273 284.962L87.1326 290.813C84.61 291.936 83.4754 294.891 84.5986 297.414L87.6598 304.29C88.783 306.812 91.7385 307.947 94.2612 306.824L107.401 300.973C109.924 299.85 112.88 300.985 114.003 303.507L117.064 310.383C118.187 312.906 117.053 315.861 114.53 316.984L85.3792 329.963C82.8566 331.086 79.901 329.952 78.7778 327.429L61.4595 288.531Z" fill="white"/>
<path d="M107.402 268.076C106.279 265.554 107.414 262.598 109.936 261.475L139.087 248.496C141.61 247.373 144.565 248.508 145.688 251.03L147.82 255.817C148.943 258.34 147.808 261.296 145.286 262.419L128.97 269.683C128.201 270.025 127.855 270.926 128.198 271.695V271.695C128.54 272.464 129.441 272.81 130.21 272.467L146.526 265.203C149.048 264.08 152.004 265.215 153.127 267.737L163.317 290.624C164.44 293.147 163.305 296.102 160.783 297.225L131.632 310.204C129.109 311.327 126.154 310.193 125.031 307.67L122.589 302.187C121.466 299.664 122.601 296.709 125.123 295.585L141.439 288.321C142.208 287.979 142.554 287.078 142.211 286.309V286.309C141.869 285.54 140.968 285.194 140.199 285.537L123.884 292.801C121.361 293.924 118.405 292.789 117.282 290.267L107.402 268.076Z" fill="white"/>
<path d="M153.346 247.621C152.223 245.098 153.358 242.142 155.88 241.019L185.031 228.041C187.554 226.917 190.509 228.052 191.632 230.575L193.764 235.362C194.887 237.885 193.752 240.84 191.23 241.963L174.914 249.227C174.145 249.57 173.799 250.471 174.142 251.24V251.24C174.484 252.008 175.385 252.354 176.154 252.012L192.469 244.748C194.992 243.625 197.948 244.759 199.071 247.282L209.261 270.168C210.384 272.691 209.249 275.647 206.727 276.77L177.576 289.749C175.053 290.872 172.098 289.737 170.974 287.215L168.533 281.731C167.41 279.209 168.545 276.253 171.067 275.13L187.383 267.866C188.152 267.523 188.497 266.622 188.155 265.853V265.853C187.813 265.085 186.912 264.739 186.143 265.081L169.827 272.345C167.305 273.468 164.349 272.334 163.226 269.811L153.346 247.621Z" fill="white"/>
<path fill-rule="evenodd" clip-rule="evenodd" d="M278.695 270.268C281.378 269.073 284.508 270.437 285.46 273.216L374.303 532.718C374.977 534.689 374.36 536.871 372.752 538.196L285.856 609.817C285.155 610.394 284.311 610.77 283.413 610.904L172.346 627.472C170.286 627.78 168.252 626.778 167.239 624.958L33.8437 385.242C32.4157 382.676 33.4963 379.437 36.1791 378.243L278.695 270.268ZM140.806 471.457C138.122 472.652 137.042 475.892 138.471 478.458L150.493 500.037C151.752 502.299 154.53 503.224 156.894 502.172L223.347 472.585L257.278 457.478C259.961 456.283 263.091 457.648 264.042 460.428L275.728 494.587C276.406 496.569 275.777 498.764 274.151 500.085L245.839 523.098C245.838 523.099 245.838 523.1 245.838 523.1V523.1C245.839 523.101 245.838 523.102 245.838 523.103L245.82 523.117C245.815 523.121 245.81 523.123 245.805 523.124L209.821 528.752C207.751 529.075 205.698 528.074 204.679 526.243L195.124 509.077C193.865 506.815 191.087 505.888 188.722 506.941L175.793 512.697L166.161 516.986C163.478 518.18 162.398 521.419 163.826 523.985L186.012 563.848C187.025 565.667 189.059 566.669 191.119 566.361L260.407 556.025C260.436 556.021 260.463 556.009 260.485 555.991L260.576 555.915C260.578 555.914 260.578 555.912 260.577 555.911V555.911C260.577 555.909 260.577 555.908 260.578 555.907L314.615 511.377C316.222 510.051 316.84 507.868 316.165 505.897L315.385 503.621L285.76 417.091L282.752 408.259L261.742 346.906C260.791 344.128 257.661 342.764 254.978 343.958L180.895 376.942L180.786 376.991L106.632 410.006C103.947 411.202 102.867 414.446 104.301 417.012L116.352 438.579C117.613 440.837 120.388 441.76 122.75 440.708L194.861 408.603L234.412 390.993C237.094 389.799 240.223 391.162 241.175 393.94L249.456 418.094C250.296 420.544 249.126 423.23 246.76 424.284L209.382 440.925L140.806 471.457Z" fill="white"/>
<path d="M493.266 191.835C490.856 194.478 491.92 198.723 495.292 199.917L532.419 213.065C535.791 214.259 539.289 211.629 539.08 208.058L536.11 157.45C535.85 153.033 530.404 151.105 527.423 154.374L493.266 191.835ZM570.798 50.6808C569.909 49.9622 568.801 49.5698 567.658 49.569L415.923 49.452C413.588 49.4502 411.563 51.0648 411.044 53.3415L369.037 237.76C368.678 239.338 369.104 240.992 370.181 242.199L462.156 345.28C463.294 346.555 465.004 347.161 466.691 346.886L603.04 324.659C604.637 324.398 606.009 323.381 606.723 321.929L690.135 152.173C691.165 150.077 690.607 147.548 688.791 146.079L570.798 50.6808ZM576.038 300.086C576.342 303.704 572.809 306.429 569.387 305.217L547.12 297.332C545.202 296.653 543.887 294.879 543.794 292.846L541.843 249.854C541.751 247.821 540.435 246.047 538.517 245.368L470.359 221.231C468.441 220.552 466.302 221.103 464.951 222.625L436.379 254.808C435.028 256.33 432.889 256.881 430.971 256.201L408.634 248.292C405.212 247.08 404.182 242.74 406.694 240.119L550.108 90.4689C553.087 87.3604 558.34 89.2198 558.7 93.5102L576.038 300.086Z" fill="white"/>
<path d="M1522.97 124.217C1510.24 132.321 1510.72 115.98 1515.1 366.892C1519.02 591.488 1519.06 594.177 1523.01 600.449C1531.12 613.19 1493.25 612.881 2009.3 603.873C2525.35 594.865 2487.51 596.486 2495.16 583.48C2498.89 577.074 2498.85 574.385 2494.93 349.789C2490.55 98.877 2491.6 115.191 2478.59 107.537C2472.37 103.805 2465.07 103.932 2000.7 112.038C1536.35 120.143 1529.05 120.271 1522.97 124.217ZM2352.76 165.082C2356.16 183.665 2362.17 197.593 2372.96 210.276C2389.26 229.975 2411.76 242.074 2435.62 244.158L2446.98 245.11L2448.82 350.204L2450.65 455.298L2439.33 456.645C2415.55 459.561 2393.48 472.438 2377.89 492.693C2367.93 505.549 2362.03 519.494 2359.45 537.602L2357.56 549.747L2008.28 555.843L1659.19 561.937L1657.67 551.972C1652.91 521.69 1634.39 495.489 1608.01 481.538C1597.15 475.966 1578.81 471.096 1569.4 471.26L1563.06 471.371L1561.22 366.087L1559.38 260.993L1574.33 258.231C1615.72 250.978 1646.65 217.573 1651.1 175.409L1652.27 164.627L2001.35 158.534L2350.64 152.437L2352.76 165.082Z" fill="white"/>
<path d="M1981.86 187.698C1976.69 188.749 1965.04 193.183 1956.09 197.76C1925.99 212.887 1899.09 246.612 1885.95 285.847C1876.64 314.064 1874.92 325.826 1875.73 361.167C1876.33 395.562 1879.5 411.839 1890.95 440.653C1907.22 481.306 1941.44 514.724 1979.13 526.748C1994.77 531.665 2022.43 530.792 2038.67 524.938C2083.74 508.579 2115.33 468.442 2130.41 407.829C2134.54 391.235 2134.83 385.649 2134.3 355.683C2133.78 325.708 2133.3 320.145 2128.6 303.705C2117.35 264.886 2101.1 236.925 2077.09 215.431C2049.18 190.554 2015.56 180.769 1981.86 187.698ZM2018.75 241.633L2019.58 256.22L2030.2 259.306C2048.74 264.743 2060.8 273.184 2069.49 286.674C2075.82 296.745 2074.7 298.495 2057.3 304.179C2038 310.477 2037.04 310.494 2031.56 304.819C2026.87 300.1 2014.12 296.282 2003.93 296.46C1977.8 296.916 1962.95 315.628 1977.21 329.601C1983.07 335.26 1984.62 335.623 2013.69 338.186C2054.11 342.091 2078.13 363.585 2078.71 396.82C2079.21 425.256 2065.13 444.334 2035.72 454.839L2023.12 459.29L2022.79 473.708L2022.46 488.316L2007.29 488.58C1992.5 488.839 1991.92 488.659 1990.68 483.87C1989.86 481.193 1989.78 476.194 1990.29 472.535C1991.5 464.442 1989.85 458.13 1986.39 458.19C1980.82 458.288 1962.42 450.538 1955.22 445.093C1946.65 438.511 1937 425.427 1936.91 420.428C1936.87 417.739 1940.48 415.755 1952.71 411.691C1972.02 405.393 1972.98 405.377 1978.46 411.052C1983.15 415.771 1995.9 419.589 2006.09 419.411C2032.21 418.955 2047.07 400.243 2032.8 386.269C2026.74 380.614 2025.01 380.255 1995.75 377.495C1953.6 373.62 1929.94 350.199 1931.61 314.235C1932.86 286.919 1949.63 267.413 1978.31 259.411L1986.92 257.151L1987.24 242.343L1987.57 227.535L2002.73 227.27L2017.91 227.005L2018.75 241.633Z" fill="white"/>
<path d="M1715.32 309.969C1697.76 316.806 1684.19 331.845 1679.87 349.023C1677.18 359.832 1679.23 378.439 1684.39 388.15C1689.76 398.238 1699.92 408.062 1710.59 413.447C1722.22 419.395 1747.97 419.136 1759.2 412.789C1771.2 406.048 1777.62 399.785 1783.57 388.34C1788.6 379.22 1789.12 376.131 1788.87 361.723C1788.62 347.315 1787.98 344.246 1782.64 335.308C1772.34 317.235 1757.19 308.268 1736.03 307.487C1727.58 307.255 1719.9 308.159 1715.32 309.969Z" fill="white"/>
<path d="M2257.12 300.512C2239.18 307.556 2225.98 322.198 2221.68 339.756C2217 358.29 2224.95 384.096 2238.79 395.386C2251.27 405.55 2259.39 408.288 2276.88 407.983C2290.14 407.752 2294.73 406.901 2301.39 403.135C2335.08 384.484 2341.79 339.39 2314.62 313.15C2310.72 309.568 2303.9 304.686 2299.44 302.463C2289.16 297.452 2267.42 296.481 2257.12 300.512Z" fill="white"/>
<path d="M840 328.5C825.917 328.5 814.5 339.917 814.5 354C814.5 368.083 825.917 379.5 840 379.5L840 328.5ZM1463.03 372.031C1472.99 362.073 1472.99 345.927 1463.03 335.969L1300.75 173.688C1290.79 163.729 1274.65 163.729 1264.69 173.688C1254.73 183.646 1254.73 199.792 1264.69 209.75L1408.94 354L1264.69 498.25C1254.73 508.208 1254.73 524.354 1264.69 534.312C1274.65 544.271 1290.79 544.271 1300.75 534.312L1463.03 372.031ZM840 379.5L1445 379.5L1445 328.5L840 328.5L840 379.5Z" fill="white"/>
<path d="M781.649 447.042L740.858 436.871C739.209 436.46 737.463 436.915 736.225 438.079L700.438 471.703C697.68 474.294 693.155 473.002 692.182 469.345L680.226 424.417C679.758 422.657 678.371 421.291 676.604 420.851L588.585 398.905C584.822 397.967 581.47 401.484 582.587 405.198L651.129 632.965C652.221 636.596 656.799 637.737 659.468 635.045L826.917 466.116C829.647 463.362 828.339 458.683 824.576 457.745L781.649 447.042ZM609.628 430.781C608.51 427.067 611.863 423.55 615.626 424.488L634.709 429.246C636.427 429.674 637.791 430.98 638.293 432.679L672.354 547.779C673.436 551.435 678.047 552.584 680.717 549.863L764.773 464.215C766.015 462.951 767.832 462.437 769.552 462.866L788.636 467.624C792.398 468.562 793.707 473.241 790.978 475.995L668.243 599.845C665.575 602.538 660.997 601.397 659.904 597.767L609.628 430.781Z" fill="white"/>
</g>
<defs>
<filter id="filter0_d_863_125" x="33.2114" y="49.4519" width="2468.7" height="716.826" filterUnits="userSpaceOnUse" color-interpolation-filters="sRGB">
<feFlood flood-opacity="0" result="BackgroundImageFix"/>
<feColorMatrix in="SourceAlpha" type="matrix" values="0 0 0 0 0 0 0 0 0 0 0 0 0 0 0 0 0 0 127 0" result="hardAlpha"/>
<feOffset dx="2" dy="2"/>
<feGaussianBlur stdDeviation="1"/>
<feComposite in2="hardAlpha" operator="out"/>
<feColorMatrix type="matrix" values="0 0 0 0 0.192157 0 0 0 0 0.215686 0 0 0 0 0.278431 0 0 0 1 0"/>
<feBlend mode="normal" in2="BackgroundImageFix" result="effect1_dropShadow_863_125"/>
<feBlend mode="normal" in="SourceGraphic" in2="effect1_dropShadow_863_125" result="shape"/>
</filter>
</defs>
</svg>
