<?xml version="1.0" encoding="utf-8"?>
<svg version="1.1" xmlns="http://www.w3.org/2000/svg" xmlns:xlink="http://www.w3.org/1999/xlink" x="0px" y="0px" viewBox="0 0 1000 1000" enable-background="new 0 0 1000 1000" xml:space="preserve"  fill="white">
<g><g transform="translate(0.000000,511.000000) scale(0.100000,-0.100000)"><path d="M4156.2,4990.2c-198.9-50.3-393.5-212-494.1-415.3c-45.9-91.8-50.3-133.4-56.8-531.2l-8.8-432.8h-389.1c-454.7,0-559.6-17.5-797.9-131.2c-395.7-190.2-725.8-588-850.4-1027.4c-17.5-65.6-157.4-623-308.2-1237.3L975.5,97.8L850.9,58.5c-352-109.3-618.7-395.7-714.8-765.1c-48.1-188-48.1-1667.9,0-1853.7c78.7-299.5,284.2-566.2,535.6-693l131.2-65.6v-618.6c0-878.8-26.2-846,699.5-846c524.6,0,566.2,10.9,655.8,157.4c41.5,67.8,43.7,111.5,43.7,658v583.7H5000h2798.1V-3966c0-633.9,6.6-675.5,126.8-762.9c54.6-41.5,94-43.7,577.1-43.7h520.3l80.9,83.1l83.1,80.9l6.6,644.9l6.6,642.7l135.5,72.1c251.4,133.3,452.5,395.7,529,684.2c48.1,188,48.1,1670.1,0,1858.1c-98.4,369.4-384.7,671.1-747.6,776l-89.6,28.4l-310.4,1237.3c-194.6,787-330.1,1287.6-369.4,1372.8c-203.3,432.8-583.7,765.1-996.8,870c-91.8,24.1-247,32.8-537.8,32.8h-408.8l-8.8,421.9c-6.6,397.9-8.7,426.3-63.4,540c-80.9,174.9-177.1,273.3-343.2,354.1l-146.5,72.1l-808.8,4.4C4589,5005.5,4193.3,4998.9,4156.2,4990.2z M4453.5,4430.6c0-70-4.4-76.5-65.6-76.5h-65.6v-218.6v-218.6h-98.4h-98.4v218.6v218.6H4060c-50.3,0-65.6,10.9-65.6,41.5c0,104.9,15.3,111.5,242.7,111.5h216.4V4430.6z M4936.6,4222.9c35-150.8,61.2-279.8,61.2-288.6c2.2-10.9-37.2-17.5-87.4-17.5c-69.9,0-91.8,8.8-100.6,43.7c-8.7,32.8-30.6,43.7-85.3,43.7c-59,0-74.3-8.7-74.3-43.7c0-37.2-15.3-43.7-87.4-43.7c-48.1,0-87.4,10.9-87.4,21.9c0,35,111.5,533.4,124.6,553.1c6.6,8.8,70,15.3,144.3,10.9l133.3-6.6L4936.6,4222.9z M5308.2,4415.3l26.2-94l24.1,87.4c24,83.1,30.6,87.4,118,94c50.3,4.4,91.8-2.2,91.8-13.1s-19.7-74.3-41.5-142.1l-43.7-124.6l52.5-153l52.5-153h-107.1h-107.1l-26.2,94l-26.2,91.8l-30.6-91.8c-30.6-91.8-35-94-131.2-94c-67.8,0-94,8.8-89.6,28.4c4.4,13.1,26.2,83.1,50.3,155.2l41.5,126.8l-45.9,126.8c-26.2,70-41.5,133.4-32.8,139.9c6.6,6.6,54.6,13.1,104.9,13.1C5279.8,4507.1,5282,4504.9,5308.2,4415.3z M5874.4,4212v-295.1H5787h-87.4V4212v295.1h87.4h87.4V4212z M7393.7,2841.3c133.3-69.9,284.2-227.3,341-354.1c21.9-52.5,50.3-161.8,63.4-244.8c10.9-83.1,109.3-592.4,218.6-1134.6c107.1-540,196.7-985.9,196.7-988.1c0-4.4-1445-6.6-3213.5-6.6c-1766.3,0-3213.5,8.8-3213.5,17.5c0,8.8,89.6,459.1,196.7,999c109.3,542.1,207.7,1047.1,220.8,1125.8c10.9,76.5,39.3,183.6,63.4,233.9c76.5,172.7,271.1,343.2,459.1,402.2c30.6,8.7,1069,15.3,2306.3,13.1l2251.6-4.4L7393.7,2841.3z M1828.1-673.8c142.1-76.5,225.2-164,310.4-327.9c74.3-146.5,74.3-402.2-4.4-570.5c-72.1-155.2-190.2-273.3-345.4-345.4c-168.3-78.7-419.7-78.7-581.5-2.2c-227.3,109.3-378.2,330.1-397.9,577.1C763.5-789.7,1338.4-413.7,1828.1-673.8z M8711.9-621.4c166.2-54.6,306-172.7,395.7-336.7c69.9-129,78.7-157.4,78.7-317c0-144.3-10.9-196.7-56.8-297.3c-120.2-257.9-347.6-402.2-634-402.2c-146.5,0-183.6,8.8-317,76.5c-260.1,133.4-397.9,378.2-373.8,673.3C7839.7-780.9,8285.6-483.6,8711.9-621.4z"/><path d="M4715.8,4284.1c0-19.7-6.6-65.6-13.1-102.7c-13.1-56.8-8.7-67.8,28.4-67.8c39.3,0,43.7,8.8,28.4,87.4C4742,4292.8,4715.8,4343.1,4715.8,4284.1z"/><path d="M5448.1,1490.3c-435-87.4-808.8-432.8-942.2-872.2c-48.1-161.8-56.8-155.2,216.4-155.2h247l26.2,72.1c80.9,225.2,284.2,404.4,526.8,465.6c155.2,39.3,271.1,30.6,450.3-28.4c142.1-45.9,358.5-257.9,415.4-404.4l39.3-104.9h249.2h251.4l-15.3,72.1c-98.4,450.3-461.3,824.1-918.1,944.4C5859.1,1514.4,5594.6,1518.8,5448.1,1490.3z"/></g></g>
</svg>